<?xml version="1.0" encoding="UTF-8" standalone="no"?>
<!DOCTYPE svg PUBLIC "-//W3C//DTD SVG 1.1//EN"
 "http://www.w3.org/Graphics/SVG/1.1/DTD/svg11.dtd">
<!-- Generated by graphviz version 2.38.0 (20140413.2041)
 -->
<!-- Title: g Pages: 1 -->
<svg width="1475pt" height="637pt"
 viewBox="0.00 0.00 1475.00 637.35" xmlns="http://www.w3.org/2000/svg" xmlns:xlink="http://www.w3.org/1999/xlink">
<g id="graph0" class="graph" transform="scale(1 1) rotate(0) translate(4 633.346)">
<title>g</title>
<polygon fill="white" stroke="none" points="-4,4 -4,-633.346 1471,-633.346 1471,4 -4,4"/>
<!-- P0 -->
<g id="node1" class="node"><title>P0</title>
<polygon fill="none" stroke="black" points="0,-518.846 0,-587.846 69,-587.846 69,-518.846 0,-518.846"/>
<text text-anchor="middle" x="34.5" y="-572.646" font-family="Times,serif" font-size="14.00">Product 0</text>
<polyline fill="none" stroke="black" points="0,-564.846 69,-564.846 "/>
<text text-anchor="middle" x="34.5" y="-549.646" font-family="Times,serif" font-size="14.00">Value 4</text>
<polyline fill="none" stroke="black" points="0,-541.846 69,-541.846 "/>
<text text-anchor="middle" x="34.5" y="-526.646" font-family="Times,serif" font-size="14.00">Initial 13</text>
</g>
<!-- B1 -->
<g id="node12" class="node"><title>B1</title>
<path fill="none" stroke="black" d="M124,-465.346C124,-465.346 178,-465.346 178,-465.346 184,-465.346 190,-471.346 190,-477.346 190,-477.346 190,-499.346 190,-499.346 190,-505.346 184,-511.346 178,-511.346 178,-511.346 124,-511.346 124,-511.346 118,-511.346 112,-505.346 112,-499.346 112,-499.346 112,-477.346 112,-477.346 112,-471.346 118,-465.346 124,-465.346"/>
<text text-anchor="middle" x="151" y="-496.146" font-family="Times,serif" font-size="14.00">Blueprint 1</text>
<polyline fill="none" stroke="black" points="112,-488.346 190,-488.346 "/>
<text text-anchor="middle" x="151" y="-473.146" font-family="Times,serif" font-size="14.00">Coolant 5</text>
</g>
<!-- P0&#45;&gt;B1 -->
<g id="edge10" class="edge"><title>P0:a&#45;&gt;B1:a</title>
<path fill="none" stroke="black" d="M69,-576.346C76.8453,-576.346 93.7741,-526.655 105.097,-507.633"/>
<polygon fill="black" stroke="black" points="107.664,-510.012 112,-500.346 102.582,-505.198 107.664,-510.012"/>
<text text-anchor="middle" x="90.5" y="-549.146" font-family="Times,serif" font-size="14.00">1</text>
</g>
<!-- B3 -->
<g id="node14" class="node"><title>B3</title>
<path fill="none" stroke="black" d="M1289,-176.346C1289,-176.346 1343,-176.346 1343,-176.346 1349,-176.346 1355,-182.346 1355,-188.346 1355,-188.346 1355,-210.346 1355,-210.346 1355,-216.346 1349,-222.346 1343,-222.346 1343,-222.346 1289,-222.346 1289,-222.346 1283,-222.346 1277,-216.346 1277,-210.346 1277,-210.346 1277,-188.346 1277,-188.346 1277,-182.346 1283,-176.346 1289,-176.346"/>
<text text-anchor="middle" x="1316" y="-207.146" font-family="Times,serif" font-size="14.00">Blueprint 3</text>
<polyline fill="none" stroke="black" points="1277,-199.346 1355,-199.346 "/>
<text text-anchor="middle" x="1316" y="-184.146" font-family="Times,serif" font-size="14.00">Coolant 3</text>
</g>
<!-- P0&#45;&gt;B3 -->
<g id="edge17" class="edge"><title>P0:a&#45;&gt;B3:a</title>
<path fill="none" stroke="black" d="M69,-576.346C79.1349,-576.346 78.1673,-585.376 87,-590.346 113.113,-605.038 120.037,-614.346 150,-614.346 150,-614.346 150,-614.346 1200.5,-614.346 1226.77,-614.346 1304.34,-298.924 1314.82,-233.488"/>
<polygon fill="black" stroke="black" points="1318.32,-233.682 1316,-223.346 1311.37,-232.875 1318.32,-233.682"/>
<text text-anchor="middle" x="677.5" y="-618.146" font-family="Times,serif" font-size="14.00">2</text>
</g>
<!-- P1 -->
<g id="node2" class="node"><title>P1</title>
<polygon fill="none" stroke="black" points="466,-232.846 466,-301.846 535,-301.846 535,-232.846 466,-232.846"/>
<text text-anchor="middle" x="500.5" y="-286.646" font-family="Times,serif" font-size="14.00">Product 1</text>
<polyline fill="none" stroke="black" points="466,-278.846 535,-278.846 "/>
<text text-anchor="middle" x="500.5" y="-263.646" font-family="Times,serif" font-size="14.00">Value 2</text>
<polyline fill="none" stroke="black" points="466,-255.846 535,-255.846 "/>
<text text-anchor="middle" x="500.5" y="-240.646" font-family="Times,serif" font-size="14.00">Initial 9</text>
</g>
<!-- B4 -->
<g id="node15" class="node"><title>B4</title>
<path fill="none" stroke="black" d="M590,-101.346C590,-101.346 644,-101.346 644,-101.346 650,-101.346 656,-107.346 656,-113.346 656,-113.346 656,-135.346 656,-135.346 656,-141.346 650,-147.346 644,-147.346 644,-147.346 590,-147.346 590,-147.346 584,-147.346 578,-141.346 578,-135.346 578,-135.346 578,-113.346 578,-113.346 578,-107.346 584,-101.346 590,-101.346"/>
<text text-anchor="middle" x="617" y="-132.146" font-family="Times,serif" font-size="14.00">Blueprint 4</text>
<polyline fill="none" stroke="black" points="578,-124.346 656,-124.346 "/>
<text text-anchor="middle" x="617" y="-109.146" font-family="Times,serif" font-size="14.00">Coolant 2</text>
</g>
<!-- P1&#45;&gt;B4 -->
<g id="edge22" class="edge"><title>P1:a&#45;&gt;B4:a</title>
<path fill="none" stroke="black" d="M535,-290.346C566.923,-290.346 547.513,-166.038 569.009,-140.788"/>
<polygon fill="black" stroke="black" points="570.585,-143.913 578,-136.346 567.484,-137.638 570.585,-143.913"/>
<text text-anchor="middle" x="556.5" y="-261.146" font-family="Times,serif" font-size="14.00">1</text>
</g>
<!-- P2 -->
<g id="node3" class="node"><title>P2</title>
<polygon fill="none" stroke="black" points="1165,-380.846 1165,-449.846 1234,-449.846 1234,-380.846 1165,-380.846"/>
<text text-anchor="middle" x="1199.5" y="-434.646" font-family="Times,serif" font-size="14.00">Product 2</text>
<polyline fill="none" stroke="black" points="1165,-426.846 1234,-426.846 "/>
<text text-anchor="middle" x="1199.5" y="-411.646" font-family="Times,serif" font-size="14.00">Value 6</text>
<polyline fill="none" stroke="black" points="1165,-403.846 1234,-403.846 "/>
<text text-anchor="middle" x="1199.5" y="-388.646" font-family="Times,serif" font-size="14.00">Initial 13</text>
</g>
<!-- B0 -->
<g id="node11" class="node"><title>B0</title>
<path fill="none" stroke="black" d="M357,-277.346C357,-277.346 411,-277.346 411,-277.346 417,-277.346 423,-283.346 423,-289.346 423,-289.346 423,-311.346 423,-311.346 423,-317.346 417,-323.346 411,-323.346 411,-323.346 357,-323.346 357,-323.346 351,-323.346 345,-317.346 345,-311.346 345,-311.346 345,-289.346 345,-289.346 345,-283.346 351,-277.346 357,-277.346"/>
<text text-anchor="middle" x="384" y="-308.146" font-family="Times,serif" font-size="14.00">Blueprint 0</text>
<polyline fill="none" stroke="black" points="345,-300.346 423,-300.346 "/>
<text text-anchor="middle" x="384" y="-285.146" font-family="Times,serif" font-size="14.00">Coolant 9</text>
</g>
<!-- P2&#45;&gt;B0 -->
<g id="edge1" class="edge"><title>P2:a&#45;&gt;B0:a</title>
<path fill="none" stroke="black" d="M1165,-438.346C1153.37,-438.346 1156.32,-450.388 1147,-457.346 1121.83,-476.131 1115.4,-489.346 1084,-489.346 849,-489.346 849,-489.346 849,-489.346 770.627,-489.346 756.873,-444.346 678.5,-444.346 499.5,-444.346 499.5,-444.346 499.5,-444.346 456.874,-444.346 457.954,-407.455 441,-368.346 432.389,-348.482 443.624,-323.113 432.894,-314.979"/>
<polygon fill="black" stroke="black" points="433.564,-311.536 423,-312.346 431.763,-318.3 433.564,-311.536"/>
<text text-anchor="middle" x="789.5" y="-484.146" font-family="Times,serif" font-size="14.00">1</text>
</g>
<!-- P2&#45;&gt;B1 -->
<g id="edge11" class="edge"><title>P2:a&#45;&gt;B1:a</title>
<path fill="none" stroke="black" d="M1165,-438.346C1147.11,-438.346 1156.4,-459.129 1147,-474.346 1122.47,-514.043 1130.67,-558.346 1084,-558.346 732.5,-558.346 732.5,-558.346 732.5,-558.346 654.216,-558.346 635.784,-538.346 557.5,-538.346 266.5,-538.346 266.5,-538.346 266.5,-538.346 238.397,-538.346 232.316,-528.436 208,-514.346 203.341,-511.646 201.413,-507.864 199.109,-504.911"/>
<polygon fill="black" stroke="black" points="200.508,-501.697 190,-500.346 197.372,-507.955 200.508,-501.697"/>
<text text-anchor="middle" x="677.5" y="-559.146" font-family="Times,serif" font-size="14.00">1</text>
</g>
<!-- P2&#45;&gt;B3 -->
<g id="edge18" class="edge"><title>P2:a&#45;&gt;B3:a</title>
<path fill="none" stroke="black" d="M1234,-438.346C1281.53,-438.346 1233.91,-243.79 1267.31,-214.911"/>
<polygon fill="black" stroke="black" points="1268.82,-218.084 1277,-211.346 1266.41,-211.515 1268.82,-218.084"/>
<text text-anchor="middle" x="1255.5" y="-423.146" font-family="Times,serif" font-size="14.00">3</text>
</g>
<!-- P2&#45;&gt;B4 -->
<g id="edge23" class="edge"><title>P2:a&#45;&gt;B4:a</title>
<path fill="none" stroke="black" d="M1165,-438.346C1128.37,-438.346 1032.26,-171.438 1001,-152.346 872.941,-74.1408 812.251,-133.543 666.204,-136.251"/>
<polygon fill="black" stroke="black" points="665.967,-132.753 656,-136.346 666.032,-139.753 665.967,-132.753"/>
<text text-anchor="middle" x="910.5" y="-120.146" font-family="Times,serif" font-size="14.00">1</text>
</g>
<!-- P3 -->
<g id="node4" class="node"><title>P3</title>
<polygon fill="none" stroke="black" points="932,-380.846 932,-449.846 1001,-449.846 1001,-380.846 932,-380.846"/>
<text text-anchor="middle" x="966.5" y="-434.646" font-family="Times,serif" font-size="14.00">Product 3</text>
<polyline fill="none" stroke="black" points="932,-426.846 1001,-426.846 "/>
<text text-anchor="middle" x="966.5" y="-411.646" font-family="Times,serif" font-size="14.00">Value 5</text>
<polyline fill="none" stroke="black" points="932,-403.846 1001,-403.846 "/>
<text text-anchor="middle" x="966.5" y="-388.646" font-family="Times,serif" font-size="14.00">Initial 16</text>
</g>
<!-- B2 -->
<g id="node13" class="node"><title>B2</title>
<path fill="none" stroke="black" d="M1056,-403.346C1056,-403.346 1110,-403.346 1110,-403.346 1116,-403.346 1122,-409.346 1122,-415.346 1122,-415.346 1122,-437.346 1122,-437.346 1122,-443.346 1116,-449.346 1110,-449.346 1110,-449.346 1056,-449.346 1056,-449.346 1050,-449.346 1044,-443.346 1044,-437.346 1044,-437.346 1044,-415.346 1044,-415.346 1044,-409.346 1050,-403.346 1056,-403.346"/>
<text text-anchor="middle" x="1083" y="-434.146" font-family="Times,serif" font-size="14.00">Blueprint 2</text>
<polyline fill="none" stroke="black" points="1044,-426.346 1122,-426.346 "/>
<text text-anchor="middle" x="1083" y="-411.146" font-family="Times,serif" font-size="14.00">Coolant 4</text>
</g>
<!-- P3&#45;&gt;B2 -->
<g id="edge15" class="edge"><title>P3:a&#45;&gt;B2:a</title>
<path fill="none" stroke="black" d="M1001,-438.346C1016.23,-438.346 1022.36,-438.346 1033.89,-438.346"/>
<polygon fill="black" stroke="black" points="1034,-441.846 1044,-438.346 1034,-434.846 1034,-441.846"/>
<text text-anchor="middle" x="1022.5" y="-442.146" font-family="Times,serif" font-size="14.00">1</text>
</g>
<!-- P4 -->
<g id="node5" class="node"><title>P4</title>
<polygon fill="none" stroke="black" points="699,-232.846 699,-301.846 768,-301.846 768,-232.846 699,-232.846"/>
<text text-anchor="middle" x="733.5" y="-286.646" font-family="Times,serif" font-size="14.00">Product 4</text>
<polyline fill="none" stroke="black" points="699,-278.846 768,-278.846 "/>
<text text-anchor="middle" x="733.5" y="-263.646" font-family="Times,serif" font-size="14.00">Value 3</text>
<polyline fill="none" stroke="black" points="699,-255.846 768,-255.846 "/>
<text text-anchor="middle" x="733.5" y="-240.646" font-family="Times,serif" font-size="14.00">Initial 8</text>
</g>
<!-- B5 -->
<g id="node16" class="node"><title>B5</title>
<path fill="none" stroke="black" d="M823,-293.346C823,-293.346 877,-293.346 877,-293.346 883,-293.346 889,-299.346 889,-305.346 889,-305.346 889,-327.346 889,-327.346 889,-333.346 883,-339.346 877,-339.346 877,-339.346 823,-339.346 823,-339.346 817,-339.346 811,-333.346 811,-327.346 811,-327.346 811,-305.346 811,-305.346 811,-299.346 817,-293.346 823,-293.346"/>
<text text-anchor="middle" x="850" y="-324.146" font-family="Times,serif" font-size="14.00">Blueprint 5</text>
<polyline fill="none" stroke="black" points="811,-316.346 889,-316.346 "/>
<text text-anchor="middle" x="850" y="-301.146" font-family="Times,serif" font-size="14.00">Coolant 8</text>
</g>
<!-- P4&#45;&gt;B5 -->
<g id="edge29" class="edge"><title>P4:a&#45;&gt;B5:a</title>
<path fill="none" stroke="black" d="M768,-290.346C780.139,-290.346 783.705,-293.538 793,-301.346 800.247,-307.433 799.523,-317.159 802.245,-323.126"/>
<polygon fill="black" stroke="black" points="800.618,-326.231 811,-328.346 804.203,-320.218 800.618,-326.231"/>
<text text-anchor="middle" x="789.5" y="-305.146" font-family="Times,serif" font-size="14.00">2</text>
</g>
<!-- P5 -->
<g id="node6" class="node"><title>P5</title>
<polygon fill="none" stroke="black" points="233,-254.846 233,-323.846 302,-323.846 302,-254.846 233,-254.846"/>
<text text-anchor="middle" x="267.5" y="-308.646" font-family="Times,serif" font-size="14.00">Product 5</text>
<polyline fill="none" stroke="black" points="233,-300.846 302,-300.846 "/>
<text text-anchor="middle" x="267.5" y="-285.646" font-family="Times,serif" font-size="14.00">Value 3</text>
<polyline fill="none" stroke="black" points="233,-277.846 302,-277.846 "/>
<text text-anchor="middle" x="267.5" y="-262.646" font-family="Times,serif" font-size="14.00">Initial 3</text>
</g>
<!-- P5&#45;&gt;B0 -->
<g id="edge2" class="edge"><title>P5:a&#45;&gt;B0:a</title>
<path fill="none" stroke="black" d="M302,-312.346C317.229,-312.346 323.357,-312.346 334.888,-312.346"/>
<polygon fill="black" stroke="black" points="335,-315.846 345,-312.346 335,-308.846 335,-315.846"/>
<text text-anchor="middle" x="323.5" y="-316.146" font-family="Times,serif" font-size="14.00">1</text>
</g>
<!-- P5&#45;&gt;B4 -->
<g id="edge24" class="edge"><title>P5:a&#45;&gt;B4:a</title>
<path fill="none" stroke="black" d="M302,-312.346C323.538,-312.346 309.74,-138.282 320,-119.346 352.703,-58.9884 376.176,-45.9374 441,-23.3456 478.153,-10.3972 408.764,42.624 535,-74.3456 556.715,-94.4668 547.467,-127.382 568.073,-134.82"/>
<polygon fill="black" stroke="black" points="567.584,-138.286 578,-136.346 568.648,-131.367 567.584,-138.286"/>
<text text-anchor="middle" x="444.5" y="-27.1456" font-family="Times,serif" font-size="14.00">1</text>
</g>
<!-- P6 -->
<g id="node7" class="node"><title>P6</title>
<polygon fill="none" stroke="black" points="932,-161.846 932,-230.846 1001,-230.846 1001,-161.846 932,-161.846"/>
<text text-anchor="middle" x="966.5" y="-215.646" font-family="Times,serif" font-size="14.00">Product 6</text>
<polyline fill="none" stroke="black" points="932,-207.846 1001,-207.846 "/>
<text text-anchor="middle" x="966.5" y="-192.646" font-family="Times,serif" font-size="14.00">Value 0</text>
<polyline fill="none" stroke="black" points="932,-184.846 1001,-184.846 "/>
<text text-anchor="middle" x="966.5" y="-169.646" font-family="Times,serif" font-size="14.00">Initial 9</text>
</g>
<!-- P6&#45;&gt;B3 -->
<g id="edge19" class="edge"><title>P6:a&#45;&gt;B3:a</title>
<path fill="none" stroke="black" d="M1001,-219.346C1013.63,-219.346 1008.14,-203.802 1019,-197.346 1066.05,-169.368 1085.5,-179.479 1140,-174.346 1193.63,-169.294 1210.08,-174.802 1259,-197.346 1263.89,-199.599 1265.8,-203.409 1268.04,-206.486"/>
<polygon fill="black" stroke="black" points="1266.54,-209.653 1277,-211.346 1269.88,-203.5 1266.54,-209.653"/>
<text text-anchor="middle" x="1143.5" y="-178.146" font-family="Times,serif" font-size="14.00">3</text>
</g>
<!-- P6&#45;&gt;B4 -->
<g id="edge25" class="edge"><title>P6:a&#45;&gt;B4:a</title>
<path fill="none" stroke="black" d="M932,-219.346C918.667,-219.346 925.182,-202.609 914,-195.346 818.246,-133.149 776.121,-136.108 666.146,-136.334"/>
<polygon fill="black" stroke="black" points="665.996,-132.834 656,-136.346 666.004,-139.834 665.996,-132.834"/>
<text text-anchor="middle" x="789.5" y="-146.146" font-family="Times,serif" font-size="14.00">1</text>
</g>
<!-- P7 -->
<g id="node8" class="node"><title>P7</title>
<polygon fill="none" stroke="black" points="466,-83.8456 466,-152.846 535,-152.846 535,-83.8456 466,-83.8456"/>
<text text-anchor="middle" x="500.5" y="-137.646" font-family="Times,serif" font-size="14.00">Product 7</text>
<polyline fill="none" stroke="black" points="466,-129.846 535,-129.846 "/>
<text text-anchor="middle" x="500.5" y="-114.646" font-family="Times,serif" font-size="14.00">Value 1</text>
<polyline fill="none" stroke="black" points="466,-106.846 535,-106.846 "/>
<text text-anchor="middle" x="500.5" y="-91.6456" font-family="Times,serif" font-size="14.00">Initial 2</text>
</g>
<!-- P7&#45;&gt;B1 -->
<g id="edge12" class="edge"><title>P7:a&#45;&gt;B1:a</title>
<path fill="none" stroke="black" d="M466,-141.346C352.597,-141.346 303.465,-156.492 233,-245.346 196.441,-291.445 217.751,-317.323 208,-375.346 203.967,-399.346 214.497,-475.722 199.064,-495.587"/>
<polygon fill="black" stroke="black" points="197.227,-492.598 190,-500.346 200.481,-498.796 197.227,-492.598"/>
<text text-anchor="middle" x="323.5" y="-170.146" font-family="Times,serif" font-size="14.00">1</text>
</g>
<!-- P7&#45;&gt;B4 -->
<g id="edge26" class="edge"><title>P7:a&#45;&gt;B4:a</title>
<path fill="none" stroke="black" d="M535,-141.346C543.195,-141.346 544.873,-138.402 553,-137.346 559.72,-136.472 563.404,-136.292 567.773,-136.284"/>
<polygon fill="black" stroke="black" points="567.979,-139.785 578,-136.346 568.021,-132.785 567.979,-139.785"/>
<text text-anchor="middle" x="556.5" y="-141.146" font-family="Times,serif" font-size="14.00">1</text>
</g>
<!-- P8 -->
<g id="node9" class="node"><title>P8</title>
<polygon fill="none" stroke="black" points="1398,-32.8456 1398,-101.846 1467,-101.846 1467,-32.8456 1398,-32.8456"/>
<text text-anchor="middle" x="1432.5" y="-86.6456" font-family="Times,serif" font-size="14.00">Product 8</text>
<polyline fill="none" stroke="black" points="1398,-78.8456 1467,-78.8456 "/>
<text text-anchor="middle" x="1432.5" y="-63.6456" font-family="Times,serif" font-size="14.00">Value 9</text>
<polyline fill="none" stroke="black" points="1398,-55.8456 1467,-55.8456 "/>
<text text-anchor="middle" x="1432.5" y="-40.6456" font-family="Times,serif" font-size="14.00">Initial 10</text>
</g>
<!-- P8&#45;&gt;B4 -->
<g id="edge27" class="edge"><title>P8:a&#45;&gt;B4:a</title>
<path fill="none" stroke="black" d="M1398,-90.3456C1362,-90.3456 1353,-90.3456 1317,-90.3456 732.5,-90.3456 732.5,-90.3456 732.5,-90.3456 696.546,-90.3456 695.513,-128.125 666.107,-135.208"/>
<polygon fill="black" stroke="black" points="665.546,-131.749 656,-136.346 666.329,-138.706 665.546,-131.749"/>
<text text-anchor="middle" x="1022.5" y="-94.1456" font-family="Times,serif" font-size="14.00">2</text>
</g>
<!-- P9 -->
<g id="node10" class="node"><title>P9</title>
<polygon fill="none" stroke="black" points="932,-284.846 932,-353.846 1001,-353.846 1001,-284.846 932,-284.846"/>
<text text-anchor="middle" x="966.5" y="-338.646" font-family="Times,serif" font-size="14.00">Product 9</text>
<polyline fill="none" stroke="black" points="932,-330.846 1001,-330.846 "/>
<text text-anchor="middle" x="966.5" y="-315.646" font-family="Times,serif" font-size="14.00">Value 5</text>
<polyline fill="none" stroke="black" points="932,-307.846 1001,-307.846 "/>
<text text-anchor="middle" x="966.5" y="-292.646" font-family="Times,serif" font-size="14.00">Initial 19</text>
</g>
<!-- P9&#45;&gt;B1 -->
<g id="edge13" class="edge"><title>P9:a&#45;&gt;B1:a</title>
<path fill="none" stroke="black" d="M932,-342.346C917.206,-342.346 925.088,-360.552 914,-370.346 904.763,-378.505 900.207,-377.218 889,-382.346 769.542,-437 749.367,-500.346 618,-500.346 266.5,-500.346 266.5,-500.346 266.5,-500.346 236.219,-500.346 226.164,-500.346 200.308,-500.346"/>
<polygon fill="black" stroke="black" points="200,-496.846 190,-500.346 200,-503.846 200,-496.846"/>
<text text-anchor="middle" x="556.5" y="-504.146" font-family="Times,serif" font-size="14.00">1</text>
</g>
<!-- P9&#45;&gt;B3 -->
<g id="edge20" class="edge"><title>P9:a&#45;&gt;B3:a</title>
<path fill="none" stroke="black" d="M1001,-342.346C1083.2,-342.346 1064.07,-251.823 1140,-220.346 1193.07,-198.348 1213.56,-209.791 1266.68,-211.208"/>
<polygon fill="black" stroke="black" points="1266.95,-214.712 1277,-211.346 1267.05,-207.713 1266.95,-214.712"/>
<text text-anchor="middle" x="1143.5" y="-224.146" font-family="Times,serif" font-size="14.00">1</text>
</g>
<!-- B0&#45;&gt;P1 -->
<g id="edge3" class="edge"><title>B0:a&#45;&gt;P1:a</title>
<path fill="none" stroke="black" d="M423,-312.346C432.376,-312.346 432.691,-305.688 441,-301.346 447.892,-297.744 451.232,-294.243 455.934,-292.191"/>
<polygon fill="black" stroke="black" points="456.795,-295.591 466,-290.346 455.533,-288.706 456.795,-295.591"/>
<text text-anchor="middle" x="444.5" y="-305.146" font-family="Times,serif" font-size="14.00">1</text>
</g>
<!-- B0&#45;&gt;P3 -->
<g id="edge4" class="edge"><title>B0:a&#45;&gt;P3:a</title>
<path fill="none" stroke="black" d="M423,-312.346C440.889,-312.346 430.955,-333.544 441,-348.346 461.56,-378.641 462.887,-406.346 499.5,-406.346 499.5,-406.346 499.5,-406.346 734.5,-406.346 819.949,-406.346 841.436,-435.894 921.888,-438.203"/>
<polygon fill="black" stroke="black" points="921.952,-441.704 932,-438.346 922.05,-434.705 921.952,-441.704"/>
<text text-anchor="middle" x="677.5" y="-410.146" font-family="Times,serif" font-size="14.00">1</text>
</g>
<!-- B0&#45;&gt;P4 -->
<g id="edge5" class="edge"><title>B0:a&#45;&gt;P4:a</title>
<path fill="none" stroke="black" d="M423,-312.346C431.195,-312.346 432.854,-315.451 441,-316.346 444.093,-316.685 444.89,-316.435 448,-316.346 486.715,-315.234 496.435,-314.918 535,-311.346 604.598,-304.898 623.689,-291.717 688.624,-290.445"/>
<polygon fill="black" stroke="black" points="689.034,-293.941 699,-290.346 688.967,-286.941 689.034,-293.941"/>
<text text-anchor="middle" x="556.5" y="-313.146" font-family="Times,serif" font-size="14.00">1</text>
</g>
<!-- B0&#45;&gt;P6 -->
<g id="edge6" class="edge"><title>B0:a&#45;&gt;P6:a</title>
<path fill="none" stroke="black" d="M423,-312.346C444.965,-312.346 450.988,-239.38 466,-223.346 477.698,-210.85 482.383,-204.346 499.5,-204.346 499.5,-204.346 499.5,-204.346 678.5,-204.346 787.947,-204.346 817.377,-218.451 921.979,-219.305"/>
<polygon fill="black" stroke="black" points="921.986,-222.805 932,-219.346 922.014,-215.805 921.986,-222.805"/>
<text text-anchor="middle" x="677.5" y="-208.146" font-family="Times,serif" font-size="14.00">1</text>
</g>
<!-- B0&#45;&gt;P7 -->
<g id="edge7" class="edge"><title>B0:a&#45;&gt;P7:a</title>
<path fill="none" stroke="black" d="M423,-312.346C453.706,-312.346 429.544,-203.835 441,-175.346 446.467,-161.75 447.203,-148.646 456.207,-143.563"/>
<polygon fill="black" stroke="black" points="457.02,-146.968 466,-141.346 455.474,-140.14 457.02,-146.968"/>
<text text-anchor="middle" x="444.5" y="-179.146" font-family="Times,serif" font-size="14.00">1</text>
</g>
<!-- B0&#45;&gt;P8 -->
<g id="edge8" class="edge"><title>B0:a&#45;&gt;P8:a</title>
<path fill="none" stroke="black" d="M423,-312.346C441,-312.346 437.201,-168.941 441,-151.346 451.786,-101.389 448.392,-52.3456 499.5,-52.3456 499.5,-52.3456 499.5,-52.3456 1317,-52.3456 1334.01,-52.3456 1366.64,-80.155 1388.17,-88.1936"/>
<polygon fill="black" stroke="black" points="1387.48,-91.626 1398,-90.3456 1388.98,-84.788 1387.48,-91.626"/>
<text text-anchor="middle" x="910.5" y="-56.1456" font-family="Times,serif" font-size="14.00">1</text>
</g>
<!-- B0&#45;&gt;P9 -->
<g id="edge9" class="edge"><title>B0:a&#45;&gt;P9:a</title>
<path fill="none" stroke="black" d="M423,-312.346C434.632,-312.346 432.015,-323.957 441,-331.346 464.762,-350.885 468.736,-368.346 499.5,-368.346 499.5,-368.346 499.5,-368.346 851,-368.346 879.683,-368.346 887.619,-365.603 914,-354.346 918.422,-352.459 920.518,-349.459 922.711,-346.93"/>
<polygon fill="black" stroke="black" points="924.582,-349.91 932,-342.346 921.484,-343.633 924.582,-349.91"/>
<text text-anchor="middle" x="677.5" y="-372.146" font-family="Times,serif" font-size="14.00">1</text>
</g>
<!-- B1&#45;&gt;P5 -->
<g id="edge14" class="edge"><title>B1:a&#45;&gt;P5:a</title>
<path fill="none" stroke="black" d="M190,-500.346C208.833,-500.346 211.225,-355.12 226.076,-319.948"/>
<polygon fill="black" stroke="black" points="228.854,-322.096 233,-312.346 223.679,-317.382 228.854,-322.096"/>
<text text-anchor="middle" x="211.5" y="-438.146" font-family="Times,serif" font-size="14.00">1</text>
</g>
<!-- B2&#45;&gt;P2 -->
<g id="edge16" class="edge"><title>B2:a&#45;&gt;P2:a</title>
<path fill="none" stroke="black" d="M1122,-438.346C1137.23,-438.346 1143.36,-438.346 1154.89,-438.346"/>
<polygon fill="black" stroke="black" points="1155,-441.846 1165,-438.346 1155,-434.846 1155,-441.846"/>
<text text-anchor="middle" x="1143.5" y="-442.146" font-family="Times,serif" font-size="14.00">1</text>
</g>
<!-- B3&#45;&gt;P8 -->
<g id="edge21" class="edge"><title>B3:a&#45;&gt;P8:a</title>
<path fill="none" stroke="black" d="M1355,-211.346C1379.97,-211.346 1372.32,-118.705 1389.13,-95.5448"/>
<polygon fill="black" stroke="black" points="1391.14,-98.4219 1398,-90.3456 1387.6,-92.3829 1391.14,-98.4219"/>
<text text-anchor="middle" x="1376.5" y="-180.146" font-family="Times,serif" font-size="14.00">1</text>
</g>
<!-- B4&#45;&gt;P4 -->
<g id="edge28" class="edge"><title>B4:a&#45;&gt;P4:a</title>
<path fill="none" stroke="black" d="M656,-136.346C675.743,-136.346 668.533,-204.375 674,-223.346 677.507,-235.514 681.209,-270.835 690.609,-284.682"/>
<polygon fill="black" stroke="black" points="688.753,-287.652 699,-290.346 692.67,-281.85 688.753,-287.652"/>
<text text-anchor="middle" x="677.5" y="-261.146" font-family="Times,serif" font-size="14.00">1</text>
</g>
<!-- B5&#45;&gt;P0 -->
<g id="edge30" class="edge"><title>B5:a&#45;&gt;P0:a</title>
<path fill="none" stroke="black" d="M811,-328.346C801.149,-328.346 567.351,-576.346 557.5,-576.346 150,-576.346 150,-576.346 150,-576.346 117.656,-576.346 107.107,-576.346 79.1898,-576.346"/>
<polygon fill="black" stroke="black" points="79,-572.846 69,-576.346 79,-579.846 79,-572.846"/>
<text text-anchor="middle" x="444.5" y="-580.146" font-family="Times,serif" font-size="14.00">1</text>
</g>
<!-- B5&#45;&gt;P1 -->
<g id="edge31" class="edge"><title>B5:a&#45;&gt;P1:a</title>
<path fill="none" stroke="black" d="M811,-328.346C782.302,-328.346 578.103,-330.251 553,-316.346 545.124,-311.983 545.72,-302.539 543.47,-296.315"/>
<polygon fill="black" stroke="black" points="545.19,-293.246 535,-290.346 541.158,-298.967 545.19,-293.246"/>
<text text-anchor="middle" x="677.5" y="-332.146" font-family="Times,serif" font-size="14.00">1</text>
</g>
<!-- B5&#45;&gt;P3 -->
<g id="edge32" class="edge"><title>B5:a&#45;&gt;P3:a</title>
<path fill="none" stroke="black" d="M889,-328.346C911.76,-328.346 907.645,-411.067 923.266,-433.04"/>
<polygon fill="black" stroke="black" points="921.636,-436.145 932,-438.346 925.271,-430.162 921.636,-436.145"/>
<text text-anchor="middle" x="910.5" y="-407.146" font-family="Times,serif" font-size="14.00">1</text>
</g>
<!-- B5&#45;&gt;P6 -->
<g id="edge33" class="edge"><title>B5:a&#45;&gt;P6:a</title>
<path fill="none" stroke="black" d="M889,-328.346C911.581,-328.346 907.753,-246.376 923.319,-224.603"/>
<polygon fill="black" stroke="black" points="925.259,-227.52 932,-219.346 921.633,-221.532 925.259,-227.52"/>
<text text-anchor="middle" x="910.5" y="-297.146" font-family="Times,serif" font-size="14.00">2</text>
</g>
<!-- B5&#45;&gt;P9 -->
<g id="edge34" class="edge"><title>B5:a&#45;&gt;P9:a</title>
<path fill="none" stroke="black" d="M889,-328.346C905.173,-328.346 910.147,-337.411 921.945,-340.952"/>
<polygon fill="black" stroke="black" points="921.614,-344.44 932,-342.346 922.575,-337.506 921.614,-344.44"/>
<text text-anchor="middle" x="910.5" y="-342.146" font-family="Times,serif" font-size="14.00">1</text>
</g>
</g>
</svg>
