<?xml version="1.0" encoding="UTF-8" standalone="no"?>
<!DOCTYPE svg PUBLIC "-//W3C//DTD SVG 1.1//EN"
 "http://www.w3.org/Graphics/SVG/1.1/DTD/svg11.dtd">
<!-- Generated by graphviz version 2.38.0 (20140413.2041)
 -->
<!-- Title: g Pages: 1 -->
<svg width="785pt" height="189pt"
 viewBox="0.00 0.00 785.00 189.00" xmlns="http://www.w3.org/2000/svg" xmlns:xlink="http://www.w3.org/1999/xlink">
<g id="graph0" class="graph" transform="scale(1 1) rotate(0) translate(4 185)">
<title>g</title>
<polygon fill="white" stroke="none" points="-4,4 -4,-185 781,-185 781,4 -4,4"/>
<!-- P0 -->
<g id="node1" class="node"><title>P0</title>
<polygon fill="none" stroke="black" points="0,-86.5 0,-155.5 69,-155.5 69,-86.5 0,-86.5"/>
<text text-anchor="middle" x="34.5" y="-140.3" font-family="Times,serif" font-size="14.00">Product 0</text>
<polyline fill="none" stroke="black" points="0,-132.5 69,-132.5 "/>
<text text-anchor="middle" x="34.5" y="-117.3" font-family="Times,serif" font-size="14.00">Value &#45;2</text>
<polyline fill="none" stroke="black" points="0,-109.5 69,-109.5 "/>
<text text-anchor="middle" x="34.5" y="-94.3" font-family="Times,serif" font-size="14.00">Initial 10</text>
</g>
<!-- B0 -->
<g id="node6" class="node"><title>B0</title>
<path fill="none" stroke="black" d="M124,-109C124,-109 178,-109 178,-109 184,-109 190,-115 190,-121 190,-121 190,-143 190,-143 190,-149 184,-155 178,-155 178,-155 124,-155 124,-155 118,-155 112,-149 112,-143 112,-143 112,-121 112,-121 112,-115 118,-109 124,-109"/>
<text text-anchor="middle" x="151" y="-139.8" font-family="Times,serif" font-size="14.00">Blueprint 0</text>
<polyline fill="none" stroke="black" points="112,-132 190,-132 "/>
<text text-anchor="middle" x="151" y="-116.8" font-family="Times,serif" font-size="14.00">Coolant 1</text>
</g>
<!-- P0&#45;&gt;B0 -->
<g id="edge1" class="edge"><title>P0:a&#45;&gt;B0:a</title>
<path fill="none" stroke="black" d="M69,-144C84.2292,-144 90.3565,-144 101.888,-144"/>
<polygon fill="black" stroke="black" points="102,-147.5 112,-144 102,-140.5 102,-147.5"/>
<text text-anchor="middle" x="90.5" y="-147.8" font-family="Times,serif" font-size="14.00">1</text>
</g>
<!-- B1 -->
<g id="node7" class="node"><title>B1</title>
<path fill="none" stroke="black" d="M357,-110C357,-110 411,-110 411,-110 417,-110 423,-116 423,-122 423,-122 423,-144 423,-144 423,-150 417,-156 411,-156 411,-156 357,-156 357,-156 351,-156 345,-150 345,-144 345,-144 345,-122 345,-122 345,-116 351,-110 357,-110"/>
<text text-anchor="middle" x="384" y="-140.8" font-family="Times,serif" font-size="14.00">Blueprint 1</text>
<polyline fill="none" stroke="black" points="345,-133 423,-133 "/>
<text text-anchor="middle" x="384" y="-117.8" font-family="Times,serif" font-size="14.00">Coolant 1</text>
</g>
<!-- P0&#45;&gt;B1 -->
<g id="edge3" class="edge"><title>P0:a&#45;&gt;B1:a</title>
<path fill="none" stroke="black" d="M69,-144C80.6322,-144 76.4083,-158.191 87,-163 97.1252,-167.597 100.883,-163.732 112,-164 196.421,-166.037 217.571,-166.688 302,-165 313.118,-164.778 316.875,-168.597 327,-164 333.123,-161.22 334.295,-155.304 336.441,-150.807"/>
<polygon fill="black" stroke="black" points="338.69,-153.511 345,-145 334.76,-147.718 338.69,-153.511"/>
<text text-anchor="middle" x="211.5" y="-169.8" font-family="Times,serif" font-size="14.00">1</text>
</g>
<!-- B3 -->
<g id="node9" class="node"><title>B3</title>
<path fill="none" stroke="black" d="M124,-44C124,-44 178,-44 178,-44 184,-44 190,-50 190,-56 190,-56 190,-78 190,-78 190,-84 184,-90 178,-90 178,-90 124,-90 124,-90 118,-90 112,-84 112,-78 112,-78 112,-56 112,-56 112,-50 118,-44 124,-44"/>
<text text-anchor="middle" x="151" y="-74.8" font-family="Times,serif" font-size="14.00">Blueprint 3</text>
<polyline fill="none" stroke="black" points="112,-67 190,-67 "/>
<text text-anchor="middle" x="151" y="-51.8" font-family="Times,serif" font-size="14.00">Coolant 2</text>
</g>
<!-- P0&#45;&gt;B3 -->
<g id="edge9" class="edge"><title>P0:a&#45;&gt;B3:a</title>
<path fill="none" stroke="black" d="M69,-144C83.2071,-144 91.3867,-100.261 103.428,-84.5419"/>
<polygon fill="black" stroke="black" points="105.502,-87.3684 112,-79 101.702,-81.4898 105.502,-87.3684"/>
<text text-anchor="middle" x="90.5" y="-123.8" font-family="Times,serif" font-size="14.00">1</text>
</g>
<!-- P1 -->
<g id="node2" class="node"><title>P1</title>
<polygon fill="none" stroke="black" points="233,-86.5 233,-155.5 302,-155.5 302,-86.5 233,-86.5"/>
<text text-anchor="middle" x="267.5" y="-140.3" font-family="Times,serif" font-size="14.00">Product 1</text>
<polyline fill="none" stroke="black" points="233,-132.5 302,-132.5 "/>
<text text-anchor="middle" x="267.5" y="-117.3" font-family="Times,serif" font-size="14.00">Value &#45;1</text>
<polyline fill="none" stroke="black" points="233,-109.5 302,-109.5 "/>
<text text-anchor="middle" x="267.5" y="-94.3" font-family="Times,serif" font-size="14.00">Initial 0</text>
</g>
<!-- P1&#45;&gt;B1 -->
<g id="edge4" class="edge"><title>P1:a&#45;&gt;B1:a</title>
<path fill="none" stroke="black" d="M302,-144C317.233,-144 323.355,-144.635 334.887,-144.893"/>
<polygon fill="black" stroke="black" points="334.963,-148.394 345,-145 335.038,-141.394 334.963,-148.394"/>
<text text-anchor="middle" x="323.5" y="-148.8" font-family="Times,serif" font-size="14.00">1</text>
</g>
<!-- P2 -->
<g id="node3" class="node"><title>P2</title>
<polygon fill="none" stroke="black" points="706,-88.5 706,-157.5 777,-157.5 777,-88.5 706,-88.5"/>
<text text-anchor="middle" x="741.5" y="-142.3" font-family="Times,serif" font-size="14.00">Product 2</text>
<polyline fill="none" stroke="black" points="706,-134.5 777,-134.5 "/>
<text text-anchor="middle" x="741.5" y="-119.3" font-family="Times,serif" font-size="14.00">Value &#45;20</text>
<polyline fill="none" stroke="black" points="706,-111.5 777,-111.5 "/>
<text text-anchor="middle" x="741.5" y="-96.3" font-family="Times,serif" font-size="14.00">Initial 0</text>
</g>
<!-- P3 -->
<g id="node4" class="node"><title>P3</title>
<polygon fill="none" stroke="black" points="466,-88.5 466,-157.5 535,-157.5 535,-88.5 466,-88.5"/>
<text text-anchor="middle" x="500.5" y="-142.3" font-family="Times,serif" font-size="14.00">Product 3</text>
<polyline fill="none" stroke="black" points="466,-134.5 535,-134.5 "/>
<text text-anchor="middle" x="500.5" y="-119.3" font-family="Times,serif" font-size="14.00">Value &#45;6</text>
<polyline fill="none" stroke="black" points="466,-111.5 535,-111.5 "/>
<text text-anchor="middle" x="500.5" y="-96.3" font-family="Times,serif" font-size="14.00">Initial 0</text>
</g>
<!-- B2 -->
<g id="node8" class="node"><title>B2</title>
<path fill="none" stroke="black" d="M597,-111C597,-111 651,-111 651,-111 657,-111 663,-117 663,-123 663,-123 663,-145 663,-145 663,-151 657,-157 651,-157 651,-157 597,-157 597,-157 591,-157 585,-151 585,-145 585,-145 585,-123 585,-123 585,-117 591,-111 597,-111"/>
<text text-anchor="middle" x="624" y="-141.8" font-family="Times,serif" font-size="14.00">Blueprint 2</text>
<polyline fill="none" stroke="black" points="585,-134 663,-134 "/>
<text text-anchor="middle" x="624" y="-118.8" font-family="Times,serif" font-size="14.00">Coolant 1</text>
</g>
<!-- P3&#45;&gt;B2 -->
<g id="edge7" class="edge"><title>P3:a&#45;&gt;B2:a</title>
<path fill="none" stroke="black" d="M535,-146C553.403,-146 560.376,-146 574.849,-146"/>
<polygon fill="black" stroke="black" points="575,-149.5 585,-146 575,-142.5 575,-149.5"/>
<text text-anchor="middle" x="560" y="-149.8" font-family="Times,serif" font-size="14.00">10</text>
</g>
<!-- P4 -->
<g id="node5" class="node"><title>P4</title>
<polygon fill="none" stroke="black" points="466,-0.5 466,-69.5 535,-69.5 535,-0.5 466,-0.5"/>
<text text-anchor="middle" x="500.5" y="-54.3" font-family="Times,serif" font-size="14.00">Product 4</text>
<polyline fill="none" stroke="black" points="466,-46.5 535,-46.5 "/>
<text text-anchor="middle" x="500.5" y="-31.3" font-family="Times,serif" font-size="14.00">Value 1</text>
<polyline fill="none" stroke="black" points="466,-23.5 535,-23.5 "/>
<text text-anchor="middle" x="500.5" y="-8.3" font-family="Times,serif" font-size="14.00">Initial 0</text>
</g>
<!-- B0&#45;&gt;P1 -->
<g id="edge2" class="edge"><title>B0:a&#45;&gt;P1:a</title>
<path fill="none" stroke="black" d="M190,-144C205.229,-144 211.357,-144 222.888,-144"/>
<polygon fill="black" stroke="black" points="223,-147.5 233,-144 223,-140.5 223,-147.5"/>
<text text-anchor="middle" x="211.5" y="-147.8" font-family="Times,serif" font-size="14.00">1</text>
</g>
<!-- B1&#45;&gt;P3 -->
<g id="edge5" class="edge"><title>B1:a&#45;&gt;P3:a</title>
<path fill="none" stroke="black" d="M423,-145C438.233,-145 444.355,-145.635 455.887,-145.893"/>
<polygon fill="black" stroke="black" points="455.963,-149.394 466,-146 456.038,-142.394 455.963,-149.394"/>
<text text-anchor="middle" x="444.5" y="-149.8" font-family="Times,serif" font-size="14.00">2</text>
</g>
<!-- B1&#45;&gt;P4 -->
<g id="edge6" class="edge"><title>B1:a&#45;&gt;P4:a</title>
<path fill="none" stroke="black" d="M423,-145C441.28,-145 443.971,-82.4887 457.501,-63.4422"/>
<polygon fill="black" stroke="black" points="459.466,-66.3401 466,-58 455.691,-60.4451 459.466,-66.3401"/>
<text text-anchor="middle" x="444.5" y="-118.8" font-family="Times,serif" font-size="14.00">1</text>
</g>
<!-- B2&#45;&gt;P2 -->
<g id="edge8" class="edge"><title>B2:a&#45;&gt;P2:a</title>
<path fill="none" stroke="black" d="M663,-146C678.229,-146 684.357,-146 695.888,-146"/>
<polygon fill="black" stroke="black" points="696,-149.5 706,-146 696,-142.5 696,-149.5"/>
<text text-anchor="middle" x="684.5" y="-149.8" font-family="Times,serif" font-size="14.00">1</text>
</g>
<!-- B3&#45;&gt;P1 -->
<g id="edge10" class="edge"><title>B3:a&#45;&gt;P1:a</title>
<path fill="none" stroke="black" d="M190,-79C204.207,-79 212.387,-122.739 224.428,-138.458"/>
<polygon fill="black" stroke="black" points="222.702,-141.51 233,-144 226.502,-135.632 222.702,-141.51"/>
<text text-anchor="middle" x="211.5" y="-123.8" font-family="Times,serif" font-size="14.00">1</text>
</g>
<!-- B3&#45;&gt;P4 -->
<g id="edge11" class="edge"><title>B3:a&#45;&gt;P4:a</title>
<path fill="none" stroke="black" d="M190,-79C218.413,-79 403.635,-61.0774 455.936,-58.347"/>
<polygon fill="black" stroke="black" points="456.127,-61.8426 466,-58 455.885,-54.8467 456.127,-61.8426"/>
<text text-anchor="middle" x="323.5" y="-72.8" font-family="Times,serif" font-size="14.00">1</text>
</g>
</g>
</svg>
