<?xml version="1.0" encoding="UTF-8" standalone="no"?>
<!DOCTYPE svg PUBLIC "-//W3C//DTD SVG 1.1//EN"
 "http://www.w3.org/Graphics/SVG/1.1/DTD/svg11.dtd">
<!-- Generated by graphviz version 2.38.0 (20140413.2041)
 -->
<!-- Title: g Pages: 1 -->
<svg width="873pt" height="352pt"
 viewBox="0.00 0.00 873.00 352.00" xmlns="http://www.w3.org/2000/svg" xmlns:xlink="http://www.w3.org/1999/xlink">
<g id="graph0" class="graph" transform="scale(1 1) rotate(0) translate(4 348)">
<title>g</title>
<polygon fill="white" stroke="none" points="-4,4 -4,-348 869,-348 869,4 -4,4"/>
<!-- P0 -->
<g id="node1" class="node"><title>P0</title>
<polygon fill="none" stroke="black" points="304,-243 304,-312 381,-312 381,-243 304,-243"/>
<text text-anchor="middle" x="342.5" y="-296.8" font-family="Times,serif" font-size="14.00">Product 0</text>
<polyline fill="none" stroke="black" points="304,-289 381,-289 "/>
<text text-anchor="middle" x="342.5" y="-273.8" font-family="Times,serif" font-size="14.00">Value &#45;100</text>
<polyline fill="none" stroke="black" points="304,-266 381,-266 "/>
<text text-anchor="middle" x="342.5" y="-250.8" font-family="Times,serif" font-size="14.00">Initial 0</text>
</g>
<!-- B1 -->
<g id="node9" class="node"><title>B1</title>
<path fill="none" stroke="black" d="M443,-297.5C443,-297.5 497,-297.5 497,-297.5 503,-297.5 509,-303.5 509,-309.5 509,-309.5 509,-331.5 509,-331.5 509,-337.5 503,-343.5 497,-343.5 497,-343.5 443,-343.5 443,-343.5 437,-343.5 431,-337.5 431,-331.5 431,-331.5 431,-309.5 431,-309.5 431,-303.5 437,-297.5 443,-297.5"/>
<text text-anchor="middle" x="470" y="-328.3" font-family="Times,serif" font-size="14.00">Blueprint 1</text>
<polyline fill="none" stroke="black" points="431,-320.5 509,-320.5 "/>
<text text-anchor="middle" x="470" y="-305.3" font-family="Times,serif" font-size="14.00">Coolant 1</text>
</g>
<!-- P0&#45;&gt;B1 -->
<g id="edge3" class="edge"><title>P0:a&#45;&gt;B1:a</title>
<path fill="none" stroke="black" d="M381,-300.5C391.704,-300.5 390.137,-310.499 399,-316.5 408.67,-323.047 412.819,-328.607 420.639,-331.099"/>
<polygon fill="black" stroke="black" points="420.621,-334.628 431,-332.5 421.559,-327.691 420.621,-334.628"/>
<text text-anchor="middle" x="406" y="-330.3" font-family="Times,serif" font-size="14.00">2</text>
</g>
<!-- B5 -->
<g id="node13" class="node"><title>B5</title>
<path fill="none" stroke="black" d="M443,-227.5C443,-227.5 497,-227.5 497,-227.5 503,-227.5 509,-233.5 509,-239.5 509,-239.5 509,-261.5 509,-261.5 509,-267.5 503,-273.5 497,-273.5 497,-273.5 443,-273.5 443,-273.5 437,-273.5 431,-267.5 431,-261.5 431,-261.5 431,-239.5 431,-239.5 431,-233.5 437,-227.5 443,-227.5"/>
<text text-anchor="middle" x="470" y="-258.3" font-family="Times,serif" font-size="14.00">Blueprint 5</text>
<polyline fill="none" stroke="black" points="431,-250.5 509,-250.5 "/>
<text text-anchor="middle" x="470" y="-235.3" font-family="Times,serif" font-size="14.00">Coolant 10</text>
</g>
<!-- P0&#45;&gt;B5 -->
<g id="edge11" class="edge"><title>P0:a&#45;&gt;B5:a</title>
<path fill="none" stroke="black" d="M381,-300.5C399.287,-300.5 383.65,-273.439 399,-263.5 407.678,-257.881 413.127,-259.899 420.915,-261.423"/>
<polygon fill="black" stroke="black" points="420.685,-264.918 431,-262.5 421.428,-257.958 420.685,-264.918"/>
<text text-anchor="middle" x="406" y="-267.3" font-family="Times,serif" font-size="14.00">10</text>
</g>
<!-- P1 -->
<g id="node2" class="node"><title>P1</title>
<polygon fill="none" stroke="black" points="308,-63 308,-132 377,-132 377,-63 308,-63"/>
<text text-anchor="middle" x="342.5" y="-116.8" font-family="Times,serif" font-size="14.00">Product 1</text>
<polyline fill="none" stroke="black" points="308,-109 377,-109 "/>
<text text-anchor="middle" x="342.5" y="-93.8" font-family="Times,serif" font-size="14.00">Value 5</text>
<polyline fill="none" stroke="black" points="308,-86 377,-86 "/>
<text text-anchor="middle" x="342.5" y="-70.8" font-family="Times,serif" font-size="14.00">Initial 0</text>
</g>
<!-- B4 -->
<g id="node12" class="node"><title>B4</title>
<path fill="none" stroke="black" d="M443,-85.5C443,-85.5 497,-85.5 497,-85.5 503,-85.5 509,-91.5 509,-97.5 509,-97.5 509,-119.5 509,-119.5 509,-125.5 503,-131.5 497,-131.5 497,-131.5 443,-131.5 443,-131.5 437,-131.5 431,-125.5 431,-119.5 431,-119.5 431,-97.5 431,-97.5 431,-91.5 437,-85.5 443,-85.5"/>
<text text-anchor="middle" x="470" y="-116.3" font-family="Times,serif" font-size="14.00">Blueprint 4</text>
<polyline fill="none" stroke="black" points="431,-108.5 509,-108.5 "/>
<text text-anchor="middle" x="470" y="-93.3" font-family="Times,serif" font-size="14.00">Coolant 1</text>
</g>
<!-- P1&#45;&gt;B4 -->
<g id="edge9" class="edge"><title>P1:a&#45;&gt;B4:a</title>
<path fill="none" stroke="black" d="M378.5,-120.5C398.005,-120.5 405.282,-120.5 420.774,-120.5"/>
<polygon fill="black" stroke="black" points="421,-124 431,-120.5 421,-117 421,-124"/>
<text text-anchor="middle" x="406" y="-124.3" font-family="Times,serif" font-size="14.00">2</text>
</g>
<!-- P2 -->
<g id="node3" class="node"><title>P2</title>
<polygon fill="none" stroke="black" points="552,-205 552,-274 632,-274 632,-205 552,-205"/>
<text text-anchor="middle" x="592" y="-258.8" font-family="Times,serif" font-size="14.00">Product 2</text>
<polyline fill="none" stroke="black" points="552,-251 632,-251 "/>
<text text-anchor="middle" x="592" y="-235.8" font-family="Times,serif" font-size="14.00">Value 2000</text>
<polyline fill="none" stroke="black" points="552,-228 632,-228 "/>
<text text-anchor="middle" x="592" y="-212.8" font-family="Times,serif" font-size="14.00">Initial 0</text>
</g>
<!-- P3 -->
<g id="node4" class="node"><title>P3</title>
<polygon fill="none" stroke="black" points="0,-113 0,-182 69,-182 69,-113 0,-113"/>
<text text-anchor="middle" x="34.5" y="-166.8" font-family="Times,serif" font-size="14.00">Product 3</text>
<polyline fill="none" stroke="black" points="0,-159 69,-159 "/>
<text text-anchor="middle" x="34.5" y="-143.8" font-family="Times,serif" font-size="14.00">Value 1</text>
<polyline fill="none" stroke="black" points="0,-136 69,-136 "/>
<text text-anchor="middle" x="34.5" y="-120.8" font-family="Times,serif" font-size="14.00">Initial 11</text>
</g>
<!-- B0 -->
<g id="node8" class="node"><title>B0</title>
<path fill="none" stroke="black" d="M124,-265.5C124,-265.5 178,-265.5 178,-265.5 184,-265.5 190,-271.5 190,-277.5 190,-277.5 190,-299.5 190,-299.5 190,-305.5 184,-311.5 178,-311.5 178,-311.5 124,-311.5 124,-311.5 118,-311.5 112,-305.5 112,-299.5 112,-299.5 112,-277.5 112,-277.5 112,-271.5 118,-265.5 124,-265.5"/>
<text text-anchor="middle" x="151" y="-296.3" font-family="Times,serif" font-size="14.00">Blueprint 0</text>
<polyline fill="none" stroke="black" points="112,-288.5 190,-288.5 "/>
<text text-anchor="middle" x="151" y="-273.3" font-family="Times,serif" font-size="14.00">Coolant 10</text>
</g>
<!-- P3&#45;&gt;B0 -->
<g id="edge1" class="edge"><title>P3:a&#45;&gt;B0:a</title>
<path fill="none" stroke="black" d="M69,-170.5C96.4154,-170.5 78.4454,-203.453 87,-229.5 96.1749,-257.435 82.6911,-291.111 102.004,-298.858"/>
<polygon fill="black" stroke="black" points="101.565,-302.332 112,-300.5 102.7,-295.425 101.565,-302.332"/>
<text text-anchor="middle" x="90.5" y="-294.3" font-family="Times,serif" font-size="14.00">1</text>
</g>
<!-- B2 -->
<g id="node10" class="node"><title>B2</title>
<path fill="none" stroke="black" d="M124,-135.5C124,-135.5 178,-135.5 178,-135.5 184,-135.5 190,-141.5 190,-147.5 190,-147.5 190,-169.5 190,-169.5 190,-175.5 184,-181.5 178,-181.5 178,-181.5 124,-181.5 124,-181.5 118,-181.5 112,-175.5 112,-169.5 112,-169.5 112,-147.5 112,-147.5 112,-141.5 118,-135.5 124,-135.5"/>
<text text-anchor="middle" x="151" y="-166.3" font-family="Times,serif" font-size="14.00">Blueprint 2</text>
<polyline fill="none" stroke="black" points="112,-158.5 190,-158.5 "/>
<text text-anchor="middle" x="151" y="-143.3" font-family="Times,serif" font-size="14.00">Coolant 1</text>
</g>
<!-- P3&#45;&gt;B2 -->
<g id="edge5" class="edge"><title>P3:a&#45;&gt;B2:a</title>
<path fill="none" stroke="black" d="M69,-170.5C84.2292,-170.5 90.3565,-170.5 101.888,-170.5"/>
<polygon fill="black" stroke="black" points="102,-174 112,-170.5 102,-167 102,-174"/>
<text text-anchor="middle" x="90.5" y="-174.3" font-family="Times,serif" font-size="14.00">2</text>
</g>
<!-- B3 -->
<g id="node11" class="node"><title>B3</title>
<path fill="none" stroke="black" d="M124,-70.5C124,-70.5 178,-70.5 178,-70.5 184,-70.5 190,-76.5 190,-82.5 190,-82.5 190,-104.5 190,-104.5 190,-110.5 184,-116.5 178,-116.5 178,-116.5 124,-116.5 124,-116.5 118,-116.5 112,-110.5 112,-104.5 112,-104.5 112,-82.5 112,-82.5 112,-76.5 118,-70.5 124,-70.5"/>
<text text-anchor="middle" x="151" y="-101.3" font-family="Times,serif" font-size="14.00">Blueprint 3</text>
<polyline fill="none" stroke="black" points="112,-93.5 190,-93.5 "/>
<text text-anchor="middle" x="151" y="-78.3" font-family="Times,serif" font-size="14.00">Coolant 1</text>
</g>
<!-- P3&#45;&gt;B3 -->
<g id="edge7" class="edge"><title>P3:a&#45;&gt;B3:a</title>
<path fill="none" stroke="black" d="M69,-170.5C83.2071,-170.5 91.3867,-126.761 103.428,-111.042"/>
<polygon fill="black" stroke="black" points="105.502,-113.868 112,-105.5 101.702,-107.99 105.502,-113.868"/>
<text text-anchor="middle" x="90.5" y="-149.3" font-family="Times,serif" font-size="14.00">1</text>
</g>
<!-- B8 -->
<g id="node16" class="node"><title>B8</title>
<path fill="none" stroke="black" d="M124,-200.5C124,-200.5 178,-200.5 178,-200.5 184,-200.5 190,-206.5 190,-212.5 190,-212.5 190,-234.5 190,-234.5 190,-240.5 184,-246.5 178,-246.5 178,-246.5 124,-246.5 124,-246.5 118,-246.5 112,-240.5 112,-234.5 112,-234.5 112,-212.5 112,-212.5 112,-206.5 118,-200.5 124,-200.5"/>
<text text-anchor="middle" x="151" y="-231.3" font-family="Times,serif" font-size="14.00">Blueprint 8</text>
<polyline fill="none" stroke="black" points="112,-223.5 190,-223.5 "/>
<text text-anchor="middle" x="151" y="-208.3" font-family="Times,serif" font-size="14.00">Coolant 1</text>
</g>
<!-- P3&#45;&gt;B8 -->
<g id="edge17" class="edge"><title>P3:a&#45;&gt;B8:a</title>
<path fill="none" stroke="black" d="M69,-170.5C83.2071,-170.5 91.3867,-214.239 103.428,-229.958"/>
<polygon fill="black" stroke="black" points="101.702,-233.01 112,-235.5 105.502,-227.132 101.702,-233.01"/>
<text text-anchor="middle" x="90.5" y="-214.3" font-family="Times,serif" font-size="14.00">1</text>
</g>
<!-- B9 -->
<g id="node17" class="node"><title>B9</title>
<path fill="none" stroke="black" d="M220,-0.5C220,-0.5 274,-0.5 274,-0.5 280,-0.5 286,-6.5 286,-12.5 286,-12.5 286,-34.5 286,-34.5 286,-40.5 280,-46.5 274,-46.5 274,-46.5 220,-46.5 220,-46.5 214,-46.5 208,-40.5 208,-34.5 208,-34.5 208,-12.5 208,-12.5 208,-6.5 214,-0.5 220,-0.5"/>
<text text-anchor="middle" x="247" y="-31.3" font-family="Times,serif" font-size="14.00">Blueprint 9</text>
<polyline fill="none" stroke="black" points="208,-23.5 286,-23.5 "/>
<text text-anchor="middle" x="247" y="-8.3" font-family="Times,serif" font-size="14.00">Coolant 1</text>
</g>
<!-- P3&#45;&gt;B9 -->
<g id="edge19" class="edge"><title>P3:a&#45;&gt;B9:a</title>
<path fill="none" stroke="black" d="M69,-170.5C96.8408,-170.5 76.6315,-136.338 87,-110.5 96.1051,-87.8103 93.0165,-76.9063 112,-61.5 143.507,-35.9297 160.816,-35.3955 197.637,-35.48"/>
<polygon fill="black" stroke="black" points="197.993,-38.9806 208,-35.5 198.007,-31.9806 197.993,-38.9806"/>
<text text-anchor="middle" x="90.5" y="-114.3" font-family="Times,serif" font-size="14.00">2</text>
</g>
<!-- P4 -->
<g id="node5" class="node"><title>P4</title>
<polygon fill="none" stroke="black" points="308,-151 308,-220 377,-220 377,-151 308,-151"/>
<text text-anchor="middle" x="342.5" y="-204.8" font-family="Times,serif" font-size="14.00">Product 4</text>
<polyline fill="none" stroke="black" points="308,-197 377,-197 "/>
<text text-anchor="middle" x="342.5" y="-181.8" font-family="Times,serif" font-size="14.00">Value 1</text>
<polyline fill="none" stroke="black" points="308,-174 377,-174 "/>
<text text-anchor="middle" x="342.5" y="-158.8" font-family="Times,serif" font-size="14.00">Initial 0</text>
</g>
<!-- B6 -->
<g id="node14" class="node"><title>B6</title>
<path fill="none" stroke="black" d="M443,-156.5C443,-156.5 497,-156.5 497,-156.5 503,-156.5 509,-162.5 509,-168.5 509,-168.5 509,-190.5 509,-190.5 509,-196.5 503,-202.5 497,-202.5 497,-202.5 443,-202.5 443,-202.5 437,-202.5 431,-196.5 431,-190.5 431,-190.5 431,-168.5 431,-168.5 431,-162.5 437,-156.5 443,-156.5"/>
<text text-anchor="middle" x="470" y="-187.3" font-family="Times,serif" font-size="14.00">Blueprint 6</text>
<polyline fill="none" stroke="black" points="431,-179.5 509,-179.5 "/>
<text text-anchor="middle" x="470" y="-164.3" font-family="Times,serif" font-size="14.00">Coolant 1</text>
</g>
<!-- P4&#45;&gt;B6 -->
<g id="edge13" class="edge"><title>P4:a&#45;&gt;B6:a</title>
<path fill="none" stroke="black" d="M378.5,-208.5C399.194,-208.5 404.882,-196.397 420.886,-192.615"/>
<polygon fill="black" stroke="black" points="421.444,-196.075 431,-191.5 420.677,-189.117 421.444,-196.075"/>
<text text-anchor="middle" x="406" y="-206.3" font-family="Times,serif" font-size="14.00">1</text>
</g>
<!-- P5 -->
<g id="node6" class="node"><title>P5</title>
<polygon fill="none" stroke="black" points="557.5,-63 557.5,-132 626.5,-132 626.5,-63 557.5,-63"/>
<text text-anchor="middle" x="592" y="-116.8" font-family="Times,serif" font-size="14.00">Product 5</text>
<polyline fill="none" stroke="black" points="557.5,-109 626.5,-109 "/>
<text text-anchor="middle" x="592" y="-93.8" font-family="Times,serif" font-size="14.00">Value 1</text>
<polyline fill="none" stroke="black" points="557.5,-86 626.5,-86 "/>
<text text-anchor="middle" x="592" y="-70.8" font-family="Times,serif" font-size="14.00">Initial 0</text>
</g>
<!-- B7 -->
<g id="node15" class="node"><title>B7</title>
<path fill="none" stroke="black" d="M687,-68.5C687,-68.5 741,-68.5 741,-68.5 747,-68.5 753,-74.5 753,-80.5 753,-80.5 753,-102.5 753,-102.5 753,-108.5 747,-114.5 741,-114.5 741,-114.5 687,-114.5 687,-114.5 681,-114.5 675,-108.5 675,-102.5 675,-102.5 675,-80.5 675,-80.5 675,-74.5 681,-68.5 687,-68.5"/>
<text text-anchor="middle" x="714" y="-99.3" font-family="Times,serif" font-size="14.00">Blueprint 7</text>
<polyline fill="none" stroke="black" points="675,-91.5 753,-91.5 "/>
<text text-anchor="middle" x="714" y="-76.3" font-family="Times,serif" font-size="14.00">Coolant 1</text>
</g>
<!-- P5&#45;&gt;B7 -->
<g id="edge15" class="edge"><title>P5:a&#45;&gt;B7:a</title>
<path fill="none" stroke="black" d="M628,-120.5C646.395,-120.5 651.322,-108.842 665.087,-104.834"/>
<polygon fill="black" stroke="black" points="665.556,-108.303 675,-103.5 664.623,-101.365 665.556,-108.303"/>
<text text-anchor="middle" x="653.5" y="-116.3" font-family="Times,serif" font-size="14.00">1</text>
</g>
<!-- P6 -->
<g id="node7" class="node"><title>P6</title>
<polygon fill="none" stroke="black" points="796,-2 796,-71 865,-71 865,-2 796,-2"/>
<text text-anchor="middle" x="830.5" y="-55.8" font-family="Times,serif" font-size="14.00">Product 6</text>
<polyline fill="none" stroke="black" points="796,-48 865,-48 "/>
<text text-anchor="middle" x="830.5" y="-32.8" font-family="Times,serif" font-size="14.00">Value 1</text>
<polyline fill="none" stroke="black" points="796,-25 865,-25 "/>
<text text-anchor="middle" x="830.5" y="-9.8" font-family="Times,serif" font-size="14.00">Initial 0</text>
</g>
<!-- B0&#45;&gt;P0 -->
<g id="edge2" class="edge"><title>B0:a&#45;&gt;P0:a</title>
<path fill="none" stroke="black" d="M190,-300.5C237.104,-300.5 251.364,-300.5 293.85,-300.5"/>
<polygon fill="black" stroke="black" points="294,-304 304,-300.5 294,-297 294,-304"/>
<text text-anchor="middle" x="247" y="-304.3" font-family="Times,serif" font-size="14.00">1</text>
</g>
<!-- B1&#45;&gt;P0 -->
<g id="edge4" class="edge"><title>B1:a&#45;&gt;P0:a</title>
<path fill="none" stroke="black" d="M431,-332.5C413.508,-332.5 427.932,-306.611 413,-297.5 404.236,-292.152 398.918,-296.042 391.317,-298.652"/>
<polygon fill="black" stroke="black" points="390.226,-295.292 381,-300.5 391.46,-302.182 390.226,-295.292"/>
<text text-anchor="middle" x="406" y="-301.3" font-family="Times,serif" font-size="14.00">1</text>
</g>
<!-- B2&#45;&gt;P4 -->
<g id="edge6" class="edge"><title>B2:a&#45;&gt;P4:a</title>
<path fill="none" stroke="black" d="M190,-170.5C232.999,-170.5 248.552,-161.369 286,-182.5 294.611,-187.359 294.262,-197.425 297.569,-203.508"/>
<polygon fill="black" stroke="black" points="296.063,-206.676 306.5,-208.5 299.478,-200.566 296.063,-206.676"/>
<text text-anchor="middle" x="247" y="-186.3" font-family="Times,serif" font-size="14.00">1</text>
</g>
<!-- B3&#45;&gt;P1 -->
<g id="edge8" class="edge"><title>B3:a&#45;&gt;P1:a</title>
<path fill="none" stroke="black" d="M190,-105.5C238.636,-105.5 252.454,-118.519 296.331,-120.299"/>
<polygon fill="black" stroke="black" points="296.433,-123.802 306.5,-120.5 296.571,-116.803 296.433,-123.802"/>
<text text-anchor="middle" x="247" y="-122.3" font-family="Times,serif" font-size="14.00">1</text>
</g>
<!-- B4&#45;&gt;P5 -->
<g id="edge10" class="edge"><title>B4:a&#45;&gt;P5:a</title>
<path fill="none" stroke="black" d="M509,-120.5C525.972,-120.5 532.602,-120.5 545.696,-120.5"/>
<polygon fill="black" stroke="black" points="546,-124 556,-120.5 546,-117 546,-124"/>
<text text-anchor="middle" x="530.5" y="-124.3" font-family="Times,serif" font-size="14.00">1</text>
</g>
<!-- B5&#45;&gt;P2 -->
<g id="edge12" class="edge"><title>B5:a&#45;&gt;P2:a</title>
<path fill="none" stroke="black" d="M509,-262.5C524.229,-262.5 530.357,-262.5 541.888,-262.5"/>
<polygon fill="black" stroke="black" points="542,-266 552,-262.5 542,-259 542,-266"/>
<text text-anchor="middle" x="530.5" y="-266.3" font-family="Times,serif" font-size="14.00">1</text>
</g>
<!-- B6&#45;&gt;P5 -->
<g id="edge14" class="edge"><title>B6:a&#45;&gt;P5:a</title>
<path fill="none" stroke="black" d="M509,-191.5C542.852,-191.5 523.468,-134.687 546.09,-122.703"/>
<polygon fill="black" stroke="black" points="546.998,-126.087 556,-120.5 545.479,-119.253 546.998,-126.087"/>
<text text-anchor="middle" x="530.5" y="-183.3" font-family="Times,serif" font-size="14.00">2</text>
</g>
<!-- B7&#45;&gt;P6 -->
<g id="edge16" class="edge"><title>B7:a&#45;&gt;P6:a</title>
<path fill="none" stroke="black" d="M753,-103.5C776.285,-103.5 771.266,-71.593 786.148,-62.1206"/>
<polygon fill="black" stroke="black" points="787.236,-65.4531 796,-59.5 785.436,-58.6884 787.236,-65.4531"/>
<text text-anchor="middle" x="774.5" y="-92.3" font-family="Times,serif" font-size="14.00">2</text>
</g>
<!-- B8&#45;&gt;P4 -->
<g id="edge18" class="edge"><title>B8:a&#45;&gt;P4:a</title>
<path fill="none" stroke="black" d="M190,-235.5C239.621,-235.5 251.806,-211.967 296.455,-208.841"/>
<polygon fill="black" stroke="black" points="296.625,-212.338 306.5,-208.5 296.387,-205.342 296.625,-212.338"/>
<text text-anchor="middle" x="247" y="-237.3" font-family="Times,serif" font-size="14.00">1</text>
</g>
<!-- B9&#45;&gt;P6 -->
<g id="edge20" class="edge"><title>B9:a&#45;&gt;P6:a</title>
<path fill="none" stroke="black" d="M286,-35.5C338.891,-35.5 352.109,-34.5 405,-34.5 405,-34.5 405,-34.5 715,-34.5 748.996,-34.5 756.916,-54.8556 785.819,-58.8313"/>
<polygon fill="black" stroke="black" points="785.792,-62.337 796,-59.5 786.251,-55.3521 785.792,-62.337"/>
<text text-anchor="middle" x="530.5" y="-38.3" font-family="Times,serif" font-size="14.00">2</text>
</g>
</g>
</svg>
