<?xml version="1.0" encoding="UTF-8" standalone="no"?>
<!DOCTYPE svg PUBLIC "-//W3C//DTD SVG 1.1//EN"
 "http://www.w3.org/Graphics/SVG/1.1/DTD/svg11.dtd">
<!-- Generated by graphviz version 2.38.0 (20140413.2041)
 -->
<!-- Title: g Pages: 1 -->
<svg width="906pt" height="253pt"
 viewBox="0.00 0.00 906.00 253.00" xmlns="http://www.w3.org/2000/svg" xmlns:xlink="http://www.w3.org/1999/xlink">
<g id="graph0" class="graph" transform="scale(1 1) rotate(0) translate(4 249)">
<title>g</title>
<polygon fill="white" stroke="none" points="-4,4 -4,-249 902,-249 902,4 -4,4"/>
<!-- P0 -->
<g id="node1" class="node"><title>P0</title>
<polygon fill="none" stroke="black" points="125.5,-0.5 125.5,-69.5 194.5,-69.5 194.5,-0.5 125.5,-0.5"/>
<text text-anchor="middle" x="160" y="-54.3" font-family="Times,serif" font-size="14.00">Product 0</text>
<polyline fill="none" stroke="black" points="125.5,-46.5 194.5,-46.5 "/>
<text text-anchor="middle" x="160" y="-31.3" font-family="Times,serif" font-size="14.00">Value 10</text>
<polyline fill="none" stroke="black" points="125.5,-23.5 194.5,-23.5 "/>
<text text-anchor="middle" x="160" y="-8.3" font-family="Times,serif" font-size="14.00">Initial 0</text>
</g>
<!-- P1 -->
<g id="node2" class="node"><title>P1</title>
<polygon fill="none" stroke="black" points="4.5,-87.5 4.5,-156.5 73.5,-156.5 73.5,-87.5 4.5,-87.5"/>
<text text-anchor="middle" x="39" y="-141.3" font-family="Times,serif" font-size="14.00">Product 1</text>
<polyline fill="none" stroke="black" points="4.5,-133.5 73.5,-133.5 "/>
<text text-anchor="middle" x="39" y="-118.3" font-family="Times,serif" font-size="14.00">Value 20</text>
<polyline fill="none" stroke="black" points="4.5,-110.5 73.5,-110.5 "/>
<text text-anchor="middle" x="39" y="-95.3" font-family="Times,serif" font-size="14.00">Initial 0</text>
</g>
<!-- B2 -->
<g id="node9" class="node"><title>B2</title>
<path fill="none" stroke="black" d="M133,-110C133,-110 187,-110 187,-110 193,-110 199,-116 199,-122 199,-122 199,-144 199,-144 199,-150 193,-156 187,-156 187,-156 133,-156 133,-156 127,-156 121,-150 121,-144 121,-144 121,-122 121,-122 121,-116 127,-110 133,-110"/>
<text text-anchor="middle" x="160" y="-140.8" font-family="Times,serif" font-size="14.00">Blueprint 2</text>
<polyline fill="none" stroke="black" points="121,-133 199,-133 "/>
<text text-anchor="middle" x="160" y="-117.8" font-family="Times,serif" font-size="14.00">Coolant 10</text>
</g>
<!-- P1&#45;&gt;B2 -->
<g id="edge4" class="edge"><title>P1:a&#45;&gt;B2:a</title>
<path fill="none" stroke="black" d="M75,-145C91.6111,-145 98.0998,-145 110.915,-145"/>
<polygon fill="black" stroke="black" points="111,-148.5 121,-145 111,-141.5 111,-148.5"/>
<text text-anchor="middle" x="99.5" y="-148.8" font-family="Times,serif" font-size="14.00">1</text>
</g>
<!-- P2 -->
<g id="node3" class="node"><title>P2</title>
<polygon fill="none" stroke="black" points="242,-87.5 242,-156.5 311,-156.5 311,-87.5 242,-87.5"/>
<text text-anchor="middle" x="276.5" y="-141.3" font-family="Times,serif" font-size="14.00">Product 2</text>
<polyline fill="none" stroke="black" points="242,-133.5 311,-133.5 "/>
<text text-anchor="middle" x="276.5" y="-118.3" font-family="Times,serif" font-size="14.00">Value 30</text>
<polyline fill="none" stroke="black" points="242,-110.5 311,-110.5 "/>
<text text-anchor="middle" x="276.5" y="-95.3" font-family="Times,serif" font-size="14.00">Initial 0</text>
</g>
<!-- B3 -->
<g id="node10" class="node"><title>B3</title>
<path fill="none" stroke="black" d="M366,-110C366,-110 420,-110 420,-110 426,-110 432,-116 432,-122 432,-122 432,-144 432,-144 432,-150 426,-156 420,-156 420,-156 366,-156 366,-156 360,-156 354,-150 354,-144 354,-144 354,-122 354,-122 354,-116 360,-110 366,-110"/>
<text text-anchor="middle" x="393" y="-140.8" font-family="Times,serif" font-size="14.00">Blueprint 3</text>
<polyline fill="none" stroke="black" points="354,-133 432,-133 "/>
<text text-anchor="middle" x="393" y="-117.8" font-family="Times,serif" font-size="14.00">Coolant 10</text>
</g>
<!-- P2&#45;&gt;B3 -->
<g id="edge6" class="edge"><title>P2:a&#45;&gt;B3:a</title>
<path fill="none" stroke="black" d="M311,-145C326.229,-145 332.357,-145 343.888,-145"/>
<polygon fill="black" stroke="black" points="344,-148.5 354,-145 344,-141.5 344,-148.5"/>
<text text-anchor="middle" x="332.5" y="-148.8" font-family="Times,serif" font-size="14.00">1</text>
</g>
<!-- P3 -->
<g id="node4" class="node"><title>P3</title>
<polygon fill="none" stroke="black" points="475,-87.5 475,-156.5 544,-156.5 544,-87.5 475,-87.5"/>
<text text-anchor="middle" x="509.5" y="-141.3" font-family="Times,serif" font-size="14.00">Product 3</text>
<polyline fill="none" stroke="black" points="475,-133.5 544,-133.5 "/>
<text text-anchor="middle" x="509.5" y="-118.3" font-family="Times,serif" font-size="14.00">Value 40</text>
<polyline fill="none" stroke="black" points="475,-110.5 544,-110.5 "/>
<text text-anchor="middle" x="509.5" y="-95.3" font-family="Times,serif" font-size="14.00">Initial 0</text>
</g>
<!-- B4 -->
<g id="node11" class="node"><title>B4</title>
<path fill="none" stroke="black" d="M599,-110C599,-110 653,-110 653,-110 659,-110 665,-116 665,-122 665,-122 665,-144 665,-144 665,-150 659,-156 653,-156 653,-156 599,-156 599,-156 593,-156 587,-150 587,-144 587,-144 587,-122 587,-122 587,-116 593,-110 599,-110"/>
<text text-anchor="middle" x="626" y="-140.8" font-family="Times,serif" font-size="14.00">Blueprint 4</text>
<polyline fill="none" stroke="black" points="587,-133 665,-133 "/>
<text text-anchor="middle" x="626" y="-117.8" font-family="Times,serif" font-size="14.00">Coolant 10</text>
</g>
<!-- P3&#45;&gt;B4 -->
<g id="edge8" class="edge"><title>P3:a&#45;&gt;B4:a</title>
<path fill="none" stroke="black" d="M544,-145C559.229,-145 565.357,-145 576.888,-145"/>
<polygon fill="black" stroke="black" points="577,-148.5 587,-145 577,-141.5 577,-148.5"/>
<text text-anchor="middle" x="565.5" y="-148.8" font-family="Times,serif" font-size="14.00">1</text>
</g>
<!-- P4 -->
<g id="node5" class="node"><title>P4</title>
<polygon fill="none" stroke="black" points="708,-87.5 708,-156.5 777,-156.5 777,-87.5 708,-87.5"/>
<text text-anchor="middle" x="742.5" y="-141.3" font-family="Times,serif" font-size="14.00">Product 4</text>
<polyline fill="none" stroke="black" points="708,-133.5 777,-133.5 "/>
<text text-anchor="middle" x="742.5" y="-118.3" font-family="Times,serif" font-size="14.00">Value 50</text>
<polyline fill="none" stroke="black" points="708,-110.5 777,-110.5 "/>
<text text-anchor="middle" x="742.5" y="-95.3" font-family="Times,serif" font-size="14.00">Initial 0</text>
</g>
<!-- B0 -->
<g id="node7" class="node"><title>B0</title>
<path fill="none" stroke="black" d="M832,-142C832,-142 886,-142 886,-142 892,-142 898,-148 898,-154 898,-154 898,-176 898,-176 898,-182 892,-188 886,-188 886,-188 832,-188 832,-188 826,-188 820,-182 820,-176 820,-176 820,-154 820,-154 820,-148 826,-142 832,-142"/>
<text text-anchor="middle" x="859" y="-172.8" font-family="Times,serif" font-size="14.00">Blueprint 0</text>
<polyline fill="none" stroke="black" points="820,-165 898,-165 "/>
<text text-anchor="middle" x="859" y="-149.8" font-family="Times,serif" font-size="14.00">Coolant 5</text>
</g>
<!-- P4&#45;&gt;B0 -->
<g id="edge1" class="edge"><title>P4:a&#45;&gt;B0:a</title>
<path fill="none" stroke="black" d="M777,-145C787.704,-145 786.466,-154.54 795,-161 802.067,-166.35 804.968,-171.733 810.112,-174.69"/>
<polygon fill="black" stroke="black" points="809.466,-178.134 820,-177 811.058,-171.317 809.466,-178.134"/>
<text text-anchor="middle" x="798.5" y="-170.8" font-family="Times,serif" font-size="14.00">1</text>
</g>
<!-- B5 -->
<g id="node12" class="node"><title>B5</title>
<path fill="none" stroke="black" d="M832,-72C832,-72 886,-72 886,-72 892,-72 898,-78 898,-84 898,-84 898,-106 898,-106 898,-112 892,-118 886,-118 886,-118 832,-118 832,-118 826,-118 820,-112 820,-106 820,-106 820,-84 820,-84 820,-78 826,-72 832,-72"/>
<text text-anchor="middle" x="859" y="-102.8" font-family="Times,serif" font-size="14.00">Blueprint 5</text>
<polyline fill="none" stroke="black" points="820,-95 898,-95 "/>
<text text-anchor="middle" x="859" y="-79.8" font-family="Times,serif" font-size="14.00">Coolant 10</text>
</g>
<!-- P4&#45;&gt;B5 -->
<g id="edge10" class="edge"><title>P4:a&#45;&gt;B5:a</title>
<path fill="none" stroke="black" d="M777,-145C795.287,-145 779.693,-118.006 795,-108 800.963,-104.102 804.982,-104.788 810.024,-105.784"/>
<polygon fill="black" stroke="black" points="809.65,-109.265 820,-107 810.497,-102.316 809.65,-109.265"/>
<text text-anchor="middle" x="798.5" y="-111.8" font-family="Times,serif" font-size="14.00">1</text>
</g>
<!-- P5 -->
<g id="node6" class="node"><title>P5</title>
<polygon fill="none" stroke="black" points="3.5,-175.5 3.5,-244.5 74.5,-244.5 74.5,-175.5 3.5,-175.5"/>
<text text-anchor="middle" x="39" y="-229.3" font-family="Times,serif" font-size="14.00">Product 5</text>
<polyline fill="none" stroke="black" points="3.5,-221.5 74.5,-221.5 "/>
<text text-anchor="middle" x="39" y="-206.3" font-family="Times,serif" font-size="14.00">Value &#45;10</text>
<polyline fill="none" stroke="black" points="3.5,-198.5 74.5,-198.5 "/>
<text text-anchor="middle" x="39" y="-183.3" font-family="Times,serif" font-size="14.00">Initial 5</text>
</g>
<!-- B0&#45;&gt;P4 -->
<g id="edge2" class="edge"><title>B0:a&#45;&gt;P4:a</title>
<path fill="none" stroke="black" d="M820,-177C802.508,-177 816.932,-151.111 802,-142 795.88,-138.266 791.934,-140.547 786.946,-142.669"/>
<polygon fill="black" stroke="black" points="785.938,-139.311 777,-145 787.535,-146.126 785.938,-139.311"/>
<text text-anchor="middle" x="798.5" y="-145.8" font-family="Times,serif" font-size="14.00">3</text>
</g>
<!-- B1 -->
<g id="node8" class="node"><title>B1</title>
<path fill="none" stroke="black" d="M12,-23C12,-23 66,-23 66,-23 72,-23 78,-29 78,-35 78,-35 78,-57 78,-57 78,-63 72,-69 66,-69 66,-69 12,-69 12,-69 6,-69 0,-63 0,-57 0,-57 0,-35 0,-35 0,-29 6,-23 12,-23"/>
<text text-anchor="middle" x="39" y="-53.8" font-family="Times,serif" font-size="14.00">Blueprint 1</text>
<polyline fill="none" stroke="black" points="0,-46 78,-46 "/>
<text text-anchor="middle" x="39" y="-30.8" font-family="Times,serif" font-size="14.00">Coolant 10</text>
</g>
<!-- B1&#45;&gt;P0 -->
<g id="edge3" class="edge"><title>B1:a&#45;&gt;P0:a</title>
<path fill="none" stroke="black" d="M78,-58C94.6111,-58 101.1,-58 113.915,-58"/>
<polygon fill="black" stroke="black" points="114,-61.5001 124,-58 114,-54.5001 114,-61.5001"/>
<text text-anchor="middle" x="99.5" y="-61.8" font-family="Times,serif" font-size="14.00">1</text>
</g>
<!-- B2&#45;&gt;P2 -->
<g id="edge5" class="edge"><title>B2:a&#45;&gt;P2:a</title>
<path fill="none" stroke="black" d="M199,-145C214.229,-145 220.357,-145 231.888,-145"/>
<polygon fill="black" stroke="black" points="232,-148.5 242,-145 232,-141.5 232,-148.5"/>
<text text-anchor="middle" x="220.5" y="-148.8" font-family="Times,serif" font-size="14.00">1</text>
</g>
<!-- B3&#45;&gt;P3 -->
<g id="edge7" class="edge"><title>B3:a&#45;&gt;P3:a</title>
<path fill="none" stroke="black" d="M432,-145C447.229,-145 453.357,-145 464.888,-145"/>
<polygon fill="black" stroke="black" points="465,-148.5 475,-145 465,-141.5 465,-148.5"/>
<text text-anchor="middle" x="453.5" y="-148.8" font-family="Times,serif" font-size="14.00">1</text>
</g>
<!-- B4&#45;&gt;P4 -->
<g id="edge9" class="edge"><title>B4:a&#45;&gt;P4:a</title>
<path fill="none" stroke="black" d="M665,-145C680.229,-145 686.357,-145 697.888,-145"/>
<polygon fill="black" stroke="black" points="698,-148.5 708,-145 698,-141.5 698,-148.5"/>
<text text-anchor="middle" x="686.5" y="-148.8" font-family="Times,serif" font-size="14.00">1</text>
</g>
</g>
</svg>
