<?xml version="1.0" encoding="UTF-8" standalone="no"?>
<!DOCTYPE svg PUBLIC "-//W3C//DTD SVG 1.1//EN"
 "http://www.w3.org/Graphics/SVG/1.1/DTD/svg11.dtd">
<!-- Generated by graphviz version 2.38.0 (20140413.2041)
 -->
<!-- Title: g Pages: 1 -->
<svg width="1260pt" height="1142pt"
 viewBox="0.00 0.00 1260.00 1142.00" xmlns="http://www.w3.org/2000/svg" xmlns:xlink="http://www.w3.org/1999/xlink">
<g id="graph0" class="graph" transform="scale(1 1) rotate(0) translate(4 1138)">
<title>g</title>
<polygon fill="white" stroke="none" points="-4,4 -4,-1138 1256,-1138 1256,4 -4,4"/>
<!-- P0 -->
<g id="node1" class="node"><title>P0</title>
<polygon fill="none" stroke="black" points="0,-887.5 0,-956.5 69,-956.5 69,-887.5 0,-887.5"/>
<text text-anchor="middle" x="34.5" y="-941.3" font-family="Times,serif" font-size="14.00">Product 0</text>
<polyline fill="none" stroke="black" points="0,-933.5 69,-933.5 "/>
<text text-anchor="middle" x="34.5" y="-918.3" font-family="Times,serif" font-size="14.00">Value 3</text>
<polyline fill="none" stroke="black" points="0,-910.5 69,-910.5 "/>
<text text-anchor="middle" x="34.5" y="-895.3" font-family="Times,serif" font-size="14.00">Initial 0</text>
</g>
<!-- B0 -->
<g id="node11" class="node"><title>B0</title>
<path fill="none" stroke="black" d="M124,-610C124,-610 178,-610 178,-610 184,-610 190,-616 190,-622 190,-622 190,-644 190,-644 190,-650 184,-656 178,-656 178,-656 124,-656 124,-656 118,-656 112,-650 112,-644 112,-644 112,-622 112,-622 112,-616 118,-610 124,-610"/>
<text text-anchor="middle" x="151" y="-640.8" font-family="Times,serif" font-size="14.00">Blueprint 0</text>
<polyline fill="none" stroke="black" points="112,-633 190,-633 "/>
<text text-anchor="middle" x="151" y="-617.8" font-family="Times,serif" font-size="14.00">Coolant 3</text>
</g>
<!-- P0&#45;&gt;B0 -->
<g id="edge1" class="edge"><title>P0:a&#45;&gt;B0:a</title>
<path fill="none" stroke="black" d="M69,-945C132.424,-945 149.439,-743.819 150.894,-667.34"/>
<polygon fill="black" stroke="black" points="154.398,-667.035 151,-657 147.398,-666.964 154.398,-667.035"/>
<text text-anchor="middle" x="90.5" y="-941.8" font-family="Times,serif" font-size="14.00">1</text>
</g>
<!-- B2 -->
<g id="node13" class="node"><title>B2</title>
<path fill="none" stroke="black" d="M841,-286C841,-286 895,-286 895,-286 901,-286 907,-292 907,-298 907,-298 907,-320 907,-320 907,-326 901,-332 895,-332 895,-332 841,-332 841,-332 835,-332 829,-326 829,-320 829,-320 829,-298 829,-298 829,-292 835,-286 841,-286"/>
<text text-anchor="middle" x="868" y="-316.8" font-family="Times,serif" font-size="14.00">Blueprint 2</text>
<polyline fill="none" stroke="black" points="829,-309 907,-309 "/>
<text text-anchor="middle" x="868" y="-293.8" font-family="Times,serif" font-size="14.00">Coolant 3</text>
</g>
<!-- P0&#45;&gt;B2 -->
<g id="edge12" class="edge"><title>P0:a&#45;&gt;B2:a</title>
<path fill="none" stroke="black" d="M69,-945C121.693,-945 97.3075,-0 150,-0 150,-0 150,-0 685.5,-0 743.714,-0 756.72,-33.6854 786,-84 791.929,-94.1878 810.394,-270.319 823.856,-312.143"/>
<polygon fill="black" stroke="black" points="820.951,-314.111 829,-321 827.004,-310.595 820.951,-314.111"/>
<text text-anchor="middle" x="444.5" y="-3.8" font-family="Times,serif" font-size="14.00">1</text>
</g>
<!-- B5 -->
<g id="node16" class="node"><title>B5</title>
<path fill="none" stroke="black" d="M841,-594C841,-594 895,-594 895,-594 901,-594 907,-600 907,-606 907,-606 907,-628 907,-628 907,-634 901,-640 895,-640 895,-640 841,-640 841,-640 835,-640 829,-634 829,-628 829,-628 829,-606 829,-606 829,-600 835,-594 841,-594"/>
<text text-anchor="middle" x="868" y="-624.8" font-family="Times,serif" font-size="14.00">Blueprint 5</text>
<polyline fill="none" stroke="black" points="829,-617 907,-617 "/>
<text text-anchor="middle" x="868" y="-601.8" font-family="Times,serif" font-size="14.00">Coolant 6</text>
</g>
<!-- P0&#45;&gt;B5 -->
<g id="edge25" class="edge"><title>P0:a&#45;&gt;B5:a</title>
<path fill="none" stroke="black" d="M34.5,-958C34.5,-1046.06 61.9358,-1119 150,-1119 150,-1119 150,-1119 685.5,-1119 762.366,-1119 775.184,-1068.01 811,-1000 847.169,-931.32 866.46,-737.723 867.911,-651.027"/>
<polygon fill="black" stroke="black" points="871.411,-651.031 868,-641 864.412,-650.969 871.411,-651.031"/>
<text text-anchor="middle" x="444.5" y="-1122.8" font-family="Times,serif" font-size="14.00">1</text>
</g>
<!-- P1 -->
<g id="node2" class="node"><title>P1</title>
<polygon fill="none" stroke="black" points="711.5,-614.5 711.5,-683.5 780.5,-683.5 780.5,-614.5 711.5,-614.5"/>
<text text-anchor="middle" x="746" y="-668.3" font-family="Times,serif" font-size="14.00">Product 1</text>
<polyline fill="none" stroke="black" points="711.5,-660.5 780.5,-660.5 "/>
<text text-anchor="middle" x="746" y="-645.3" font-family="Times,serif" font-size="14.00">Value 5</text>
<polyline fill="none" stroke="black" points="711.5,-637.5 780.5,-637.5 "/>
<text text-anchor="middle" x="746" y="-622.3" font-family="Times,serif" font-size="14.00">Initial 0</text>
</g>
<!-- P1&#45;&gt;B5 -->
<g id="edge26" class="edge"><title>P1:a&#45;&gt;B5:a</title>
<path fill="none" stroke="black" d="M782,-672C806.331,-672 802.644,-640.243 819.095,-631.312"/>
<polygon fill="black" stroke="black" points="820.057,-634.682 829,-629 818.466,-627.865 820.057,-634.682"/>
<text text-anchor="middle" x="807.5" y="-657.8" font-family="Times,serif" font-size="14.00">1</text>
</g>
<!-- P2 -->
<g id="node3" class="node"><title>P2</title>
<polygon fill="none" stroke="black" points="233,-424.5 233,-493.5 302,-493.5 302,-424.5 233,-424.5"/>
<text text-anchor="middle" x="267.5" y="-478.3" font-family="Times,serif" font-size="14.00">Product 2</text>
<polyline fill="none" stroke="black" points="233,-470.5 302,-470.5 "/>
<text text-anchor="middle" x="267.5" y="-455.3" font-family="Times,serif" font-size="14.00">Value 7</text>
<polyline fill="none" stroke="black" points="233,-447.5 302,-447.5 "/>
<text text-anchor="middle" x="267.5" y="-432.3" font-family="Times,serif" font-size="14.00">Initial 0</text>
</g>
<!-- B3 -->
<g id="node14" class="node"><title>B3</title>
<path fill="none" stroke="black" d="M357,-496C357,-496 411,-496 411,-496 417,-496 423,-502 423,-508 423,-508 423,-530 423,-530 423,-536 417,-542 411,-542 411,-542 357,-542 357,-542 351,-542 345,-536 345,-530 345,-530 345,-508 345,-508 345,-502 351,-496 357,-496"/>
<text text-anchor="middle" x="384" y="-526.8" font-family="Times,serif" font-size="14.00">Blueprint 3</text>
<polyline fill="none" stroke="black" points="345,-519 423,-519 "/>
<text text-anchor="middle" x="384" y="-503.8" font-family="Times,serif" font-size="14.00">Coolant 9</text>
</g>
<!-- P2&#45;&gt;B3 -->
<g id="edge17" class="edge"><title>P2:a&#45;&gt;B3:a</title>
<path fill="none" stroke="black" d="M302,-482C326.9,-482 319.361,-518.188 335.138,-528.366"/>
<polygon fill="black" stroke="black" points="334.435,-531.801 345,-531 336.242,-525.038 334.435,-531.801"/>
<text text-anchor="middle" x="323.5" y="-520.8" font-family="Times,serif" font-size="14.00">1</text>
</g>
<!-- B4 -->
<g id="node15" class="node"><title>B4</title>
<path fill="none" stroke="black" d="M593.5,-453C593.5,-453 647.5,-453 647.5,-453 653.5,-453 659.5,-459 659.5,-465 659.5,-465 659.5,-487 659.5,-487 659.5,-493 653.5,-499 647.5,-499 647.5,-499 593.5,-499 593.5,-499 587.5,-499 581.5,-493 581.5,-487 581.5,-487 581.5,-465 581.5,-465 581.5,-459 587.5,-453 593.5,-453"/>
<text text-anchor="middle" x="620.5" y="-483.8" font-family="Times,serif" font-size="14.00">Blueprint 4</text>
<polyline fill="none" stroke="black" points="581.5,-476 659.5,-476 "/>
<text text-anchor="middle" x="620.5" y="-460.8" font-family="Times,serif" font-size="14.00">Coolant 8</text>
</g>
<!-- P2&#45;&gt;B4 -->
<g id="edge21" class="edge"><title>P2:a&#45;&gt;B4:a</title>
<path fill="none" stroke="black" d="M302,-482C413.559,-482 441.442,-480.444 553,-480 556.111,-479.988 556.943,-479.425 560,-480 565.106,-480.961 567.812,-483.159 570.694,-485.008"/>
<polygon fill="black" stroke="black" points="569.914,-488.429 580.5,-488 571.957,-481.734 569.914,-488.429"/>
<text text-anchor="middle" x="444.5" y="-484.8" font-family="Times,serif" font-size="14.00">1</text>
</g>
<!-- P3 -->
<g id="node4" class="node"><title>P3</title>
<polygon fill="none" stroke="black" points="950,-459.5 950,-528.5 1019,-528.5 1019,-459.5 950,-459.5"/>
<text text-anchor="middle" x="984.5" y="-513.3" font-family="Times,serif" font-size="14.00">Product 3</text>
<polyline fill="none" stroke="black" points="950,-505.5 1019,-505.5 "/>
<text text-anchor="middle" x="984.5" y="-490.3" font-family="Times,serif" font-size="14.00">Value 9</text>
<polyline fill="none" stroke="black" points="950,-482.5 1019,-482.5 "/>
<text text-anchor="middle" x="984.5" y="-467.3" font-family="Times,serif" font-size="14.00">Initial 0</text>
</g>
<!-- P4 -->
<g id="node5" class="node"><title>P4</title>
<polygon fill="none" stroke="black" points="711.5,-387.5 711.5,-456.5 780.5,-456.5 780.5,-387.5 711.5,-387.5"/>
<text text-anchor="middle" x="746" y="-441.3" font-family="Times,serif" font-size="14.00">Product 4</text>
<polyline fill="none" stroke="black" points="711.5,-433.5 780.5,-433.5 "/>
<text text-anchor="middle" x="746" y="-418.3" font-family="Times,serif" font-size="14.00">Value 10</text>
<polyline fill="none" stroke="black" points="711.5,-410.5 780.5,-410.5 "/>
<text text-anchor="middle" x="746" y="-395.3" font-family="Times,serif" font-size="14.00">Initial 0</text>
</g>
<!-- P4&#45;&gt;B2 -->
<g id="edge13" class="edge"><title>P4:a&#45;&gt;B2:a</title>
<path fill="none" stroke="black" d="M782,-445C816.498,-445 798.909,-405.31 811,-373 818.031,-354.21 809.182,-331.256 819.275,-323.613"/>
<polygon fill="black" stroke="black" points="820.251,-326.975 829,-321 818.434,-320.215 820.251,-326.975"/>
<text text-anchor="middle" x="807.5" y="-429.8" font-family="Times,serif" font-size="14.00">1</text>
</g>
<!-- P5 -->
<g id="node6" class="node"><title>P5</title>
<polygon fill="none" stroke="black" points="1183,-243.5 1183,-312.5 1252,-312.5 1252,-243.5 1183,-243.5"/>
<text text-anchor="middle" x="1217.5" y="-297.3" font-family="Times,serif" font-size="14.00">Product 5</text>
<polyline fill="none" stroke="black" points="1183,-289.5 1252,-289.5 "/>
<text text-anchor="middle" x="1217.5" y="-274.3" font-family="Times,serif" font-size="14.00">Value 7</text>
<polyline fill="none" stroke="black" points="1183,-266.5 1252,-266.5 "/>
<text text-anchor="middle" x="1217.5" y="-251.3" font-family="Times,serif" font-size="14.00">Initial 0</text>
</g>
<!-- P6 -->
<g id="node7" class="node"><title>P6</title>
<polygon fill="none" stroke="black" points="1183,-635.5 1183,-704.5 1252,-704.5 1252,-635.5 1183,-635.5"/>
<text text-anchor="middle" x="1217.5" y="-689.3" font-family="Times,serif" font-size="14.00">Product 6</text>
<polyline fill="none" stroke="black" points="1183,-681.5 1252,-681.5 "/>
<text text-anchor="middle" x="1217.5" y="-666.3" font-family="Times,serif" font-size="14.00">Value 6</text>
<polyline fill="none" stroke="black" points="1183,-658.5 1252,-658.5 "/>
<text text-anchor="middle" x="1217.5" y="-643.3" font-family="Times,serif" font-size="14.00">Initial 0</text>
</g>
<!-- P7 -->
<g id="node8" class="node"><title>P7</title>
<polygon fill="none" stroke="black" points="950,-295.5 950,-364.5 1019,-364.5 1019,-295.5 950,-295.5"/>
<text text-anchor="middle" x="984.5" y="-349.3" font-family="Times,serif" font-size="14.00">Product 7</text>
<polyline fill="none" stroke="black" points="950,-341.5 1019,-341.5 "/>
<text text-anchor="middle" x="984.5" y="-326.3" font-family="Times,serif" font-size="14.00">Value 5</text>
<polyline fill="none" stroke="black" points="950,-318.5 1019,-318.5 "/>
<text text-anchor="middle" x="984.5" y="-303.3" font-family="Times,serif" font-size="14.00">Initial 0</text>
</g>
<!-- P7&#45;&gt;B0 -->
<g id="edge2" class="edge"><title>P7:a&#45;&gt;B0:a</title>
<path fill="none" stroke="black" d="M950,-353C929.347,-353 942.398,-185.844 932,-168 881.404,-81.1739 847.493,-38 747,-38 266.5,-38 266.5,-38 266.5,-38 264.538,-38 202.724,-556.049 191.644,-634.971"/>
<polygon fill="black" stroke="black" points="188.164,-634.565 190,-645 195.072,-635.698 188.164,-634.565"/>
<text text-anchor="middle" x="556.5" y="-41.8" font-family="Times,serif" font-size="14.00">1</text>
</g>
<!-- B1 -->
<g id="node12" class="node"><title>B1</title>
<path fill="none" stroke="black" d="M1074,-658C1074,-658 1128,-658 1128,-658 1134,-658 1140,-664 1140,-670 1140,-670 1140,-692 1140,-692 1140,-698 1134,-704 1128,-704 1128,-704 1074,-704 1074,-704 1068,-704 1062,-698 1062,-692 1062,-692 1062,-670 1062,-670 1062,-664 1068,-658 1074,-658"/>
<text text-anchor="middle" x="1101" y="-688.8" font-family="Times,serif" font-size="14.00">Blueprint 1</text>
<polyline fill="none" stroke="black" points="1062,-681 1140,-681 "/>
<text text-anchor="middle" x="1101" y="-665.8" font-family="Times,serif" font-size="14.00">Coolant 4</text>
</g>
<!-- P7&#45;&gt;B1 -->
<g id="edge6" class="edge"><title>P7:a&#45;&gt;B1:a</title>
<path fill="none" stroke="black" d="M984.5,-366C984.5,-406.359 1009.4,-410.799 1019,-450 1031.18,-499.728 1010.3,-668.403 1052.1,-690.585"/>
<polygon fill="black" stroke="black" points="1051.46,-694.032 1062,-693 1053.11,-687.231 1051.46,-694.032"/>
<text text-anchor="middle" x="1040.5" y="-686.8" font-family="Times,serif" font-size="14.00">1</text>
</g>
<!-- P8 -->
<g id="node9" class="node"><title>P8</title>
<polygon fill="none" stroke="black" points="466,-569.5 466,-638.5 535,-638.5 535,-569.5 466,-569.5"/>
<text text-anchor="middle" x="500.5" y="-623.3" font-family="Times,serif" font-size="14.00">Product 8</text>
<polyline fill="none" stroke="black" points="466,-615.5 535,-615.5 "/>
<text text-anchor="middle" x="500.5" y="-600.3" font-family="Times,serif" font-size="14.00">Value 0</text>
<polyline fill="none" stroke="black" points="466,-592.5 535,-592.5 "/>
<text text-anchor="middle" x="500.5" y="-577.3" font-family="Times,serif" font-size="14.00">Initial 2</text>
</g>
<!-- P8&#45;&gt;B0 -->
<g id="edge3" class="edge"><title>P8:a&#45;&gt;B0:a</title>
<path fill="none" stroke="black" d="M466,-627C449.682,-627 462.017,-650.646 448,-659 356.372,-713.609 308.58,-694.517 208,-659 202.923,-657.207 201.021,-653.368 198.833,-650.163"/>
<polygon fill="black" stroke="black" points="200.4,-647.025 190,-645 196.867,-653.068 200.4,-647.025"/>
<text text-anchor="middle" x="323.5" y="-695.8" font-family="Times,serif" font-size="14.00">1</text>
</g>
<!-- P8&#45;&gt;B1 -->
<g id="edge7" class="edge"><title>P8:a&#45;&gt;B1:a</title>
<path fill="none" stroke="black" d="M500.5,-640C500.5,-710.746 503.943,-903.025 553,-954 594.07,-996.676 624.272,-981 683.5,-981 683.5,-981 683.5,-981 985.5,-981 1013.6,-981 1025.85,-978.459 1044,-957 1079.05,-915.557 1098.77,-778.583 1100.82,-715.224"/>
<polygon fill="black" stroke="black" points="1104.32,-715.06 1101,-705 1097.33,-714.937 1104.32,-715.06"/>
<text text-anchor="middle" x="807.5" y="-984.8" font-family="Times,serif" font-size="14.00">1</text>
</g>
<!-- P8&#45;&gt;B2 -->
<g id="edge14" class="edge"><title>P8:a&#45;&gt;B2:a</title>
<path fill="none" stroke="black" d="M535,-627C558.862,-627 544.771,-435.398 553,-413 559.592,-395.056 561.87,-388.26 578,-378 666.853,-321.483 714.924,-378.109 811,-335 815.912,-332.796 817.825,-328.982 820.058,-325.892"/>
<polygon fill="black" stroke="black" points="821.907,-328.87 829,-321 818.547,-322.729 821.907,-328.87"/>
<text text-anchor="middle" x="684.5" y="-355.8" font-family="Times,serif" font-size="14.00">1</text>
</g>
<!-- P8&#45;&gt;B3 -->
<g id="edge18" class="edge"><title>P8:a&#45;&gt;B3:a</title>
<path fill="none" stroke="black" d="M466,-627C440.357,-627 451.415,-598.433 441,-575 434.296,-559.916 439.977,-541.545 432.708,-534.23"/>
<polygon fill="black" stroke="black" points="433.594,-530.836 423,-531 431.384,-537.478 433.594,-530.836"/>
<text text-anchor="middle" x="444.5" y="-613.8" font-family="Times,serif" font-size="14.00">1</text>
</g>
<!-- P8&#45;&gt;B4 -->
<g id="edge22" class="edge"><title>P8:a&#45;&gt;B4:a</title>
<path fill="none" stroke="black" d="M535,-627C567.029,-627 528.98,-505.186 553,-484 555.333,-481.942 556.903,-483.701 560,-484 564.764,-484.46 567.598,-485.51 570.497,-486.418"/>
<polygon fill="black" stroke="black" points="570.076,-489.895 580.5,-488 571.17,-482.981 570.076,-489.895"/>
<text text-anchor="middle" x="556.5" y="-487.8" font-family="Times,serif" font-size="14.00">1</text>
</g>
<!-- P8&#45;&gt;B5 -->
<g id="edge27" class="edge"><title>P8:a&#45;&gt;B5:a</title>
<path fill="none" stroke="black" d="M535,-627C590.992,-627 731.812,-590.902 786,-605 803.375,-609.521 806.452,-622.775 819.078,-627.392"/>
<polygon fill="black" stroke="black" points="818.569,-630.855 829,-629 819.689,-623.945 818.569,-630.855"/>
<text text-anchor="middle" x="684.5" y="-611.8" font-family="Times,serif" font-size="14.00">1</text>
</g>
<!-- B6 -->
<g id="node17" class="node"><title>B6</title>
<path fill="none" stroke="black" d="M593.5,-803C593.5,-803 647.5,-803 647.5,-803 653.5,-803 659.5,-809 659.5,-815 659.5,-815 659.5,-837 659.5,-837 659.5,-843 653.5,-849 647.5,-849 647.5,-849 593.5,-849 593.5,-849 587.5,-849 581.5,-843 581.5,-837 581.5,-837 581.5,-815 581.5,-815 581.5,-809 587.5,-803 593.5,-803"/>
<text text-anchor="middle" x="620.5" y="-833.8" font-family="Times,serif" font-size="14.00">Blueprint 6</text>
<polyline fill="none" stroke="black" points="581.5,-826 659.5,-826 "/>
<text text-anchor="middle" x="620.5" y="-810.8" font-family="Times,serif" font-size="14.00">Coolant 5</text>
</g>
<!-- P8&#45;&gt;B6 -->
<g id="edge32" class="edge"><title>P8:a&#45;&gt;B6:a</title>
<path fill="none" stroke="black" d="M500.5,-640C500.5,-684.119 528.629,-817.339 570.717,-835.855"/>
<polygon fill="black" stroke="black" points="569.982,-839.277 580.5,-838 571.481,-832.44 569.982,-839.277"/>
<text text-anchor="middle" x="556.5" y="-830.8" font-family="Times,serif" font-size="14.00">1</text>
</g>
<!-- B7 -->
<g id="node18" class="node"><title>B7</title>
<path fill="none" stroke="black" d="M593.5,-634C593.5,-634 647.5,-634 647.5,-634 653.5,-634 659.5,-640 659.5,-646 659.5,-646 659.5,-668 659.5,-668 659.5,-674 653.5,-680 647.5,-680 647.5,-680 593.5,-680 593.5,-680 587.5,-680 581.5,-674 581.5,-668 581.5,-668 581.5,-646 581.5,-646 581.5,-640 587.5,-634 593.5,-634"/>
<text text-anchor="middle" x="620.5" y="-664.8" font-family="Times,serif" font-size="14.00">Blueprint 7</text>
<polyline fill="none" stroke="black" points="581.5,-657 659.5,-657 "/>
<text text-anchor="middle" x="620.5" y="-641.8" font-family="Times,serif" font-size="14.00">Coolant 5</text>
</g>
<!-- P8&#45;&gt;B7 -->
<g id="edge35" class="edge"><title>P8:a&#45;&gt;B7:a</title>
<path fill="none" stroke="black" d="M535,-627C558.435,-627 554.995,-657.457 570.452,-666.498"/>
<polygon fill="black" stroke="black" points="569.951,-669.98 580.5,-669 571.642,-663.188 569.951,-669.98"/>
<text text-anchor="middle" x="556.5" y="-656.8" font-family="Times,serif" font-size="14.00">1</text>
</g>
<!-- B8 -->
<g id="node19" class="node"><title>B8</title>
<path fill="none" stroke="black" d="M593.5,-868C593.5,-868 647.5,-868 647.5,-868 653.5,-868 659.5,-874 659.5,-880 659.5,-880 659.5,-902 659.5,-902 659.5,-908 653.5,-914 647.5,-914 647.5,-914 593.5,-914 593.5,-914 587.5,-914 581.5,-908 581.5,-902 581.5,-902 581.5,-880 581.5,-880 581.5,-874 587.5,-868 593.5,-868"/>
<text text-anchor="middle" x="620.5" y="-898.8" font-family="Times,serif" font-size="14.00">Blueprint 8</text>
<polyline fill="none" stroke="black" points="581.5,-891 659.5,-891 "/>
<text text-anchor="middle" x="620.5" y="-875.8" font-family="Times,serif" font-size="14.00">Coolant 5</text>
</g>
<!-- P8&#45;&gt;B8 -->
<g id="edge38" class="edge"><title>P8:a&#45;&gt;B8:a</title>
<path fill="none" stroke="black" d="M500.5,-640C500.5,-734.482 520.644,-757.231 553,-846 556.763,-856.323 562.847,-885.306 572.035,-897.493"/>
<polygon fill="black" stroke="black" points="570.209,-900.48 580.5,-903 574.027,-894.613 570.209,-900.48"/>
<text text-anchor="middle" x="556.5" y="-871.8" font-family="Times,serif" font-size="14.00">1</text>
</g>
<!-- B9 -->
<g id="node20" class="node"><title>B9</title>
<path fill="none" stroke="black" d="M593.5,-524C593.5,-524 647.5,-524 647.5,-524 653.5,-524 659.5,-530 659.5,-536 659.5,-536 659.5,-558 659.5,-558 659.5,-564 653.5,-570 647.5,-570 647.5,-570 593.5,-570 593.5,-570 587.5,-570 581.5,-564 581.5,-558 581.5,-558 581.5,-536 581.5,-536 581.5,-530 587.5,-524 593.5,-524"/>
<text text-anchor="middle" x="620.5" y="-554.8" font-family="Times,serif" font-size="14.00">Blueprint 9</text>
<polyline fill="none" stroke="black" points="581.5,-547 659.5,-547 "/>
<text text-anchor="middle" x="620.5" y="-531.8" font-family="Times,serif" font-size="14.00">Coolant 5</text>
</g>
<!-- P8&#45;&gt;B9 -->
<g id="edge41" class="edge"><title>P8:a&#45;&gt;B9:a</title>
<path fill="none" stroke="black" d="M535,-627C565.834,-627 528.877,-579.204 553,-560 559.429,-554.882 564.112,-556.19 570.202,-557.599"/>
<polygon fill="black" stroke="black" points="570.119,-561.12 580.5,-559 571.063,-554.184 570.119,-561.12"/>
<text text-anchor="middle" x="556.5" y="-563.8" font-family="Times,serif" font-size="14.00">1</text>
</g>
<!-- B10 -->
<g id="node21" class="node"><title>B10</title>
<path fill="none" stroke="black" d="M590,-388C590,-388 651,-388 651,-388 657,-388 663,-394 663,-400 663,-400 663,-422 663,-422 663,-428 657,-434 651,-434 651,-434 590,-434 590,-434 584,-434 578,-428 578,-422 578,-422 578,-400 578,-400 578,-394 584,-388 590,-388"/>
<text text-anchor="middle" x="620.5" y="-418.8" font-family="Times,serif" font-size="14.00">Blueprint 10</text>
<polyline fill="none" stroke="black" points="578,-411 663,-411 "/>
<text text-anchor="middle" x="620.5" y="-395.8" font-family="Times,serif" font-size="14.00">Coolant 5</text>
</g>
<!-- P8&#45;&gt;B10 -->
<g id="edge44" class="edge"><title>P8:a&#45;&gt;B10:a</title>
<path fill="none" stroke="black" d="M535,-627C553.111,-627 547.238,-482.17 553,-465 558.616,-448.267 557.269,-430.999 568.218,-425.111"/>
<polygon fill="black" stroke="black" points="568.964,-428.531 578,-423 567.487,-421.689 568.964,-428.531"/>
<text text-anchor="middle" x="556.5" y="-468.8" font-family="Times,serif" font-size="14.00">1</text>
</g>
<!-- B11 -->
<g id="node22" class="node"><title>B11</title>
<path fill="none" stroke="black" d="M590,-181C590,-181 651,-181 651,-181 657,-181 663,-187 663,-193 663,-193 663,-215 663,-215 663,-221 657,-227 651,-227 651,-227 590,-227 590,-227 584,-227 578,-221 578,-215 578,-215 578,-193 578,-193 578,-187 584,-181 590,-181"/>
<text text-anchor="middle" x="620.5" y="-211.8" font-family="Times,serif" font-size="14.00">Blueprint 11</text>
<polyline fill="none" stroke="black" points="578,-204 663,-204 "/>
<text text-anchor="middle" x="620.5" y="-188.8" font-family="Times,serif" font-size="14.00">Coolant 5</text>
</g>
<!-- P8&#45;&gt;B11 -->
<g id="edge47" class="edge"><title>P8:a&#45;&gt;B11:a</title>
<path fill="none" stroke="black" d="M535,-627C559.798,-627 535.115,-198.178 553,-181 555.244,-178.845 557.344,-179.379 560,-181 570.732,-187.549 566.299,-202.765 569.452,-210.806"/>
<polygon fill="black" stroke="black" points="567.636,-213.798 578,-216 571.272,-207.816 567.636,-213.798"/>
<text text-anchor="middle" x="556.5" y="-184.8" font-family="Times,serif" font-size="14.00">1</text>
</g>
<!-- B12 -->
<g id="node23" class="node"><title>B12</title>
<path fill="none" stroke="black" d="M590,-1044C590,-1044 651,-1044 651,-1044 657,-1044 663,-1050 663,-1056 663,-1056 663,-1078 663,-1078 663,-1084 657,-1090 651,-1090 651,-1090 590,-1090 590,-1090 584,-1090 578,-1084 578,-1078 578,-1078 578,-1056 578,-1056 578,-1050 584,-1044 590,-1044"/>
<text text-anchor="middle" x="620.5" y="-1074.8" font-family="Times,serif" font-size="14.00">Blueprint 12</text>
<polyline fill="none" stroke="black" points="578,-1067 663,-1067 "/>
<text text-anchor="middle" x="620.5" y="-1051.8" font-family="Times,serif" font-size="14.00">Coolant 5</text>
</g>
<!-- P8&#45;&gt;B12 -->
<g id="edge50" class="edge"><title>P8:a&#45;&gt;B12:a</title>
<path fill="none" stroke="black" d="M500.5,-640C500.5,-686.436 525.081,-1031.64 568.967,-1074.61"/>
<polygon fill="black" stroke="black" points="567.476,-1077.78 578,-1079 570.533,-1071.48 567.476,-1077.78"/>
<text text-anchor="middle" x="556.5" y="-1061.8" font-family="Times,serif" font-size="14.00">1</text>
</g>
<!-- B13 -->
<g id="node24" class="node"><title>B13</title>
<path fill="none" stroke="black" d="M590,-246C590,-246 651,-246 651,-246 657,-246 663,-252 663,-258 663,-258 663,-280 663,-280 663,-286 657,-292 651,-292 651,-292 590,-292 590,-292 584,-292 578,-286 578,-280 578,-280 578,-258 578,-258 578,-252 584,-246 590,-246"/>
<text text-anchor="middle" x="620.5" y="-276.8" font-family="Times,serif" font-size="14.00">Blueprint 13</text>
<polyline fill="none" stroke="black" points="578,-269 663,-269 "/>
<text text-anchor="middle" x="620.5" y="-253.8" font-family="Times,serif" font-size="14.00">Coolant 5</text>
</g>
<!-- P8&#45;&gt;B13 -->
<g id="edge53" class="edge"><title>P8:a&#45;&gt;B13:a</title>
<path fill="none" stroke="black" d="M535,-627C576.16,-627 523.197,-285.388 553,-257 555.253,-254.854 557.217,-255.609 560,-257 567.454,-260.727 567.413,-269.17 569.59,-274.978"/>
<polygon fill="black" stroke="black" points="567.832,-278.024 578,-281 571.907,-272.333 567.832,-278.024"/>
<text text-anchor="middle" x="556.5" y="-260.8" font-family="Times,serif" font-size="14.00">1</text>
</g>
<!-- B14 -->
<g id="node25" class="node"><title>B14</title>
<path fill="none" stroke="black" d="M590,-738C590,-738 651,-738 651,-738 657,-738 663,-744 663,-750 663,-750 663,-772 663,-772 663,-778 657,-784 651,-784 651,-784 590,-784 590,-784 584,-784 578,-778 578,-772 578,-772 578,-750 578,-750 578,-744 584,-738 590,-738"/>
<text text-anchor="middle" x="620.5" y="-768.8" font-family="Times,serif" font-size="14.00">Blueprint 14</text>
<polyline fill="none" stroke="black" points="578,-761 663,-761 "/>
<text text-anchor="middle" x="620.5" y="-745.8" font-family="Times,serif" font-size="14.00">Coolant 50</text>
</g>
<!-- P8&#45;&gt;B14 -->
<g id="edge56" class="edge"><title>P8:a&#45;&gt;B14:a</title>
<path fill="none" stroke="black" d="M500.5,-640C500.5,-654.899 546.329,-744.762 569.45,-767.682"/>
<polygon fill="black" stroke="black" points="567.66,-770.691 578,-773 571.357,-764.747 567.66,-770.691"/>
<text text-anchor="middle" x="556.5" y="-758.8" font-family="Times,serif" font-size="14.00">1</text>
</g>
<!-- P9 -->
<g id="node10" class="node"><title>P9</title>
<polygon fill="none" stroke="black" points="706,-740.5 706,-809.5 786,-809.5 786,-740.5 706,-740.5"/>
<text text-anchor="middle" x="746" y="-794.3" font-family="Times,serif" font-size="14.00">Product 9</text>
<polyline fill="none" stroke="black" points="706,-786.5 786,-786.5 "/>
<text text-anchor="middle" x="746" y="-771.3" font-family="Times,serif" font-size="14.00">Value 2000</text>
<polyline fill="none" stroke="black" points="706,-763.5 786,-763.5 "/>
<text text-anchor="middle" x="746" y="-748.3" font-family="Times,serif" font-size="14.00">Initial 0</text>
</g>
<!-- B0&#45;&gt;P2 -->
<g id="edge4" class="edge"><title>B0:a&#45;&gt;P2:a</title>
<path fill="none" stroke="black" d="M190,-645C223.803,-645 201.112,-512.281 223.881,-486.36"/>
<polygon fill="black" stroke="black" points="225.488,-489.471 233,-482 222.468,-483.156 225.488,-489.471"/>
<text text-anchor="middle" x="211.5" y="-617.8" font-family="Times,serif" font-size="14.00">1</text>
</g>
<!-- B0&#45;&gt;P8 -->
<g id="edge5" class="edge"><title>B0:a&#45;&gt;P8:a</title>
<path fill="none" stroke="black" d="M190,-645C304.887,-645 333.541,-638.902 448,-629 451.258,-628.718 453.511,-628.335 455.578,-627.98"/>
<polygon fill="black" stroke="black" points="456.372,-631.421 466,-627 455.716,-624.451 456.372,-631.421"/>
<text text-anchor="middle" x="323.5" y="-644.8" font-family="Times,serif" font-size="14.00">1</text>
</g>
<!-- B1&#45;&gt;P2 -->
<g id="edge8" class="edge"><title>B1:a&#45;&gt;P2:a</title>
<path fill="none" stroke="black" d="M1062,-693C1039.26,-693 1027.23,-307.196 1019,-286 1013.13,-270.883 921.11,-114 869,-114 383,-114 383,-114 383,-114 302.863,-114 378.619,-451.054 311.878,-480.02"/>
<polygon fill="black" stroke="black" points="311.117,-476.603 302,-482 312.493,-483.466 311.117,-476.603"/>
<text text-anchor="middle" x="684.5" y="-117.8" font-family="Times,serif" font-size="14.00">1</text>
</g>
<!-- B1&#45;&gt;P5 -->
<g id="edge9" class="edge"><title>B1:a&#45;&gt;P5:a</title>
<path fill="none" stroke="black" d="M1140,-693C1180.65,-693 1145.17,-355.609 1174.82,-306.846"/>
<polygon fill="black" stroke="black" points="1176.9,-309.662 1183,-301 1172.83,-303.966 1176.9,-309.662"/>
<text text-anchor="middle" x="1161.5" y="-640.8" font-family="Times,serif" font-size="14.00">1</text>
</g>
<!-- B1&#45;&gt;P6 -->
<g id="edge10" class="edge"><title>B1:a&#45;&gt;P6:a</title>
<path fill="none" stroke="black" d="M1140,-693C1155.23,-693 1161.36,-693 1172.89,-693"/>
<polygon fill="black" stroke="black" points="1173,-696.5 1183,-693 1173,-689.5 1173,-696.5"/>
<text text-anchor="middle" x="1161.5" y="-696.8" font-family="Times,serif" font-size="14.00">1</text>
</g>
<!-- B1&#45;&gt;P8 -->
<g id="edge11" class="edge"><title>B1:a&#45;&gt;P8:a</title>
<path fill="none" stroke="black" d="M1101,-705C1101,-763.788 1044.29,-943 985.5,-943 619.5,-943 619.5,-943 619.5,-943 612.548,-943 558.849,-918.834 553,-911 518.166,-864.342 502.159,-717.356 500.623,-650.085"/>
<polygon fill="black" stroke="black" points="504.122,-649.957 500.5,-640 497.122,-650.042 504.122,-649.957"/>
<text text-anchor="middle" x="807.5" y="-946.8" font-family="Times,serif" font-size="14.00">1</text>
</g>
<!-- B2&#45;&gt;P2 -->
<g id="edge15" class="edge"><title>B2:a&#45;&gt;P2:a</title>
<path fill="none" stroke="black" d="M829,-321C765.904,-321 748.596,-76 685.5,-76 383,-76 383,-76 383,-76 353.037,-76 337.579,-75.7354 320,-100 308.704,-115.592 320.548,-416.656 307.055,-472.968"/>
<polygon fill="black" stroke="black" points="303.83,-471.564 302,-482 309.938,-474.983 303.83,-471.564"/>
<text text-anchor="middle" x="556.5" y="-79.8" font-family="Times,serif" font-size="14.00">1</text>
</g>
<!-- B2&#45;&gt;P8 -->
<g id="edge16" class="edge"><title>B2:a&#45;&gt;P8:a</title>
<path fill="none" stroke="black" d="M829,-321C815.761,-321 600.707,-332.326 578,-348 559.171,-360.997 559.585,-371.089 553,-393 546.33,-415.193 557.894,-582.74 542.25,-619.77"/>
<polygon fill="black" stroke="black" points="539.609,-617.46 535,-627 544.552,-622.417 539.609,-617.46"/>
<text text-anchor="middle" x="684.5" y="-334.8" font-family="Times,serif" font-size="14.00">1</text>
</g>
<!-- B3&#45;&gt;P3 -->
<g id="edge19" class="edge"><title>B3:a&#45;&gt;P3:a</title>
<path fill="none" stroke="black" d="M423,-531C591.024,-531 426.095,-286.123 553,-176 565.335,-165.296 561.321,-166.796 681,-161 793.569,-155.548 850.187,-178.667 907,-276 919.266,-297.014 922.23,-473.277 942.188,-510.224"/>
<polygon fill="black" stroke="black" points="940.152,-513.091 950,-517 944.739,-507.804 940.152,-513.091"/>
<text text-anchor="middle" x="684.5" y="-164.8" font-family="Times,serif" font-size="14.00">1</text>
</g>
<!-- B3&#45;&gt;P8 -->
<g id="edge20" class="edge"><title>B3:a&#45;&gt;P8:a</title>
<path fill="none" stroke="black" d="M423,-531C438.713,-531 440.235,-542.339 448,-556 461.95,-580.543 440.761,-615.912 456.116,-624.874"/>
<polygon fill="black" stroke="black" points="455.488,-628.319 466,-627 456.959,-621.476 455.488,-628.319"/>
<text text-anchor="middle" x="444.5" y="-559.8" font-family="Times,serif" font-size="14.00">1</text>
</g>
<!-- B4&#45;&gt;P3 -->
<g id="edge23" class="edge"><title>B4:a&#45;&gt;P3:a</title>
<path fill="none" stroke="black" d="M660.5,-488C781.599,-488 813.391,-486.57 932,-511 935.613,-511.744 937.896,-512.986 940.028,-514.147"/>
<polygon fill="black" stroke="black" points="939.423,-517.614 950,-517 941.348,-510.884 939.423,-517.614"/>
<text text-anchor="middle" x="807.5" y="-495.8" font-family="Times,serif" font-size="14.00">1</text>
</g>
<!-- B4&#45;&gt;P8 -->
<g id="edge24" class="edge"><title>B4:a&#45;&gt;P8:a</title>
<path fill="none" stroke="black" d="M580.5,-488C555.138,-488 561.725,-514.186 553,-538 547.306,-553.542 552.419,-603.475 543.303,-620.917"/>
<polygon fill="black" stroke="black" points="540.998,-618.267 535,-627 545.135,-623.913 540.998,-618.267"/>
<text text-anchor="middle" x="556.5" y="-541.8" font-family="Times,serif" font-size="14.00">1</text>
</g>
<!-- B5&#45;&gt;P3 -->
<g id="edge28" class="edge"><title>B5:a&#45;&gt;P3:a</title>
<path fill="none" stroke="black" d="M907,-629C912.519,-629 933.816,-552.191 944.758,-525.788"/>
<polygon fill="black" stroke="black" points="947.883,-527.381 950,-517 941.872,-523.796 947.883,-527.381"/>
<text text-anchor="middle" x="928.5" y="-587.8" font-family="Times,serif" font-size="14.00">1</text>
</g>
<!-- B5&#45;&gt;P6 -->
<g id="edge29" class="edge"><title>B5:a&#45;&gt;P6:a</title>
<path fill="none" stroke="black" d="M907,-629C1010.9,-629 1046.21,-603.3 1140,-648 1161.27,-658.135 1157.43,-683.641 1172.91,-690.99"/>
<polygon fill="black" stroke="black" points="1172.51,-694.478 1183,-693 1173.88,-687.613 1172.51,-694.478"/>
<text text-anchor="middle" x="1040.5" y="-625.8" font-family="Times,serif" font-size="14.00">1</text>
</g>
<!-- B5&#45;&gt;P7 -->
<g id="edge30" class="edge"><title>B5:a&#45;&gt;P7:a</title>
<path fill="none" stroke="black" d="M907,-629C926.308,-629 920.517,-562.78 925,-544 935.037,-501.951 936.203,-490.969 950,-450 961.723,-415.187 980.686,-407.594 983.998,-376.081"/>
<polygon fill="black" stroke="black" points="987.499,-376.162 984.5,-366 980.507,-375.814 987.499,-376.162"/>
<text text-anchor="middle" x="928.5" y="-547.8" font-family="Times,serif" font-size="14.00">1</text>
</g>
<!-- B5&#45;&gt;P8 -->
<g id="edge31" class="edge"><title>B5:a&#45;&gt;P8:a</title>
<path fill="none" stroke="black" d="M829,-629C807.871,-629 823.655,-656.08 811,-673 802.477,-684.395 799.427,-688.29 786,-693 737.141,-710.139 594.107,-723.483 553,-692 532.92,-676.621 555.251,-640.92 544.714,-630.138"/>
<polygon fill="black" stroke="black" points="545.592,-626.744 535,-627 543.44,-633.405 545.592,-626.744"/>
<text text-anchor="middle" x="684.5" y="-713.8" font-family="Times,serif" font-size="14.00">1</text>
</g>
<!-- B6&#45;&gt;P0 -->
<g id="edge33" class="edge"><title>B6:a&#45;&gt;P0:a</title>
<path fill="none" stroke="black" d="M620.5,-850C620.5,-869.308 590.885,-844.62 578,-859 551.026,-889.104 586.085,-1009.12 560,-1040 542.605,-1060.59 528.455,-1056 501.5,-1056 150,-1056 150,-1056 150,-1056 122.804,-1056 104.022,-967.953 78.6667,-948.693"/>
<polygon fill="black" stroke="black" points="79.5906,-945.299 69,-945 77.0923,-951.838 79.5906,-945.299"/>
<text text-anchor="middle" x="323.5" y="-1059.8" font-family="Times,serif" font-size="14.00">1</text>
</g>
<!-- B6&#45;&gt;P8 -->
<g id="edge34" class="edge"><title>B6:a&#45;&gt;P8:a</title>
<path fill="none" stroke="black" d="M580.5,-838C575.286,-838 517.439,-689.632 503.506,-649.672"/>
<polygon fill="black" stroke="black" points="506.81,-648.511 500.5,-640 500.126,-650.588 506.81,-648.511"/>
<text text-anchor="middle" x="556.5" y="-794.8" font-family="Times,serif" font-size="14.00">1</text>
</g>
<!-- B7&#45;&gt;P1 -->
<g id="edge36" class="edge"><title>B7:a&#45;&gt;P1:a</title>
<path fill="none" stroke="black" d="M660.5,-669C678.752,-669 685.606,-671.057 699.94,-671.765"/>
<polygon fill="black" stroke="black" points="699.921,-675.265 710,-672 700.085,-668.267 699.921,-675.265"/>
<text text-anchor="middle" x="684.5" y="-674.8" font-family="Times,serif" font-size="14.00">1</text>
</g>
<!-- B7&#45;&gt;P8 -->
<g id="edge37" class="edge"><title>B7:a&#45;&gt;P8:a</title>
<path fill="none" stroke="black" d="M580.5,-669C571.292,-669 569.184,-671.332 560,-672 556.897,-672.226 555.576,-673.744 553,-672 539.204,-662.66 548.867,-640.848 543.987,-631.445"/>
<polygon fill="black" stroke="black" points="545.515,-628.296 535,-627 542.412,-634.57 545.515,-628.296"/>
<text text-anchor="middle" x="556.5" y="-676.8" font-family="Times,serif" font-size="14.00">1</text>
</g>
<!-- B8&#45;&gt;P2 -->
<g id="edge39" class="edge"><title>B8:a&#45;&gt;P2:a</title>
<path fill="none" stroke="black" d="M580.5,-903C529.021,-903 599.492,-983.977 560,-1017 557.613,-1019 555.636,-1018.65 553,-1017 351.725,-890.853 409.523,-756.023 320,-536 312.179,-516.778 322.1,-492.755 311.954,-484.742"/>
<polygon fill="black" stroke="black" points="312.57,-481.282 302,-482 310.711,-488.03 312.57,-481.282"/>
<text text-anchor="middle" x="444.5" y="-927.8" font-family="Times,serif" font-size="14.00">1</text>
</g>
<!-- B8&#45;&gt;P8 -->
<g id="edge40" class="edge"><title>B8:a&#45;&gt;P8:a</title>
<path fill="none" stroke="black" d="M580.5,-903C522.514,-903 502.529,-721.074 500.649,-650.351"/>
<polygon fill="black" stroke="black" points="504.144,-649.948 500.5,-640 497.145,-650.049 504.144,-649.948"/>
<text text-anchor="middle" x="556.5" y="-895.8" font-family="Times,serif" font-size="14.00">1</text>
</g>
<!-- B9&#45;&gt;P3 -->
<g id="edge42" class="edge"><title>B9:a&#45;&gt;P3:a</title>
<path fill="none" stroke="black" d="M660.5,-559C781.677,-559 821.569,-583.89 932,-534 937.641,-531.452 939.149,-526.391 941.348,-522.451"/>
<polygon fill="black" stroke="black" points="943.405,-525.292 950,-517 939.674,-519.37 943.405,-525.292"/>
<text text-anchor="middle" x="807.5" y="-569.8" font-family="Times,serif" font-size="14.00">1</text>
</g>
<!-- B9&#45;&gt;P8 -->
<g id="edge43" class="edge"><title>B9:a&#45;&gt;P8:a</title>
<path fill="none" stroke="black" d="M580.5,-559C559.291,-559 564.709,-580.316 553,-598 547.242,-606.696 548.064,-617.142 544.21,-622.822"/>
<polygon fill="black" stroke="black" points="542.661,-619.681 535,-627 545.553,-626.056 542.661,-619.681"/>
<text text-anchor="middle" x="556.5" y="-601.8" font-family="Times,serif" font-size="14.00">1</text>
</g>
<!-- B10&#45;&gt;P4 -->
<g id="edge45" class="edge"><title>B10:a&#45;&gt;P4:a</title>
<path fill="none" stroke="black" d="M663,-423C682.1,-423 685.981,-438.087 699.849,-443.274"/>
<polygon fill="black" stroke="black" points="699.555,-446.774 710,-445 700.728,-439.873 699.555,-446.774"/>
<text text-anchor="middle" x="684.5" y="-439.8" font-family="Times,serif" font-size="14.00">1</text>
</g>
<!-- B10&#45;&gt;P8 -->
<g id="edge46" class="edge"><title>B10:a&#45;&gt;P8:a</title>
<path fill="none" stroke="black" d="M578,-423C569.697,-423 568.227,-419.121 560,-418 556.917,-417.58 555.292,-415.897 553,-418 521.604,-446.808 571.513,-597.573 544.722,-623.273"/>
<polygon fill="black" stroke="black" points="543.084,-620.152 535,-627 545.59,-626.688 543.084,-620.152"/>
<text text-anchor="middle" x="556.5" y="-421.8" font-family="Times,serif" font-size="14.00">1</text>
</g>
<!-- B11&#45;&gt;P5 -->
<g id="edge48" class="edge"><title>B11:a&#45;&gt;P5:a</title>
<path fill="none" stroke="black" d="M663,-216C701.233,-216 706.767,-190 745,-190 745,-190 745,-190 1102,-190 1159.37,-190 1126.54,-287.966 1172.99,-299.829"/>
<polygon fill="black" stroke="black" points="1172.66,-303.314 1183,-301 1173.47,-296.362 1172.66,-303.314"/>
<text text-anchor="middle" x="928.5" y="-193.8" font-family="Times,serif" font-size="14.00">1</text>
</g>
<!-- B11&#45;&gt;P8 -->
<g id="edge49" class="edge"><title>B11:a&#45;&gt;P8:a</title>
<path fill="none" stroke="black" d="M578,-216C563.489,-216 559.431,-223.992 553,-237 544.27,-254.659 554.441,-561.927 540.133,-618.191"/>
<polygon fill="black" stroke="black" points="537.011,-616.598 535,-627 543.059,-620.122 537.011,-616.598"/>
<text text-anchor="middle" x="556.5" y="-240.8" font-family="Times,serif" font-size="14.00">1</text>
</g>
<!-- B12&#45;&gt;P6 -->
<g id="edge51" class="edge"><title>B12:a&#45;&gt;P6:a</title>
<path fill="none" stroke="black" d="M663,-1079C699.455,-1079 708.545,-1081 745,-1081 745,-1081 745,-1081 1102,-1081 1186.05,-1081 1215.38,-813.619 1217.39,-716.215"/>
<polygon fill="black" stroke="black" points="1220.89,-716.038 1217.5,-706 1213.89,-715.961 1220.89,-716.038"/>
<text text-anchor="middle" x="928.5" y="-1084.8" font-family="Times,serif" font-size="14.00">1</text>
</g>
<!-- B12&#45;&gt;P8 -->
<g id="edge52" class="edge"><title>B12:a&#45;&gt;P8:a</title>
<path fill="none" stroke="black" d="M578,-1079C566.547,-1079 555.268,-990.226 553,-979 523.491,-832.912 501.506,-794.186 500.534,-650.101"/>
<polygon fill="black" stroke="black" points="504.033,-649.988 500.5,-640 497.033,-650.012 504.033,-649.988"/>
<text text-anchor="middle" x="556.5" y="-1024.8" font-family="Times,serif" font-size="14.00">1</text>
</g>
<!-- B13&#45;&gt;P7 -->
<g id="edge54" class="edge"><title>B13:a&#45;&gt;P7:a</title>
<path fill="none" stroke="black" d="M663,-281C771.467,-281 813.455,-221.096 907,-276 937.371,-293.826 916.239,-341.774 940.059,-351.33"/>
<polygon fill="black" stroke="black" points="939.558,-354.795 950,-353 940.718,-347.892 939.558,-354.795"/>
<text text-anchor="middle" x="807.5" y="-258.8" font-family="Times,serif" font-size="14.00">1</text>
</g>
<!-- B13&#45;&gt;P8 -->
<g id="edge55" class="edge"><title>B13:a&#45;&gt;P8:a</title>
<path fill="none" stroke="black" d="M578,-281C565.265,-281 559.735,-284.192 553,-295 535.142,-323.66 565.758,-577.315 542.938,-620.701"/>
<polygon fill="black" stroke="black" points="540.658,-618.042 535,-627 545.009,-623.525 540.658,-618.042"/>
<text text-anchor="middle" x="556.5" y="-298.8" font-family="Times,serif" font-size="14.00">1</text>
</g>
<!-- B14&#45;&gt;P9 -->
<g id="edge57" class="edge"><title>B14:a&#45;&gt;P9:a</title>
<path fill="none" stroke="black" d="M663,-773C681.134,-773 683.577,-789.823 696.071,-795.869"/>
<polygon fill="black" stroke="black" points="695.488,-799.323 706,-798 696.957,-792.479 695.488,-799.323"/>
<text text-anchor="middle" x="684.5" y="-792.8" font-family="Times,serif" font-size="14.00">1</text>
</g>
</g>
</svg>
