<?xml version="1.0" encoding="UTF-8" standalone="no"?>
<!DOCTYPE svg PUBLIC "-//W3C//DTD SVG 1.1//EN"
 "http://www.w3.org/Graphics/SVG/1.1/DTD/svg11.dtd">
<!-- Generated by graphviz version 2.38.0 (20140413.2041)
 -->
<!-- Title: g Pages: 1 -->
<svg width="1251pt" height="164pt"
 viewBox="0.00 0.00 1251.00 164.00" xmlns="http://www.w3.org/2000/svg" xmlns:xlink="http://www.w3.org/1999/xlink">
<g id="graph0" class="graph" transform="scale(1 1) rotate(0) translate(4 160)">
<title>g</title>
<polygon fill="white" stroke="none" points="-4,4 -4,-160 1247,-160 1247,4 -4,4"/>
<!-- P0 -->
<g id="node1" class="node"><title>P0</title>
<polygon fill="none" stroke="black" points="121,-0.5 121,-69.5 190,-69.5 190,-0.5 121,-0.5"/>
<text text-anchor="middle" x="155.5" y="-54.3" font-family="Times,serif" font-size="14.00">Product 0</text>
<polyline fill="none" stroke="black" points="121,-46.5 190,-46.5 "/>
<text text-anchor="middle" x="155.5" y="-31.3" font-family="Times,serif" font-size="14.00">Value 10</text>
<polyline fill="none" stroke="black" points="121,-23.5 190,-23.5 "/>
<text text-anchor="middle" x="155.5" y="-8.3" font-family="Times,serif" font-size="14.00">Initial 0</text>
</g>
<!-- B2 -->
<g id="node8" class="node"><title>B2</title>
<path fill="none" stroke="black" d="M245,-82C245,-82 299,-82 299,-82 305,-82 311,-88 311,-94 311,-94 311,-116 311,-116 311,-122 305,-128 299,-128 299,-128 245,-128 245,-128 239,-128 233,-122 233,-116 233,-116 233,-94 233,-94 233,-88 239,-82 245,-82"/>
<text text-anchor="middle" x="272" y="-112.8" font-family="Times,serif" font-size="14.00">Blueprint 2</text>
<polyline fill="none" stroke="black" points="233,-105 311,-105 "/>
<text text-anchor="middle" x="272" y="-89.8" font-family="Times,serif" font-size="14.00">Coolant 10</text>
</g>
<!-- P0&#45;&gt;B2 -->
<g id="edge4" class="edge"><title>P0:a&#45;&gt;B2:a</title>
<path fill="none" stroke="black" d="M190,-58C218.392,-58 205.177,-103.172 223.167,-114.465"/>
<polygon fill="black" stroke="black" points="222.443,-117.892 233,-117 224.191,-111.114 222.443,-117.892"/>
<text text-anchor="middle" x="211.5" y="-106.8" font-family="Times,serif" font-size="14.00">1</text>
</g>
<!-- P1 -->
<g id="node2" class="node"><title>P1</title>
<polygon fill="none" stroke="black" points="354,-70.5 354,-139.5 423,-139.5 423,-70.5 354,-70.5"/>
<text text-anchor="middle" x="388.5" y="-124.3" font-family="Times,serif" font-size="14.00">Product 1</text>
<polyline fill="none" stroke="black" points="354,-116.5 423,-116.5 "/>
<text text-anchor="middle" x="388.5" y="-101.3" font-family="Times,serif" font-size="14.00">Value 20</text>
<polyline fill="none" stroke="black" points="354,-93.5 423,-93.5 "/>
<text text-anchor="middle" x="388.5" y="-78.3" font-family="Times,serif" font-size="14.00">Initial 0</text>
</g>
<!-- B3 -->
<g id="node9" class="node"><title>B3</title>
<path fill="none" stroke="black" d="M478,-93C478,-93 532,-93 532,-93 538,-93 544,-99 544,-105 544,-105 544,-127 544,-127 544,-133 538,-139 532,-139 532,-139 478,-139 478,-139 472,-139 466,-133 466,-127 466,-127 466,-105 466,-105 466,-99 472,-93 478,-93"/>
<text text-anchor="middle" x="505" y="-123.8" font-family="Times,serif" font-size="14.00">Blueprint 3</text>
<polyline fill="none" stroke="black" points="466,-116 544,-116 "/>
<text text-anchor="middle" x="505" y="-100.8" font-family="Times,serif" font-size="14.00">Coolant 10</text>
</g>
<!-- P1&#45;&gt;B3 -->
<g id="edge6" class="edge"><title>P1:a&#45;&gt;B3:a</title>
<path fill="none" stroke="black" d="M423,-128C438.229,-128 444.357,-128 455.888,-128"/>
<polygon fill="black" stroke="black" points="456,-131.5 466,-128 456,-124.5 456,-131.5"/>
<text text-anchor="middle" x="444.5" y="-131.8" font-family="Times,serif" font-size="14.00">1</text>
</g>
<!-- P2 -->
<g id="node3" class="node"><title>P2</title>
<polygon fill="none" stroke="black" points="587,-70.5 587,-139.5 656,-139.5 656,-70.5 587,-70.5"/>
<text text-anchor="middle" x="621.5" y="-124.3" font-family="Times,serif" font-size="14.00">Product 2</text>
<polyline fill="none" stroke="black" points="587,-116.5 656,-116.5 "/>
<text text-anchor="middle" x="621.5" y="-101.3" font-family="Times,serif" font-size="14.00">Value 30</text>
<polyline fill="none" stroke="black" points="587,-93.5 656,-93.5 "/>
<text text-anchor="middle" x="621.5" y="-78.3" font-family="Times,serif" font-size="14.00">Initial 0</text>
</g>
<!-- B4 -->
<g id="node10" class="node"><title>B4</title>
<path fill="none" stroke="black" d="M711,-93C711,-93 765,-93 765,-93 771,-93 777,-99 777,-105 777,-105 777,-127 777,-127 777,-133 771,-139 765,-139 765,-139 711,-139 711,-139 705,-139 699,-133 699,-127 699,-127 699,-105 699,-105 699,-99 705,-93 711,-93"/>
<text text-anchor="middle" x="738" y="-123.8" font-family="Times,serif" font-size="14.00">Blueprint 4</text>
<polyline fill="none" stroke="black" points="699,-116 777,-116 "/>
<text text-anchor="middle" x="738" y="-100.8" font-family="Times,serif" font-size="14.00">Coolant 10</text>
</g>
<!-- P2&#45;&gt;B4 -->
<g id="edge8" class="edge"><title>P2:a&#45;&gt;B4:a</title>
<path fill="none" stroke="black" d="M656,-128C671.229,-128 677.357,-128 688.888,-128"/>
<polygon fill="black" stroke="black" points="689,-131.5 699,-128 689,-124.5 689,-131.5"/>
<text text-anchor="middle" x="677.5" y="-131.8" font-family="Times,serif" font-size="14.00">1</text>
</g>
<!-- P3 -->
<g id="node4" class="node"><title>P3</title>
<polygon fill="none" stroke="black" points="820,-70.5 820,-139.5 889,-139.5 889,-70.5 820,-70.5"/>
<text text-anchor="middle" x="854.5" y="-124.3" font-family="Times,serif" font-size="14.00">Product 3</text>
<polyline fill="none" stroke="black" points="820,-116.5 889,-116.5 "/>
<text text-anchor="middle" x="854.5" y="-101.3" font-family="Times,serif" font-size="14.00">Value 40</text>
<polyline fill="none" stroke="black" points="820,-93.5 889,-93.5 "/>
<text text-anchor="middle" x="854.5" y="-78.3" font-family="Times,serif" font-size="14.00">Initial 0</text>
</g>
<!-- B5 -->
<g id="node11" class="node"><title>B5</title>
<path fill="none" stroke="black" d="M944,-93C944,-93 998,-93 998,-93 1004,-93 1010,-99 1010,-105 1010,-105 1010,-127 1010,-127 1010,-133 1004,-139 998,-139 998,-139 944,-139 944,-139 938,-139 932,-133 932,-127 932,-127 932,-105 932,-105 932,-99 938,-93 944,-93"/>
<text text-anchor="middle" x="971" y="-123.8" font-family="Times,serif" font-size="14.00">Blueprint 5</text>
<polyline fill="none" stroke="black" points="932,-116 1010,-116 "/>
<text text-anchor="middle" x="971" y="-100.8" font-family="Times,serif" font-size="14.00">Coolant 10</text>
</g>
<!-- P3&#45;&gt;B5 -->
<g id="edge10" class="edge"><title>P3:a&#45;&gt;B5:a</title>
<path fill="none" stroke="black" d="M889,-128C904.229,-128 910.357,-128 921.888,-128"/>
<polygon fill="black" stroke="black" points="922,-131.5 932,-128 922,-124.5 922,-131.5"/>
<text text-anchor="middle" x="910.5" y="-131.8" font-family="Times,serif" font-size="14.00">1</text>
</g>
<!-- P4 -->
<g id="node5" class="node"><title>P4</title>
<polygon fill="none" stroke="black" points="1053,-70.5 1053,-139.5 1122,-139.5 1122,-70.5 1053,-70.5"/>
<text text-anchor="middle" x="1087.5" y="-124.3" font-family="Times,serif" font-size="14.00">Product 4</text>
<polyline fill="none" stroke="black" points="1053,-116.5 1122,-116.5 "/>
<text text-anchor="middle" x="1087.5" y="-101.3" font-family="Times,serif" font-size="14.00">Value 50</text>
<polyline fill="none" stroke="black" points="1053,-93.5 1122,-93.5 "/>
<text text-anchor="middle" x="1087.5" y="-78.3" font-family="Times,serif" font-size="14.00">Initial 0</text>
</g>
<!-- B0 -->
<g id="node6" class="node"><title>B0</title>
<path fill="none" stroke="black" d="M1177,-103C1177,-103 1231,-103 1231,-103 1237,-103 1243,-109 1243,-115 1243,-115 1243,-137 1243,-137 1243,-143 1237,-149 1231,-149 1231,-149 1177,-149 1177,-149 1171,-149 1165,-143 1165,-137 1165,-137 1165,-115 1165,-115 1165,-109 1171,-103 1177,-103"/>
<text text-anchor="middle" x="1204" y="-133.8" font-family="Times,serif" font-size="14.00">Blueprint 0</text>
<polyline fill="none" stroke="black" points="1165,-126 1243,-126 "/>
<text text-anchor="middle" x="1204" y="-110.8" font-family="Times,serif" font-size="14.00">Coolant 5</text>
</g>
<!-- P4&#45;&gt;B0 -->
<g id="edge1" class="edge"><title>P4:a&#45;&gt;B0:a</title>
<path fill="none" stroke="black" d="M1122,-128C1131.61,-128 1130.8,-137.214 1140,-140 1142.98,-140.902 1143.89,-140.172 1147,-140 1150.26,-139.819 1152.52,-139.455 1154.59,-139.087"/>
<polygon fill="black" stroke="black" points="1155.42,-142.519 1165,-138 1154.69,-135.557 1155.42,-142.519"/>
<text text-anchor="middle" x="1143.5" y="-144.8" font-family="Times,serif" font-size="14.00">1</text>
</g>
<!-- B6 -->
<g id="node12" class="node"><title>B6</title>
<path fill="none" stroke="black" d="M1177,-30C1177,-30 1231,-30 1231,-30 1237,-30 1243,-36 1243,-42 1243,-42 1243,-64 1243,-64 1243,-70 1237,-76 1231,-76 1231,-76 1177,-76 1177,-76 1171,-76 1165,-70 1165,-64 1165,-64 1165,-42 1165,-42 1165,-36 1171,-30 1177,-30"/>
<text text-anchor="middle" x="1204" y="-60.8" font-family="Times,serif" font-size="14.00">Blueprint 6</text>
<polyline fill="none" stroke="black" points="1165,-53 1243,-53 "/>
<text text-anchor="middle" x="1204" y="-37.8" font-family="Times,serif" font-size="14.00">Coolant 10</text>
</g>
<!-- P4&#45;&gt;B6 -->
<g id="edge12" class="edge"><title>P4:a&#45;&gt;B6:a</title>
<path fill="none" stroke="black" d="M1122,-128C1123.65,-128 1147.44,-89.9314 1158.94,-72.979"/>
<polygon fill="black" stroke="black" points="1161.74,-75.0815 1165,-65 1156.17,-70.8493 1161.74,-75.0815"/>
<text text-anchor="middle" x="1143.5" y="-104.8" font-family="Times,serif" font-size="14.00">1</text>
</g>
<!-- B0&#45;&gt;P4 -->
<g id="edge2" class="edge"><title>B0:a&#45;&gt;P4:a</title>
<path fill="none" stroke="black" d="M1165,-138C1154,-138 1157.23,-125.065 1147,-121 1140.13,-118.269 1136.54,-121.91 1131.81,-124.88"/>
<polygon fill="black" stroke="black" points="1130.47,-121.633 1122,-128 1132.59,-128.304 1130.47,-121.633"/>
<text text-anchor="middle" x="1143.5" y="-124.8" font-family="Times,serif" font-size="14.00">3</text>
</g>
<!-- B1 -->
<g id="node7" class="node"><title>B1</title>
<path fill="none" stroke="black" d="M12,-23C12,-23 66,-23 66,-23 72,-23 78,-29 78,-35 78,-35 78,-57 78,-57 78,-63 72,-69 66,-69 66,-69 12,-69 12,-69 6,-69 0,-63 0,-57 0,-57 0,-35 0,-35 0,-29 6,-23 12,-23"/>
<text text-anchor="middle" x="39" y="-53.8" font-family="Times,serif" font-size="14.00">Blueprint 1</text>
<polyline fill="none" stroke="black" points="0,-46 78,-46 "/>
<text text-anchor="middle" x="39" y="-30.8" font-family="Times,serif" font-size="14.00">Coolant 10</text>
</g>
<!-- B1&#45;&gt;P0 -->
<g id="edge3" class="edge"><title>B1:a&#45;&gt;P0:a</title>
<path fill="none" stroke="black" d="M78,-58C93.2292,-58 99.3565,-58 110.888,-58"/>
<polygon fill="black" stroke="black" points="111,-61.5001 121,-58 111,-54.5001 111,-61.5001"/>
<text text-anchor="middle" x="99.5" y="-61.8" font-family="Times,serif" font-size="14.00">1</text>
</g>
<!-- B2&#45;&gt;P1 -->
<g id="edge5" class="edge"><title>B2:a&#45;&gt;P1:a</title>
<path fill="none" stroke="black" d="M311,-117C326.874,-117 332.271,-124.123 344.052,-126.905"/>
<polygon fill="black" stroke="black" points="343.677,-130.385 354,-128 344.443,-123.427 343.677,-130.385"/>
<text text-anchor="middle" x="332.5" y="-127.8" font-family="Times,serif" font-size="14.00">1</text>
</g>
<!-- B3&#45;&gt;P2 -->
<g id="edge7" class="edge"><title>B3:a&#45;&gt;P2:a</title>
<path fill="none" stroke="black" d="M544,-128C559.229,-128 565.357,-128 576.888,-128"/>
<polygon fill="black" stroke="black" points="577,-131.5 587,-128 577,-124.5 577,-131.5"/>
<text text-anchor="middle" x="565.5" y="-131.8" font-family="Times,serif" font-size="14.00">1</text>
</g>
<!-- B4&#45;&gt;P3 -->
<g id="edge9" class="edge"><title>B4:a&#45;&gt;P3:a</title>
<path fill="none" stroke="black" d="M777,-128C792.229,-128 798.357,-128 809.888,-128"/>
<polygon fill="black" stroke="black" points="810,-131.5 820,-128 810,-124.5 810,-131.5"/>
<text text-anchor="middle" x="798.5" y="-131.8" font-family="Times,serif" font-size="14.00">1</text>
</g>
<!-- B5&#45;&gt;P4 -->
<g id="edge11" class="edge"><title>B5:a&#45;&gt;P4:a</title>
<path fill="none" stroke="black" d="M1010,-128C1025.23,-128 1031.36,-128 1042.89,-128"/>
<polygon fill="black" stroke="black" points="1043,-131.5 1053,-128 1043,-124.5 1043,-131.5"/>
<text text-anchor="middle" x="1031.5" y="-131.8" font-family="Times,serif" font-size="14.00">1</text>
</g>
<!-- B6&#45;&gt;P0 -->
<g id="edge13" class="edge"><title>B6:a&#45;&gt;P0:a</title>
<path fill="none" stroke="black" d="M1165,-65C1129.5,-65 1124,-42 1088.5,-42 271,-42 271,-42 271,-42 238.031,-42 228.541,-54.915 200.342,-57.5384"/>
<polygon fill="black" stroke="black" points="199.834,-54.0575 190,-58 200.146,-61.0505 199.834,-54.0575"/>
<text text-anchor="middle" x="677.5" y="-45.8" font-family="Times,serif" font-size="14.00">1</text>
</g>
</g>
</svg>
