<?xml version="1.0" encoding="UTF-8" standalone="no"?>
<!DOCTYPE svg PUBLIC "-//W3C//DTD SVG 1.1//EN"
 "http://www.w3.org/Graphics/SVG/1.1/DTD/svg11.dtd">
<!-- Generated by graphviz version 2.38.0 (20140413.2041)
 -->
<!-- Title: g Pages: 1 -->
<svg width="1249pt" height="1116pt"
 viewBox="0.00 0.00 1249.00 1116.00" xmlns="http://www.w3.org/2000/svg" xmlns:xlink="http://www.w3.org/1999/xlink">
<g id="graph0" class="graph" transform="scale(1 1) rotate(0) translate(4 1112)">
<title>g</title>
<polygon fill="white" stroke="none" points="-4,4 -4,-1112 1245,-1112 1245,4 -4,4"/>
<!-- P0 -->
<g id="node1" class="node"><title>P0</title>
<polygon fill="none" stroke="black" points="0,-170.5 0,-239.5 69,-239.5 69,-170.5 0,-170.5"/>
<text text-anchor="middle" x="34.5" y="-224.3" font-family="Times,serif" font-size="14.00">Product 0</text>
<polyline fill="none" stroke="black" points="0,-216.5 69,-216.5 "/>
<text text-anchor="middle" x="34.5" y="-201.3" font-family="Times,serif" font-size="14.00">Value 3</text>
<polyline fill="none" stroke="black" points="0,-193.5 69,-193.5 "/>
<text text-anchor="middle" x="34.5" y="-178.3" font-family="Times,serif" font-size="14.00">Initial 15</text>
</g>
<!-- B0 -->
<g id="node10" class="node"><title>B0</title>
<path fill="none" stroke="black" d="M124,-497C124,-497 178,-497 178,-497 184,-497 190,-503 190,-509 190,-509 190,-531 190,-531 190,-537 184,-543 178,-543 178,-543 124,-543 124,-543 118,-543 112,-537 112,-531 112,-531 112,-509 112,-509 112,-503 118,-497 124,-497"/>
<text text-anchor="middle" x="151" y="-527.8" font-family="Times,serif" font-size="14.00">Blueprint 0</text>
<polyline fill="none" stroke="black" points="112,-520 190,-520 "/>
<text text-anchor="middle" x="151" y="-504.8" font-family="Times,serif" font-size="14.00">Coolant 3</text>
</g>
<!-- P0&#45;&gt;B0 -->
<g id="edge1" class="edge"><title>P0:a&#45;&gt;B0:a</title>
<path fill="none" stroke="black" d="M69,-228C201.858,-228 -12.5865,-516.18 101.957,-531.377"/>
<polygon fill="black" stroke="black" points="101.802,-534.874 112,-532 102.236,-527.888 101.802,-534.874"/>
<text text-anchor="middle" x="90.5" y="-532.8" font-family="Times,serif" font-size="14.00">1</text>
</g>
<!-- B2 -->
<g id="node12" class="node"><title>B2</title>
<path fill="none" stroke="black" d="M830,-944C830,-944 884,-944 884,-944 890,-944 896,-950 896,-956 896,-956 896,-978 896,-978 896,-984 890,-990 884,-990 884,-990 830,-990 830,-990 824,-990 818,-984 818,-978 818,-978 818,-956 818,-956 818,-950 824,-944 830,-944"/>
<text text-anchor="middle" x="857" y="-974.8" font-family="Times,serif" font-size="14.00">Blueprint 2</text>
<polyline fill="none" stroke="black" points="818,-967 896,-967 "/>
<text text-anchor="middle" x="857" y="-951.8" font-family="Times,serif" font-size="14.00">Coolant 3</text>
</g>
<!-- P0&#45;&gt;B2 -->
<g id="edge12" class="edge"><title>P0:a&#45;&gt;B2:a</title>
<path fill="none" stroke="black" d="M34.5,-241C34.5,-336.533 54.4674,-1093 150,-1093 150,-1093 150,-1093 445.5,-1093 594.514,-1093 641.128,-1096.45 775,-1031 788.036,-1024.63 790.662,-1021.11 800,-1010 807.049,-1001.62 805.383,-990.108 808.831,-983.734"/>
<polygon fill="black" stroke="black" points="810.72,-986.697 818,-979 807.509,-980.477 810.72,-986.697"/>
<text text-anchor="middle" x="444.5" y="-1096.8" font-family="Times,serif" font-size="14.00">1</text>
</g>
<!-- B5 -->
<g id="node15" class="node"><title>B5</title>
<path fill="none" stroke="black" d="M830,-330C830,-330 884,-330 884,-330 890,-330 896,-336 896,-342 896,-342 896,-364 896,-364 896,-370 890,-376 884,-376 884,-376 830,-376 830,-376 824,-376 818,-370 818,-364 818,-364 818,-342 818,-342 818,-336 824,-330 830,-330"/>
<text text-anchor="middle" x="857" y="-360.8" font-family="Times,serif" font-size="14.00">Blueprint 5</text>
<polyline fill="none" stroke="black" points="818,-353 896,-353 "/>
<text text-anchor="middle" x="857" y="-337.8" font-family="Times,serif" font-size="14.00">Coolant 6</text>
</g>
<!-- P0&#45;&gt;B5 -->
<g id="edge25" class="edge"><title>P0:a&#45;&gt;B5:a</title>
<path fill="none" stroke="black" d="M69,-228C118.603,-228 100.397,-20 150,-20 150,-20 150,-20 501.5,-20 584.107,-20 599.617,-59.0233 663,-112 692.778,-136.889 755.667,-212.349 775,-246 780.882,-256.238 797.297,-333.215 810.733,-357.608"/>
<polygon fill="black" stroke="black" points="808.493,-360.323 818,-365 813.485,-355.415 808.493,-360.323"/>
<text text-anchor="middle" x="444.5" y="-23.8" font-family="Times,serif" font-size="14.00">1</text>
</g>
<!-- P1 -->
<g id="node2" class="node"><title>P1</title>
<polygon fill="none" stroke="black" points="706,-307.5 706,-376.5 775,-376.5 775,-307.5 706,-307.5"/>
<text text-anchor="middle" x="740.5" y="-361.3" font-family="Times,serif" font-size="14.00">Product 1</text>
<polyline fill="none" stroke="black" points="706,-353.5 775,-353.5 "/>
<text text-anchor="middle" x="740.5" y="-338.3" font-family="Times,serif" font-size="14.00">Value 5</text>
<polyline fill="none" stroke="black" points="706,-330.5 775,-330.5 "/>
<text text-anchor="middle" x="740.5" y="-315.3" font-family="Times,serif" font-size="14.00">Initial 4</text>
</g>
<!-- P1&#45;&gt;B5 -->
<g id="edge26" class="edge"><title>P1:a&#45;&gt;B5:a</title>
<path fill="none" stroke="black" d="M775,-365C790.229,-365 796.357,-365 807.888,-365"/>
<polygon fill="black" stroke="black" points="808,-368.5 818,-365 808,-361.5 808,-368.5"/>
<text text-anchor="middle" x="796.5" y="-368.8" font-family="Times,serif" font-size="14.00">1</text>
</g>
<!-- P2 -->
<g id="node3" class="node"><title>P2</title>
<polygon fill="none" stroke="black" points="233,-431.5 233,-500.5 302,-500.5 302,-431.5 233,-431.5"/>
<text text-anchor="middle" x="267.5" y="-485.3" font-family="Times,serif" font-size="14.00">Product 2</text>
<polyline fill="none" stroke="black" points="233,-477.5 302,-477.5 "/>
<text text-anchor="middle" x="267.5" y="-462.3" font-family="Times,serif" font-size="14.00">Value 7</text>
<polyline fill="none" stroke="black" points="233,-454.5 302,-454.5 "/>
<text text-anchor="middle" x="267.5" y="-439.3" font-family="Times,serif" font-size="14.00">Initial 4</text>
</g>
<!-- B3 -->
<g id="node13" class="node"><title>B3</title>
<path fill="none" stroke="black" d="M357,-433C357,-433 411,-433 411,-433 417,-433 423,-439 423,-445 423,-445 423,-467 423,-467 423,-473 417,-479 411,-479 411,-479 357,-479 357,-479 351,-479 345,-473 345,-467 345,-467 345,-445 345,-445 345,-439 351,-433 357,-433"/>
<text text-anchor="middle" x="384" y="-463.8" font-family="Times,serif" font-size="14.00">Blueprint 3</text>
<polyline fill="none" stroke="black" points="345,-456 423,-456 "/>
<text text-anchor="middle" x="384" y="-440.8" font-family="Times,serif" font-size="14.00">Coolant 9</text>
</g>
<!-- P2&#45;&gt;B3 -->
<g id="edge17" class="edge"><title>P2:a&#45;&gt;B3:a</title>
<path fill="none" stroke="black" d="M302,-489C319.281,-489 322.826,-475.137 334.957,-469.938"/>
<polygon fill="black" stroke="black" points="335.844,-473.331 345,-468 334.518,-466.458 335.844,-473.331"/>
<text text-anchor="middle" x="323.5" y="-485.8" font-family="Times,serif" font-size="14.00">1</text>
</g>
<!-- B4 -->
<g id="node14" class="node"><title>B4</title>
<path fill="none" stroke="black" d="M593.5,-668C593.5,-668 647.5,-668 647.5,-668 653.5,-668 659.5,-674 659.5,-680 659.5,-680 659.5,-702 659.5,-702 659.5,-708 653.5,-714 647.5,-714 647.5,-714 593.5,-714 593.5,-714 587.5,-714 581.5,-708 581.5,-702 581.5,-702 581.5,-680 581.5,-680 581.5,-674 587.5,-668 593.5,-668"/>
<text text-anchor="middle" x="620.5" y="-698.8" font-family="Times,serif" font-size="14.00">Blueprint 4</text>
<polyline fill="none" stroke="black" points="581.5,-691 659.5,-691 "/>
<text text-anchor="middle" x="620.5" y="-675.8" font-family="Times,serif" font-size="14.00">Coolant 8</text>
</g>
<!-- P2&#45;&gt;B4 -->
<g id="edge21" class="edge"><title>P2:a&#45;&gt;B4:a</title>
<path fill="none" stroke="black" d="M267.5,-502C267.5,-542.457 377.193,-748.68 553,-827 583.291,-840.494 559.376,-806.765 578,-771 590.683,-746.643 613.902,-745.978 619.339,-724.961"/>
<polygon fill="black" stroke="black" points="622.819,-725.338 620.5,-715 615.866,-724.528 622.819,-725.338"/>
<text text-anchor="middle" x="444.5" y="-763.8" font-family="Times,serif" font-size="14.00">1</text>
</g>
<!-- P3 -->
<g id="node4" class="node"><title>P3</title>
<polygon fill="none" stroke="black" points="939,-419.5 939,-488.5 1008,-488.5 1008,-419.5 939,-419.5"/>
<text text-anchor="middle" x="973.5" y="-473.3" font-family="Times,serif" font-size="14.00">Product 3</text>
<polyline fill="none" stroke="black" points="939,-465.5 1008,-465.5 "/>
<text text-anchor="middle" x="973.5" y="-450.3" font-family="Times,serif" font-size="14.00">Value 9</text>
<polyline fill="none" stroke="black" points="939,-442.5 1008,-442.5 "/>
<text text-anchor="middle" x="973.5" y="-427.3" font-family="Times,serif" font-size="14.00">Initial 11</text>
</g>
<!-- P4 -->
<g id="node5" class="node"><title>P4</title>
<polygon fill="none" stroke="black" points="706,-881.5 706,-950.5 775,-950.5 775,-881.5 706,-881.5"/>
<text text-anchor="middle" x="740.5" y="-935.3" font-family="Times,serif" font-size="14.00">Product 4</text>
<polyline fill="none" stroke="black" points="706,-927.5 775,-927.5 "/>
<text text-anchor="middle" x="740.5" y="-912.3" font-family="Times,serif" font-size="14.00">Value 10</text>
<polyline fill="none" stroke="black" points="706,-904.5 775,-904.5 "/>
<text text-anchor="middle" x="740.5" y="-889.3" font-family="Times,serif" font-size="14.00">Initial 11</text>
</g>
<!-- P4&#45;&gt;B2 -->
<g id="edge13" class="edge"><title>P4:a&#45;&gt;B2:a</title>
<path fill="none" stroke="black" d="M775,-939C787.139,-939 790.833,-942.042 800,-950 807.697,-956.681 806.329,-967.476 809.203,-973.84"/>
<polygon fill="black" stroke="black" points="807.603,-976.96 818,-979 811.145,-970.922 807.603,-976.96"/>
<text text-anchor="middle" x="796.5" y="-953.8" font-family="Times,serif" font-size="14.00">1</text>
</g>
<!-- P5 -->
<g id="node6" class="node"><title>P5</title>
<polygon fill="none" stroke="black" points="1172,-225.5 1172,-294.5 1241,-294.5 1241,-225.5 1172,-225.5"/>
<text text-anchor="middle" x="1206.5" y="-279.3" font-family="Times,serif" font-size="14.00">Product 5</text>
<polyline fill="none" stroke="black" points="1172,-271.5 1241,-271.5 "/>
<text text-anchor="middle" x="1206.5" y="-256.3" font-family="Times,serif" font-size="14.00">Value 7</text>
<polyline fill="none" stroke="black" points="1172,-248.5 1241,-248.5 "/>
<text text-anchor="middle" x="1206.5" y="-233.3" font-family="Times,serif" font-size="14.00">Initial 19</text>
</g>
<!-- P6 -->
<g id="node7" class="node"><title>P6</title>
<polygon fill="none" stroke="black" points="1172,-0.5 1172,-69.5 1241,-69.5 1241,-0.5 1172,-0.5"/>
<text text-anchor="middle" x="1206.5" y="-54.3" font-family="Times,serif" font-size="14.00">Product 6</text>
<polyline fill="none" stroke="black" points="1172,-46.5 1241,-46.5 "/>
<text text-anchor="middle" x="1206.5" y="-31.3" font-family="Times,serif" font-size="14.00">Value 6</text>
<polyline fill="none" stroke="black" points="1172,-23.5 1241,-23.5 "/>
<text text-anchor="middle" x="1206.5" y="-8.3" font-family="Times,serif" font-size="14.00">Initial 20</text>
</g>
<!-- P7 -->
<g id="node8" class="node"><title>P7</title>
<polygon fill="none" stroke="black" points="939,-603.5 939,-672.5 1008,-672.5 1008,-603.5 939,-603.5"/>
<text text-anchor="middle" x="973.5" y="-657.3" font-family="Times,serif" font-size="14.00">Product 7</text>
<polyline fill="none" stroke="black" points="939,-649.5 1008,-649.5 "/>
<text text-anchor="middle" x="973.5" y="-634.3" font-family="Times,serif" font-size="14.00">Value 5</text>
<polyline fill="none" stroke="black" points="939,-626.5 1008,-626.5 "/>
<text text-anchor="middle" x="973.5" y="-611.3" font-family="Times,serif" font-size="14.00">Initial 8</text>
</g>
<!-- P7&#45;&gt;B0 -->
<g id="edge2" class="edge"><title>P7:a&#45;&gt;B0:a</title>
<path fill="none" stroke="black" d="M939,-661C901.142,-661 914.633,-966.045 896,-999 796.695,-1174.63 647.263,-1055 445.5,-1055 266.5,-1055 266.5,-1055 266.5,-1055 210.905,-1055 156.149,-641.977 151.342,-554.157"/>
<polygon fill="black" stroke="black" points="154.834,-553.877 151,-544 147.838,-554.112 154.834,-553.877"/>
<text text-anchor="middle" x="556.5" y="-1069.8" font-family="Times,serif" font-size="14.00">1</text>
</g>
<!-- B1 -->
<g id="node11" class="node"><title>B1</title>
<path fill="none" stroke="black" d="M1063,-171C1063,-171 1117,-171 1117,-171 1123,-171 1129,-177 1129,-183 1129,-183 1129,-205 1129,-205 1129,-211 1123,-217 1117,-217 1117,-217 1063,-217 1063,-217 1057,-217 1051,-211 1051,-205 1051,-205 1051,-183 1051,-183 1051,-177 1057,-171 1063,-171"/>
<text text-anchor="middle" x="1090" y="-201.8" font-family="Times,serif" font-size="14.00">Blueprint 1</text>
<polyline fill="none" stroke="black" points="1051,-194 1129,-194 "/>
<text text-anchor="middle" x="1090" y="-178.8" font-family="Times,serif" font-size="14.00">Coolant 4</text>
</g>
<!-- P7&#45;&gt;B1 -->
<g id="edge6" class="edge"><title>P7:a&#45;&gt;B1:a</title>
<path fill="none" stroke="black" d="M1008,-661C1055.52,-661 1086.71,-306.953 1089.75,-228.182"/>
<polygon fill="black" stroke="black" points="1093.26,-228.081 1090,-218 1086.26,-227.913 1093.26,-228.081"/>
<text text-anchor="middle" x="1029.5" y="-643.8" font-family="Times,serif" font-size="14.00">1</text>
</g>
<!-- P8 -->
<g id="node9" class="node"><title>P8</title>
<polygon fill="none" stroke="black" points="466,-474.5 466,-543.5 535,-543.5 535,-474.5 466,-474.5"/>
<text text-anchor="middle" x="500.5" y="-528.3" font-family="Times,serif" font-size="14.00">Product 8</text>
<polyline fill="none" stroke="black" points="466,-520.5 535,-520.5 "/>
<text text-anchor="middle" x="500.5" y="-505.3" font-family="Times,serif" font-size="14.00">Value 0</text>
<polyline fill="none" stroke="black" points="466,-497.5 535,-497.5 "/>
<text text-anchor="middle" x="500.5" y="-482.3" font-family="Times,serif" font-size="14.00">Initial 1</text>
</g>
<!-- P8&#45;&gt;B0 -->
<g id="edge3" class="edge"><title>P8:a&#45;&gt;B0:a</title>
<path fill="none" stroke="black" d="M466,-532C346.807,-532 314.477,-532 200.205,-532"/>
<polygon fill="black" stroke="black" points="200,-528.5 190,-532 200,-535.5 200,-528.5"/>
<text text-anchor="middle" x="323.5" y="-535.8" font-family="Times,serif" font-size="14.00">1</text>
</g>
<!-- P8&#45;&gt;B1 -->
<g id="edge7" class="edge"><title>P8:a&#45;&gt;B1:a</title>
<path fill="none" stroke="black" d="M535,-532C564.291,-532 543.809,-296.811 553,-269 559.461,-249.451 560.674,-241.123 578,-230 752.275,-118.112 837.732,-203.161 1040.92,-205.931"/>
<polygon fill="black" stroke="black" points="1040.98,-209.432 1051,-206 1041.02,-202.432 1040.98,-209.432"/>
<text text-anchor="middle" x="796.5" y="-179.8" font-family="Times,serif" font-size="14.00">1</text>
</g>
<!-- P8&#45;&gt;B2 -->
<g id="edge14" class="edge"><title>P8:a&#45;&gt;B2:a</title>
<path fill="none" stroke="black" d="M500.5,-545C500.5,-608.743 511.709,-778.438 553,-827 618.213,-903.697 697.018,-808.329 775,-872 779.09,-875.34 801.297,-945.863 812.565,-970.553"/>
<polygon fill="black" stroke="black" points="809.646,-972.484 818,-979 815.532,-968.697 809.646,-972.484"/>
<text text-anchor="middle" x="684.5" y="-854.8" font-family="Times,serif" font-size="14.00">1</text>
</g>
<!-- P8&#45;&gt;B3 -->
<g id="edge18" class="edge"><title>P8:a&#45;&gt;B3:a</title>
<path fill="none" stroke="black" d="M466,-532C435.166,-532 472.468,-483.762 448,-465 442.172,-460.531 438.046,-463.22 432.736,-465.596"/>
<polygon fill="black" stroke="black" points="431.869,-462.205 423,-468 433.547,-469.001 431.869,-462.205"/>
<text text-anchor="middle" x="444.5" y="-468.8" font-family="Times,serif" font-size="14.00">1</text>
</g>
<!-- P8&#45;&gt;B4 -->
<g id="edge22" class="edge"><title>P8:a&#45;&gt;B4:a</title>
<path fill="none" stroke="black" d="M500.5,-545C500.5,-581.367 524.641,-677.234 553,-700 559.442,-705.171 564.091,-704.748 570.178,-703.913"/>
<polygon fill="black" stroke="black" points="570.847,-707.368 580.5,-703 570.23,-700.395 570.847,-707.368"/>
<text text-anchor="middle" x="556.5" y="-707.8" font-family="Times,serif" font-size="14.00">1</text>
</g>
<!-- P8&#45;&gt;B5 -->
<g id="edge27" class="edge"><title>P8:a&#45;&gt;B5:a</title>
<path fill="none" stroke="black" d="M535,-532C543.431,-532 793.344,-389.175 800,-384 805.452,-379.761 806.675,-373.857 809.203,-369.76"/>
<polygon fill="black" stroke="black" points="810.871,-372.838 818,-365 807.539,-366.681 810.871,-372.838"/>
<text text-anchor="middle" x="684.5" y="-455.8" font-family="Times,serif" font-size="14.00">1</text>
</g>
<!-- B6 -->
<g id="node16" class="node"><title>B6</title>
<path fill="none" stroke="black" d="M593.5,-396C593.5,-396 647.5,-396 647.5,-396 653.5,-396 659.5,-402 659.5,-408 659.5,-408 659.5,-430 659.5,-430 659.5,-436 653.5,-442 647.5,-442 647.5,-442 593.5,-442 593.5,-442 587.5,-442 581.5,-436 581.5,-430 581.5,-430 581.5,-408 581.5,-408 581.5,-402 587.5,-396 593.5,-396"/>
<text text-anchor="middle" x="620.5" y="-426.8" font-family="Times,serif" font-size="14.00">Blueprint 6</text>
<polyline fill="none" stroke="black" points="581.5,-419 659.5,-419 "/>
<text text-anchor="middle" x="620.5" y="-403.8" font-family="Times,serif" font-size="14.00">Coolant 5</text>
</g>
<!-- P8&#45;&gt;B6 -->
<g id="edge32" class="edge"><title>P8:a&#45;&gt;B6:a</title>
<path fill="none" stroke="black" d="M535,-532C580.159,-532 518.887,-461.591 553,-432 559.352,-426.49 564.187,-428.084 570.563,-429.618"/>
<polygon fill="black" stroke="black" points="570.113,-433.089 580.5,-431 571.078,-426.156 570.113,-433.089"/>
<text text-anchor="middle" x="556.5" y="-435.8" font-family="Times,serif" font-size="14.00">1</text>
</g>
<!-- B7 -->
<g id="node17" class="node"><title>B7</title>
<path fill="none" stroke="black" d="M593.5,-330C593.5,-330 647.5,-330 647.5,-330 653.5,-330 659.5,-336 659.5,-342 659.5,-342 659.5,-364 659.5,-364 659.5,-370 653.5,-376 647.5,-376 647.5,-376 593.5,-376 593.5,-376 587.5,-376 581.5,-370 581.5,-364 581.5,-364 581.5,-342 581.5,-342 581.5,-336 587.5,-330 593.5,-330"/>
<text text-anchor="middle" x="620.5" y="-360.8" font-family="Times,serif" font-size="14.00">Blueprint 7</text>
<polyline fill="none" stroke="black" points="581.5,-353 659.5,-353 "/>
<text text-anchor="middle" x="620.5" y="-337.8" font-family="Times,serif" font-size="14.00">Coolant 5</text>
</g>
<!-- P8&#45;&gt;B7 -->
<g id="edge35" class="edge"><title>P8:a&#45;&gt;B7:a</title>
<path fill="none" stroke="black" d="M535,-532C562.405,-532 543.667,-435.766 553,-410 559.61,-391.75 558.057,-372.866 570.64,-366.914"/>
<polygon fill="black" stroke="black" points="571.35,-370.341 580.5,-365 570.016,-363.469 571.35,-370.341"/>
<text text-anchor="middle" x="556.5" y="-413.8" font-family="Times,serif" font-size="14.00">1</text>
</g>
<!-- B8 -->
<g id="node18" class="node"><title>B8</title>
<path fill="none" stroke="black" d="M593.5,-264C593.5,-264 647.5,-264 647.5,-264 653.5,-264 659.5,-270 659.5,-276 659.5,-276 659.5,-298 659.5,-298 659.5,-304 653.5,-310 647.5,-310 647.5,-310 593.5,-310 593.5,-310 587.5,-310 581.5,-304 581.5,-298 581.5,-298 581.5,-276 581.5,-276 581.5,-270 587.5,-264 593.5,-264"/>
<text text-anchor="middle" x="620.5" y="-294.8" font-family="Times,serif" font-size="14.00">Blueprint 8</text>
<polyline fill="none" stroke="black" points="581.5,-287 659.5,-287 "/>
<text text-anchor="middle" x="620.5" y="-271.8" font-family="Times,serif" font-size="14.00">Coolant 5</text>
</g>
<!-- P8&#45;&gt;B8 -->
<g id="edge38" class="edge"><title>P8:a&#45;&gt;B8:a</title>
<path fill="none" stroke="black" d="M535,-532C555.874,-532 546.486,-364.831 553,-345 559.156,-326.26 557.64,-307.012 570.465,-300.949"/>
<polygon fill="black" stroke="black" points="571.351,-304.342 580.5,-299 570.016,-297.471 571.351,-304.342"/>
<text text-anchor="middle" x="556.5" y="-348.8" font-family="Times,serif" font-size="14.00">1</text>
</g>
<!-- B9 -->
<g id="node19" class="node"><title>B9</title>
<path fill="none" stroke="black" d="M593.5,-593C593.5,-593 647.5,-593 647.5,-593 653.5,-593 659.5,-599 659.5,-605 659.5,-605 659.5,-627 659.5,-627 659.5,-633 653.5,-639 647.5,-639 647.5,-639 593.5,-639 593.5,-639 587.5,-639 581.5,-633 581.5,-627 581.5,-627 581.5,-605 581.5,-605 581.5,-599 587.5,-593 593.5,-593"/>
<text text-anchor="middle" x="620.5" y="-623.8" font-family="Times,serif" font-size="14.00">Blueprint 9</text>
<polyline fill="none" stroke="black" points="581.5,-616 659.5,-616 "/>
<text text-anchor="middle" x="620.5" y="-600.8" font-family="Times,serif" font-size="14.00">Coolant 5</text>
</g>
<!-- P8&#45;&gt;B9 -->
<g id="edge41" class="edge"><title>P8:a&#45;&gt;B9:a</title>
<path fill="none" stroke="black" d="M535,-532C554.901,-532 544.547,-554.983 553,-573 562.794,-593.876 556.182,-618.679 570.293,-625.92"/>
<polygon fill="black" stroke="black" points="570.003,-629.433 580.5,-628 571.4,-622.574 570.003,-629.433"/>
<text text-anchor="middle" x="556.5" y="-607.8" font-family="Times,serif" font-size="14.00">1</text>
</g>
<!-- B10 -->
<g id="node20" class="node"><title>B10</title>
<path fill="none" stroke="black" d="M590,-904C590,-904 651,-904 651,-904 657,-904 663,-910 663,-916 663,-916 663,-938 663,-938 663,-944 657,-950 651,-950 651,-950 590,-950 590,-950 584,-950 578,-944 578,-938 578,-938 578,-916 578,-916 578,-910 584,-904 590,-904"/>
<text text-anchor="middle" x="620.5" y="-934.8" font-family="Times,serif" font-size="14.00">Blueprint 10</text>
<polyline fill="none" stroke="black" points="578,-927 663,-927 "/>
<text text-anchor="middle" x="620.5" y="-911.8" font-family="Times,serif" font-size="14.00">Coolant 5</text>
</g>
<!-- P8&#45;&gt;B10 -->
<g id="edge44" class="edge"><title>P8:a&#45;&gt;B10:a</title>
<path fill="none" stroke="black" d="M500.5,-545C500.5,-699.659 506.181,-741.598 553,-889 554.381,-893.347 563.866,-918.275 571.268,-931.211"/>
<polygon fill="black" stroke="black" points="568.813,-933.723 578,-939 574.109,-929.145 568.813,-933.723"/>
<text text-anchor="middle" x="556.5" y="-910.8" font-family="Times,serif" font-size="14.00">1</text>
</g>
<!-- B11 -->
<g id="node21" class="node"><title>B11</title>
<path fill="none" stroke="black" d="M590,-781C590,-781 651,-781 651,-781 657,-781 663,-787 663,-793 663,-793 663,-815 663,-815 663,-821 657,-827 651,-827 651,-827 590,-827 590,-827 584,-827 578,-821 578,-815 578,-815 578,-793 578,-793 578,-787 584,-781 590,-781"/>
<text text-anchor="middle" x="620.5" y="-811.8" font-family="Times,serif" font-size="14.00">Blueprint 11</text>
<polyline fill="none" stroke="black" points="578,-804 663,-804 "/>
<text text-anchor="middle" x="620.5" y="-788.8" font-family="Times,serif" font-size="14.00">Coolant 5</text>
</g>
<!-- P8&#45;&gt;B11 -->
<g id="edge47" class="edge"><title>P8:a&#45;&gt;B11:a</title>
<path fill="none" stroke="black" d="M500.5,-545C500.5,-604.211 513.782,-793.646 568.147,-814.188"/>
<polygon fill="black" stroke="black" points="567.532,-817.634 578,-816 568.798,-810.749 567.532,-817.634"/>
<text text-anchor="middle" x="556.5" y="-811.8" font-family="Times,serif" font-size="14.00">1</text>
</g>
<!-- B12 -->
<g id="node22" class="node"><title>B12</title>
<path fill="none" stroke="black" d="M590,-122C590,-122 651,-122 651,-122 657,-122 663,-128 663,-134 663,-134 663,-156 663,-156 663,-162 657,-168 651,-168 651,-168 590,-168 590,-168 584,-168 578,-162 578,-156 578,-156 578,-134 578,-134 578,-128 584,-122 590,-122"/>
<text text-anchor="middle" x="620.5" y="-152.8" font-family="Times,serif" font-size="14.00">Blueprint 12</text>
<polyline fill="none" stroke="black" points="578,-145 663,-145 "/>
<text text-anchor="middle" x="620.5" y="-129.8" font-family="Times,serif" font-size="14.00">Coolant 5</text>
</g>
<!-- P8&#45;&gt;B12 -->
<g id="edge50" class="edge"><title>P8:a&#45;&gt;B12:a</title>
<path fill="none" stroke="black" d="M535,-532C575.605,-532 529.414,-200.053 553,-167 557.67,-160.455 561.948,-158.191 567.882,-157.409"/>
<polygon fill="black" stroke="black" points="568.15,-160.902 578,-157 567.867,-153.907 568.15,-160.902"/>
<text text-anchor="middle" x="556.5" y="-170.8" font-family="Times,serif" font-size="14.00">1</text>
</g>
<!-- B13 -->
<g id="node23" class="node"><title>B13</title>
<path fill="none" stroke="black" d="M590,-528C590,-528 651,-528 651,-528 657,-528 663,-534 663,-540 663,-540 663,-562 663,-562 663,-568 657,-574 651,-574 651,-574 590,-574 590,-574 584,-574 578,-568 578,-562 578,-562 578,-540 578,-540 578,-534 584,-528 590,-528"/>
<text text-anchor="middle" x="620.5" y="-558.8" font-family="Times,serif" font-size="14.00">Blueprint 13</text>
<polyline fill="none" stroke="black" points="578,-551 663,-551 "/>
<text text-anchor="middle" x="620.5" y="-535.8" font-family="Times,serif" font-size="14.00">Coolant 5</text>
</g>
<!-- P8&#45;&gt;B13 -->
<g id="edge53" class="edge"><title>P8:a&#45;&gt;B13:a</title>
<path fill="none" stroke="black" d="M535,-532C545.704,-532 544.373,-541.664 553,-548 560.016,-553.154 563.041,-558.153 568.2,-560.88"/>
<polygon fill="black" stroke="black" points="567.486,-564.306 578,-563 568.966,-557.464 567.486,-564.306"/>
<text text-anchor="middle" x="556.5" y="-557.8" font-family="Times,serif" font-size="14.00">1</text>
</g>
<!-- B0&#45;&gt;P2 -->
<g id="edge4" class="edge"><title>B0:a&#45;&gt;P2:a</title>
<path fill="none" stroke="black" d="M190,-532C205.17,-532 197.035,-513.483 208,-503 214.185,-497.088 217.595,-492.8 223.03,-490.623"/>
<polygon fill="black" stroke="black" points="223.692,-494.061 233,-489 222.568,-487.152 223.692,-494.061"/>
<text text-anchor="middle" x="211.5" y="-506.8" font-family="Times,serif" font-size="14.00">1</text>
</g>
<!-- B0&#45;&gt;P8 -->
<g id="edge5" class="edge"><title>B0:a&#45;&gt;P8:a</title>
<path fill="none" stroke="black" d="M190,-532C200.135,-532 198.443,-542.625 208,-546 254.945,-562.577 270.216,-547.556 320,-548 376.894,-548.508 394.338,-564.909 448,-546 453.078,-544.211 454.98,-540.371 457.168,-537.165"/>
<polygon fill="black" stroke="black" points="459.135,-540.069 466,-532 455.601,-534.027 459.135,-540.069"/>
<text text-anchor="middle" x="323.5" y="-552.8" font-family="Times,serif" font-size="14.00">1</text>
</g>
<!-- B1&#45;&gt;P2 -->
<g id="edge8" class="edge"><title>B1:a&#45;&gt;P2:a</title>
<path fill="none" stroke="black" d="M1051,-206C1029.71,-206 709.009,-86.4628 688,-83 588.579,-66.6135 547.49,-69.7334 466,-129 391.583,-183.123 382.71,-213.065 345,-297 337.126,-314.527 326.764,-449.56 309.527,-482.007"/>
<polygon fill="black" stroke="black" points="306.944,-479.629 302,-489 311.708,-484.758 306.944,-479.629"/>
<text text-anchor="middle" x="684.5" y="-86.8" font-family="Times,serif" font-size="14.00">1</text>
</g>
<!-- B1&#45;&gt;P5 -->
<g id="edge9" class="edge"><title>B1:a&#45;&gt;P5:a</title>
<path fill="none" stroke="black" d="M1129,-206C1164.22,-206 1139.22,-268.154 1162.21,-280.779"/>
<polygon fill="black" stroke="black" points="1161.47,-284.201 1172,-283 1163.02,-277.374 1161.47,-284.201"/>
<text text-anchor="middle" x="1150.5" y="-274.8" font-family="Times,serif" font-size="14.00">1</text>
</g>
<!-- B1&#45;&gt;P6 -->
<g id="edge10" class="edge"><title>B1:a&#45;&gt;P6:a</title>
<path fill="none" stroke="black" d="M1129,-206C1159.64,-206 1142.46,-87.5724 1163.02,-62.5916"/>
<polygon fill="black" stroke="black" points="1164.69,-65.6679 1172,-58 1161.5,-59.435 1164.69,-65.6679"/>
<text text-anchor="middle" x="1150.5" y="-174.8" font-family="Times,serif" font-size="14.00">1</text>
</g>
<!-- B1&#45;&gt;P8 -->
<g id="edge11" class="edge"><title>B1:a&#45;&gt;P8:a</title>
<path fill="none" stroke="black" d="M1090,-218C1090,-489.241 1055.95,-752 974.5,-752 619.5,-752 619.5,-752 619.5,-752 516.801,-752 501.427,-657.516 500.543,-555.24"/>
<polygon fill="black" stroke="black" points="504.042,-554.985 500.5,-545 497.042,-555.015 504.042,-554.985"/>
<text text-anchor="middle" x="796.5" y="-755.8" font-family="Times,serif" font-size="14.00">1</text>
</g>
<!-- B2&#45;&gt;P2 -->
<g id="edge15" class="edge"><title>B2:a&#45;&gt;P2:a</title>
<path fill="none" stroke="black" d="M818,-979C807.865,-979 808.769,-987.919 800,-993 775.684,-1007.09 769.603,-1017 741.5,-1017 383,-1017 383,-1017 383,-1017 326.991,-1017 272.612,-600.723 267.839,-512.233"/>
<polygon fill="black" stroke="black" points="271.329,-511.879 267.5,-502 264.333,-512.11 271.329,-511.879"/>
<text text-anchor="middle" x="556.5" y="-1020.8" font-family="Times,serif" font-size="14.00">1</text>
</g>
<!-- B2&#45;&gt;P8 -->
<g id="edge16" class="edge"><title>B2:a&#45;&gt;P8:a</title>
<path fill="none" stroke="black" d="M818,-979C466.38,-979 566.481,-968.016 553,-953 524.194,-920.916 503.016,-626.951 500.709,-555.381"/>
<polygon fill="black" stroke="black" points="504.201,-554.928 500.5,-545 497.202,-555.068 504.201,-554.928"/>
<text text-anchor="middle" x="684.5" y="-982.8" font-family="Times,serif" font-size="14.00">1</text>
</g>
<!-- B3&#45;&gt;P3 -->
<g id="edge19" class="edge"><title>B3:a&#45;&gt;P3:a</title>
<path fill="none" stroke="black" d="M423,-468C446.419,-468 431.533,-279.42 441,-258 476.971,-176.611 495.79,-146.052 578,-112 673.705,-72.3579 722.043,-114.783 800,-183 874.778,-248.435 890.499,-276.431 921,-371 927.188,-390.186 918.739,-452.459 930.299,-471.45"/>
<polygon fill="black" stroke="black" points="928.687,-474.573 939,-477 932.451,-468.672 928.687,-474.573"/>
<text text-anchor="middle" x="684.5" y="-108.8" font-family="Times,serif" font-size="14.00">1</text>
</g>
<!-- B3&#45;&gt;P8 -->
<g id="edge20" class="edge"><title>B3:a&#45;&gt;P8:a</title>
<path fill="none" stroke="black" d="M423,-468C442.116,-468 437.398,-487.093 448,-503 453.784,-511.678 452.953,-522.131 456.798,-527.816"/>
<polygon fill="black" stroke="black" points="455.448,-531.048 466,-532 458.345,-524.675 455.448,-531.048"/>
<text text-anchor="middle" x="444.5" y="-506.8" font-family="Times,serif" font-size="14.00">1</text>
</g>
<!-- B4&#45;&gt;P3 -->
<g id="edge23" class="edge"><title>B4:a&#45;&gt;P3:a</title>
<path fill="none" stroke="black" d="M660.5,-703C741.347,-703 955.841,-584.004 972.475,-500.054"/>
<polygon fill="black" stroke="black" points="975.967,-500.304 973.5,-490 969.003,-499.593 975.967,-500.304"/>
<text text-anchor="middle" x="796.5" y="-663.8" font-family="Times,serif" font-size="14.00">1</text>
</g>
<!-- B4&#45;&gt;P8 -->
<g id="edge24" class="edge"><title>B4:a&#45;&gt;P8:a</title>
<path fill="none" stroke="black" d="M580.5,-703C571.891,-703 517.098,-589.564 503.534,-554.614"/>
<polygon fill="black" stroke="black" points="506.847,-553.483 500.5,-545 500.172,-555.59 506.847,-553.483"/>
<text text-anchor="middle" x="556.5" y="-674.8" font-family="Times,serif" font-size="14.00">1</text>
</g>
<!-- B5&#45;&gt;P3 -->
<g id="edge28" class="edge"><title>B5:a&#45;&gt;P3:a</title>
<path fill="none" stroke="black" d="M896,-365C945.363,-365 894.482,-460.992 928.965,-475.241"/>
<polygon fill="black" stroke="black" points="928.546,-478.721 939,-477 929.755,-471.826 928.546,-478.721"/>
<text text-anchor="middle" x="917.5" y="-471.8" font-family="Times,serif" font-size="14.00">1</text>
</g>
<!-- B5&#45;&gt;P6 -->
<g id="edge29" class="edge"><title>B5:a&#45;&gt;P6:a</title>
<path fill="none" stroke="black" d="M896,-365C1040.5,-365 907.604,-149.838 1026,-67 1076.36,-31.7681 1103.88,-55.104 1161.66,-57.7617"/>
<polygon fill="black" stroke="black" points="1161.92,-61.2686 1172,-58 1162.08,-54.2705 1161.92,-61.2686"/>
<text text-anchor="middle" x="1029.5" y="-70.8" font-family="Times,serif" font-size="14.00">1</text>
</g>
<!-- B5&#45;&gt;P7 -->
<g id="edge30" class="edge"><title>B5:a&#45;&gt;P7:a</title>
<path fill="none" stroke="black" d="M857,-377C857,-407.022 898.07,-619.445 930.212,-655.733"/>
<polygon fill="black" stroke="black" points="928.623,-658.861 939,-661 932.222,-652.857 928.623,-658.861"/>
<text text-anchor="middle" x="917.5" y="-643.8" font-family="Times,serif" font-size="14.00">1</text>
</g>
<!-- B5&#45;&gt;P8 -->
<g id="edge31" class="edge"><title>B5:a&#45;&gt;P8:a</title>
<path fill="none" stroke="black" d="M818,-365C782.617,-365 802.35,-320.448 775,-298 705.654,-241.083 656.714,-210.96 578,-254 559.935,-263.878 559.527,-273.473 553,-293 545.48,-315.494 558.201,-487.499 542.26,-524.855"/>
<polygon fill="black" stroke="black" points="539.673,-522.491 535,-532 544.583,-527.481 539.673,-522.491"/>
<text text-anchor="middle" x="684.5" y="-244.8" font-family="Times,serif" font-size="14.00">1</text>
</g>
<!-- B6&#45;&gt;P0 -->
<g id="edge33" class="edge"><title>B6:a&#45;&gt;P0:a</title>
<path fill="none" stroke="black" d="M580.5,-431C553.666,-431 578.901,-331.048 560,-312 406.496,-157.302 293.955,-225.77 79.2995,-227.948"/>
<polygon fill="black" stroke="black" points="78.982,-224.449 69,-228 79.0177,-231.449 78.982,-224.449"/>
<text text-anchor="middle" x="323.5" y="-215.8" font-family="Times,serif" font-size="14.00">1</text>
</g>
<!-- B6&#45;&gt;P8 -->
<g id="edge34" class="edge"><title>B6:a&#45;&gt;P8:a</title>
<path fill="none" stroke="black" d="M580.5,-431C559.291,-431 562.194,-450.887 553,-470 542.505,-491.817 557.333,-520.957 544.988,-529.53"/>
<polygon fill="black" stroke="black" points="543.867,-526.201 535,-532 545.548,-532.997 543.867,-526.201"/>
<text text-anchor="middle" x="556.5" y="-473.8" font-family="Times,serif" font-size="14.00">1</text>
</g>
<!-- B7&#45;&gt;P1 -->
<g id="edge36" class="edge"><title>B7:a&#45;&gt;P1:a</title>
<path fill="none" stroke="black" d="M660.5,-365C676.773,-365 683.224,-365 695.661,-365"/>
<polygon fill="black" stroke="black" points="696,-368.5 706,-365 696,-361.5 696,-368.5"/>
<text text-anchor="middle" x="684.5" y="-368.8" font-family="Times,serif" font-size="14.00">1</text>
</g>
<!-- B7&#45;&gt;P8 -->
<g id="edge37" class="edge"><title>B7:a&#45;&gt;P8:a</title>
<path fill="none" stroke="black" d="M580.5,-365C571.378,-365 569.119,-364.222 560,-364 556.89,-363.924 555.314,-361.921 553,-364 528.017,-386.449 563.371,-503.167 544.231,-527.537"/>
<polygon fill="black" stroke="black" points="542.48,-524.496 535,-532 545.526,-530.798 542.48,-524.496"/>
<text text-anchor="middle" x="556.5" y="-367.8" font-family="Times,serif" font-size="14.00">1</text>
</g>
<!-- B8&#45;&gt;P2 -->
<g id="edge39" class="edge"><title>B8:a&#45;&gt;P2:a</title>
<path fill="none" stroke="black" d="M580.5,-299C544.505,-299 566.808,-248.849 535,-232 507.9,-217.646 492.892,-217.26 466,-232 464.343,-232.908 336.673,-436.946 307.757,-480.772"/>
<polygon fill="black" stroke="black" points="304.865,-478.8 302,-489 310.601,-482.813 304.865,-478.8"/>
<text text-anchor="middle" x="444.5" y="-273.8" font-family="Times,serif" font-size="14.00">1</text>
</g>
<!-- B8&#45;&gt;P8 -->
<g id="edge40" class="edge"><title>B8:a&#45;&gt;P8:a</title>
<path fill="none" stroke="black" d="M580.5,-299C571.346,-299 569.144,-297.445 560,-297 556.893,-296.849 555.282,-294.886 553,-297 535.927,-312.815 555.665,-486.11 541.892,-524.499"/>
<polygon fill="black" stroke="black" points="539.188,-522.268 535,-532 544.343,-527.004 539.188,-522.268"/>
<text text-anchor="middle" x="556.5" y="-300.8" font-family="Times,serif" font-size="14.00">1</text>
</g>
<!-- B9&#45;&gt;P3 -->
<g id="edge42" class="edge"><title>B9:a&#45;&gt;P3:a</title>
<path fill="none" stroke="black" d="M660.5,-628C672.058,-628 670.946,-617.701 681,-612 730.326,-584.033 749.425,-591.639 800,-566 803.498,-564.227 899.38,-500.355 929.893,-481.929"/>
<polygon fill="black" stroke="black" points="931.871,-484.838 939,-477 928.539,-478.682 931.871,-484.838"/>
<text text-anchor="middle" x="796.5" y="-573.8" font-family="Times,serif" font-size="14.00">1</text>
</g>
<!-- B9&#45;&gt;P8 -->
<g id="edge43" class="edge"><title>B9:a&#45;&gt;P8:a</title>
<path fill="none" stroke="black" d="M580.5,-628C568.077,-628 561.852,-631.716 553,-623 526.607,-597.011 566.388,-544.267 544.842,-533.821"/>
<polygon fill="black" stroke="black" points="545.47,-530.378 535,-532 544.196,-537.261 545.47,-530.378"/>
<text text-anchor="middle" x="556.5" y="-631.8" font-family="Times,serif" font-size="14.00">1</text>
</g>
<!-- B10&#45;&gt;P4 -->
<g id="edge45" class="edge"><title>B10:a&#45;&gt;P4:a</title>
<path fill="none" stroke="black" d="M663,-939C678.229,-939 684.357,-939 695.888,-939"/>
<polygon fill="black" stroke="black" points="696,-942.5 706,-939 696,-935.5 696,-942.5"/>
<text text-anchor="middle" x="684.5" y="-942.8" font-family="Times,serif" font-size="14.00">1</text>
</g>
<!-- B10&#45;&gt;P8 -->
<g id="edge46" class="edge"><title>B10:a&#45;&gt;P8:a</title>
<path fill="none" stroke="black" d="M578,-939C565.476,-939 560.216,-936.235 553,-926 505.579,-858.741 500.805,-647.002 500.516,-555.079"/>
<polygon fill="black" stroke="black" points="504.016,-554.995 500.5,-545 497.016,-555.005 504.016,-554.995"/>
<text text-anchor="middle" x="556.5" y="-937.8" font-family="Times,serif" font-size="14.00">1</text>
</g>
<!-- B11&#45;&gt;P5 -->
<g id="edge48" class="edge"><title>B11:a&#45;&gt;P5:a</title>
<path fill="none" stroke="black" d="M663,-816C697.003,-816 705.497,-815 739.5,-815 739.5,-815 739.5,-815 1091,-815 1147.48,-815 1201.54,-394.612 1206.18,-306.038"/>
<polygon fill="black" stroke="black" points="1209.68,-306.107 1206.5,-296 1202.68,-305.882 1209.68,-306.107"/>
<text text-anchor="middle" x="917.5" y="-818.8" font-family="Times,serif" font-size="14.00">1</text>
</g>
<!-- B11&#45;&gt;P8 -->
<g id="edge49" class="edge"><title>B11:a&#45;&gt;P8:a</title>
<path fill="none" stroke="black" d="M578,-816C571.489,-816 555.162,-769.142 553,-763 521.066,-672.302 501.881,-646.456 500.572,-555.238"/>
<polygon fill="black" stroke="black" points="504.07,-554.975 500.5,-545 497.07,-555.024 504.07,-554.975"/>
<text text-anchor="middle" x="556.5" y="-785.8" font-family="Times,serif" font-size="14.00">1</text>
</g>
<!-- B12&#45;&gt;P6 -->
<g id="edge51" class="edge"><title>B12:a&#45;&gt;P6:a</title>
<path fill="none" stroke="black" d="M663,-157C692.31,-157 680.573,-121.578 706,-107 841.222,-29.4745 895.766,-58.0573 1051,-44 1085.53,-40.8735 1094.76,-38.5667 1129,-44 1136.37,-45.169 1150.95,-52.3145 1162.09,-55.9213"/>
<polygon fill="black" stroke="black" points="1161.49,-59.3731 1172,-58 1162.93,-52.5221 1161.49,-59.3731"/>
<text text-anchor="middle" x="917.5" y="-53.8" font-family="Times,serif" font-size="14.00">1</text>
</g>
<!-- B12&#45;&gt;P8 -->
<g id="edge52" class="edge"><title>B12:a&#45;&gt;P8:a</title>
<path fill="none" stroke="black" d="M578,-157C567.586,-157 569.792,-145.545 560,-142 557.075,-140.941 555.25,-139.851 553,-142 524.017,-169.676 570.245,-479.065 543.253,-526.038"/>
<polygon fill="black" stroke="black" points="541.057,-523.307 535,-532 545.156,-528.981 541.057,-523.307"/>
<text text-anchor="middle" x="556.5" y="-145.8" font-family="Times,serif" font-size="14.00">1</text>
</g>
<!-- B13&#45;&gt;P7 -->
<g id="edge54" class="edge"><title>B13:a&#45;&gt;P7:a</title>
<path fill="none" stroke="black" d="M663,-563C724.122,-563 743.22,-528.375 800,-551 864.836,-576.835 850.247,-630.598 914,-659 920.364,-661.835 924.184,-661.908 928.876,-661.563"/>
<polygon fill="black" stroke="black" points="929.21,-665.05 939,-661 928.821,-658.061 929.21,-665.05"/>
<text text-anchor="middle" x="796.5" y="-554.8" font-family="Times,serif" font-size="14.00">1</text>
</g>
<!-- B13&#45;&gt;P8 -->
<g id="edge55" class="edge"><title>B13:a&#45;&gt;P8:a</title>
<path fill="none" stroke="black" d="M578,-563C560.902,-563 574.648,-537.819 560,-529 553.858,-525.302 549.918,-527.573 544.937,-529.683"/>
<polygon fill="black" stroke="black" points="543.944,-526.321 535,-532 545.534,-533.138 543.944,-526.321"/>
<text text-anchor="middle" x="556.5" y="-532.8" font-family="Times,serif" font-size="14.00">1</text>
</g>
</g>
</svg>
