<?xml version="1.0" encoding="UTF-8" standalone="no"?>
<!DOCTYPE svg PUBLIC "-//W3C//DTD SVG 1.1//EN"
 "http://www.w3.org/Graphics/SVG/1.1/DTD/svg11.dtd">
<!-- Generated by graphviz version 2.38.0 (20140413.2041)
 -->
<!-- Title: g Pages: 1 -->
<svg width="335pt" height="518pt"
 viewBox="0.00 0.00 335.00 518.00" xmlns="http://www.w3.org/2000/svg" xmlns:xlink="http://www.w3.org/1999/xlink">
<g id="graph0" class="graph" transform="scale(1 1) rotate(0) translate(4 514)">
<title>g</title>
<polygon fill="white" stroke="none" points="-4,4 -4,-514 331,-514 331,4 -4,4"/>
<!-- P0 -->
<g id="node1" class="node"><title>P0</title>
<polygon fill="none" stroke="black" points="121,-88.5 121,-157.5 194,-157.5 194,-88.5 121,-88.5"/>
<text text-anchor="middle" x="157.5" y="-142.3" font-family="Times,serif" font-size="14.00">Product 0</text>
<polyline fill="none" stroke="black" points="121,-134.5 194,-134.5 "/>
<text text-anchor="middle" x="157.5" y="-119.3" font-family="Times,serif" font-size="14.00">Value 100</text>
<polyline fill="none" stroke="black" points="121,-111.5 194,-111.5 "/>
<text text-anchor="middle" x="157.5" y="-96.3" font-family="Times,serif" font-size="14.00">Initial 0</text>
</g>
<!-- P1 -->
<g id="node2" class="node"><title>P1</title>
<polygon fill="none" stroke="black" points="123,-0.5 123,-69.5 192,-69.5 192,-0.5 123,-0.5"/>
<text text-anchor="middle" x="157.5" y="-54.3" font-family="Times,serif" font-size="14.00">Product 1</text>
<polyline fill="none" stroke="black" points="123,-46.5 192,-46.5 "/>
<text text-anchor="middle" x="157.5" y="-31.3" font-family="Times,serif" font-size="14.00">Value &#45;1</text>
<polyline fill="none" stroke="black" points="123,-23.5 192,-23.5 "/>
<text text-anchor="middle" x="157.5" y="-8.3" font-family="Times,serif" font-size="14.00">Initial 0</text>
</g>
<!-- B4 -->
<g id="node11" class="node"><title>B4</title>
<path fill="none" stroke="black" d="M256,-23C256,-23 315,-23 315,-23 321,-23 327,-29 327,-35 327,-35 327,-57 327,-57 327,-63 321,-69 315,-69 315,-69 256,-69 256,-69 250,-69 244,-63 244,-57 244,-57 244,-35 244,-35 244,-29 250,-23 256,-23"/>
<text text-anchor="middle" x="285.5" y="-53.8" font-family="Times,serif" font-size="14.00">Blueprint 4</text>
<polyline fill="none" stroke="black" points="244,-46 327,-46 "/>
<text text-anchor="middle" x="285.5" y="-30.8" font-family="Times,serif" font-size="14.00">Coolant 300</text>
</g>
<!-- P1&#45;&gt;B4 -->
<g id="edge8" class="edge"><title>P1:a&#45;&gt;B4:a</title>
<path fill="none" stroke="black" d="M193.5,-58C212.087,-58 219.129,-58 233.748,-58"/>
<polygon fill="black" stroke="black" points="234,-61.5001 244,-58 234,-54.5001 234,-61.5001"/>
<text text-anchor="middle" x="219" y="-61.8" font-family="Times,serif" font-size="14.00">10</text>
</g>
<!-- P2 -->
<g id="node3" class="node"><title>P2</title>
<polygon fill="none" stroke="black" points="121,-264.5 121,-333.5 194,-333.5 194,-264.5 121,-264.5"/>
<text text-anchor="middle" x="157.5" y="-318.3" font-family="Times,serif" font-size="14.00">Product 2</text>
<polyline fill="none" stroke="black" points="121,-310.5 194,-310.5 "/>
<text text-anchor="middle" x="157.5" y="-295.3" font-family="Times,serif" font-size="14.00">Value 200</text>
<polyline fill="none" stroke="black" points="121,-287.5 194,-287.5 "/>
<text text-anchor="middle" x="157.5" y="-272.3" font-family="Times,serif" font-size="14.00">Initial 0</text>
</g>
<!-- P3 -->
<g id="node4" class="node"><title>P3</title>
<polygon fill="none" stroke="black" points="123,-176.5 123,-245.5 192,-245.5 192,-176.5 123,-176.5"/>
<text text-anchor="middle" x="157.5" y="-230.3" font-family="Times,serif" font-size="14.00">Product 3</text>
<polyline fill="none" stroke="black" points="123,-222.5 192,-222.5 "/>
<text text-anchor="middle" x="157.5" y="-207.3" font-family="Times,serif" font-size="14.00">Value &#45;2</text>
<polyline fill="none" stroke="black" points="123,-199.5 192,-199.5 "/>
<text text-anchor="middle" x="157.5" y="-184.3" font-family="Times,serif" font-size="14.00">Initial 0</text>
</g>
<!-- B5 -->
<g id="node12" class="node"><title>B5</title>
<path fill="none" stroke="black" d="M256,-199C256,-199 315,-199 315,-199 321,-199 327,-205 327,-211 327,-211 327,-233 327,-233 327,-239 321,-245 315,-245 315,-245 256,-245 256,-245 250,-245 244,-239 244,-233 244,-233 244,-211 244,-211 244,-205 250,-199 256,-199"/>
<text text-anchor="middle" x="285.5" y="-229.8" font-family="Times,serif" font-size="14.00">Blueprint 5</text>
<polyline fill="none" stroke="black" points="244,-222 327,-222 "/>
<text text-anchor="middle" x="285.5" y="-206.8" font-family="Times,serif" font-size="14.00">Coolant 300</text>
</g>
<!-- P3&#45;&gt;B5 -->
<g id="edge9" class="edge"><title>P3:a&#45;&gt;B5:a</title>
<path fill="none" stroke="black" d="M193.5,-234C212.087,-234 219.129,-234 233.748,-234"/>
<polygon fill="black" stroke="black" points="234,-237.5 244,-234 234,-230.5 234,-237.5"/>
<text text-anchor="middle" x="219" y="-237.8" font-family="Times,serif" font-size="14.00">10</text>
</g>
<!-- P4 -->
<g id="node5" class="node"><title>P4</title>
<polygon fill="none" stroke="black" points="121,-440.5 121,-509.5 194,-509.5 194,-440.5 121,-440.5"/>
<text text-anchor="middle" x="157.5" y="-494.3" font-family="Times,serif" font-size="14.00">Product 4</text>
<polyline fill="none" stroke="black" points="121,-486.5 194,-486.5 "/>
<text text-anchor="middle" x="157.5" y="-471.3" font-family="Times,serif" font-size="14.00">Value 300</text>
<polyline fill="none" stroke="black" points="121,-463.5 194,-463.5 "/>
<text text-anchor="middle" x="157.5" y="-448.3" font-family="Times,serif" font-size="14.00">Initial 0</text>
</g>
<!-- P5 -->
<g id="node6" class="node"><title>P5</title>
<polygon fill="none" stroke="black" points="123,-352.5 123,-421.5 192,-421.5 192,-352.5 123,-352.5"/>
<text text-anchor="middle" x="157.5" y="-406.3" font-family="Times,serif" font-size="14.00">Product 5</text>
<polyline fill="none" stroke="black" points="123,-398.5 192,-398.5 "/>
<text text-anchor="middle" x="157.5" y="-383.3" font-family="Times,serif" font-size="14.00">Value &#45;3</text>
<polyline fill="none" stroke="black" points="123,-375.5 192,-375.5 "/>
<text text-anchor="middle" x="157.5" y="-360.3" font-family="Times,serif" font-size="14.00">Initial 0</text>
</g>
<!-- B3 -->
<g id="node10" class="node"><title>B3</title>
<path fill="none" stroke="black" d="M256,-375C256,-375 315,-375 315,-375 321,-375 327,-381 327,-387 327,-387 327,-409 327,-409 327,-415 321,-421 315,-421 315,-421 256,-421 256,-421 250,-421 244,-415 244,-409 244,-409 244,-387 244,-387 244,-381 250,-375 256,-375"/>
<text text-anchor="middle" x="285.5" y="-405.8" font-family="Times,serif" font-size="14.00">Blueprint 3</text>
<polyline fill="none" stroke="black" points="244,-398 327,-398 "/>
<text text-anchor="middle" x="285.5" y="-382.8" font-family="Times,serif" font-size="14.00">Coolant 300</text>
</g>
<!-- P5&#45;&gt;B3 -->
<g id="edge7" class="edge"><title>P5:a&#45;&gt;B3:a</title>
<path fill="none" stroke="black" d="M193.5,-410C212.087,-410 219.129,-410 233.748,-410"/>
<polygon fill="black" stroke="black" points="234,-413.5 244,-410 234,-406.5 234,-413.5"/>
<text text-anchor="middle" x="219" y="-413.8" font-family="Times,serif" font-size="14.00">10</text>
</g>
<!-- B0 -->
<g id="node7" class="node"><title>B0</title>
<path fill="none" stroke="black" d="M12,-80C12,-80 66,-80 66,-80 72,-80 78,-86 78,-92 78,-92 78,-114 78,-114 78,-120 72,-126 66,-126 66,-126 12,-126 12,-126 6,-126 0,-120 0,-114 0,-114 0,-92 0,-92 0,-86 6,-80 12,-80"/>
<text text-anchor="middle" x="39" y="-110.8" font-family="Times,serif" font-size="14.00">Blueprint 0</text>
<polyline fill="none" stroke="black" points="0,-103 78,-103 "/>
<text text-anchor="middle" x="39" y="-87.8" font-family="Times,serif" font-size="14.00">Coolant 10</text>
</g>
<!-- B0&#45;&gt;P0 -->
<g id="edge1" class="edge"><title>B0:a&#45;&gt;P0:a</title>
<path fill="none" stroke="black" d="M78,-115C97.5104,-115 98.0387,-136.26 111.024,-143.567"/>
<polygon fill="black" stroke="black" points="110.455,-147.031 121,-146 112.114,-140.231 110.455,-147.031"/>
<text text-anchor="middle" x="99.5" y="-139.8" font-family="Times,serif" font-size="14.00">1</text>
</g>
<!-- B0&#45;&gt;P1 -->
<g id="edge2" class="edge"><title>B0:a&#45;&gt;P1:a</title>
<path fill="none" stroke="black" d="M78,-115C105.884,-115 93.877,-71.3594 111.788,-60.4492"/>
<polygon fill="black" stroke="black" points="112.66,-63.8392 121.5,-58 110.948,-57.0517 112.66,-63.8392"/>
<text text-anchor="middle" x="99.5" y="-105.8" font-family="Times,serif" font-size="14.00">1</text>
</g>
<!-- B1 -->
<g id="node8" class="node"><title>B1</title>
<path fill="none" stroke="black" d="M12,-255C12,-255 66,-255 66,-255 72,-255 78,-261 78,-267 78,-267 78,-289 78,-289 78,-295 72,-301 66,-301 66,-301 12,-301 12,-301 6,-301 0,-295 0,-289 0,-289 0,-267 0,-267 0,-261 6,-255 12,-255"/>
<text text-anchor="middle" x="39" y="-285.8" font-family="Times,serif" font-size="14.00">Blueprint 1</text>
<polyline fill="none" stroke="black" points="0,-278 78,-278 "/>
<text text-anchor="middle" x="39" y="-262.8" font-family="Times,serif" font-size="14.00">Coolant 20</text>
</g>
<!-- B1&#45;&gt;P2 -->
<g id="edge3" class="edge"><title>B1:a&#45;&gt;P2:a</title>
<path fill="none" stroke="black" d="M78,-290C97.7279,-290 97.9333,-311.945 110.95,-319.489"/>
<polygon fill="black" stroke="black" points="110.45,-322.971 121,-322 112.147,-316.18 110.45,-322.971"/>
<text text-anchor="middle" x="99.5" y="-314.8" font-family="Times,serif" font-size="14.00">1</text>
</g>
<!-- B1&#45;&gt;P3 -->
<g id="edge4" class="edge"><title>B1:a&#45;&gt;P3:a</title>
<path fill="none" stroke="black" d="M78,-290C105.33,-290 94.2719,-247.887 111.405,-236.701"/>
<polygon fill="black" stroke="black" points="112.744,-239.966 121.5,-234 110.935,-233.204 112.744,-239.966"/>
<text text-anchor="middle" x="99.5" y="-278.8" font-family="Times,serif" font-size="14.00">1</text>
</g>
<!-- B2 -->
<g id="node9" class="node"><title>B2</title>
<path fill="none" stroke="black" d="M12,-431C12,-431 66,-431 66,-431 72,-431 78,-437 78,-443 78,-443 78,-465 78,-465 78,-471 72,-477 66,-477 66,-477 12,-477 12,-477 6,-477 0,-471 0,-465 0,-465 0,-443 0,-443 0,-437 6,-431 12,-431"/>
<text text-anchor="middle" x="39" y="-461.8" font-family="Times,serif" font-size="14.00">Blueprint 2</text>
<polyline fill="none" stroke="black" points="0,-454 78,-454 "/>
<text text-anchor="middle" x="39" y="-438.8" font-family="Times,serif" font-size="14.00">Coolant 30</text>
</g>
<!-- B2&#45;&gt;P4 -->
<g id="edge5" class="edge"><title>B2:a&#45;&gt;P4:a</title>
<path fill="none" stroke="black" d="M78,-466C97.7279,-466 97.9333,-487.945 110.95,-495.489"/>
<polygon fill="black" stroke="black" points="110.45,-498.971 121,-498 112.147,-492.18 110.45,-498.971"/>
<text text-anchor="middle" x="99.5" y="-490.8" font-family="Times,serif" font-size="14.00">1</text>
</g>
<!-- B2&#45;&gt;P5 -->
<g id="edge6" class="edge"><title>B2:a&#45;&gt;P5:a</title>
<path fill="none" stroke="black" d="M78,-466C105.33,-466 94.2719,-423.887 111.405,-412.701"/>
<polygon fill="black" stroke="black" points="112.744,-415.966 121.5,-410 110.935,-409.204 112.744,-415.966"/>
<text text-anchor="middle" x="99.5" y="-454.8" font-family="Times,serif" font-size="14.00">1</text>
</g>
</g>
</svg>
