<?xml version="1.0" encoding="UTF-8" standalone="no"?>
<!DOCTYPE svg PUBLIC "-//W3C//DTD SVG 1.1//EN"
 "http://www.w3.org/Graphics/SVG/1.1/DTD/svg11.dtd">
<!-- Generated by graphviz version 2.38.0 (20140413.2041)
 -->
<!-- Title: g Pages: 1 -->
<svg width="439pt" height="518pt"
 viewBox="0.00 0.00 439.00 518.00" xmlns="http://www.w3.org/2000/svg" xmlns:xlink="http://www.w3.org/1999/xlink">
<g id="graph0" class="graph" transform="scale(1 1) rotate(0) translate(4 514)">
<title>g</title>
<polygon fill="white" stroke="none" points="-4,4 -4,-514 435,-514 435,4 -4,4"/>
<!-- P0 -->
<g id="node1" class="node"><title>P0</title>
<polygon fill="none" stroke="black" points="121,-440.5 121,-509.5 194,-509.5 194,-440.5 121,-440.5"/>
<text text-anchor="middle" x="157.5" y="-494.3" font-family="Times,serif" font-size="14.00">Product 0</text>
<polyline fill="none" stroke="black" points="121,-486.5 194,-486.5 "/>
<text text-anchor="middle" x="157.5" y="-471.3" font-family="Times,serif" font-size="14.00">Value 100</text>
<polyline fill="none" stroke="black" points="121,-463.5 194,-463.5 "/>
<text text-anchor="middle" x="157.5" y="-448.3" font-family="Times,serif" font-size="14.00">Initial 0</text>
</g>
<!-- P1 -->
<g id="node2" class="node"><title>P1</title>
<polygon fill="none" stroke="black" points="123,-352.5 123,-421.5 192,-421.5 192,-352.5 123,-352.5"/>
<text text-anchor="middle" x="157.5" y="-406.3" font-family="Times,serif" font-size="14.00">Product 1</text>
<polyline fill="none" stroke="black" points="123,-398.5 192,-398.5 "/>
<text text-anchor="middle" x="157.5" y="-383.3" font-family="Times,serif" font-size="14.00">Value &#45;1</text>
<polyline fill="none" stroke="black" points="123,-375.5 192,-375.5 "/>
<text text-anchor="middle" x="157.5" y="-360.3" font-family="Times,serif" font-size="14.00">Initial 0</text>
</g>
<!-- B3 -->
<g id="node11" class="node"><title>B3</title>
<path fill="none" stroke="black" d="M249,-292C249,-292 303,-292 303,-292 309,-292 315,-298 315,-304 315,-304 315,-326 315,-326 315,-332 309,-338 303,-338 303,-338 249,-338 249,-338 243,-338 237,-332 237,-326 237,-326 237,-304 237,-304 237,-298 243,-292 249,-292"/>
<text text-anchor="middle" x="276" y="-322.8" font-family="Times,serif" font-size="14.00">Blueprint 3</text>
<polyline fill="none" stroke="black" points="237,-315 315,-315 "/>
<text text-anchor="middle" x="276" y="-299.8" font-family="Times,serif" font-size="14.00">Coolant 20</text>
</g>
<!-- P1&#45;&gt;B3 -->
<g id="edge7" class="edge"><title>P1:a&#45;&gt;B3:a</title>
<path fill="none" stroke="black" d="M193.5,-410C231.081,-410 202.348,-342.419 226.977,-329.22"/>
<polygon fill="black" stroke="black" points="227.994,-332.58 237,-327 226.48,-325.745 227.994,-332.58"/>
<text text-anchor="middle" x="215.5" y="-399.8" font-family="Times,serif" font-size="14.00">1</text>
</g>
<!-- P2 -->
<g id="node3" class="node"><title>P2</title>
<polygon fill="none" stroke="black" points="121,-264.5 121,-333.5 194,-333.5 194,-264.5 121,-264.5"/>
<text text-anchor="middle" x="157.5" y="-318.3" font-family="Times,serif" font-size="14.00">Product 2</text>
<polyline fill="none" stroke="black" points="121,-310.5 194,-310.5 "/>
<text text-anchor="middle" x="157.5" y="-295.3" font-family="Times,serif" font-size="14.00">Value 200</text>
<polyline fill="none" stroke="black" points="121,-287.5 194,-287.5 "/>
<text text-anchor="middle" x="157.5" y="-272.3" font-family="Times,serif" font-size="14.00">Initial 0</text>
</g>
<!-- P3 -->
<g id="node4" class="node"><title>P3</title>
<polygon fill="none" stroke="black" points="123,-176.5 123,-245.5 192,-245.5 192,-176.5 123,-176.5"/>
<text text-anchor="middle" x="157.5" y="-230.3" font-family="Times,serif" font-size="14.00">Product 3</text>
<polyline fill="none" stroke="black" points="123,-222.5 192,-222.5 "/>
<text text-anchor="middle" x="157.5" y="-207.3" font-family="Times,serif" font-size="14.00">Value &#45;2</text>
<polyline fill="none" stroke="black" points="123,-199.5 192,-199.5 "/>
<text text-anchor="middle" x="157.5" y="-184.3" font-family="Times,serif" font-size="14.00">Initial 0</text>
</g>
<!-- B4 -->
<g id="node12" class="node"><title>B4</title>
<path fill="none" stroke="black" d="M249,-199C249,-199 303,-199 303,-199 309,-199 315,-205 315,-211 315,-211 315,-233 315,-233 315,-239 309,-245 303,-245 303,-245 249,-245 249,-245 243,-245 237,-239 237,-233 237,-233 237,-211 237,-211 237,-205 243,-199 249,-199"/>
<text text-anchor="middle" x="276" y="-229.8" font-family="Times,serif" font-size="14.00">Blueprint 4</text>
<polyline fill="none" stroke="black" points="237,-222 315,-222 "/>
<text text-anchor="middle" x="276" y="-206.8" font-family="Times,serif" font-size="14.00">Coolant 20</text>
</g>
<!-- P3&#45;&gt;B4 -->
<g id="edge9" class="edge"><title>P3:a&#45;&gt;B4:a</title>
<path fill="none" stroke="black" d="M193.5,-234C208.906,-234 215.105,-234 226.771,-234"/>
<polygon fill="black" stroke="black" points="227,-237.5 237,-234 227,-230.5 227,-237.5"/>
<text text-anchor="middle" x="215.5" y="-237.8" font-family="Times,serif" font-size="14.00">1</text>
</g>
<!-- P4 -->
<g id="node5" class="node"><title>P4</title>
<polygon fill="none" stroke="black" points="121,-88.5 121,-157.5 194,-157.5 194,-88.5 121,-88.5"/>
<text text-anchor="middle" x="157.5" y="-142.3" font-family="Times,serif" font-size="14.00">Product 4</text>
<polyline fill="none" stroke="black" points="121,-134.5 194,-134.5 "/>
<text text-anchor="middle" x="157.5" y="-119.3" font-family="Times,serif" font-size="14.00">Value 300</text>
<polyline fill="none" stroke="black" points="121,-111.5 194,-111.5 "/>
<text text-anchor="middle" x="157.5" y="-96.3" font-family="Times,serif" font-size="14.00">Initial 0</text>
</g>
<!-- P5 -->
<g id="node6" class="node"><title>P5</title>
<polygon fill="none" stroke="black" points="123,-0.5 123,-69.5 192,-69.5 192,-0.5 123,-0.5"/>
<text text-anchor="middle" x="157.5" y="-54.3" font-family="Times,serif" font-size="14.00">Product 5</text>
<polyline fill="none" stroke="black" points="123,-46.5 192,-46.5 "/>
<text text-anchor="middle" x="157.5" y="-31.3" font-family="Times,serif" font-size="14.00">Value &#45;3</text>
<polyline fill="none" stroke="black" points="123,-23.5 192,-23.5 "/>
<text text-anchor="middle" x="157.5" y="-8.3" font-family="Times,serif" font-size="14.00">Initial 0</text>
</g>
<!-- B5 -->
<g id="node13" class="node"><title>B5</title>
<path fill="none" stroke="black" d="M249,-106C249,-106 303,-106 303,-106 309,-106 315,-112 315,-118 315,-118 315,-140 315,-140 315,-146 309,-152 303,-152 303,-152 249,-152 249,-152 243,-152 237,-146 237,-140 237,-140 237,-118 237,-118 237,-112 243,-106 249,-106"/>
<text text-anchor="middle" x="276" y="-136.8" font-family="Times,serif" font-size="14.00">Blueprint 5</text>
<polyline fill="none" stroke="black" points="237,-129 315,-129 "/>
<text text-anchor="middle" x="276" y="-113.8" font-family="Times,serif" font-size="14.00">Coolant 20</text>
</g>
<!-- P5&#45;&gt;B5 -->
<g id="edge11" class="edge"><title>P5:a&#45;&gt;B5:a</title>
<path fill="none" stroke="black" d="M193.5,-58C231.081,-58 202.348,-125.581 226.977,-138.78"/>
<polygon fill="black" stroke="black" points="226.48,-142.255 237,-141 227.994,-135.42 226.48,-142.255"/>
<text text-anchor="middle" x="215.5" y="-132.8" font-family="Times,serif" font-size="14.00">1</text>
</g>
<!-- P6 -->
<g id="node7" class="node"><title>P6</title>
<polygon fill="none" stroke="black" points="358,-176.5 358,-245.5 431,-245.5 431,-176.5 358,-176.5"/>
<text text-anchor="middle" x="394.5" y="-230.3" font-family="Times,serif" font-size="14.00">Product 6</text>
<polyline fill="none" stroke="black" points="358,-222.5 431,-222.5 "/>
<text text-anchor="middle" x="394.5" y="-207.3" font-family="Times,serif" font-size="14.00">Value 400</text>
<polyline fill="none" stroke="black" points="358,-199.5 431,-199.5 "/>
<text text-anchor="middle" x="394.5" y="-184.3" font-family="Times,serif" font-size="14.00">Initial 0</text>
</g>
<!-- B0 -->
<g id="node8" class="node"><title>B0</title>
<path fill="none" stroke="black" d="M12,-431C12,-431 66,-431 66,-431 72,-431 78,-437 78,-443 78,-443 78,-465 78,-465 78,-471 72,-477 66,-477 66,-477 12,-477 12,-477 6,-477 0,-471 0,-465 0,-465 0,-443 0,-443 0,-437 6,-431 12,-431"/>
<text text-anchor="middle" x="39" y="-461.8" font-family="Times,serif" font-size="14.00">Blueprint 0</text>
<polyline fill="none" stroke="black" points="0,-454 78,-454 "/>
<text text-anchor="middle" x="39" y="-438.8" font-family="Times,serif" font-size="14.00">Coolant 1</text>
</g>
<!-- B0&#45;&gt;P0 -->
<g id="edge1" class="edge"><title>B0:a&#45;&gt;P0:a</title>
<path fill="none" stroke="black" d="M78,-466C97.7279,-466 97.9333,-487.945 110.95,-495.489"/>
<polygon fill="black" stroke="black" points="110.45,-498.971 121,-498 112.147,-492.18 110.45,-498.971"/>
<text text-anchor="middle" x="99.5" y="-489.8" font-family="Times,serif" font-size="14.00">1</text>
</g>
<!-- B0&#45;&gt;P1 -->
<g id="edge2" class="edge"><title>B0:a&#45;&gt;P1:a</title>
<path fill="none" stroke="black" d="M78,-466C105.33,-466 94.2719,-423.887 111.405,-412.701"/>
<polygon fill="black" stroke="black" points="112.744,-415.966 121.5,-410 110.935,-409.204 112.744,-415.966"/>
<text text-anchor="middle" x="99.5" y="-453.8" font-family="Times,serif" font-size="14.00">1</text>
</g>
<!-- B1 -->
<g id="node9" class="node"><title>B1</title>
<path fill="none" stroke="black" d="M12,-255C12,-255 66,-255 66,-255 72,-255 78,-261 78,-267 78,-267 78,-289 78,-289 78,-295 72,-301 66,-301 66,-301 12,-301 12,-301 6,-301 0,-295 0,-289 0,-289 0,-267 0,-267 0,-261 6,-255 12,-255"/>
<text text-anchor="middle" x="39" y="-285.8" font-family="Times,serif" font-size="14.00">Blueprint 1</text>
<polyline fill="none" stroke="black" points="0,-278 78,-278 "/>
<text text-anchor="middle" x="39" y="-262.8" font-family="Times,serif" font-size="14.00">Coolant 3</text>
</g>
<!-- B1&#45;&gt;P2 -->
<g id="edge3" class="edge"><title>B1:a&#45;&gt;P2:a</title>
<path fill="none" stroke="black" d="M78,-290C97.7279,-290 97.9333,-311.945 110.95,-319.489"/>
<polygon fill="black" stroke="black" points="110.45,-322.971 121,-322 112.147,-316.18 110.45,-322.971"/>
<text text-anchor="middle" x="99.5" y="-313.8" font-family="Times,serif" font-size="14.00">1</text>
</g>
<!-- B1&#45;&gt;P3 -->
<g id="edge4" class="edge"><title>B1:a&#45;&gt;P3:a</title>
<path fill="none" stroke="black" d="M78,-290C105.33,-290 94.2719,-247.887 111.405,-236.701"/>
<polygon fill="black" stroke="black" points="112.744,-239.966 121.5,-234 110.935,-233.204 112.744,-239.966"/>
<text text-anchor="middle" x="99.5" y="-277.8" font-family="Times,serif" font-size="14.00">1</text>
</g>
<!-- B2 -->
<g id="node10" class="node"><title>B2</title>
<path fill="none" stroke="black" d="M12,-92C12,-92 66,-92 66,-92 72,-92 78,-98 78,-104 78,-104 78,-126 78,-126 78,-132 72,-138 66,-138 66,-138 12,-138 12,-138 6,-138 0,-132 0,-126 0,-126 0,-104 0,-104 0,-98 6,-92 12,-92"/>
<text text-anchor="middle" x="39" y="-122.8" font-family="Times,serif" font-size="14.00">Blueprint 2</text>
<polyline fill="none" stroke="black" points="0,-115 78,-115 "/>
<text text-anchor="middle" x="39" y="-99.8" font-family="Times,serif" font-size="14.00">Coolant 5</text>
</g>
<!-- B2&#45;&gt;P4 -->
<g id="edge5" class="edge"><title>B2:a&#45;&gt;P4:a</title>
<path fill="none" stroke="black" d="M78,-127C94.9761,-127 98.9597,-139.543 111.064,-144.247"/>
<polygon fill="black" stroke="black" points="110.544,-147.709 121,-146 111.76,-140.815 110.544,-147.709"/>
<text text-anchor="middle" x="99.5" y="-143.8" font-family="Times,serif" font-size="14.00">1</text>
</g>
<!-- B2&#45;&gt;P5 -->
<g id="edge6" class="edge"><title>B2:a&#45;&gt;P5:a</title>
<path fill="none" stroke="black" d="M78,-127C110.146,-127 90.9817,-72.7474 111.502,-60.4557"/>
<polygon fill="black" stroke="black" points="112.624,-63.7845 121.5,-58 110.954,-56.9865 112.624,-63.7845"/>
<text text-anchor="middle" x="99.5" y="-116.8" font-family="Times,serif" font-size="14.00">1</text>
</g>
<!-- B3&#45;&gt;P6 -->
<g id="edge8" class="edge"><title>B3:a&#45;&gt;P6:a</title>
<path fill="none" stroke="black" d="M315,-327C334.389,-327 335.427,-259.56 349.368,-239.539"/>
<polygon fill="black" stroke="black" points="351.474,-242.346 358,-234 347.694,-236.455 351.474,-242.346"/>
<text text-anchor="middle" x="336.5" y="-297.8" font-family="Times,serif" font-size="14.00">1</text>
</g>
<!-- B4&#45;&gt;P6 -->
<g id="edge10" class="edge"><title>B4:a&#45;&gt;P6:a</title>
<path fill="none" stroke="black" d="M315,-234C330.229,-234 336.357,-234 347.888,-234"/>
<polygon fill="black" stroke="black" points="348,-237.5 358,-234 348,-230.5 348,-237.5"/>
<text text-anchor="middle" x="336.5" y="-237.8" font-family="Times,serif" font-size="14.00">1</text>
</g>
<!-- B5&#45;&gt;P6 -->
<g id="edge12" class="edge"><title>B5:a&#45;&gt;P6:a</title>
<path fill="none" stroke="black" d="M315,-141C334.389,-141 335.427,-208.44 349.368,-228.461"/>
<polygon fill="black" stroke="black" points="347.694,-231.545 358,-234 351.474,-225.654 347.694,-231.545"/>
<text text-anchor="middle" x="336.5" y="-205.8" font-family="Times,serif" font-size="14.00">1</text>
</g>
</g>
</svg>
