<?xml version="1.0" encoding="UTF-8" standalone="no"?>
<!DOCTYPE svg PUBLIC "-//W3C//DTD SVG 1.1//EN"
 "http://www.w3.org/Graphics/SVG/1.1/DTD/svg11.dtd">
<!-- Generated by graphviz version 2.38.0 (20140413.2041)
 -->
<!-- Title: g Pages: 1 -->
<svg width="439pt" height="606pt"
 viewBox="0.00 0.00 439.00 606.00" xmlns="http://www.w3.org/2000/svg" xmlns:xlink="http://www.w3.org/1999/xlink">
<g id="graph0" class="graph" transform="scale(1 1) rotate(0) translate(4 602)">
<title>g</title>
<polygon fill="white" stroke="none" points="-4,4 -4,-602 435,-602 435,4 -4,4"/>
<!-- P0 -->
<g id="node1" class="node"><title>P0</title>
<polygon fill="none" stroke="black" points="121,-528.5 121,-597.5 194,-597.5 194,-528.5 121,-528.5"/>
<text text-anchor="middle" x="157.5" y="-582.3" font-family="Times,serif" font-size="14.00">Product 0</text>
<polyline fill="none" stroke="black" points="121,-574.5 194,-574.5 "/>
<text text-anchor="middle" x="157.5" y="-559.3" font-family="Times,serif" font-size="14.00">Value 100</text>
<polyline fill="none" stroke="black" points="121,-551.5 194,-551.5 "/>
<text text-anchor="middle" x="157.5" y="-536.3" font-family="Times,serif" font-size="14.00">Initial 0</text>
</g>
<!-- P1 -->
<g id="node2" class="node"><title>P1</title>
<polygon fill="none" stroke="black" points="123,-440.5 123,-509.5 192,-509.5 192,-440.5 123,-440.5"/>
<text text-anchor="middle" x="157.5" y="-494.3" font-family="Times,serif" font-size="14.00">Product 1</text>
<polyline fill="none" stroke="black" points="123,-486.5 192,-486.5 "/>
<text text-anchor="middle" x="157.5" y="-471.3" font-family="Times,serif" font-size="14.00">Value &#45;1</text>
<polyline fill="none" stroke="black" points="123,-463.5 192,-463.5 "/>
<text text-anchor="middle" x="157.5" y="-448.3" font-family="Times,serif" font-size="14.00">Initial 0</text>
</g>
<!-- B3 -->
<g id="node12" class="node"><title>B3</title>
<path fill="none" stroke="black" d="M249,-198C249,-198 303,-198 303,-198 309,-198 315,-204 315,-210 315,-210 315,-232 315,-232 315,-238 309,-244 303,-244 303,-244 249,-244 249,-244 243,-244 237,-238 237,-232 237,-232 237,-210 237,-210 237,-204 243,-198 249,-198"/>
<text text-anchor="middle" x="276" y="-228.8" font-family="Times,serif" font-size="14.00">Blueprint 3</text>
<polyline fill="none" stroke="black" points="237,-221 315,-221 "/>
<text text-anchor="middle" x="276" y="-205.8" font-family="Times,serif" font-size="14.00">Coolant 1</text>
</g>
<!-- P1&#45;&gt;B3 -->
<g id="edge7" class="edge"><title>P1:a&#45;&gt;B3:a</title>
<path fill="none" stroke="black" d="M193.5,-498C249.633,-498 273.535,-323.325 275.818,-255.008"/>
<polygon fill="black" stroke="black" points="279.317,-255.062 276,-245 272.318,-254.935 279.317,-255.062"/>
<text text-anchor="middle" x="215.5" y="-493.8" font-family="Times,serif" font-size="14.00">1</text>
</g>
<!-- P2 -->
<g id="node3" class="node"><title>P2</title>
<polygon fill="none" stroke="black" points="121,-352.5 121,-421.5 194,-421.5 194,-352.5 121,-352.5"/>
<text text-anchor="middle" x="157.5" y="-406.3" font-family="Times,serif" font-size="14.00">Product 2</text>
<polyline fill="none" stroke="black" points="121,-398.5 194,-398.5 "/>
<text text-anchor="middle" x="157.5" y="-383.3" font-family="Times,serif" font-size="14.00">Value 200</text>
<polyline fill="none" stroke="black" points="121,-375.5 194,-375.5 "/>
<text text-anchor="middle" x="157.5" y="-360.3" font-family="Times,serif" font-size="14.00">Initial 0</text>
</g>
<!-- P3 -->
<g id="node4" class="node"><title>P3</title>
<polygon fill="none" stroke="black" points="123,-264.5 123,-333.5 192,-333.5 192,-264.5 123,-264.5"/>
<text text-anchor="middle" x="157.5" y="-318.3" font-family="Times,serif" font-size="14.00">Product 3</text>
<polyline fill="none" stroke="black" points="123,-310.5 192,-310.5 "/>
<text text-anchor="middle" x="157.5" y="-295.3" font-family="Times,serif" font-size="14.00">Value &#45;2</text>
<polyline fill="none" stroke="black" points="123,-287.5 192,-287.5 "/>
<text text-anchor="middle" x="157.5" y="-272.3" font-family="Times,serif" font-size="14.00">Initial 0</text>
</g>
<!-- P3&#45;&gt;B3 -->
<g id="edge8" class="edge"><title>P3:a&#45;&gt;B3:a</title>
<path fill="none" stroke="black" d="M193.5,-322C233.572,-322 200.263,-248.274 227.15,-235.026"/>
<polygon fill="black" stroke="black" points="227.91,-238.443 237,-233 226.5,-231.587 227.91,-238.443"/>
<text text-anchor="middle" x="215.5" y="-313.8" font-family="Times,serif" font-size="14.00">1</text>
</g>
<!-- P4 -->
<g id="node5" class="node"><title>P4</title>
<polygon fill="none" stroke="black" points="121,-176.5 121,-245.5 194,-245.5 194,-176.5 121,-176.5"/>
<text text-anchor="middle" x="157.5" y="-230.3" font-family="Times,serif" font-size="14.00">Product 4</text>
<polyline fill="none" stroke="black" points="121,-222.5 194,-222.5 "/>
<text text-anchor="middle" x="157.5" y="-207.3" font-family="Times,serif" font-size="14.00">Value 300</text>
<polyline fill="none" stroke="black" points="121,-199.5 194,-199.5 "/>
<text text-anchor="middle" x="157.5" y="-184.3" font-family="Times,serif" font-size="14.00">Initial 0</text>
</g>
<!-- P5 -->
<g id="node6" class="node"><title>P5</title>
<polygon fill="none" stroke="black" points="123,-88.5 123,-157.5 192,-157.5 192,-88.5 123,-88.5"/>
<text text-anchor="middle" x="157.5" y="-142.3" font-family="Times,serif" font-size="14.00">Product 5</text>
<polyline fill="none" stroke="black" points="123,-134.5 192,-134.5 "/>
<text text-anchor="middle" x="157.5" y="-119.3" font-family="Times,serif" font-size="14.00">Value &#45;3</text>
<polyline fill="none" stroke="black" points="123,-111.5 192,-111.5 "/>
<text text-anchor="middle" x="157.5" y="-96.3" font-family="Times,serif" font-size="14.00">Initial 0</text>
</g>
<!-- P5&#45;&gt;B3 -->
<g id="edge9" class="edge"><title>P5:a&#45;&gt;B3:a</title>
<path fill="none" stroke="black" d="M193.5,-146C232.678,-146 201.067,-217.452 226.972,-230.849"/>
<polygon fill="black" stroke="black" points="226.488,-234.325 237,-233 227.956,-227.481 226.488,-234.325"/>
<text text-anchor="middle" x="215.5" y="-224.8" font-family="Times,serif" font-size="14.00">1</text>
</g>
<!-- P6 -->
<g id="node7" class="node"><title>P6</title>
<polygon fill="none" stroke="black" points="358,-175.5 358,-244.5 431,-244.5 431,-175.5 358,-175.5"/>
<text text-anchor="middle" x="394.5" y="-229.3" font-family="Times,serif" font-size="14.00">Product 6</text>
<polyline fill="none" stroke="black" points="358,-221.5 431,-221.5 "/>
<text text-anchor="middle" x="394.5" y="-206.3" font-family="Times,serif" font-size="14.00">Value 400</text>
<polyline fill="none" stroke="black" points="358,-198.5 431,-198.5 "/>
<text text-anchor="middle" x="394.5" y="-183.3" font-family="Times,serif" font-size="14.00">Initial 0</text>
</g>
<!-- P7 -->
<g id="node8" class="node"><title>P7</title>
<polygon fill="none" stroke="black" points="123,-0.5 123,-69.5 192,-69.5 192,-0.5 123,-0.5"/>
<text text-anchor="middle" x="157.5" y="-54.3" font-family="Times,serif" font-size="14.00">Product 7</text>
<polyline fill="none" stroke="black" points="123,-46.5 192,-46.5 "/>
<text text-anchor="middle" x="157.5" y="-31.3" font-family="Times,serif" font-size="14.00">Value 0</text>
<polyline fill="none" stroke="black" points="123,-23.5 192,-23.5 "/>
<text text-anchor="middle" x="157.5" y="-8.3" font-family="Times,serif" font-size="14.00">Initial 1</text>
</g>
<!-- P7&#45;&gt;B3 -->
<g id="edge10" class="edge"><title>P7:a&#45;&gt;B3:a</title>
<path fill="none" stroke="black" d="M193.5,-58C231.666,-58 209.693,-102.986 219,-140 223.251,-156.906 218.369,-209.59 228.521,-227.201"/>
<polygon fill="black" stroke="black" points="226.77,-230.244 237,-233 230.722,-224.466 226.77,-230.244"/>
<text text-anchor="middle" x="215.5" y="-143.8" font-family="Times,serif" font-size="14.00">1</text>
</g>
<!-- B0 -->
<g id="node9" class="node"><title>B0</title>
<path fill="none" stroke="black" d="M12,-519C12,-519 66,-519 66,-519 72,-519 78,-525 78,-531 78,-531 78,-553 78,-553 78,-559 72,-565 66,-565 66,-565 12,-565 12,-565 6,-565 0,-559 0,-553 0,-553 0,-531 0,-531 0,-525 6,-519 12,-519"/>
<text text-anchor="middle" x="39" y="-549.8" font-family="Times,serif" font-size="14.00">Blueprint 0</text>
<polyline fill="none" stroke="black" points="0,-542 78,-542 "/>
<text text-anchor="middle" x="39" y="-526.8" font-family="Times,serif" font-size="14.00">Coolant 1</text>
</g>
<!-- B0&#45;&gt;P0 -->
<g id="edge1" class="edge"><title>B0:a&#45;&gt;P0:a</title>
<path fill="none" stroke="black" d="M78,-554C97.7279,-554 97.9333,-575.945 110.95,-583.489"/>
<polygon fill="black" stroke="black" points="110.45,-586.971 121,-586 112.147,-580.18 110.45,-586.971"/>
<text text-anchor="middle" x="99.5" y="-577.8" font-family="Times,serif" font-size="14.00">1</text>
</g>
<!-- B0&#45;&gt;P1 -->
<g id="edge2" class="edge"><title>B0:a&#45;&gt;P1:a</title>
<path fill="none" stroke="black" d="M78,-554C105.33,-554 94.2719,-511.887 111.405,-500.701"/>
<polygon fill="black" stroke="black" points="112.744,-503.966 121.5,-498 110.935,-497.204 112.744,-503.966"/>
<text text-anchor="middle" x="99.5" y="-541.8" font-family="Times,serif" font-size="14.00">1</text>
</g>
<!-- B1 -->
<g id="node10" class="node"><title>B1</title>
<path fill="none" stroke="black" d="M12,-343C12,-343 66,-343 66,-343 72,-343 78,-349 78,-355 78,-355 78,-377 78,-377 78,-383 72,-389 66,-389 66,-389 12,-389 12,-389 6,-389 0,-383 0,-377 0,-377 0,-355 0,-355 0,-349 6,-343 12,-343"/>
<text text-anchor="middle" x="39" y="-373.8" font-family="Times,serif" font-size="14.00">Blueprint 1</text>
<polyline fill="none" stroke="black" points="0,-366 78,-366 "/>
<text text-anchor="middle" x="39" y="-350.8" font-family="Times,serif" font-size="14.00">Coolant 3</text>
</g>
<!-- B1&#45;&gt;P2 -->
<g id="edge3" class="edge"><title>B1:a&#45;&gt;P2:a</title>
<path fill="none" stroke="black" d="M78,-378C97.7279,-378 97.9333,-399.945 110.95,-407.489"/>
<polygon fill="black" stroke="black" points="110.45,-410.971 121,-410 112.147,-404.18 110.45,-410.971"/>
<text text-anchor="middle" x="99.5" y="-401.8" font-family="Times,serif" font-size="14.00">1</text>
</g>
<!-- B1&#45;&gt;P3 -->
<g id="edge4" class="edge"><title>B1:a&#45;&gt;P3:a</title>
<path fill="none" stroke="black" d="M78,-378C105.33,-378 94.2719,-335.887 111.405,-324.701"/>
<polygon fill="black" stroke="black" points="112.744,-327.966 121.5,-322 110.935,-321.204 112.744,-327.966"/>
<text text-anchor="middle" x="99.5" y="-365.8" font-family="Times,serif" font-size="14.00">1</text>
</g>
<!-- B2 -->
<g id="node11" class="node"><title>B2</title>
<path fill="none" stroke="black" d="M12,-168C12,-168 66,-168 66,-168 72,-168 78,-174 78,-180 78,-180 78,-202 78,-202 78,-208 72,-214 66,-214 66,-214 12,-214 12,-214 6,-214 0,-208 0,-202 0,-202 0,-180 0,-180 0,-174 6,-168 12,-168"/>
<text text-anchor="middle" x="39" y="-198.8" font-family="Times,serif" font-size="14.00">Blueprint 2</text>
<polyline fill="none" stroke="black" points="0,-191 78,-191 "/>
<text text-anchor="middle" x="39" y="-175.8" font-family="Times,serif" font-size="14.00">Coolant 5</text>
</g>
<!-- B2&#45;&gt;P4 -->
<g id="edge5" class="edge"><title>B2:a&#45;&gt;P4:a</title>
<path fill="none" stroke="black" d="M78,-203C97.5104,-203 98.0387,-224.26 111.024,-231.567"/>
<polygon fill="black" stroke="black" points="110.455,-235.031 121,-234 112.114,-228.231 110.455,-235.031"/>
<text text-anchor="middle" x="99.5" y="-227.8" font-family="Times,serif" font-size="14.00">1</text>
</g>
<!-- B2&#45;&gt;P5 -->
<g id="edge6" class="edge"><title>B2:a&#45;&gt;P5:a</title>
<path fill="none" stroke="black" d="M78,-203C105.884,-203 93.877,-159.359 111.788,-148.449"/>
<polygon fill="black" stroke="black" points="112.66,-151.839 121.5,-146 110.948,-145.052 112.66,-151.839"/>
<text text-anchor="middle" x="99.5" y="-193.8" font-family="Times,serif" font-size="14.00">1</text>
</g>
<!-- B3&#45;&gt;P6 -->
<g id="edge11" class="edge"><title>B3:a&#45;&gt;P6:a</title>
<path fill="none" stroke="black" d="M315,-233C330.229,-233 336.357,-233 347.888,-233"/>
<polygon fill="black" stroke="black" points="348,-236.5 358,-233 348,-229.5 348,-236.5"/>
<text text-anchor="middle" x="336.5" y="-236.8" font-family="Times,serif" font-size="14.00">1</text>
</g>
</g>
</svg>
