<?xml version="1.0" encoding="UTF-8" standalone="no"?>
<!DOCTYPE svg PUBLIC "-//W3C//DTD SVG 1.1//EN"
 "http://www.w3.org/Graphics/SVG/1.1/DTD/svg11.dtd">
<!-- Generated by graphviz version 2.38.0 (20140413.2041)
 -->
<!-- Title: g Pages: 1 -->
<svg width="209pt" height="518pt"
 viewBox="0.00 0.00 209.00 518.00" xmlns="http://www.w3.org/2000/svg" xmlns:xlink="http://www.w3.org/1999/xlink">
<g id="graph0" class="graph" transform="scale(1 1) rotate(0) translate(4 514)">
<title>g</title>
<polygon fill="white" stroke="none" points="-4,4 -4,-514 205,-514 205,4 -4,4"/>
<!-- P0 -->
<g id="node1" class="node"><title>P0</title>
<polygon fill="none" stroke="black" points="121,-88.5 121,-157.5 201,-157.5 201,-88.5 121,-88.5"/>
<text text-anchor="middle" x="161" y="-142.3" font-family="Times,serif" font-size="14.00">Product 0</text>
<polyline fill="none" stroke="black" points="121,-134.5 201,-134.5 "/>
<text text-anchor="middle" x="161" y="-119.3" font-family="Times,serif" font-size="14.00">Value 1000</text>
<polyline fill="none" stroke="black" points="121,-111.5 201,-111.5 "/>
<text text-anchor="middle" x="161" y="-96.3" font-family="Times,serif" font-size="14.00">Initial 0</text>
</g>
<!-- P1 -->
<g id="node2" class="node"><title>P1</title>
<polygon fill="none" stroke="black" points="126.5,-0.5 126.5,-69.5 195.5,-69.5 195.5,-0.5 126.5,-0.5"/>
<text text-anchor="middle" x="161" y="-54.3" font-family="Times,serif" font-size="14.00">Product 1</text>
<polyline fill="none" stroke="black" points="126.5,-46.5 195.5,-46.5 "/>
<text text-anchor="middle" x="161" y="-31.3" font-family="Times,serif" font-size="14.00">Value &#45;1</text>
<polyline fill="none" stroke="black" points="126.5,-23.5 195.5,-23.5 "/>
<text text-anchor="middle" x="161" y="-8.3" font-family="Times,serif" font-size="14.00">Initial 0</text>
</g>
<!-- P2 -->
<g id="node3" class="node"><title>P2</title>
<polygon fill="none" stroke="black" points="121,-264.5 121,-333.5 201,-333.5 201,-264.5 121,-264.5"/>
<text text-anchor="middle" x="161" y="-318.3" font-family="Times,serif" font-size="14.00">Product 2</text>
<polyline fill="none" stroke="black" points="121,-310.5 201,-310.5 "/>
<text text-anchor="middle" x="161" y="-295.3" font-family="Times,serif" font-size="14.00">Value 2000</text>
<polyline fill="none" stroke="black" points="121,-287.5 201,-287.5 "/>
<text text-anchor="middle" x="161" y="-272.3" font-family="Times,serif" font-size="14.00">Initial 0</text>
</g>
<!-- P3 -->
<g id="node4" class="node"><title>P3</title>
<polygon fill="none" stroke="black" points="126.5,-176.5 126.5,-245.5 195.5,-245.5 195.5,-176.5 126.5,-176.5"/>
<text text-anchor="middle" x="161" y="-230.3" font-family="Times,serif" font-size="14.00">Product 3</text>
<polyline fill="none" stroke="black" points="126.5,-222.5 195.5,-222.5 "/>
<text text-anchor="middle" x="161" y="-207.3" font-family="Times,serif" font-size="14.00">Value &#45;2</text>
<polyline fill="none" stroke="black" points="126.5,-199.5 195.5,-199.5 "/>
<text text-anchor="middle" x="161" y="-184.3" font-family="Times,serif" font-size="14.00">Initial 0</text>
</g>
<!-- P4 -->
<g id="node5" class="node"><title>P4</title>
<polygon fill="none" stroke="black" points="121,-440.5 121,-509.5 201,-509.5 201,-440.5 121,-440.5"/>
<text text-anchor="middle" x="161" y="-494.3" font-family="Times,serif" font-size="14.00">Product 4</text>
<polyline fill="none" stroke="black" points="121,-486.5 201,-486.5 "/>
<text text-anchor="middle" x="161" y="-471.3" font-family="Times,serif" font-size="14.00">Value 3000</text>
<polyline fill="none" stroke="black" points="121,-463.5 201,-463.5 "/>
<text text-anchor="middle" x="161" y="-448.3" font-family="Times,serif" font-size="14.00">Initial 0</text>
</g>
<!-- P5 -->
<g id="node6" class="node"><title>P5</title>
<polygon fill="none" stroke="black" points="126.5,-352.5 126.5,-421.5 195.5,-421.5 195.5,-352.5 126.5,-352.5"/>
<text text-anchor="middle" x="161" y="-406.3" font-family="Times,serif" font-size="14.00">Product 5</text>
<polyline fill="none" stroke="black" points="126.5,-398.5 195.5,-398.5 "/>
<text text-anchor="middle" x="161" y="-383.3" font-family="Times,serif" font-size="14.00">Value &#45;3</text>
<polyline fill="none" stroke="black" points="126.5,-375.5 195.5,-375.5 "/>
<text text-anchor="middle" x="161" y="-360.3" font-family="Times,serif" font-size="14.00">Initial 0</text>
</g>
<!-- B0 -->
<g id="node7" class="node"><title>B0</title>
<path fill="none" stroke="black" d="M12,-67C12,-67 66,-67 66,-67 72,-67 78,-73 78,-79 78,-79 78,-101 78,-101 78,-107 72,-113 66,-113 66,-113 12,-113 12,-113 6,-113 0,-107 0,-101 0,-101 0,-79 0,-79 0,-73 6,-67 12,-67"/>
<text text-anchor="middle" x="39" y="-97.8" font-family="Times,serif" font-size="14.00">Blueprint 0</text>
<polyline fill="none" stroke="black" points="0,-90 78,-90 "/>
<text text-anchor="middle" x="39" y="-74.8" font-family="Times,serif" font-size="14.00">Coolant 1</text>
</g>
<!-- B0&#45;&gt;P0 -->
<g id="edge1" class="edge"><title>B0:a&#45;&gt;P0:a</title>
<path fill="none" stroke="black" d="M78,-102C101.285,-102 96.2662,-133.907 111.148,-143.379"/>
<polygon fill="black" stroke="black" points="110.436,-146.812 121,-146 112.236,-140.047 110.436,-146.812"/>
<text text-anchor="middle" x="99.5" y="-135.8" font-family="Times,serif" font-size="14.00">1</text>
</g>
<!-- B0&#45;&gt;P1 -->
<g id="edge2" class="edge"><title>B0:a&#45;&gt;P1:a</title>
<path fill="none" stroke="black" d="M78,-102C102.59,-102 98.4945,-69.5049 115.017,-60.3656"/>
<polygon fill="black" stroke="black" points="116.076,-63.7115 125,-58 114.462,-56.9001 116.076,-63.7115"/>
<text text-anchor="middle" x="99.5" y="-95.8" font-family="Times,serif" font-size="14.00">1</text>
</g>
<!-- B1 -->
<g id="node8" class="node"><title>B1</title>
<path fill="none" stroke="black" d="M12,-243C12,-243 66,-243 66,-243 72,-243 78,-249 78,-255 78,-255 78,-277 78,-277 78,-283 72,-289 66,-289 66,-289 12,-289 12,-289 6,-289 0,-283 0,-277 0,-277 0,-255 0,-255 0,-249 6,-243 12,-243"/>
<text text-anchor="middle" x="39" y="-273.8" font-family="Times,serif" font-size="14.00">Blueprint 1</text>
<polyline fill="none" stroke="black" points="0,-266 78,-266 "/>
<text text-anchor="middle" x="39" y="-250.8" font-family="Times,serif" font-size="14.00">Coolant 3</text>
</g>
<!-- B1&#45;&gt;P2 -->
<g id="edge3" class="edge"><title>B1:a&#45;&gt;P2:a</title>
<path fill="none" stroke="black" d="M78,-278C101.285,-278 96.2662,-309.907 111.148,-319.379"/>
<polygon fill="black" stroke="black" points="110.436,-322.812 121,-322 112.236,-316.047 110.436,-322.812"/>
<text text-anchor="middle" x="99.5" y="-311.8" font-family="Times,serif" font-size="14.00">1</text>
</g>
<!-- B1&#45;&gt;P3 -->
<g id="edge4" class="edge"><title>B1:a&#45;&gt;P3:a</title>
<path fill="none" stroke="black" d="M78,-278C102.59,-278 98.4945,-245.505 115.017,-236.366"/>
<polygon fill="black" stroke="black" points="116.076,-239.712 125,-234 114.462,-232.9 116.076,-239.712"/>
<text text-anchor="middle" x="99.5" y="-271.8" font-family="Times,serif" font-size="14.00">1</text>
</g>
<!-- B2 -->
<g id="node9" class="node"><title>B2</title>
<path fill="none" stroke="black" d="M12,-419C12,-419 66,-419 66,-419 72,-419 78,-425 78,-431 78,-431 78,-453 78,-453 78,-459 72,-465 66,-465 66,-465 12,-465 12,-465 6,-465 0,-459 0,-453 0,-453 0,-431 0,-431 0,-425 6,-419 12,-419"/>
<text text-anchor="middle" x="39" y="-449.8" font-family="Times,serif" font-size="14.00">Blueprint 2</text>
<polyline fill="none" stroke="black" points="0,-442 78,-442 "/>
<text text-anchor="middle" x="39" y="-426.8" font-family="Times,serif" font-size="14.00">Coolant 5</text>
</g>
<!-- B2&#45;&gt;P4 -->
<g id="edge5" class="edge"><title>B2:a&#45;&gt;P4:a</title>
<path fill="none" stroke="black" d="M78,-454C101.285,-454 96.2662,-485.907 111.148,-495.379"/>
<polygon fill="black" stroke="black" points="110.436,-498.812 121,-498 112.236,-492.047 110.436,-498.812"/>
<text text-anchor="middle" x="99.5" y="-486.8" font-family="Times,serif" font-size="14.00">1</text>
</g>
<!-- B2&#45;&gt;P5 -->
<g id="edge6" class="edge"><title>B2:a&#45;&gt;P5:a</title>
<path fill="none" stroke="black" d="M78,-454C102.59,-454 98.4945,-421.505 115.017,-412.366"/>
<polygon fill="black" stroke="black" points="116.076,-415.712 125,-410 114.462,-408.9 116.076,-415.712"/>
<text text-anchor="middle" x="99.5" y="-446.8" font-family="Times,serif" font-size="14.00">1</text>
</g>
</g>
</svg>
