<?xml version="1.0" encoding="UTF-8" standalone="no"?>
<!DOCTYPE svg PUBLIC "-//W3C//DTD SVG 1.1//EN"
 "http://www.w3.org/Graphics/SVG/1.1/DTD/svg11.dtd">
<!-- Generated by graphviz version 2.38.0 (20140413.2041)
 -->
<!-- Title: g Pages: 1 -->
<svg width="1674pt" height="693pt"
 viewBox="0.00 0.00 1674.00 693.00" xmlns="http://www.w3.org/2000/svg" xmlns:xlink="http://www.w3.org/1999/xlink">
<g id="graph0" class="graph" transform="scale(1 1) rotate(0) translate(4 689)">
<title>g</title>
<polygon fill="white" stroke="none" points="-4,4 -4,-689 1670,-689 1670,4 -4,4"/>
<!-- P0 -->
<g id="node1" class="node"><title>P0</title>
<polygon fill="none" stroke="black" points="0,-145.5 0,-214.5 69,-214.5 69,-145.5 0,-145.5"/>
<text text-anchor="middle" x="34.5" y="-199.3" font-family="Times,serif" font-size="14.00">Product 0</text>
<polyline fill="none" stroke="black" points="0,-191.5 69,-191.5 "/>
<text text-anchor="middle" x="34.5" y="-176.3" font-family="Times,serif" font-size="14.00">Value 3</text>
<polyline fill="none" stroke="black" points="0,-168.5 69,-168.5 "/>
<text text-anchor="middle" x="34.5" y="-153.3" font-family="Times,serif" font-size="14.00">Initial 20</text>
</g>
<!-- B1 -->
<g id="node12" class="node"><title>B1</title>
<path fill="none" stroke="black" d="M124,-168C124,-168 178,-168 178,-168 184,-168 190,-174 190,-180 190,-180 190,-202 190,-202 190,-208 184,-214 178,-214 178,-214 124,-214 124,-214 118,-214 112,-208 112,-202 112,-202 112,-180 112,-180 112,-174 118,-168 124,-168"/>
<text text-anchor="middle" x="151" y="-198.8" font-family="Times,serif" font-size="14.00">Blueprint 1</text>
<polyline fill="none" stroke="black" points="112,-191 190,-191 "/>
<text text-anchor="middle" x="151" y="-175.8" font-family="Times,serif" font-size="14.00">Coolant 10</text>
</g>
<!-- P0&#45;&gt;B1 -->
<g id="edge4" class="edge"><title>P0:a&#45;&gt;B1:a</title>
<path fill="none" stroke="black" d="M69,-203C84.2292,-203 90.3565,-203 101.888,-203"/>
<polygon fill="black" stroke="black" points="102,-206.5 112,-203 102,-199.5 102,-206.5"/>
<text text-anchor="middle" x="90.5" y="-206.8" font-family="Times,serif" font-size="14.00">1</text>
</g>
<!-- B7 -->
<g id="node18" class="node"><title>B7</title>
<path fill="none" stroke="black" d="M894,-241C894,-241 948,-241 948,-241 954,-241 960,-247 960,-253 960,-253 960,-275 960,-275 960,-281 954,-287 948,-287 948,-287 894,-287 894,-287 888,-287 882,-281 882,-275 882,-275 882,-253 882,-253 882,-247 888,-241 894,-241"/>
<text text-anchor="middle" x="921" y="-271.8" font-family="Times,serif" font-size="14.00">Blueprint 7</text>
<polyline fill="none" stroke="black" points="882,-264 960,-264 "/>
<text text-anchor="middle" x="921" y="-248.8" font-family="Times,serif" font-size="14.00">Coolant 10</text>
</g>
<!-- P0&#45;&gt;B7 -->
<g id="edge34" class="edge"><title>P0:a&#45;&gt;B7:a</title>
<path fill="none" stroke="black" d="M69,-203C135.948,-203 83.0524,-76 150,-76 150,-76 150,-76 324.5,-76 505.499,-76 561.554,-64.5967 727,-138 785.626,-164.011 792.338,-184.998 839,-229 856.702,-245.692 854.826,-268.405 871.917,-274.463"/>
<polygon fill="black" stroke="black" points="871.587,-277.953 882,-276 872.641,-271.033 871.587,-277.953"/>
<text text-anchor="middle" x="480" y="-82.8" font-family="Times,serif" font-size="14.00">1</text>
</g>
<!-- B10 -->
<g id="node21" class="node"><title>B10</title>
<path fill="none" stroke="black" d="M1593,-44C1593,-44 1654,-44 1654,-44 1660,-44 1666,-50 1666,-56 1666,-56 1666,-78 1666,-78 1666,-84 1660,-90 1654,-90 1654,-90 1593,-90 1593,-90 1587,-90 1581,-84 1581,-78 1581,-78 1581,-56 1581,-56 1581,-50 1587,-44 1593,-44"/>
<text text-anchor="middle" x="1623.5" y="-74.8" font-family="Times,serif" font-size="14.00">Blueprint 10</text>
<polyline fill="none" stroke="black" points="1581,-67 1666,-67 "/>
<text text-anchor="middle" x="1623.5" y="-51.8" font-family="Times,serif" font-size="14.00">Coolant 6</text>
</g>
<!-- P0&#45;&gt;B10 -->
<g id="edge44" class="edge"><title>P0:a&#45;&gt;B10:a</title>
<path fill="none" stroke="black" d="M69,-203C78.688,-203 106.977,-42.2844 112,-34 123.749,-14.6211 127.338,-0 150,-0 150,-0 150,-0 1504.5,-0 1541.43,-0 1537.64,-32.1572 1563,-59 1568,-64.2973 1569.15,-70.5653 1571.99,-74.6538"/>
<polygon fill="black" stroke="black" points="1570.47,-77.8064 1581,-79 1573.51,-71.5019 1570.47,-77.8064"/>
<text text-anchor="middle" x="860.5" y="-3.8" font-family="Times,serif" font-size="14.00">1</text>
</g>
<!-- P1 -->
<g id="node2" class="node"><title>P1</title>
<polygon fill="none" stroke="black" points="1003,-344.5 1003,-413.5 1072,-413.5 1072,-344.5 1003,-344.5"/>
<text text-anchor="middle" x="1037.5" y="-398.3" font-family="Times,serif" font-size="14.00">Product 1</text>
<polyline fill="none" stroke="black" points="1003,-390.5 1072,-390.5 "/>
<text text-anchor="middle" x="1037.5" y="-375.3" font-family="Times,serif" font-size="14.00">Value 7</text>
<polyline fill="none" stroke="black" points="1003,-367.5 1072,-367.5 "/>
<text text-anchor="middle" x="1037.5" y="-352.3" font-family="Times,serif" font-size="14.00">Initial 1</text>
</g>
<!-- B3 -->
<g id="node14" class="node"><title>B3</title>
<path fill="none" stroke="black" d="M661,-261C661,-261 715,-261 715,-261 721,-261 727,-267 727,-273 727,-273 727,-295 727,-295 727,-301 721,-307 715,-307 715,-307 661,-307 661,-307 655,-307 649,-301 649,-295 649,-295 649,-273 649,-273 649,-267 655,-261 661,-261"/>
<text text-anchor="middle" x="688" y="-291.8" font-family="Times,serif" font-size="14.00">Blueprint 3</text>
<polyline fill="none" stroke="black" points="649,-284 727,-284 "/>
<text text-anchor="middle" x="688" y="-268.8" font-family="Times,serif" font-size="14.00">Coolant 2</text>
</g>
<!-- P1&#45;&gt;B3 -->
<g id="edge12" class="edge"><title>P1:a&#45;&gt;B3:a</title>
<path fill="none" stroke="black" d="M1003,-402C994.056,-402 993.276,-396.392 985,-393 881.218,-350.469 839.828,-374.893 745,-315 739.314,-311.409 738.074,-305.62 735.792,-301.374"/>
<polygon fill="black" stroke="black" points="737.358,-298.229 727,-296 733.707,-304.202 737.358,-298.229"/>
<text text-anchor="middle" x="860.5" y="-364.8" font-family="Times,serif" font-size="14.00">1</text>
</g>
<!-- B4 -->
<g id="node15" class="node"><title>B4</title>
<path fill="none" stroke="black" d="M357,-386C357,-386 411,-386 411,-386 417,-386 423,-392 423,-398 423,-398 423,-420 423,-420 423,-426 417,-432 411,-432 411,-432 357,-432 357,-432 351,-432 345,-426 345,-420 345,-420 345,-398 345,-398 345,-392 351,-386 357,-386"/>
<text text-anchor="middle" x="384" y="-416.8" font-family="Times,serif" font-size="14.00">Blueprint 4</text>
<polyline fill="none" stroke="black" points="345,-409 423,-409 "/>
<text text-anchor="middle" x="384" y="-393.8" font-family="Times,serif" font-size="14.00">Coolant 5</text>
</g>
<!-- P1&#45;&gt;B4 -->
<g id="edge17" class="edge"><title>P1:a&#45;&gt;B4:a</title>
<path fill="none" stroke="black" d="M1003,-402C966.989,-402 958.011,-404 922,-404 687,-404 687,-404 687,-404 620.261,-404 603.589,-406.528 537,-411 526.196,-411.726 460.345,-418.467 433.182,-420.452"/>
<polygon fill="black" stroke="black" points="432.798,-416.968 423,-421 433.174,-423.958 432.798,-416.968"/>
<text text-anchor="middle" x="748.5" y="-407.8" font-family="Times,serif" font-size="14.00">1</text>
</g>
<!-- P2 -->
<g id="node3" class="node"><title>P2</title>
<polygon fill="none" stroke="black" points="1236,-218.5 1236,-287.5 1305,-287.5 1305,-218.5 1236,-218.5"/>
<text text-anchor="middle" x="1270.5" y="-272.3" font-family="Times,serif" font-size="14.00">Product 2</text>
<polyline fill="none" stroke="black" points="1236,-264.5 1305,-264.5 "/>
<text text-anchor="middle" x="1270.5" y="-249.3" font-family="Times,serif" font-size="14.00">Value 10</text>
<polyline fill="none" stroke="black" points="1236,-241.5 1305,-241.5 "/>
<text text-anchor="middle" x="1270.5" y="-226.3" font-family="Times,serif" font-size="14.00">Initial 15</text>
</g>
<!-- B0 -->
<g id="node11" class="node"><title>B0</title>
<path fill="none" stroke="black" d="M1596.5,-163C1596.5,-163 1650.5,-163 1650.5,-163 1656.5,-163 1662.5,-169 1662.5,-175 1662.5,-175 1662.5,-197 1662.5,-197 1662.5,-203 1656.5,-209 1650.5,-209 1650.5,-209 1596.5,-209 1596.5,-209 1590.5,-209 1584.5,-203 1584.5,-197 1584.5,-197 1584.5,-175 1584.5,-175 1584.5,-169 1590.5,-163 1596.5,-163"/>
<text text-anchor="middle" x="1623.5" y="-193.8" font-family="Times,serif" font-size="14.00">Blueprint 0</text>
<polyline fill="none" stroke="black" points="1584.5,-186 1662.5,-186 "/>
<text text-anchor="middle" x="1623.5" y="-170.8" font-family="Times,serif" font-size="14.00">Coolant 7</text>
</g>
<!-- P2&#45;&gt;B0 -->
<g id="edge1" class="edge"><title>P2:a&#45;&gt;B0:a</title>
<path fill="none" stroke="black" d="M1305,-276C1362.58,-276 1517.17,-286.864 1563,-252 1579.76,-239.25 1565.54,-211.081 1574.06,-201.369"/>
<polygon fill="black" stroke="black" points="1575.26,-204.659 1583.5,-198 1572.91,-198.066 1575.26,-204.659"/>
<text text-anchor="middle" x="1447.5" y="-280.8" font-family="Times,serif" font-size="14.00">1</text>
</g>
<!-- P2&#45;&gt;B3 -->
<g id="edge13" class="edge"><title>P2:a&#45;&gt;B3:a</title>
<path fill="none" stroke="black" d="M1236,-276C1206.45,-276 1241.37,-230.083 1218,-212 1142.42,-153.514 1098.48,-204.91 1003,-209 899.159,-213.449 858.991,-175.302 770,-229 743.137,-245.209 757.925,-285.353 736.951,-294.239"/>
<polygon fill="black" stroke="black" points="736.237,-290.811 727,-296 737.457,-297.704 736.237,-290.811"/>
<text text-anchor="middle" x="981.5" y="-213.8" font-family="Times,serif" font-size="14.00">1</text>
</g>
<!-- B6 -->
<g id="node17" class="node"><title>B6</title>
<path fill="none" stroke="black" d="M1360,-407C1360,-407 1414,-407 1414,-407 1420,-407 1426,-413 1426,-419 1426,-419 1426,-441 1426,-441 1426,-447 1420,-453 1414,-453 1414,-453 1360,-453 1360,-453 1354,-453 1348,-447 1348,-441 1348,-441 1348,-419 1348,-419 1348,-413 1354,-407 1360,-407"/>
<text text-anchor="middle" x="1387" y="-437.8" font-family="Times,serif" font-size="14.00">Blueprint 6</text>
<polyline fill="none" stroke="black" points="1348,-430 1426,-430 "/>
<text text-anchor="middle" x="1387" y="-414.8" font-family="Times,serif" font-size="14.00">Coolant 5</text>
</g>
<!-- P2&#45;&gt;B6 -->
<g id="edge29" class="edge"><title>P2:a&#45;&gt;B6:a</title>
<path fill="none" stroke="black" d="M1305,-276C1339.39,-276 1315.7,-411.161 1338.74,-437.56"/>
<polygon fill="black" stroke="black" points="1337.47,-440.831 1348,-442 1340.5,-434.519 1337.47,-440.831"/>
<text text-anchor="middle" x="1326.5" y="-414.8" font-family="Times,serif" font-size="14.00">1</text>
</g>
<!-- B8 -->
<g id="node19" class="node"><title>B8</title>
<path fill="none" stroke="black" d="M1360,-149C1360,-149 1414,-149 1414,-149 1420,-149 1426,-155 1426,-161 1426,-161 1426,-183 1426,-183 1426,-189 1420,-195 1414,-195 1414,-195 1360,-195 1360,-195 1354,-195 1348,-189 1348,-183 1348,-183 1348,-161 1348,-161 1348,-155 1354,-149 1360,-149"/>
<text text-anchor="middle" x="1387" y="-179.8" font-family="Times,serif" font-size="14.00">Blueprint 8</text>
<polyline fill="none" stroke="black" points="1348,-172 1426,-172 "/>
<text text-anchor="middle" x="1387" y="-156.8" font-family="Times,serif" font-size="14.00">Coolant 3</text>
</g>
<!-- P2&#45;&gt;B8 -->
<g id="edge38" class="edge"><title>P2:a&#45;&gt;B8:a</title>
<path fill="none" stroke="black" d="M1305,-276C1334.55,-276 1308.79,-237.909 1323,-212 1329.02,-201.029 1330.69,-190.764 1338.18,-186.318"/>
<polygon fill="black" stroke="black" points="1339.07,-189.704 1348,-184 1337.46,-182.892 1339.07,-189.704"/>
<text text-anchor="middle" x="1326.5" y="-215.8" font-family="Times,serif" font-size="14.00">1</text>
</g>
<!-- P3 -->
<g id="node4" class="node"><title>P3</title>
<polygon fill="none" stroke="black" points="1469,-145.5 1469,-214.5 1538,-214.5 1538,-145.5 1469,-145.5"/>
<text text-anchor="middle" x="1503.5" y="-199.3" font-family="Times,serif" font-size="14.00">Product 3</text>
<polyline fill="none" stroke="black" points="1469,-191.5 1538,-191.5 "/>
<text text-anchor="middle" x="1503.5" y="-176.3" font-family="Times,serif" font-size="14.00">Value 5</text>
<polyline fill="none" stroke="black" points="1469,-168.5 1538,-168.5 "/>
<text text-anchor="middle" x="1503.5" y="-153.3" font-family="Times,serif" font-size="14.00">Initial 10</text>
</g>
<!-- P3&#45;&gt;B0 -->
<g id="edge2" class="edge"><title>P3:a&#45;&gt;B0:a</title>
<path fill="none" stroke="black" d="M1538,-203C1546.2,-203 1547.87,-200.042 1556,-199 1563.96,-197.979 1568.05,-197.868 1573.38,-197.911"/>
<polygon fill="black" stroke="black" points="1573.47,-201.412 1583.5,-198 1573.53,-194.413 1573.47,-201.412"/>
<text text-anchor="middle" x="1559.5" y="-202.8" font-family="Times,serif" font-size="14.00">1</text>
</g>
<!-- P3&#45;&gt;B1 -->
<g id="edge5" class="edge"><title>P3:a&#45;&gt;B1:a</title>
<path fill="none" stroke="black" d="M1469,-203C1451.87,-203 1439.79,-149.164 1426,-139 1416.17,-131.759 1227.71,-76 1215.5,-76 626.5,-76 626.5,-76 626.5,-76 577.902,-76 566.966,-88.1879 519,-96 392.321,-116.632 341.085,-66.7839 233,-136 206.579,-152.92 221.025,-192.514 199.968,-201.267"/>
<polygon fill="black" stroke="black" points="199.253,-197.839 190,-203 200.452,-204.735 199.253,-197.839"/>
<text text-anchor="middle" x="860.5" y="-79.8" font-family="Times,serif" font-size="14.00">2</text>
</g>
<!-- B2 -->
<g id="node13" class="node"><title>B2</title>
<path fill="none" stroke="black" d="M1596.5,-307C1596.5,-307 1650.5,-307 1650.5,-307 1656.5,-307 1662.5,-313 1662.5,-319 1662.5,-319 1662.5,-341 1662.5,-341 1662.5,-347 1656.5,-353 1650.5,-353 1650.5,-353 1596.5,-353 1596.5,-353 1590.5,-353 1584.5,-347 1584.5,-341 1584.5,-341 1584.5,-319 1584.5,-319 1584.5,-313 1590.5,-307 1596.5,-307"/>
<text text-anchor="middle" x="1623.5" y="-337.8" font-family="Times,serif" font-size="14.00">Blueprint 2</text>
<polyline fill="none" stroke="black" points="1584.5,-330 1662.5,-330 "/>
<text text-anchor="middle" x="1623.5" y="-314.8" font-family="Times,serif" font-size="14.00">Coolant 3</text>
</g>
<!-- P3&#45;&gt;B2 -->
<g id="edge8" class="edge"><title>P3:a&#45;&gt;B2:a</title>
<path fill="none" stroke="black" d="M1538,-203C1555.57,-203 1557.54,-261.301 1563,-278 1570.97,-302.398 1558.32,-332.128 1573.57,-340.007"/>
<polygon fill="black" stroke="black" points="1573.01,-343.464 1583.5,-342 1574.38,-336.601 1573.01,-343.464"/>
<text text-anchor="middle" x="1559.5" y="-281.8" font-family="Times,serif" font-size="14.00">1</text>
</g>
<!-- P3&#45;&gt;B10 -->
<g id="edge45" class="edge"><title>P3:a&#45;&gt;B10:a</title>
<path fill="none" stroke="black" d="M1538,-203C1554.94,-203 1557.45,-147.003 1563,-131 1569.57,-112.045 1561.02,-89.1965 1571.23,-81.5974"/>
<polygon fill="black" stroke="black" points="1572.24,-84.952 1581,-79 1570.44,-78.187 1572.24,-84.952"/>
<text text-anchor="middle" x="1559.5" y="-169.8" font-family="Times,serif" font-size="14.00">1</text>
</g>
<!-- P4 -->
<g id="node5" class="node"><title>P4</title>
<polygon fill="none" stroke="black" points="537,-420.5 537,-489.5 606,-489.5 606,-420.5 537,-420.5"/>
<text text-anchor="middle" x="571.5" y="-474.3" font-family="Times,serif" font-size="14.00">Product 4</text>
<polyline fill="none" stroke="black" points="537,-466.5 606,-466.5 "/>
<text text-anchor="middle" x="571.5" y="-451.3" font-family="Times,serif" font-size="14.00">Value 1</text>
<polyline fill="none" stroke="black" points="537,-443.5 606,-443.5 "/>
<text text-anchor="middle" x="571.5" y="-428.3" font-family="Times,serif" font-size="14.00">Initial 8</text>
</g>
<!-- P4&#45;&gt;B3 -->
<g id="edge14" class="edge"><title>P4:a&#45;&gt;B3:a</title>
<path fill="none" stroke="black" d="M606,-478C614.969,-478 632.756,-342.364 644.136,-305.276"/>
<polygon fill="black" stroke="black" points="647.455,-306.482 649,-296 641.256,-303.231 647.455,-306.482"/>
<text text-anchor="middle" x="627.5" y="-407.8" font-family="Times,serif" font-size="14.00">1</text>
</g>
<!-- P5 -->
<g id="node6" class="node"><title>P5</title>
<polygon fill="none" stroke="black" points="770,-238.5 770,-307.5 839,-307.5 839,-238.5 770,-238.5"/>
<text text-anchor="middle" x="804.5" y="-292.3" font-family="Times,serif" font-size="14.00">Product 5</text>
<polyline fill="none" stroke="black" points="770,-284.5 839,-284.5 "/>
<text text-anchor="middle" x="804.5" y="-269.3" font-family="Times,serif" font-size="14.00">Value 1</text>
<polyline fill="none" stroke="black" points="770,-261.5 839,-261.5 "/>
<text text-anchor="middle" x="804.5" y="-246.3" font-family="Times,serif" font-size="14.00">Initial 2</text>
</g>
<!-- P5&#45;&gt;B4 -->
<g id="edge18" class="edge"><title>P5:a&#45;&gt;B4:a</title>
<path fill="none" stroke="black" d="M770,-296C758.368,-296 762.174,-309.361 752,-315 628.652,-383.372 550.027,-288.544 441,-378 428.737,-388.062 436.845,-407.922 432.021,-416.679"/>
<polygon fill="black" stroke="black" points="430.507,-413.524 423,-421 433.531,-419.837 430.507,-413.524"/>
<text text-anchor="middle" x="627.5" y="-345.8" font-family="Times,serif" font-size="14.00">1</text>
</g>
<!-- P5&#45;&gt;B7 -->
<g id="edge35" class="edge"><title>P5:a&#45;&gt;B7:a</title>
<path fill="none" stroke="black" d="M839,-296C847.944,-296 848.904,-290.802 857,-287 864.039,-283.694 867.337,-280.109 871.991,-277.96"/>
<polygon fill="black" stroke="black" points="872.859,-281.357 882,-276 871.514,-274.487 872.859,-281.357"/>
<text text-anchor="middle" x="860.5" y="-290.8" font-family="Times,serif" font-size="14.00">1</text>
</g>
<!-- P6 -->
<g id="node7" class="node"><title>P6</title>
<polygon fill="none" stroke="black" points="233,-363.5 233,-432.5 302,-432.5 302,-363.5 233,-363.5"/>
<text text-anchor="middle" x="267.5" y="-417.3" font-family="Times,serif" font-size="14.00">Product 6</text>
<polyline fill="none" stroke="black" points="233,-409.5 302,-409.5 "/>
<text text-anchor="middle" x="267.5" y="-394.3" font-family="Times,serif" font-size="14.00">Value 5</text>
<polyline fill="none" stroke="black" points="233,-386.5 302,-386.5 "/>
<text text-anchor="middle" x="267.5" y="-371.3" font-family="Times,serif" font-size="14.00">Initial 2</text>
</g>
<!-- P6&#45;&gt;B3 -->
<g id="edge15" class="edge"><title>P6:a&#45;&gt;B3:a</title>
<path fill="none" stroke="black" d="M302,-421C329.663,-421 324.124,-394.15 345,-376 384.653,-341.525 391.429,-324.425 441,-307 525.094,-277.44 554.26,-294.607 638.954,-295.922"/>
<polygon fill="black" stroke="black" points="638.973,-299.422 649,-296 639.027,-292.423 638.973,-299.422"/>
<text text-anchor="middle" x="480" y="-310.8" font-family="Times,serif" font-size="14.00">1</text>
</g>
<!-- P6&#45;&gt;B4 -->
<g id="edge19" class="edge"><title>P6:a&#45;&gt;B4:a</title>
<path fill="none" stroke="black" d="M302,-421C317.229,-421 323.357,-421 334.888,-421"/>
<polygon fill="black" stroke="black" points="335,-424.5 345,-421 335,-417.5 335,-424.5"/>
<text text-anchor="middle" x="323.5" y="-424.8" font-family="Times,serif" font-size="14.00">1</text>
</g>
<!-- B5 -->
<g id="node16" class="node"><title>B5</title>
<path fill="none" stroke="black" d="M1127,-407C1127,-407 1181,-407 1181,-407 1187,-407 1193,-413 1193,-419 1193,-419 1193,-441 1193,-441 1193,-447 1187,-453 1181,-453 1181,-453 1127,-453 1127,-453 1121,-453 1115,-447 1115,-441 1115,-441 1115,-419 1115,-419 1115,-413 1121,-407 1127,-407"/>
<text text-anchor="middle" x="1154" y="-437.8" font-family="Times,serif" font-size="14.00">Blueprint 5</text>
<polyline fill="none" stroke="black" points="1115,-430 1193,-430 "/>
<text text-anchor="middle" x="1154" y="-414.8" font-family="Times,serif" font-size="14.00">Coolant 3</text>
</g>
<!-- P6&#45;&gt;B5 -->
<g id="edge24" class="edge"><title>P6:a&#45;&gt;B5:a</title>
<path fill="none" stroke="black" d="M302,-421C313.632,-421 311.342,-432.232 320,-440 370.285,-485.115 378.5,-506.355 441,-532 517.909,-563.557 543.368,-556 626.5,-556 626.5,-556 626.5,-556 861.5,-556 975.74,-556 995.692,-505.797 1097,-453 1101.16,-450.834 1103.31,-448.084 1105.6,-445.875"/>
<polygon fill="black" stroke="black" points="1107.09,-449.048 1115,-442 1104.42,-442.576 1107.09,-449.048"/>
<text text-anchor="middle" x="748.5" y="-559.8" font-family="Times,serif" font-size="14.00">1</text>
</g>
<!-- P7 -->
<g id="node8" class="node"><title>P7</title>
<polygon fill="none" stroke="black" points="1469,-479.5 1469,-548.5 1538,-548.5 1538,-479.5 1469,-479.5"/>
<text text-anchor="middle" x="1503.5" y="-533.3" font-family="Times,serif" font-size="14.00">Product 7</text>
<polyline fill="none" stroke="black" points="1469,-525.5 1538,-525.5 "/>
<text text-anchor="middle" x="1503.5" y="-510.3" font-family="Times,serif" font-size="14.00">Value 1</text>
<polyline fill="none" stroke="black" points="1469,-502.5 1538,-502.5 "/>
<text text-anchor="middle" x="1503.5" y="-487.3" font-family="Times,serif" font-size="14.00">Initial 19</text>
</g>
<!-- P8 -->
<g id="node9" class="node"><title>P8</title>
<polygon fill="none" stroke="black" points="233,-145.5 233,-214.5 302,-214.5 302,-145.5 233,-145.5"/>
<text text-anchor="middle" x="267.5" y="-199.3" font-family="Times,serif" font-size="14.00">Product 8</text>
<polyline fill="none" stroke="black" points="233,-191.5 302,-191.5 "/>
<text text-anchor="middle" x="267.5" y="-176.3" font-family="Times,serif" font-size="14.00">Value 6</text>
<polyline fill="none" stroke="black" points="233,-168.5 302,-168.5 "/>
<text text-anchor="middle" x="267.5" y="-153.3" font-family="Times,serif" font-size="14.00">Initial 0</text>
</g>
<!-- P8&#45;&gt;B4 -->
<g id="edge20" class="edge"><title>P8:a&#45;&gt;B4:a</title>
<path fill="none" stroke="black" d="M302,-203C347.52,-203 303.692,-388.268 335.252,-417.216"/>
<polygon fill="black" stroke="black" points="334.411,-420.644 345,-421 336.944,-414.119 334.411,-420.644"/>
<text text-anchor="middle" x="323.5" y="-402.8" font-family="Times,serif" font-size="14.00">1</text>
</g>
<!-- P8&#45;&gt;B8 -->
<g id="edge39" class="edge"><title>P8:a&#45;&gt;B8:a</title>
<path fill="none" stroke="black" d="M302,-203C323.271,-203 361.729,-152 383,-152 383,-152 383,-152 1271.5,-152 1304.61,-152 1310.23,-177.83 1337.75,-183.077"/>
<polygon fill="black" stroke="black" points="1337.73,-186.588 1348,-184 1338.35,-179.617 1337.73,-186.588"/>
<text text-anchor="middle" x="860.5" y="-155.8" font-family="Times,serif" font-size="14.00">1</text>
</g>
<!-- B9 -->
<g id="node20" class="node"><title>B9</title>
<path fill="none" stroke="black" d="M453,-168C453,-168 507,-168 507,-168 513,-168 519,-174 519,-180 519,-180 519,-202 519,-202 519,-208 513,-214 507,-214 507,-214 453,-214 453,-214 447,-214 441,-208 441,-202 441,-202 441,-180 441,-180 441,-174 447,-168 453,-168"/>
<text text-anchor="middle" x="480" y="-198.8" font-family="Times,serif" font-size="14.00">Blueprint 9</text>
<polyline fill="none" stroke="black" points="441,-191 519,-191 "/>
<text text-anchor="middle" x="480" y="-175.8" font-family="Times,serif" font-size="14.00">Coolant 1</text>
</g>
<!-- P8&#45;&gt;B9 -->
<g id="edge42" class="edge"><title>P8:a&#45;&gt;B9:a</title>
<path fill="none" stroke="black" d="M302,-203C360.279,-203 377.324,-203 430.932,-203"/>
<polygon fill="black" stroke="black" points="431,-206.5 441,-203 431,-199.5 431,-206.5"/>
<text text-anchor="middle" x="323.5" y="-206.8" font-family="Times,serif" font-size="14.00">2</text>
</g>
<!-- P9 -->
<g id="node10" class="node"><title>P9</title>
<polygon fill="none" stroke="black" points="1003,-218.5 1003,-287.5 1072,-287.5 1072,-218.5 1003,-218.5"/>
<text text-anchor="middle" x="1037.5" y="-272.3" font-family="Times,serif" font-size="14.00">Product 9</text>
<polyline fill="none" stroke="black" points="1003,-264.5 1072,-264.5 "/>
<text text-anchor="middle" x="1037.5" y="-249.3" font-family="Times,serif" font-size="14.00">Value 9</text>
<polyline fill="none" stroke="black" points="1003,-241.5 1072,-241.5 "/>
<text text-anchor="middle" x="1037.5" y="-226.3" font-family="Times,serif" font-size="14.00">Initial 10</text>
</g>
<!-- P9&#45;&gt;B5 -->
<g id="edge25" class="edge"><title>P9:a&#45;&gt;B5:a</title>
<path fill="none" stroke="black" d="M1072,-276C1106.39,-276 1082.7,-411.161 1105.74,-437.56"/>
<polygon fill="black" stroke="black" points="1104.47,-440.831 1115,-442 1107.5,-434.519 1104.47,-440.831"/>
<text text-anchor="middle" x="1093.5" y="-414.8" font-family="Times,serif" font-size="14.00">1</text>
</g>
<!-- P9&#45;&gt;B8 -->
<g id="edge40" class="edge"><title>P9:a&#45;&gt;B8:a</title>
<path fill="none" stroke="black" d="M1072,-276C1150.74,-276 1160.87,-232.549 1236,-209 1281.25,-194.819 1295.08,-185.398 1337.79,-184.143"/>
<polygon fill="black" stroke="black" points="1338.05,-187.64 1348,-184 1337.95,-180.641 1338.05,-187.64"/>
<text text-anchor="middle" x="1214.5" y="-221.8" font-family="Times,serif" font-size="14.00">1</text>
</g>
<!-- P9&#45;&gt;B10 -->
<g id="edge46" class="edge"><title>P9:a&#45;&gt;B10:a</title>
<path fill="none" stroke="black" d="M1072,-276C1101.99,-276 1094.22,-245.621 1115,-224 1154.7,-182.701 1160.82,-165.62 1211,-138 1315.4,-80.5413 1350.96,-81.3776 1469,-65 1510.38,-59.2584 1523.48,-51.4416 1563,-65 1568.09,-66.7474 1569.99,-70.5893 1572.18,-73.8072"/>
<polygon fill="black" stroke="black" points="1570.61,-76.9439 1581,-79 1574.16,-70.9113 1570.61,-76.9439"/>
<text text-anchor="middle" x="1326.5" y="-93.8" font-family="Times,serif" font-size="14.00">2</text>
</g>
<!-- B0&#45;&gt;P0 -->
<g id="edge3" class="edge"><title>B0:a&#45;&gt;P0:a</title>
<path fill="none" stroke="black" d="M1583.5,-198C1550.66,-198 1586.57,-149.869 1563,-127 1505.78,-71.4954 1295.21,-38 1215.5,-38 150,-38 150,-38 150,-38 127.338,-38 124.401,-53.0318 112,-72 97.1986,-94.6396 98.8975,-179.402 78.4183,-198.957"/>
<polygon fill="black" stroke="black" points="76.8087,-195.839 69,-203 79.5698,-202.272 76.8087,-195.839"/>
<text text-anchor="middle" x="860.5" y="-41.8" font-family="Times,serif" font-size="14.00">1</text>
</g>
<!-- B1&#45;&gt;P7 -->
<g id="edge6" class="edge"><title>B1:a&#45;&gt;P7:a</title>
<path fill="none" stroke="black" d="M151,-215C151,-303.046 178.454,-594 266.5,-594 266.5,-594 266.5,-594 982.5,-594 1086.55,-594 1109.45,-632 1213.5,-632 1213.5,-632 1213.5,-632 1388,-632 1393.8,-632 1441.66,-565.615 1461.26,-543.832"/>
<polygon fill="black" stroke="black" points="1463.82,-546.241 1469,-537 1459.19,-540.992 1463.82,-546.241"/>
<text text-anchor="middle" x="860.5" y="-597.8" font-family="Times,serif" font-size="14.00">1</text>
</g>
<!-- B1&#45;&gt;P8 -->
<g id="edge7" class="edge"><title>B1:a&#45;&gt;P8:a</title>
<path fill="none" stroke="black" d="M190,-203C205.229,-203 211.357,-203 222.888,-203"/>
<polygon fill="black" stroke="black" points="223,-206.5 233,-203 223,-199.5 223,-206.5"/>
<text text-anchor="middle" x="211.5" y="-206.8" font-family="Times,serif" font-size="14.00">1</text>
</g>
<!-- B2&#45;&gt;P0 -->
<g id="edge9" class="edge"><title>B2:a&#45;&gt;P0:a</title>
<path fill="none" stroke="black" d="M1623.5,-354C1623.5,-429.036 1579.54,-670 1504.5,-670 150,-670 150,-670 150,-670 49.049,-670 35.275,-340.967 34.5336,-226.114"/>
<polygon fill="black" stroke="black" points="38.0333,-225.988 34.5,-216 31.0333,-226.012 38.0333,-225.988"/>
<text text-anchor="middle" x="860.5" y="-673.8" font-family="Times,serif" font-size="14.00">1</text>
</g>
<!-- B2&#45;&gt;P2 -->
<g id="edge10" class="edge"><title>B2:a&#45;&gt;P2:a</title>
<path fill="none" stroke="black" d="M1583.5,-342C1521.19,-342 1504.2,-372.086 1444,-356 1412.66,-347.626 1352.75,-288.225 1315.36,-277.618"/>
<polygon fill="black" stroke="black" points="1315.42,-274.085 1305,-276 1314.34,-281.001 1315.42,-274.085"/>
<text text-anchor="middle" x="1447.5" y="-361.8" font-family="Times,serif" font-size="14.00">1</text>
</g>
<!-- B2&#45;&gt;P5 -->
<g id="edge11" class="edge"><title>B2:a&#45;&gt;P5:a</title>
<path fill="none" stroke="black" d="M1583.5,-342C1568.59,-342 1465.84,-322.377 1451,-321 1371.53,-313.627 1351.31,-316 1271.5,-316 920,-316 920,-316 920,-316 891.317,-316 884.642,-309.656 857,-302 853.445,-301.015 851.169,-299.744 849.028,-298.625"/>
<polygon fill="black" stroke="black" points="849.56,-295.146 839,-296 847.788,-301.918 849.56,-295.146"/>
<text text-anchor="middle" x="1214.5" y="-319.8" font-family="Times,serif" font-size="14.00">1</text>
</g>
<!-- B3&#45;&gt;P5 -->
<g id="edge16" class="edge"><title>B3:a&#45;&gt;P5:a</title>
<path fill="none" stroke="black" d="M727,-296C742.229,-296 748.357,-296 759.888,-296"/>
<polygon fill="black" stroke="black" points="760,-299.5 770,-296 760,-292.5 760,-299.5"/>
<text text-anchor="middle" x="748.5" y="-299.8" font-family="Times,serif" font-size="14.00">1</text>
</g>
<!-- B4&#45;&gt;P0 -->
<g id="edge21" class="edge"><title>B4:a&#45;&gt;P0:a</title>
<path fill="none" stroke="black" d="M345,-421C333.368,-421 337.494,-434.981 327,-440 289.303,-458.03 271.069,-459.231 233,-442 114.42,-388.326 38.5765,-351.661 34.6594,-226.376"/>
<polygon fill="black" stroke="black" points="38.1533,-225.945 34.5,-216 31.1541,-226.053 38.1533,-225.945"/>
<text text-anchor="middle" x="211.5" y="-437.8" font-family="Times,serif" font-size="14.00">1</text>
</g>
<!-- B4&#45;&gt;P4 -->
<g id="edge22" class="edge"><title>B4:a&#45;&gt;P4:a</title>
<path fill="none" stroke="black" d="M423,-421C476.107,-421 480.046,-471.098 527.007,-477.36"/>
<polygon fill="black" stroke="black" points="526.797,-480.853 537,-478 527.244,-473.868 526.797,-480.853"/>
<text text-anchor="middle" x="480" y="-479.8" font-family="Times,serif" font-size="14.00">1</text>
</g>
<!-- B4&#45;&gt;P7 -->
<g id="edge23" class="edge"><title>B4:a&#45;&gt;P7:a</title>
<path fill="none" stroke="black" d="M423,-421C456.848,-421 416.326,-471.83 441,-495 483.613,-535.016 512.044,-518 570.5,-518 570.5,-518 570.5,-518 861.5,-518 965.547,-518 988.453,-556 1092.5,-556 1092.5,-556 1092.5,-556 1388,-556 1416.68,-556 1423.17,-548.952 1451,-542 1454.52,-541.12 1456.82,-540.053 1458.98,-539.131"/>
<polygon fill="black" stroke="black" points="1459.95,-542.504 1469,-537 1458.49,-535.657 1459.95,-542.504"/>
<text text-anchor="middle" x="981.5" y="-541.8" font-family="Times,serif" font-size="14.00">2</text>
</g>
<!-- B5&#45;&gt;P2 -->
<g id="edge26" class="edge"><title>B5:a&#45;&gt;P2:a</title>
<path fill="none" stroke="black" d="M1193,-442C1209.6,-442 1215.45,-316.038 1229.28,-283.564"/>
<polygon fill="black" stroke="black" points="1231.97,-285.8 1236,-276 1226.74,-281.149 1231.97,-285.8"/>
<text text-anchor="middle" x="1214.5" y="-382.8" font-family="Times,serif" font-size="14.00">2</text>
</g>
<!-- B5&#45;&gt;P4 -->
<g id="edge27" class="edge"><title>B5:a&#45;&gt;P4:a</title>
<path fill="none" stroke="black" d="M1115,-442C1081,-442 1072.5,-442 1038.5,-442 687,-442 687,-442 687,-442 657.037,-442 650.632,-452.27 624,-466 619.727,-468.203 617.631,-471.203 615.401,-473.652"/>
<polygon fill="black" stroke="black" points="613.607,-470.625 606,-478 616.546,-476.979 613.607,-470.625"/>
<text text-anchor="middle" x="860.5" y="-445.8" font-family="Times,serif" font-size="14.00">1</text>
</g>
<!-- B5&#45;&gt;P7 -->
<g id="edge28" class="edge"><title>B5:a&#45;&gt;P7:a</title>
<path fill="none" stroke="black" d="M1193,-442C1319.31,-442 1338.32,-532.056 1458.97,-536.805"/>
<polygon fill="black" stroke="black" points="1458.93,-540.305 1469,-537 1459.07,-533.307 1458.93,-540.305"/>
<text text-anchor="middle" x="1326.5" y="-492.8" font-family="Times,serif" font-size="14.00">1</text>
</g>
<!-- B6&#45;&gt;P0 -->
<g id="edge30" class="edge"><title>B6:a&#45;&gt;P0:a</title>
<path fill="none" stroke="black" d="M1348,-442C1337.59,-442 1338.71,-451.288 1330,-457 1185.42,-551.857 1155.42,-632 982.5,-632 150,-632 150,-632 150,-632 57.2442,-632 35.883,-332.842 34.5668,-226.278"/>
<polygon fill="black" stroke="black" points="38.065,-225.977 34.5,-216 31.0651,-226.023 38.065,-225.977"/>
<text text-anchor="middle" x="748.5" y="-635.8" font-family="Times,serif" font-size="14.00">1</text>
</g>
<!-- B6&#45;&gt;P3 -->
<g id="edge31" class="edge"><title>B6:a&#45;&gt;P3:a</title>
<path fill="none" stroke="black" d="M1426,-442C1448.8,-442 1437.04,-362.709 1444,-341 1461.69,-285.843 1498.8,-278.285 1503.09,-226.254"/>
<polygon fill="black" stroke="black" points="1506.6,-226.131 1503.5,-216 1499.61,-225.853 1506.6,-226.131"/>
<text text-anchor="middle" x="1447.5" y="-344.8" font-family="Times,serif" font-size="14.00">1</text>
</g>
<!-- B6&#45;&gt;P4 -->
<g id="edge32" class="edge"><title>B6:a&#45;&gt;P4:a</title>
<path fill="none" stroke="black" d="M1348,-442C1278.54,-442 1262.06,-454.595 1193,-462 1099.64,-472.01 1076.4,-480 982.5,-480 687,-480 687,-480 687,-480 654.646,-480 644.113,-478.386 616.192,-478.058"/>
<polygon fill="black" stroke="black" points="616.02,-474.557 606,-478 615.98,-481.557 616.02,-474.557"/>
<text text-anchor="middle" x="981.5" y="-483.8" font-family="Times,serif" font-size="14.00">1</text>
</g>
<!-- B6&#45;&gt;P7 -->
<g id="edge33" class="edge"><title>B6:a&#45;&gt;P7:a</title>
<path fill="none" stroke="black" d="M1426,-442C1449.66,-442 1441.27,-467.433 1451,-489 1458.47,-505.55 1451,-526.204 1459.18,-533.912"/>
<polygon fill="black" stroke="black" points="1458.41,-537.338 1469,-537 1460.51,-530.661 1458.41,-537.338"/>
<text text-anchor="middle" x="1447.5" y="-492.8" font-family="Times,serif" font-size="14.00">1</text>
</g>
<!-- B7&#45;&gt;P1 -->
<g id="edge36" class="edge"><title>B7:a&#45;&gt;P1:a</title>
<path fill="none" stroke="black" d="M960,-276C961.539,-276 989.005,-363.227 999.253,-392.53"/>
<polygon fill="black" stroke="black" points="996.067,-393.989 1003,-402 1002.58,-391.414 996.067,-393.989"/>
<text text-anchor="middle" x="981.5" y="-350.8" font-family="Times,serif" font-size="14.00">1</text>
</g>
<!-- B7&#45;&gt;P9 -->
<g id="edge37" class="edge"><title>B7:a&#45;&gt;P9:a</title>
<path fill="none" stroke="black" d="M960,-276C975.229,-276 981.357,-276 992.888,-276"/>
<polygon fill="black" stroke="black" points="993,-279.5 1003,-276 993,-272.5 993,-279.5"/>
<text text-anchor="middle" x="981.5" y="-279.8" font-family="Times,serif" font-size="14.00">1</text>
</g>
<!-- B8&#45;&gt;P3 -->
<g id="edge41" class="edge"><title>B8:a&#45;&gt;P3:a</title>
<path fill="none" stroke="black" d="M1426,-184C1442.98,-184 1446.96,-196.543 1459.06,-201.247"/>
<polygon fill="black" stroke="black" points="1458.54,-204.709 1469,-203 1459.76,-197.815 1458.54,-204.709"/>
<text text-anchor="middle" x="1447.5" y="-200.8" font-family="Times,serif" font-size="14.00">1</text>
</g>
<!-- B9&#45;&gt;P5 -->
<g id="edge43" class="edge"><title>B9:a&#45;&gt;P5:a</title>
<path fill="none" stroke="black" d="M519,-203C613.874,-203 644.547,-204.068 727,-251 747.473,-262.653 744.2,-287.092 759.859,-294.09"/>
<polygon fill="black" stroke="black" points="759.525,-297.589 770,-296 760.821,-290.71 759.525,-297.589"/>
<text text-anchor="middle" x="627.5" y="-214.8" font-family="Times,serif" font-size="14.00">1</text>
</g>
<!-- B10&#45;&gt;P2 -->
<g id="edge47" class="edge"><title>B10:a&#45;&gt;P2:a</title>
<path fill="none" stroke="black" d="M1581,-79C1525.15,-79 1511.09,-99.2852 1469,-136 1454.32,-148.805 1454.34,-155.493 1444,-172 1435.34,-185.828 1437.4,-192.322 1426,-204 1406.28,-224.206 1349.1,-266.571 1315.14,-274.652"/>
<polygon fill="black" stroke="black" points="1314.45,-271.212 1305,-276 1315.37,-278.151 1314.45,-271.212"/>
<text text-anchor="middle" x="1447.5" y="-175.8" font-family="Times,serif" font-size="14.00">1</text>
</g>
</g>
</svg>
