<?xml version="1.0" encoding="UTF-8" standalone="no"?>
<!DOCTYPE svg PUBLIC "-//W3C//DTD SVG 1.1//EN"
 "http://www.w3.org/Graphics/SVG/1.1/DTD/svg11.dtd">
<!-- Generated by graphviz version 2.38.0 (20140413.2041)
 -->
<!-- Title: g Pages: 1 -->
<svg width="1475pt" height="305pt"
 viewBox="0.00 0.00 1475.00 304.50" xmlns="http://www.w3.org/2000/svg" xmlns:xlink="http://www.w3.org/1999/xlink">
<g id="graph0" class="graph" transform="scale(1 1) rotate(0) translate(4 300.5)">
<title>g</title>
<polygon fill="white" stroke="none" points="-4,4 -4,-300.5 1471,-300.5 1471,4 -4,4"/>
<!-- P0 -->
<g id="node1" class="node"><title>P0</title>
<polygon fill="none" stroke="black" points="233,-0.5 233,-69.5 302,-69.5 302,-0.5 233,-0.5"/>
<text text-anchor="middle" x="267.5" y="-54.3" font-family="Times,serif" font-size="14.00">Product 0</text>
<polyline fill="none" stroke="black" points="233,-46.5 302,-46.5 "/>
<text text-anchor="middle" x="267.5" y="-31.3" font-family="Times,serif" font-size="14.00">Value 5</text>
<polyline fill="none" stroke="black" points="233,-23.5 302,-23.5 "/>
<text text-anchor="middle" x="267.5" y="-8.3" font-family="Times,serif" font-size="14.00">Initial 5</text>
</g>
<!-- B9 -->
<g id="node20" class="node"><title>B9</title>
<path fill="none" stroke="black" d="M357,-32C357,-32 411,-32 411,-32 417,-32 423,-38 423,-44 423,-44 423,-66 423,-66 423,-72 417,-78 411,-78 411,-78 357,-78 357,-78 351,-78 345,-72 345,-66 345,-66 345,-44 345,-44 345,-38 351,-32 357,-32"/>
<text text-anchor="middle" x="384" y="-62.8" font-family="Times,serif" font-size="14.00">Blueprint 9</text>
<polyline fill="none" stroke="black" points="345,-55 423,-55 "/>
<text text-anchor="middle" x="384" y="-39.8" font-family="Times,serif" font-size="14.00">Coolant 3</text>
</g>
<!-- P0&#45;&gt;B9 -->
<g id="edge19" class="edge"><title>P0:a&#45;&gt;B9:a</title>
<path fill="none" stroke="black" d="M302,-58C317.559,-58 323.228,-63.7151 334.769,-66.0368"/>
<polygon fill="black" stroke="black" points="334.716,-69.5473 345,-67 335.372,-62.5781 334.716,-69.5473"/>
<text text-anchor="middle" x="323.5" y="-67.8" font-family="Times,serif" font-size="14.00">1</text>
</g>
<!-- P1 -->
<g id="node2" class="node"><title>P1</title>
<polygon fill="none" stroke="black" points="233,-88.5 233,-157.5 302,-157.5 302,-88.5 233,-88.5"/>
<text text-anchor="middle" x="267.5" y="-142.3" font-family="Times,serif" font-size="14.00">Product 1</text>
<polyline fill="none" stroke="black" points="233,-134.5 302,-134.5 "/>
<text text-anchor="middle" x="267.5" y="-119.3" font-family="Times,serif" font-size="14.00">Value 9</text>
<polyline fill="none" stroke="black" points="233,-111.5 302,-111.5 "/>
<text text-anchor="middle" x="267.5" y="-96.3" font-family="Times,serif" font-size="14.00">Initial 3</text>
</g>
<!-- B1 -->
<g id="node12" class="node"><title>B1</title>
<path fill="none" stroke="black" d="M357,-100C357,-100 411,-100 411,-100 417,-100 423,-106 423,-112 423,-112 423,-134 423,-134 423,-140 417,-146 411,-146 411,-146 357,-146 357,-146 351,-146 345,-140 345,-134 345,-134 345,-112 345,-112 345,-106 351,-100 357,-100"/>
<text text-anchor="middle" x="384" y="-130.8" font-family="Times,serif" font-size="14.00">Blueprint 1</text>
<polyline fill="none" stroke="black" points="345,-123 423,-123 "/>
<text text-anchor="middle" x="384" y="-107.8" font-family="Times,serif" font-size="14.00">Coolant 7</text>
</g>
<!-- P1&#45;&gt;B1 -->
<g id="edge3" class="edge"><title>P1:a&#45;&gt;B1:a</title>
<path fill="none" stroke="black" d="M302,-146C317.874,-146 323.271,-138.877 335.052,-136.095"/>
<polygon fill="black" stroke="black" points="335.443,-139.573 345,-135 334.677,-132.615 335.443,-139.573"/>
<text text-anchor="middle" x="323.5" y="-145.8" font-family="Times,serif" font-size="14.00">1</text>
</g>
<!-- P2 -->
<g id="node3" class="node"><title>P2</title>
<polygon fill="none" stroke="black" points="1165,-92.5 1165,-161.5 1234,-161.5 1234,-92.5 1165,-92.5"/>
<text text-anchor="middle" x="1199.5" y="-146.3" font-family="Times,serif" font-size="14.00">Product 2</text>
<polyline fill="none" stroke="black" points="1165,-138.5 1234,-138.5 "/>
<text text-anchor="middle" x="1199.5" y="-123.3" font-family="Times,serif" font-size="14.00">Value 9</text>
<polyline fill="none" stroke="black" points="1165,-115.5 1234,-115.5 "/>
<text text-anchor="middle" x="1199.5" y="-100.3" font-family="Times,serif" font-size="14.00">Initial 1</text>
</g>
<!-- B8 -->
<g id="node19" class="node"><title>B8</title>
<path fill="none" stroke="black" d="M1289,-115C1289,-115 1343,-115 1343,-115 1349,-115 1355,-121 1355,-127 1355,-127 1355,-149 1355,-149 1355,-155 1349,-161 1343,-161 1343,-161 1289,-161 1289,-161 1283,-161 1277,-155 1277,-149 1277,-149 1277,-127 1277,-127 1277,-121 1283,-115 1289,-115"/>
<text text-anchor="middle" x="1316" y="-145.8" font-family="Times,serif" font-size="14.00">Blueprint 8</text>
<polyline fill="none" stroke="black" points="1277,-138 1355,-138 "/>
<text text-anchor="middle" x="1316" y="-122.8" font-family="Times,serif" font-size="14.00">Coolant 1</text>
</g>
<!-- P2&#45;&gt;B8 -->
<g id="edge17" class="edge"><title>P2:a&#45;&gt;B8:a</title>
<path fill="none" stroke="black" d="M1234,-150C1249.23,-150 1255.36,-150 1266.89,-150"/>
<polygon fill="black" stroke="black" points="1267,-153.5 1277,-150 1267,-146.5 1267,-153.5"/>
<text text-anchor="middle" x="1255.5" y="-153.8" font-family="Times,serif" font-size="14.00">1</text>
</g>
<!-- P3 -->
<g id="node4" class="node"><title>P3</title>
<polygon fill="none" stroke="black" points="932,-92.5 932,-161.5 1001,-161.5 1001,-92.5 932,-92.5"/>
<text text-anchor="middle" x="966.5" y="-146.3" font-family="Times,serif" font-size="14.00">Product 3</text>
<polyline fill="none" stroke="black" points="932,-138.5 1001,-138.5 "/>
<text text-anchor="middle" x="966.5" y="-123.3" font-family="Times,serif" font-size="14.00">Value 5</text>
<polyline fill="none" stroke="black" points="932,-115.5 1001,-115.5 "/>
<text text-anchor="middle" x="966.5" y="-100.3" font-family="Times,serif" font-size="14.00">Initial 5</text>
</g>
<!-- B6 -->
<g id="node17" class="node"><title>B6</title>
<path fill="none" stroke="black" d="M1056,-115C1056,-115 1110,-115 1110,-115 1116,-115 1122,-121 1122,-127 1122,-127 1122,-149 1122,-149 1122,-155 1116,-161 1110,-161 1110,-161 1056,-161 1056,-161 1050,-161 1044,-155 1044,-149 1044,-149 1044,-127 1044,-127 1044,-121 1050,-115 1056,-115"/>
<text text-anchor="middle" x="1083" y="-145.8" font-family="Times,serif" font-size="14.00">Blueprint 6</text>
<polyline fill="none" stroke="black" points="1044,-138 1122,-138 "/>
<text text-anchor="middle" x="1083" y="-122.8" font-family="Times,serif" font-size="14.00">Coolant 1</text>
</g>
<!-- P3&#45;&gt;B6 -->
<g id="edge13" class="edge"><title>P3:a&#45;&gt;B6:a</title>
<path fill="none" stroke="black" d="M1001,-150C1016.23,-150 1022.36,-150 1033.89,-150"/>
<polygon fill="black" stroke="black" points="1034,-153.5 1044,-150 1034,-146.5 1034,-153.5"/>
<text text-anchor="middle" x="1022.5" y="-153.8" font-family="Times,serif" font-size="14.00">1</text>
</g>
<!-- P4 -->
<g id="node5" class="node"><title>P4</title>
<polygon fill="none" stroke="black" points="1398,-127.5 1398,-196.5 1467,-196.5 1467,-127.5 1398,-127.5"/>
<text text-anchor="middle" x="1432.5" y="-181.3" font-family="Times,serif" font-size="14.00">Product 4</text>
<polyline fill="none" stroke="black" points="1398,-173.5 1467,-173.5 "/>
<text text-anchor="middle" x="1432.5" y="-158.3" font-family="Times,serif" font-size="14.00">Value 8</text>
<polyline fill="none" stroke="black" points="1398,-150.5 1467,-150.5 "/>
<text text-anchor="middle" x="1432.5" y="-135.3" font-family="Times,serif" font-size="14.00">Initial 0</text>
</g>
<!-- P5 -->
<g id="node6" class="node"><title>P5</title>
<polygon fill="none" stroke="black" points="699,-92.5 699,-161.5 768,-161.5 768,-92.5 699,-92.5"/>
<text text-anchor="middle" x="733.5" y="-146.3" font-family="Times,serif" font-size="14.00">Product 5</text>
<polyline fill="none" stroke="black" points="699,-138.5 768,-138.5 "/>
<text text-anchor="middle" x="733.5" y="-123.3" font-family="Times,serif" font-size="14.00">Value 1</text>
<polyline fill="none" stroke="black" points="699,-115.5 768,-115.5 "/>
<text text-anchor="middle" x="733.5" y="-100.3" font-family="Times,serif" font-size="14.00">Initial 4</text>
</g>
<!-- B3 -->
<g id="node14" class="node"><title>B3</title>
<path fill="none" stroke="black" d="M823,-115C823,-115 877,-115 877,-115 883,-115 889,-121 889,-127 889,-127 889,-149 889,-149 889,-155 883,-161 877,-161 877,-161 823,-161 823,-161 817,-161 811,-155 811,-149 811,-149 811,-127 811,-127 811,-121 817,-115 823,-115"/>
<text text-anchor="middle" x="850" y="-145.8" font-family="Times,serif" font-size="14.00">Blueprint 3</text>
<polyline fill="none" stroke="black" points="811,-138 889,-138 "/>
<text text-anchor="middle" x="850" y="-122.8" font-family="Times,serif" font-size="14.00">Coolant 8</text>
</g>
<!-- P5&#45;&gt;B3 -->
<g id="edge7" class="edge"><title>P5:a&#45;&gt;B3:a</title>
<path fill="none" stroke="black" d="M768,-150C783.229,-150 789.357,-150 800.888,-150"/>
<polygon fill="black" stroke="black" points="801,-153.5 811,-150 801,-146.5 801,-153.5"/>
<text text-anchor="middle" x="789.5" y="-153.8" font-family="Times,serif" font-size="14.00">1</text>
</g>
<!-- P6 -->
<g id="node7" class="node"><title>P6</title>
<polygon fill="none" stroke="black" points="1165,-195.5 1165,-264.5 1234,-264.5 1234,-195.5 1165,-195.5"/>
<text text-anchor="middle" x="1199.5" y="-249.3" font-family="Times,serif" font-size="14.00">Product 6</text>
<polyline fill="none" stroke="black" points="1165,-241.5 1234,-241.5 "/>
<text text-anchor="middle" x="1199.5" y="-226.3" font-family="Times,serif" font-size="14.00">Value 6</text>
<polyline fill="none" stroke="black" points="1165,-218.5 1234,-218.5 "/>
<text text-anchor="middle" x="1199.5" y="-203.3" font-family="Times,serif" font-size="14.00">Initial 6</text>
</g>
<!-- B5 -->
<g id="node16" class="node"><title>B5</title>
<path fill="none" stroke="black" d="M1289,-250C1289,-250 1343,-250 1343,-250 1349,-250 1355,-256 1355,-262 1355,-262 1355,-284 1355,-284 1355,-290 1349,-296 1343,-296 1343,-296 1289,-296 1289,-296 1283,-296 1277,-290 1277,-284 1277,-284 1277,-262 1277,-262 1277,-256 1283,-250 1289,-250"/>
<text text-anchor="middle" x="1316" y="-280.8" font-family="Times,serif" font-size="14.00">Blueprint 5</text>
<polyline fill="none" stroke="black" points="1277,-273 1355,-273 "/>
<text text-anchor="middle" x="1316" y="-257.8" font-family="Times,serif" font-size="14.00">Coolant 4</text>
</g>
<!-- P6&#45;&gt;B5 -->
<g id="edge11" class="edge"><title>P6:a&#45;&gt;B5:a</title>
<path fill="none" stroke="black" d="M1234,-253C1244.7,-253 1243.47,-262.54 1252,-269 1259.07,-274.35 1261.97,-279.733 1267.11,-282.69"/>
<polygon fill="black" stroke="black" points="1266.47,-286.134 1277,-285 1268.06,-279.317 1266.47,-286.134"/>
<text text-anchor="middle" x="1255.5" y="-278.8" font-family="Times,serif" font-size="14.00">1</text>
</g>
<!-- B7 -->
<g id="node18" class="node"><title>B7</title>
<path fill="none" stroke="black" d="M1289,-180C1289,-180 1343,-180 1343,-180 1349,-180 1355,-186 1355,-192 1355,-192 1355,-214 1355,-214 1355,-220 1349,-226 1343,-226 1343,-226 1289,-226 1289,-226 1283,-226 1277,-220 1277,-214 1277,-214 1277,-192 1277,-192 1277,-186 1283,-180 1289,-180"/>
<text text-anchor="middle" x="1316" y="-210.8" font-family="Times,serif" font-size="14.00">Blueprint 7</text>
<polyline fill="none" stroke="black" points="1277,-203 1355,-203 "/>
<text text-anchor="middle" x="1316" y="-187.8" font-family="Times,serif" font-size="14.00">Coolant 8</text>
</g>
<!-- P6&#45;&gt;B7 -->
<g id="edge15" class="edge"><title>P6:a&#45;&gt;B7:a</title>
<path fill="none" stroke="black" d="M1234,-253C1252.29,-253 1236.69,-226.006 1252,-216 1257.96,-212.102 1261.98,-212.788 1267.02,-213.784"/>
<polygon fill="black" stroke="black" points="1266.65,-217.265 1277,-215 1267.5,-210.316 1266.65,-217.265"/>
<text text-anchor="middle" x="1255.5" y="-219.8" font-family="Times,serif" font-size="14.00">1</text>
</g>
<!-- P7 -->
<g id="node8" class="node"><title>P7</title>
<polygon fill="none" stroke="black" points="0,-0.5 0,-69.5 69,-69.5 69,-0.5 0,-0.5"/>
<text text-anchor="middle" x="34.5" y="-54.3" font-family="Times,serif" font-size="14.00">Product 7</text>
<polyline fill="none" stroke="black" points="0,-46.5 69,-46.5 "/>
<text text-anchor="middle" x="34.5" y="-31.3" font-family="Times,serif" font-size="14.00">Value 4</text>
<polyline fill="none" stroke="black" points="0,-23.5 69,-23.5 "/>
<text text-anchor="middle" x="34.5" y="-8.3" font-family="Times,serif" font-size="14.00">Initial 7</text>
</g>
<!-- B0 -->
<g id="node11" class="node"><title>B0</title>
<path fill="none" stroke="black" d="M124,-23C124,-23 178,-23 178,-23 184,-23 190,-29 190,-35 190,-35 190,-57 190,-57 190,-63 184,-69 178,-69 178,-69 124,-69 124,-69 118,-69 112,-63 112,-57 112,-57 112,-35 112,-35 112,-29 118,-23 124,-23"/>
<text text-anchor="middle" x="151" y="-53.8" font-family="Times,serif" font-size="14.00">Blueprint 0</text>
<polyline fill="none" stroke="black" points="112,-46 190,-46 "/>
<text text-anchor="middle" x="151" y="-30.8" font-family="Times,serif" font-size="14.00">Coolant 8</text>
</g>
<!-- P7&#45;&gt;B0 -->
<g id="edge1" class="edge"><title>P7:a&#45;&gt;B0:a</title>
<path fill="none" stroke="black" d="M69,-58C84.2292,-58 90.3565,-58 101.888,-58"/>
<polygon fill="black" stroke="black" points="102,-61.5001 112,-58 102,-54.5001 102,-61.5001"/>
<text text-anchor="middle" x="90.5" y="-61.8" font-family="Times,serif" font-size="14.00">1</text>
</g>
<!-- P8 -->
<g id="node9" class="node"><title>P8</title>
<polygon fill="none" stroke="black" points="466,-46.5 466,-115.5 535,-115.5 535,-46.5 466,-46.5"/>
<text text-anchor="middle" x="500.5" y="-100.3" font-family="Times,serif" font-size="14.00">Product 8</text>
<polyline fill="none" stroke="black" points="466,-92.5 535,-92.5 "/>
<text text-anchor="middle" x="500.5" y="-77.3" font-family="Times,serif" font-size="14.00">Value 8</text>
<polyline fill="none" stroke="black" points="466,-69.5 535,-69.5 "/>
<text text-anchor="middle" x="500.5" y="-54.3" font-family="Times,serif" font-size="14.00">Initial 2</text>
</g>
<!-- B4 -->
<g id="node15" class="node"><title>B4</title>
<path fill="none" stroke="black" d="M590,-78C590,-78 644,-78 644,-78 650,-78 656,-84 656,-90 656,-90 656,-112 656,-112 656,-118 650,-124 644,-124 644,-124 590,-124 590,-124 584,-124 578,-118 578,-112 578,-112 578,-90 578,-90 578,-84 584,-78 590,-78"/>
<text text-anchor="middle" x="617" y="-108.8" font-family="Times,serif" font-size="14.00">Blueprint 4</text>
<polyline fill="none" stroke="black" points="578,-101 656,-101 "/>
<text text-anchor="middle" x="617" y="-85.8" font-family="Times,serif" font-size="14.00">Coolant 9</text>
</g>
<!-- P8&#45;&gt;B4 -->
<g id="edge9" class="edge"><title>P8:a&#45;&gt;B4:a</title>
<path fill="none" stroke="black" d="M535,-104C550.559,-104 556.228,-109.715 567.769,-112.037"/>
<polygon fill="black" stroke="black" points="567.716,-115.547 578,-113 568.372,-108.578 567.716,-115.547"/>
<text text-anchor="middle" x="556.5" y="-113.8" font-family="Times,serif" font-size="14.00">1</text>
</g>
<!-- P9 -->
<g id="node10" class="node"><title>P9</title>
<polygon fill="none" stroke="black" points="466,-134.5 466,-203.5 535,-203.5 535,-134.5 466,-134.5"/>
<text text-anchor="middle" x="500.5" y="-188.3" font-family="Times,serif" font-size="14.00">Product 9</text>
<polyline fill="none" stroke="black" points="466,-180.5 535,-180.5 "/>
<text text-anchor="middle" x="500.5" y="-165.3" font-family="Times,serif" font-size="14.00">Value 6</text>
<polyline fill="none" stroke="black" points="466,-157.5 535,-157.5 "/>
<text text-anchor="middle" x="500.5" y="-142.3" font-family="Times,serif" font-size="14.00">Initial 4</text>
</g>
<!-- B2 -->
<g id="node13" class="node"><title>B2</title>
<path fill="none" stroke="black" d="M590,-146C590,-146 644,-146 644,-146 650,-146 656,-152 656,-158 656,-158 656,-180 656,-180 656,-186 650,-192 644,-192 644,-192 590,-192 590,-192 584,-192 578,-186 578,-180 578,-180 578,-158 578,-158 578,-152 584,-146 590,-146"/>
<text text-anchor="middle" x="617" y="-176.8" font-family="Times,serif" font-size="14.00">Blueprint 2</text>
<polyline fill="none" stroke="black" points="578,-169 656,-169 "/>
<text text-anchor="middle" x="617" y="-153.8" font-family="Times,serif" font-size="14.00">Coolant 1</text>
</g>
<!-- P9&#45;&gt;B2 -->
<g id="edge5" class="edge"><title>P9:a&#45;&gt;B2:a</title>
<path fill="none" stroke="black" d="M535,-192C550.874,-192 556.271,-184.877 568.052,-182.095"/>
<polygon fill="black" stroke="black" points="568.443,-185.573 578,-181 567.677,-178.615 568.443,-185.573"/>
<text text-anchor="middle" x="556.5" y="-190.8" font-family="Times,serif" font-size="14.00">1</text>
</g>
<!-- B0&#45;&gt;P0 -->
<g id="edge2" class="edge"><title>B0:a&#45;&gt;P0:a</title>
<path fill="none" stroke="black" d="M190,-58C205.229,-58 211.357,-58 222.888,-58"/>
<polygon fill="black" stroke="black" points="223,-61.5001 233,-58 223,-54.5001 223,-61.5001"/>
<text text-anchor="middle" x="211.5" y="-61.8" font-family="Times,serif" font-size="14.00">1</text>
</g>
<!-- B1&#45;&gt;P8 -->
<g id="edge4" class="edge"><title>B1:a&#45;&gt;P8:a</title>
<path fill="none" stroke="black" d="M423,-135C442.51,-135 443.039,-113.74 456.024,-106.433"/>
<polygon fill="black" stroke="black" points="457.114,-109.769 466,-104 455.455,-102.969 457.114,-109.769"/>
<text text-anchor="middle" x="444.5" y="-128.8" font-family="Times,serif" font-size="14.00">1</text>
</g>
<!-- B2&#45;&gt;P5 -->
<g id="edge6" class="edge"><title>B2:a&#45;&gt;P5:a</title>
<path fill="none" stroke="black" d="M656,-181C675.51,-181 676.039,-159.74 689.024,-152.433"/>
<polygon fill="black" stroke="black" points="690.114,-155.769 699,-150 688.455,-148.969 690.114,-155.769"/>
<text text-anchor="middle" x="677.5" y="-173.8" font-family="Times,serif" font-size="14.00">1</text>
</g>
<!-- B3&#45;&gt;P3 -->
<g id="edge8" class="edge"><title>B3:a&#45;&gt;P3:a</title>
<path fill="none" stroke="black" d="M889,-150C904.229,-150 910.357,-150 921.888,-150"/>
<polygon fill="black" stroke="black" points="922,-153.5 932,-150 922,-146.5 922,-153.5"/>
<text text-anchor="middle" x="910.5" y="-153.8" font-family="Times,serif" font-size="14.00">1</text>
</g>
<!-- B4&#45;&gt;P5 -->
<g id="edge10" class="edge"><title>B4:a&#45;&gt;P5:a</title>
<path fill="none" stroke="black" d="M656,-113C665.75,-113 678.6,-135.134 689.754,-145.163"/>
<polygon fill="black" stroke="black" points="688.517,-148.465 699,-150 691.762,-142.263 688.517,-148.465"/>
<text text-anchor="middle" x="677.5" y="-138.8" font-family="Times,serif" font-size="14.00">1</text>
</g>
<!-- B5&#45;&gt;P6 -->
<g id="edge12" class="edge"><title>B5:a&#45;&gt;P6:a</title>
<path fill="none" stroke="black" d="M1277,-285C1259.51,-285 1273.93,-259.111 1259,-250 1252.88,-246.266 1248.93,-248.547 1243.95,-250.669"/>
<polygon fill="black" stroke="black" points="1242.94,-247.311 1234,-253 1244.53,-254.126 1242.94,-247.311"/>
<text text-anchor="middle" x="1255.5" y="-253.8" font-family="Times,serif" font-size="14.00">1</text>
</g>
<!-- B6&#45;&gt;P2 -->
<g id="edge14" class="edge"><title>B6:a&#45;&gt;P2:a</title>
<path fill="none" stroke="black" d="M1122,-150C1137.23,-150 1143.36,-150 1154.89,-150"/>
<polygon fill="black" stroke="black" points="1155,-153.5 1165,-150 1155,-146.5 1155,-153.5"/>
<text text-anchor="middle" x="1143.5" y="-153.8" font-family="Times,serif" font-size="14.00">1</text>
</g>
<!-- B7&#45;&gt;P4 -->
<g id="edge16" class="edge"><title>B7:a&#45;&gt;P4:a</title>
<path fill="none" stroke="black" d="M1355,-215C1374.3,-215 1375.14,-194.426 1388.1,-187.354"/>
<polygon fill="black" stroke="black" points="1389.08,-190.718 1398,-185 1387.46,-183.907 1389.08,-190.718"/>
<text text-anchor="middle" x="1376.5" y="-207.8" font-family="Times,serif" font-size="14.00">1</text>
</g>
<!-- B8&#45;&gt;P4 -->
<g id="edge18" class="edge"><title>B8:a&#45;&gt;P4:a</title>
<path fill="none" stroke="black" d="M1355,-150C1359.62,-150 1378.03,-169.688 1389.55,-179.531"/>
<polygon fill="black" stroke="black" points="1387.7,-182.506 1398,-185 1391.51,-176.629 1387.7,-182.506"/>
<text text-anchor="middle" x="1376.5" y="-173.8" font-family="Times,serif" font-size="14.00">1</text>
</g>
<!-- B9&#45;&gt;P8 -->
<g id="edge20" class="edge"><title>B9:a&#45;&gt;P8:a</title>
<path fill="none" stroke="black" d="M423,-67C432.75,-67 445.6,-89.1336 456.754,-99.1629"/>
<polygon fill="black" stroke="black" points="455.517,-102.465 466,-104 458.762,-96.2631 455.517,-102.465"/>
<text text-anchor="middle" x="444.5" y="-92.8" font-family="Times,serif" font-size="14.00">1</text>
</g>
</g>
</svg>
