<?xml version="1.0" encoding="UTF-8" standalone="no"?>
<!DOCTYPE svg PUBLIC "-//W3C//DTD SVG 1.1//EN"
 "http://www.w3.org/Graphics/SVG/1.1/DTD/svg11.dtd">
<!-- Generated by graphviz version 2.38.0 (20140413.2041)
 -->
<!-- Title: g Pages: 1 -->
<svg width="314pt" height="518pt"
 viewBox="0.00 0.00 314.00 518.00" xmlns="http://www.w3.org/2000/svg" xmlns:xlink="http://www.w3.org/1999/xlink">
<g id="graph0" class="graph" transform="scale(1 1) rotate(0) translate(4 514)">
<title>g</title>
<polygon fill="white" stroke="none" points="-4,4 -4,-514 310,-514 310,4 -4,4"/>
<!-- P0 -->
<g id="node1" class="node"><title>P0</title>
<polygon fill="none" stroke="black" points="0,-220.5 0,-289.5 73,-289.5 73,-220.5 0,-220.5"/>
<text text-anchor="middle" x="36.5" y="-274.3" font-family="Times,serif" font-size="14.00">Product 0</text>
<polyline fill="none" stroke="black" points="0,-266.5 73,-266.5 "/>
<text text-anchor="middle" x="36.5" y="-251.3" font-family="Times,serif" font-size="14.00">Value 100</text>
<polyline fill="none" stroke="black" points="0,-243.5 73,-243.5 "/>
<text text-anchor="middle" x="36.5" y="-228.3" font-family="Times,serif" font-size="14.00">Initial 1</text>
</g>
<!-- B0 -->
<g id="node8" class="node"><title>B0</title>
<path fill="none" stroke="black" d="M128,-375C128,-375 182,-375 182,-375 188,-375 194,-381 194,-387 194,-387 194,-409 194,-409 194,-415 188,-421 182,-421 182,-421 128,-421 128,-421 122,-421 116,-415 116,-409 116,-409 116,-387 116,-387 116,-381 122,-375 128,-375"/>
<text text-anchor="middle" x="155" y="-405.8" font-family="Times,serif" font-size="14.00">Blueprint 0</text>
<polyline fill="none" stroke="black" points="116,-398 194,-398 "/>
<text text-anchor="middle" x="155" y="-382.8" font-family="Times,serif" font-size="14.00">Coolant 1</text>
</g>
<!-- P0&#45;&gt;B0 -->
<g id="edge1" class="edge"><title>P0:a&#45;&gt;B0:a</title>
<path fill="none" stroke="black" d="M73,-278C100.235,-278 88.8521,-380.875 107.036,-404.987"/>
<polygon fill="black" stroke="black" points="105.564,-408.173 116,-410 108.981,-402.064 105.564,-408.173"/>
<text text-anchor="middle" x="94.5" y="-377.8" font-family="Times,serif" font-size="14.00">1</text>
</g>
<!-- B1 -->
<g id="node9" class="node"><title>B1</title>
<path fill="none" stroke="black" d="M128,-243C128,-243 182,-243 182,-243 188,-243 194,-249 194,-255 194,-255 194,-277 194,-277 194,-283 188,-289 182,-289 182,-289 128,-289 128,-289 122,-289 116,-283 116,-277 116,-277 116,-255 116,-255 116,-249 122,-243 128,-243"/>
<text text-anchor="middle" x="155" y="-273.8" font-family="Times,serif" font-size="14.00">Blueprint 1</text>
<polyline fill="none" stroke="black" points="116,-266 194,-266 "/>
<text text-anchor="middle" x="155" y="-250.8" font-family="Times,serif" font-size="14.00">Coolant 1</text>
</g>
<!-- P0&#45;&gt;B1 -->
<g id="edge4" class="edge"><title>P0:a&#45;&gt;B1:a</title>
<path fill="none" stroke="black" d="M73,-278C88.2292,-278 94.3565,-278 105.888,-278"/>
<polygon fill="black" stroke="black" points="106,-281.5 116,-278 106,-274.5 106,-281.5"/>
<text text-anchor="middle" x="94.5" y="-281.8" font-family="Times,serif" font-size="14.00">1</text>
</g>
<!-- B2 -->
<g id="node10" class="node"><title>B2</title>
<path fill="none" stroke="black" d="M128,-111C128,-111 182,-111 182,-111 188,-111 194,-117 194,-123 194,-123 194,-145 194,-145 194,-151 188,-157 182,-157 182,-157 128,-157 128,-157 122,-157 116,-151 116,-145 116,-145 116,-123 116,-123 116,-117 122,-111 128,-111"/>
<text text-anchor="middle" x="155" y="-141.8" font-family="Times,serif" font-size="14.00">Blueprint 2</text>
<polyline fill="none" stroke="black" points="116,-134 194,-134 "/>
<text text-anchor="middle" x="155" y="-118.8" font-family="Times,serif" font-size="14.00">Coolant 1</text>
</g>
<!-- P0&#45;&gt;B2 -->
<g id="edge7" class="edge"><title>P0:a&#45;&gt;B2:a</title>
<path fill="none" stroke="black" d="M73,-278C100.235,-278 88.8521,-175.125 107.036,-151.013"/>
<polygon fill="black" stroke="black" points="108.981,-153.936 116,-146 105.564,-147.827 108.981,-153.936"/>
<text text-anchor="middle" x="94.5" y="-245.8" font-family="Times,serif" font-size="14.00">1</text>
</g>
<!-- P1 -->
<g id="node2" class="node"><title>P1</title>
<polygon fill="none" stroke="black" points="237,-440.5 237,-509.5 306,-509.5 306,-440.5 237,-440.5"/>
<text text-anchor="middle" x="271.5" y="-494.3" font-family="Times,serif" font-size="14.00">Product 1</text>
<polyline fill="none" stroke="black" points="237,-486.5 306,-486.5 "/>
<text text-anchor="middle" x="271.5" y="-471.3" font-family="Times,serif" font-size="14.00">Value 10</text>
<polyline fill="none" stroke="black" points="237,-463.5 306,-463.5 "/>
<text text-anchor="middle" x="271.5" y="-448.3" font-family="Times,serif" font-size="14.00">Initial 0</text>
</g>
<!-- P2 -->
<g id="node3" class="node"><title>P2</title>
<polygon fill="none" stroke="black" points="237,-264.5 237,-333.5 306,-333.5 306,-264.5 237,-264.5"/>
<text text-anchor="middle" x="271.5" y="-318.3" font-family="Times,serif" font-size="14.00">Product 2</text>
<polyline fill="none" stroke="black" points="237,-310.5 306,-310.5 "/>
<text text-anchor="middle" x="271.5" y="-295.3" font-family="Times,serif" font-size="14.00">Value 20</text>
<polyline fill="none" stroke="black" points="237,-287.5 306,-287.5 "/>
<text text-anchor="middle" x="271.5" y="-272.3" font-family="Times,serif" font-size="14.00">Initial 0</text>
</g>
<!-- P3 -->
<g id="node4" class="node"><title>P3</title>
<polygon fill="none" stroke="black" points="237,-88.5 237,-157.5 306,-157.5 306,-88.5 237,-88.5"/>
<text text-anchor="middle" x="271.5" y="-142.3" font-family="Times,serif" font-size="14.00">Product 3</text>
<polyline fill="none" stroke="black" points="237,-134.5 306,-134.5 "/>
<text text-anchor="middle" x="271.5" y="-119.3" font-family="Times,serif" font-size="14.00">Value 30</text>
<polyline fill="none" stroke="black" points="237,-111.5 306,-111.5 "/>
<text text-anchor="middle" x="271.5" y="-96.3" font-family="Times,serif" font-size="14.00">Initial 0</text>
</g>
<!-- P4 -->
<g id="node5" class="node"><title>P4</title>
<polygon fill="none" stroke="black" points="237,-352.5 237,-421.5 306,-421.5 306,-352.5 237,-352.5"/>
<text text-anchor="middle" x="271.5" y="-406.3" font-family="Times,serif" font-size="14.00">Product 4</text>
<polyline fill="none" stroke="black" points="237,-398.5 306,-398.5 "/>
<text text-anchor="middle" x="271.5" y="-383.3" font-family="Times,serif" font-size="14.00">Value &#45;4</text>
<polyline fill="none" stroke="black" points="237,-375.5 306,-375.5 "/>
<text text-anchor="middle" x="271.5" y="-360.3" font-family="Times,serif" font-size="14.00">Initial 0</text>
</g>
<!-- P5 -->
<g id="node6" class="node"><title>P5</title>
<polygon fill="none" stroke="black" points="237,-176.5 237,-245.5 306,-245.5 306,-176.5 237,-176.5"/>
<text text-anchor="middle" x="271.5" y="-230.3" font-family="Times,serif" font-size="14.00">Product 5</text>
<polyline fill="none" stroke="black" points="237,-222.5 306,-222.5 "/>
<text text-anchor="middle" x="271.5" y="-207.3" font-family="Times,serif" font-size="14.00">Value &#45;5</text>
<polyline fill="none" stroke="black" points="237,-199.5 306,-199.5 "/>
<text text-anchor="middle" x="271.5" y="-184.3" font-family="Times,serif" font-size="14.00">Initial 0</text>
</g>
<!-- P6 -->
<g id="node7" class="node"><title>P6</title>
<polygon fill="none" stroke="black" points="237,-0.5 237,-69.5 306,-69.5 306,-0.5 237,-0.5"/>
<text text-anchor="middle" x="271.5" y="-54.3" font-family="Times,serif" font-size="14.00">Product 6</text>
<polyline fill="none" stroke="black" points="237,-46.5 306,-46.5 "/>
<text text-anchor="middle" x="271.5" y="-31.3" font-family="Times,serif" font-size="14.00">Value &#45;6</text>
<polyline fill="none" stroke="black" points="237,-23.5 306,-23.5 "/>
<text text-anchor="middle" x="271.5" y="-8.3" font-family="Times,serif" font-size="14.00">Initial 0</text>
</g>
<!-- B0&#45;&gt;P1 -->
<g id="edge2" class="edge"><title>B0:a&#45;&gt;P1:a</title>
<path fill="none" stroke="black" d="M194,-410C212.449,-410 214.879,-473.23 228.447,-492.495"/>
<polygon fill="black" stroke="black" points="226.697,-495.531 237,-498 230.485,-489.645 226.697,-495.531"/>
<text text-anchor="middle" x="215.5" y="-470.8" font-family="Times,serif" font-size="14.00">1</text>
</g>
<!-- B0&#45;&gt;P4 -->
<g id="edge3" class="edge"><title>B0:a&#45;&gt;P4:a</title>
<path fill="none" stroke="black" d="M194,-410C209.229,-410 215.357,-410 226.888,-410"/>
<polygon fill="black" stroke="black" points="227,-413.5 237,-410 227,-406.5 227,-413.5"/>
<text text-anchor="middle" x="215.5" y="-413.8" font-family="Times,serif" font-size="14.00">1</text>
</g>
<!-- B1&#45;&gt;P2 -->
<g id="edge5" class="edge"><title>B1:a&#45;&gt;P2:a</title>
<path fill="none" stroke="black" d="M194,-278C217.285,-278 212.266,-309.907 227.148,-319.379"/>
<polygon fill="black" stroke="black" points="226.436,-322.812 237,-322 228.236,-316.047 226.436,-322.812"/>
<text text-anchor="middle" x="215.5" y="-310.8" font-family="Times,serif" font-size="14.00">1</text>
</g>
<!-- B1&#45;&gt;P5 -->
<g id="edge6" class="edge"><title>B1:a&#45;&gt;P5:a</title>
<path fill="none" stroke="black" d="M194,-278C217.285,-278 212.266,-246.093 227.148,-236.621"/>
<polygon fill="black" stroke="black" points="228.236,-239.953 237,-234 226.436,-233.188 228.236,-239.953"/>
<text text-anchor="middle" x="215.5" y="-266.8" font-family="Times,serif" font-size="14.00">1</text>
</g>
<!-- B2&#45;&gt;P3 -->
<g id="edge8" class="edge"><title>B2:a&#45;&gt;P3:a</title>
<path fill="none" stroke="black" d="M194,-146C209.229,-146 215.357,-146 226.888,-146"/>
<polygon fill="black" stroke="black" points="227,-149.5 237,-146 227,-142.5 227,-149.5"/>
<text text-anchor="middle" x="215.5" y="-149.8" font-family="Times,serif" font-size="14.00">1</text>
</g>
<!-- B2&#45;&gt;P6 -->
<g id="edge9" class="edge"><title>B2:a&#45;&gt;P6:a</title>
<path fill="none" stroke="black" d="M194,-146C212.449,-146 214.879,-82.7701 228.447,-63.5048"/>
<polygon fill="black" stroke="black" points="230.485,-66.3553 237,-58 226.697,-60.4691 230.485,-66.3553"/>
<text text-anchor="middle" x="215.5" y="-119.8" font-family="Times,serif" font-size="14.00">1</text>
</g>
</g>
</svg>
