<?xml version="1.0" encoding="UTF-8" standalone="no"?>
<!DOCTYPE svg PUBLIC "-//W3C//DTD SVG 1.1//EN"
 "http://www.w3.org/Graphics/SVG/1.1/DTD/svg11.dtd">
<!-- Generated by graphviz version 2.38.0 (20140413.2041)
 -->
<!-- Title: g Pages: 1 -->
<svg width="198pt" height="697pt"
 viewBox="0.00 0.00 198.00 697.00" xmlns="http://www.w3.org/2000/svg" xmlns:xlink="http://www.w3.org/1999/xlink">
<g id="graph0" class="graph" transform="scale(1 1) rotate(0) translate(4 693)">
<title>g</title>
<polygon fill="white" stroke="none" points="-4,4 -4,-693 194,-693 194,4 -4,4"/>
<!-- P0 -->
<g id="node1" class="node"><title>P0</title>
<polygon fill="none" stroke="black" points="121,-0.5 121,-69.5 190,-69.5 190,-0.5 121,-0.5"/>
<text text-anchor="middle" x="155.5" y="-54.3" font-family="Times,serif" font-size="14.00">Product 0</text>
<polyline fill="none" stroke="black" points="121,-46.5 190,-46.5 "/>
<text text-anchor="middle" x="155.5" y="-31.3" font-family="Times,serif" font-size="14.00">Value 8</text>
<polyline fill="none" stroke="black" points="121,-23.5 190,-23.5 "/>
<text text-anchor="middle" x="155.5" y="-8.3" font-family="Times,serif" font-size="14.00">Initial 0</text>
</g>
<!-- P1 -->
<g id="node2" class="node"><title>P1</title>
<polygon fill="none" stroke="black" points="121,-88.5 121,-157.5 190,-157.5 190,-88.5 121,-88.5"/>
<text text-anchor="middle" x="155.5" y="-142.3" font-family="Times,serif" font-size="14.00">Product 1</text>
<polyline fill="none" stroke="black" points="121,-134.5 190,-134.5 "/>
<text text-anchor="middle" x="155.5" y="-119.3" font-family="Times,serif" font-size="14.00">Value 7</text>
<polyline fill="none" stroke="black" points="121,-111.5 190,-111.5 "/>
<text text-anchor="middle" x="155.5" y="-96.3" font-family="Times,serif" font-size="14.00">Initial 0</text>
</g>
<!-- P2 -->
<g id="node3" class="node"><title>P2</title>
<polygon fill="none" stroke="black" points="121,-176.5 121,-245.5 190,-245.5 190,-176.5 121,-176.5"/>
<text text-anchor="middle" x="155.5" y="-230.3" font-family="Times,serif" font-size="14.00">Product 2</text>
<polyline fill="none" stroke="black" points="121,-222.5 190,-222.5 "/>
<text text-anchor="middle" x="155.5" y="-207.3" font-family="Times,serif" font-size="14.00">Value 6</text>
<polyline fill="none" stroke="black" points="121,-199.5 190,-199.5 "/>
<text text-anchor="middle" x="155.5" y="-184.3" font-family="Times,serif" font-size="14.00">Initial 0</text>
</g>
<!-- P3 -->
<g id="node4" class="node"><title>P3</title>
<polygon fill="none" stroke="black" points="121,-264.5 121,-333.5 190,-333.5 190,-264.5 121,-264.5"/>
<text text-anchor="middle" x="155.5" y="-318.3" font-family="Times,serif" font-size="14.00">Product 3</text>
<polyline fill="none" stroke="black" points="121,-310.5 190,-310.5 "/>
<text text-anchor="middle" x="155.5" y="-295.3" font-family="Times,serif" font-size="14.00">Value 5</text>
<polyline fill="none" stroke="black" points="121,-287.5 190,-287.5 "/>
<text text-anchor="middle" x="155.5" y="-272.3" font-family="Times,serif" font-size="14.00">Initial 0</text>
</g>
<!-- P4 -->
<g id="node5" class="node"><title>P4</title>
<polygon fill="none" stroke="black" points="121,-352.5 121,-421.5 190,-421.5 190,-352.5 121,-352.5"/>
<text text-anchor="middle" x="155.5" y="-406.3" font-family="Times,serif" font-size="14.00">Product 4</text>
<polyline fill="none" stroke="black" points="121,-398.5 190,-398.5 "/>
<text text-anchor="middle" x="155.5" y="-383.3" font-family="Times,serif" font-size="14.00">Value 4</text>
<polyline fill="none" stroke="black" points="121,-375.5 190,-375.5 "/>
<text text-anchor="middle" x="155.5" y="-360.3" font-family="Times,serif" font-size="14.00">Initial 0</text>
</g>
<!-- P5 -->
<g id="node6" class="node"><title>P5</title>
<polygon fill="none" stroke="black" points="121,-440.5 121,-509.5 190,-509.5 190,-440.5 121,-440.5"/>
<text text-anchor="middle" x="155.5" y="-494.3" font-family="Times,serif" font-size="14.00">Product 5</text>
<polyline fill="none" stroke="black" points="121,-486.5 190,-486.5 "/>
<text text-anchor="middle" x="155.5" y="-471.3" font-family="Times,serif" font-size="14.00">Value 3</text>
<polyline fill="none" stroke="black" points="121,-463.5 190,-463.5 "/>
<text text-anchor="middle" x="155.5" y="-448.3" font-family="Times,serif" font-size="14.00">Initial 0</text>
</g>
<!-- P6 -->
<g id="node7" class="node"><title>P6</title>
<polygon fill="none" stroke="black" points="121,-528.5 121,-597.5 190,-597.5 190,-528.5 121,-528.5"/>
<text text-anchor="middle" x="155.5" y="-582.3" font-family="Times,serif" font-size="14.00">Product 6</text>
<polyline fill="none" stroke="black" points="121,-574.5 190,-574.5 "/>
<text text-anchor="middle" x="155.5" y="-559.3" font-family="Times,serif" font-size="14.00">Value 2</text>
<polyline fill="none" stroke="black" points="121,-551.5 190,-551.5 "/>
<text text-anchor="middle" x="155.5" y="-536.3" font-family="Times,serif" font-size="14.00">Initial 0</text>
</g>
<!-- P7 -->
<g id="node8" class="node"><title>P7</title>
<polygon fill="none" stroke="black" points="121,-616.5 121,-685.5 190,-685.5 190,-616.5 121,-616.5"/>
<text text-anchor="middle" x="155.5" y="-670.3" font-family="Times,serif" font-size="14.00">Product 7</text>
<polyline fill="none" stroke="black" points="121,-662.5 190,-662.5 "/>
<text text-anchor="middle" x="155.5" y="-647.3" font-family="Times,serif" font-size="14.00">Value 1</text>
<polyline fill="none" stroke="black" points="121,-639.5 190,-639.5 "/>
<text text-anchor="middle" x="155.5" y="-624.3" font-family="Times,serif" font-size="14.00">Initial 0</text>
</g>
<!-- B0 -->
<g id="node9" class="node"><title>B0</title>
<path fill="none" stroke="black" d="M12,-23C12,-23 66,-23 66,-23 72,-23 78,-29 78,-35 78,-35 78,-57 78,-57 78,-63 72,-69 66,-69 66,-69 12,-69 12,-69 6,-69 0,-63 0,-57 0,-57 0,-35 0,-35 0,-29 6,-23 12,-23"/>
<text text-anchor="middle" x="39" y="-53.8" font-family="Times,serif" font-size="14.00">Blueprint 0</text>
<polyline fill="none" stroke="black" points="0,-46 78,-46 "/>
<text text-anchor="middle" x="39" y="-30.8" font-family="Times,serif" font-size="14.00">Coolant 1</text>
</g>
<!-- B0&#45;&gt;P0 -->
<g id="edge1" class="edge"><title>B0:a&#45;&gt;P0:a</title>
<path fill="none" stroke="black" d="M78,-58C93.2292,-58 99.3565,-58 110.888,-58"/>
<polygon fill="black" stroke="black" points="111,-61.5001 121,-58 111,-54.5001 111,-61.5001"/>
<text text-anchor="middle" x="99.5" y="-61.8" font-family="Times,serif" font-size="14.00">1</text>
</g>
<!-- B1 -->
<g id="node10" class="node"><title>B1</title>
<path fill="none" stroke="black" d="M12,-111C12,-111 66,-111 66,-111 72,-111 78,-117 78,-123 78,-123 78,-145 78,-145 78,-151 72,-157 66,-157 66,-157 12,-157 12,-157 6,-157 0,-151 0,-145 0,-145 0,-123 0,-123 0,-117 6,-111 12,-111"/>
<text text-anchor="middle" x="39" y="-141.8" font-family="Times,serif" font-size="14.00">Blueprint 1</text>
<polyline fill="none" stroke="black" points="0,-134 78,-134 "/>
<text text-anchor="middle" x="39" y="-118.8" font-family="Times,serif" font-size="14.00">Coolant 1</text>
</g>
<!-- B1&#45;&gt;P1 -->
<g id="edge2" class="edge"><title>B1:a&#45;&gt;P1:a</title>
<path fill="none" stroke="black" d="M78,-146C93.2292,-146 99.3565,-146 110.888,-146"/>
<polygon fill="black" stroke="black" points="111,-149.5 121,-146 111,-142.5 111,-149.5"/>
<text text-anchor="middle" x="99.5" y="-149.8" font-family="Times,serif" font-size="14.00">1</text>
</g>
<!-- B2 -->
<g id="node11" class="node"><title>B2</title>
<path fill="none" stroke="black" d="M12,-199C12,-199 66,-199 66,-199 72,-199 78,-205 78,-211 78,-211 78,-233 78,-233 78,-239 72,-245 66,-245 66,-245 12,-245 12,-245 6,-245 0,-239 0,-233 0,-233 0,-211 0,-211 0,-205 6,-199 12,-199"/>
<text text-anchor="middle" x="39" y="-229.8" font-family="Times,serif" font-size="14.00">Blueprint 2</text>
<polyline fill="none" stroke="black" points="0,-222 78,-222 "/>
<text text-anchor="middle" x="39" y="-206.8" font-family="Times,serif" font-size="14.00">Coolant 1</text>
</g>
<!-- B2&#45;&gt;P2 -->
<g id="edge3" class="edge"><title>B2:a&#45;&gt;P2:a</title>
<path fill="none" stroke="black" d="M78,-234C93.2292,-234 99.3565,-234 110.888,-234"/>
<polygon fill="black" stroke="black" points="111,-237.5 121,-234 111,-230.5 111,-237.5"/>
<text text-anchor="middle" x="99.5" y="-237.8" font-family="Times,serif" font-size="14.00">1</text>
</g>
<!-- B3 -->
<g id="node12" class="node"><title>B3</title>
<path fill="none" stroke="black" d="M12,-287C12,-287 66,-287 66,-287 72,-287 78,-293 78,-299 78,-299 78,-321 78,-321 78,-327 72,-333 66,-333 66,-333 12,-333 12,-333 6,-333 0,-327 0,-321 0,-321 0,-299 0,-299 0,-293 6,-287 12,-287"/>
<text text-anchor="middle" x="39" y="-317.8" font-family="Times,serif" font-size="14.00">Blueprint 3</text>
<polyline fill="none" stroke="black" points="0,-310 78,-310 "/>
<text text-anchor="middle" x="39" y="-294.8" font-family="Times,serif" font-size="14.00">Coolant 1</text>
</g>
<!-- B3&#45;&gt;P3 -->
<g id="edge4" class="edge"><title>B3:a&#45;&gt;P3:a</title>
<path fill="none" stroke="black" d="M78,-322C93.2292,-322 99.3565,-322 110.888,-322"/>
<polygon fill="black" stroke="black" points="111,-325.5 121,-322 111,-318.5 111,-325.5"/>
<text text-anchor="middle" x="99.5" y="-325.8" font-family="Times,serif" font-size="14.00">1</text>
</g>
<!-- B4 -->
<g id="node13" class="node"><title>B4</title>
<path fill="none" stroke="black" d="M12,-375C12,-375 66,-375 66,-375 72,-375 78,-381 78,-387 78,-387 78,-409 78,-409 78,-415 72,-421 66,-421 66,-421 12,-421 12,-421 6,-421 0,-415 0,-409 0,-409 0,-387 0,-387 0,-381 6,-375 12,-375"/>
<text text-anchor="middle" x="39" y="-405.8" font-family="Times,serif" font-size="14.00">Blueprint 4</text>
<polyline fill="none" stroke="black" points="0,-398 78,-398 "/>
<text text-anchor="middle" x="39" y="-382.8" font-family="Times,serif" font-size="14.00">Coolant 1</text>
</g>
<!-- B4&#45;&gt;P4 -->
<g id="edge5" class="edge"><title>B4:a&#45;&gt;P4:a</title>
<path fill="none" stroke="black" d="M78,-410C93.2292,-410 99.3565,-410 110.888,-410"/>
<polygon fill="black" stroke="black" points="111,-413.5 121,-410 111,-406.5 111,-413.5"/>
<text text-anchor="middle" x="99.5" y="-413.8" font-family="Times,serif" font-size="14.00">1</text>
</g>
<!-- B5 -->
<g id="node14" class="node"><title>B5</title>
<path fill="none" stroke="black" d="M12,-463C12,-463 66,-463 66,-463 72,-463 78,-469 78,-475 78,-475 78,-497 78,-497 78,-503 72,-509 66,-509 66,-509 12,-509 12,-509 6,-509 0,-503 0,-497 0,-497 0,-475 0,-475 0,-469 6,-463 12,-463"/>
<text text-anchor="middle" x="39" y="-493.8" font-family="Times,serif" font-size="14.00">Blueprint 5</text>
<polyline fill="none" stroke="black" points="0,-486 78,-486 "/>
<text text-anchor="middle" x="39" y="-470.8" font-family="Times,serif" font-size="14.00">Coolant 1</text>
</g>
<!-- B5&#45;&gt;P5 -->
<g id="edge6" class="edge"><title>B5:a&#45;&gt;P5:a</title>
<path fill="none" stroke="black" d="M78,-498C93.2292,-498 99.3565,-498 110.888,-498"/>
<polygon fill="black" stroke="black" points="111,-501.5 121,-498 111,-494.5 111,-501.5"/>
<text text-anchor="middle" x="99.5" y="-501.8" font-family="Times,serif" font-size="14.00">1</text>
</g>
<!-- B6 -->
<g id="node15" class="node"><title>B6</title>
<path fill="none" stroke="black" d="M12,-551C12,-551 66,-551 66,-551 72,-551 78,-557 78,-563 78,-563 78,-585 78,-585 78,-591 72,-597 66,-597 66,-597 12,-597 12,-597 6,-597 0,-591 0,-585 0,-585 0,-563 0,-563 0,-557 6,-551 12,-551"/>
<text text-anchor="middle" x="39" y="-581.8" font-family="Times,serif" font-size="14.00">Blueprint 6</text>
<polyline fill="none" stroke="black" points="0,-574 78,-574 "/>
<text text-anchor="middle" x="39" y="-558.8" font-family="Times,serif" font-size="14.00">Coolant 1</text>
</g>
<!-- B6&#45;&gt;P6 -->
<g id="edge7" class="edge"><title>B6:a&#45;&gt;P6:a</title>
<path fill="none" stroke="black" d="M78,-586C93.2292,-586 99.3565,-586 110.888,-586"/>
<polygon fill="black" stroke="black" points="111,-589.5 121,-586 111,-582.5 111,-589.5"/>
<text text-anchor="middle" x="99.5" y="-589.8" font-family="Times,serif" font-size="14.00">1</text>
</g>
<!-- B7 -->
<g id="node16" class="node"><title>B7</title>
<path fill="none" stroke="black" d="M12,-639C12,-639 66,-639 66,-639 72,-639 78,-645 78,-651 78,-651 78,-673 78,-673 78,-679 72,-685 66,-685 66,-685 12,-685 12,-685 6,-685 0,-679 0,-673 0,-673 0,-651 0,-651 0,-645 6,-639 12,-639"/>
<text text-anchor="middle" x="39" y="-669.8" font-family="Times,serif" font-size="14.00">Blueprint 7</text>
<polyline fill="none" stroke="black" points="0,-662 78,-662 "/>
<text text-anchor="middle" x="39" y="-646.8" font-family="Times,serif" font-size="14.00">Coolant 1</text>
</g>
<!-- B7&#45;&gt;P7 -->
<g id="edge8" class="edge"><title>B7:a&#45;&gt;P7:a</title>
<path fill="none" stroke="black" d="M78,-674C93.2292,-674 99.3565,-674 110.888,-674"/>
<polygon fill="black" stroke="black" points="111,-677.5 121,-674 111,-670.5 111,-677.5"/>
<text text-anchor="middle" x="99.5" y="-677.8" font-family="Times,serif" font-size="14.00">1</text>
</g>
</g>
</svg>
