<?xml version="1.0" encoding="UTF-8" standalone="no"?>
<!DOCTYPE svg PUBLIC "-//W3C//DTD SVG 1.1//EN"
 "http://www.w3.org/Graphics/SVG/1.1/DTD/svg11.dtd">
<!-- Generated by graphviz version 2.38.0 (20140413.2041)
 -->
<!-- Title: g Pages: 1 -->
<svg width="202pt" height="785pt"
 viewBox="0.00 0.00 202.00 785.00" xmlns="http://www.w3.org/2000/svg" xmlns:xlink="http://www.w3.org/1999/xlink">
<g id="graph0" class="graph" transform="scale(1 1) rotate(0) translate(4 781)">
<title>g</title>
<polygon fill="white" stroke="none" points="-4,4 -4,-781 198,-781 198,4 -4,4"/>
<!-- P0 -->
<g id="node1" class="node"><title>P0</title>
<polygon fill="none" stroke="black" points="123,-0.5 123,-69.5 192,-69.5 192,-0.5 123,-0.5"/>
<text text-anchor="middle" x="157.5" y="-54.3" font-family="Times,serif" font-size="14.00">Product 0</text>
<polyline fill="none" stroke="black" points="123,-46.5 192,-46.5 "/>
<text text-anchor="middle" x="157.5" y="-31.3" font-family="Times,serif" font-size="14.00">Value 1</text>
<polyline fill="none" stroke="black" points="123,-23.5 192,-23.5 "/>
<text text-anchor="middle" x="157.5" y="-8.3" font-family="Times,serif" font-size="14.00">Initial 0</text>
</g>
<!-- P1 -->
<g id="node2" class="node"><title>P1</title>
<polygon fill="none" stroke="black" points="123,-88.5 123,-157.5 192,-157.5 192,-88.5 123,-88.5"/>
<text text-anchor="middle" x="157.5" y="-142.3" font-family="Times,serif" font-size="14.00">Product 1</text>
<polyline fill="none" stroke="black" points="123,-134.5 192,-134.5 "/>
<text text-anchor="middle" x="157.5" y="-119.3" font-family="Times,serif" font-size="14.00">Value 2</text>
<polyline fill="none" stroke="black" points="123,-111.5 192,-111.5 "/>
<text text-anchor="middle" x="157.5" y="-96.3" font-family="Times,serif" font-size="14.00">Initial 0</text>
</g>
<!-- P2 -->
<g id="node3" class="node"><title>P2</title>
<polygon fill="none" stroke="black" points="123,-176.5 123,-245.5 192,-245.5 192,-176.5 123,-176.5"/>
<text text-anchor="middle" x="157.5" y="-230.3" font-family="Times,serif" font-size="14.00">Product 2</text>
<polyline fill="none" stroke="black" points="123,-222.5 192,-222.5 "/>
<text text-anchor="middle" x="157.5" y="-207.3" font-family="Times,serif" font-size="14.00">Value 4</text>
<polyline fill="none" stroke="black" points="123,-199.5 192,-199.5 "/>
<text text-anchor="middle" x="157.5" y="-184.3" font-family="Times,serif" font-size="14.00">Initial 0</text>
</g>
<!-- P3 -->
<g id="node4" class="node"><title>P3</title>
<polygon fill="none" stroke="black" points="123,-264.5 123,-333.5 192,-333.5 192,-264.5 123,-264.5"/>
<text text-anchor="middle" x="157.5" y="-318.3" font-family="Times,serif" font-size="14.00">Product 3</text>
<polyline fill="none" stroke="black" points="123,-310.5 192,-310.5 "/>
<text text-anchor="middle" x="157.5" y="-295.3" font-family="Times,serif" font-size="14.00">Value 8</text>
<polyline fill="none" stroke="black" points="123,-287.5 192,-287.5 "/>
<text text-anchor="middle" x="157.5" y="-272.3" font-family="Times,serif" font-size="14.00">Initial 0</text>
</g>
<!-- P4 -->
<g id="node5" class="node"><title>P4</title>
<polygon fill="none" stroke="black" points="123,-352.5 123,-421.5 192,-421.5 192,-352.5 123,-352.5"/>
<text text-anchor="middle" x="157.5" y="-406.3" font-family="Times,serif" font-size="14.00">Product 4</text>
<polyline fill="none" stroke="black" points="123,-398.5 192,-398.5 "/>
<text text-anchor="middle" x="157.5" y="-383.3" font-family="Times,serif" font-size="14.00">Value 16</text>
<polyline fill="none" stroke="black" points="123,-375.5 192,-375.5 "/>
<text text-anchor="middle" x="157.5" y="-360.3" font-family="Times,serif" font-size="14.00">Initial 0</text>
</g>
<!-- P5 -->
<g id="node6" class="node"><title>P5</title>
<polygon fill="none" stroke="black" points="123,-440.5 123,-509.5 192,-509.5 192,-440.5 123,-440.5"/>
<text text-anchor="middle" x="157.5" y="-494.3" font-family="Times,serif" font-size="14.00">Product 5</text>
<polyline fill="none" stroke="black" points="123,-486.5 192,-486.5 "/>
<text text-anchor="middle" x="157.5" y="-471.3" font-family="Times,serif" font-size="14.00">Value 32</text>
<polyline fill="none" stroke="black" points="123,-463.5 192,-463.5 "/>
<text text-anchor="middle" x="157.5" y="-448.3" font-family="Times,serif" font-size="14.00">Initial 0</text>
</g>
<!-- P6 -->
<g id="node7" class="node"><title>P6</title>
<polygon fill="none" stroke="black" points="123,-528.5 123,-597.5 192,-597.5 192,-528.5 123,-528.5"/>
<text text-anchor="middle" x="157.5" y="-582.3" font-family="Times,serif" font-size="14.00">Product 6</text>
<polyline fill="none" stroke="black" points="123,-574.5 192,-574.5 "/>
<text text-anchor="middle" x="157.5" y="-559.3" font-family="Times,serif" font-size="14.00">Value 64</text>
<polyline fill="none" stroke="black" points="123,-551.5 192,-551.5 "/>
<text text-anchor="middle" x="157.5" y="-536.3" font-family="Times,serif" font-size="14.00">Initial 0</text>
</g>
<!-- P7 -->
<g id="node8" class="node"><title>P7</title>
<polygon fill="none" stroke="black" points="121,-616.5 121,-685.5 194,-685.5 194,-616.5 121,-616.5"/>
<text text-anchor="middle" x="157.5" y="-670.3" font-family="Times,serif" font-size="14.00">Product 7</text>
<polyline fill="none" stroke="black" points="121,-662.5 194,-662.5 "/>
<text text-anchor="middle" x="157.5" y="-647.3" font-family="Times,serif" font-size="14.00">Value 128</text>
<polyline fill="none" stroke="black" points="121,-639.5 194,-639.5 "/>
<text text-anchor="middle" x="157.5" y="-624.3" font-family="Times,serif" font-size="14.00">Initial 0</text>
</g>
<!-- P8 -->
<g id="node9" class="node"><title>P8</title>
<polygon fill="none" stroke="black" points="121,-704.5 121,-773.5 194,-773.5 194,-704.5 121,-704.5"/>
<text text-anchor="middle" x="157.5" y="-758.3" font-family="Times,serif" font-size="14.00">Product 8</text>
<polyline fill="none" stroke="black" points="121,-750.5 194,-750.5 "/>
<text text-anchor="middle" x="157.5" y="-735.3" font-family="Times,serif" font-size="14.00">Value 256</text>
<polyline fill="none" stroke="black" points="121,-727.5 194,-727.5 "/>
<text text-anchor="middle" x="157.5" y="-712.3" font-family="Times,serif" font-size="14.00">Initial 0</text>
</g>
<!-- B0 -->
<g id="node10" class="node"><title>B0</title>
<path fill="none" stroke="black" d="M12,-23C12,-23 66,-23 66,-23 72,-23 78,-29 78,-35 78,-35 78,-57 78,-57 78,-63 72,-69 66,-69 66,-69 12,-69 12,-69 6,-69 0,-63 0,-57 0,-57 0,-35 0,-35 0,-29 6,-23 12,-23"/>
<text text-anchor="middle" x="39" y="-53.8" font-family="Times,serif" font-size="14.00">Blueprint 0</text>
<polyline fill="none" stroke="black" points="0,-46 78,-46 "/>
<text text-anchor="middle" x="39" y="-30.8" font-family="Times,serif" font-size="14.00">Coolant 1</text>
</g>
<!-- B0&#45;&gt;P0 -->
<g id="edge1" class="edge"><title>B0:a&#45;&gt;P0:a</title>
<path fill="none" stroke="black" d="M78,-58C93.4062,-58 99.6049,-58 111.271,-58"/>
<polygon fill="black" stroke="black" points="111.5,-61.5001 121.5,-58 111.5,-54.5001 111.5,-61.5001"/>
<text text-anchor="middle" x="99.5" y="-61.8" font-family="Times,serif" font-size="14.00">1</text>
</g>
<!-- B1 -->
<g id="node11" class="node"><title>B1</title>
<path fill="none" stroke="black" d="M12,-111C12,-111 66,-111 66,-111 72,-111 78,-117 78,-123 78,-123 78,-145 78,-145 78,-151 72,-157 66,-157 66,-157 12,-157 12,-157 6,-157 0,-151 0,-145 0,-145 0,-123 0,-123 0,-117 6,-111 12,-111"/>
<text text-anchor="middle" x="39" y="-141.8" font-family="Times,serif" font-size="14.00">Blueprint 1</text>
<polyline fill="none" stroke="black" points="0,-134 78,-134 "/>
<text text-anchor="middle" x="39" y="-118.8" font-family="Times,serif" font-size="14.00">Coolant 2</text>
</g>
<!-- B1&#45;&gt;P1 -->
<g id="edge2" class="edge"><title>B1:a&#45;&gt;P1:a</title>
<path fill="none" stroke="black" d="M78,-146C93.4062,-146 99.6049,-146 111.271,-146"/>
<polygon fill="black" stroke="black" points="111.5,-149.5 121.5,-146 111.5,-142.5 111.5,-149.5"/>
<text text-anchor="middle" x="99.5" y="-149.8" font-family="Times,serif" font-size="14.00">1</text>
</g>
<!-- B2 -->
<g id="node12" class="node"><title>B2</title>
<path fill="none" stroke="black" d="M12,-199C12,-199 66,-199 66,-199 72,-199 78,-205 78,-211 78,-211 78,-233 78,-233 78,-239 72,-245 66,-245 66,-245 12,-245 12,-245 6,-245 0,-239 0,-233 0,-233 0,-211 0,-211 0,-205 6,-199 12,-199"/>
<text text-anchor="middle" x="39" y="-229.8" font-family="Times,serif" font-size="14.00">Blueprint 2</text>
<polyline fill="none" stroke="black" points="0,-222 78,-222 "/>
<text text-anchor="middle" x="39" y="-206.8" font-family="Times,serif" font-size="14.00">Coolant 3</text>
</g>
<!-- B2&#45;&gt;P2 -->
<g id="edge3" class="edge"><title>B2:a&#45;&gt;P2:a</title>
<path fill="none" stroke="black" d="M78,-234C93.4062,-234 99.6049,-234 111.271,-234"/>
<polygon fill="black" stroke="black" points="111.5,-237.5 121.5,-234 111.5,-230.5 111.5,-237.5"/>
<text text-anchor="middle" x="99.5" y="-237.8" font-family="Times,serif" font-size="14.00">1</text>
</g>
<!-- B3 -->
<g id="node13" class="node"><title>B3</title>
<path fill="none" stroke="black" d="M12,-287C12,-287 66,-287 66,-287 72,-287 78,-293 78,-299 78,-299 78,-321 78,-321 78,-327 72,-333 66,-333 66,-333 12,-333 12,-333 6,-333 0,-327 0,-321 0,-321 0,-299 0,-299 0,-293 6,-287 12,-287"/>
<text text-anchor="middle" x="39" y="-317.8" font-family="Times,serif" font-size="14.00">Blueprint 3</text>
<polyline fill="none" stroke="black" points="0,-310 78,-310 "/>
<text text-anchor="middle" x="39" y="-294.8" font-family="Times,serif" font-size="14.00">Coolant 4</text>
</g>
<!-- B3&#45;&gt;P3 -->
<g id="edge4" class="edge"><title>B3:a&#45;&gt;P3:a</title>
<path fill="none" stroke="black" d="M78,-322C93.4062,-322 99.6049,-322 111.271,-322"/>
<polygon fill="black" stroke="black" points="111.5,-325.5 121.5,-322 111.5,-318.5 111.5,-325.5"/>
<text text-anchor="middle" x="99.5" y="-325.8" font-family="Times,serif" font-size="14.00">1</text>
</g>
<!-- B4 -->
<g id="node14" class="node"><title>B4</title>
<path fill="none" stroke="black" d="M12,-375C12,-375 66,-375 66,-375 72,-375 78,-381 78,-387 78,-387 78,-409 78,-409 78,-415 72,-421 66,-421 66,-421 12,-421 12,-421 6,-421 0,-415 0,-409 0,-409 0,-387 0,-387 0,-381 6,-375 12,-375"/>
<text text-anchor="middle" x="39" y="-405.8" font-family="Times,serif" font-size="14.00">Blueprint 4</text>
<polyline fill="none" stroke="black" points="0,-398 78,-398 "/>
<text text-anchor="middle" x="39" y="-382.8" font-family="Times,serif" font-size="14.00">Coolant 5</text>
</g>
<!-- B4&#45;&gt;P4 -->
<g id="edge5" class="edge"><title>B4:a&#45;&gt;P4:a</title>
<path fill="none" stroke="black" d="M78,-410C93.4062,-410 99.6049,-410 111.271,-410"/>
<polygon fill="black" stroke="black" points="111.5,-413.5 121.5,-410 111.5,-406.5 111.5,-413.5"/>
<text text-anchor="middle" x="99.5" y="-413.8" font-family="Times,serif" font-size="14.00">1</text>
</g>
<!-- B5 -->
<g id="node15" class="node"><title>B5</title>
<path fill="none" stroke="black" d="M12,-463C12,-463 66,-463 66,-463 72,-463 78,-469 78,-475 78,-475 78,-497 78,-497 78,-503 72,-509 66,-509 66,-509 12,-509 12,-509 6,-509 0,-503 0,-497 0,-497 0,-475 0,-475 0,-469 6,-463 12,-463"/>
<text text-anchor="middle" x="39" y="-493.8" font-family="Times,serif" font-size="14.00">Blueprint 5</text>
<polyline fill="none" stroke="black" points="0,-486 78,-486 "/>
<text text-anchor="middle" x="39" y="-470.8" font-family="Times,serif" font-size="14.00">Coolant 6</text>
</g>
<!-- B5&#45;&gt;P5 -->
<g id="edge6" class="edge"><title>B5:a&#45;&gt;P5:a</title>
<path fill="none" stroke="black" d="M78,-498C93.4062,-498 99.6049,-498 111.271,-498"/>
<polygon fill="black" stroke="black" points="111.5,-501.5 121.5,-498 111.5,-494.5 111.5,-501.5"/>
<text text-anchor="middle" x="99.5" y="-501.8" font-family="Times,serif" font-size="14.00">1</text>
</g>
<!-- B6 -->
<g id="node16" class="node"><title>B6</title>
<path fill="none" stroke="black" d="M12,-551C12,-551 66,-551 66,-551 72,-551 78,-557 78,-563 78,-563 78,-585 78,-585 78,-591 72,-597 66,-597 66,-597 12,-597 12,-597 6,-597 0,-591 0,-585 0,-585 0,-563 0,-563 0,-557 6,-551 12,-551"/>
<text text-anchor="middle" x="39" y="-581.8" font-family="Times,serif" font-size="14.00">Blueprint 6</text>
<polyline fill="none" stroke="black" points="0,-574 78,-574 "/>
<text text-anchor="middle" x="39" y="-558.8" font-family="Times,serif" font-size="14.00">Coolant 7</text>
</g>
<!-- B6&#45;&gt;P6 -->
<g id="edge7" class="edge"><title>B6:a&#45;&gt;P6:a</title>
<path fill="none" stroke="black" d="M78,-586C93.4062,-586 99.6049,-586 111.271,-586"/>
<polygon fill="black" stroke="black" points="111.5,-589.5 121.5,-586 111.5,-582.5 111.5,-589.5"/>
<text text-anchor="middle" x="99.5" y="-589.8" font-family="Times,serif" font-size="14.00">1</text>
</g>
<!-- B7 -->
<g id="node17" class="node"><title>B7</title>
<path fill="none" stroke="black" d="M12,-639C12,-639 66,-639 66,-639 72,-639 78,-645 78,-651 78,-651 78,-673 78,-673 78,-679 72,-685 66,-685 66,-685 12,-685 12,-685 6,-685 0,-679 0,-673 0,-673 0,-651 0,-651 0,-645 6,-639 12,-639"/>
<text text-anchor="middle" x="39" y="-669.8" font-family="Times,serif" font-size="14.00">Blueprint 7</text>
<polyline fill="none" stroke="black" points="0,-662 78,-662 "/>
<text text-anchor="middle" x="39" y="-646.8" font-family="Times,serif" font-size="14.00">Coolant 8</text>
</g>
<!-- B7&#45;&gt;P7 -->
<g id="edge8" class="edge"><title>B7:a&#45;&gt;P7:a</title>
<path fill="none" stroke="black" d="M78,-674C93.2292,-674 99.3565,-674 110.888,-674"/>
<polygon fill="black" stroke="black" points="111,-677.5 121,-674 111,-670.5 111,-677.5"/>
<text text-anchor="middle" x="99.5" y="-677.8" font-family="Times,serif" font-size="14.00">1</text>
</g>
<!-- B8 -->
<g id="node18" class="node"><title>B8</title>
<path fill="none" stroke="black" d="M12,-727C12,-727 66,-727 66,-727 72,-727 78,-733 78,-739 78,-739 78,-761 78,-761 78,-767 72,-773 66,-773 66,-773 12,-773 12,-773 6,-773 0,-767 0,-761 0,-761 0,-739 0,-739 0,-733 6,-727 12,-727"/>
<text text-anchor="middle" x="39" y="-757.8" font-family="Times,serif" font-size="14.00">Blueprint 8</text>
<polyline fill="none" stroke="black" points="0,-750 78,-750 "/>
<text text-anchor="middle" x="39" y="-734.8" font-family="Times,serif" font-size="14.00">Coolant 9</text>
</g>
<!-- B8&#45;&gt;P8 -->
<g id="edge9" class="edge"><title>B8:a&#45;&gt;P8:a</title>
<path fill="none" stroke="black" d="M78,-762C93.2292,-762 99.3565,-762 110.888,-762"/>
<polygon fill="black" stroke="black" points="111,-765.5 121,-762 111,-758.5 111,-765.5"/>
<text text-anchor="middle" x="99.5" y="-765.8" font-family="Times,serif" font-size="14.00">1</text>
</g>
</g>
</svg>
