<?xml version="1.0" encoding="UTF-8" standalone="no"?>
<!DOCTYPE svg PUBLIC "-//W3C//DTD SVG 1.1//EN"
 "http://www.w3.org/Graphics/SVG/1.1/DTD/svg11.dtd">
<!-- Generated by graphviz version 2.38.0 (20140413.2041)
 -->
<!-- Title: g Pages: 1 -->
<svg width="1759pt" height="628pt"
 viewBox="0.00 0.00 1759.00 628.00" xmlns="http://www.w3.org/2000/svg" xmlns:xlink="http://www.w3.org/1999/xlink">
<g id="graph0" class="graph" transform="scale(1 1) rotate(0) translate(4 624)">
<title>g</title>
<polygon fill="white" stroke="none" points="-4,4 -4,-624 1755,-624 1755,4 -4,4"/>
<!-- P0 -->
<g id="node1" class="node"><title>P0</title>
<polygon fill="none" stroke="black" points="121,-448.5 121,-517.5 190,-517.5 190,-448.5 121,-448.5"/>
<text text-anchor="middle" x="155.5" y="-502.3" font-family="Times,serif" font-size="14.00">Product 0</text>
<polyline fill="none" stroke="black" points="121,-494.5 190,-494.5 "/>
<text text-anchor="middle" x="155.5" y="-479.3" font-family="Times,serif" font-size="14.00">Value 6</text>
<polyline fill="none" stroke="black" points="121,-471.5 190,-471.5 "/>
<text text-anchor="middle" x="155.5" y="-456.3" font-family="Times,serif" font-size="14.00">Initial 0</text>
</g>
<!-- B9 -->
<g id="node19" class="node"><title>B9</title>
<path fill="none" stroke="black" d="M245,-471C245,-471 299,-471 299,-471 305,-471 311,-477 311,-483 311,-483 311,-505 311,-505 311,-511 305,-517 299,-517 299,-517 245,-517 245,-517 239,-517 233,-511 233,-505 233,-505 233,-483 233,-483 233,-477 239,-471 245,-471"/>
<text text-anchor="middle" x="272" y="-501.8" font-family="Times,serif" font-size="14.00">Blueprint 9</text>
<polyline fill="none" stroke="black" points="233,-494 311,-494 "/>
<text text-anchor="middle" x="272" y="-478.8" font-family="Times,serif" font-size="14.00">Coolant 7</text>
</g>
<!-- P0&#45;&gt;B9 -->
<g id="edge10" class="edge"><title>P0:a&#45;&gt;B9:a</title>
<path fill="none" stroke="black" d="M190,-506C205.229,-506 211.357,-506 222.888,-506"/>
<polygon fill="black" stroke="black" points="223,-509.5 233,-506 223,-502.5 223,-509.5"/>
<text text-anchor="middle" x="211.5" y="-509.8" font-family="Times,serif" font-size="14.00">1</text>
</g>
<!-- B15 -->
<g id="node25" class="node"><title>B15</title>
<path fill="none" stroke="black" d="M958,-389C958,-389 1019,-389 1019,-389 1025,-389 1031,-395 1031,-401 1031,-401 1031,-423 1031,-423 1031,-429 1025,-435 1019,-435 1019,-435 958,-435 958,-435 952,-435 946,-429 946,-423 946,-423 946,-401 946,-401 946,-395 952,-389 958,-389"/>
<text text-anchor="middle" x="988.5" y="-419.8" font-family="Times,serif" font-size="14.00">Blueprint 15</text>
<polyline fill="none" stroke="black" points="946,-412 1031,-412 "/>
<text text-anchor="middle" x="988.5" y="-396.8" font-family="Times,serif" font-size="14.00">Coolant 6</text>
</g>
<!-- P0&#45;&gt;B15 -->
<g id="edge40" class="edge"><title>P0:a&#45;&gt;B15:a</title>
<path fill="none" stroke="black" d="M190,-506C197.106,-506 263.894,-605 271,-605 271,-605 271,-605 685.5,-605 701.539,-605 889.578,-455.062 936.523,-428.121"/>
<polygon fill="black" stroke="black" points="938.225,-431.197 946,-424 935.434,-424.778 938.225,-431.197"/>
<text text-anchor="middle" x="572.5" y="-608.8" font-family="Times,serif" font-size="14.00">1</text>
</g>
<!-- P1 -->
<g id="node2" class="node"><title>P1</title>
<polygon fill="none" stroke="black" points="354,-193.5 354,-262.5 423,-262.5 423,-193.5 354,-193.5"/>
<text text-anchor="middle" x="388.5" y="-247.3" font-family="Times,serif" font-size="14.00">Product 1</text>
<polyline fill="none" stroke="black" points="354,-239.5 423,-239.5 "/>
<text text-anchor="middle" x="388.5" y="-224.3" font-family="Times,serif" font-size="14.00">Value 8</text>
<polyline fill="none" stroke="black" points="354,-216.5 423,-216.5 "/>
<text text-anchor="middle" x="388.5" y="-201.3" font-family="Times,serif" font-size="14.00">Initial 0</text>
</g>
<!-- B10 -->
<g id="node20" class="node"><title>B10</title>
<path fill="none" stroke="black" d="M478,-261C478,-261 539,-261 539,-261 545,-261 551,-267 551,-273 551,-273 551,-295 551,-295 551,-301 545,-307 539,-307 539,-307 478,-307 478,-307 472,-307 466,-301 466,-295 466,-295 466,-273 466,-273 466,-267 472,-261 478,-261"/>
<text text-anchor="middle" x="508.5" y="-291.8" font-family="Times,serif" font-size="14.00">Blueprint 10</text>
<polyline fill="none" stroke="black" points="466,-284 551,-284 "/>
<text text-anchor="middle" x="508.5" y="-268.8" font-family="Times,serif" font-size="14.00">Coolant 8</text>
</g>
<!-- P1&#45;&gt;B10 -->
<g id="edge15" class="edge"><title>P1:a&#45;&gt;B10:a</title>
<path fill="none" stroke="black" d="M423,-251C446.557,-251 441.115,-283.632 456.063,-293.32"/>
<polygon fill="black" stroke="black" points="455.434,-296.775 466,-296 457.257,-290.017 455.434,-296.775"/>
<text text-anchor="middle" x="444.5" y="-286.8" font-family="Times,serif" font-size="14.00">1</text>
</g>
<!-- B14 -->
<g id="node24" class="node"><title>B14</title>
<path fill="none" stroke="black" d="M718,-144C718,-144 779,-144 779,-144 785,-144 791,-150 791,-156 791,-156 791,-178 791,-178 791,-184 785,-190 779,-190 779,-190 718,-190 718,-190 712,-190 706,-184 706,-178 706,-178 706,-156 706,-156 706,-150 712,-144 718,-144"/>
<text text-anchor="middle" x="748.5" y="-174.8" font-family="Times,serif" font-size="14.00">Blueprint 14</text>
<polyline fill="none" stroke="black" points="706,-167 791,-167 "/>
<text text-anchor="middle" x="748.5" y="-151.8" font-family="Times,serif" font-size="14.00">Coolant 6</text>
</g>
<!-- P1&#45;&gt;B14 -->
<g id="edge36" class="edge"><title>P1:a&#45;&gt;B14:a</title>
<path fill="none" stroke="black" d="M423,-251C459.878,-251 412.233,-193.076 441,-170 484.538,-135.075 630.507,-174.392 695.866,-178.636"/>
<polygon fill="black" stroke="black" points="695.881,-182.139 706,-179 696.132,-175.143 695.881,-182.139"/>
<text text-anchor="middle" x="572.5" y="-165.8" font-family="Times,serif" font-size="14.00">1</text>
</g>
<!-- P2 -->
<g id="node3" class="node"><title>P2</title>
<polygon fill="none" stroke="black" points="594,-184.5 594,-253.5 663,-253.5 663,-184.5 594,-184.5"/>
<text text-anchor="middle" x="628.5" y="-238.3" font-family="Times,serif" font-size="14.00">Product 2</text>
<polyline fill="none" stroke="black" points="594,-230.5 663,-230.5 "/>
<text text-anchor="middle" x="628.5" y="-215.3" font-family="Times,serif" font-size="14.00">Value 3</text>
<polyline fill="none" stroke="black" points="594,-207.5 663,-207.5 "/>
<text text-anchor="middle" x="628.5" y="-192.3" font-family="Times,serif" font-size="14.00">Initial 0</text>
</g>
<!-- P2&#45;&gt;B9 -->
<g id="edge11" class="edge"><title>P2:a&#45;&gt;B9:a</title>
<path fill="none" stroke="black" d="M628.5,-255C628.5,-431.455 496.072,-503.252 321.23,-505.922"/>
<polygon fill="black" stroke="black" points="320.973,-502.424 311,-506 321.026,-509.424 320.973,-502.424"/>
<text text-anchor="middle" x="444.5" y="-494.8" font-family="Times,serif" font-size="14.00">1</text>
</g>
<!-- B11 -->
<g id="node21" class="node"><title>B11</title>
<path fill="none" stroke="black" d="M1198,-209C1198,-209 1259,-209 1259,-209 1265,-209 1271,-215 1271,-221 1271,-221 1271,-243 1271,-243 1271,-249 1265,-255 1259,-255 1259,-255 1198,-255 1198,-255 1192,-255 1186,-249 1186,-243 1186,-243 1186,-221 1186,-221 1186,-215 1192,-209 1198,-209"/>
<text text-anchor="middle" x="1228.5" y="-239.8" font-family="Times,serif" font-size="14.00">Blueprint 11</text>
<polyline fill="none" stroke="black" points="1186,-232 1271,-232 "/>
<text text-anchor="middle" x="1228.5" y="-216.8" font-family="Times,serif" font-size="14.00">Coolant 5</text>
</g>
<!-- P2&#45;&gt;B11 -->
<g id="edge20" class="edge"><title>P2:a&#45;&gt;B11:a</title>
<path fill="none" stroke="black" d="M663,-242C701.922,-242 708.578,-219 747.5,-219 747.5,-219 747.5,-219 1109.5,-219 1124.59,-219 1155.94,-236.798 1176.12,-242.36"/>
<polygon fill="black" stroke="black" points="1175.56,-245.815 1186,-244 1176.71,-238.91 1175.56,-245.815"/>
<text text-anchor="middle" x="924.5" y="-222.8" font-family="Times,serif" font-size="14.00">1</text>
</g>
<!-- P2&#45;&gt;B14 -->
<g id="edge37" class="edge"><title>P2:a&#45;&gt;B14:a</title>
<path fill="none" stroke="black" d="M663,-242C687.457,-242 664.423,-207.982 681,-190 686.4,-184.143 690.251,-181.236 695.691,-179.929"/>
<polygon fill="black" stroke="black" points="696.355,-183.384 706,-179 695.726,-176.412 696.355,-183.384"/>
<text text-anchor="middle" x="684.5" y="-193.8" font-family="Times,serif" font-size="14.00">1</text>
</g>
<!-- P3 -->
<g id="node4" class="node"><title>P3</title>
<polygon fill="none" stroke="black" points="1314,-140.5 1314,-209.5 1383,-209.5 1383,-140.5 1314,-140.5"/>
<text text-anchor="middle" x="1348.5" y="-194.3" font-family="Times,serif" font-size="14.00">Product 3</text>
<polyline fill="none" stroke="black" points="1314,-186.5 1383,-186.5 "/>
<text text-anchor="middle" x="1348.5" y="-171.3" font-family="Times,serif" font-size="14.00">Value 7</text>
<polyline fill="none" stroke="black" points="1314,-163.5 1383,-163.5 "/>
<text text-anchor="middle" x="1348.5" y="-148.3" font-family="Times,serif" font-size="14.00">Initial 0</text>
</g>
<!-- B12 -->
<g id="node22" class="node"><title>B12</title>
<path fill="none" stroke="black" d="M1678,-268C1678,-268 1739,-268 1739,-268 1745,-268 1751,-274 1751,-280 1751,-280 1751,-302 1751,-302 1751,-308 1745,-314 1739,-314 1739,-314 1678,-314 1678,-314 1672,-314 1666,-308 1666,-302 1666,-302 1666,-280 1666,-280 1666,-274 1672,-268 1678,-268"/>
<text text-anchor="middle" x="1708.5" y="-298.8" font-family="Times,serif" font-size="14.00">Blueprint 12</text>
<polyline fill="none" stroke="black" points="1666,-291 1751,-291 "/>
<text text-anchor="middle" x="1708.5" y="-275.8" font-family="Times,serif" font-size="14.00">Coolant 4</text>
</g>
<!-- P3&#45;&gt;B12 -->
<g id="edge27" class="edge"><title>P3:a&#45;&gt;B12:a</title>
<path fill="none" stroke="black" d="M1383,-198C1491,-198 1537.41,-170.146 1623,-236 1647.87,-255.132 1634.62,-293.015 1655.97,-301.352"/>
<polygon fill="black" stroke="black" points="1655.56,-304.832 1666,-303 1656.7,-297.925 1655.56,-304.832"/>
<text text-anchor="middle" x="1532.5" y="-198.8" font-family="Times,serif" font-size="14.00">1</text>
</g>
<!-- B13 -->
<g id="node23" class="node"><title>B13</title>
<path fill="none" stroke="black" d="M1438,-99C1438,-99 1499,-99 1499,-99 1505,-99 1511,-105 1511,-111 1511,-111 1511,-133 1511,-133 1511,-139 1505,-145 1499,-145 1499,-145 1438,-145 1438,-145 1432,-145 1426,-139 1426,-133 1426,-133 1426,-111 1426,-111 1426,-105 1432,-99 1438,-99"/>
<text text-anchor="middle" x="1468.5" y="-129.8" font-family="Times,serif" font-size="14.00">Blueprint 13</text>
<polyline fill="none" stroke="black" points="1426,-122 1511,-122 "/>
<text text-anchor="middle" x="1468.5" y="-106.8" font-family="Times,serif" font-size="14.00">Coolant 7</text>
</g>
<!-- P3&#45;&gt;B13 -->
<g id="edge30" class="edge"><title>P3:a&#45;&gt;B13:a</title>
<path fill="none" stroke="black" d="M1383,-198C1397.06,-198 1405.46,-154.934 1417.48,-139.457"/>
<polygon fill="black" stroke="black" points="1419.47,-142.341 1426,-134 1415.69,-136.446 1419.47,-142.341"/>
<text text-anchor="middle" x="1404.5" y="-177.8" font-family="Times,serif" font-size="14.00">1</text>
</g>
<!-- P3&#45;&gt;B14 -->
<g id="edge38" class="edge"><title>P3:a&#45;&gt;B14:a</title>
<path fill="none" stroke="black" d="M1314,-198C1247.66,-198 1233.97,-173.927 1168,-167 1004.7,-149.854 960.441,-177.81 801.158,-178.963"/>
<polygon fill="black" stroke="black" points="800.987,-175.464 791,-179 801.013,-182.464 800.987,-175.464"/>
<text text-anchor="middle" x="1052.5" y="-165.8" font-family="Times,serif" font-size="14.00">1</text>
</g>
<!-- P3&#45;&gt;B15 -->
<g id="edge41" class="edge"><title>P3:a&#45;&gt;B15:a</title>
<path fill="none" stroke="black" d="M1314,-198C1289.54,-198 1311.69,-231.244 1296,-250 1226.08,-333.561 1161.14,-288.588 1074,-354 1060.39,-364.216 1058.08,-368.606 1049,-383 1040.87,-395.888 1046.3,-413.075 1040.37,-420.423"/>
<polygon fill="black" stroke="black" points="1039.09,-417.163 1031,-424 1041.59,-423.702 1039.09,-417.163"/>
<text text-anchor="middle" x="1164.5" y="-319.8" font-family="Times,serif" font-size="14.00">1</text>
</g>
<!-- P4 -->
<g id="node5" class="node"><title>P4</title>
<polygon fill="none" stroke="black" points="354,-36.5 354,-105.5 423,-105.5 423,-36.5 354,-36.5"/>
<text text-anchor="middle" x="388.5" y="-90.3" font-family="Times,serif" font-size="14.00">Product 4</text>
<polyline fill="none" stroke="black" points="354,-82.5 423,-82.5 "/>
<text text-anchor="middle" x="388.5" y="-67.3" font-family="Times,serif" font-size="14.00">Value 5</text>
<polyline fill="none" stroke="black" points="354,-59.5 423,-59.5 "/>
<text text-anchor="middle" x="388.5" y="-44.3" font-family="Times,serif" font-size="14.00">Initial 0</text>
</g>
<!-- P4&#45;&gt;B10 -->
<g id="edge16" class="edge"><title>P4:a&#45;&gt;B10:a</title>
<path fill="none" stroke="black" d="M423,-94C443.258,-94 443.376,-251.43 458.914,-288.328"/>
<polygon fill="black" stroke="black" points="456.644,-291.029 466,-296 461.786,-286.279 456.644,-291.029"/>
<text text-anchor="middle" x="444.5" y="-228.8" font-family="Times,serif" font-size="14.00">1</text>
</g>
<!-- P4&#45;&gt;B13 -->
<g id="edge31" class="edge"><title>P4:a&#45;&gt;B13:a</title>
<path fill="none" stroke="black" d="M423,-94C445.527,-94 484.973,-38 507.5,-38 507.5,-38 507.5,-38 1349.5,-38 1373.58,-38 1393.51,-112.818 1416.61,-130.354"/>
<polygon fill="black" stroke="black" points="1415.41,-133.642 1426,-134 1417.95,-127.117 1415.41,-133.642"/>
<text text-anchor="middle" x="924.5" y="-41.8" font-family="Times,serif" font-size="14.00">2</text>
</g>
<!-- P5 -->
<g id="node6" class="node"><title>P5</title>
<polygon fill="none" stroke="black" points="1074,-363.5 1074,-432.5 1143,-432.5 1143,-363.5 1074,-363.5"/>
<text text-anchor="middle" x="1108.5" y="-417.3" font-family="Times,serif" font-size="14.00">Product 5</text>
<polyline fill="none" stroke="black" points="1074,-409.5 1143,-409.5 "/>
<text text-anchor="middle" x="1108.5" y="-394.3" font-family="Times,serif" font-size="14.00">Value 2</text>
<polyline fill="none" stroke="black" points="1074,-386.5 1143,-386.5 "/>
<text text-anchor="middle" x="1108.5" y="-371.3" font-family="Times,serif" font-size="14.00">Initial 0</text>
</g>
<!-- P5&#45;&gt;B10 -->
<g id="edge17" class="edge"><title>P5:a&#45;&gt;B10:a</title>
<path fill="none" stroke="black" d="M1074,-421C1061.71,-421 1066.95,-436.422 1056,-442 1012.43,-464.188 994.613,-449.258 946,-444 886.067,-437.518 873.783,-415 813.5,-415 627.5,-415 627.5,-415 627.5,-415 568.309,-415 608.488,-309.537 560.942,-297.178"/>
<polygon fill="black" stroke="black" points="561.342,-293.701 551,-296 560.519,-300.652 561.342,-293.701"/>
<text text-anchor="middle" x="812.5" y="-418.8" font-family="Times,serif" font-size="14.00">1</text>
</g>
<!-- P5&#45;&gt;B11 -->
<g id="edge21" class="edge"><title>P5:a&#45;&gt;B11:a</title>
<path fill="none" stroke="black" d="M1143,-421C1147.08,-421 1166.97,-355.944 1168,-352 1173.23,-332.05 1165.04,-268.321 1177.25,-249.367"/>
<polygon fill="black" stroke="black" points="1179.3,-252.211 1186,-244 1175.65,-246.244 1179.3,-252.211"/>
<text text-anchor="middle" x="1164.5" y="-378.8" font-family="Times,serif" font-size="14.00">2</text>
</g>
<!-- P6 -->
<g id="node7" class="node"><title>P6</title>
<polygon fill="none" stroke="black" points="1554,-245.5 1554,-314.5 1623,-314.5 1623,-245.5 1554,-245.5"/>
<text text-anchor="middle" x="1588.5" y="-299.3" font-family="Times,serif" font-size="14.00">Product 6</text>
<polyline fill="none" stroke="black" points="1554,-291.5 1623,-291.5 "/>
<text text-anchor="middle" x="1588.5" y="-276.3" font-family="Times,serif" font-size="14.00">Value 3</text>
<polyline fill="none" stroke="black" points="1554,-268.5 1623,-268.5 "/>
<text text-anchor="middle" x="1588.5" y="-253.3" font-family="Times,serif" font-size="14.00">Initial 0</text>
</g>
<!-- P6&#45;&gt;B12 -->
<g id="edge28" class="edge"><title>P6:a&#45;&gt;B12:a</title>
<path fill="none" stroke="black" d="M1623,-303C1638.23,-303 1644.36,-303 1655.89,-303"/>
<polygon fill="black" stroke="black" points="1656,-306.5 1666,-303 1656,-299.5 1656,-306.5"/>
<text text-anchor="middle" x="1644.5" y="-306.8" font-family="Times,serif" font-size="14.00">2</text>
</g>
<!-- P7 -->
<g id="node8" class="node"><title>P7</title>
<polygon fill="none" stroke="black" points="834,-247.5 834,-316.5 903,-316.5 903,-247.5 834,-247.5"/>
<text text-anchor="middle" x="868.5" y="-301.3" font-family="Times,serif" font-size="14.00">Product 7</text>
<polyline fill="none" stroke="black" points="834,-293.5 903,-293.5 "/>
<text text-anchor="middle" x="868.5" y="-278.3" font-family="Times,serif" font-size="14.00">Value 5</text>
<polyline fill="none" stroke="black" points="834,-270.5 903,-270.5 "/>
<text text-anchor="middle" x="868.5" y="-255.3" font-family="Times,serif" font-size="14.00">Initial 0</text>
</g>
<!-- P7&#45;&gt;B15 -->
<g id="edge42" class="edge"><title>P7:a&#45;&gt;B15:a</title>
<path fill="none" stroke="black" d="M903,-305C923.964,-305 920.004,-325.62 928,-345 940.125,-374.388 916.805,-413.457 935.949,-422.21"/>
<polygon fill="black" stroke="black" points="935.541,-425.693 946,-424 936.768,-418.801 935.541,-425.693"/>
<text text-anchor="middle" x="924.5" y="-348.8" font-family="Times,serif" font-size="14.00">1</text>
</g>
<!-- P8 -->
<g id="node9" class="node"><title>P8</title>
<polygon fill="none" stroke="black" points="1314,-453.5 1314,-522.5 1383,-522.5 1383,-453.5 1314,-453.5"/>
<text text-anchor="middle" x="1348.5" y="-507.3" font-family="Times,serif" font-size="14.00">Product 8</text>
<polyline fill="none" stroke="black" points="1314,-499.5 1383,-499.5 "/>
<text text-anchor="middle" x="1348.5" y="-484.3" font-family="Times,serif" font-size="14.00">Value 4</text>
<polyline fill="none" stroke="black" points="1314,-476.5 1383,-476.5 "/>
<text text-anchor="middle" x="1348.5" y="-461.3" font-family="Times,serif" font-size="14.00">Initial 0</text>
</g>
<!-- P8&#45;&gt;B9 -->
<g id="edge12" class="edge"><title>P8:a&#45;&gt;B9:a</title>
<path fill="none" stroke="black" d="M1314,-511C1298.45,-511 1305.95,-529.055 1296,-541 1272.99,-568.607 1265.44,-587 1229.5,-587 867.5,-587 867.5,-587 867.5,-587 786.124,-587 766.876,-567 685.5,-567 387.5,-567 387.5,-567 387.5,-567 356.971,-567 351.354,-551.792 329,-531 322.578,-525.026 322.616,-516.446 319.873,-511.051"/>
<polygon fill="black" stroke="black" points="321.422,-507.906 311,-506 317.959,-513.989 321.422,-507.906"/>
<text text-anchor="middle" x="812.5" y="-587.8" font-family="Times,serif" font-size="14.00">1</text>
</g>
<!-- B0 -->
<g id="node10" class="node"><title>B0</title>
<path fill="none" stroke="black" d="M12,-471C12,-471 66,-471 66,-471 72,-471 78,-477 78,-483 78,-483 78,-505 78,-505 78,-511 72,-517 66,-517 66,-517 12,-517 12,-517 6,-517 0,-511 0,-505 0,-505 0,-483 0,-483 0,-477 6,-471 12,-471"/>
<text text-anchor="middle" x="39" y="-501.8" font-family="Times,serif" font-size="14.00">Blueprint 0</text>
<polyline fill="none" stroke="black" points="0,-494 78,-494 "/>
<text text-anchor="middle" x="39" y="-478.8" font-family="Times,serif" font-size="14.00">Coolant 6</text>
</g>
<!-- B0&#45;&gt;P0 -->
<g id="edge1" class="edge"><title>B0:a&#45;&gt;P0:a</title>
<path fill="none" stroke="black" d="M78,-506C93.2292,-506 99.3565,-506 110.888,-506"/>
<polygon fill="black" stroke="black" points="111,-509.5 121,-506 111,-502.5 111,-509.5"/>
<text text-anchor="middle" x="99.5" y="-509.8" font-family="Times,serif" font-size="14.00">1</text>
</g>
<!-- B1 -->
<g id="node11" class="node"><title>B1</title>
<path fill="none" stroke="black" d="M245,-216C245,-216 299,-216 299,-216 305,-216 311,-222 311,-228 311,-228 311,-250 311,-250 311,-256 305,-262 299,-262 299,-262 245,-262 245,-262 239,-262 233,-256 233,-250 233,-250 233,-228 233,-228 233,-222 239,-216 245,-216"/>
<text text-anchor="middle" x="272" y="-246.8" font-family="Times,serif" font-size="14.00">Blueprint 1</text>
<polyline fill="none" stroke="black" points="233,-239 311,-239 "/>
<text text-anchor="middle" x="272" y="-223.8" font-family="Times,serif" font-size="14.00">Coolant 8</text>
</g>
<!-- B1&#45;&gt;P1 -->
<g id="edge2" class="edge"><title>B1:a&#45;&gt;P1:a</title>
<path fill="none" stroke="black" d="M311,-251C326.229,-251 332.357,-251 343.888,-251"/>
<polygon fill="black" stroke="black" points="344,-254.5 354,-251 344,-247.5 344,-254.5"/>
<text text-anchor="middle" x="332.5" y="-254.8" font-family="Times,serif" font-size="14.00">1</text>
</g>
<!-- B2 -->
<g id="node12" class="node"><title>B2</title>
<path fill="none" stroke="black" d="M481.5,-196C481.5,-196 535.5,-196 535.5,-196 541.5,-196 547.5,-202 547.5,-208 547.5,-208 547.5,-230 547.5,-230 547.5,-236 541.5,-242 535.5,-242 535.5,-242 481.5,-242 481.5,-242 475.5,-242 469.5,-236 469.5,-230 469.5,-230 469.5,-208 469.5,-208 469.5,-202 475.5,-196 481.5,-196"/>
<text text-anchor="middle" x="508.5" y="-226.8" font-family="Times,serif" font-size="14.00">Blueprint 2</text>
<polyline fill="none" stroke="black" points="469.5,-219 547.5,-219 "/>
<text text-anchor="middle" x="508.5" y="-203.8" font-family="Times,serif" font-size="14.00">Coolant 3</text>
</g>
<!-- B2&#45;&gt;P2 -->
<g id="edge3" class="edge"><title>B2:a&#45;&gt;P2:a</title>
<path fill="none" stroke="black" d="M548.5,-231C565.404,-231 571.142,-238.262 583.858,-240.985"/>
<polygon fill="black" stroke="black" points="583.701,-244.487 594,-242 584.398,-237.521 583.701,-244.487"/>
<text text-anchor="middle" x="572.5" y="-242.8" font-family="Times,serif" font-size="14.00">1</text>
</g>
<!-- B3 -->
<g id="node13" class="node"><title>B3</title>
<path fill="none" stroke="black" d="M1201.5,-105C1201.5,-105 1255.5,-105 1255.5,-105 1261.5,-105 1267.5,-111 1267.5,-117 1267.5,-117 1267.5,-139 1267.5,-139 1267.5,-145 1261.5,-151 1255.5,-151 1255.5,-151 1201.5,-151 1201.5,-151 1195.5,-151 1189.5,-145 1189.5,-139 1189.5,-139 1189.5,-117 1189.5,-117 1189.5,-111 1195.5,-105 1201.5,-105"/>
<text text-anchor="middle" x="1228.5" y="-135.8" font-family="Times,serif" font-size="14.00">Blueprint 3</text>
<polyline fill="none" stroke="black" points="1189.5,-128 1267.5,-128 "/>
<text text-anchor="middle" x="1228.5" y="-112.8" font-family="Times,serif" font-size="14.00">Coolant 7</text>
</g>
<!-- B3&#45;&gt;P3 -->
<g id="edge4" class="edge"><title>B3:a&#45;&gt;P3:a</title>
<path fill="none" stroke="black" d="M1268.5,-140C1281.66,-140 1286.76,-141.623 1296,-151 1308.27,-163.448 1298.7,-185.132 1304.59,-194.024"/>
<polygon fill="black" stroke="black" points="1303.43,-197.33 1314,-198 1306.15,-190.882 1303.43,-197.33"/>
<text text-anchor="middle" x="1292.5" y="-154.8" font-family="Times,serif" font-size="14.00">1</text>
</g>
<!-- B4 -->
<g id="node14" class="node"><title>B4</title>
<path fill="none" stroke="black" d="M245,-59C245,-59 299,-59 299,-59 305,-59 311,-65 311,-71 311,-71 311,-93 311,-93 311,-99 305,-105 299,-105 299,-105 245,-105 245,-105 239,-105 233,-99 233,-93 233,-93 233,-71 233,-71 233,-65 239,-59 245,-59"/>
<text text-anchor="middle" x="272" y="-89.8" font-family="Times,serif" font-size="14.00">Blueprint 4</text>
<polyline fill="none" stroke="black" points="233,-82 311,-82 "/>
<text text-anchor="middle" x="272" y="-66.8" font-family="Times,serif" font-size="14.00">Coolant 5</text>
</g>
<!-- B4&#45;&gt;P4 -->
<g id="edge5" class="edge"><title>B4:a&#45;&gt;P4:a</title>
<path fill="none" stroke="black" d="M311,-94C326.229,-94 332.357,-94 343.888,-94"/>
<polygon fill="black" stroke="black" points="344,-97.5001 354,-94 344,-90.5001 344,-97.5001"/>
<text text-anchor="middle" x="332.5" y="-97.8" font-family="Times,serif" font-size="14.00">1</text>
</g>
<!-- B5 -->
<g id="node15" class="node"><title>B5</title>
<path fill="none" stroke="black" d="M961.5,-324C961.5,-324 1015.5,-324 1015.5,-324 1021.5,-324 1027.5,-330 1027.5,-336 1027.5,-336 1027.5,-358 1027.5,-358 1027.5,-364 1021.5,-370 1015.5,-370 1015.5,-370 961.5,-370 961.5,-370 955.5,-370 949.5,-364 949.5,-358 949.5,-358 949.5,-336 949.5,-336 949.5,-330 955.5,-324 961.5,-324"/>
<text text-anchor="middle" x="988.5" y="-354.8" font-family="Times,serif" font-size="14.00">Blueprint 5</text>
<polyline fill="none" stroke="black" points="949.5,-347 1027.5,-347 "/>
<text text-anchor="middle" x="988.5" y="-331.8" font-family="Times,serif" font-size="14.00">Coolant 2</text>
</g>
<!-- B5&#45;&gt;P5 -->
<g id="edge6" class="edge"><title>B5:a&#45;&gt;P5:a</title>
<path fill="none" stroke="black" d="M1028.5,-359C1042.52,-359 1052.66,-400.721 1065.28,-415.714"/>
<polygon fill="black" stroke="black" points="1063.63,-418.809 1074,-421 1067.26,-412.823 1063.63,-418.809"/>
<text text-anchor="middle" x="1052.5" y="-403.8" font-family="Times,serif" font-size="14.00">1</text>
</g>
<!-- B6 -->
<g id="node16" class="node"><title>B6</title>
<path fill="none" stroke="black" d="M1441.5,-332C1441.5,-332 1495.5,-332 1495.5,-332 1501.5,-332 1507.5,-338 1507.5,-344 1507.5,-344 1507.5,-366 1507.5,-366 1507.5,-372 1501.5,-378 1495.5,-378 1495.5,-378 1441.5,-378 1441.5,-378 1435.5,-378 1429.5,-372 1429.5,-366 1429.5,-366 1429.5,-344 1429.5,-344 1429.5,-338 1435.5,-332 1441.5,-332"/>
<text text-anchor="middle" x="1468.5" y="-362.8" font-family="Times,serif" font-size="14.00">Blueprint 6</text>
<polyline fill="none" stroke="black" points="1429.5,-355 1507.5,-355 "/>
<text text-anchor="middle" x="1468.5" y="-339.8" font-family="Times,serif" font-size="14.00">Coolant 3</text>
</g>
<!-- B6&#45;&gt;P6 -->
<g id="edge7" class="edge"><title>B6:a&#45;&gt;P6:a</title>
<path fill="none" stroke="black" d="M1508.5,-367C1522.81,-367 1532.52,-323.934 1545.18,-308.457"/>
<polygon fill="black" stroke="black" points="1547.34,-311.237 1554,-303 1543.65,-305.283 1547.34,-311.237"/>
<text text-anchor="middle" x="1532.5" y="-342.8" font-family="Times,serif" font-size="14.00">1</text>
</g>
<!-- B7 -->
<g id="node17" class="node"><title>B7</title>
<path fill="none" stroke="black" d="M721.5,-270C721.5,-270 775.5,-270 775.5,-270 781.5,-270 787.5,-276 787.5,-282 787.5,-282 787.5,-304 787.5,-304 787.5,-310 781.5,-316 775.5,-316 775.5,-316 721.5,-316 721.5,-316 715.5,-316 709.5,-310 709.5,-304 709.5,-304 709.5,-282 709.5,-282 709.5,-276 715.5,-270 721.5,-270"/>
<text text-anchor="middle" x="748.5" y="-300.8" font-family="Times,serif" font-size="14.00">Blueprint 7</text>
<polyline fill="none" stroke="black" points="709.5,-293 787.5,-293 "/>
<text text-anchor="middle" x="748.5" y="-277.8" font-family="Times,serif" font-size="14.00">Coolant 5</text>
</g>
<!-- B7&#45;&gt;P7 -->
<g id="edge8" class="edge"><title>B7:a&#45;&gt;P7:a</title>
<path fill="none" stroke="black" d="M788.5,-305C804.773,-305 811.224,-305 823.661,-305"/>
<polygon fill="black" stroke="black" points="824,-308.5 834,-305 824,-301.5 824,-308.5"/>
<text text-anchor="middle" x="812.5" y="-308.8" font-family="Times,serif" font-size="14.00">1</text>
</g>
<!-- B8 -->
<g id="node18" class="node"><title>B8</title>
<path fill="none" stroke="black" d="M1201.5,-436C1201.5,-436 1255.5,-436 1255.5,-436 1261.5,-436 1267.5,-442 1267.5,-448 1267.5,-448 1267.5,-470 1267.5,-470 1267.5,-476 1261.5,-482 1255.5,-482 1255.5,-482 1201.5,-482 1201.5,-482 1195.5,-482 1189.5,-476 1189.5,-470 1189.5,-470 1189.5,-448 1189.5,-448 1189.5,-442 1195.5,-436 1201.5,-436"/>
<text text-anchor="middle" x="1228.5" y="-466.8" font-family="Times,serif" font-size="14.00">Blueprint 8</text>
<polyline fill="none" stroke="black" points="1189.5,-459 1267.5,-459 "/>
<text text-anchor="middle" x="1228.5" y="-443.8" font-family="Times,serif" font-size="14.00">Coolant 4</text>
</g>
<!-- B8&#45;&gt;P8 -->
<g id="edge9" class="edge"><title>B8:a&#45;&gt;P8:a</title>
<path fill="none" stroke="black" d="M1268.5,-471C1281.66,-471 1285.91,-473.541 1296,-482 1303.81,-488.55 1302.4,-499.389 1305.24,-505.798"/>
<polygon fill="black" stroke="black" points="1303.61,-508.903 1314,-511 1307.19,-502.885 1303.61,-508.903"/>
<text text-anchor="middle" x="1292.5" y="-485.8" font-family="Times,serif" font-size="14.00">1</text>
</g>
<!-- B9&#45;&gt;P4 -->
<g id="edge13" class="edge"><title>B9:a&#45;&gt;P4:a</title>
<path fill="none" stroke="black" d="M311,-506C326.255,-506 327.137,-247.141 329,-232 332.359,-204.692 324.982,-118.048 344.65,-98.1162"/>
<polygon fill="black" stroke="black" points="346.258,-101.232 354,-94 343.437,-94.8258 346.258,-101.232"/>
<text text-anchor="middle" x="332.5" y="-235.8" font-family="Times,serif" font-size="14.00">1</text>
</g>
<!-- B9&#45;&gt;P5 -->
<g id="edge14" class="edge"><title>B9:a&#45;&gt;P5:a</title>
<path fill="none" stroke="black" d="M311,-506C319.944,-506 320.596,-511.939 329,-515 354.12,-524.149 360.766,-529 387.5,-529 387.5,-529 387.5,-529 813.5,-529 925.802,-529 970.209,-530.469 1056,-458 1066.15,-449.426 1061.4,-433.779 1065.06,-425.863"/>
<polygon fill="black" stroke="black" points="1066.89,-428.852 1074,-421 1063.54,-422.702 1066.89,-428.852"/>
<text text-anchor="middle" x="684.5" y="-532.8" font-family="Times,serif" font-size="14.00">1</text>
</g>
<!-- B10&#45;&gt;P2 -->
<g id="edge18" class="edge"><title>B10:a&#45;&gt;P2:a</title>
<path fill="none" stroke="black" d="M551,-296C563.344,-296 573.732,-261.034 585.312,-247.375"/>
<polygon fill="black" stroke="black" points="587.338,-250.238 594,-242 583.655,-244.285 587.338,-250.238"/>
<text text-anchor="middle" x="572.5" y="-279.8" font-family="Times,serif" font-size="14.00">2</text>
</g>
<!-- B10&#45;&gt;P8 -->
<g id="edge19" class="edge"><title>B10:a&#45;&gt;P8:a</title>
<path fill="none" stroke="black" d="M508.5,-308C508.5,-391.369 544.131,-453 627.5,-453 627.5,-453 627.5,-453 813.5,-453 901.823,-453 899.177,-549 987.5,-549 987.5,-549 987.5,-549 1229.5,-549 1260.92,-549 1268.48,-540.166 1296,-525 1300.72,-522.401 1302.64,-518.612 1304.93,-515.632"/>
<polygon fill="black" stroke="black" points="1306.69,-518.665 1314,-511 1303.5,-512.43 1306.69,-518.665"/>
<text text-anchor="middle" x="924.5" y="-532.8" font-family="Times,serif" font-size="14.00">1</text>
</g>
<!-- B11&#45;&gt;P3 -->
<g id="edge22" class="edge"><title>B11:a&#45;&gt;P3:a</title>
<path fill="none" stroke="black" d="M1271,-244C1294.83,-244 1288.96,-210.643 1303.98,-200.74"/>
<polygon fill="black" stroke="black" points="1305.28,-204.013 1314,-198 1303.43,-197.261 1305.28,-204.013"/>
<text text-anchor="middle" x="1292.5" y="-234.8" font-family="Times,serif" font-size="14.00">1</text>
</g>
<!-- B11&#45;&gt;P4 -->
<g id="edge23" class="edge"><title>B11:a&#45;&gt;P4:a</title>
<path fill="none" stroke="black" d="M1186,-244C1173.1,-244 1153.86,-211.956 1143,-205 1104.76,-180.519 1088.55,-187.299 1049,-165 990.065,-131.772 993.157,-76 925.5,-76 507.5,-76 507.5,-76 507.5,-76 472.702,-76 463.112,-90.7832 433.041,-93.5551"/>
<polygon fill="black" stroke="black" points="432.835,-90.0606 423,-94 433.145,-97.0538 432.835,-90.0606"/>
<text text-anchor="middle" x="812.5" y="-79.8" font-family="Times,serif" font-size="14.00">1</text>
</g>
<!-- B11&#45;&gt;P6 -->
<g id="edge24" class="edge"><title>B11:a&#45;&gt;P6:a</title>
<path fill="none" stroke="black" d="M1271,-244C1287.15,-244 1385.28,-305.29 1401,-309 1463.74,-323.811 1483.84,-305.178 1543.63,-303.172"/>
<polygon fill="black" stroke="black" points="1544.06,-306.665 1554,-303 1543.94,-299.666 1544.06,-306.665"/>
<text text-anchor="middle" x="1404.5" y="-314.8" font-family="Times,serif" font-size="14.00">1</text>
</g>
<!-- B11&#45;&gt;P7 -->
<g id="edge25" class="edge"><title>B11:a&#45;&gt;P7:a</title>
<path fill="none" stroke="black" d="M1186,-244C1067.08,-244 1023.42,-220.573 921,-281 913.823,-285.234 913.794,-293.551 911.527,-299.193"/>
<polygon fill="black" stroke="black" points="909.295,-296.478 903,-305 913.235,-302.264 909.295,-296.478"/>
<text text-anchor="middle" x="1052.5" y="-243.8" font-family="Times,serif" font-size="14.00">1</text>
</g>
<!-- B11&#45;&gt;P8 -->
<g id="edge26" class="edge"><title>B11:a&#45;&gt;P8:a</title>
<path fill="none" stroke="black" d="M1228.5,-256C1228.5,-256.412 1294.77,-454.833 1310.62,-501.332"/>
<polygon fill="black" stroke="black" points="1307.4,-502.712 1314,-511 1314.01,-500.405 1307.4,-502.712"/>
<text text-anchor="middle" x="1292.5" y="-460.8" font-family="Times,serif" font-size="14.00">1</text>
</g>
<!-- B12&#45;&gt;P5 -->
<g id="edge29" class="edge"><title>B12:a&#45;&gt;P5:a</title>
<path fill="none" stroke="black" d="M1666,-303C1651.65,-303 1603.85,-407 1589.5,-407 1227.5,-407 1227.5,-407 1227.5,-407 1193.15,-407 1182.98,-418.399 1153.36,-420.626"/>
<polygon fill="black" stroke="black" points="1152.87,-417.141 1143,-421 1153.12,-424.136 1152.87,-417.141"/>
<text text-anchor="middle" x="1404.5" y="-410.8" font-family="Times,serif" font-size="14.00">1</text>
</g>
<!-- B13&#45;&gt;P0 -->
<g id="edge32" class="edge"><title>B13:a&#45;&gt;P0:a</title>
<path fill="none" stroke="black" d="M1426,-134C1412.88,-134 1391.06,-34.3598 1383,-24 1371.76,-9.54092 1367.82,-0 1349.5,-0 271,-0 271,-0 271,-0 243.441,-0 243.138,-23.3734 233,-49 215.447,-93.3688 237.741,-454.708 198.926,-501.102"/>
<polygon fill="black" stroke="black" points="197.083,-498.121 190,-506 200.451,-504.258 197.083,-498.121"/>
<text text-anchor="middle" x="812.5" y="-3.8" font-family="Times,serif" font-size="14.00">1</text>
</g>
<!-- B13&#45;&gt;P2 -->
<g id="edge33" class="edge"><title>B13:a&#45;&gt;P2:a</title>
<path fill="none" stroke="black" d="M1426,-134C1354.96,-134 1341.5,-103.733 1271,-95 1118.38,-76.0939 1079.29,-114 925.5,-114 747.5,-114 747.5,-114 747.5,-114 705.859,-114 696.839,-141.489 681,-180 671.791,-202.39 685.735,-231.136 673.082,-239.572"/>
<polygon fill="black" stroke="black" points="671.903,-236.256 663,-242 673.542,-243.061 671.903,-236.256"/>
<text text-anchor="middle" x="1052.5" y="-108.8" font-family="Times,serif" font-size="14.00">1</text>
</g>
<!-- B13&#45;&gt;P6 -->
<g id="edge34" class="edge"><title>B13:a&#45;&gt;P6:a</title>
<path fill="none" stroke="black" d="M1511,-134C1532.05,-134 1523.7,-206.628 1529,-227 1532.64,-240.98 1535.13,-282.414 1545.47,-297.461"/>
<polygon fill="black" stroke="black" points="1543.71,-300.487 1554,-303 1547.52,-294.617 1543.71,-300.487"/>
<text text-anchor="middle" x="1532.5" y="-271.8" font-family="Times,serif" font-size="14.00">2</text>
</g>
<!-- B13&#45;&gt;P7 -->
<g id="edge35" class="edge"><title>B13:a&#45;&gt;P7:a</title>
<path fill="none" stroke="black" d="M1468.5,-146C1468.5,-273.352 1054.52,-303.549 913.095,-304.948"/>
<polygon fill="black" stroke="black" points="912.982,-301.448 903,-305 913.018,-308.448 912.982,-301.448"/>
<text text-anchor="middle" x="1164.5" y="-290.8" font-family="Times,serif" font-size="14.00">1</text>
</g>
<!-- B14&#45;&gt;P7 -->
<g id="edge39" class="edge"><title>B14:a&#45;&gt;P7:a</title>
<path fill="none" stroke="black" d="M791,-179C817.003,-179 807.66,-276.332 825.102,-299.905"/>
<polygon fill="black" stroke="black" points="823.583,-303.068 834,-305 827.062,-296.993 823.583,-303.068"/>
<text text-anchor="middle" x="812.5" y="-271.8" font-family="Times,serif" font-size="14.00">1</text>
</g>
<!-- B15&#45;&gt;P2 -->
<g id="edge43" class="edge"><title>B15:a&#45;&gt;P2:a</title>
<path fill="none" stroke="black" d="M946,-424C924.327,-424 922.703,-410.029 903,-401 817.685,-361.906 785.937,-374.163 706,-325 669.553,-302.584 634.442,-301.453 629.178,-265.05"/>
<polygon fill="black" stroke="black" points="632.665,-264.742 628.5,-255 625.681,-265.213 632.665,-264.742"/>
<text text-anchor="middle" x="812.5" y="-374.8" font-family="Times,serif" font-size="14.00">1</text>
</g>
<!-- B15&#45;&gt;P5 -->
<g id="edge44" class="edge"><title>B15:a&#45;&gt;P5:a</title>
<path fill="none" stroke="black" d="M1031,-424C1046.27,-424 1052.34,-422.095 1063.87,-421.321"/>
<polygon fill="black" stroke="black" points="1064.12,-424.815 1074,-421 1063.89,-417.819 1064.12,-424.815"/>
<text text-anchor="middle" x="1052.5" y="-426.8" font-family="Times,serif" font-size="14.00">1</text>
</g>
<!-- B15&#45;&gt;P8 -->
<g id="edge45" class="edge"><title>B15:a&#45;&gt;P8:a</title>
<path fill="none" stroke="black" d="M1031,-424C1042.31,-424 1039.44,-435.948 1049,-442 1103.64,-476.593 1123.33,-475.049 1186,-491 1238.42,-504.343 1254.5,-510.267 1304,-510.936"/>
<polygon fill="black" stroke="black" points="1303.98,-514.436 1314,-511 1304.02,-507.436 1303.98,-514.436"/>
<text text-anchor="middle" x="1164.5" y="-490.8" font-family="Times,serif" font-size="14.00">1</text>
</g>
</g>
</svg>
