<?xml version="1.0" encoding="UTF-8" standalone="no"?>
<!DOCTYPE svg PUBLIC "-//W3C//DTD SVG 1.1//EN"
 "http://www.w3.org/Graphics/SVG/1.1/DTD/svg11.dtd">
<!-- Generated by graphviz version 2.38.0 (20140413.2041)
 -->
<!-- Title: g Pages: 1 -->
<svg width="207pt" height="785pt"
 viewBox="0.00 0.00 207.00 785.00" xmlns="http://www.w3.org/2000/svg" xmlns:xlink="http://www.w3.org/1999/xlink">
<g id="graph0" class="graph" transform="scale(1 1) rotate(0) translate(4 781)">
<title>g</title>
<polygon fill="white" stroke="none" points="-4,4 -4,-781 203,-781 203,4 -4,4"/>
<!-- P0 -->
<g id="node1" class="node"><title>P0</title>
<polygon fill="none" stroke="black" points="128,-0.5 128,-69.5 197,-69.5 197,-0.5 128,-0.5"/>
<text text-anchor="middle" x="162.5" y="-54.3" font-family="Times,serif" font-size="14.00">Product 0</text>
<polyline fill="none" stroke="black" points="128,-46.5 197,-46.5 "/>
<text text-anchor="middle" x="162.5" y="-31.3" font-family="Times,serif" font-size="14.00">Value 1</text>
<polyline fill="none" stroke="black" points="128,-23.5 197,-23.5 "/>
<text text-anchor="middle" x="162.5" y="-8.3" font-family="Times,serif" font-size="14.00">Initial 0</text>
</g>
<!-- P1 -->
<g id="node2" class="node"><title>P1</title>
<polygon fill="none" stroke="black" points="128,-88.5 128,-157.5 197,-157.5 197,-88.5 128,-88.5"/>
<text text-anchor="middle" x="162.5" y="-142.3" font-family="Times,serif" font-size="14.00">Product 1</text>
<polyline fill="none" stroke="black" points="128,-134.5 197,-134.5 "/>
<text text-anchor="middle" x="162.5" y="-119.3" font-family="Times,serif" font-size="14.00">Value 2</text>
<polyline fill="none" stroke="black" points="128,-111.5 197,-111.5 "/>
<text text-anchor="middle" x="162.5" y="-96.3" font-family="Times,serif" font-size="14.00">Initial 0</text>
</g>
<!-- P2 -->
<g id="node3" class="node"><title>P2</title>
<polygon fill="none" stroke="black" points="128,-176.5 128,-245.5 197,-245.5 197,-176.5 128,-176.5"/>
<text text-anchor="middle" x="162.5" y="-230.3" font-family="Times,serif" font-size="14.00">Product 2</text>
<polyline fill="none" stroke="black" points="128,-222.5 197,-222.5 "/>
<text text-anchor="middle" x="162.5" y="-207.3" font-family="Times,serif" font-size="14.00">Value 4</text>
<polyline fill="none" stroke="black" points="128,-199.5 197,-199.5 "/>
<text text-anchor="middle" x="162.5" y="-184.3" font-family="Times,serif" font-size="14.00">Initial 0</text>
</g>
<!-- P3 -->
<g id="node4" class="node"><title>P3</title>
<polygon fill="none" stroke="black" points="128,-264.5 128,-333.5 197,-333.5 197,-264.5 128,-264.5"/>
<text text-anchor="middle" x="162.5" y="-318.3" font-family="Times,serif" font-size="14.00">Product 3</text>
<polyline fill="none" stroke="black" points="128,-310.5 197,-310.5 "/>
<text text-anchor="middle" x="162.5" y="-295.3" font-family="Times,serif" font-size="14.00">Value 8</text>
<polyline fill="none" stroke="black" points="128,-287.5 197,-287.5 "/>
<text text-anchor="middle" x="162.5" y="-272.3" font-family="Times,serif" font-size="14.00">Initial 0</text>
</g>
<!-- P4 -->
<g id="node5" class="node"><title>P4</title>
<polygon fill="none" stroke="black" points="128,-352.5 128,-421.5 197,-421.5 197,-352.5 128,-352.5"/>
<text text-anchor="middle" x="162.5" y="-406.3" font-family="Times,serif" font-size="14.00">Product 4</text>
<polyline fill="none" stroke="black" points="128,-398.5 197,-398.5 "/>
<text text-anchor="middle" x="162.5" y="-383.3" font-family="Times,serif" font-size="14.00">Value 16</text>
<polyline fill="none" stroke="black" points="128,-375.5 197,-375.5 "/>
<text text-anchor="middle" x="162.5" y="-360.3" font-family="Times,serif" font-size="14.00">Initial 0</text>
</g>
<!-- P5 -->
<g id="node6" class="node"><title>P5</title>
<polygon fill="none" stroke="black" points="128,-440.5 128,-509.5 197,-509.5 197,-440.5 128,-440.5"/>
<text text-anchor="middle" x="162.5" y="-494.3" font-family="Times,serif" font-size="14.00">Product 5</text>
<polyline fill="none" stroke="black" points="128,-486.5 197,-486.5 "/>
<text text-anchor="middle" x="162.5" y="-471.3" font-family="Times,serif" font-size="14.00">Value 32</text>
<polyline fill="none" stroke="black" points="128,-463.5 197,-463.5 "/>
<text text-anchor="middle" x="162.5" y="-448.3" font-family="Times,serif" font-size="14.00">Initial 0</text>
</g>
<!-- P6 -->
<g id="node7" class="node"><title>P6</title>
<polygon fill="none" stroke="black" points="128,-528.5 128,-597.5 197,-597.5 197,-528.5 128,-528.5"/>
<text text-anchor="middle" x="162.5" y="-582.3" font-family="Times,serif" font-size="14.00">Product 6</text>
<polyline fill="none" stroke="black" points="128,-574.5 197,-574.5 "/>
<text text-anchor="middle" x="162.5" y="-559.3" font-family="Times,serif" font-size="14.00">Value 64</text>
<polyline fill="none" stroke="black" points="128,-551.5 197,-551.5 "/>
<text text-anchor="middle" x="162.5" y="-536.3" font-family="Times,serif" font-size="14.00">Initial 0</text>
</g>
<!-- P7 -->
<g id="node8" class="node"><title>P7</title>
<polygon fill="none" stroke="black" points="126,-616.5 126,-685.5 199,-685.5 199,-616.5 126,-616.5"/>
<text text-anchor="middle" x="162.5" y="-670.3" font-family="Times,serif" font-size="14.00">Product 7</text>
<polyline fill="none" stroke="black" points="126,-662.5 199,-662.5 "/>
<text text-anchor="middle" x="162.5" y="-647.3" font-family="Times,serif" font-size="14.00">Value 128</text>
<polyline fill="none" stroke="black" points="126,-639.5 199,-639.5 "/>
<text text-anchor="middle" x="162.5" y="-624.3" font-family="Times,serif" font-size="14.00">Initial 0</text>
</g>
<!-- P8 -->
<g id="node9" class="node"><title>P8</title>
<polygon fill="none" stroke="black" points="126,-704.5 126,-773.5 199,-773.5 199,-704.5 126,-704.5"/>
<text text-anchor="middle" x="162.5" y="-758.3" font-family="Times,serif" font-size="14.00">Product 8</text>
<polyline fill="none" stroke="black" points="126,-750.5 199,-750.5 "/>
<text text-anchor="middle" x="162.5" y="-735.3" font-family="Times,serif" font-size="14.00">Value 256</text>
<polyline fill="none" stroke="black" points="126,-727.5 199,-727.5 "/>
<text text-anchor="middle" x="162.5" y="-712.3" font-family="Times,serif" font-size="14.00">Initial 0</text>
</g>
<!-- B0 -->
<g id="node10" class="node"><title>B0</title>
<path fill="none" stroke="black" d="M14.5,-23C14.5,-23 68.5,-23 68.5,-23 74.5,-23 80.5,-29 80.5,-35 80.5,-35 80.5,-57 80.5,-57 80.5,-63 74.5,-69 68.5,-69 68.5,-69 14.5,-69 14.5,-69 8.5,-69 2.5,-63 2.5,-57 2.5,-57 2.5,-35 2.5,-35 2.5,-29 8.5,-23 14.5,-23"/>
<text text-anchor="middle" x="41.5" y="-53.8" font-family="Times,serif" font-size="14.00">Blueprint 0</text>
<polyline fill="none" stroke="black" points="2.5,-46 80.5,-46 "/>
<text text-anchor="middle" x="41.5" y="-30.8" font-family="Times,serif" font-size="14.00">Coolant 1</text>
</g>
<!-- B0&#45;&gt;P0 -->
<g id="edge1" class="edge"><title>B0:a&#45;&gt;P0:a</title>
<path fill="none" stroke="black" d="M81.5,-58C97.5938,-58 103.975,-58 116.274,-58"/>
<polygon fill="black" stroke="black" points="116.5,-61.5001 126.5,-58 116.5,-54.5001 116.5,-61.5001"/>
<text text-anchor="middle" x="104.5" y="-61.8" font-family="Times,serif" font-size="14.00">1</text>
</g>
<!-- B1 -->
<g id="node11" class="node"><title>B1</title>
<path fill="none" stroke="black" d="M14.5,-111C14.5,-111 68.5,-111 68.5,-111 74.5,-111 80.5,-117 80.5,-123 80.5,-123 80.5,-145 80.5,-145 80.5,-151 74.5,-157 68.5,-157 68.5,-157 14.5,-157 14.5,-157 8.5,-157 2.5,-151 2.5,-145 2.5,-145 2.5,-123 2.5,-123 2.5,-117 8.5,-111 14.5,-111"/>
<text text-anchor="middle" x="41.5" y="-141.8" font-family="Times,serif" font-size="14.00">Blueprint 1</text>
<polyline fill="none" stroke="black" points="2.5,-134 80.5,-134 "/>
<text text-anchor="middle" x="41.5" y="-118.8" font-family="Times,serif" font-size="14.00">Coolant 2</text>
</g>
<!-- B1&#45;&gt;P1 -->
<g id="edge2" class="edge"><title>B1:a&#45;&gt;P1:a</title>
<path fill="none" stroke="black" d="M81.5,-146C97.5938,-146 103.975,-146 116.274,-146"/>
<polygon fill="black" stroke="black" points="116.5,-149.5 126.5,-146 116.5,-142.5 116.5,-149.5"/>
<text text-anchor="middle" x="104.5" y="-149.8" font-family="Times,serif" font-size="14.00">1</text>
</g>
<!-- B2 -->
<g id="node12" class="node"><title>B2</title>
<path fill="none" stroke="black" d="M14.5,-199C14.5,-199 68.5,-199 68.5,-199 74.5,-199 80.5,-205 80.5,-211 80.5,-211 80.5,-233 80.5,-233 80.5,-239 74.5,-245 68.5,-245 68.5,-245 14.5,-245 14.5,-245 8.5,-245 2.5,-239 2.5,-233 2.5,-233 2.5,-211 2.5,-211 2.5,-205 8.5,-199 14.5,-199"/>
<text text-anchor="middle" x="41.5" y="-229.8" font-family="Times,serif" font-size="14.00">Blueprint 2</text>
<polyline fill="none" stroke="black" points="2.5,-222 80.5,-222 "/>
<text text-anchor="middle" x="41.5" y="-206.8" font-family="Times,serif" font-size="14.00">Coolant 4</text>
</g>
<!-- B2&#45;&gt;P2 -->
<g id="edge3" class="edge"><title>B2:a&#45;&gt;P2:a</title>
<path fill="none" stroke="black" d="M81.5,-234C97.5938,-234 103.975,-234 116.274,-234"/>
<polygon fill="black" stroke="black" points="116.5,-237.5 126.5,-234 116.5,-230.5 116.5,-237.5"/>
<text text-anchor="middle" x="104.5" y="-237.8" font-family="Times,serif" font-size="14.00">1</text>
</g>
<!-- B3 -->
<g id="node13" class="node"><title>B3</title>
<path fill="none" stroke="black" d="M14.5,-287C14.5,-287 68.5,-287 68.5,-287 74.5,-287 80.5,-293 80.5,-299 80.5,-299 80.5,-321 80.5,-321 80.5,-327 74.5,-333 68.5,-333 68.5,-333 14.5,-333 14.5,-333 8.5,-333 2.5,-327 2.5,-321 2.5,-321 2.5,-299 2.5,-299 2.5,-293 8.5,-287 14.5,-287"/>
<text text-anchor="middle" x="41.5" y="-317.8" font-family="Times,serif" font-size="14.00">Blueprint 3</text>
<polyline fill="none" stroke="black" points="2.5,-310 80.5,-310 "/>
<text text-anchor="middle" x="41.5" y="-294.8" font-family="Times,serif" font-size="14.00">Coolant 8</text>
</g>
<!-- B3&#45;&gt;P3 -->
<g id="edge4" class="edge"><title>B3:a&#45;&gt;P3:a</title>
<path fill="none" stroke="black" d="M81.5,-322C97.5938,-322 103.975,-322 116.274,-322"/>
<polygon fill="black" stroke="black" points="116.5,-325.5 126.5,-322 116.5,-318.5 116.5,-325.5"/>
<text text-anchor="middle" x="104.5" y="-325.8" font-family="Times,serif" font-size="14.00">1</text>
</g>
<!-- B4 -->
<g id="node14" class="node"><title>B4</title>
<path fill="none" stroke="black" d="M14.5,-375C14.5,-375 68.5,-375 68.5,-375 74.5,-375 80.5,-381 80.5,-387 80.5,-387 80.5,-409 80.5,-409 80.5,-415 74.5,-421 68.5,-421 68.5,-421 14.5,-421 14.5,-421 8.5,-421 2.5,-415 2.5,-409 2.5,-409 2.5,-387 2.5,-387 2.5,-381 8.5,-375 14.5,-375"/>
<text text-anchor="middle" x="41.5" y="-405.8" font-family="Times,serif" font-size="14.00">Blueprint 4</text>
<polyline fill="none" stroke="black" points="2.5,-398 80.5,-398 "/>
<text text-anchor="middle" x="41.5" y="-382.8" font-family="Times,serif" font-size="14.00">Coolant 16</text>
</g>
<!-- B4&#45;&gt;P4 -->
<g id="edge5" class="edge"><title>B4:a&#45;&gt;P4:a</title>
<path fill="none" stroke="black" d="M81.5,-410C97.5938,-410 103.975,-410 116.274,-410"/>
<polygon fill="black" stroke="black" points="116.5,-413.5 126.5,-410 116.5,-406.5 116.5,-413.5"/>
<text text-anchor="middle" x="104.5" y="-413.8" font-family="Times,serif" font-size="14.00">1</text>
</g>
<!-- B5 -->
<g id="node15" class="node"><title>B5</title>
<path fill="none" stroke="black" d="M14.5,-463C14.5,-463 68.5,-463 68.5,-463 74.5,-463 80.5,-469 80.5,-475 80.5,-475 80.5,-497 80.5,-497 80.5,-503 74.5,-509 68.5,-509 68.5,-509 14.5,-509 14.5,-509 8.5,-509 2.5,-503 2.5,-497 2.5,-497 2.5,-475 2.5,-475 2.5,-469 8.5,-463 14.5,-463"/>
<text text-anchor="middle" x="41.5" y="-493.8" font-family="Times,serif" font-size="14.00">Blueprint 5</text>
<polyline fill="none" stroke="black" points="2.5,-486 80.5,-486 "/>
<text text-anchor="middle" x="41.5" y="-470.8" font-family="Times,serif" font-size="14.00">Coolant 32</text>
</g>
<!-- B5&#45;&gt;P5 -->
<g id="edge6" class="edge"><title>B5:a&#45;&gt;P5:a</title>
<path fill="none" stroke="black" d="M81.5,-498C97.5938,-498 103.975,-498 116.274,-498"/>
<polygon fill="black" stroke="black" points="116.5,-501.5 126.5,-498 116.5,-494.5 116.5,-501.5"/>
<text text-anchor="middle" x="104.5" y="-501.8" font-family="Times,serif" font-size="14.00">1</text>
</g>
<!-- B6 -->
<g id="node16" class="node"><title>B6</title>
<path fill="none" stroke="black" d="M14.5,-551C14.5,-551 68.5,-551 68.5,-551 74.5,-551 80.5,-557 80.5,-563 80.5,-563 80.5,-585 80.5,-585 80.5,-591 74.5,-597 68.5,-597 68.5,-597 14.5,-597 14.5,-597 8.5,-597 2.5,-591 2.5,-585 2.5,-585 2.5,-563 2.5,-563 2.5,-557 8.5,-551 14.5,-551"/>
<text text-anchor="middle" x="41.5" y="-581.8" font-family="Times,serif" font-size="14.00">Blueprint 6</text>
<polyline fill="none" stroke="black" points="2.5,-574 80.5,-574 "/>
<text text-anchor="middle" x="41.5" y="-558.8" font-family="Times,serif" font-size="14.00">Coolant 64</text>
</g>
<!-- B6&#45;&gt;P6 -->
<g id="edge7" class="edge"><title>B6:a&#45;&gt;P6:a</title>
<path fill="none" stroke="black" d="M81.5,-586C97.5938,-586 103.975,-586 116.274,-586"/>
<polygon fill="black" stroke="black" points="116.5,-589.5 126.5,-586 116.5,-582.5 116.5,-589.5"/>
<text text-anchor="middle" x="104.5" y="-589.8" font-family="Times,serif" font-size="14.00">1</text>
</g>
<!-- B7 -->
<g id="node17" class="node"><title>B7</title>
<path fill="none" stroke="black" d="M12,-639C12,-639 71,-639 71,-639 77,-639 83,-645 83,-651 83,-651 83,-673 83,-673 83,-679 77,-685 71,-685 71,-685 12,-685 12,-685 6,-685 0,-679 0,-673 0,-673 0,-651 0,-651 0,-645 6,-639 12,-639"/>
<text text-anchor="middle" x="41.5" y="-669.8" font-family="Times,serif" font-size="14.00">Blueprint 7</text>
<polyline fill="none" stroke="black" points="0,-662 83,-662 "/>
<text text-anchor="middle" x="41.5" y="-646.8" font-family="Times,serif" font-size="14.00">Coolant 128</text>
</g>
<!-- B7&#45;&gt;P7 -->
<g id="edge8" class="edge"><title>B7:a&#45;&gt;P7:a</title>
<path fill="none" stroke="black" d="M83,-674C98.2292,-674 104.357,-674 115.888,-674"/>
<polygon fill="black" stroke="black" points="116,-677.5 126,-674 116,-670.5 116,-677.5"/>
<text text-anchor="middle" x="104.5" y="-677.8" font-family="Times,serif" font-size="14.00">1</text>
</g>
<!-- B8 -->
<g id="node18" class="node"><title>B8</title>
<path fill="none" stroke="black" d="M12,-727C12,-727 71,-727 71,-727 77,-727 83,-733 83,-739 83,-739 83,-761 83,-761 83,-767 77,-773 71,-773 71,-773 12,-773 12,-773 6,-773 0,-767 0,-761 0,-761 0,-739 0,-739 0,-733 6,-727 12,-727"/>
<text text-anchor="middle" x="41.5" y="-757.8" font-family="Times,serif" font-size="14.00">Blueprint 8</text>
<polyline fill="none" stroke="black" points="0,-750 83,-750 "/>
<text text-anchor="middle" x="41.5" y="-734.8" font-family="Times,serif" font-size="14.00">Coolant 256</text>
</g>
<!-- B8&#45;&gt;P8 -->
<g id="edge9" class="edge"><title>B8:a&#45;&gt;P8:a</title>
<path fill="none" stroke="black" d="M83,-762C98.2292,-762 104.357,-762 115.888,-762"/>
<polygon fill="black" stroke="black" points="116,-765.5 126,-762 116,-758.5 116,-765.5"/>
<text text-anchor="middle" x="104.5" y="-765.8" font-family="Times,serif" font-size="14.00">1</text>
</g>
</g>
</svg>
