<?xml version="1.0" encoding="UTF-8" standalone="no"?>
<!DOCTYPE svg PUBLIC "-//W3C//DTD SVG 1.1//EN"
 "http://www.w3.org/Graphics/SVG/1.1/DTD/svg11.dtd">
<!-- Generated by graphviz version 2.38.0 (20140413.2041)
 -->
<!-- Title: g Pages: 1 -->
<svg width="1164pt" height="433pt"
 viewBox="0.00 0.00 1164.00 433.00" xmlns="http://www.w3.org/2000/svg" xmlns:xlink="http://www.w3.org/1999/xlink">
<g id="graph0" class="graph" transform="scale(1 1) rotate(0) translate(4 429)">
<title>g</title>
<polygon fill="white" stroke="none" points="-4,4 -4,-429 1160,-429 1160,4 -4,4"/>
<!-- P0 -->
<g id="node1" class="node"><title>P0</title>
<polygon fill="none" stroke="black" points="128,-0.5 128,-69.5 197,-69.5 197,-0.5 128,-0.5"/>
<text text-anchor="middle" x="162.5" y="-54.3" font-family="Times,serif" font-size="14.00">Product 0</text>
<polyline fill="none" stroke="black" points="128,-46.5 197,-46.5 "/>
<text text-anchor="middle" x="162.5" y="-31.3" font-family="Times,serif" font-size="14.00">Value 1</text>
<polyline fill="none" stroke="black" points="128,-23.5 197,-23.5 "/>
<text text-anchor="middle" x="162.5" y="-8.3" font-family="Times,serif" font-size="14.00">Initial 0</text>
</g>
<!-- B9 -->
<g id="node19" class="node"><title>B9</title>
<path fill="none" stroke="black" d="M254,-23C254,-23 308,-23 308,-23 314,-23 320,-29 320,-35 320,-35 320,-57 320,-57 320,-63 314,-69 308,-69 308,-69 254,-69 254,-69 248,-69 242,-63 242,-57 242,-57 242,-35 242,-35 242,-29 248,-23 254,-23"/>
<text text-anchor="middle" x="281" y="-53.8" font-family="Times,serif" font-size="14.00">Blueprint 9</text>
<polyline fill="none" stroke="black" points="242,-46 320,-46 "/>
<text text-anchor="middle" x="281" y="-30.8" font-family="Times,serif" font-size="14.00">Coolant 1</text>
</g>
<!-- P0&#45;&gt;B9 -->
<g id="edge10" class="edge"><title>P0:a&#45;&gt;B9:a</title>
<path fill="none" stroke="black" d="M198.5,-58C213.906,-58 220.105,-58 231.771,-58"/>
<polygon fill="black" stroke="black" points="232,-61.5001 242,-58 232,-54.5001 232,-61.5001"/>
<text text-anchor="middle" x="220.5" y="-61.8" font-family="Times,serif" font-size="14.00">2</text>
</g>
<!-- P1 -->
<g id="node2" class="node"><title>P1</title>
<polygon fill="none" stroke="black" points="128,-88.5 128,-157.5 197,-157.5 197,-88.5 128,-88.5"/>
<text text-anchor="middle" x="162.5" y="-142.3" font-family="Times,serif" font-size="14.00">Product 1</text>
<polyline fill="none" stroke="black" points="128,-134.5 197,-134.5 "/>
<text text-anchor="middle" x="162.5" y="-119.3" font-family="Times,serif" font-size="14.00">Value 2</text>
<polyline fill="none" stroke="black" points="128,-111.5 197,-111.5 "/>
<text text-anchor="middle" x="162.5" y="-96.3" font-family="Times,serif" font-size="14.00">Initial 0</text>
</g>
<!-- P2 -->
<g id="node3" class="node"><title>P2</title>
<polygon fill="none" stroke="black" points="363,-39.5 363,-108.5 432,-108.5 432,-39.5 363,-39.5"/>
<text text-anchor="middle" x="397.5" y="-93.3" font-family="Times,serif" font-size="14.00">Product 2</text>
<polyline fill="none" stroke="black" points="363,-85.5 432,-85.5 "/>
<text text-anchor="middle" x="397.5" y="-70.3" font-family="Times,serif" font-size="14.00">Value 4</text>
<polyline fill="none" stroke="black" points="363,-62.5 432,-62.5 "/>
<text text-anchor="middle" x="397.5" y="-47.3" font-family="Times,serif" font-size="14.00">Initial 0</text>
</g>
<!-- B10 -->
<g id="node20" class="node"><title>B10</title>
<path fill="none" stroke="black" d="M487,-62C487,-62 548,-62 548,-62 554,-62 560,-68 560,-74 560,-74 560,-96 560,-96 560,-102 554,-108 548,-108 548,-108 487,-108 487,-108 481,-108 475,-102 475,-96 475,-96 475,-74 475,-74 475,-68 481,-62 487,-62"/>
<text text-anchor="middle" x="517.5" y="-92.8" font-family="Times,serif" font-size="14.00">Blueprint 10</text>
<polyline fill="none" stroke="black" points="475,-85 560,-85 "/>
<text text-anchor="middle" x="517.5" y="-69.8" font-family="Times,serif" font-size="14.00">Coolant 2</text>
</g>
<!-- P2&#45;&gt;B10 -->
<g id="edge12" class="edge"><title>P2:a&#45;&gt;B10:a</title>
<path fill="none" stroke="black" d="M432,-97C447.229,-97 453.357,-97 464.888,-97"/>
<polygon fill="black" stroke="black" points="465,-100.5 475,-97 465,-93.5001 465,-100.5"/>
<text text-anchor="middle" x="453.5" y="-100.8" font-family="Times,serif" font-size="14.00">2</text>
</g>
<!-- P3 -->
<g id="node4" class="node"><title>P3</title>
<polygon fill="none" stroke="black" points="128,-176.5 128,-245.5 197,-245.5 197,-176.5 128,-176.5"/>
<text text-anchor="middle" x="162.5" y="-230.3" font-family="Times,serif" font-size="14.00">Product 3</text>
<polyline fill="none" stroke="black" points="128,-222.5 197,-222.5 "/>
<text text-anchor="middle" x="162.5" y="-207.3" font-family="Times,serif" font-size="14.00">Value 8</text>
<polyline fill="none" stroke="black" points="128,-199.5 197,-199.5 "/>
<text text-anchor="middle" x="162.5" y="-184.3" font-family="Times,serif" font-size="14.00">Initial 0</text>
</g>
<!-- P4 -->
<g id="node5" class="node"><title>P4</title>
<polygon fill="none" stroke="black" points="603,-78.5 603,-147.5 672,-147.5 672,-78.5 603,-78.5"/>
<text text-anchor="middle" x="637.5" y="-132.3" font-family="Times,serif" font-size="14.00">Product 4</text>
<polyline fill="none" stroke="black" points="603,-124.5 672,-124.5 "/>
<text text-anchor="middle" x="637.5" y="-109.3" font-family="Times,serif" font-size="14.00">Value 16</text>
<polyline fill="none" stroke="black" points="603,-101.5 672,-101.5 "/>
<text text-anchor="middle" x="637.5" y="-86.3" font-family="Times,serif" font-size="14.00">Initial 0</text>
</g>
<!-- B11 -->
<g id="node21" class="node"><title>B11</title>
<path fill="none" stroke="black" d="M727,-101C727,-101 788,-101 788,-101 794,-101 800,-107 800,-113 800,-113 800,-135 800,-135 800,-141 794,-147 788,-147 788,-147 727,-147 727,-147 721,-147 715,-141 715,-135 715,-135 715,-113 715,-113 715,-107 721,-101 727,-101"/>
<text text-anchor="middle" x="757.5" y="-131.8" font-family="Times,serif" font-size="14.00">Blueprint 11</text>
<polyline fill="none" stroke="black" points="715,-124 800,-124 "/>
<text text-anchor="middle" x="757.5" y="-108.8" font-family="Times,serif" font-size="14.00">Coolant 4</text>
</g>
<!-- P4&#45;&gt;B11 -->
<g id="edge14" class="edge"><title>P4:a&#45;&gt;B11:a</title>
<path fill="none" stroke="black" d="M672,-136C687.229,-136 693.357,-136 704.888,-136"/>
<polygon fill="black" stroke="black" points="705,-139.5 715,-136 705,-132.5 705,-139.5"/>
<text text-anchor="middle" x="693.5" y="-139.8" font-family="Times,serif" font-size="14.00">2</text>
</g>
<!-- P5 -->
<g id="node6" class="node"><title>P5</title>
<polygon fill="none" stroke="black" points="128,-264.5 128,-333.5 197,-333.5 197,-264.5 128,-264.5"/>
<text text-anchor="middle" x="162.5" y="-318.3" font-family="Times,serif" font-size="14.00">Product 5</text>
<polyline fill="none" stroke="black" points="128,-310.5 197,-310.5 "/>
<text text-anchor="middle" x="162.5" y="-295.3" font-family="Times,serif" font-size="14.00">Value 32</text>
<polyline fill="none" stroke="black" points="128,-287.5 197,-287.5 "/>
<text text-anchor="middle" x="162.5" y="-272.3" font-family="Times,serif" font-size="14.00">Initial 0</text>
</g>
<!-- P6 -->
<g id="node7" class="node"><title>P6</title>
<polygon fill="none" stroke="black" points="843,-117.5 843,-186.5 912,-186.5 912,-117.5 843,-117.5"/>
<text text-anchor="middle" x="877.5" y="-171.3" font-family="Times,serif" font-size="14.00">Product 6</text>
<polyline fill="none" stroke="black" points="843,-163.5 912,-163.5 "/>
<text text-anchor="middle" x="877.5" y="-148.3" font-family="Times,serif" font-size="14.00">Value 64</text>
<polyline fill="none" stroke="black" points="843,-140.5 912,-140.5 "/>
<text text-anchor="middle" x="877.5" y="-125.3" font-family="Times,serif" font-size="14.00">Initial 0</text>
</g>
<!-- B12 -->
<g id="node22" class="node"><title>B12</title>
<path fill="none" stroke="black" d="M967,-140C967,-140 1028,-140 1028,-140 1034,-140 1040,-146 1040,-152 1040,-152 1040,-174 1040,-174 1040,-180 1034,-186 1028,-186 1028,-186 967,-186 967,-186 961,-186 955,-180 955,-174 955,-174 955,-152 955,-152 955,-146 961,-140 967,-140"/>
<text text-anchor="middle" x="997.5" y="-170.8" font-family="Times,serif" font-size="14.00">Blueprint 12</text>
<polyline fill="none" stroke="black" points="955,-163 1040,-163 "/>
<text text-anchor="middle" x="997.5" y="-147.8" font-family="Times,serif" font-size="14.00">Coolant 8</text>
</g>
<!-- P6&#45;&gt;B12 -->
<g id="edge16" class="edge"><title>P6:a&#45;&gt;B12:a</title>
<path fill="none" stroke="black" d="M912,-175C927.229,-175 933.357,-175 944.888,-175"/>
<polygon fill="black" stroke="black" points="945,-178.5 955,-175 945,-171.5 945,-178.5"/>
<text text-anchor="middle" x="933.5" y="-178.8" font-family="Times,serif" font-size="14.00">2</text>
</g>
<!-- P7 -->
<g id="node8" class="node"><title>P7</title>
<polygon fill="none" stroke="black" points="126,-352.5 126,-421.5 199,-421.5 199,-352.5 126,-352.5"/>
<text text-anchor="middle" x="162.5" y="-406.3" font-family="Times,serif" font-size="14.00">Product 7</text>
<polyline fill="none" stroke="black" points="126,-398.5 199,-398.5 "/>
<text text-anchor="middle" x="162.5" y="-383.3" font-family="Times,serif" font-size="14.00">Value 128</text>
<polyline fill="none" stroke="black" points="126,-375.5 199,-375.5 "/>
<text text-anchor="middle" x="162.5" y="-360.3" font-family="Times,serif" font-size="14.00">Initial 0</text>
</g>
<!-- P8 -->
<g id="node9" class="node"><title>P8</title>
<polygon fill="none" stroke="black" points="1083,-156.5 1083,-225.5 1156,-225.5 1156,-156.5 1083,-156.5"/>
<text text-anchor="middle" x="1119.5" y="-210.3" font-family="Times,serif" font-size="14.00">Product 8</text>
<polyline fill="none" stroke="black" points="1083,-202.5 1156,-202.5 "/>
<text text-anchor="middle" x="1119.5" y="-187.3" font-family="Times,serif" font-size="14.00">Value 256</text>
<polyline fill="none" stroke="black" points="1083,-179.5 1156,-179.5 "/>
<text text-anchor="middle" x="1119.5" y="-164.3" font-family="Times,serif" font-size="14.00">Initial 0</text>
</g>
<!-- B0 -->
<g id="node10" class="node"><title>B0</title>
<path fill="none" stroke="black" d="M14.5,-23C14.5,-23 68.5,-23 68.5,-23 74.5,-23 80.5,-29 80.5,-35 80.5,-35 80.5,-57 80.5,-57 80.5,-63 74.5,-69 68.5,-69 68.5,-69 14.5,-69 14.5,-69 8.5,-69 2.5,-63 2.5,-57 2.5,-57 2.5,-35 2.5,-35 2.5,-29 8.5,-23 14.5,-23"/>
<text text-anchor="middle" x="41.5" y="-53.8" font-family="Times,serif" font-size="14.00">Blueprint 0</text>
<polyline fill="none" stroke="black" points="2.5,-46 80.5,-46 "/>
<text text-anchor="middle" x="41.5" y="-30.8" font-family="Times,serif" font-size="14.00">Coolant 1</text>
</g>
<!-- B0&#45;&gt;P0 -->
<g id="edge1" class="edge"><title>B0:a&#45;&gt;P0:a</title>
<path fill="none" stroke="black" d="M81.5,-58C97.5938,-58 103.975,-58 116.274,-58"/>
<polygon fill="black" stroke="black" points="116.5,-61.5001 126.5,-58 116.5,-54.5001 116.5,-61.5001"/>
<text text-anchor="middle" x="104.5" y="-61.8" font-family="Times,serif" font-size="14.00">1</text>
</g>
<!-- B1 -->
<g id="node11" class="node"><title>B1</title>
<path fill="none" stroke="black" d="M14.5,-111C14.5,-111 68.5,-111 68.5,-111 74.5,-111 80.5,-117 80.5,-123 80.5,-123 80.5,-145 80.5,-145 80.5,-151 74.5,-157 68.5,-157 68.5,-157 14.5,-157 14.5,-157 8.5,-157 2.5,-151 2.5,-145 2.5,-145 2.5,-123 2.5,-123 2.5,-117 8.5,-111 14.5,-111"/>
<text text-anchor="middle" x="41.5" y="-141.8" font-family="Times,serif" font-size="14.00">Blueprint 1</text>
<polyline fill="none" stroke="black" points="2.5,-134 80.5,-134 "/>
<text text-anchor="middle" x="41.5" y="-118.8" font-family="Times,serif" font-size="14.00">Coolant 2</text>
</g>
<!-- B1&#45;&gt;P1 -->
<g id="edge2" class="edge"><title>B1:a&#45;&gt;P1:a</title>
<path fill="none" stroke="black" d="M81.5,-146C97.5938,-146 103.975,-146 116.274,-146"/>
<polygon fill="black" stroke="black" points="116.5,-149.5 126.5,-146 116.5,-142.5 116.5,-149.5"/>
<text text-anchor="middle" x="104.5" y="-149.8" font-family="Times,serif" font-size="14.00">1</text>
</g>
<!-- B2 -->
<g id="node12" class="node"><title>B2</title>
<path fill="none" stroke="black" d="M254,-88C254,-88 308,-88 308,-88 314,-88 320,-94 320,-100 320,-100 320,-122 320,-122 320,-128 314,-134 308,-134 308,-134 254,-134 254,-134 248,-134 242,-128 242,-122 242,-122 242,-100 242,-100 242,-94 248,-88 254,-88"/>
<text text-anchor="middle" x="281" y="-118.8" font-family="Times,serif" font-size="14.00">Blueprint 2</text>
<polyline fill="none" stroke="black" points="242,-111 320,-111 "/>
<text text-anchor="middle" x="281" y="-95.8" font-family="Times,serif" font-size="14.00">Coolant 4</text>
</g>
<!-- B2&#45;&gt;P2 -->
<g id="edge3" class="edge"><title>B2:a&#45;&gt;P2:a</title>
<path fill="none" stroke="black" d="M320,-123C338.32,-123 340.491,-105.504 353.007,-99.2167"/>
<polygon fill="black" stroke="black" points="353.995,-102.583 363,-97 352.479,-95.7488 353.995,-102.583"/>
<text text-anchor="middle" x="341.5" y="-117.8" font-family="Times,serif" font-size="14.00">1</text>
</g>
<!-- B3 -->
<g id="node13" class="node"><title>B3</title>
<path fill="none" stroke="black" d="M14.5,-199C14.5,-199 68.5,-199 68.5,-199 74.5,-199 80.5,-205 80.5,-211 80.5,-211 80.5,-233 80.5,-233 80.5,-239 74.5,-245 68.5,-245 68.5,-245 14.5,-245 14.5,-245 8.5,-245 2.5,-239 2.5,-233 2.5,-233 2.5,-211 2.5,-211 2.5,-205 8.5,-199 14.5,-199"/>
<text text-anchor="middle" x="41.5" y="-229.8" font-family="Times,serif" font-size="14.00">Blueprint 3</text>
<polyline fill="none" stroke="black" points="2.5,-222 80.5,-222 "/>
<text text-anchor="middle" x="41.5" y="-206.8" font-family="Times,serif" font-size="14.00">Coolant 8</text>
</g>
<!-- B3&#45;&gt;P3 -->
<g id="edge4" class="edge"><title>B3:a&#45;&gt;P3:a</title>
<path fill="none" stroke="black" d="M81.5,-234C97.5938,-234 103.975,-234 116.274,-234"/>
<polygon fill="black" stroke="black" points="116.5,-237.5 126.5,-234 116.5,-230.5 116.5,-237.5"/>
<text text-anchor="middle" x="104.5" y="-237.8" font-family="Times,serif" font-size="14.00">1</text>
</g>
<!-- B4 -->
<g id="node14" class="node"><title>B4</title>
<path fill="none" stroke="black" d="M490.5,-127C490.5,-127 544.5,-127 544.5,-127 550.5,-127 556.5,-133 556.5,-139 556.5,-139 556.5,-161 556.5,-161 556.5,-167 550.5,-173 544.5,-173 544.5,-173 490.5,-173 490.5,-173 484.5,-173 478.5,-167 478.5,-161 478.5,-161 478.5,-139 478.5,-139 478.5,-133 484.5,-127 490.5,-127"/>
<text text-anchor="middle" x="517.5" y="-157.8" font-family="Times,serif" font-size="14.00">Blueprint 4</text>
<polyline fill="none" stroke="black" points="478.5,-150 556.5,-150 "/>
<text text-anchor="middle" x="517.5" y="-134.8" font-family="Times,serif" font-size="14.00">Coolant 16</text>
</g>
<!-- B4&#45;&gt;P4 -->
<g id="edge5" class="edge"><title>B4:a&#45;&gt;P4:a</title>
<path fill="none" stroke="black" d="M557.5,-162C576.788,-162 579.361,-144.169 592.903,-138.04"/>
<polygon fill="black" stroke="black" points="593.891,-141.411 603,-136 592.505,-134.55 593.891,-141.411"/>
<text text-anchor="middle" x="581.5" y="-155.8" font-family="Times,serif" font-size="14.00">1</text>
</g>
<!-- B5 -->
<g id="node15" class="node"><title>B5</title>
<path fill="none" stroke="black" d="M14.5,-287C14.5,-287 68.5,-287 68.5,-287 74.5,-287 80.5,-293 80.5,-299 80.5,-299 80.5,-321 80.5,-321 80.5,-327 74.5,-333 68.5,-333 68.5,-333 14.5,-333 14.5,-333 8.5,-333 2.5,-327 2.5,-321 2.5,-321 2.5,-299 2.5,-299 2.5,-293 8.5,-287 14.5,-287"/>
<text text-anchor="middle" x="41.5" y="-317.8" font-family="Times,serif" font-size="14.00">Blueprint 5</text>
<polyline fill="none" stroke="black" points="2.5,-310 80.5,-310 "/>
<text text-anchor="middle" x="41.5" y="-294.8" font-family="Times,serif" font-size="14.00">Coolant 32</text>
</g>
<!-- B5&#45;&gt;P5 -->
<g id="edge6" class="edge"><title>B5:a&#45;&gt;P5:a</title>
<path fill="none" stroke="black" d="M81.5,-322C97.5938,-322 103.975,-322 116.274,-322"/>
<polygon fill="black" stroke="black" points="116.5,-325.5 126.5,-322 116.5,-318.5 116.5,-325.5"/>
<text text-anchor="middle" x="104.5" y="-325.8" font-family="Times,serif" font-size="14.00">1</text>
</g>
<!-- B6 -->
<g id="node16" class="node"><title>B6</title>
<path fill="none" stroke="black" d="M730.5,-166C730.5,-166 784.5,-166 784.5,-166 790.5,-166 796.5,-172 796.5,-178 796.5,-178 796.5,-200 796.5,-200 796.5,-206 790.5,-212 784.5,-212 784.5,-212 730.5,-212 730.5,-212 724.5,-212 718.5,-206 718.5,-200 718.5,-200 718.5,-178 718.5,-178 718.5,-172 724.5,-166 730.5,-166"/>
<text text-anchor="middle" x="757.5" y="-196.8" font-family="Times,serif" font-size="14.00">Blueprint 6</text>
<polyline fill="none" stroke="black" points="718.5,-189 796.5,-189 "/>
<text text-anchor="middle" x="757.5" y="-173.8" font-family="Times,serif" font-size="14.00">Coolant 64</text>
</g>
<!-- B6&#45;&gt;P6 -->
<g id="edge7" class="edge"><title>B6:a&#45;&gt;P6:a</title>
<path fill="none" stroke="black" d="M797.5,-201C816.788,-201 819.361,-183.169 832.903,-177.04"/>
<polygon fill="black" stroke="black" points="833.891,-180.411 843,-175 832.505,-173.55 833.891,-180.411"/>
<text text-anchor="middle" x="821.5" y="-194.8" font-family="Times,serif" font-size="14.00">1</text>
</g>
<!-- B7 -->
<g id="node17" class="node"><title>B7</title>
<path fill="none" stroke="black" d="M12,-375C12,-375 71,-375 71,-375 77,-375 83,-381 83,-387 83,-387 83,-409 83,-409 83,-415 77,-421 71,-421 71,-421 12,-421 12,-421 6,-421 0,-415 0,-409 0,-409 0,-387 0,-387 0,-381 6,-375 12,-375"/>
<text text-anchor="middle" x="41.5" y="-405.8" font-family="Times,serif" font-size="14.00">Blueprint 7</text>
<polyline fill="none" stroke="black" points="0,-398 83,-398 "/>
<text text-anchor="middle" x="41.5" y="-382.8" font-family="Times,serif" font-size="14.00">Coolant 128</text>
</g>
<!-- B7&#45;&gt;P7 -->
<g id="edge8" class="edge"><title>B7:a&#45;&gt;P7:a</title>
<path fill="none" stroke="black" d="M83,-410C98.2292,-410 104.357,-410 115.888,-410"/>
<polygon fill="black" stroke="black" points="116,-413.5 126,-410 116,-406.5 116,-413.5"/>
<text text-anchor="middle" x="104.5" y="-413.8" font-family="Times,serif" font-size="14.00">1</text>
</g>
<!-- B8 -->
<g id="node18" class="node"><title>B8</title>
<path fill="none" stroke="black" d="M968,-205C968,-205 1027,-205 1027,-205 1033,-205 1039,-211 1039,-217 1039,-217 1039,-239 1039,-239 1039,-245 1033,-251 1027,-251 1027,-251 968,-251 968,-251 962,-251 956,-245 956,-239 956,-239 956,-217 956,-217 956,-211 962,-205 968,-205"/>
<text text-anchor="middle" x="997.5" y="-235.8" font-family="Times,serif" font-size="14.00">Blueprint 8</text>
<polyline fill="none" stroke="black" points="956,-228 1039,-228 "/>
<text text-anchor="middle" x="997.5" y="-212.8" font-family="Times,serif" font-size="14.00">Coolant 256</text>
</g>
<!-- B8&#45;&gt;P8 -->
<g id="edge9" class="edge"><title>B8:a&#45;&gt;P8:a</title>
<path fill="none" stroke="black" d="M1040,-240C1058.32,-240 1060.49,-222.504 1073.01,-216.217"/>
<polygon fill="black" stroke="black" points="1074,-219.583 1083,-214 1072.48,-212.749 1074,-219.583"/>
<text text-anchor="middle" x="1061.5" y="-234.8" font-family="Times,serif" font-size="14.00">1</text>
</g>
<!-- B9&#45;&gt;P2 -->
<g id="edge11" class="edge"><title>B9:a&#45;&gt;P2:a</title>
<path fill="none" stroke="black" d="M320,-58C341.769,-58 339.047,-85.7646 353.163,-94.4411"/>
<polygon fill="black" stroke="black" points="352.441,-97.8696 363,-97 354.203,-91.0951 352.441,-97.8696"/>
<text text-anchor="middle" x="341.5" y="-88.8" font-family="Times,serif" font-size="14.00">1</text>
</g>
<!-- B10&#45;&gt;P4 -->
<g id="edge13" class="edge"><title>B10:a&#45;&gt;P4:a</title>
<path fill="none" stroke="black" d="M560,-97C581.769,-97 579.047,-124.765 593.163,-133.441"/>
<polygon fill="black" stroke="black" points="592.441,-136.87 603,-136 594.203,-130.095 592.441,-136.87"/>
<text text-anchor="middle" x="581.5" y="-127.8" font-family="Times,serif" font-size="14.00">1</text>
</g>
<!-- B11&#45;&gt;P6 -->
<g id="edge15" class="edge"><title>B11:a&#45;&gt;P6:a</title>
<path fill="none" stroke="black" d="M800,-136C821.769,-136 819.047,-163.765 833.163,-172.441"/>
<polygon fill="black" stroke="black" points="832.441,-175.87 843,-175 834.203,-169.095 832.441,-175.87"/>
<text text-anchor="middle" x="821.5" y="-166.8" font-family="Times,serif" font-size="14.00">1</text>
</g>
<!-- B12&#45;&gt;P8 -->
<g id="edge17" class="edge"><title>B12:a&#45;&gt;P8:a</title>
<path fill="none" stroke="black" d="M1040,-175C1061.77,-175 1059.05,-202.765 1073.16,-211.441"/>
<polygon fill="black" stroke="black" points="1072.44,-214.87 1083,-214 1074.2,-208.095 1072.44,-214.87"/>
<text text-anchor="middle" x="1061.5" y="-205.8" font-family="Times,serif" font-size="14.00">1</text>
</g>
</g>
</svg>
