<?xml version="1.0" encoding="UTF-8" standalone="no"?>
<!DOCTYPE svg PUBLIC "-//W3C//DTD SVG 1.1//EN"
 "http://www.w3.org/Graphics/SVG/1.1/DTD/svg11.dtd">
<!-- Generated by graphviz version 2.38.0 (20140413.2041)
 -->
<!-- Title: g Pages: 1 -->
<svg width="2379pt" height="1509pt"
 viewBox="0.00 0.00 2379.00 1509.00" xmlns="http://www.w3.org/2000/svg" xmlns:xlink="http://www.w3.org/1999/xlink">
<g id="graph0" class="graph" transform="scale(1 1) rotate(0) translate(4 1505)">
<title>g</title>
<polygon fill="white" stroke="none" points="-4,4 -4,-1505 2375,-1505 2375,4 -4,4"/>
<!-- P0 -->
<g id="node1" class="node"><title>P0</title>
<polygon fill="none" stroke="black" points="0,-75.5 0,-144.5 69,-144.5 69,-75.5 0,-75.5"/>
<text text-anchor="middle" x="34.5" y="-129.3" font-family="Times,serif" font-size="14.00">Product 0</text>
<polyline fill="none" stroke="black" points="0,-121.5 69,-121.5 "/>
<text text-anchor="middle" x="34.5" y="-106.3" font-family="Times,serif" font-size="14.00">Value 6</text>
<polyline fill="none" stroke="black" points="0,-98.5 69,-98.5 "/>
<text text-anchor="middle" x="34.5" y="-83.3" font-family="Times,serif" font-size="14.00">Initial 6</text>
</g>
<!-- B0 -->
<g id="node19" class="node"><title>B0</title>
<path fill="none" stroke="black" d="M127.5,-334C127.5,-334 181.5,-334 181.5,-334 187.5,-334 193.5,-340 193.5,-346 193.5,-346 193.5,-368 193.5,-368 193.5,-374 187.5,-380 181.5,-380 181.5,-380 127.5,-380 127.5,-380 121.5,-380 115.5,-374 115.5,-368 115.5,-368 115.5,-346 115.5,-346 115.5,-340 121.5,-334 127.5,-334"/>
<text text-anchor="middle" x="154.5" y="-364.8" font-family="Times,serif" font-size="14.00">Blueprint 0</text>
<polyline fill="none" stroke="black" points="115.5,-357 193.5,-357 "/>
<text text-anchor="middle" x="154.5" y="-341.8" font-family="Times,serif" font-size="14.00">Coolant 3</text>
</g>
<!-- P0&#45;&gt;B0 -->
<g id="edge1" class="edge"><title>P0:a&#45;&gt;B0:a</title>
<path fill="none" stroke="black" d="M34.5,-146C34.5,-195.255 58.4399,-347.53 104.636,-366.954"/>
<polygon fill="black" stroke="black" points="103.998,-370.396 114.5,-369 105.419,-363.542 103.998,-370.396"/>
<text text-anchor="middle" x="90.5" y="-362.8" font-family="Times,serif" font-size="14.00">1</text>
</g>
<!-- B9 -->
<g id="node28" class="node"><title>B9</title>
<path fill="none" stroke="black" d="M1828.5,-1004C1828.5,-1004 1882.5,-1004 1882.5,-1004 1888.5,-1004 1894.5,-1010 1894.5,-1016 1894.5,-1016 1894.5,-1038 1894.5,-1038 1894.5,-1044 1888.5,-1050 1882.5,-1050 1882.5,-1050 1828.5,-1050 1828.5,-1050 1822.5,-1050 1816.5,-1044 1816.5,-1038 1816.5,-1038 1816.5,-1016 1816.5,-1016 1816.5,-1010 1822.5,-1004 1828.5,-1004"/>
<text text-anchor="middle" x="1855.5" y="-1034.8" font-family="Times,serif" font-size="14.00">Blueprint 9</text>
<polyline fill="none" stroke="black" points="1816.5,-1027 1894.5,-1027 "/>
<text text-anchor="middle" x="1855.5" y="-1011.8" font-family="Times,serif" font-size="14.00">Coolant 7</text>
</g>
<!-- P0&#45;&gt;B9 -->
<g id="edge31" class="edge"><title>P0:a&#45;&gt;B9:a</title>
<path fill="none" stroke="black" d="M69,-133C77.3029,-133 78.9335,-136.033 87,-138 116.343,-145.157 123.297,-152 153.5,-152 153.5,-152 153.5,-152 338.5,-152 452.508,-152 469.492,-76 583.5,-76 583.5,-76 583.5,-76 1298.5,-76 1403.42,-76 1694.35,-28.2883 1770,-101 1785.61,-116.002 1785.82,-273.462 1788,-295 1790.88,-323.469 1793.01,-330.455 1795,-359 1796.22,-376.526 1796.56,-949.201 1811.78,-1029.65"/>
<polygon fill="black" stroke="black" points="1808.55,-1031 1815.5,-1039 1815.06,-1028.41 1808.55,-1031"/>
<text text-anchor="middle" x="945.5" y="-79.8" font-family="Times,serif" font-size="14.00">1</text>
</g>
<!-- B15 -->
<g id="node34" class="node"><title>B15</title>
<path fill="none" stroke="black" d="M124,-269C124,-269 185,-269 185,-269 191,-269 197,-275 197,-281 197,-281 197,-303 197,-303 197,-309 191,-315 185,-315 185,-315 124,-315 124,-315 118,-315 112,-309 112,-303 112,-303 112,-281 112,-281 112,-275 118,-269 124,-269"/>
<text text-anchor="middle" x="154.5" y="-299.8" font-family="Times,serif" font-size="14.00">Blueprint 15</text>
<polyline fill="none" stroke="black" points="112,-292 197,-292 "/>
<text text-anchor="middle" x="154.5" y="-276.8" font-family="Times,serif" font-size="14.00">Coolant 3</text>
</g>
<!-- P0&#45;&gt;B15 -->
<g id="edge49" class="edge"><title>P0:a&#45;&gt;B15:a</title>
<path fill="none" stroke="black" d="M69,-133C85.9239,-133 82.888,-190.583 87,-207 96.8451,-246.306 72.599,-294.416 101.729,-302.744"/>
<polygon fill="black" stroke="black" points="101.649,-306.26 112,-304 102.499,-299.312 101.649,-306.26"/>
<text text-anchor="middle" x="90.5" y="-301.8" font-family="Times,serif" font-size="14.00">2</text>
</g>
<!-- B16 -->
<g id="node35" class="node"><title>B16</title>
<path fill="none" stroke="black" d="M1825,-15C1825,-15 1886,-15 1886,-15 1892,-15 1898,-21 1898,-27 1898,-27 1898,-49 1898,-49 1898,-55 1892,-61 1886,-61 1886,-61 1825,-61 1825,-61 1819,-61 1813,-55 1813,-49 1813,-49 1813,-27 1813,-27 1813,-21 1819,-15 1825,-15"/>
<text text-anchor="middle" x="1855.5" y="-45.8" font-family="Times,serif" font-size="14.00">Blueprint 16</text>
<polyline fill="none" stroke="black" points="1813,-38 1898,-38 "/>
<text text-anchor="middle" x="1855.5" y="-22.8" font-family="Times,serif" font-size="14.00">Coolant 6</text>
</g>
<!-- P0&#45;&gt;B16 -->
<g id="edge52" class="edge"><title>P0:a&#45;&gt;B16:a</title>
<path fill="none" stroke="black" d="M69,-133C74.4183,-133 106.859,-111.711 112,-110 313.133,-43.0454 371.515,-38 583.5,-38 583.5,-38 583.5,-38 1065.5,-38 1278.42,-38 1330.58,-6 1543.5,-6 1543.5,-6 1543.5,-6 1733,-6 1769.93,-6 1772.29,-42.4489 1803.01,-48.9983"/>
<polygon fill="black" stroke="black" points="1802.7,-52.4845 1813,-50 1803.4,-45.5194 1802.7,-52.4845"/>
<text text-anchor="middle" x="945.5" y="-41.8" font-family="Times,serif" font-size="14.00">1</text>
</g>
<!-- B17 -->
<g id="node36" class="node"><title>B17</title>
<path fill="none" stroke="black" d="M618,-231C618,-231 679,-231 679,-231 685,-231 691,-237 691,-243 691,-243 691,-265 691,-265 691,-271 685,-277 679,-277 679,-277 618,-277 618,-277 612,-277 606,-271 606,-265 606,-265 606,-243 606,-243 606,-237 612,-231 618,-231"/>
<text text-anchor="middle" x="648.5" y="-261.8" font-family="Times,serif" font-size="14.00">Blueprint 17</text>
<polyline fill="none" stroke="black" points="606,-254 691,-254 "/>
<text text-anchor="middle" x="648.5" y="-238.8" font-family="Times,serif" font-size="14.00">Coolant 7</text>
</g>
<!-- P0&#45;&gt;B17 -->
<g id="edge54" class="edge"><title>P0:a&#45;&gt;B17:a</title>
<path fill="none" stroke="black" d="M69,-133C85.7066,-133 73.4099,-156.283 87,-166 178.89,-231.701 484.651,-206.401 588,-252 592.926,-254.173 594.838,-257.989 597.067,-261.088"/>
<polygon fill="black" stroke="black" points="595.551,-264.248 606,-266 598.924,-258.115 595.551,-264.248"/>
<text text-anchor="middle" x="337.5" y="-219.8" font-family="Times,serif" font-size="14.00">1</text>
</g>
<!-- B19 -->
<g id="node38" class="node"><title>B19</title>
<path fill="none" stroke="black" d="M1578,-518C1578,-518 1639,-518 1639,-518 1645,-518 1651,-524 1651,-530 1651,-530 1651,-552 1651,-552 1651,-558 1645,-564 1639,-564 1639,-564 1578,-564 1578,-564 1572,-564 1566,-558 1566,-552 1566,-552 1566,-530 1566,-530 1566,-524 1572,-518 1578,-518"/>
<text text-anchor="middle" x="1608.5" y="-548.8" font-family="Times,serif" font-size="14.00">Blueprint 19</text>
<polyline fill="none" stroke="black" points="1566,-541 1651,-541 "/>
<text text-anchor="middle" x="1608.5" y="-525.8" font-family="Times,serif" font-size="14.00">Coolant 10</text>
</g>
<!-- P0&#45;&gt;B19 -->
<g id="edge64" class="edge"><title>P0:a&#45;&gt;B19:a</title>
<path fill="none" stroke="black" d="M69,-133C139.032,-133 83.4676,-0 153.5,-0 153.5,-0 153.5,-0 1065.5,-0 1241.08,-1.42109e-14 1187.81,-186.302 1319,-303 1409.91,-383.865 1480.87,-351.53 1548,-453 1558.41,-468.742 1548.22,-528.044 1557.78,-547.079"/>
<polygon fill="black" stroke="black" points="1555.84,-549.995 1566,-553 1559.93,-544.315 1555.84,-549.995"/>
<text text-anchor="middle" x="824.5" y="-3.8" font-family="Times,serif" font-size="14.00">1</text>
</g>
<!-- P1 -->
<g id="node2" class="node"><title>P1</title>
<polygon fill="none" stroke="black" points="1941,-822.5 1941,-891.5 2010,-891.5 2010,-822.5 1941,-822.5"/>
<text text-anchor="middle" x="1975.5" y="-876.3" font-family="Times,serif" font-size="14.00">Product 1</text>
<polyline fill="none" stroke="black" points="1941,-868.5 2010,-868.5 "/>
<text text-anchor="middle" x="1975.5" y="-853.3" font-family="Times,serif" font-size="14.00">Value 5</text>
<polyline fill="none" stroke="black" points="1941,-845.5 2010,-845.5 "/>
<text text-anchor="middle" x="1975.5" y="-830.3" font-family="Times,serif" font-size="14.00">Initial 9</text>
</g>
<!-- B1 -->
<g id="node20" class="node"><title>B1</title>
<path fill="none" stroke="black" d="M2065,-789C2065,-789 2119,-789 2119,-789 2125,-789 2131,-795 2131,-801 2131,-801 2131,-823 2131,-823 2131,-829 2125,-835 2119,-835 2119,-835 2065,-835 2065,-835 2059,-835 2053,-829 2053,-823 2053,-823 2053,-801 2053,-801 2053,-795 2059,-789 2065,-789"/>
<text text-anchor="middle" x="2092" y="-819.8" font-family="Times,serif" font-size="14.00">Blueprint 1</text>
<polyline fill="none" stroke="black" points="2053,-812 2131,-812 "/>
<text text-anchor="middle" x="2092" y="-796.8" font-family="Times,serif" font-size="14.00">Coolant 6</text>
</g>
<!-- P1&#45;&gt;B1 -->
<g id="edge2" class="edge"><title>P1:a&#45;&gt;B1:a</title>
<path fill="none" stroke="black" d="M2010,-880C2037.21,-880 2025.97,-837.887 2042.96,-826.701"/>
<polygon fill="black" stroke="black" points="2044.25,-829.979 2053,-824 2042.43,-823.219 2044.25,-829.979"/>
<text text-anchor="middle" x="2031.5" y="-867.8" font-family="Times,serif" font-size="14.00">1</text>
</g>
<!-- P2 -->
<g id="node3" class="node"><title>P2</title>
<polygon fill="none" stroke="black" points="490.5,-948.5 490.5,-1017.5 559.5,-1017.5 559.5,-948.5 490.5,-948.5"/>
<text text-anchor="middle" x="525" y="-1002.3" font-family="Times,serif" font-size="14.00">Product 2</text>
<polyline fill="none" stroke="black" points="490.5,-994.5 559.5,-994.5 "/>
<text text-anchor="middle" x="525" y="-979.3" font-family="Times,serif" font-size="14.00">Value 3</text>
<polyline fill="none" stroke="black" points="490.5,-971.5 559.5,-971.5 "/>
<text text-anchor="middle" x="525" y="-956.3" font-family="Times,serif" font-size="14.00">Initial 18</text>
</g>
<!-- B4 -->
<g id="node23" class="node"><title>B4</title>
<path fill="none" stroke="black" d="M621.5,-1023C621.5,-1023 675.5,-1023 675.5,-1023 681.5,-1023 687.5,-1029 687.5,-1035 687.5,-1035 687.5,-1057 687.5,-1057 687.5,-1063 681.5,-1069 675.5,-1069 675.5,-1069 621.5,-1069 621.5,-1069 615.5,-1069 609.5,-1063 609.5,-1057 609.5,-1057 609.5,-1035 609.5,-1035 609.5,-1029 615.5,-1023 621.5,-1023"/>
<text text-anchor="middle" x="648.5" y="-1053.8" font-family="Times,serif" font-size="14.00">Blueprint 4</text>
<polyline fill="none" stroke="black" points="609.5,-1046 687.5,-1046 "/>
<text text-anchor="middle" x="648.5" y="-1030.8" font-family="Times,serif" font-size="14.00">Coolant 5</text>
</g>
<!-- P2&#45;&gt;B4 -->
<g id="edge16" class="edge"><title>P2:a&#45;&gt;B4:a</title>
<path fill="none" stroke="black" d="M561,-1006C577.354,-1006 577.013,-1018.89 588,-1031 594.959,-1038.67 594.917,-1048.56 599.108,-1053.99"/>
<polygon fill="black" stroke="black" points="597.929,-1057.29 608.5,-1058 600.68,-1050.85 597.929,-1057.29"/>
<text text-anchor="middle" x="584.5" y="-1034.8" font-family="Times,serif" font-size="14.00">1</text>
</g>
<!-- B6 -->
<g id="node25" class="node"><title>B6</title>
<path fill="none" stroke="black" d="M1334.5,-1123C1334.5,-1123 1388.5,-1123 1388.5,-1123 1394.5,-1123 1400.5,-1129 1400.5,-1135 1400.5,-1135 1400.5,-1157 1400.5,-1157 1400.5,-1163 1394.5,-1169 1388.5,-1169 1388.5,-1169 1334.5,-1169 1334.5,-1169 1328.5,-1169 1322.5,-1163 1322.5,-1157 1322.5,-1157 1322.5,-1135 1322.5,-1135 1322.5,-1129 1328.5,-1123 1334.5,-1123"/>
<text text-anchor="middle" x="1361.5" y="-1153.8" font-family="Times,serif" font-size="14.00">Blueprint 6</text>
<polyline fill="none" stroke="black" points="1322.5,-1146 1400.5,-1146 "/>
<text text-anchor="middle" x="1361.5" y="-1130.8" font-family="Times,serif" font-size="14.00">Coolant 10</text>
</g>
<!-- P2&#45;&gt;B6 -->
<g id="edge22" class="edge"><title>P2:a&#45;&gt;B6:a</title>
<path fill="none" stroke="black" d="M561,-1006C577.138,-1006 591.477,-956.038 606,-949 639.996,-932.525 654.04,-941.181 691,-949 868.149,-986.478 882.43,-1114 1063.5,-1114 1063.5,-1114 1063.5,-1114 1242.5,-1114 1259.69,-1114 1290.58,-1146.2 1311.73,-1155.51"/>
<polygon fill="black" stroke="black" points="1310.95,-1158.92 1321.5,-1158 1312.67,-1152.14 1310.95,-1158.92"/>
<text text-anchor="middle" x="945.5" y="-1093.8" font-family="Times,serif" font-size="14.00">2</text>
</g>
<!-- B14 -->
<g id="node33" class="node"><title>B14</title>
<path fill="none" stroke="black" d="M618,-958C618,-958 679,-958 679,-958 685,-958 691,-964 691,-970 691,-970 691,-992 691,-992 691,-998 685,-1004 679,-1004 679,-1004 618,-1004 618,-1004 612,-1004 606,-998 606,-992 606,-992 606,-970 606,-970 606,-964 612,-958 618,-958"/>
<text text-anchor="middle" x="648.5" y="-988.8" font-family="Times,serif" font-size="14.00">Blueprint 14</text>
<polyline fill="none" stroke="black" points="606,-981 691,-981 "/>
<text text-anchor="middle" x="648.5" y="-965.8" font-family="Times,serif" font-size="14.00">Coolant 4</text>
</g>
<!-- P2&#45;&gt;B14 -->
<g id="edge47" class="edge"><title>P2:a&#45;&gt;B14:a</title>
<path fill="none" stroke="black" d="M561,-1006C571.602,-1006 570.836,-996.013 581,-993 587.658,-991.026 591.419,-991.52 596.016,-992.167"/>
<polygon fill="black" stroke="black" points="595.744,-995.657 606,-993 596.326,-988.681 595.744,-995.657"/>
<text text-anchor="middle" x="584.5" y="-996.8" font-family="Times,serif" font-size="14.00">1</text>
</g>
<!-- B26 -->
<g id="node45" class="node"><title>B26</title>
<path fill="none" stroke="black" d="M618,-1343C618,-1343 679,-1343 679,-1343 685,-1343 691,-1349 691,-1355 691,-1355 691,-1377 691,-1377 691,-1383 685,-1389 679,-1389 679,-1389 618,-1389 618,-1389 612,-1389 606,-1383 606,-1377 606,-1377 606,-1355 606,-1355 606,-1349 612,-1343 618,-1343"/>
<text text-anchor="middle" x="648.5" y="-1373.8" font-family="Times,serif" font-size="14.00">Blueprint 26</text>
<polyline fill="none" stroke="black" points="606,-1366 691,-1366 "/>
<text text-anchor="middle" x="648.5" y="-1350.8" font-family="Times,serif" font-size="14.00">Coolant 8</text>
</g>
<!-- P2&#45;&gt;B26 -->
<g id="edge87" class="edge"><title>P2:a&#45;&gt;B26:a</title>
<path fill="none" stroke="black" d="M561,-1006C599.463,-1006 569.732,-1323.49 597.806,-1371.85"/>
<polygon fill="black" stroke="black" points="595.9,-1374.8 606,-1378 600.101,-1369.2 595.9,-1374.8"/>
<text text-anchor="middle" x="584.5" y="-1327.8" font-family="Times,serif" font-size="14.00">1</text>
</g>
<!-- P3 -->
<g id="node4" class="node"><title>P3</title>
<polygon fill="none" stroke="black" points="1697.5,-736.5 1697.5,-805.5 1766.5,-805.5 1766.5,-736.5 1697.5,-736.5"/>
<text text-anchor="middle" x="1732" y="-790.3" font-family="Times,serif" font-size="14.00">Product 3</text>
<polyline fill="none" stroke="black" points="1697.5,-782.5 1766.5,-782.5 "/>
<text text-anchor="middle" x="1732" y="-767.3" font-family="Times,serif" font-size="14.00">Value 8</text>
<polyline fill="none" stroke="black" points="1697.5,-759.5 1766.5,-759.5 "/>
<text text-anchor="middle" x="1732" y="-744.3" font-family="Times,serif" font-size="14.00">Initial 17</text>
</g>
<!-- P3&#45;&gt;B1 -->
<g id="edge3" class="edge"><title>P3:a&#45;&gt;B1:a</title>
<path fill="none" stroke="black" d="M1768,-794C1875.89,-794 1903.57,-795.344 2010,-813 2025.66,-815.598 2031.19,-821.138 2043.03,-823.202"/>
<polygon fill="black" stroke="black" points="2042.75,-826.691 2053,-824 2043.31,-819.714 2042.75,-826.691"/>
<text text-anchor="middle" x="1919.5" y="-803.8" font-family="Times,serif" font-size="14.00">1</text>
</g>
<!-- B7 -->
<g id="node26" class="node"><title>B7</title>
<path fill="none" stroke="black" d="M1828.5,-313C1828.5,-313 1882.5,-313 1882.5,-313 1888.5,-313 1894.5,-319 1894.5,-325 1894.5,-325 1894.5,-347 1894.5,-347 1894.5,-353 1888.5,-359 1882.5,-359 1882.5,-359 1828.5,-359 1828.5,-359 1822.5,-359 1816.5,-353 1816.5,-347 1816.5,-347 1816.5,-325 1816.5,-325 1816.5,-319 1822.5,-313 1828.5,-313"/>
<text text-anchor="middle" x="1855.5" y="-343.8" font-family="Times,serif" font-size="14.00">Blueprint 7</text>
<polyline fill="none" stroke="black" points="1816.5,-336 1894.5,-336 "/>
<text text-anchor="middle" x="1855.5" y="-320.8" font-family="Times,serif" font-size="14.00">Coolant 8</text>
</g>
<!-- P3&#45;&gt;B7 -->
<g id="edge27" class="edge"><title>P3:a&#45;&gt;B7:a</title>
<path fill="none" stroke="black" d="M1768,-794C1790.92,-794 1779.84,-403.412 1788,-382 1793.46,-367.671 1795.33,-354.786 1805.42,-349.988"/>
<polygon fill="black" stroke="black" points="1806.37,-353.368 1815.5,-348 1805.01,-346.5 1806.37,-353.368"/>
<text text-anchor="middle" x="1791.5" y="-385.8" font-family="Times,serif" font-size="14.00">1</text>
</g>
<!-- P4 -->
<g id="node5" class="node"><title>P4</title>
<polygon fill="none" stroke="black" points="1697.5,-110.5 1697.5,-179.5 1766.5,-179.5 1766.5,-110.5 1697.5,-110.5"/>
<text text-anchor="middle" x="1732" y="-164.3" font-family="Times,serif" font-size="14.00">Product 4</text>
<polyline fill="none" stroke="black" points="1697.5,-156.5 1766.5,-156.5 "/>
<text text-anchor="middle" x="1732" y="-141.3" font-family="Times,serif" font-size="14.00">Value 0</text>
<polyline fill="none" stroke="black" points="1697.5,-133.5 1766.5,-133.5 "/>
<text text-anchor="middle" x="1732" y="-118.3" font-family="Times,serif" font-size="14.00">Initial 1</text>
</g>
<!-- P4&#45;&gt;B16 -->
<g id="edge53" class="edge"><title>P4:a&#45;&gt;B16:a</title>
<path fill="none" stroke="black" d="M1768,-168C1792.56,-168 1787.11,-77.6562 1804.16,-55.0703"/>
<polygon fill="black" stroke="black" points="1806.07,-58.0114 1813,-50 1802.58,-51.9393 1806.07,-58.0114"/>
<text text-anchor="middle" x="1791.5" y="-126.8" font-family="Times,serif" font-size="14.00">1</text>
</g>
<!-- B28 -->
<g id="node47" class="node"><title>B28</title>
<path fill="none" stroke="black" d="M1825,-840C1825,-840 1886,-840 1886,-840 1892,-840 1898,-846 1898,-852 1898,-852 1898,-874 1898,-874 1898,-880 1892,-886 1886,-886 1886,-886 1825,-886 1825,-886 1819,-886 1813,-880 1813,-874 1813,-874 1813,-852 1813,-852 1813,-846 1819,-840 1825,-840"/>
<text text-anchor="middle" x="1855.5" y="-870.8" font-family="Times,serif" font-size="14.00">Blueprint 28</text>
<polyline fill="none" stroke="black" points="1813,-863 1898,-863 "/>
<text text-anchor="middle" x="1855.5" y="-847.8" font-family="Times,serif" font-size="14.00">Coolant 3</text>
</g>
<!-- P4&#45;&gt;B28 -->
<g id="edge95" class="edge"><title>P4:a&#45;&gt;B28:a</title>
<path fill="none" stroke="black" d="M1768,-168C1789.45,-168 1788.45,-187.576 1795,-208 1800.26,-224.391 1795.29,-785.627 1809.4,-865.564"/>
<polygon fill="black" stroke="black" points="1806.17,-866.905 1813,-875 1812.71,-864.409 1806.17,-866.905"/>
<text text-anchor="middle" x="1791.5" y="-211.8" font-family="Times,serif" font-size="14.00">1</text>
</g>
<!-- P5 -->
<g id="node6" class="node"><title>P5</title>
<polygon fill="none" stroke="black" points="1207,-690.5 1207,-759.5 1276,-759.5 1276,-690.5 1207,-690.5"/>
<text text-anchor="middle" x="1241.5" y="-744.3" font-family="Times,serif" font-size="14.00">Product 5</text>
<polyline fill="none" stroke="black" points="1207,-736.5 1276,-736.5 "/>
<text text-anchor="middle" x="1241.5" y="-721.3" font-family="Times,serif" font-size="14.00">Value 9</text>
<polyline fill="none" stroke="black" points="1207,-713.5 1276,-713.5 "/>
<text text-anchor="middle" x="1241.5" y="-698.3" font-family="Times,serif" font-size="14.00">Initial 9</text>
</g>
<!-- B3 -->
<g id="node22" class="node"><title>B3</title>
<path fill="none" stroke="black" d="M1098,-644C1098,-644 1152,-644 1152,-644 1158,-644 1164,-650 1164,-656 1164,-656 1164,-678 1164,-678 1164,-684 1158,-690 1152,-690 1152,-690 1098,-690 1098,-690 1092,-690 1086,-684 1086,-678 1086,-678 1086,-656 1086,-656 1086,-650 1092,-644 1098,-644"/>
<text text-anchor="middle" x="1125" y="-674.8" font-family="Times,serif" font-size="14.00">Blueprint 3</text>
<polyline fill="none" stroke="black" points="1086,-667 1164,-667 "/>
<text text-anchor="middle" x="1125" y="-651.8" font-family="Times,serif" font-size="14.00">Coolant 4</text>
</g>
<!-- P5&#45;&gt;B3 -->
<g id="edge12" class="edge"><title>P5:a&#45;&gt;B3:a</title>
<path fill="none" stroke="black" d="M1207,-748C1187.15,-748 1192.43,-727.885 1182,-711 1175.97,-701.238 1177.59,-689.384 1173.41,-683.205"/>
<polygon fill="black" stroke="black" points="1174.56,-679.886 1164,-679 1171.7,-686.276 1174.56,-679.886"/>
<text text-anchor="middle" x="1185.5" y="-731.8" font-family="Times,serif" font-size="14.00">1</text>
</g>
<!-- P5&#45;&gt;B6 -->
<g id="edge23" class="edge"><title>P5:a&#45;&gt;B6:a</title>
<path fill="none" stroke="black" d="M1241.5,-761C1241.5,-868.019 1266.73,-892.513 1294,-996 1296.72,-1006.33 1298.66,-1008.57 1301,-1019 1307.01,-1045.78 1294.17,-1132.86 1312.17,-1153.56"/>
<polygon fill="black" stroke="black" points="1310.97,-1156.86 1321.5,-1158 1313.98,-1150.54 1310.97,-1156.86"/>
<text text-anchor="middle" x="1297.5" y="-1022.8" font-family="Times,serif" font-size="14.00">1</text>
</g>
<!-- B22 -->
<g id="node41" class="node"><title>B22</title>
<path fill="none" stroke="black" d="M1578,-648C1578,-648 1639,-648 1639,-648 1645,-648 1651,-654 1651,-660 1651,-660 1651,-682 1651,-682 1651,-688 1645,-694 1639,-694 1639,-694 1578,-694 1578,-694 1572,-694 1566,-688 1566,-682 1566,-682 1566,-660 1566,-660 1566,-654 1572,-648 1578,-648"/>
<text text-anchor="middle" x="1608.5" y="-678.8" font-family="Times,serif" font-size="14.00">Blueprint 22</text>
<polyline fill="none" stroke="black" points="1566,-671 1651,-671 "/>
<text text-anchor="middle" x="1608.5" y="-655.8" font-family="Times,serif" font-size="14.00">Coolant 2</text>
</g>
<!-- P5&#45;&gt;B22 -->
<g id="edge72" class="edge"><title>P5:a&#45;&gt;B22:a</title>
<path fill="none" stroke="black" d="M1276,-748C1302.71,-748 1297.21,-721.45 1319,-706 1360.67,-676.457 1372.26,-666.64 1422,-655 1476.73,-642.191 1496.78,-642.848 1548,-666 1553.64,-668.549 1555.15,-673.61 1557.35,-677.549"/>
<polygon fill="black" stroke="black" points="1555.67,-680.631 1566,-683 1559.4,-674.708 1555.67,-680.631"/>
<text text-anchor="middle" x="1425.5" y="-658.8" font-family="Times,serif" font-size="14.00">1</text>
</g>
<!-- B24 -->
<g id="node43" class="node"><title>B24</title>
<path fill="none" stroke="black" d="M1331,-715C1331,-715 1392,-715 1392,-715 1398,-715 1404,-721 1404,-727 1404,-727 1404,-749 1404,-749 1404,-755 1398,-761 1392,-761 1392,-761 1331,-761 1331,-761 1325,-761 1319,-755 1319,-749 1319,-749 1319,-727 1319,-727 1319,-721 1325,-715 1331,-715"/>
<text text-anchor="middle" x="1361.5" y="-745.8" font-family="Times,serif" font-size="14.00">Blueprint 24</text>
<polyline fill="none" stroke="black" points="1319,-738 1404,-738 "/>
<text text-anchor="middle" x="1361.5" y="-722.8" font-family="Times,serif" font-size="14.00">Coolant 5</text>
</g>
<!-- P5&#45;&gt;B24 -->
<g id="edge79" class="edge"><title>P5:a&#45;&gt;B24:a</title>
<path fill="none" stroke="black" d="M1276,-748C1291.25,-748 1297.35,-749.27 1308.88,-749.786"/>
<polygon fill="black" stroke="black" points="1308.93,-753.288 1319,-750 1309.08,-746.289 1308.93,-753.288"/>
<text text-anchor="middle" x="1297.5" y="-752.8" font-family="Times,serif" font-size="14.00">1</text>
</g>
<!-- P6 -->
<g id="node7" class="node"><title>P6</title>
<polygon fill="none" stroke="black" points="1450.5,-733.5 1450.5,-802.5 1519.5,-802.5 1519.5,-733.5 1450.5,-733.5"/>
<text text-anchor="middle" x="1485" y="-787.3" font-family="Times,serif" font-size="14.00">Product 6</text>
<polyline fill="none" stroke="black" points="1450.5,-779.5 1519.5,-779.5 "/>
<text text-anchor="middle" x="1485" y="-764.3" font-family="Times,serif" font-size="14.00">Value 0</text>
<polyline fill="none" stroke="black" points="1450.5,-756.5 1519.5,-756.5 "/>
<text text-anchor="middle" x="1485" y="-741.3" font-family="Times,serif" font-size="14.00">Initial 8</text>
</g>
<!-- P6&#45;&gt;B19 -->
<g id="edge65" class="edge"><title>P6:a&#45;&gt;B19:a</title>
<path fill="none" stroke="black" d="M1521,-791C1552.74,-791 1517.78,-527.647 1541,-506 1543.28,-503.879 1545.44,-504.237 1548,-506 1562.4,-515.904 1551.63,-539.019 1556.9,-548.659"/>
<polygon fill="black" stroke="black" points="1555.47,-551.853 1566,-553 1558.48,-545.535 1555.47,-551.853"/>
<text text-anchor="middle" x="1544.5" y="-509.8" font-family="Times,serif" font-size="14.00">1</text>
</g>
<!-- B20 -->
<g id="node39" class="node"><title>B20</title>
<path fill="none" stroke="black" d="M1578,-817C1578,-817 1639,-817 1639,-817 1645,-817 1651,-823 1651,-829 1651,-829 1651,-851 1651,-851 1651,-857 1645,-863 1639,-863 1639,-863 1578,-863 1578,-863 1572,-863 1566,-857 1566,-851 1566,-851 1566,-829 1566,-829 1566,-823 1572,-817 1578,-817"/>
<text text-anchor="middle" x="1608.5" y="-847.8" font-family="Times,serif" font-size="14.00">Blueprint 20</text>
<polyline fill="none" stroke="black" points="1566,-840 1651,-840 "/>
<text text-anchor="middle" x="1608.5" y="-824.8" font-family="Times,serif" font-size="14.00">Coolant 7</text>
</g>
<!-- P6&#45;&gt;B20 -->
<g id="edge66" class="edge"><title>P6:a&#45;&gt;B20:a</title>
<path fill="none" stroke="black" d="M1521,-791C1550.61,-791 1536.91,-838.121 1556.03,-849.533"/>
<polygon fill="black" stroke="black" points="1555.45,-852.996 1566,-852 1557.13,-846.201 1555.45,-852.996"/>
<text text-anchor="middle" x="1544.5" y="-841.8" font-family="Times,serif" font-size="14.00">2</text>
</g>
<!-- P6&#45;&gt;B22 -->
<g id="edge73" class="edge"><title>P6:a&#45;&gt;B22:a</title>
<path fill="none" stroke="black" d="M1521,-791C1531.87,-791 1546.93,-715.531 1559.17,-690.767"/>
<polygon fill="black" stroke="black" points="1562.02,-692.821 1566,-683 1556.77,-688.198 1562.02,-692.821"/>
<text text-anchor="middle" x="1544.5" y="-746.8" font-family="Times,serif" font-size="14.00">1</text>
</g>
<!-- P6&#45;&gt;B24 -->
<g id="edge80" class="edge"><title>P6:a&#45;&gt;B24:a</title>
<path fill="none" stroke="black" d="M1449,-791C1430.31,-791 1444.25,-764.815 1429,-754 1423.12,-749.829 1419.13,-749.361 1414.07,-749.563"/>
<polygon fill="black" stroke="black" points="1413.84,-746.069 1404,-750 1414.14,-753.063 1413.84,-746.069"/>
<text text-anchor="middle" x="1425.5" y="-757.8" font-family="Times,serif" font-size="14.00">1</text>
</g>
<!-- B27 -->
<g id="node46" class="node"><title>B27</title>
<path fill="none" stroke="black" d="M1578,-1128C1578,-1128 1639,-1128 1639,-1128 1645,-1128 1651,-1134 1651,-1140 1651,-1140 1651,-1162 1651,-1162 1651,-1168 1645,-1174 1639,-1174 1639,-1174 1578,-1174 1578,-1174 1572,-1174 1566,-1168 1566,-1162 1566,-1162 1566,-1140 1566,-1140 1566,-1134 1572,-1128 1578,-1128"/>
<text text-anchor="middle" x="1608.5" y="-1158.8" font-family="Times,serif" font-size="14.00">Blueprint 27</text>
<polyline fill="none" stroke="black" points="1566,-1151 1651,-1151 "/>
<text text-anchor="middle" x="1608.5" y="-1135.8" font-family="Times,serif" font-size="14.00">Coolant 3</text>
</g>
<!-- P6&#45;&gt;B27 -->
<g id="edge92" class="edge"><title>P6:a&#45;&gt;B27:a</title>
<path fill="none" stroke="black" d="M1485,-804C1485,-928.731 1510.74,-957.997 1541,-1079 1541.47,-1080.86 1555.25,-1132.09 1562.24,-1153.61"/>
<polygon fill="black" stroke="black" points="1559.03,-1155.02 1566,-1163 1565.53,-1152.42 1559.03,-1155.02"/>
<text text-anchor="middle" x="1544.5" y="-1106.8" font-family="Times,serif" font-size="14.00">1</text>
</g>
<!-- B29 -->
<g id="node48" class="node"><title>B29</title>
<path fill="none" stroke="black" d="M1578,-752C1578,-752 1639,-752 1639,-752 1645,-752 1651,-758 1651,-764 1651,-764 1651,-786 1651,-786 1651,-792 1645,-798 1639,-798 1639,-798 1578,-798 1578,-798 1572,-798 1566,-792 1566,-786 1566,-786 1566,-764 1566,-764 1566,-758 1572,-752 1578,-752"/>
<text text-anchor="middle" x="1608.5" y="-782.8" font-family="Times,serif" font-size="14.00">Blueprint 29</text>
<polyline fill="none" stroke="black" points="1566,-775 1651,-775 "/>
<text text-anchor="middle" x="1608.5" y="-759.8" font-family="Times,serif" font-size="14.00">Coolant 1</text>
</g>
<!-- P6&#45;&gt;B29 -->
<g id="edge98" class="edge"><title>P6:a&#45;&gt;B29:a</title>
<path fill="none" stroke="black" d="M1521,-791C1537.16,-791 1543.45,-788.41 1555.75,-787.398"/>
<polygon fill="black" stroke="black" points="1556.14,-790.886 1566,-787 1555.87,-783.891 1556.14,-790.886"/>
<text text-anchor="middle" x="1544.5" y="-792.8" font-family="Times,serif" font-size="14.00">1</text>
</g>
<!-- P7 -->
<g id="node8" class="node"><title>P7</title>
<polygon fill="none" stroke="black" points="734,-1182.5 734,-1251.5 803,-1251.5 803,-1182.5 734,-1182.5"/>
<text text-anchor="middle" x="768.5" y="-1236.3" font-family="Times,serif" font-size="14.00">Product 7</text>
<polyline fill="none" stroke="black" points="734,-1228.5 803,-1228.5 "/>
<text text-anchor="middle" x="768.5" y="-1213.3" font-family="Times,serif" font-size="14.00">Value 3</text>
<polyline fill="none" stroke="black" points="734,-1205.5 803,-1205.5 "/>
<text text-anchor="middle" x="768.5" y="-1190.3" font-family="Times,serif" font-size="14.00">Initial 3</text>
</g>
<!-- B2 -->
<g id="node21" class="node"><title>B2</title>
<path fill="none" stroke="black" d="M858,-567C858,-567 912,-567 912,-567 918,-567 924,-573 924,-579 924,-579 924,-601 924,-601 924,-607 918,-613 912,-613 912,-613 858,-613 858,-613 852,-613 846,-607 846,-601 846,-601 846,-579 846,-579 846,-573 852,-567 858,-567"/>
<text text-anchor="middle" x="885" y="-597.8" font-family="Times,serif" font-size="14.00">Blueprint 2</text>
<polyline fill="none" stroke="black" points="846,-590 924,-590 "/>
<text text-anchor="middle" x="885" y="-574.8" font-family="Times,serif" font-size="14.00">Coolant 1</text>
</g>
<!-- P7&#45;&gt;B2 -->
<g id="edge7" class="edge"><title>P7:a&#45;&gt;B2:a</title>
<path fill="none" stroke="black" d="M803,-1240C819.424,-1240 877.005,-706.332 884.249,-624.176"/>
<polygon fill="black" stroke="black" points="887.755,-624.23 885,-614 880.774,-623.715 887.755,-624.23"/>
<text text-anchor="middle" x="824.5" y="-1154.8" font-family="Times,serif" font-size="14.00">1</text>
</g>
<!-- P7&#45;&gt;B15 -->
<g id="edge50" class="edge"><title>P7:a&#45;&gt;B15:a</title>
<path fill="none" stroke="black" d="M768.5,-1253C768.5,-1260.55 688.275,-1456 649.5,-1456 277,-1456 277,-1456 277,-1456 151.019,-1456 279.725,-420.014 197,-325 188.085,-314.761 170.696,-324.017 161.156,-323.703"/>
<polygon fill="black" stroke="black" points="163.687,-321.278 154.5,-316 158.39,-325.855 163.687,-321.278"/>
<text text-anchor="middle" x="465.5" y="-1459.8" font-family="Times,serif" font-size="14.00">1</text>
</g>
<!-- B23 -->
<g id="node42" class="node"><title>B23</title>
<path fill="none" stroke="black" d="M2298,-938C2298,-938 2359,-938 2359,-938 2365,-938 2371,-944 2371,-950 2371,-950 2371,-972 2371,-972 2371,-978 2365,-984 2359,-984 2359,-984 2298,-984 2298,-984 2292,-984 2286,-978 2286,-972 2286,-972 2286,-950 2286,-950 2286,-944 2292,-938 2298,-938"/>
<text text-anchor="middle" x="2328.5" y="-968.8" font-family="Times,serif" font-size="14.00">Blueprint 23</text>
<polyline fill="none" stroke="black" points="2286,-961 2371,-961 "/>
<text text-anchor="middle" x="2328.5" y="-945.8" font-family="Times,serif" font-size="14.00">Coolant 3</text>
</g>
<!-- P7&#45;&gt;B23 -->
<g id="edge76" class="edge"><title>P7:a&#45;&gt;B23:a</title>
<path fill="none" stroke="black" d="M803,-1240C817.422,-1240 810.516,-1257.1 821,-1267 844.606,-1289.3 851.528,-1304 884,-1304 884,-1304 884,-1304 1298.5,-1304 1434.15,-1304 1407.85,-1486 1543.5,-1486 1543.5,-1486 1543.5,-1486 2209.5,-1486 2320.69,-1486 2328.15,-1121.02 2328.49,-995.362"/>
<polygon fill="black" stroke="black" points="2331.99,-995.005 2328.5,-985 2324.99,-994.995 2331.99,-995.005"/>
<text text-anchor="middle" x="1544.5" y="-1489.8" font-family="Times,serif" font-size="14.00">1</text>
</g>
<!-- P8 -->
<g id="node9" class="node"><title>P8</title>
<polygon fill="none" stroke="black" points="1450.5,-459.5 1450.5,-528.5 1519.5,-528.5 1519.5,-459.5 1450.5,-459.5"/>
<text text-anchor="middle" x="1485" y="-513.3" font-family="Times,serif" font-size="14.00">Product 8</text>
<polyline fill="none" stroke="black" points="1450.5,-505.5 1519.5,-505.5 "/>
<text text-anchor="middle" x="1485" y="-490.3" font-family="Times,serif" font-size="14.00">Value 3</text>
<polyline fill="none" stroke="black" points="1450.5,-482.5 1519.5,-482.5 "/>
<text text-anchor="middle" x="1485" y="-467.3" font-family="Times,serif" font-size="14.00">Initial 10</text>
</g>
<!-- P8&#45;&gt;B1 -->
<g id="edge4" class="edge"><title>P8:a&#45;&gt;B1:a</title>
<path fill="none" stroke="black" d="M1521,-517C1550.8,-517 1520.38,-474.517 1541,-453 1571.22,-421.466 1504.79,-419 1731,-419 1731,-419 1731,-419 1976.5,-419 2019.17,-419 2008.98,-770.521 2044.42,-818.581"/>
<polygon fill="black" stroke="black" points="2042.68,-821.618 2053,-824 2046.42,-815.7 2042.68,-821.618"/>
<text text-anchor="middle" x="1791.5" y="-422.8" font-family="Times,serif" font-size="14.00">1</text>
</g>
<!-- P8&#45;&gt;B7 -->
<g id="edge28" class="edge"><title>P8:a&#45;&gt;B7:a</title>
<path fill="none" stroke="black" d="M1521,-517C1550.01,-517 1520.39,-408.419 1541,-388 1626.09,-303.678 1688.59,-345.457 1805.17,-347.892"/>
<polygon fill="black" stroke="black" points="1805.46,-351.395 1815.5,-348 1805.54,-344.395 1805.46,-351.395"/>
<text text-anchor="middle" x="1672.5" y="-338.8" font-family="Times,serif" font-size="14.00">1</text>
</g>
<!-- B12 -->
<g id="node31" class="node"><title>B12</title>
<path fill="none" stroke="black" d="M1578,-583C1578,-583 1639,-583 1639,-583 1645,-583 1651,-589 1651,-595 1651,-595 1651,-617 1651,-617 1651,-623 1645,-629 1639,-629 1639,-629 1578,-629 1578,-629 1572,-629 1566,-623 1566,-617 1566,-617 1566,-595 1566,-595 1566,-589 1572,-583 1578,-583"/>
<text text-anchor="middle" x="1608.5" y="-613.8" font-family="Times,serif" font-size="14.00">Blueprint 12</text>
<polyline fill="none" stroke="black" points="1566,-606 1651,-606 "/>
<text text-anchor="middle" x="1608.5" y="-590.8" font-family="Times,serif" font-size="14.00">Coolant 1</text>
</g>
<!-- P8&#45;&gt;B12 -->
<g id="edge42" class="edge"><title>P8:a&#45;&gt;B12:a</title>
<path fill="none" stroke="black" d="M1521,-517C1535.42,-517 1539.88,-523.082 1548,-535 1566.85,-562.659 1536.74,-606.527 1556,-616.111"/>
<polygon fill="black" stroke="black" points="1555.52,-619.583 1566,-618 1556.82,-612.705 1555.52,-619.583"/>
<text text-anchor="middle" x="1544.5" y="-538.8" font-family="Times,serif" font-size="14.00">1</text>
</g>
<!-- B13 -->
<g id="node32" class="node"><title>B13</title>
<path fill="none" stroke="black" d="M1578,-453C1578,-453 1639,-453 1639,-453 1645,-453 1651,-459 1651,-465 1651,-465 1651,-487 1651,-487 1651,-493 1645,-499 1639,-499 1639,-499 1578,-499 1578,-499 1572,-499 1566,-493 1566,-487 1566,-487 1566,-465 1566,-465 1566,-459 1572,-453 1578,-453"/>
<text text-anchor="middle" x="1608.5" y="-483.8" font-family="Times,serif" font-size="14.00">Blueprint 13</text>
<polyline fill="none" stroke="black" points="1566,-476 1651,-476 "/>
<text text-anchor="middle" x="1608.5" y="-460.8" font-family="Times,serif" font-size="14.00">Coolant 6</text>
</g>
<!-- P8&#45;&gt;B13 -->
<g id="edge46" class="edge"><title>P8:a&#45;&gt;B13:a</title>
<path fill="none" stroke="black" d="M1521,-517C1548.27,-517 1518.8,-474.829 1541,-459 1543.53,-457.194 1545.28,-457.488 1548,-459 1556.91,-463.955 1555.12,-475.343 1557.59,-482.282"/>
<polygon fill="black" stroke="black" points="1555.76,-485.27 1566,-488 1559.7,-479.482 1555.76,-485.27"/>
<text text-anchor="middle" x="1544.5" y="-462.8" font-family="Times,serif" font-size="14.00">1</text>
</g>
<!-- P8&#45;&gt;B22 -->
<g id="edge74" class="edge"><title>P8:a&#45;&gt;B22:a</title>
<path fill="none" stroke="black" d="M1521,-517C1529.21,-517 1549.49,-639.595 1561.09,-674.075"/>
<polygon fill="black" stroke="black" points="1558.11,-675.925 1566,-683 1564.25,-672.551 1558.11,-675.925"/>
<text text-anchor="middle" x="1544.5" y="-622.8" font-family="Times,serif" font-size="14.00">1</text>
</g>
<!-- P9 -->
<g id="node10" class="node"><title>P9</title>
<polygon fill="none" stroke="black" points="2174,-766.5 2174,-835.5 2243,-835.5 2243,-766.5 2174,-766.5"/>
<text text-anchor="middle" x="2208.5" y="-820.3" font-family="Times,serif" font-size="14.00">Product 9</text>
<polyline fill="none" stroke="black" points="2174,-812.5 2243,-812.5 "/>
<text text-anchor="middle" x="2208.5" y="-797.3" font-family="Times,serif" font-size="14.00">Value 9</text>
<polyline fill="none" stroke="black" points="2174,-789.5 2243,-789.5 "/>
<text text-anchor="middle" x="2208.5" y="-774.3" font-family="Times,serif" font-size="14.00">Initial 3</text>
</g>
<!-- P9&#45;&gt;B23 -->
<g id="edge77" class="edge"><title>P9:a&#45;&gt;B23:a</title>
<path fill="none" stroke="black" d="M2243,-824C2273.83,-824 2256.33,-943.228 2276.97,-968.377"/>
<polygon fill="black" stroke="black" points="2275.5,-971.559 2286,-973 2278.69,-965.328 2275.5,-971.559"/>
<text text-anchor="middle" x="2264.5" y="-939.8" font-family="Times,serif" font-size="14.00">1</text>
</g>
<!-- P10 -->
<g id="node11" class="node"><title>P10</title>
<polygon fill="none" stroke="black" points="1694,-1105.5 1694,-1174.5 1770,-1174.5 1770,-1105.5 1694,-1105.5"/>
<text text-anchor="middle" x="1732" y="-1159.3" font-family="Times,serif" font-size="14.00">Product 10</text>
<polyline fill="none" stroke="black" points="1694,-1151.5 1770,-1151.5 "/>
<text text-anchor="middle" x="1732" y="-1136.3" font-family="Times,serif" font-size="14.00">Value 1</text>
<polyline fill="none" stroke="black" points="1694,-1128.5 1770,-1128.5 "/>
<text text-anchor="middle" x="1732" y="-1113.3" font-family="Times,serif" font-size="14.00">Initial 16</text>
</g>
<!-- P11 -->
<g id="node12" class="node"><title>P11</title>
<polygon fill="none" stroke="black" points="1694,-648.5 1694,-717.5 1770,-717.5 1770,-648.5 1694,-648.5"/>
<text text-anchor="middle" x="1732" y="-702.3" font-family="Times,serif" font-size="14.00">Product 11</text>
<polyline fill="none" stroke="black" points="1694,-694.5 1770,-694.5 "/>
<text text-anchor="middle" x="1732" y="-679.3" font-family="Times,serif" font-size="14.00">Value 2</text>
<polyline fill="none" stroke="black" points="1694,-671.5 1770,-671.5 "/>
<text text-anchor="middle" x="1732" y="-656.3" font-family="Times,serif" font-size="14.00">Initial 18</text>
</g>
<!-- B21 -->
<g id="node40" class="node"><title>B21</title>
<path fill="none" stroke="black" d="M1825,-123C1825,-123 1886,-123 1886,-123 1892,-123 1898,-129 1898,-135 1898,-135 1898,-157 1898,-157 1898,-163 1892,-169 1886,-169 1886,-169 1825,-169 1825,-169 1819,-169 1813,-163 1813,-157 1813,-157 1813,-135 1813,-135 1813,-129 1819,-123 1825,-123"/>
<text text-anchor="middle" x="1855.5" y="-153.8" font-family="Times,serif" font-size="14.00">Blueprint 21</text>
<polyline fill="none" stroke="black" points="1813,-146 1898,-146 "/>
<text text-anchor="middle" x="1855.5" y="-130.8" font-family="Times,serif" font-size="14.00">Coolant 8</text>
</g>
<!-- P11&#45;&gt;B21 -->
<g id="edge69" class="edge"><title>P11:a&#45;&gt;B21:a</title>
<path fill="none" stroke="black" d="M1770,-706C1790.14,-706 1786.16,-364.051 1788,-344 1789.66,-325.912 1791.58,-198.199 1805.82,-165.574"/>
<polygon fill="black" stroke="black" points="1808.66,-167.667 1813,-158 1803.58,-162.852 1808.66,-167.667"/>
<text text-anchor="middle" x="1791.5" y="-347.8" font-family="Times,serif" font-size="14.00">1</text>
</g>
<!-- P11&#45;&gt;B24 -->
<g id="edge81" class="edge"><title>P11:a&#45;&gt;B24:a</title>
<path fill="none" stroke="black" d="M1694,-706C1677,-706 1557.92,-703.308 1541,-705 1498.59,-709.243 1486.71,-708.522 1447,-724 1429.93,-730.653 1426.96,-743.887 1414.11,-748.428"/>
<polygon fill="black" stroke="black" points="1413.34,-745.005 1404,-750 1414.42,-751.922 1413.34,-745.005"/>
<text text-anchor="middle" x="1544.5" y="-708.8" font-family="Times,serif" font-size="14.00">1</text>
</g>
<!-- P12 -->
<g id="node13" class="node"><title>P12</title>
<polygon fill="none" stroke="black" points="1447,-1122.5 1447,-1191.5 1523,-1191.5 1523,-1122.5 1447,-1122.5"/>
<text text-anchor="middle" x="1485" y="-1176.3" font-family="Times,serif" font-size="14.00">Product 12</text>
<polyline fill="none" stroke="black" points="1447,-1168.5 1523,-1168.5 "/>
<text text-anchor="middle" x="1485" y="-1153.3" font-family="Times,serif" font-size="14.00">Value 3</text>
<polyline fill="none" stroke="black" points="1447,-1145.5 1523,-1145.5 "/>
<text text-anchor="middle" x="1485" y="-1130.3" font-family="Times,serif" font-size="14.00">Initial 0</text>
</g>
<!-- B5 -->
<g id="node24" class="node"><title>B5</title>
<path fill="none" stroke="black" d="M1581.5,-959C1581.5,-959 1635.5,-959 1635.5,-959 1641.5,-959 1647.5,-965 1647.5,-971 1647.5,-971 1647.5,-993 1647.5,-993 1647.5,-999 1641.5,-1005 1635.5,-1005 1635.5,-1005 1581.5,-1005 1581.5,-1005 1575.5,-1005 1569.5,-999 1569.5,-993 1569.5,-993 1569.5,-971 1569.5,-971 1569.5,-965 1575.5,-959 1581.5,-959"/>
<text text-anchor="middle" x="1608.5" y="-989.8" font-family="Times,serif" font-size="14.00">Blueprint 5</text>
<polyline fill="none" stroke="black" points="1569.5,-982 1647.5,-982 "/>
<text text-anchor="middle" x="1608.5" y="-966.8" font-family="Times,serif" font-size="14.00">Coolant 3</text>
</g>
<!-- P12&#45;&gt;B5 -->
<g id="edge19" class="edge"><title>P12:a&#45;&gt;B5:a</title>
<path fill="none" stroke="black" d="M1523,-1180C1549.09,-1180 1534.19,-1089.18 1541,-1064 1548.67,-1035.64 1538.28,-1003.06 1558.35,-995.583"/>
<polygon fill="black" stroke="black" points="1559.16,-998.999 1568.5,-994 1558.08,-992.082 1559.16,-998.999"/>
<text text-anchor="middle" x="1544.5" y="-1067.8" font-family="Times,serif" font-size="14.00">1</text>
</g>
<!-- B8 -->
<g id="node27" class="node"><title>B8</title>
<path fill="none" stroke="black" d="M1581.5,-1232C1581.5,-1232 1635.5,-1232 1635.5,-1232 1641.5,-1232 1647.5,-1238 1647.5,-1244 1647.5,-1244 1647.5,-1266 1647.5,-1266 1647.5,-1272 1641.5,-1278 1635.5,-1278 1635.5,-1278 1581.5,-1278 1581.5,-1278 1575.5,-1278 1569.5,-1272 1569.5,-1266 1569.5,-1266 1569.5,-1244 1569.5,-1244 1569.5,-1238 1575.5,-1232 1581.5,-1232"/>
<text text-anchor="middle" x="1608.5" y="-1262.8" font-family="Times,serif" font-size="14.00">Blueprint 8</text>
<polyline fill="none" stroke="black" points="1569.5,-1255 1647.5,-1255 "/>
<text text-anchor="middle" x="1608.5" y="-1239.8" font-family="Times,serif" font-size="14.00">Coolant 6</text>
</g>
<!-- P12&#45;&gt;B8 -->
<g id="edge30" class="edge"><title>P12:a&#45;&gt;B8:a</title>
<path fill="none" stroke="black" d="M1523,-1180C1541.49,-1180 1545.65,-1242.51 1559.78,-1261.56"/>
<polygon fill="black" stroke="black" points="1558.16,-1264.68 1568.5,-1267 1561.87,-1258.74 1558.16,-1264.68"/>
<text text-anchor="middle" x="1544.5" y="-1234.8" font-family="Times,serif" font-size="14.00">1</text>
</g>
<!-- B10 -->
<g id="node29" class="node"><title>B10</title>
<path fill="none" stroke="black" d="M1578,-1063C1578,-1063 1639,-1063 1639,-1063 1645,-1063 1651,-1069 1651,-1075 1651,-1075 1651,-1097 1651,-1097 1651,-1103 1645,-1109 1639,-1109 1639,-1109 1578,-1109 1578,-1109 1572,-1109 1566,-1103 1566,-1097 1566,-1097 1566,-1075 1566,-1075 1566,-1069 1572,-1063 1578,-1063"/>
<text text-anchor="middle" x="1608.5" y="-1093.8" font-family="Times,serif" font-size="14.00">Blueprint 10</text>
<polyline fill="none" stroke="black" points="1566,-1086 1651,-1086 "/>
<text text-anchor="middle" x="1608.5" y="-1070.8" font-family="Times,serif" font-size="14.00">Coolant 5</text>
</g>
<!-- P12&#45;&gt;B10 -->
<g id="edge34" class="edge"><title>P12:a&#45;&gt;B10:a</title>
<path fill="none" stroke="black" d="M1523,-1180C1540.28,-1180 1544.35,-1122.16 1557.4,-1103.64"/>
<polygon fill="black" stroke="black" points="1559.56,-1106.41 1566,-1098 1555.72,-1100.55 1559.56,-1106.41"/>
<text text-anchor="middle" x="1544.5" y="-1154.8" font-family="Times,serif" font-size="14.00">1</text>
</g>
<!-- B25 -->
<g id="node44" class="node"><title>B25</title>
<path fill="none" stroke="black" d="M1578,-1297C1578,-1297 1639,-1297 1639,-1297 1645,-1297 1651,-1303 1651,-1309 1651,-1309 1651,-1331 1651,-1331 1651,-1337 1645,-1343 1639,-1343 1639,-1343 1578,-1343 1578,-1343 1572,-1343 1566,-1337 1566,-1331 1566,-1331 1566,-1309 1566,-1309 1566,-1303 1572,-1297 1578,-1297"/>
<text text-anchor="middle" x="1608.5" y="-1327.8" font-family="Times,serif" font-size="14.00">Blueprint 25</text>
<polyline fill="none" stroke="black" points="1566,-1320 1651,-1320 "/>
<text text-anchor="middle" x="1608.5" y="-1304.8" font-family="Times,serif" font-size="14.00">Coolant 4</text>
</g>
<!-- P12&#45;&gt;B25 -->
<g id="edge85" class="edge"><title>P12:a&#45;&gt;B25:a</title>
<path fill="none" stroke="black" d="M1523,-1180C1555.12,-1180 1532.31,-1219.07 1541,-1250 1545.23,-1265.05 1546.52,-1310.59 1557.37,-1326.47"/>
<polygon fill="black" stroke="black" points="1555.69,-1329.55 1566,-1332 1559.47,-1323.66 1555.69,-1329.55"/>
<text text-anchor="middle" x="1544.5" y="-1298.8" font-family="Times,serif" font-size="14.00">1</text>
</g>
<!-- P13 -->
<g id="node14" class="node"><title>P13</title>
<polygon fill="none" stroke="black" points="240,-289.5 240,-358.5 316,-358.5 316,-289.5 240,-289.5"/>
<text text-anchor="middle" x="278" y="-343.3" font-family="Times,serif" font-size="14.00">Product 13</text>
<polyline fill="none" stroke="black" points="240,-335.5 316,-335.5 "/>
<text text-anchor="middle" x="278" y="-320.3" font-family="Times,serif" font-size="14.00">Value 8</text>
<polyline fill="none" stroke="black" points="240,-312.5 316,-312.5 "/>
<text text-anchor="middle" x="278" y="-297.3" font-family="Times,serif" font-size="14.00">Initial 9</text>
</g>
<!-- P13&#45;&gt;B5 -->
<g id="edge20" class="edge"><title>P13:a&#45;&gt;B5:a</title>
<path fill="none" stroke="black" d="M316,-347C358.649,-347 420.221,-239.404 444,-204 454.196,-188.819 447.121,-177.632 462,-167 506.27,-135.367 529.09,-152 583.5,-152 583.5,-152 583.5,-152 1065.5,-152 1139.82,-152 1275.72,-710.579 1319,-771 1348.17,-811.72 1366.55,-811.741 1404,-845 1408.05,-848.598 1527.29,-960.97 1560.3,-988.133"/>
<polygon fill="black" stroke="black" points="1558.33,-991.03 1568.5,-994 1562.4,-985.336 1558.33,-991.03"/>
<text text-anchor="middle" x="945.5" y="-155.8" font-family="Times,serif" font-size="14.00">1</text>
</g>
<!-- B11 -->
<g id="node30" class="node"><title>B11</title>
<path fill="none" stroke="black" d="M371,-794C371,-794 432,-794 432,-794 438,-794 444,-800 444,-806 444,-806 444,-828 444,-828 444,-834 438,-840 432,-840 432,-840 371,-840 371,-840 365,-840 359,-834 359,-828 359,-828 359,-806 359,-806 359,-800 365,-794 371,-794"/>
<text text-anchor="middle" x="401.5" y="-824.8" font-family="Times,serif" font-size="14.00">Blueprint 11</text>
<polyline fill="none" stroke="black" points="359,-817 444,-817 "/>
<text text-anchor="middle" x="401.5" y="-801.8" font-family="Times,serif" font-size="14.00">Coolant 10</text>
</g>
<!-- P13&#45;&gt;B11 -->
<g id="edge37" class="edge"><title>P13:a&#45;&gt;B11:a</title>
<path fill="none" stroke="black" d="M278,-360C278,-409.681 302.816,-779.942 349.667,-824.597"/>
<polygon fill="black" stroke="black" points="348.463,-827.898 359,-829 351.45,-821.567 348.463,-827.898"/>
<text text-anchor="middle" x="337.5" y="-809.8" font-family="Times,serif" font-size="14.00">1</text>
</g>
<!-- B18 -->
<g id="node37" class="node"><title>B18</title>
<path fill="none" stroke="black" d="M618,-312C618,-312 679,-312 679,-312 685,-312 691,-318 691,-324 691,-324 691,-346 691,-346 691,-352 685,-358 679,-358 679,-358 618,-358 618,-358 612,-358 606,-352 606,-346 606,-346 606,-324 606,-324 606,-318 612,-312 618,-312"/>
<text text-anchor="middle" x="648.5" y="-342.8" font-family="Times,serif" font-size="14.00">Blueprint 18</text>
<polyline fill="none" stroke="black" points="606,-335 691,-335 "/>
<text text-anchor="middle" x="648.5" y="-319.8" font-family="Times,serif" font-size="14.00">Coolant 9</text>
</g>
<!-- P13&#45;&gt;B18 -->
<g id="edge59" class="edge"><title>P13:a&#45;&gt;B18:a</title>
<path fill="none" stroke="black" d="M316,-347C441.365,-347 475.277,-347 595.64,-347"/>
<polygon fill="black" stroke="black" points="596,-350.5 606,-347 596,-343.5 596,-350.5"/>
<text text-anchor="middle" x="465.5" y="-350.8" font-family="Times,serif" font-size="14.00">1</text>
</g>
<!-- P13&#45;&gt;B26 -->
<g id="edge88" class="edge"><title>P13:a&#45;&gt;B26:a</title>
<path fill="none" stroke="black" d="M278,-360C278,-594.309 365.785,-1356.01 595.992,-1377.53"/>
<polygon fill="black" stroke="black" points="595.848,-1381.03 606,-1378 596.174,-1374.04 595.848,-1381.03"/>
<text text-anchor="middle" x="465.5" y="-1279.8" font-family="Times,serif" font-size="14.00">1</text>
</g>
<!-- P14 -->
<g id="node15" class="node"><title>P14</title>
<polygon fill="none" stroke="black" points="1694,-981.5 1694,-1050.5 1770,-1050.5 1770,-981.5 1694,-981.5"/>
<text text-anchor="middle" x="1732" y="-1035.3" font-family="Times,serif" font-size="14.00">Product 14</text>
<polyline fill="none" stroke="black" points="1694,-1027.5 1770,-1027.5 "/>
<text text-anchor="middle" x="1732" y="-1012.3" font-family="Times,serif" font-size="14.00">Value 0</text>
<polyline fill="none" stroke="black" points="1694,-1004.5 1770,-1004.5 "/>
<text text-anchor="middle" x="1732" y="-989.3" font-family="Times,serif" font-size="14.00">Initial 10</text>
</g>
<!-- P14&#45;&gt;B2 -->
<g id="edge8" class="edge"><title>P14:a&#45;&gt;B2:a</title>
<path fill="none" stroke="black" d="M1694,-1039C1516.21,-1039 1451.68,-1116.14 1294,-1034 1206.16,-988.245 1230.98,-925.962 1164,-853 1055.96,-735.303 892.217,-775.438 885.231,-624.24"/>
<polygon fill="black" stroke="black" points="888.725,-623.918 885,-614 881.727,-624.076 888.725,-623.918"/>
<text text-anchor="middle" x="1297.5" y="-1040.8" font-family="Times,serif" font-size="14.00">1</text>
</g>
<!-- P14&#45;&gt;B9 -->
<g id="edge32" class="edge"><title>P14:a&#45;&gt;B9:a</title>
<path fill="none" stroke="black" d="M1770,-1039C1786.27,-1039 1792.72,-1039 1805.16,-1039"/>
<polygon fill="black" stroke="black" points="1805.5,-1042.5 1815.5,-1039 1805.5,-1035.5 1805.5,-1042.5"/>
<text text-anchor="middle" x="1791.5" y="-1042.8" font-family="Times,serif" font-size="14.00">1</text>
</g>
<!-- P15 -->
<g id="node16" class="node"><title>P15</title>
<polygon fill="none" stroke="black" points="487,-1103.5 487,-1172.5 563,-1172.5 563,-1103.5 487,-1103.5"/>
<text text-anchor="middle" x="525" y="-1157.3" font-family="Times,serif" font-size="14.00">Product 15</text>
<polyline fill="none" stroke="black" points="487,-1149.5 563,-1149.5 "/>
<text text-anchor="middle" x="525" y="-1134.3" font-family="Times,serif" font-size="14.00">Value 1</text>
<polyline fill="none" stroke="black" points="487,-1126.5 563,-1126.5 "/>
<text text-anchor="middle" x="525" y="-1111.3" font-family="Times,serif" font-size="14.00">Initial 18</text>
</g>
<!-- P15&#45;&gt;B9 -->
<g id="edge33" class="edge"><title>P15:a&#45;&gt;B9:a</title>
<path fill="none" stroke="black" d="M525,-1174C525,-1274.42 844.08,-1342 944.5,-1342 944.5,-1342 944.5,-1342 1186.5,-1342 1294.29,-1342 1315.61,-1382.63 1422,-1400 1475.47,-1408.73 1489.32,-1410 1543.5,-1410 1543.5,-1410 1543.5,-1410 1733,-1410 1772.68,-1410 1846.21,-1129.19 1854.7,-1061.12"/>
<polygon fill="black" stroke="black" points="1858.2,-1061.25 1855.5,-1051 1851.22,-1060.69 1858.2,-1061.25"/>
<text text-anchor="middle" x="1185.5" y="-1345.8" font-family="Times,serif" font-size="14.00">1</text>
</g>
<!-- P15&#45;&gt;B11 -->
<g id="edge38" class="edge"><title>P15:a&#45;&gt;B11:a</title>
<path fill="none" stroke="black" d="M487,-1161C416.485,-1161 402.608,-934.864 401.567,-851.156"/>
<polygon fill="black" stroke="black" points="405.066,-850.977 401.5,-841 398.066,-851.023 405.066,-850.977"/>
<text text-anchor="middle" x="465.5" y="-1157.8" font-family="Times,serif" font-size="14.00">1</text>
</g>
<!-- P15&#45;&gt;B25 -->
<g id="edge86" class="edge"><title>P15:a&#45;&gt;B25:a</title>
<path fill="none" stroke="black" d="M525,-1174C525,-1266.31 534.399,-1294.32 581,-1374 611.901,-1426.84 650.292,-1418 711.5,-1418 711.5,-1418 711.5,-1418 1065.5,-1418 1091.47,-1418 1268.42,-1373.48 1294,-1369 1410.77,-1348.57 1442.24,-1332.91 1555.85,-1332.04"/>
<polygon fill="black" stroke="black" points="1556.01,-1335.54 1566,-1332 1555.99,-1328.54 1556.01,-1335.54"/>
<text text-anchor="middle" x="1064.5" y="-1421.8" font-family="Times,serif" font-size="14.00">1</text>
</g>
<!-- P15&#45;&gt;B26 -->
<g id="edge89" class="edge"><title>P15:a&#45;&gt;B26:a</title>
<path fill="none" stroke="black" d="M525,-1174C525,-1195.82 570.3,-1341.84 597.312,-1372.4"/>
<polygon fill="black" stroke="black" points="595.699,-1375.52 606,-1378 599.492,-1369.64 595.699,-1375.52"/>
<text text-anchor="middle" x="584.5" y="-1358.8" font-family="Times,serif" font-size="14.00">1</text>
</g>
<!-- P16 -->
<g id="node17" class="node"><title>P16</title>
<polygon fill="none" stroke="black" points="967,-544.5 967,-613.5 1043,-613.5 1043,-544.5 967,-544.5"/>
<text text-anchor="middle" x="1005" y="-598.3" font-family="Times,serif" font-size="14.00">Product 16</text>
<polyline fill="none" stroke="black" points="967,-590.5 1043,-590.5 "/>
<text text-anchor="middle" x="1005" y="-575.3" font-family="Times,serif" font-size="14.00">Value 5</text>
<polyline fill="none" stroke="black" points="967,-567.5 1043,-567.5 "/>
<text text-anchor="middle" x="1005" y="-552.3" font-family="Times,serif" font-size="14.00">Initial 10</text>
</g>
<!-- P16&#45;&gt;B3 -->
<g id="edge13" class="edge"><title>P16:a&#45;&gt;B3:a</title>
<path fill="none" stroke="black" d="M1043,-602C1059.38,-602 1064.73,-655.807 1077.49,-673.462"/>
<polygon fill="black" stroke="black" points="1075.71,-676.479 1086,-679 1079.53,-670.612 1075.71,-676.479"/>
<text text-anchor="middle" x="1064.5" y="-652.8" font-family="Times,serif" font-size="14.00">1</text>
</g>
<!-- P16&#45;&gt;B5 -->
<g id="edge21" class="edge"><title>P16:a&#45;&gt;B5:a</title>
<path fill="none" stroke="black" d="M1005,-615C1005,-667.184 1045.32,-667.314 1086,-700 1162.95,-761.827 1195.49,-757.896 1276,-815 1356.35,-871.986 1360.38,-909.092 1447,-956 1493.64,-981.259 1509.89,-992.556 1558.36,-993.869"/>
<polygon fill="black" stroke="black" points="1558.46,-997.371 1568.5,-994 1558.55,-990.371 1558.46,-997.371"/>
<text text-anchor="middle" x="1297.5" y="-836.8" font-family="Times,serif" font-size="14.00">1</text>
</g>
<!-- P16&#45;&gt;B7 -->
<g id="edge29" class="edge"><title>P16:a&#45;&gt;B7:a</title>
<path fill="none" stroke="black" d="M1043,-602C1065.09,-602 1047.64,-421.592 1061,-404 1129.99,-313.152 1203.42,-372.094 1301,-313 1310.16,-307.455 1310.93,-304.032 1319,-297 1364.39,-257.442 1365.51,-229.845 1422,-209 1424.92,-207.923 1425.94,-208.466 1429,-209 1434.13,-209.894 1746.7,-324.797 1805.94,-344.988"/>
<polygon fill="black" stroke="black" points="1804.91,-348.335 1815.5,-348 1807.01,-341.658 1804.91,-348.335"/>
<text text-anchor="middle" x="1425.5" y="-212.8" font-family="Times,serif" font-size="14.00">1</text>
</g>
<!-- P16&#45;&gt;B12 -->
<g id="edge43" class="edge"><title>P16:a&#45;&gt;B12:a</title>
<path fill="none" stroke="black" d="M1043,-602C1053.13,-602 1051.49,-591.514 1061,-588 1158.24,-552.052 1190.36,-579.445 1294,-577 1406.93,-574.336 1451.55,-527.207 1548,-586 1557.58,-591.839 1554.78,-604.774 1557.4,-612.289"/>
<polygon fill="black" stroke="black" points="1555.73,-615.383 1566,-618 1559.61,-609.552 1555.73,-615.383"/>
<text text-anchor="middle" x="1297.5" y="-580.8" font-family="Times,serif" font-size="14.00">1</text>
</g>
<!-- P17 -->
<g id="node18" class="node"><title>P17</title>
<polygon fill="none" stroke="black" points="487,-465.5 487,-534.5 563,-534.5 563,-465.5 487,-465.5"/>
<text text-anchor="middle" x="525" y="-519.3" font-family="Times,serif" font-size="14.00">Product 17</text>
<polyline fill="none" stroke="black" points="487,-511.5 563,-511.5 "/>
<text text-anchor="middle" x="525" y="-496.3" font-family="Times,serif" font-size="14.00">Value 10</text>
<polyline fill="none" stroke="black" points="487,-488.5 563,-488.5 "/>
<text text-anchor="middle" x="525" y="-473.3" font-family="Times,serif" font-size="14.00">Initial 10</text>
</g>
<!-- P17&#45;&gt;B4 -->
<g id="edge17" class="edge"><title>P17:a&#45;&gt;B4:a</title>
<path fill="none" stroke="black" d="M525,-536C525,-549.508 583.236,-979.909 603.994,-1048.75"/>
<polygon fill="black" stroke="black" points="600.973,-1050.54 608.5,-1058 607.265,-1047.48 600.973,-1050.54"/>
<text text-anchor="middle" x="584.5" y="-963.8" font-family="Times,serif" font-size="14.00">1</text>
</g>
<!-- P17&#45;&gt;B12 -->
<g id="edge44" class="edge"><title>P17:a&#45;&gt;B12:a</title>
<path fill="none" stroke="black" d="M525,-536C525,-614.431 569.069,-867 647.5,-867 647.5,-867 647.5,-867 1362.5,-867 1445.18,-867 1489.29,-911.211 1548,-853 1581.89,-819.4 1534.42,-674.784 1566,-639 1574.98,-628.821 1592.34,-638.052 1601.86,-637.719"/>
<polygon fill="black" stroke="black" points="1604.63,-639.864 1608.5,-630 1599.33,-635.3 1604.63,-639.864"/>
<text text-anchor="middle" x="1064.5" y="-870.8" font-family="Times,serif" font-size="14.00">1</text>
</g>
<!-- P17&#45;&gt;B17 -->
<g id="edge55" class="edge"><title>P17:a&#45;&gt;B17:a</title>
<path fill="none" stroke="black" d="M563,-523C581.553,-523 577.532,-375.225 581,-357 588.106,-319.659 568.417,-275.261 595.881,-267.265"/>
<polygon fill="black" stroke="black" points="596.511,-270.713 606,-266 595.643,-263.767 596.511,-270.713"/>
<text text-anchor="middle" x="584.5" y="-360.8" font-family="Times,serif" font-size="14.00">1</text>
</g>
<!-- P17&#45;&gt;B18 -->
<g id="edge60" class="edge"><title>P17:a&#45;&gt;B18:a</title>
<path fill="none" stroke="black" d="M563,-523C613.577,-523 646.846,-505.017 648.44,-369.404"/>
<polygon fill="black" stroke="black" points="651.942,-369.02 648.5,-359 644.942,-368.98 651.942,-369.02"/>
<text text-anchor="middle" x="584.5" y="-524.8" font-family="Times,serif" font-size="14.00">1</text>
</g>
<!-- B1&#45;&gt;P7 -->
<g id="edge5" class="edge"><title>B1:a&#45;&gt;P7:a</title>
<path fill="none" stroke="black" d="M2053,-824C2025.58,-824 2050.96,-860.71 2035,-883 1997.31,-935.635 1951.2,-912.669 1916,-967 1893.11,-1002.33 1909.01,-1019.37 1898,-1060 1817.69,-1356.31 1810.3,-1448 1733,-1448 1543.5,-1448 1543.5,-1448 1543.5,-1448 1449.82,-1448 1485.91,-1335.46 1404,-1290 1289.68,-1226.55 953.959,-1239.31 813.195,-1239.97"/>
<polygon fill="black" stroke="black" points="812.991,-1236.47 803,-1240 813.009,-1243.47 812.991,-1236.47"/>
<text text-anchor="middle" x="1425.5" y="-1311.8" font-family="Times,serif" font-size="14.00">1</text>
</g>
<!-- B1&#45;&gt;P9 -->
<g id="edge6" class="edge"><title>B1:a&#45;&gt;P9:a</title>
<path fill="none" stroke="black" d="M2131,-824C2146.23,-824 2152.36,-824 2163.89,-824"/>
<polygon fill="black" stroke="black" points="2164,-827.5 2174,-824 2164,-820.5 2164,-827.5"/>
<text text-anchor="middle" x="2152.5" y="-827.8" font-family="Times,serif" font-size="14.00">1</text>
</g>
<!-- B2&#45;&gt;P0 -->
<g id="edge9" class="edge"><title>B2:a&#45;&gt;P0:a</title>
<path fill="none" stroke="black" d="M846,-602C663.602,-602 825.646,-345.043 691,-222 660.761,-194.366 379.464,-114 338.5,-114 153.5,-114 153.5,-114 153.5,-114 118.616,-114 109.174,-129.604 79.0604,-132.53"/>
<polygon fill="black" stroke="black" points="78.8259,-129.037 69,-133 79.1524,-136.03 78.8259,-129.037"/>
<text text-anchor="middle" x="465.5" y="-145.8" font-family="Times,serif" font-size="14.00">1</text>
</g>
<!-- B2&#45;&gt;P4 -->
<g id="edge10" class="edge"><title>B2:a&#45;&gt;P4:a</title>
<path fill="none" stroke="black" d="M924,-602C992.567,-602 935.433,-304 1004,-304 1004,-304 1004,-304 1186.5,-304 1258.19,-304 1251.94,-237.359 1319,-212 1473.55,-153.553 1525.19,-167.389 1685.77,-167.981"/>
<polygon fill="black" stroke="black" points="1685.99,-171.481 1696,-168 1686.01,-164.481 1685.99,-171.481"/>
<text text-anchor="middle" x="1297.5" y="-228.8" font-family="Times,serif" font-size="14.00">1</text>
</g>
<!-- B2&#45;&gt;P16 -->
<g id="edge11" class="edge"><title>B2:a&#45;&gt;P16:a</title>
<path fill="none" stroke="black" d="M924,-602C939.229,-602 945.357,-602 956.888,-602"/>
<polygon fill="black" stroke="black" points="957,-605.5 967,-602 957,-598.5 957,-605.5"/>
<text text-anchor="middle" x="945.5" y="-605.8" font-family="Times,serif" font-size="14.00">1</text>
</g>
<!-- B3&#45;&gt;P5 -->
<g id="edge14" class="edge"><title>B3:a&#45;&gt;P5:a</title>
<path fill="none" stroke="black" d="M1164,-679C1176.52,-679 1180.92,-682.431 1189,-692 1202.83,-708.387 1188.49,-735.572 1197.32,-744.813"/>
<polygon fill="black" stroke="black" points="1196.41,-748.196 1207,-748 1198.6,-741.547 1196.41,-748.196"/>
<text text-anchor="middle" x="1185.5" y="-695.8" font-family="Times,serif" font-size="14.00">1</text>
</g>
<!-- B3&#45;&gt;P9 -->
<g id="edge15" class="edge"><title>B3:a&#45;&gt;P9:a</title>
<path fill="none" stroke="black" d="M1164,-679C1179.42,-679 1552.29,-303.074 1566,-296 1618.86,-268.717 1854.01,-259 1854.5,-259 1854.5,-259 1854.5,-259 2093,-259 2216.25,-259 2056.7,-792.451 2163.93,-822.666"/>
<polygon fill="black" stroke="black" points="2163.63,-826.156 2174,-824 2164.55,-819.217 2163.63,-826.156"/>
<text text-anchor="middle" x="1672.5" y="-276.8" font-family="Times,serif" font-size="14.00">1</text>
</g>
<!-- B4&#45;&gt;P13 -->
<g id="edge18" class="edge"><title>B4:a&#45;&gt;P13:a</title>
<path fill="none" stroke="black" d="M608.5,-1058C448.476,-1058 393.957,-973.368 334,-825 296.223,-731.517 279.084,-480.442 278.05,-370.217"/>
<polygon fill="black" stroke="black" points="281.549,-369.983 278,-360 274.549,-370.017 281.549,-369.983"/>
<text text-anchor="middle" x="465.5" y="-1027.8" font-family="Times,serif" font-size="14.00">1</text>
</g>
<!-- B6&#45;&gt;P7 -->
<g id="edge24" class="edge"><title>B6:a&#45;&gt;P7:a</title>
<path fill="none" stroke="black" d="M1321.5,-1158C1319.13,-1158 1244.87,-1190 1242.5,-1190 1063.5,-1190 1063.5,-1190 1063.5,-1190 949.063,-1190 922.419,-1237.11 813.126,-1239.87"/>
<polygon fill="black" stroke="black" points="812.956,-1236.38 803,-1240 813.043,-1243.37 812.956,-1236.38"/>
<text text-anchor="middle" x="1064.5" y="-1193.8" font-family="Times,serif" font-size="14.00">1</text>
</g>
<!-- B6&#45;&gt;P12 -->
<g id="edge25" class="edge"><title>B6:a&#45;&gt;P12:a</title>
<path fill="none" stroke="black" d="M1401.5,-1158C1420.1,-1158 1423.69,-1173.09 1437.14,-1178.27"/>
<polygon fill="black" stroke="black" points="1436.55,-1181.72 1447,-1180 1437.75,-1174.83 1436.55,-1181.72"/>
<text text-anchor="middle" x="1425.5" y="-1175.8" font-family="Times,serif" font-size="14.00">1</text>
</g>
<!-- B6&#45;&gt;P15 -->
<g id="edge26" class="edge"><title>B6:a&#45;&gt;P15:a</title>
<path fill="none" stroke="black" d="M1321.5,-1158C1286.29,-1158 1277.71,-1152 1242.5,-1152 884,-1152 884,-1152 884,-1152 744.762,-1152 707.523,-1160.57 573.265,-1160.98"/>
<polygon fill="black" stroke="black" points="572.995,-1157.48 563,-1161 573.005,-1164.48 572.995,-1157.48"/>
<text text-anchor="middle" x="945.5" y="-1155.8" font-family="Times,serif" font-size="14.00">1</text>
</g>
<!-- B10&#45;&gt;P5 -->
<g id="edge35" class="edge"><title>B10:a&#45;&gt;P5:a</title>
<path fill="none" stroke="black" d="M1566,-1098C1555.3,-1098 1556.3,-1088.76 1548,-1082 1493.84,-1037.86 1472.61,-1036.17 1422,-988 1357.29,-926.403 1348.79,-903.571 1294,-833 1271.99,-804.65 1246.76,-801.078 1242.22,-771.18"/>
<polygon fill="black" stroke="black" points="1245.69,-770.729 1241.5,-761 1238.71,-771.221 1245.69,-770.729"/>
<text text-anchor="middle" x="1425.5" y="-997.8" font-family="Times,serif" font-size="14.00">1</text>
</g>
<!-- B10&#45;&gt;P14 -->
<g id="edge36" class="edge"><title>B10:a&#45;&gt;P14:a</title>
<path fill="none" stroke="black" d="M1651,-1098C1679.39,-1098 1666.18,-1052.83 1684.17,-1041.54"/>
<polygon fill="black" stroke="black" points="1685.19,-1044.89 1694,-1039 1683.44,-1038.11 1685.19,-1044.89"/>
<text text-anchor="middle" x="1672.5" y="-1086.8" font-family="Times,serif" font-size="14.00">1</text>
</g>
<!-- B11&#45;&gt;P15 -->
<g id="edge39" class="edge"><title>B11:a&#45;&gt;P15:a</title>
<path fill="none" stroke="black" d="M401.5,-841C401.5,-857.64 456.37,-1105.87 480.48,-1153.23"/>
<polygon fill="black" stroke="black" points="477.892,-1155.59 487,-1161 483.256,-1151.09 477.892,-1155.59"/>
<text text-anchor="middle" x="465.5" y="-1119.8" font-family="Times,serif" font-size="14.00">1</text>
</g>
<!-- B11&#45;&gt;P16 -->
<g id="edge40" class="edge"><title>B11:a&#45;&gt;P16:a</title>
<path fill="none" stroke="black" d="M444,-829C479.556,-829 488.444,-829 524,-829 524,-829 524,-829 886,-829 991.426,-829 1004.27,-730.298 1004.97,-625.189"/>
<polygon fill="black" stroke="black" points="1008.47,-625.011 1005,-615 1001.47,-624.989 1008.47,-625.011"/>
<text text-anchor="middle" x="712.5" y="-832.8" font-family="Times,serif" font-size="14.00">1</text>
</g>
<!-- B11&#45;&gt;P17 -->
<g id="edge41" class="edge"><title>B11:a&#45;&gt;P17:a</title>
<path fill="none" stroke="black" d="M444,-829C459.404,-829 514.095,-599.291 523.59,-546.097"/>
<polygon fill="black" stroke="black" points="527.083,-546.388 525,-536 520.15,-545.42 527.083,-546.388"/>
<text text-anchor="middle" x="465.5" y="-791.8" font-family="Times,serif" font-size="14.00">1</text>
</g>
<!-- B12&#45;&gt;P16 -->
<g id="edge45" class="edge"><title>B12:a&#45;&gt;P16:a</title>
<path fill="none" stroke="black" d="M1566,-618C1336.85,-618 1277.29,-602.465 1053.11,-602.01"/>
<polygon fill="black" stroke="black" points="1053,-598.51 1043,-602 1053,-605.51 1053,-598.51"/>
<text text-anchor="middle" x="1297.5" y="-612.8" font-family="Times,serif" font-size="14.00">1</text>
</g>
<!-- B14&#45;&gt;P7 -->
<g id="edge48" class="edge"><title>B14:a&#45;&gt;P7:a</title>
<path fill="none" stroke="black" d="M691,-993C716.028,-993 708.307,-1192.38 726.683,-1232.87"/>
<polygon fill="black" stroke="black" points="724.394,-1235.53 734,-1240 729.278,-1230.52 724.394,-1235.53"/>
<text text-anchor="middle" x="712.5" y="-1170.8" font-family="Times,serif" font-size="14.00">1</text>
</g>
<!-- B15&#45;&gt;P13 -->
<g id="edge51" class="edge"><title>B15:a&#45;&gt;P13:a</title>
<path fill="none" stroke="black" d="M197,-304C220.015,-304 215.416,-335.182 230.233,-344.439"/>
<polygon fill="black" stroke="black" points="229.439,-347.849 240,-347 231.215,-341.078 229.439,-347.849"/>
<text text-anchor="middle" x="218.5" y="-336.8" font-family="Times,serif" font-size="14.00">1</text>
</g>
<!-- B17&#45;&gt;P4 -->
<g id="edge56" class="edge"><title>B17:a&#45;&gt;P4:a</title>
<path fill="none" stroke="black" d="M691,-266C701.135,-266 699.963,-256.587 709,-252 765.346,-223.402 783.629,-224.125 846,-214 1110.64,-171.04 1179.14,-173.566 1447,-162 1537.58,-158.089 1560.35,-160.188 1651,-162 1662.12,-162.222 1664.99,-161.421 1676,-163 1680.53,-163.651 1683.24,-164.901 1685.97,-165.988"/>
<polygon fill="black" stroke="black" points="1685.51,-169.466 1696,-168 1686.88,-162.602 1685.51,-169.466"/>
<text text-anchor="middle" x="1185.5" y="-176.8" font-family="Times,serif" font-size="14.00">1</text>
</g>
<!-- B17&#45;&gt;P7 -->
<g id="edge57" class="edge"><title>B17:a&#45;&gt;P7:a</title>
<path fill="none" stroke="black" d="M648.5,-278C648.5,-299.915 679.807,-284.159 691,-303 706.472,-329.045 707.536,-817.741 709,-848 709.477,-857.855 720.613,-1170.45 730.808,-1230.19"/>
<polygon fill="black" stroke="black" points="727.579,-1231.57 734,-1240 734.235,-1229.41 727.579,-1231.57"/>
<text text-anchor="middle" x="712.5" y="-1016.8" font-family="Times,serif" font-size="14.00">1</text>
</g>
<!-- B17&#45;&gt;P14 -->
<g id="edge58" class="edge"><title>B17:a&#45;&gt;P14:a</title>
<path fill="none" stroke="black" d="M691,-266C804.925,-266 830.575,-228 944.5,-228 944.5,-228 944.5,-228 1186.5,-228 1243.42,-228 1618.34,-397.387 1651,-444 1724.22,-548.495 1666.73,-602.741 1676,-730 1677.12,-745.342 1676.88,-980.494 1689.13,-1029.93"/>
<polygon fill="black" stroke="black" points="1686.18,-1031.85 1694,-1039 1692.35,-1028.53 1686.18,-1031.85"/>
<text text-anchor="middle" x="1185.5" y="-231.8" font-family="Times,serif" font-size="14.00">1</text>
</g>
<!-- B18&#45;&gt;P0 -->
<g id="edge61" class="edge"><title>B18:a&#45;&gt;P0:a</title>
<path fill="none" stroke="black" d="M606,-347C575.166,-347 610.731,-300.833 588,-280 545.74,-241.27 389.225,-250.367 334,-235 215.742,-202.095 196.221,-136.702 79.1123,-133.151"/>
<polygon fill="black" stroke="black" points="79.0511,-129.65 69,-133 78.9467,-136.649 79.0511,-129.65"/>
<text text-anchor="middle" x="337.5" y="-239.8" font-family="Times,serif" font-size="14.00">1</text>
</g>
<!-- B18&#45;&gt;P11 -->
<g id="edge62" class="edge"><title>B18:a&#45;&gt;P11:a</title>
<path fill="none" stroke="black" d="M691,-347C784.026,-347 790.974,-266 884,-266 884,-266 884,-266 1186.5,-266 1292.38,-266 1578.49,-294.851 1651,-372 1678.26,-401.004 1668.96,-418.822 1676,-458 1680.37,-482.325 1669.22,-661.577 1686.59,-699.118"/>
<polygon fill="black" stroke="black" points="1684.29,-701.758 1694,-706 1689.06,-696.629 1684.29,-701.758"/>
<text text-anchor="middle" x="1185.5" y="-269.8" font-family="Times,serif" font-size="14.00">1</text>
</g>
<!-- B18&#45;&gt;P17 -->
<g id="edge63" class="edge"><title>B18:a&#45;&gt;P17:a</title>
<path fill="none" stroke="black" d="M606,-347C569.513,-347 596.91,-491.547 572.401,-518.649"/>
<polygon fill="black" stroke="black" points="570.605,-515.624 563,-523 573.545,-521.976 570.605,-515.624"/>
<text text-anchor="middle" x="584.5" y="-496.8" font-family="Times,serif" font-size="14.00">1</text>
</g>
<!-- B20&#45;&gt;P1 -->
<g id="edge67" class="edge"><title>B20:a&#45;&gt;P1:a</title>
<path fill="none" stroke="black" d="M1651,-852C1660.33,-852 1803.76,-894.722 1813,-896 1861.43,-902.699 1877.57,-915.063 1923,-897 1928.75,-894.713 1930.25,-889.62 1932.41,-885.601"/>
<polygon fill="black" stroke="black" points="1934.54,-888.395 1941,-880 1930.71,-882.531 1934.54,-888.395"/>
<text text-anchor="middle" x="1791.5" y="-894.8" font-family="Times,serif" font-size="14.00">1</text>
</g>
<!-- B20&#45;&gt;P11 -->
<g id="edge68" class="edge"><title>B20:a&#45;&gt;P11:a</title>
<path fill="none" stroke="black" d="M1651,-852C1672.72,-852 1668.47,-830.375 1676,-810 1682.86,-791.438 1674.26,-730.16 1685.49,-711.464"/>
<polygon fill="black" stroke="black" points="1687.48,-714.35 1694,-706 1683.69,-708.46 1687.48,-714.35"/>
<text text-anchor="middle" x="1672.5" y="-840.8" font-family="Times,serif" font-size="14.00">1</text>
</g>
<!-- B21&#45;&gt;P13 -->
<g id="edge70" class="edge"><title>B21:a&#45;&gt;P13:a</title>
<path fill="none" stroke="black" d="M1813,-158C1776.56,-158 1816.92,-107.117 1795,-78 1776.1,-52.8915 1764.43,-44 1733,-44 1543.5,-44 1543.5,-44 1543.5,-44 1430.25,-44 1411.75,-114 1298.5,-114 583.5,-114 583.5,-114 583.5,-114 517.333,-114 503.413,-136.875 444,-166 406.843,-184.215 391.398,-178.256 359,-204 344.594,-215.447 341.255,-220.09 334,-237 325.684,-256.384 336.44,-322.522 324.521,-341.73"/>
<polygon fill="black" stroke="black" points="322.664,-338.763 316,-347 326.346,-344.716 322.664,-338.763"/>
<text text-anchor="middle" x="1064.5" y="-117.8" font-family="Times,serif" font-size="14.00">1</text>
</g>
<!-- B21&#45;&gt;P16 -->
<g id="edge71" class="edge"><title>B21:a&#45;&gt;P16:a</title>
<path fill="none" stroke="black" d="M1813,-158C1789.44,-158 1791.83,-180.13 1770,-189 1633.92,-244.303 1573.7,-184.68 1447,-259 1254.3,-372.037 1220.03,-424.085 1061,-581 1055.67,-586.261 1054.71,-592.908 1052,-597.299"/>
<polygon fill="black" stroke="black" points="1050.24,-594.269 1043,-602 1053.48,-600.473 1050.24,-594.269"/>
<text text-anchor="middle" x="1425.5" y="-276.8" font-family="Times,serif" font-size="14.00">1</text>
</g>
<!-- B22&#45;&gt;P4 -->
<g id="edge75" class="edge"><title>B22:a&#45;&gt;P4:a</title>
<path fill="none" stroke="black" d="M1651,-683C1677.46,-683 1660.63,-232.106 1669,-207 1674.36,-190.906 1674.93,-175.46 1685.93,-170.04"/>
<polygon fill="black" stroke="black" points="1686.89,-173.416 1696,-168 1685.5,-166.555 1686.89,-173.416"/>
<text text-anchor="middle" x="1672.5" y="-210.8" font-family="Times,serif" font-size="14.00">2</text>
</g>
<!-- B23&#45;&gt;P6 -->
<g id="edge78" class="edge"><title>B23:a&#45;&gt;P6:a</title>
<path fill="none" stroke="black" d="M2286,-973C2252,-973 2243.5,-973 2209.5,-973 1974.5,-973 1974.5,-973 1974.5,-973 1787.58,-973 1737.82,-946.596 1566,-873 1553.87,-867.806 1548.96,-867.519 1541,-857 1525.25,-836.188 1544.05,-802.961 1531.05,-793.555"/>
<polygon fill="black" stroke="black" points="1531.55,-790.073 1521,-791 1529.83,-796.857 1531.55,-790.073"/>
<text text-anchor="middle" x="1919.5" y="-975.8" font-family="Times,serif" font-size="14.00">1</text>
</g>
<!-- B24&#45;&gt;P6 -->
<g id="edge82" class="edge"><title>B24:a&#45;&gt;P6:a</title>
<path fill="none" stroke="black" d="M1404,-750C1415.63,-750 1413.47,-761.088 1422,-769 1430.16,-776.568 1432.54,-784.622 1438.98,-788.554"/>
<polygon fill="black" stroke="black" points="1438.46,-792.028 1449,-791 1440.12,-785.228 1438.46,-792.028"/>
<text text-anchor="middle" x="1425.5" y="-779.8" font-family="Times,serif" font-size="14.00">1</text>
</g>
<!-- B24&#45;&gt;P8 -->
<g id="edge83" class="edge"><title>B24:a&#45;&gt;P8:a</title>
<path fill="none" stroke="black" d="M1404,-750C1431.42,-750 1413,-716.895 1422,-691 1446.05,-621.823 1481.49,-608.059 1484.76,-540.388"/>
<polygon fill="black" stroke="black" points="1488.26,-540.079 1485,-530 1481.27,-539.915 1488.26,-540.079"/>
<text text-anchor="middle" x="1425.5" y="-694.8" font-family="Times,serif" font-size="14.00">1</text>
</g>
<!-- B24&#45;&gt;P10 -->
<g id="edge84" class="edge"><title>B24:a&#45;&gt;P10:a</title>
<path fill="none" stroke="black" d="M1404,-750C1425.54,-750 1409.71,-777.309 1422,-795 1462.75,-853.658 1480.88,-864.435 1541,-903 1585.75,-931.707 1618.79,-907.701 1651,-950 1677.97,-985.418 1650.72,-1136.55 1684.13,-1159.95"/>
<polygon fill="black" stroke="black" points="1683.41,-1163.39 1694,-1163 1685.48,-1156.7 1683.41,-1163.39"/>
<text text-anchor="middle" x="1544.5" y="-909.8" font-family="Times,serif" font-size="14.00">1</text>
</g>
<!-- B26&#45;&gt;P7 -->
<g id="edge90" class="edge"><title>B26:a&#45;&gt;P7:a</title>
<path fill="none" stroke="black" d="M691,-1378C719.482,-1378 706.007,-1269.49 724.983,-1244.91"/>
<polygon fill="black" stroke="black" points="726.892,-1247.86 734,-1240 723.544,-1241.71 726.892,-1247.86"/>
<text text-anchor="middle" x="712.5" y="-1343.8" font-family="Times,serif" font-size="14.00">1</text>
</g>
<!-- B26&#45;&gt;P10 -->
<g id="edge91" class="edge"><title>B26:a&#45;&gt;P10:a</title>
<path fill="none" stroke="black" d="M691,-1378C725.012,-1378 733.488,-1380 767.5,-1380 767.5,-1380 767.5,-1380 1065.5,-1380 1195.75,-1380 1543.29,-1426.23 1651,-1353 1719.61,-1306.35 1731.12,-1265.96 1731.95,-1186.42"/>
<polygon fill="black" stroke="black" points="1735.45,-1186.02 1732,-1176 1728.45,-1185.98 1735.45,-1186.02"/>
<text text-anchor="middle" x="1185.5" y="-1388.8" font-family="Times,serif" font-size="14.00">1</text>
</g>
<!-- B27&#45;&gt;P7 -->
<g id="edge93" class="edge"><title>B27:a&#45;&gt;P7:a</title>
<path fill="none" stroke="black" d="M1566,-1163C1540.28,-1163 1568.05,-1201.89 1548,-1218 1527,-1234.87 1092.44,-1266 1065.5,-1266 884,-1266 884,-1266 884,-1266 855.317,-1266 847.381,-1263.26 821,-1252 816.578,-1250.11 814.482,-1247.11 812.289,-1244.58"/>
<polygon fill="black" stroke="black" points="813.516,-1241.29 803,-1240 810.418,-1247.56 813.516,-1241.29"/>
<text text-anchor="middle" x="1185.5" y="-1261.8" font-family="Times,serif" font-size="14.00">1</text>
</g>
<!-- B27&#45;&gt;P10 -->
<g id="edge94" class="edge"><title>B27:a&#45;&gt;P10:a</title>
<path fill="none" stroke="black" d="M1651,-1163C1666.23,-1163 1672.36,-1163 1683.89,-1163"/>
<polygon fill="black" stroke="black" points="1684,-1166.5 1694,-1163 1684,-1159.5 1684,-1166.5"/>
<text text-anchor="middle" x="1672.5" y="-1166.8" font-family="Times,serif" font-size="14.00">1</text>
</g>
<!-- B28&#45;&gt;P1 -->
<g id="edge96" class="edge"><title>B28:a&#45;&gt;P1:a</title>
<path fill="none" stroke="black" d="M1898,-875C1913.33,-875 1919.32,-878.175 1930.85,-879.465"/>
<polygon fill="black" stroke="black" points="1930.83,-882.969 1941,-880 1931.2,-875.978 1930.83,-882.969"/>
<text text-anchor="middle" x="1919.5" y="-881.8" font-family="Times,serif" font-size="14.00">2</text>
</g>
<!-- B28&#45;&gt;P15 -->
<g id="edge97" class="edge"><title>B28:a&#45;&gt;P15:a</title>
<path fill="none" stroke="black" d="M1813,-875C1798.49,-875 1794.54,-883.045 1788,-896 1773.56,-924.625 1793.37,-1162.05 1770,-1184 1703.92,-1246.08 1648.43,-1221.77 1566,-1184 1550.53,-1176.91 1550.01,-1169.43 1541,-1155 1530.24,-1137.77 1539.47,-1124.88 1523,-1113 1462.59,-1069.43 1263.42,-1088.11 1189,-1085 975.749,-1076.08 921.972,-1085.91 709,-1100 651.986,-1103.77 626.275,-1077.14 581,-1112 566.494,-1123.17 578.118,-1147.22 572.27,-1156.87"/>
<polygon fill="black" stroke="black" points="570.71,-1153.73 563,-1161 573.559,-1160.13 570.71,-1153.73"/>
<text text-anchor="middle" x="1185.5" y="-1088.8" font-family="Times,serif" font-size="14.00">1</text>
</g>
<!-- B29&#45;&gt;P3 -->
<g id="edge99" class="edge"><title>B29:a&#45;&gt;P3:a</title>
<path fill="none" stroke="black" d="M1651,-787C1667.29,-787 1673.39,-791.533 1685.71,-793.303"/>
<polygon fill="black" stroke="black" points="1685.79,-796.817 1696,-794 1686.26,-789.833 1685.79,-796.817"/>
<text text-anchor="middle" x="1672.5" y="-794.8" font-family="Times,serif" font-size="14.00">1</text>
</g>
<!-- B29&#45;&gt;P6 -->
<g id="edge100" class="edge"><title>B29:a&#45;&gt;P6:a</title>
<path fill="none" stroke="black" d="M1566,-787C1554.69,-787 1558.45,-773.33 1548,-769 1545.13,-767.809 1543.85,-767.741 1541,-769 1533.26,-772.425 1532.65,-780.49 1529.74,-785.845"/>
<polygon fill="black" stroke="black" points="1527.84,-782.905 1521,-791 1531.39,-788.934 1527.84,-782.905"/>
<text text-anchor="middle" x="1544.5" y="-772.8" font-family="Times,serif" font-size="14.00">1</text>
</g>
<!-- B29&#45;&gt;P11 -->
<g id="edge101" class="edge"><title>B29:a&#45;&gt;P11:a</title>
<path fill="none" stroke="black" d="M1651,-787C1668.12,-787 1672.44,-729.868 1685.46,-711.567"/>
<polygon fill="black" stroke="black" points="1687.53,-714.392 1694,-706 1683.71,-708.527 1687.53,-714.392"/>
<text text-anchor="middle" x="1672.5" y="-761.8" font-family="Times,serif" font-size="14.00">1</text>
</g>
</g>
</svg>
