<?xml version="1.0" encoding="UTF-8" standalone="no"?>
<!DOCTYPE svg PUBLIC "-//W3C//DTD SVG 1.1//EN"
 "http://www.w3.org/Graphics/SVG/1.1/DTD/svg11.dtd">
<!-- Generated by graphviz version 2.38.0 (20140413.2041)
 -->
<!-- Title: g Pages: 1 -->
<svg width="1242pt" height="424pt"
 viewBox="0.00 0.00 1242.00 424.00" xmlns="http://www.w3.org/2000/svg" xmlns:xlink="http://www.w3.org/1999/xlink">
<g id="graph0" class="graph" transform="scale(1 1) rotate(0) translate(4 420)">
<title>g</title>
<polygon fill="white" stroke="none" points="-4,4 -4,-420 1238,-420 1238,4 -4,4"/>
<!-- P0 -->
<g id="node1" class="node"><title>P0</title>
<polygon fill="none" stroke="black" points="0,-243.5 0,-312.5 69,-312.5 69,-243.5 0,-243.5"/>
<text text-anchor="middle" x="34.5" y="-297.3" font-family="Times,serif" font-size="14.00">Product 0</text>
<polyline fill="none" stroke="black" points="0,-289.5 69,-289.5 "/>
<text text-anchor="middle" x="34.5" y="-274.3" font-family="Times,serif" font-size="14.00">Value 0</text>
<polyline fill="none" stroke="black" points="0,-266.5 69,-266.5 "/>
<text text-anchor="middle" x="34.5" y="-251.3" font-family="Times,serif" font-size="14.00">Initial 5</text>
</g>
<!-- B1 -->
<g id="node12" class="node"><title>B1</title>
<path fill="none" stroke="black" d="M124,-210C124,-210 178,-210 178,-210 184,-210 190,-216 190,-222 190,-222 190,-244 190,-244 190,-250 184,-256 178,-256 178,-256 124,-256 124,-256 118,-256 112,-250 112,-244 112,-244 112,-222 112,-222 112,-216 118,-210 124,-210"/>
<text text-anchor="middle" x="151" y="-240.8" font-family="Times,serif" font-size="14.00">Blueprint 1</text>
<polyline fill="none" stroke="black" points="112,-233 190,-233 "/>
<text text-anchor="middle" x="151" y="-217.8" font-family="Times,serif" font-size="14.00">Coolant 5</text>
</g>
<!-- P0&#45;&gt;B1 -->
<g id="edge3" class="edge"><title>P0:a&#45;&gt;B1:a</title>
<path fill="none" stroke="black" d="M69,-301C96.2122,-301 84.9668,-258.887 101.964,-247.701"/>
<polygon fill="black" stroke="black" points="103.253,-250.979 112,-245 101.434,-244.219 103.253,-250.979"/>
<text text-anchor="middle" x="90.5" y="-288.8" font-family="Times,serif" font-size="14.00">1</text>
</g>
<!-- P1 -->
<g id="node2" class="node"><title>P1</title>
<polygon fill="none" stroke="black" points="699,-51.5 699,-120.5 768,-120.5 768,-51.5 699,-51.5"/>
<text text-anchor="middle" x="733.5" y="-105.3" font-family="Times,serif" font-size="14.00">Product 1</text>
<polyline fill="none" stroke="black" points="699,-97.5 768,-97.5 "/>
<text text-anchor="middle" x="733.5" y="-82.3" font-family="Times,serif" font-size="14.00">Value 1</text>
<polyline fill="none" stroke="black" points="699,-74.5 768,-74.5 "/>
<text text-anchor="middle" x="733.5" y="-59.3" font-family="Times,serif" font-size="14.00">Initial 9</text>
</g>
<!-- B2 -->
<g id="node13" class="node"><title>B2</title>
<path fill="none" stroke="black" d="M823,-127C823,-127 877,-127 877,-127 883,-127 889,-133 889,-139 889,-139 889,-161 889,-161 889,-167 883,-173 877,-173 877,-173 823,-173 823,-173 817,-173 811,-167 811,-161 811,-161 811,-139 811,-139 811,-133 817,-127 823,-127"/>
<text text-anchor="middle" x="850" y="-157.8" font-family="Times,serif" font-size="14.00">Blueprint 2</text>
<polyline fill="none" stroke="black" points="811,-150 889,-150 "/>
<text text-anchor="middle" x="850" y="-134.8" font-family="Times,serif" font-size="14.00">Coolant 7</text>
</g>
<!-- P1&#45;&gt;B2 -->
<g id="edge7" class="edge"><title>P1:a&#45;&gt;B2:a</title>
<path fill="none" stroke="black" d="M768,-109C783.098,-109 783.463,-120.296 793,-132 799.753,-140.287 798.379,-151.359 801.913,-157.47"/>
<polygon fill="black" stroke="black" points="800.489,-160.67 811,-162 803.612,-154.406 800.489,-160.67"/>
<text text-anchor="middle" x="789.5" y="-135.8" font-family="Times,serif" font-size="14.00">1</text>
</g>
<!-- B3 -->
<g id="node14" class="node"><title>B3</title>
<path fill="none" stroke="black" d="M1056,-93C1056,-93 1110,-93 1110,-93 1116,-93 1122,-99 1122,-105 1122,-105 1122,-127 1122,-127 1122,-133 1116,-139 1110,-139 1110,-139 1056,-139 1056,-139 1050,-139 1044,-133 1044,-127 1044,-127 1044,-105 1044,-105 1044,-99 1050,-93 1056,-93"/>
<text text-anchor="middle" x="1083" y="-123.8" font-family="Times,serif" font-size="14.00">Blueprint 3</text>
<polyline fill="none" stroke="black" points="1044,-116 1122,-116 "/>
<text text-anchor="middle" x="1083" y="-100.8" font-family="Times,serif" font-size="14.00">Coolant 8</text>
</g>
<!-- P1&#45;&gt;B3 -->
<g id="edge10" class="edge"><title>P1:a&#45;&gt;B3:a</title>
<path fill="none" stroke="black" d="M768,-109C887.475,-109 919.264,-126.939 1033.77,-127.955"/>
<polygon fill="black" stroke="black" points="1033.98,-131.456 1044,-128 1034.02,-124.456 1033.98,-131.456"/>
<text text-anchor="middle" x="910.5" y="-123.8" font-family="Times,serif" font-size="14.00">1</text>
</g>
<!-- P2 -->
<g id="node3" class="node"><title>P2</title>
<polygon fill="none" stroke="black" points="1165,-189.5 1165,-258.5 1234,-258.5 1234,-189.5 1165,-189.5"/>
<text text-anchor="middle" x="1199.5" y="-243.3" font-family="Times,serif" font-size="14.00">Product 2</text>
<polyline fill="none" stroke="black" points="1165,-235.5 1234,-235.5 "/>
<text text-anchor="middle" x="1199.5" y="-220.3" font-family="Times,serif" font-size="14.00">Value 8</text>
<polyline fill="none" stroke="black" points="1165,-212.5 1234,-212.5 "/>
<text text-anchor="middle" x="1199.5" y="-197.3" font-family="Times,serif" font-size="14.00">Initial 7</text>
</g>
<!-- B5 -->
<g id="node16" class="node"><title>B5</title>
<path fill="none" stroke="black" d="M357,-267C357,-267 411,-267 411,-267 417,-267 423,-273 423,-279 423,-279 423,-301 423,-301 423,-307 417,-313 411,-313 411,-313 357,-313 357,-313 351,-313 345,-307 345,-301 345,-301 345,-279 345,-279 345,-273 351,-267 357,-267"/>
<text text-anchor="middle" x="384" y="-297.8" font-family="Times,serif" font-size="14.00">Blueprint 5</text>
<polyline fill="none" stroke="black" points="345,-290 423,-290 "/>
<text text-anchor="middle" x="384" y="-274.8" font-family="Times,serif" font-size="14.00">Coolant 9</text>
</g>
<!-- P2&#45;&gt;B5 -->
<g id="edge18" class="edge"><title>P2:a&#45;&gt;B5:a</title>
<path fill="none" stroke="black" d="M1165,-247C1149.28,-247 1099.72,-363 1084,-363 499.5,-363 499.5,-363 499.5,-363 470.481,-363 462.048,-353.978 441,-334 432.863,-326.277 435.119,-314.048 432.022,-307.159"/>
<polygon fill="black" stroke="black" points="433.418,-303.926 423,-302 429.943,-310.003 433.418,-303.926"/>
<text text-anchor="middle" x="789.5" y="-366.8" font-family="Times,serif" font-size="14.00">1</text>
</g>
<!-- P3 -->
<g id="node4" class="node"><title>P3</title>
<polygon fill="none" stroke="black" points="932,-138.5 932,-207.5 1001,-207.5 1001,-138.5 932,-138.5"/>
<text text-anchor="middle" x="966.5" y="-192.3" font-family="Times,serif" font-size="14.00">Product 3</text>
<polyline fill="none" stroke="black" points="932,-184.5 1001,-184.5 "/>
<text text-anchor="middle" x="966.5" y="-169.3" font-family="Times,serif" font-size="14.00">Value 1</text>
<polyline fill="none" stroke="black" points="932,-161.5 1001,-161.5 "/>
<text text-anchor="middle" x="966.5" y="-146.3" font-family="Times,serif" font-size="14.00">Initial 8</text>
</g>
<!-- P3&#45;&gt;B3 -->
<g id="edge11" class="edge"><title>P3:a&#45;&gt;B3:a</title>
<path fill="none" stroke="black" d="M1001,-196C1032.71,-196 1013.88,-142.534 1034.14,-130.42"/>
<polygon fill="black" stroke="black" points="1035.12,-133.782 1044,-128 1033.45,-126.984 1035.12,-133.782"/>
<text text-anchor="middle" x="1022.5" y="-185.8" font-family="Times,serif" font-size="14.00">3</text>
</g>
<!-- P4 -->
<g id="node5" class="node"><title>P4</title>
<polygon fill="none" stroke="black" points="466,-265.5 466,-334.5 535,-334.5 535,-265.5 466,-265.5"/>
<text text-anchor="middle" x="500.5" y="-319.3" font-family="Times,serif" font-size="14.00">Product 4</text>
<polyline fill="none" stroke="black" points="466,-311.5 535,-311.5 "/>
<text text-anchor="middle" x="500.5" y="-296.3" font-family="Times,serif" font-size="14.00">Value 9</text>
<polyline fill="none" stroke="black" points="466,-288.5 535,-288.5 "/>
<text text-anchor="middle" x="500.5" y="-273.3" font-family="Times,serif" font-size="14.00">Initial 3</text>
</g>
<!-- B0 -->
<g id="node11" class="node"><title>B0</title>
<path fill="none" stroke="black" d="M590,-272C590,-272 644,-272 644,-272 650,-272 656,-278 656,-284 656,-284 656,-306 656,-306 656,-312 650,-318 644,-318 644,-318 590,-318 590,-318 584,-318 578,-312 578,-306 578,-306 578,-284 578,-284 578,-278 584,-272 590,-272"/>
<text text-anchor="middle" x="617" y="-302.8" font-family="Times,serif" font-size="14.00">Blueprint 0</text>
<polyline fill="none" stroke="black" points="578,-295 656,-295 "/>
<text text-anchor="middle" x="617" y="-279.8" font-family="Times,serif" font-size="14.00">Coolant 8</text>
</g>
<!-- P4&#45;&gt;B0 -->
<g id="edge1" class="edge"><title>P4:a&#45;&gt;B0:a</title>
<path fill="none" stroke="black" d="M535,-323C551.409,-323 556.049,-312.64 567.861,-308.593"/>
<polygon fill="black" stroke="black" points="568.664,-312.009 578,-307 567.578,-305.094 568.664,-312.009"/>
<text text-anchor="middle" x="556.5" y="-320.8" font-family="Times,serif" font-size="14.00">1</text>
</g>
<!-- P5 -->
<g id="node6" class="node"><title>P5</title>
<polygon fill="none" stroke="black" points="0,-331.5 0,-400.5 69,-400.5 69,-331.5 0,-331.5"/>
<text text-anchor="middle" x="34.5" y="-385.3" font-family="Times,serif" font-size="14.00">Product 5</text>
<polyline fill="none" stroke="black" points="0,-377.5 69,-377.5 "/>
<text text-anchor="middle" x="34.5" y="-362.3" font-family="Times,serif" font-size="14.00">Value 5</text>
<polyline fill="none" stroke="black" points="0,-354.5 69,-354.5 "/>
<text text-anchor="middle" x="34.5" y="-339.3" font-family="Times,serif" font-size="14.00">Initial 3</text>
</g>
<!-- P6 -->
<g id="node7" class="node"><title>P6</title>
<polygon fill="none" stroke="black" points="932,-0.5 932,-69.5 1001,-69.5 1001,-0.5 932,-0.5"/>
<text text-anchor="middle" x="966.5" y="-54.3" font-family="Times,serif" font-size="14.00">Product 6</text>
<polyline fill="none" stroke="black" points="932,-46.5 1001,-46.5 "/>
<text text-anchor="middle" x="966.5" y="-31.3" font-family="Times,serif" font-size="14.00">Value 2</text>
<polyline fill="none" stroke="black" points="932,-23.5 1001,-23.5 "/>
<text text-anchor="middle" x="966.5" y="-8.3" font-family="Times,serif" font-size="14.00">Initial 19</text>
</g>
<!-- P6&#45;&gt;B3 -->
<g id="edge12" class="edge"><title>P6:a&#45;&gt;B3:a</title>
<path fill="none" stroke="black" d="M1001,-58C1013.14,-58 1017.94,-59.9236 1026,-69 1041.08,-85.9754 1024.73,-115.297 1034.23,-124.875"/>
<polygon fill="black" stroke="black" points="1033.41,-128.287 1044,-128 1035.54,-121.62 1033.41,-128.287"/>
<text text-anchor="middle" x="1022.5" y="-72.8" font-family="Times,serif" font-size="14.00">2</text>
</g>
<!-- P7 -->
<g id="node8" class="node"><title>P7</title>
<polygon fill="none" stroke="black" points="233,-230.5 233,-299.5 302,-299.5 302,-230.5 233,-230.5"/>
<text text-anchor="middle" x="267.5" y="-284.3" font-family="Times,serif" font-size="14.00">Product 7</text>
<polyline fill="none" stroke="black" points="233,-276.5 302,-276.5 "/>
<text text-anchor="middle" x="267.5" y="-261.3" font-family="Times,serif" font-size="14.00">Value 1</text>
<polyline fill="none" stroke="black" points="233,-253.5 302,-253.5 "/>
<text text-anchor="middle" x="267.5" y="-238.3" font-family="Times,serif" font-size="14.00">Initial 5</text>
</g>
<!-- P7&#45;&gt;B5 -->
<g id="edge19" class="edge"><title>P7:a&#45;&gt;B5:a</title>
<path fill="none" stroke="black" d="M302,-288C318.173,-288 323.147,-297.065 334.945,-300.606"/>
<polygon fill="black" stroke="black" points="334.614,-304.094 345,-302 335.575,-297.16 334.614,-304.094"/>
<text text-anchor="middle" x="323.5" y="-300.8" font-family="Times,serif" font-size="14.00">2</text>
</g>
<!-- P8 -->
<g id="node9" class="node"><title>P8</title>
<polygon fill="none" stroke="black" points="699,-189.5 699,-258.5 768,-258.5 768,-189.5 699,-189.5"/>
<text text-anchor="middle" x="733.5" y="-243.3" font-family="Times,serif" font-size="14.00">Product 8</text>
<polyline fill="none" stroke="black" points="699,-235.5 768,-235.5 "/>
<text text-anchor="middle" x="733.5" y="-220.3" font-family="Times,serif" font-size="14.00">Value 2</text>
<polyline fill="none" stroke="black" points="699,-212.5 768,-212.5 "/>
<text text-anchor="middle" x="733.5" y="-197.3" font-family="Times,serif" font-size="14.00">Initial 8</text>
</g>
<!-- P8&#45;&gt;B2 -->
<g id="edge8" class="edge"><title>P8:a&#45;&gt;B2:a</title>
<path fill="none" stroke="black" d="M768,-247C785.861,-247 789.124,-186.487 802.423,-167.577"/>
<polygon fill="black" stroke="black" points="804.524,-170.385 811,-162 800.708,-164.517 804.524,-170.385"/>
<text text-anchor="middle" x="789.5" y="-221.8" font-family="Times,serif" font-size="14.00">1</text>
</g>
<!-- B4 -->
<g id="node15" class="node"><title>B4</title>
<path fill="none" stroke="black" d="M823,-212C823,-212 877,-212 877,-212 883,-212 889,-218 889,-224 889,-224 889,-246 889,-246 889,-252 883,-258 877,-258 877,-258 823,-258 823,-258 817,-258 811,-252 811,-246 811,-246 811,-224 811,-224 811,-218 817,-212 823,-212"/>
<text text-anchor="middle" x="850" y="-242.8" font-family="Times,serif" font-size="14.00">Blueprint 4</text>
<polyline fill="none" stroke="black" points="811,-235 889,-235 "/>
<text text-anchor="middle" x="850" y="-219.8" font-family="Times,serif" font-size="14.00">Coolant 7</text>
</g>
<!-- P8&#45;&gt;B4 -->
<g id="edge14" class="edge"><title>P8:a&#45;&gt;B4:a</title>
<path fill="none" stroke="black" d="M768,-247C783.229,-247 789.357,-247 800.888,-247"/>
<polygon fill="black" stroke="black" points="801,-250.5 811,-247 801,-243.5 801,-250.5"/>
<text text-anchor="middle" x="789.5" y="-250.8" font-family="Times,serif" font-size="14.00">1</text>
</g>
<!-- P8&#45;&gt;B5 -->
<g id="edge20" class="edge"><title>P8:a&#45;&gt;B5:a</title>
<path fill="none" stroke="black" d="M699,-247C595.367,-247 560.248,-212.907 466,-256 444.326,-265.91 448.678,-292.299 433.166,-299.915"/>
<polygon fill="black" stroke="black" points="432.093,-296.562 423,-302 433.499,-303.42 432.093,-296.562"/>
<text text-anchor="middle" x="556.5" y="-237.8" font-family="Times,serif" font-size="14.00">4</text>
</g>
<!-- P9 -->
<g id="node10" class="node"><title>P9</title>
<polygon fill="none" stroke="black" points="0,-155.5 0,-224.5 69,-224.5 69,-155.5 0,-155.5"/>
<text text-anchor="middle" x="34.5" y="-209.3" font-family="Times,serif" font-size="14.00">Product 9</text>
<polyline fill="none" stroke="black" points="0,-201.5 69,-201.5 "/>
<text text-anchor="middle" x="34.5" y="-186.3" font-family="Times,serif" font-size="14.00">Value 2</text>
<polyline fill="none" stroke="black" points="0,-178.5 69,-178.5 "/>
<text text-anchor="middle" x="34.5" y="-163.3" font-family="Times,serif" font-size="14.00">Initial 19</text>
</g>
<!-- P9&#45;&gt;B1 -->
<g id="edge4" class="edge"><title>P9:a&#45;&gt;B1:a</title>
<path fill="none" stroke="black" d="M69,-213C88.7279,-213 88.9333,-234.945 101.95,-242.489"/>
<polygon fill="black" stroke="black" points="101.45,-245.971 112,-245 103.147,-239.18 101.45,-245.971"/>
<text text-anchor="middle" x="90.5" y="-236.8" font-family="Times,serif" font-size="14.00">1</text>
</g>
<!-- B0&#45;&gt;P8 -->
<g id="edge2" class="edge"><title>B0:a&#45;&gt;P8:a</title>
<path fill="none" stroke="black" d="M656,-307C684.707,-307 670.98,-261.062 689.079,-249.578"/>
<polygon fill="black" stroke="black" points="690.202,-252.903 699,-247 688.441,-246.128 690.202,-252.903"/>
<text text-anchor="middle" x="677.5" y="-295.8" font-family="Times,serif" font-size="14.00">1</text>
</g>
<!-- B1&#45;&gt;P7 -->
<g id="edge5" class="edge"><title>B1:a&#45;&gt;P7:a</title>
<path fill="none" stroke="black" d="M190,-245C213.015,-245 208.416,-276.182 223.233,-285.439"/>
<polygon fill="black" stroke="black" points="222.439,-288.849 233,-288 224.215,-282.078 222.439,-288.849"/>
<text text-anchor="middle" x="211.5" y="-277.8" font-family="Times,serif" font-size="14.00">1</text>
</g>
<!-- B1&#45;&gt;P8 -->
<g id="edge6" class="edge"><title>B1:a&#45;&gt;P8:a</title>
<path fill="none" stroke="black" d="M190,-245C229.673,-245 226.827,-199 266.5,-199 266.5,-199 266.5,-199 618,-199 635.981,-199 667.425,-234.449 689.193,-244.419"/>
<polygon fill="black" stroke="black" points="688.439,-247.84 699,-247 690.22,-241.07 688.439,-247.84"/>
<text text-anchor="middle" x="444.5" y="-202.8" font-family="Times,serif" font-size="14.00">1</text>
</g>
<!-- B2&#45;&gt;P0 -->
<g id="edge9" class="edge"><title>B2:a&#45;&gt;P0:a</title>
<path fill="none" stroke="black" d="M811,-162C776.997,-162 768.503,-161 734.5,-161 150,-161 150,-161 150,-161 111.333,-161 106.063,-187.359 87,-221 71.138,-248.992 97.6572,-289.909 79.0157,-299.115"/>
<polygon fill="black" stroke="black" points="78.18,-295.711 69,-301 79.4749,-302.59 78.18,-295.711"/>
<text text-anchor="middle" x="444.5" y="-164.8" font-family="Times,serif" font-size="14.00">1</text>
</g>
<!-- B3&#45;&gt;P2 -->
<g id="edge13" class="edge"><title>B3:a&#45;&gt;P2:a</title>
<path fill="none" stroke="black" d="M1122,-128C1146.6,-128 1139.54,-219.109 1156.23,-241.887"/>
<polygon fill="black" stroke="black" points="1154.6,-244.985 1165,-247 1158.13,-238.939 1154.6,-244.985"/>
<text text-anchor="middle" x="1143.5" y="-215.8" font-family="Times,serif" font-size="14.00">1</text>
</g>
<!-- B4&#45;&gt;P0 -->
<g id="edge15" class="edge"><title>B4:a&#45;&gt;P0:a</title>
<path fill="none" stroke="black" d="M811,-247C805.357,-247 684.143,-401 678.5,-401 150,-401 150,-401 150,-401 96.4911,-401 122.267,-313.475 78.9788,-302.193"/>
<polygon fill="black" stroke="black" points="79.3447,-298.712 69,-301 78.5139,-305.662 79.3447,-298.712"/>
<text text-anchor="middle" x="444.5" y="-404.8" font-family="Times,serif" font-size="14.00">1</text>
</g>
<!-- B4&#45;&gt;P2 -->
<g id="edge16" class="edge"><title>B4:a&#45;&gt;P2:a</title>
<path fill="none" stroke="black" d="M889,-247C1008.19,-247 1040.52,-247 1154.8,-247"/>
<polygon fill="black" stroke="black" points="1155,-250.5 1165,-247 1155,-243.5 1155,-250.5"/>
<text text-anchor="middle" x="1022.5" y="-250.8" font-family="Times,serif" font-size="14.00">1</text>
</g>
<!-- B4&#45;&gt;P3 -->
<g id="edge17" class="edge"><title>B4:a&#45;&gt;P3:a</title>
<path fill="none" stroke="black" d="M889,-247C904.17,-247 897.2,-229.58 907,-218 913.723,-210.056 916.034,-202.407 921.959,-198.565"/>
<polygon fill="black" stroke="black" points="923.177,-201.866 932,-196 921.445,-195.084 923.177,-201.866"/>
<text text-anchor="middle" x="910.5" y="-221.8" font-family="Times,serif" font-size="14.00">2</text>
</g>
<!-- B5&#45;&gt;P4 -->
<g id="edge21" class="edge"><title>B5:a&#45;&gt;P4:a</title>
<path fill="none" stroke="black" d="M423,-302C440.281,-302 443.826,-315.863 455.957,-321.062"/>
<polygon fill="black" stroke="black" points="455.518,-324.542 466,-323 456.844,-317.669 455.518,-324.542"/>
<text text-anchor="middle" x="444.5" y="-318.8" font-family="Times,serif" font-size="14.00">1</text>
</g>
</g>
</svg>
