<?xml version="1.0" encoding="UTF-8" standalone="no"?>
<!DOCTYPE svg PUBLIC "-//W3C//DTD SVG 1.1//EN"
 "http://www.w3.org/Graphics/SVG/1.1/DTD/svg11.dtd">
<!-- Generated by graphviz version 2.38.0 (20140413.2041)
 -->
<!-- Title: g Pages: 1 -->
<svg width="3353pt" height="1279pt"
 viewBox="0.00 0.00 3353.00 1278.50" xmlns="http://www.w3.org/2000/svg" xmlns:xlink="http://www.w3.org/1999/xlink">
<g id="graph0" class="graph" transform="scale(1 1) rotate(0) translate(4 1274.5)">
<title>g</title>
<polygon fill="white" stroke="none" points="-4,4 -4,-1274.5 3349,-1274.5 3349,4 -4,4"/>
<!-- P0 -->
<g id="node1" class="node"><title>P0</title>
<polygon fill="none" stroke="black" points="240,-573.5 240,-642.5 309,-642.5 309,-573.5 240,-573.5"/>
<text text-anchor="middle" x="274.5" y="-627.3" font-family="Times,serif" font-size="14.00">Product 0</text>
<polyline fill="none" stroke="black" points="240,-619.5 309,-619.5 "/>
<text text-anchor="middle" x="274.5" y="-604.3" font-family="Times,serif" font-size="14.00">Value 7</text>
<polyline fill="none" stroke="black" points="240,-596.5 309,-596.5 "/>
<text text-anchor="middle" x="274.5" y="-581.3" font-family="Times,serif" font-size="14.00">Initial 13</text>
</g>
<!-- B14 -->
<g id="node33" class="node"><title>B14</title>
<path fill="none" stroke="black" d="M364,-555C364,-555 425,-555 425,-555 431,-555 437,-561 437,-567 437,-567 437,-589 437,-589 437,-595 431,-601 425,-601 425,-601 364,-601 364,-601 358,-601 352,-595 352,-589 352,-589 352,-567 352,-567 352,-561 358,-555 364,-555"/>
<text text-anchor="middle" x="394.5" y="-585.8" font-family="Times,serif" font-size="14.00">Blueprint 14</text>
<polyline fill="none" stroke="black" points="352,-578 437,-578 "/>
<text text-anchor="middle" x="394.5" y="-562.8" font-family="Times,serif" font-size="14.00">Coolant 1</text>
</g>
<!-- P0&#45;&gt;B14 -->
<g id="edge53" class="edge"><title>P0:a&#45;&gt;B14:a</title>
<path fill="none" stroke="black" d="M309,-631C331.28,-631 327.776,-601.812 341.999,-592.69"/>
<polygon fill="black" stroke="black" points="343.252,-595.977 352,-590 341.434,-589.218 343.252,-595.977"/>
<text text-anchor="middle" x="330.5" y="-620.8" font-family="Times,serif" font-size="14.00">1</text>
</g>
<!-- P1 -->
<g id="node2" class="node"><title>P1</title>
<polygon fill="none" stroke="black" points="0,-630.5 0,-699.5 69,-699.5 69,-630.5 0,-630.5"/>
<text text-anchor="middle" x="34.5" y="-684.3" font-family="Times,serif" font-size="14.00">Product 1</text>
<polyline fill="none" stroke="black" points="0,-676.5 69,-676.5 "/>
<text text-anchor="middle" x="34.5" y="-661.3" font-family="Times,serif" font-size="14.00">Value 7</text>
<polyline fill="none" stroke="black" points="0,-653.5 69,-653.5 "/>
<text text-anchor="middle" x="34.5" y="-638.3" font-family="Times,serif" font-size="14.00">Initial 9</text>
</g>
<!-- B2 -->
<g id="node21" class="node"><title>B2</title>
<path fill="none" stroke="black" d="M127.5,-588C127.5,-588 181.5,-588 181.5,-588 187.5,-588 193.5,-594 193.5,-600 193.5,-600 193.5,-622 193.5,-622 193.5,-628 187.5,-634 181.5,-634 181.5,-634 127.5,-634 127.5,-634 121.5,-634 115.5,-628 115.5,-622 115.5,-622 115.5,-600 115.5,-600 115.5,-594 121.5,-588 127.5,-588"/>
<text text-anchor="middle" x="154.5" y="-618.8" font-family="Times,serif" font-size="14.00">Blueprint 2</text>
<polyline fill="none" stroke="black" points="115.5,-611 193.5,-611 "/>
<text text-anchor="middle" x="154.5" y="-595.8" font-family="Times,serif" font-size="14.00">Coolant 2</text>
</g>
<!-- P1&#45;&gt;B2 -->
<g id="edge8" class="edge"><title>P1:a&#45;&gt;B2:a</title>
<path fill="none" stroke="black" d="M69,-688C83.4635,-688 92.9508,-644.261 105.626,-628.542"/>
<polygon fill="black" stroke="black" points="107.872,-631.266 114.5,-623 104.164,-625.328 107.872,-631.266"/>
<text text-anchor="middle" x="90.5" y="-668.8" font-family="Times,serif" font-size="14.00">1</text>
</g>
<!-- B4 -->
<g id="node23" class="node"><title>B4</title>
<path fill="none" stroke="black" d="M127.5,-653C127.5,-653 181.5,-653 181.5,-653 187.5,-653 193.5,-659 193.5,-665 193.5,-665 193.5,-687 193.5,-687 193.5,-693 187.5,-699 181.5,-699 181.5,-699 127.5,-699 127.5,-699 121.5,-699 115.5,-693 115.5,-687 115.5,-687 115.5,-665 115.5,-665 115.5,-659 121.5,-653 127.5,-653"/>
<text text-anchor="middle" x="154.5" y="-683.8" font-family="Times,serif" font-size="14.00">Blueprint 4</text>
<polyline fill="none" stroke="black" points="115.5,-676 193.5,-676 "/>
<text text-anchor="middle" x="154.5" y="-660.8" font-family="Times,serif" font-size="14.00">Coolant 8</text>
</g>
<!-- P1&#45;&gt;B4 -->
<g id="edge13" class="edge"><title>P1:a&#45;&gt;B4:a</title>
<path fill="none" stroke="black" d="M69,-688C85.2726,-688 91.7244,-688 104.161,-688"/>
<polygon fill="black" stroke="black" points="104.5,-691.5 114.5,-688 104.5,-684.5 104.5,-691.5"/>
<text text-anchor="middle" x="90.5" y="-691.8" font-family="Times,serif" font-size="14.00">1</text>
</g>
<!-- B8 -->
<g id="node27" class="node"><title>B8</title>
<path fill="none" stroke="black" d="M611,-473C611,-473 665,-473 665,-473 671,-473 677,-479 677,-485 677,-485 677,-507 677,-507 677,-513 671,-519 665,-519 665,-519 611,-519 611,-519 605,-519 599,-513 599,-507 599,-507 599,-485 599,-485 599,-479 605,-473 611,-473"/>
<text text-anchor="middle" x="638" y="-503.8" font-family="Times,serif" font-size="14.00">Blueprint 8</text>
<polyline fill="none" stroke="black" points="599,-496 677,-496 "/>
<text text-anchor="middle" x="638" y="-480.8" font-family="Times,serif" font-size="14.00">Coolant 8</text>
</g>
<!-- P1&#45;&gt;B8 -->
<g id="edge30" class="edge"><title>P1:a&#45;&gt;B8:a</title>
<path fill="none" stroke="black" d="M69,-688C80.6322,-688 77.1393,-700.83 87,-707 113.274,-723.441 122.506,-728 153.5,-728 153.5,-728 153.5,-728 331.5,-728 382.39,-728 579.173,-557.454 581,-555 591.435,-540.982 582.899,-520.181 589.331,-511.751"/>
<polygon fill="black" stroke="black" points="590.943,-514.88 599,-508 588.411,-508.354 590.943,-514.88"/>
<text text-anchor="middle" x="330.5" y="-731.8" font-family="Times,serif" font-size="14.00">1</text>
</g>
<!-- B10 -->
<g id="node29" class="node"><title>B10</title>
<path fill="none" stroke="black" d="M3272,-661C3272,-661 3333,-661 3333,-661 3339,-661 3345,-667 3345,-673 3345,-673 3345,-695 3345,-695 3345,-701 3339,-707 3333,-707 3333,-707 3272,-707 3272,-707 3266,-707 3260,-701 3260,-695 3260,-695 3260,-673 3260,-673 3260,-667 3266,-661 3272,-661"/>
<text text-anchor="middle" x="3302.5" y="-691.8" font-family="Times,serif" font-size="14.00">Blueprint 10</text>
<polyline fill="none" stroke="black" points="3260,-684 3345,-684 "/>
<text text-anchor="middle" x="3302.5" y="-668.8" font-family="Times,serif" font-size="14.00">Coolant 5</text>
</g>
<!-- P1&#45;&gt;B10 -->
<g id="edge40" class="edge"><title>P1:a&#45;&gt;B10:a</title>
<path fill="none" stroke="black" d="M34.5,-701C34.5,-760.813 93.6869,-1226 153.5,-1226 153.5,-1226 153.5,-1226 3180,-1226 3211.13,-1226 3293.54,-800.203 3301.83,-718.107"/>
<polygon fill="black" stroke="black" points="3305.33,-718.211 3302.5,-708 3298.34,-717.745 3305.33,-718.211"/>
<text text-anchor="middle" x="1672.5" y="-1229.8" font-family="Times,serif" font-size="14.00">1</text>
</g>
<!-- B22 -->
<g id="node41" class="node"><title>B22</title>
<path fill="none" stroke="black" d="M124,-523C124,-523 185,-523 185,-523 191,-523 197,-529 197,-535 197,-535 197,-557 197,-557 197,-563 191,-569 185,-569 185,-569 124,-569 124,-569 118,-569 112,-563 112,-557 112,-557 112,-535 112,-535 112,-529 118,-523 124,-523"/>
<text text-anchor="middle" x="154.5" y="-553.8" font-family="Times,serif" font-size="14.00">Blueprint 22</text>
<polyline fill="none" stroke="black" points="112,-546 197,-546 "/>
<text text-anchor="middle" x="154.5" y="-530.8" font-family="Times,serif" font-size="14.00">Coolant 7</text>
</g>
<!-- P1&#45;&gt;B22 -->
<g id="edge77" class="edge"><title>P1:a&#45;&gt;B22:a</title>
<path fill="none" stroke="black" d="M69,-688C95.143,-688 78.816,-656.829 87,-632 96.5939,-602.893 81.6771,-567.506 101.934,-559.611"/>
<polygon fill="black" stroke="black" points="102.679,-563.037 112,-558 101.572,-556.125 102.679,-563.037"/>
<text text-anchor="middle" x="90.5" y="-635.8" font-family="Times,serif" font-size="14.00">1</text>
</g>
<!-- P2 -->
<g id="node3" class="node"><title>P2</title>
<polygon fill="none" stroke="black" points="720,-283.5 720,-352.5 789,-352.5 789,-283.5 720,-283.5"/>
<text text-anchor="middle" x="754.5" y="-337.3" font-family="Times,serif" font-size="14.00">Product 2</text>
<polyline fill="none" stroke="black" points="720,-329.5 789,-329.5 "/>
<text text-anchor="middle" x="754.5" y="-314.3" font-family="Times,serif" font-size="14.00">Value 8</text>
<polyline fill="none" stroke="black" points="720,-306.5 789,-306.5 "/>
<text text-anchor="middle" x="754.5" y="-291.3" font-family="Times,serif" font-size="14.00">Initial 19</text>
</g>
<!-- B1 -->
<g id="node20" class="node"><title>B1</title>
<path fill="none" stroke="black" d="M1818,-325C1818,-325 1872,-325 1872,-325 1878,-325 1884,-331 1884,-337 1884,-337 1884,-359 1884,-359 1884,-365 1878,-371 1872,-371 1872,-371 1818,-371 1818,-371 1812,-371 1806,-365 1806,-359 1806,-359 1806,-337 1806,-337 1806,-331 1812,-325 1818,-325"/>
<text text-anchor="middle" x="1845" y="-355.8" font-family="Times,serif" font-size="14.00">Blueprint 1</text>
<polyline fill="none" stroke="black" points="1806,-348 1884,-348 "/>
<text text-anchor="middle" x="1845" y="-332.8" font-family="Times,serif" font-size="14.00">Coolant 2</text>
</g>
<!-- P2&#45;&gt;B1 -->
<g id="edge6" class="edge"><title>P2:a&#45;&gt;B1:a</title>
<path fill="none" stroke="black" d="M789,-341C793.423,-341 829.131,-277.366 832,-274 846.699,-256.751 847.338,-240 870,-240 870,-240 870,-240 1426.5,-240 1527.93,-240 1554.91,-248.517 1651,-281 1720.81,-304.602 1728.11,-354.98 1795.59,-359.651"/>
<polygon fill="black" stroke="black" points="1795.89,-363.163 1806,-360 1796.12,-356.167 1795.89,-363.163"/>
<text text-anchor="middle" x="1297.5" y="-243.8" font-family="Times,serif" font-size="14.00">1</text>
</g>
<!-- B6 -->
<g id="node25" class="node"><title>B6</title>
<path fill="none" stroke="black" d="M844,-495C844,-495 898,-495 898,-495 904,-495 910,-501 910,-507 910,-507 910,-529 910,-529 910,-535 904,-541 898,-541 898,-541 844,-541 844,-541 838,-541 832,-535 832,-529 832,-529 832,-507 832,-507 832,-501 838,-495 844,-495"/>
<text text-anchor="middle" x="871" y="-525.8" font-family="Times,serif" font-size="14.00">Blueprint 6</text>
<polyline fill="none" stroke="black" points="832,-518 910,-518 "/>
<text text-anchor="middle" x="871" y="-502.8" font-family="Times,serif" font-size="14.00">Coolant 10</text>
</g>
<!-- P2&#45;&gt;B6 -->
<g id="edge22" class="edge"><title>P2:a&#45;&gt;B6:a</title>
<path fill="none" stroke="black" d="M789,-341C811.045,-341 809.125,-415.501 814,-437 817.855,-454.001 813.233,-506.623 823.486,-524.209"/>
<polygon fill="black" stroke="black" points="821.763,-527.27 832,-530 825.7,-521.482 821.763,-527.27"/>
<text text-anchor="middle" x="810.5" y="-440.8" font-family="Times,serif" font-size="14.00">1</text>
</g>
<!-- B7 -->
<g id="node26" class="node"><title>B7</title>
<path fill="none" stroke="black" d="M1581.5,-290C1581.5,-290 1635.5,-290 1635.5,-290 1641.5,-290 1647.5,-296 1647.5,-302 1647.5,-302 1647.5,-324 1647.5,-324 1647.5,-330 1641.5,-336 1635.5,-336 1635.5,-336 1581.5,-336 1581.5,-336 1575.5,-336 1569.5,-330 1569.5,-324 1569.5,-324 1569.5,-302 1569.5,-302 1569.5,-296 1575.5,-290 1581.5,-290"/>
<text text-anchor="middle" x="1608.5" y="-320.8" font-family="Times,serif" font-size="14.00">Blueprint 7</text>
<polyline fill="none" stroke="black" points="1569.5,-313 1647.5,-313 "/>
<text text-anchor="middle" x="1608.5" y="-297.8" font-family="Times,serif" font-size="14.00">Coolant 3</text>
</g>
<!-- P2&#45;&gt;B7 -->
<g id="edge26" class="edge"><title>P2:a&#45;&gt;B7:a</title>
<path fill="none" stroke="black" d="M789,-341C789.089,-341 869.911,-278 870,-278 870,-278 870,-278 1486,-278 1514.82,-278 1524.51,-280.299 1548,-297 1556.64,-303.145 1555.8,-314.075 1559.44,-320.306"/>
<polygon fill="black" stroke="black" points="1558.01,-323.506 1568.5,-325 1561.23,-317.291 1558.01,-323.506"/>
<text text-anchor="middle" x="1178.5" y="-281.8" font-family="Times,serif" font-size="14.00">2</text>
</g>
<!-- B12 -->
<g id="node31" class="node"><title>B12</title>
<path fill="none" stroke="black" d="M1578,-157C1578,-157 1639,-157 1639,-157 1645,-157 1651,-163 1651,-169 1651,-169 1651,-191 1651,-191 1651,-197 1645,-203 1639,-203 1639,-203 1578,-203 1578,-203 1572,-203 1566,-197 1566,-191 1566,-191 1566,-169 1566,-169 1566,-163 1572,-157 1578,-157"/>
<text text-anchor="middle" x="1608.5" y="-187.8" font-family="Times,serif" font-size="14.00">Blueprint 12</text>
<polyline fill="none" stroke="black" points="1566,-180 1651,-180 "/>
<text text-anchor="middle" x="1608.5" y="-164.8" font-family="Times,serif" font-size="14.00">Coolant 3</text>
</g>
<!-- P2&#45;&gt;B12 -->
<g id="edge46" class="edge"><title>P2:a&#45;&gt;B12:a</title>
<path fill="none" stroke="black" d="M789,-341C814.867,-341 794.087,-248.413 807,-226 842.259,-164.804 859.874,-126 930.5,-126 930.5,-126 930.5,-126 1179.5,-126 1332.2,-126 1389.95,-58.0637 1523,-133 1547.74,-146.933 1537.26,-181.655 1556,-190.118"/>
<polygon fill="black" stroke="black" points="1555.53,-193.591 1566,-192 1556.82,-186.711 1555.53,-193.591"/>
<text text-anchor="middle" x="1178.5" y="-129.8" font-family="Times,serif" font-size="14.00">1</text>
</g>
<!-- P3 -->
<g id="node4" class="node"><title>P3</title>
<polygon fill="none" stroke="black" points="2901,-88.5 2901,-157.5 2970,-157.5 2970,-88.5 2901,-88.5"/>
<text text-anchor="middle" x="2935.5" y="-142.3" font-family="Times,serif" font-size="14.00">Product 3</text>
<polyline fill="none" stroke="black" points="2901,-134.5 2970,-134.5 "/>
<text text-anchor="middle" x="2935.5" y="-119.3" font-family="Times,serif" font-size="14.00">Value 1</text>
<polyline fill="none" stroke="black" points="2901,-111.5 2970,-111.5 "/>
<text text-anchor="middle" x="2935.5" y="-96.3" font-family="Times,serif" font-size="14.00">Initial 1</text>
</g>
<!-- B16 -->
<g id="node35" class="node"><title>B16</title>
<path fill="none" stroke="black" d="M3025,-21C3025,-21 3086,-21 3086,-21 3092,-21 3098,-27 3098,-33 3098,-33 3098,-55 3098,-55 3098,-61 3092,-67 3086,-67 3086,-67 3025,-67 3025,-67 3019,-67 3013,-61 3013,-55 3013,-55 3013,-33 3013,-33 3013,-27 3019,-21 3025,-21"/>
<text text-anchor="middle" x="3055.5" y="-51.8" font-family="Times,serif" font-size="14.00">Blueprint 16</text>
<polyline fill="none" stroke="black" points="3013,-44 3098,-44 "/>
<text text-anchor="middle" x="3055.5" y="-28.8" font-family="Times,serif" font-size="14.00">Coolant 8</text>
</g>
<!-- P3&#45;&gt;B16 -->
<g id="edge59" class="edge"><title>P3:a&#45;&gt;B16:a</title>
<path fill="none" stroke="black" d="M2970,-146C3010.35,-146 2976.15,-71.4454 3003.1,-58.0489"/>
<polygon fill="black" stroke="black" points="3003.92,-61.4541 3013,-56 3002.5,-54.5994 3003.92,-61.4541"/>
<text text-anchor="middle" x="2991.5" y="-138.8" font-family="Times,serif" font-size="14.00">1</text>
</g>
<!-- B20 -->
<g id="node39" class="node"><title>B20</title>
<path fill="none" stroke="black" d="M3025,-365C3025,-365 3086,-365 3086,-365 3092,-365 3098,-371 3098,-377 3098,-377 3098,-399 3098,-399 3098,-405 3092,-411 3086,-411 3086,-411 3025,-411 3025,-411 3019,-411 3013,-405 3013,-399 3013,-399 3013,-377 3013,-377 3013,-371 3019,-365 3025,-365"/>
<text text-anchor="middle" x="3055.5" y="-395.8" font-family="Times,serif" font-size="14.00">Blueprint 20</text>
<polyline fill="none" stroke="black" points="3013,-388 3098,-388 "/>
<text text-anchor="middle" x="3055.5" y="-372.8" font-family="Times,serif" font-size="14.00">Coolant 5</text>
</g>
<!-- P3&#45;&gt;B20 -->
<g id="edge70" class="edge"><title>P3:a&#45;&gt;B20:a</title>
<path fill="none" stroke="black" d="M2970,-146C2997.66,-146 2988.1,-176.212 2995,-203 2999.8,-221.624 2993.15,-358.484 3006.14,-392.408"/>
<polygon fill="black" stroke="black" points="3003.7,-394.926 3013,-400 3008.89,-390.234 3003.7,-394.926"/>
<text text-anchor="middle" x="2991.5" y="-206.8" font-family="Times,serif" font-size="14.00">1</text>
</g>
<!-- B25 -->
<g id="node44" class="node"><title>B25</title>
<path fill="none" stroke="black" d="M3025,-885C3025,-885 3086,-885 3086,-885 3092,-885 3098,-891 3098,-897 3098,-897 3098,-919 3098,-919 3098,-925 3092,-931 3086,-931 3086,-931 3025,-931 3025,-931 3019,-931 3013,-925 3013,-919 3013,-919 3013,-897 3013,-897 3013,-891 3019,-885 3025,-885"/>
<text text-anchor="middle" x="3055.5" y="-915.8" font-family="Times,serif" font-size="14.00">Blueprint 25</text>
<polyline fill="none" stroke="black" points="3013,-908 3098,-908 "/>
<text text-anchor="middle" x="3055.5" y="-892.8" font-family="Times,serif" font-size="14.00">Coolant 9</text>
</g>
<!-- P3&#45;&gt;B25 -->
<g id="edge86" class="edge"><title>P3:a&#45;&gt;B25:a</title>
<path fill="none" stroke="black" d="M2935.5,-159C2935.5,-199.006 2966.52,-838.121 3005.61,-912.88"/>
<polygon fill="black" stroke="black" points="3003.37,-915.581 3013,-920 3008.23,-910.54 3003.37,-915.581"/>
<text text-anchor="middle" x="2991.5" y="-873.8" font-family="Times,serif" font-size="14.00">1</text>
</g>
<!-- P4 -->
<g id="node5" class="node"><title>P4</title>
<polygon fill="none" stroke="black" points="2167,-174.5 2167,-243.5 2236,-243.5 2236,-174.5 2167,-174.5"/>
<text text-anchor="middle" x="2201.5" y="-228.3" font-family="Times,serif" font-size="14.00">Product 4</text>
<polyline fill="none" stroke="black" points="2167,-220.5 2236,-220.5 "/>
<text text-anchor="middle" x="2201.5" y="-205.3" font-family="Times,serif" font-size="14.00">Value 5</text>
<polyline fill="none" stroke="black" points="2167,-197.5 2236,-197.5 "/>
<text text-anchor="middle" x="2201.5" y="-182.3" font-family="Times,serif" font-size="14.00">Initial 15</text>
</g>
<!-- B0 -->
<g id="node19" class="node"><title>B0</title>
<path fill="none" stroke="black" d="M2058,-221C2058,-221 2112,-221 2112,-221 2118,-221 2124,-227 2124,-233 2124,-233 2124,-255 2124,-255 2124,-261 2118,-267 2112,-267 2112,-267 2058,-267 2058,-267 2052,-267 2046,-261 2046,-255 2046,-255 2046,-233 2046,-233 2046,-227 2052,-221 2058,-221"/>
<text text-anchor="middle" x="2085" y="-251.8" font-family="Times,serif" font-size="14.00">Blueprint 0</text>
<polyline fill="none" stroke="black" points="2046,-244 2124,-244 "/>
<text text-anchor="middle" x="2085" y="-228.8" font-family="Times,serif" font-size="14.00">Coolant 5</text>
</g>
<!-- P4&#45;&gt;B0 -->
<g id="edge1" class="edge"><title>P4:a&#45;&gt;B0:a</title>
<path fill="none" stroke="black" d="M2167,-232C2157.62,-232 2157.16,-238.39 2149,-243 2141.84,-247.041 2138.71,-251.377 2133.86,-253.88"/>
<polygon fill="black" stroke="black" points="2133.04,-250.476 2124,-256 2134.51,-257.319 2133.04,-250.476"/>
<text text-anchor="middle" x="2145.5" y="-251.8" font-family="Times,serif" font-size="14.00">1</text>
</g>
<!-- B11 -->
<g id="node30" class="node"><title>B11</title>
<path fill="none" stroke="black" d="M2291,-261C2291,-261 2352,-261 2352,-261 2358,-261 2364,-267 2364,-273 2364,-273 2364,-295 2364,-295 2364,-301 2358,-307 2352,-307 2352,-307 2291,-307 2291,-307 2285,-307 2279,-301 2279,-295 2279,-295 2279,-273 2279,-273 2279,-267 2285,-261 2291,-261"/>
<text text-anchor="middle" x="2321.5" y="-291.8" font-family="Times,serif" font-size="14.00">Blueprint 11</text>
<polyline fill="none" stroke="black" points="2279,-284 2364,-284 "/>
<text text-anchor="middle" x="2321.5" y="-268.8" font-family="Times,serif" font-size="14.00">Coolant 4</text>
</g>
<!-- P4&#45;&gt;B11 -->
<g id="edge44" class="edge"><title>P4:a&#45;&gt;B11:a</title>
<path fill="none" stroke="black" d="M2236,-232C2255.12,-232 2250.4,-251.093 2261,-267 2266.78,-275.678 2265.95,-286.131 2269.8,-291.816"/>
<polygon fill="black" stroke="black" points="2268.45,-295.048 2279,-296 2271.35,-288.675 2268.45,-295.048"/>
<text text-anchor="middle" x="2257.5" y="-270.8" font-family="Times,serif" font-size="14.00">1</text>
</g>
<!-- P4&#45;&gt;B14 -->
<g id="edge54" class="edge"><title>P4:a&#45;&gt;B14:a</title>
<path fill="none" stroke="black" d="M2167,-232C2159.33,-232 2130.34,-182.321 2124,-178 2012.87,-102.23 1680,-0 1545.5,-0 1296.5,-0 1296.5,-0 1296.5,-0 1243.66,-0 1233.73,-21.2544 1182,-32 1124.67,-43.9069 1110.05,-50 1051.5,-50 576.5,-50 576.5,-50 576.5,-50 547.633,-50 478.367,-518.695 443.977,-582.775"/>
<polygon fill="black" stroke="black" points="441.429,-580.375 437,-590 446.464,-585.238 441.429,-580.375"/>
<text text-anchor="middle" x="1297.5" y="-4.8" font-family="Times,serif" font-size="14.00">1</text>
</g>
<!-- P4&#45;&gt;B20 -->
<g id="edge71" class="edge"><title>P4:a&#45;&gt;B20:a</title>
<path fill="none" stroke="black" d="M2236,-232C2273.56,-232 2282.94,-232 2320.5,-232 2320.5,-232 2320.5,-232 2936.5,-232 2974,-232 2972.59,-372.366 3003.4,-396.491"/>
<polygon fill="black" stroke="black" points="3002.41,-399.855 3013,-400 3004.81,-393.281 3002.41,-399.855"/>
<text text-anchor="middle" x="2632.5" y="-235.8" font-family="Times,serif" font-size="14.00">1</text>
</g>
<!-- B29 -->
<g id="node48" class="node"><title>B29</title>
<path fill="none" stroke="black" d="M2291,-679C2291,-679 2352,-679 2352,-679 2358,-679 2364,-685 2364,-691 2364,-691 2364,-713 2364,-713 2364,-719 2358,-725 2352,-725 2352,-725 2291,-725 2291,-725 2285,-725 2279,-719 2279,-713 2279,-713 2279,-691 2279,-691 2279,-685 2285,-679 2291,-679"/>
<text text-anchor="middle" x="2321.5" y="-709.8" font-family="Times,serif" font-size="14.00">Blueprint 29</text>
<polyline fill="none" stroke="black" points="2279,-702 2364,-702 "/>
<text text-anchor="middle" x="2321.5" y="-686.8" font-family="Times,serif" font-size="14.00">Coolant 5</text>
</g>
<!-- P4&#45;&gt;B29 -->
<g id="edge101" class="edge"><title>P4:a&#45;&gt;B29:a</title>
<path fill="none" stroke="black" d="M2201.5,-245C2201.5,-407.132 2224.03,-446.663 2254,-606 2254.93,-610.941 2266.9,-679.798 2274.61,-704.915"/>
<polygon fill="black" stroke="black" points="2271.5,-706.516 2279,-714 2277.8,-703.473 2271.5,-706.516"/>
<text text-anchor="middle" x="2257.5" y="-646.8" font-family="Times,serif" font-size="14.00">1</text>
</g>
<!-- P5 -->
<g id="node6" class="node"><title>P5</title>
<polygon fill="none" stroke="black" points="1450.5,-142.5 1450.5,-211.5 1519.5,-211.5 1519.5,-142.5 1450.5,-142.5"/>
<text text-anchor="middle" x="1485" y="-196.3" font-family="Times,serif" font-size="14.00">Product 5</text>
<polyline fill="none" stroke="black" points="1450.5,-188.5 1519.5,-188.5 "/>
<text text-anchor="middle" x="1485" y="-173.3" font-family="Times,serif" font-size="14.00">Value 4</text>
<polyline fill="none" stroke="black" points="1450.5,-165.5 1519.5,-165.5 "/>
<text text-anchor="middle" x="1485" y="-150.3" font-family="Times,serif" font-size="14.00">Initial 2</text>
</g>
<!-- B5 -->
<g id="node24" class="node"><title>B5</title>
<path fill="none" stroke="black" d="M1581.5,-481C1581.5,-481 1635.5,-481 1635.5,-481 1641.5,-481 1647.5,-487 1647.5,-493 1647.5,-493 1647.5,-515 1647.5,-515 1647.5,-521 1641.5,-527 1635.5,-527 1635.5,-527 1581.5,-527 1581.5,-527 1575.5,-527 1569.5,-521 1569.5,-515 1569.5,-515 1569.5,-493 1569.5,-493 1569.5,-487 1575.5,-481 1581.5,-481"/>
<text text-anchor="middle" x="1608.5" y="-511.8" font-family="Times,serif" font-size="14.00">Blueprint 5</text>
<polyline fill="none" stroke="black" points="1569.5,-504 1647.5,-504 "/>
<text text-anchor="middle" x="1608.5" y="-488.8" font-family="Times,serif" font-size="14.00">Coolant 5</text>
</g>
<!-- P5&#45;&gt;B5 -->
<g id="edge17" class="edge"><title>P5:a&#45;&gt;B5:a</title>
<path fill="none" stroke="black" d="M1485,-213C1485,-228.722 1538.54,-461.775 1561.95,-508.048"/>
<polygon fill="black" stroke="black" points="1559.44,-510.507 1568.5,-516 1564.84,-506.056 1559.44,-510.507"/>
<text text-anchor="middle" x="1544.5" y="-468.8" font-family="Times,serif" font-size="14.00">1</text>
</g>
<!-- P5&#45;&gt;B8 -->
<g id="edge31" class="edge"><title>P5:a&#45;&gt;B8:a</title>
<path fill="none" stroke="black" d="M1449,-200C1328.16,-200 1300.34,-164 1179.5,-164 753.5,-164 753.5,-164 753.5,-164 645.437,-164 714.401,-293.692 695,-400 691.28,-420.383 698.487,-484.368 685.683,-502.915"/>
<polygon fill="black" stroke="black" points="683.86,-499.926 677,-508 687.398,-505.967 683.86,-499.926"/>
<text text-anchor="middle" x="1050.5" y="-167.8" font-family="Times,serif" font-size="14.00">1</text>
</g>
<!-- B13 -->
<g id="node32" class="node"><title>B13</title>
<path fill="none" stroke="black" d="M2785,-70C2785,-70 2846,-70 2846,-70 2852,-70 2858,-76 2858,-82 2858,-82 2858,-104 2858,-104 2858,-110 2852,-116 2846,-116 2846,-116 2785,-116 2785,-116 2779,-116 2773,-110 2773,-104 2773,-104 2773,-82 2773,-82 2773,-76 2779,-70 2785,-70"/>
<text text-anchor="middle" x="2815.5" y="-100.8" font-family="Times,serif" font-size="14.00">Blueprint 13</text>
<polyline fill="none" stroke="black" points="2773,-93 2858,-93 "/>
<text text-anchor="middle" x="2815.5" y="-77.8" font-family="Times,serif" font-size="14.00">Coolant 9</text>
</g>
<!-- P5&#45;&gt;B13 -->
<g id="edge49" class="edge"><title>P5:a&#45;&gt;B13:a</title>
<path fill="none" stroke="black" d="M1521,-200C1551.9,-200 1538.6,-161.277 1566,-147 1656.56,-99.82 1921.39,-104 2023.5,-104 2023.5,-104 2023.5,-104 2693,-104 2724.95,-104 2735.36,-104.807 2762.94,-104.971"/>
<polygon fill="black" stroke="black" points="2762.99,-108.471 2773,-105 2763.01,-101.471 2762.99,-108.471"/>
<text text-anchor="middle" x="2145.5" y="-107.8" font-family="Times,serif" font-size="14.00">1</text>
</g>
<!-- P6 -->
<g id="node7" class="node"><title>P6</title>
<polygon fill="none" stroke="black" points="1450.5,-862.5 1450.5,-931.5 1519.5,-931.5 1519.5,-862.5 1450.5,-862.5"/>
<text text-anchor="middle" x="1485" y="-916.3" font-family="Times,serif" font-size="14.00">Product 6</text>
<polyline fill="none" stroke="black" points="1450.5,-908.5 1519.5,-908.5 "/>
<text text-anchor="middle" x="1485" y="-893.3" font-family="Times,serif" font-size="14.00">Value 5</text>
<polyline fill="none" stroke="black" points="1450.5,-885.5 1519.5,-885.5 "/>
<text text-anchor="middle" x="1485" y="-870.3" font-family="Times,serif" font-size="14.00">Initial 4</text>
</g>
<!-- B21 -->
<g id="node40" class="node"><title>B21</title>
<path fill="none" stroke="black" d="M1578,-771C1578,-771 1639,-771 1639,-771 1645,-771 1651,-777 1651,-783 1651,-783 1651,-805 1651,-805 1651,-811 1645,-817 1639,-817 1639,-817 1578,-817 1578,-817 1572,-817 1566,-811 1566,-805 1566,-805 1566,-783 1566,-783 1566,-777 1572,-771 1578,-771"/>
<text text-anchor="middle" x="1608.5" y="-801.8" font-family="Times,serif" font-size="14.00">Blueprint 21</text>
<polyline fill="none" stroke="black" points="1566,-794 1651,-794 "/>
<text text-anchor="middle" x="1608.5" y="-778.8" font-family="Times,serif" font-size="14.00">Coolant 8</text>
</g>
<!-- P6&#45;&gt;B21 -->
<g id="edge75" class="edge"><title>P6:a&#45;&gt;B21:a</title>
<path fill="none" stroke="black" d="M1521,-920C1551.23,-920 1529.64,-883.011 1541,-855 1548.61,-836.237 1543.99,-814.946 1556.07,-808.182"/>
<polygon fill="black" stroke="black" points="1556.98,-811.564 1566,-806 1555.48,-804.727 1556.98,-811.564"/>
<text text-anchor="middle" x="1544.5" y="-858.8" font-family="Times,serif" font-size="14.00">1</text>
</g>
<!-- P7 -->
<g id="node8" class="node"><title>P7</title>
<polygon fill="none" stroke="black" points="1450.5,-420.5 1450.5,-489.5 1519.5,-489.5 1519.5,-420.5 1450.5,-420.5"/>
<text text-anchor="middle" x="1485" y="-474.3" font-family="Times,serif" font-size="14.00">Product 7</text>
<polyline fill="none" stroke="black" points="1450.5,-466.5 1519.5,-466.5 "/>
<text text-anchor="middle" x="1485" y="-451.3" font-family="Times,serif" font-size="14.00">Value 0</text>
<polyline fill="none" stroke="black" points="1450.5,-443.5 1519.5,-443.5 "/>
<text text-anchor="middle" x="1485" y="-428.3" font-family="Times,serif" font-size="14.00">Initial 6</text>
</g>
<!-- P7&#45;&gt;B7 -->
<g id="edge27" class="edge"><title>P7:a&#45;&gt;B7:a</title>
<path fill="none" stroke="black" d="M1521,-478C1545.41,-478 1532.27,-392.793 1541,-370 1544.14,-361.792 1551.45,-340.584 1559.85,-330.492"/>
<polygon fill="black" stroke="black" points="1561.93,-333.314 1568.5,-325 1558.18,-327.405 1561.93,-333.314"/>
<text text-anchor="middle" x="1544.5" y="-373.8" font-family="Times,serif" font-size="14.00">1</text>
</g>
<!-- P7&#45;&gt;B14 -->
<g id="edge55" class="edge"><title>P7:a&#45;&gt;B14:a</title>
<path fill="none" stroke="black" d="M1449,-478C1413.5,-478 1435.39,-428.589 1404,-412 1370.6,-394.348 1356.67,-409.154 1319,-412 1209.85,-420.246 929.013,-435.296 832,-486 821.691,-491.388 824.02,-499.092 814,-505 674.802,-587.064 622.297,-575.615 462,-596 458.914,-596.392 458.071,-596.498 455,-596 451.358,-595.409 449.072,-594.187 446.946,-592.999"/>
<polygon fill="black" stroke="black" points="447.585,-589.536 437,-590 445.564,-596.238 447.585,-589.536"/>
<text text-anchor="middle" x="931.5" y="-458.8" font-family="Times,serif" font-size="14.00">1</text>
</g>
<!-- B18 -->
<g id="node37" class="node"><title>B18</title>
<path fill="none" stroke="black" d="M1084,-618C1084,-618 1145,-618 1145,-618 1151,-618 1157,-624 1157,-630 1157,-630 1157,-652 1157,-652 1157,-658 1151,-664 1145,-664 1145,-664 1084,-664 1084,-664 1078,-664 1072,-658 1072,-652 1072,-652 1072,-630 1072,-630 1072,-624 1078,-618 1084,-618"/>
<text text-anchor="middle" x="1114.5" y="-648.8" font-family="Times,serif" font-size="14.00">Blueprint 18</text>
<polyline fill="none" stroke="black" points="1072,-641 1157,-641 "/>
<text text-anchor="middle" x="1114.5" y="-625.8" font-family="Times,serif" font-size="14.00">Coolant 3</text>
</g>
<!-- P7&#45;&gt;B18 -->
<g id="edge63" class="edge"><title>P7:a&#45;&gt;B18:a</title>
<path fill="none" stroke="black" d="M1449,-478C1424.46,-478 1424.64,-496.726 1404,-510 1353.36,-542.562 1233.45,-642.152 1167.16,-652.183"/>
<polygon fill="black" stroke="black" points="1166.69,-648.71 1157,-653 1167.25,-655.687 1166.69,-648.71"/>
<text text-anchor="middle" x="1297.5" y="-590.8" font-family="Times,serif" font-size="14.00">1</text>
</g>
<!-- B26 -->
<g id="node45" class="node"><title>B26</title>
<path fill="none" stroke="black" d="M2538,-714C2538,-714 2599,-714 2599,-714 2605,-714 2611,-720 2611,-726 2611,-726 2611,-748 2611,-748 2611,-754 2605,-760 2599,-760 2599,-760 2538,-760 2538,-760 2532,-760 2526,-754 2526,-748 2526,-748 2526,-726 2526,-726 2526,-720 2532,-714 2538,-714"/>
<text text-anchor="middle" x="2568.5" y="-744.8" font-family="Times,serif" font-size="14.00">Blueprint 26</text>
<polyline fill="none" stroke="black" points="2526,-737 2611,-737 "/>
<text text-anchor="middle" x="2568.5" y="-721.8" font-family="Times,serif" font-size="14.00">Coolant 7</text>
</g>
<!-- P7&#45;&gt;B26 -->
<g id="edge89" class="edge"><title>P7:a&#45;&gt;B26:a</title>
<path fill="none" stroke="black" d="M1521,-478C1553.98,-478 1543.59,-512.805 1566,-537 1590.28,-563.212 1772.61,-738.277 1806,-751 1838.39,-763.345 1849.51,-754.5 1884,-751 2062.29,-732.908 2100.71,-688.092 2279,-670 2316.58,-666.186 2327.07,-662.051 2364,-670 2432.65,-684.775 2447.86,-698.746 2508,-735 2512.61,-737.78 2514.54,-741.557 2516.86,-744.488"/>
<polygon fill="black" stroke="black" points="2515.48,-747.712 2526,-749 2518.58,-741.435 2515.48,-747.712"/>
<text text-anchor="middle" x="2024.5" y="-730.8" font-family="Times,serif" font-size="14.00">1</text>
</g>
<!-- P8 -->
<g id="node9" class="node"><title>P8</title>
<polygon fill="none" stroke="black" points="1694,-419.5 1694,-488.5 1763,-488.5 1763,-419.5 1694,-419.5"/>
<text text-anchor="middle" x="1728.5" y="-473.3" font-family="Times,serif" font-size="14.00">Product 8</text>
<polyline fill="none" stroke="black" points="1694,-465.5 1763,-465.5 "/>
<text text-anchor="middle" x="1728.5" y="-450.3" font-family="Times,serif" font-size="14.00">Value 10</text>
<polyline fill="none" stroke="black" points="1694,-442.5 1763,-442.5 "/>
<text text-anchor="middle" x="1728.5" y="-427.3" font-family="Times,serif" font-size="14.00">Initial 9</text>
</g>
<!-- P8&#45;&gt;B1 -->
<g id="edge7" class="edge"><title>P8:a&#45;&gt;B1:a</title>
<path fill="none" stroke="black" d="M1763,-477C1783.4,-477 1771.72,-405.164 1781,-387 1786.46,-376.304 1788.56,-366.757 1795.77,-362.439"/>
<polygon fill="black" stroke="black" points="1797.08,-365.724 1806,-360 1795.46,-358.915 1797.08,-365.724"/>
<text text-anchor="middle" x="1784.5" y="-390.8" font-family="Times,serif" font-size="14.00">1</text>
</g>
<!-- B9 -->
<g id="node28" class="node"><title>B9</title>
<path fill="none" stroke="black" d="M1818,-695C1818,-695 1872,-695 1872,-695 1878,-695 1884,-701 1884,-707 1884,-707 1884,-729 1884,-729 1884,-735 1878,-741 1872,-741 1872,-741 1818,-741 1818,-741 1812,-741 1806,-735 1806,-729 1806,-729 1806,-707 1806,-707 1806,-701 1812,-695 1818,-695"/>
<text text-anchor="middle" x="1845" y="-725.8" font-family="Times,serif" font-size="14.00">Blueprint 9</text>
<polyline fill="none" stroke="black" points="1806,-718 1884,-718 "/>
<text text-anchor="middle" x="1845" y="-702.8" font-family="Times,serif" font-size="14.00">Coolant 10</text>
</g>
<!-- P8&#45;&gt;B9 -->
<g id="edge36" class="edge"><title>P8:a&#45;&gt;B9:a</title>
<path fill="none" stroke="black" d="M1728.5,-490C1728.5,-568.792 1765.32,-581.543 1788,-657 1791.83,-669.751 1790.38,-708.536 1798.08,-723.766"/>
<polygon fill="black" stroke="black" points="1795.98,-726.563 1806,-730 1800.31,-721.064 1795.98,-726.563"/>
<text text-anchor="middle" x="1784.5" y="-660.8" font-family="Times,serif" font-size="14.00">1</text>
</g>
<!-- P9 -->
<g id="node10" class="node"><title>P9</title>
<polygon fill="none" stroke="black" points="956.5,-963.5 956.5,-1032.5 1025.5,-1032.5 1025.5,-963.5 956.5,-963.5"/>
<text text-anchor="middle" x="991" y="-1017.3" font-family="Times,serif" font-size="14.00">Product 9</text>
<polyline fill="none" stroke="black" points="956.5,-1009.5 1025.5,-1009.5 "/>
<text text-anchor="middle" x="991" y="-994.3" font-family="Times,serif" font-size="14.00">Value 5</text>
<polyline fill="none" stroke="black" points="956.5,-986.5 1025.5,-986.5 "/>
<text text-anchor="middle" x="991" y="-971.3" font-family="Times,serif" font-size="14.00">Initial 9</text>
</g>
<!-- P9&#45;&gt;B18 -->
<g id="edge64" class="edge"><title>P9:a&#45;&gt;B18:a</title>
<path fill="none" stroke="black" d="M1027,-1021C1065.27,-1021 1108.86,-742.754 1114,-675.287"/>
<polygon fill="black" stroke="black" points="1117.51,-675.159 1114.5,-665 1110.52,-674.817 1117.51,-675.159"/>
<text text-anchor="middle" x="1050.5" y="-996.8" font-family="Times,serif" font-size="14.00">1</text>
</g>
<!-- B24 -->
<g id="node43" class="node"><title>B24</title>
<path fill="none" stroke="black" d="M1331,-421C1331,-421 1392,-421 1392,-421 1398,-421 1404,-427 1404,-433 1404,-433 1404,-455 1404,-455 1404,-461 1398,-467 1392,-467 1392,-467 1331,-467 1331,-467 1325,-467 1319,-461 1319,-455 1319,-455 1319,-433 1319,-433 1319,-427 1325,-421 1331,-421"/>
<text text-anchor="middle" x="1361.5" y="-451.8" font-family="Times,serif" font-size="14.00">Blueprint 24</text>
<polyline fill="none" stroke="black" points="1319,-444 1404,-444 "/>
<text text-anchor="middle" x="1361.5" y="-428.8" font-family="Times,serif" font-size="14.00">Coolant 10</text>
</g>
<!-- P9&#45;&gt;B24 -->
<g id="edge83" class="edge"><title>P9:a&#45;&gt;B24:a</title>
<path fill="none" stroke="black" d="M1027,-1021C1073.05,-1021 1047.6,-648.053 1072,-609 1138.62,-502.375 1187.25,-458.339 1308.95,-456.091"/>
<polygon fill="black" stroke="black" points="1309.03,-459.591 1319,-456 1308.97,-452.591 1309.03,-459.591"/>
<text text-anchor="middle" x="1178.5" y="-492.8" font-family="Times,serif" font-size="14.00">1</text>
</g>
<!-- P9&#45;&gt;B25 -->
<g id="edge87" class="edge"><title>P9:a&#45;&gt;B25:a</title>
<path fill="none" stroke="black" d="M1027,-1021C1066.02,-1021 1074.48,-1036 1113.5,-1036 1113.5,-1036 1113.5,-1036 1785.5,-1036 2053.86,-1036 2116.14,-1112 2384.5,-1112 2384.5,-1112 2384.5,-1112 2633.5,-1112 2741.5,-1112 2762.23,-1068.93 2858,-1019 2927.37,-982.836 2931.06,-925.217 3002.9,-920.332"/>
<polygon fill="black" stroke="black" points="3003.12,-923.827 3013,-920 3002.89,-916.831 3003.12,-923.827"/>
<text text-anchor="middle" x="2024.5" y="-1064.8" font-family="Times,serif" font-size="14.00">1</text>
</g>
<!-- B27 -->
<g id="node46" class="node"><title>B27</title>
<path fill="none" stroke="black" d="M2785,-963C2785,-963 2846,-963 2846,-963 2852,-963 2858,-969 2858,-975 2858,-975 2858,-997 2858,-997 2858,-1003 2852,-1009 2846,-1009 2846,-1009 2785,-1009 2785,-1009 2779,-1009 2773,-1003 2773,-997 2773,-997 2773,-975 2773,-975 2773,-969 2779,-963 2785,-963"/>
<text text-anchor="middle" x="2815.5" y="-993.8" font-family="Times,serif" font-size="14.00">Blueprint 27</text>
<polyline fill="none" stroke="black" points="2773,-986 2858,-986 "/>
<text text-anchor="middle" x="2815.5" y="-970.8" font-family="Times,serif" font-size="14.00">Coolant 6</text>
</g>
<!-- P9&#45;&gt;B27 -->
<g id="edge94" class="edge"><title>P9:a&#45;&gt;B27:a</title>
<path fill="none" stroke="black" d="M1027,-1021C1042.66,-1021 1034.6,-1040.44 1047,-1050 1071.89,-1069.18 1082.08,-1074 1113.5,-1074 1113.5,-1074 1113.5,-1074 1785.5,-1074 1896.54,-1074 1912.46,-1150 2023.5,-1150 2023.5,-1150 2023.5,-1150 2505.5,-1150 2614.73,-1150 2638.72,-1109.99 2730,-1050 2742.62,-1041.71 2745.37,-1038.63 2755,-1027 2761.5,-1019.15 2760.54,-1008.76 2763.82,-1002.78"/>
<polygon fill="black" stroke="black" points="2765.75,-1005.72 2773,-998 2762.51,-999.513 2765.75,-1005.72"/>
<text text-anchor="middle" x="1905.5" y="-1117.8" font-family="Times,serif" font-size="14.00">1</text>
</g>
<!-- P10 -->
<g id="node11" class="node"><title>P10</title>
<polygon fill="none" stroke="black" points="2407,-777.5 2407,-846.5 2483,-846.5 2483,-777.5 2407,-777.5"/>
<text text-anchor="middle" x="2445" y="-831.3" font-family="Times,serif" font-size="14.00">Product 10</text>
<polyline fill="none" stroke="black" points="2407,-823.5 2483,-823.5 "/>
<text text-anchor="middle" x="2445" y="-808.3" font-family="Times,serif" font-size="14.00">Value 3</text>
<polyline fill="none" stroke="black" points="2407,-800.5 2483,-800.5 "/>
<text text-anchor="middle" x="2445" y="-785.3" font-family="Times,serif" font-size="14.00">Initial 0</text>
</g>
<!-- P10&#45;&gt;B26 -->
<g id="edge90" class="edge"><title>P10:a&#45;&gt;B26:a</title>
<path fill="none" stroke="black" d="M2483,-835C2504.54,-835 2491.36,-809.263 2501,-790 2508.61,-774.791 2506.41,-757.786 2516.01,-751.505"/>
<polygon fill="black" stroke="black" points="2517.15,-754.827 2526,-749 2515.45,-748.037 2517.15,-754.827"/>
<text text-anchor="middle" x="2504.5" y="-793.8" font-family="Times,serif" font-size="14.00">1</text>
</g>
<!-- P11 -->
<g id="node12" class="node"><title>P11</title>
<polygon fill="none" stroke="black" points="3141,-921.5 3141,-990.5 3217,-990.5 3217,-921.5 3141,-921.5"/>
<text text-anchor="middle" x="3179" y="-975.3" font-family="Times,serif" font-size="14.00">Product 11</text>
<polyline fill="none" stroke="black" points="3141,-967.5 3217,-967.5 "/>
<text text-anchor="middle" x="3179" y="-952.3" font-family="Times,serif" font-size="14.00">Value 0</text>
<polyline fill="none" stroke="black" points="3141,-944.5 3217,-944.5 "/>
<text text-anchor="middle" x="3179" y="-929.3" font-family="Times,serif" font-size="14.00">Initial 14</text>
</g>
<!-- P11&#45;&gt;B9 -->
<g id="edge37" class="edge"><title>P11:a&#45;&gt;B9:a</title>
<path fill="none" stroke="black" d="M3141,-979C3132.8,-979 3131.05,-976.554 3123,-975 2878.22,-927.719 2818.8,-884 2569.5,-884 2384.5,-884 2384.5,-884 2384.5,-884 2155.17,-884 2117.8,-734.479 1894.1,-730.098"/>
<polygon fill="black" stroke="black" points="1894.03,-726.597 1884,-730 1893.97,-733.597 1894.03,-726.597"/>
<text text-anchor="middle" x="2504.5" y="-887.8" font-family="Times,serif" font-size="14.00">1</text>
</g>
<!-- P11&#45;&gt;B10 -->
<g id="edge41" class="edge"><title>P11:a&#45;&gt;B10:a</title>
<path fill="none" stroke="black" d="M3217,-979C3340.62,-979 3144.48,-711.802 3249.99,-696.668"/>
<polygon fill="black" stroke="black" points="3250.26,-700.158 3260,-696 3249.79,-693.174 3250.26,-700.158"/>
<text text-anchor="middle" x="3238.5" y="-979.8" font-family="Times,serif" font-size="14.00">1</text>
</g>
<!-- B28 -->
<g id="node47" class="node"><title>B28</title>
<path fill="none" stroke="black" d="M3272,-1224C3272,-1224 3333,-1224 3333,-1224 3339,-1224 3345,-1230 3345,-1236 3345,-1236 3345,-1258 3345,-1258 3345,-1264 3339,-1270 3333,-1270 3333,-1270 3272,-1270 3272,-1270 3266,-1270 3260,-1264 3260,-1258 3260,-1258 3260,-1236 3260,-1236 3260,-1230 3266,-1224 3272,-1224"/>
<text text-anchor="middle" x="3302.5" y="-1254.8" font-family="Times,serif" font-size="14.00">Blueprint 28</text>
<polyline fill="none" stroke="black" points="3260,-1247 3345,-1247 "/>
<text text-anchor="middle" x="3302.5" y="-1231.8" font-family="Times,serif" font-size="14.00">Coolant 10</text>
</g>
<!-- P11&#45;&gt;B28 -->
<g id="edge100" class="edge"><title>P11:a&#45;&gt;B28:a</title>
<path fill="none" stroke="black" d="M3179,-992C3179,-1050.49 3195.91,-1236.24 3249.87,-1257.09"/>
<polygon fill="black" stroke="black" points="3249.52,-1260.59 3260,-1259 3250.82,-1253.71 3249.52,-1260.59"/>
<text text-anchor="middle" x="3238.5" y="-1253.8" font-family="Times,serif" font-size="14.00">1</text>
</g>
<!-- P12 -->
<g id="node13" class="node"><title>P12</title>
<polygon fill="none" stroke="black" points="953,-547.5 953,-616.5 1029,-616.5 1029,-547.5 953,-547.5"/>
<text text-anchor="middle" x="991" y="-601.3" font-family="Times,serif" font-size="14.00">Product 12</text>
<polyline fill="none" stroke="black" points="953,-593.5 1029,-593.5 "/>
<text text-anchor="middle" x="991" y="-578.3" font-family="Times,serif" font-size="14.00">Value 10</text>
<polyline fill="none" stroke="black" points="953,-570.5 1029,-570.5 "/>
<text text-anchor="middle" x="991" y="-555.3" font-family="Times,serif" font-size="14.00">Initial 17</text>
</g>
<!-- P12&#45;&gt;B6 -->
<g id="edge23" class="edge"><title>P12:a&#45;&gt;B6:a</title>
<path fill="none" stroke="black" d="M953,-605C927.702,-605 949.221,-571.923 935,-551 929.265,-542.562 926.409,-535.608 920.175,-532.222"/>
<polygon fill="black" stroke="black" points="920.517,-528.715 910,-530 919.023,-535.553 920.517,-528.715"/>
<text text-anchor="middle" x="931.5" y="-554.8" font-family="Times,serif" font-size="14.00">1</text>
</g>
<!-- P12&#45;&gt;B13 -->
<g id="edge50" class="edge"><title>P12:a&#45;&gt;B13:a</title>
<path fill="none" stroke="black" d="M1029,-605C1097.01,-605 1134.19,-390.414 1175,-336 1265.5,-215.318 1304.39,-182.168 1447,-133 1891.8,20.3604 2033,-66 2503.5,-66 2503.5,-66 2503.5,-66 2693,-66 2709.84,-66 2741.67,-94.2812 2762.96,-102.677"/>
<polygon fill="black" stroke="black" points="2762.47,-106.155 2773,-105 2764.05,-99.3356 2762.47,-106.155"/>
<text text-anchor="middle" x="1905.5" y="-46.8" font-family="Times,serif" font-size="14.00">1</text>
</g>
<!-- P12&#45;&gt;B18 -->
<g id="edge65" class="edge"><title>P12:a&#45;&gt;B18:a</title>
<path fill="none" stroke="black" d="M1029,-605C1042.69,-605 1044.73,-612.923 1054,-623 1061.24,-630.868 1059.68,-642.097 1063.06,-648.347"/>
<polygon fill="black" stroke="black" points="1061.51,-651.49 1072,-653 1064.74,-645.28 1061.51,-651.49"/>
<text text-anchor="middle" x="1050.5" y="-626.8" font-family="Times,serif" font-size="14.00">1</text>
</g>
<!-- P13 -->
<g id="node14" class="node"><title>P13</title>
<polygon fill="none" stroke="black" points="480,-492.5 480,-561.5 556,-561.5 556,-492.5 480,-492.5"/>
<text text-anchor="middle" x="518" y="-546.3" font-family="Times,serif" font-size="14.00">Product 13</text>
<polyline fill="none" stroke="black" points="480,-538.5 556,-538.5 "/>
<text text-anchor="middle" x="518" y="-523.3" font-family="Times,serif" font-size="14.00">Value 5</text>
<polyline fill="none" stroke="black" points="480,-515.5 556,-515.5 "/>
<text text-anchor="middle" x="518" y="-500.3" font-family="Times,serif" font-size="14.00">Initial 1</text>
</g>
<!-- P13&#45;&gt;B8 -->
<g id="edge32" class="edge"><title>P13:a&#45;&gt;B8:a</title>
<path fill="none" stroke="black" d="M556,-550C578.749,-550 574.563,-519.543 589.316,-510.502"/>
<polygon fill="black" stroke="black" points="590.193,-513.89 599,-508 588.442,-507.112 590.193,-513.89"/>
<text text-anchor="middle" x="577.5" y="-539.8" font-family="Times,serif" font-size="14.00">1</text>
</g>
<!-- P14 -->
<g id="node15" class="node"><title>P14</title>
<polygon fill="none" stroke="black" points="1447,-736.5 1447,-805.5 1523,-805.5 1523,-736.5 1447,-736.5"/>
<text text-anchor="middle" x="1485" y="-790.3" font-family="Times,serif" font-size="14.00">Product 14</text>
<polyline fill="none" stroke="black" points="1447,-782.5 1523,-782.5 "/>
<text text-anchor="middle" x="1485" y="-767.3" font-family="Times,serif" font-size="14.00">Value 5</text>
<polyline fill="none" stroke="black" points="1447,-759.5 1523,-759.5 "/>
<text text-anchor="middle" x="1485" y="-744.3" font-family="Times,serif" font-size="14.00">Initial 18</text>
</g>
<!-- P14&#45;&gt;B5 -->
<g id="edge18" class="edge"><title>P14:a&#45;&gt;B5:a</title>
<path fill="none" stroke="black" d="M1523,-794C1536.97,-794 1549.78,-572.519 1563.5,-524.935"/>
<polygon fill="black" stroke="black" points="1566.67,-526.436 1568.5,-516 1560.56,-523.019 1566.67,-526.436"/>
<text text-anchor="middle" x="1544.5" y="-699.8" font-family="Times,serif" font-size="14.00">1</text>
</g>
<!-- B23 -->
<g id="node42" class="node"><title>B23</title>
<path fill="none" stroke="black" d="M1578,-706C1578,-706 1639,-706 1639,-706 1645,-706 1651,-712 1651,-718 1651,-718 1651,-740 1651,-740 1651,-746 1645,-752 1639,-752 1639,-752 1578,-752 1578,-752 1572,-752 1566,-746 1566,-740 1566,-740 1566,-718 1566,-718 1566,-712 1572,-706 1578,-706"/>
<text text-anchor="middle" x="1608.5" y="-736.8" font-family="Times,serif" font-size="14.00">Blueprint 23</text>
<polyline fill="none" stroke="black" points="1566,-729 1651,-729 "/>
<text text-anchor="middle" x="1608.5" y="-713.8" font-family="Times,serif" font-size="14.00">Coolant 6</text>
</g>
<!-- P14&#45;&gt;B23 -->
<g id="edge78" class="edge"><title>P14:a&#45;&gt;B23:a</title>
<path fill="none" stroke="black" d="M1523,-794C1542.49,-794 1527.61,-768.17 1541,-754 1546.78,-747.884 1550.42,-744.118 1555.99,-742.305"/>
<polygon fill="black" stroke="black" points="1556.54,-745.764 1566,-741 1555.63,-738.823 1556.54,-745.764"/>
<text text-anchor="middle" x="1544.5" y="-757.8" font-family="Times,serif" font-size="14.00">1</text>
</g>
<!-- P14&#45;&gt;B27 -->
<g id="edge95" class="edge"><title>P14:a&#45;&gt;B27:a</title>
<path fill="none" stroke="black" d="M1523,-794C1541.69,-794 1526.3,-820.457 1541,-832 1541.7,-832.553 2045.12,-935.85 2046,-936 2248.27,-970.492 2298.31,-998 2503.5,-998 2503.5,-998 2503.5,-998 2693,-998 2724.94,-998 2735.36,-998 2762.94,-998"/>
<polygon fill="black" stroke="black" points="2763,-1001.5 2773,-998 2763,-994.5 2763,-1001.5"/>
<text text-anchor="middle" x="2145.5" y="-958.8" font-family="Times,serif" font-size="14.00">1</text>
</g>
<!-- P15 -->
<g id="node16" class="node"><title>P15</title>
<polygon fill="none" stroke="black" points="1200,-656.5 1200,-725.5 1276,-725.5 1276,-656.5 1200,-656.5"/>
<text text-anchor="middle" x="1238" y="-710.3" font-family="Times,serif" font-size="14.00">Product 15</text>
<polyline fill="none" stroke="black" points="1200,-702.5 1276,-702.5 "/>
<text text-anchor="middle" x="1238" y="-687.3" font-family="Times,serif" font-size="14.00">Value 6</text>
<polyline fill="none" stroke="black" points="1200,-679.5 1276,-679.5 "/>
<text text-anchor="middle" x="1238" y="-664.3" font-family="Times,serif" font-size="14.00">Initial 9</text>
</g>
<!-- B3 -->
<g id="node22" class="node"><title>B3</title>
<path fill="none" stroke="black" d="M1334.5,-885C1334.5,-885 1388.5,-885 1388.5,-885 1394.5,-885 1400.5,-891 1400.5,-897 1400.5,-897 1400.5,-919 1400.5,-919 1400.5,-925 1394.5,-931 1388.5,-931 1388.5,-931 1334.5,-931 1334.5,-931 1328.5,-931 1322.5,-925 1322.5,-919 1322.5,-919 1322.5,-897 1322.5,-897 1322.5,-891 1328.5,-885 1334.5,-885"/>
<text text-anchor="middle" x="1361.5" y="-915.8" font-family="Times,serif" font-size="14.00">Blueprint 3</text>
<polyline fill="none" stroke="black" points="1322.5,-908 1400.5,-908 "/>
<text text-anchor="middle" x="1361.5" y="-892.8" font-family="Times,serif" font-size="14.00">Coolant 6</text>
</g>
<!-- P15&#45;&gt;B3 -->
<g id="edge9" class="edge"><title>P15:a&#45;&gt;B3:a</title>
<path fill="none" stroke="black" d="M1276,-714C1281.1,-714 1307.39,-870.314 1317.96,-910.613"/>
<polygon fill="black" stroke="black" points="1314.7,-911.877 1321.5,-920 1321.25,-909.408 1314.7,-911.877"/>
<text text-anchor="middle" x="1297.5" y="-826.8" font-family="Times,serif" font-size="14.00">1</text>
</g>
<!-- B15 -->
<g id="node34" class="node"><title>B15</title>
<path fill="none" stroke="black" d="M1331,-601C1331,-601 1392,-601 1392,-601 1398,-601 1404,-607 1404,-613 1404,-613 1404,-635 1404,-635 1404,-641 1398,-647 1392,-647 1392,-647 1331,-647 1331,-647 1325,-647 1319,-641 1319,-635 1319,-635 1319,-613 1319,-613 1319,-607 1325,-601 1331,-601"/>
<text text-anchor="middle" x="1361.5" y="-631.8" font-family="Times,serif" font-size="14.00">Blueprint 15</text>
<polyline fill="none" stroke="black" points="1319,-624 1404,-624 "/>
<text text-anchor="middle" x="1361.5" y="-608.8" font-family="Times,serif" font-size="14.00">Coolant 2</text>
</g>
<!-- P15&#45;&gt;B15 -->
<g id="edge57" class="edge"><title>P15:a&#45;&gt;B15:a</title>
<path fill="none" stroke="black" d="M1276,-714C1306.83,-714 1273.92,-670.396 1294,-647 1299.31,-640.812 1303.29,-637.973 1309.01,-636.777"/>
<polygon fill="black" stroke="black" points="1309.3,-640.265 1319,-636 1308.76,-633.286 1309.3,-640.265"/>
<text text-anchor="middle" x="1297.5" y="-650.8" font-family="Times,serif" font-size="14.00">1</text>
</g>
<!-- B19 -->
<g id="node38" class="node"><title>B19</title>
<path fill="none" stroke="black" d="M1331,-781C1331,-781 1392,-781 1392,-781 1398,-781 1404,-787 1404,-793 1404,-793 1404,-815 1404,-815 1404,-821 1398,-827 1392,-827 1392,-827 1331,-827 1331,-827 1325,-827 1319,-821 1319,-815 1319,-815 1319,-793 1319,-793 1319,-787 1325,-781 1331,-781"/>
<text text-anchor="middle" x="1361.5" y="-811.8" font-family="Times,serif" font-size="14.00">Blueprint 19</text>
<polyline fill="none" stroke="black" points="1319,-804 1404,-804 "/>
<text text-anchor="middle" x="1361.5" y="-788.8" font-family="Times,serif" font-size="14.00">Coolant 2</text>
</g>
<!-- P15&#45;&gt;B19 -->
<g id="edge68" class="edge"><title>P15:a&#45;&gt;B19:a</title>
<path fill="none" stroke="black" d="M1276,-714C1283.12,-714 1298.24,-766.438 1301,-773 1307.28,-787.917 1302.09,-805.771 1309.4,-812.869"/>
<polygon fill="black" stroke="black" points="1308.41,-816.228 1319,-816 1310.58,-809.572 1308.41,-816.228"/>
<text text-anchor="middle" x="1297.5" y="-776.8" font-family="Times,serif" font-size="14.00">1</text>
</g>
<!-- P15&#45;&gt;B23 -->
<g id="edge79" class="edge"><title>P15:a&#45;&gt;B23:a</title>
<path fill="none" stroke="black" d="M1276,-714C1285.38,-714 1285.14,-721.927 1294,-725 1324.24,-735.491 1391.45,-734.719 1404,-728 1416.72,-721.195 1411.43,-710.807 1422,-701 1468.5,-657.87 1499.57,-593.04 1548,-634 1563.53,-647.138 1548.5,-714.281 1557.91,-734.942"/>
<polygon fill="black" stroke="black" points="1555.9,-737.807 1566,-741 1560.09,-732.204 1555.9,-737.807"/>
<text text-anchor="middle" x="1425.5" y="-704.8" font-family="Times,serif" font-size="14.00">1</text>
</g>
<!-- P15&#45;&gt;B24 -->
<g id="edge84" class="edge"><title>P15:a&#45;&gt;B24:a</title>
<path fill="none" stroke="black" d="M1276,-714C1298.31,-714 1288.52,-535.627 1294,-514 1299.88,-490.83 1293.52,-465.062 1308.83,-457.923"/>
<polygon fill="black" stroke="black" points="1309.82,-461.298 1319,-456 1308.52,-454.42 1309.82,-461.298"/>
<text text-anchor="middle" x="1297.5" y="-517.8" font-family="Times,serif" font-size="14.00">1</text>
</g>
<!-- P16 -->
<g id="node17" class="node"><title>P16</title>
<polygon fill="none" stroke="black" points="1927,-504.5 1927,-573.5 2003,-573.5 2003,-504.5 1927,-504.5"/>
<text text-anchor="middle" x="1965" y="-558.3" font-family="Times,serif" font-size="14.00">Product 16</text>
<polyline fill="none" stroke="black" points="1927,-550.5 2003,-550.5 "/>
<text text-anchor="middle" x="1965" y="-535.3" font-family="Times,serif" font-size="14.00">Value 2</text>
<polyline fill="none" stroke="black" points="1927,-527.5 2003,-527.5 "/>
<text text-anchor="middle" x="1965" y="-512.3" font-family="Times,serif" font-size="14.00">Initial 20</text>
</g>
<!-- P16&#45;&gt;B0 -->
<g id="edge2" class="edge"><title>P16:a&#45;&gt;B0:a</title>
<path fill="none" stroke="black" d="M2003,-562C2018.42,-562 2026.99,-315 2041.01,-264.828"/>
<polygon fill="black" stroke="black" points="2044.13,-266.429 2046,-256 2038.04,-262.986 2044.13,-266.429"/>
<text text-anchor="middle" x="2024.5" y="-448.8" font-family="Times,serif" font-size="14.00">1</text>
</g>
<!-- P16&#45;&gt;B6 -->
<g id="edge24" class="edge"><title>P16:a&#45;&gt;B6:a</title>
<path fill="none" stroke="black" d="M1927,-562C1648.46,-562 1579.44,-539.381 1301,-532 1130.67,-527.485 1085.53,-529.901 920.035,-529.997"/>
<polygon fill="black" stroke="black" points="919.999,-526.497 910,-530 920.001,-533.497 919.999,-526.497"/>
<text text-anchor="middle" x="1425.5" y="-540.8" font-family="Times,serif" font-size="14.00">1</text>
</g>
<!-- P16&#45;&gt;B20 -->
<g id="edge72" class="edge"><title>P16:a&#45;&gt;B20:a</title>
<path fill="none" stroke="black" d="M2003,-562C2016.33,-562 2009.56,-544.841 2021,-538 2207.17,-426.729 2286.62,-465 2503.5,-465 2503.5,-465 2503.5,-465 2936.5,-465 2941.05,-465 2985.44,-421.676 3004.62,-405.768"/>
<polygon fill="black" stroke="black" points="3006.75,-408.555 3013,-400 3002.78,-402.789 3006.75,-408.555"/>
<text text-anchor="middle" x="2504.5" y="-468.8" font-family="Times,serif" font-size="14.00">1</text>
</g>
<!-- P16&#45;&gt;B26 -->
<g id="edge91" class="edge"><title>P16:a&#45;&gt;B26:a</title>
<path fill="none" stroke="black" d="M2003,-562C2022.05,-562 2064.95,-590 2084,-590 2084,-590 2084,-590 2446,-590 2480.31,-590 2490.21,-606.663 2508,-636 2519.23,-654.514 2505.95,-723.439 2517.46,-743.494"/>
<polygon fill="black" stroke="black" points="2515.7,-746.523 2526,-749 2519.49,-740.64 2515.7,-746.523"/>
<text text-anchor="middle" x="2257.5" y="-593.8" font-family="Times,serif" font-size="14.00">1</text>
</g>
<!-- P17 -->
<g id="node18" class="node"><title>P17</title>
<polygon fill="none" stroke="black" points="2654,-727.5 2654,-796.5 2730,-796.5 2730,-727.5 2654,-727.5"/>
<text text-anchor="middle" x="2692" y="-781.3" font-family="Times,serif" font-size="14.00">Product 17</text>
<polyline fill="none" stroke="black" points="2654,-773.5 2730,-773.5 "/>
<text text-anchor="middle" x="2692" y="-758.3" font-family="Times,serif" font-size="14.00">Value 0</text>
<polyline fill="none" stroke="black" points="2654,-750.5 2730,-750.5 "/>
<text text-anchor="middle" x="2692" y="-735.3" font-family="Times,serif" font-size="14.00">Initial 2</text>
</g>
<!-- P17&#45;&gt;B13 -->
<g id="edge51" class="edge"><title>P17:a&#45;&gt;B13:a</title>
<path fill="none" stroke="black" d="M2730,-785C2756.41,-785 2744.95,-574.233 2748,-548 2769.97,-358.789 2813.92,-312.501 2815.46,-127.088"/>
<polygon fill="black" stroke="black" points="2818.96,-127.014 2815.5,-117 2811.96,-126.985 2818.96,-127.014"/>
<text text-anchor="middle" x="2751.5" y="-551.8" font-family="Times,serif" font-size="14.00">1</text>
</g>
<!-- B17 -->
<g id="node36" class="node"><title>B17</title>
<path fill="none" stroke="black" d="M2785,-798C2785,-798 2846,-798 2846,-798 2852,-798 2858,-804 2858,-810 2858,-810 2858,-832 2858,-832 2858,-838 2852,-844 2846,-844 2846,-844 2785,-844 2785,-844 2779,-844 2773,-838 2773,-832 2773,-832 2773,-810 2773,-810 2773,-804 2779,-798 2785,-798"/>
<text text-anchor="middle" x="2815.5" y="-828.8" font-family="Times,serif" font-size="14.00">Blueprint 17</text>
<polyline fill="none" stroke="black" points="2773,-821 2858,-821 "/>
<text text-anchor="middle" x="2815.5" y="-805.8" font-family="Times,serif" font-size="14.00">Coolant 7</text>
</g>
<!-- P17&#45;&gt;B17 -->
<g id="edge61" class="edge"><title>P17:a&#45;&gt;B17:a</title>
<path fill="none" stroke="black" d="M2730,-785C2743.69,-785 2745.73,-792.923 2755,-803 2762.24,-810.868 2760.68,-822.097 2764.06,-828.347"/>
<polygon fill="black" stroke="black" points="2762.51,-831.49 2773,-833 2765.74,-825.28 2762.51,-831.49"/>
<text text-anchor="middle" x="2751.5" y="-806.8" font-family="Times,serif" font-size="14.00">2</text>
</g>
<!-- P17&#45;&gt;B27 -->
<g id="edge96" class="edge"><title>P17:a&#45;&gt;B27:a</title>
<path fill="none" stroke="black" d="M2730,-785C2750.33,-785 2750.76,-853.117 2755,-873 2760.07,-896.803 2748.78,-973.324 2763.99,-993.231"/>
<polygon fill="black" stroke="black" points="2762.52,-996.414 2773,-998 2765.8,-990.228 2762.52,-996.414"/>
<text text-anchor="middle" x="2751.5" y="-876.8" font-family="Times,serif" font-size="14.00">1</text>
</g>
<!-- B0&#45;&gt;P0 -->
<g id="edge3" class="edge"><title>B0:a&#45;&gt;P0:a</title>
<path fill="none" stroke="black" d="M2046,-256C1803.37,-256 1788.13,-38 1545.5,-38 1296.5,-38 1296.5,-38 1296.5,-38 1187,-38 1161,-12 1051.5,-12 393.5,-12 393.5,-12 393.5,-12 361.097,-12 345.798,-551.519 315.666,-623.174"/>
<polygon fill="black" stroke="black" points="312.82,-621.118 309,-631 318.149,-625.657 312.82,-621.118"/>
<text text-anchor="middle" x="1178.5" y="-30.8" font-family="Times,serif" font-size="14.00">1</text>
</g>
<!-- B0&#45;&gt;P3 -->
<g id="edge4" class="edge"><title>B0:a&#45;&gt;P3:a</title>
<path fill="none" stroke="black" d="M2124,-256C2126.8,-256 2164.81,-166.735 2167,-165 2198.89,-139.771 2215.84,-146 2256.5,-146 2256.5,-146 2256.5,-146 2816.5,-146 2850.39,-146 2861.34,-146 2890.75,-146"/>
<polygon fill="black" stroke="black" points="2891,-149.5 2901,-146 2891,-142.5 2891,-149.5"/>
<text text-anchor="middle" x="2504.5" y="-149.8" font-family="Times,serif" font-size="14.00">1</text>
</g>
<!-- B0&#45;&gt;P4 -->
<g id="edge5" class="edge"><title>B0:a&#45;&gt;P4:a</title>
<path fill="none" stroke="black" d="M2124,-256C2140.32,-256 2127.91,-232.238 2142,-224 2146.08,-221.615 2152.32,-224.445 2157.65,-227.377"/>
<polygon fill="black" stroke="black" points="2156.48,-230.703 2167,-232 2159.59,-224.429 2156.48,-230.703"/>
<text text-anchor="middle" x="2145.5" y="-227.8" font-family="Times,serif" font-size="14.00">1</text>
</g>
<!-- B3&#45;&gt;P6 -->
<g id="edge10" class="edge"><title>B3:a&#45;&gt;P6:a</title>
<path fill="none" stroke="black" d="M1401.5,-920C1410.62,-920 1412.88,-919.222 1422,-919 1425.11,-918.924 1425.89,-918.922 1429,-919 1433.45,-919.111 1436.22,-919.361 1439,-919.583"/>
<polygon fill="black" stroke="black" points="1438.86,-923.081 1449,-920 1439.15,-916.087 1438.86,-923.081"/>
<text text-anchor="middle" x="1425.5" y="-922.8" font-family="Times,serif" font-size="14.00">1</text>
</g>
<!-- B3&#45;&gt;P10 -->
<g id="edge11" class="edge"><title>B3:a&#45;&gt;P10:a</title>
<path fill="none" stroke="black" d="M1401.5,-920C1412.53,-920 1412,-929.34 1422,-934 1451.71,-947.844 1510.28,-960 1543.5,-960 1543.5,-960 1543.5,-960 1906.5,-960 2015.21,-960 2043.37,-953.692 2149,-928 2264.08,-900.01 2284.03,-838.608 2396.89,-835.152"/>
<polygon fill="black" stroke="black" points="2397.05,-838.65 2407,-835 2396.95,-831.651 2397.05,-838.65"/>
<text text-anchor="middle" x="1905.5" y="-963.8" font-family="Times,serif" font-size="14.00">1</text>
</g>
<!-- B3&#45;&gt;P16 -->
<g id="edge12" class="edge"><title>B3:a&#45;&gt;P16:a</title>
<path fill="none" stroke="black" d="M1401.5,-920C1445.56,-920 1417.43,-759.67 1447,-727 1449.17,-724.601 1848.87,-587.566 1917.15,-565.1"/>
<polygon fill="black" stroke="black" points="1918.51,-568.342 1927,-562 1916.41,-561.665 1918.51,-568.342"/>
<text text-anchor="middle" x="1672.5" y="-652.8" font-family="Times,serif" font-size="14.00">1</text>
</g>
<!-- B4&#45;&gt;P0 -->
<g id="edge14" class="edge"><title>B4:a&#45;&gt;P0:a</title>
<path fill="none" stroke="black" d="M194.5,-688C209.567,-688 205.619,-672.79 215,-661 223.105,-650.814 223.352,-639.032 230.291,-633.778"/>
<polygon fill="black" stroke="black" points="231.348,-637.116 240,-631 229.423,-630.386 231.348,-637.116"/>
<text text-anchor="middle" x="218.5" y="-664.8" font-family="Times,serif" font-size="14.00">1</text>
</g>
<!-- B4&#45;&gt;P5 -->
<g id="edge15" class="edge"><title>B4:a&#45;&gt;P5:a</title>
<path fill="none" stroke="black" d="M194.5,-688C228.121,-688 239.879,-88 273.5,-88 273.5,-88 273.5,-88 1179.5,-88 1287.33,-88 1304.83,-137.654 1404,-180 1420.51,-187.051 1425.49,-195.992 1438.82,-198.978"/>
<polygon fill="black" stroke="black" points="1438.7,-202.483 1449,-200 1439.4,-195.518 1438.7,-202.483"/>
<text text-anchor="middle" x="810.5" y="-91.8" font-family="Times,serif" font-size="14.00">1</text>
</g>
<!-- B4&#45;&gt;P11 -->
<g id="edge16" class="edge"><title>B4:a&#45;&gt;P11:a</title>
<path fill="none" stroke="black" d="M194.5,-688C659.483,-688 648.517,-1188 1113.5,-1188 1113.5,-1188 1113.5,-1188 3056.5,-1188 3155.81,-1188 3177.6,-1100.82 3178.93,-1002.2"/>
<polygon fill="black" stroke="black" points="3182.43,-1002.02 3179,-992 3175.43,-1001.98 3182.43,-1002.02"/>
<text text-anchor="middle" x="1672.5" y="-1191.8" font-family="Times,serif" font-size="14.00">1</text>
</g>
<!-- B5&#45;&gt;P8 -->
<g id="edge19" class="edge"><title>B5:a&#45;&gt;P8:a</title>
<path fill="none" stroke="black" d="M1648.5,-516C1663.92,-516 1656.98,-497.658 1669,-488 1675.21,-483.012 1678.81,-479.833 1683.98,-478.237"/>
<polygon fill="black" stroke="black" points="1684.5,-481.699 1694,-477 1683.65,-474.752 1684.5,-481.699"/>
<text text-anchor="middle" x="1672.5" y="-491.8" font-family="Times,serif" font-size="14.00">1</text>
</g>
<!-- B5&#45;&gt;P15 -->
<g id="edge20" class="edge"><title>B5:a&#45;&gt;P15:a</title>
<path fill="none" stroke="black" d="M1568.5,-516C1533.53,-516 1469.64,-589.351 1447,-616 1422.37,-644.988 1435.07,-668.057 1404,-690 1359.58,-721.367 1336.74,-714.98 1286.14,-714.092"/>
<polygon fill="black" stroke="black" points="1286.03,-710.591 1276,-714 1285.97,-717.59 1286.03,-710.591"/>
<text text-anchor="middle" x="1425.5" y="-673.8" font-family="Times,serif" font-size="14.00">1</text>
</g>
<!-- B5&#45;&gt;P16 -->
<g id="edge21" class="edge"><title>B5:a&#45;&gt;P16:a</title>
<path fill="none" stroke="black" d="M1648.5,-516C1764.69,-516 1808.24,-480.142 1909,-538 1916.23,-542.15 1916.24,-550.487 1918.49,-556.157"/>
<polygon fill="black" stroke="black" points="1916.78,-559.223 1927,-562 1920.74,-553.453 1916.78,-559.223"/>
<text text-anchor="middle" x="1784.5" y="-508.8" font-family="Times,serif" font-size="14.00">1</text>
</g>
<!-- B6&#45;&gt;P12 -->
<g id="edge25" class="edge"><title>B6:a&#45;&gt;P12:a</title>
<path fill="none" stroke="black" d="M910,-530C927.889,-530 919.161,-550.448 928,-566 936.028,-580.124 934.133,-596.241 943.092,-602.412"/>
<polygon fill="black" stroke="black" points="942.44,-605.859 953,-605 944.209,-599.086 942.44,-605.859"/>
<text text-anchor="middle" x="931.5" y="-588.8" font-family="Times,serif" font-size="14.00">1</text>
</g>
<!-- B7&#45;&gt;P2 -->
<g id="edge28" class="edge"><title>B7:a&#45;&gt;P2:a</title>
<path fill="none" stroke="black" d="M1568.5,-325C1556.28,-325 1553.22,-324.77 1541,-325 1351.79,-328.556 1304.74,-341 1115.5,-341 870,-341 870,-341 870,-341 837.656,-341 827.107,-341 799.19,-341"/>
<polygon fill="black" stroke="black" points="799,-337.5 789,-341 799,-344.5 799,-337.5"/>
<text text-anchor="middle" x="1178.5" y="-343.8" font-family="Times,serif" font-size="14.00">1</text>
</g>
<!-- B7&#45;&gt;P12 -->
<g id="edge29" class="edge"><title>B7:a&#45;&gt;P12:a</title>
<path fill="none" stroke="black" d="M1568.5,-325C1502.34,-325 1492.87,-363.327 1447,-411 1422.73,-436.228 1431.18,-454.936 1404,-477 1372.54,-502.54 1352.64,-487.407 1319,-510 1309.34,-516.485 1310.96,-522.995 1301,-529 1196.44,-592.025 1156.7,-604.347 1039.11,-604.974"/>
<polygon fill="black" stroke="black" points="1038.99,-601.474 1029,-605 1039.01,-608.474 1038.99,-601.474"/>
<text text-anchor="middle" x="1297.5" y="-535.8" font-family="Times,serif" font-size="14.00">1</text>
</g>
<!-- B8&#45;&gt;P2 -->
<g id="edge33" class="edge"><title>B8:a&#45;&gt;P2:a</title>
<path fill="none" stroke="black" d="M677,-508C693.691,-508 699.392,-381.28 713.25,-348.61"/>
<polygon fill="black" stroke="black" points="715.982,-350.804 720,-341 710.746,-346.158 715.982,-350.804"/>
<text text-anchor="middle" x="698.5" y="-447.8" font-family="Times,serif" font-size="14.00">1</text>
</g>
<!-- B8&#45;&gt;P16 -->
<g id="edge34" class="edge"><title>B8:a&#45;&gt;P16:a</title>
<path fill="none" stroke="black" d="M677,-508C749.805,-508 761.47,-473.059 832,-455 884.876,-441.462 898.987,-441.858 953,-434 1005.7,-426.333 1019.11,-426.208 1072,-420 1173.73,-408.058 1198.6,-391.516 1301,-394 1346.82,-395.111 1358.3,-395.589 1404,-399 1457.01,-402.957 1479.41,-380.58 1523,-411 1538,-421.465 1525.5,-438.301 1541,-448 1600.4,-485.159 1624.5,-418.896 1694,-410 1724.42,-406.106 1733.91,-400.283 1763,-410 1826.82,-431.321 1834.86,-455.031 1884,-501 1896.43,-512.625 1899.22,-516.071 1909,-530 1915.59,-539.392 1913.74,-551.397 1917.74,-557.697"/>
<polygon fill="black" stroke="black" points="1916.46,-560.96 1927,-562 1919.41,-554.612 1916.46,-560.96"/>
<text text-anchor="middle" x="1297.5" y="-397.8" font-family="Times,serif" font-size="14.00">1</text>
</g>
<!-- B8&#45;&gt;P17 -->
<g id="edge35" class="edge"><title>B8:a&#45;&gt;P17:a</title>
<path fill="none" stroke="black" d="M677,-508C704.122,-508 899.707,-911.907 910,-937 936.157,-1000.77 906.372,-1035.24 953,-1086 1023.19,-1162.41 1073.75,-1150 1177.5,-1150 1177.5,-1150 1177.5,-1150 1785.5,-1150 1838.28,-1150 1849.86,-1135.19 1902,-1127 2011.19,-1109.84 2043.75,-1131.77 2149,-1098 2237.83,-1069.5 2388.05,-929.96 2501,-862 2508.07,-857.746 2610.78,-802.965 2644.14,-788.489"/>
<polygon fill="black" stroke="black" points="2645.74,-791.636 2654,-785 2643.41,-785.037 2645.74,-791.636"/>
<text text-anchor="middle" x="1672.5" y="-1153.8" font-family="Times,serif" font-size="14.00">1</text>
</g>
<!-- B9&#45;&gt;P6 -->
<g id="edge38" class="edge"><title>B9:a&#45;&gt;P6:a</title>
<path fill="none" stroke="black" d="M1806,-730C1716.09,-730 1727.43,-812.647 1651,-860 1605.66,-888.093 1588.41,-883.561 1541,-908 1535.82,-910.672 1533.42,-914.135 1530.46,-916.653"/>
<polygon fill="black" stroke="black" points="1529.26,-913.366 1521,-920 1531.59,-919.966 1529.26,-913.366"/>
<text text-anchor="middle" x="1672.5" y="-849.8" font-family="Times,serif" font-size="14.00">1</text>
</g>
<!-- B9&#45;&gt;P16 -->
<g id="edge39" class="edge"><title>B9:a&#45;&gt;P16:a</title>
<path fill="none" stroke="black" d="M1884,-730C1896.62,-730 1905.22,-691.042 1909,-679 1915.77,-657.431 1904.77,-586.526 1918.24,-567.011"/>
<polygon fill="black" stroke="black" points="1920.06,-570.003 1927,-562 1916.58,-563.926 1920.06,-570.003"/>
<text text-anchor="middle" x="1905.5" y="-705.8" font-family="Times,serif" font-size="14.00">1</text>
</g>
<!-- B10&#45;&gt;P8 -->
<g id="edge42" class="edge"><title>B10:a&#45;&gt;P8:a</title>
<path fill="none" stroke="black" d="M3260,-696C3231.88,-696 3239.31,-594.113 3217,-577 3164.29,-536.569 2091.93,-476 2025.5,-476 1844,-476 1844,-476 1844,-476 1811.65,-476 1801.11,-476.807 1773.19,-476.971"/>
<polygon fill="black" stroke="black" points="1772.99,-473.472 1763,-477 1773.01,-480.472 1772.99,-473.472"/>
<text text-anchor="middle" x="2504.5" y="-505.8" font-family="Times,serif" font-size="14.00">1</text>
</g>
<!-- B10&#45;&gt;P16 -->
<g id="edge43" class="edge"><title>B10:a&#45;&gt;P16:a</title>
<path fill="none" stroke="black" d="M3260,-696C3201.33,-696 3238.67,-591 3180,-591 2878.5,-591 2878.5,-591 2878.5,-591 2794.25,-591 2777.25,-552 2693,-552 2084,-552 2084,-552 2084,-552 2051.41,-552 2041.28,-560.072 2013.25,-561.712"/>
<polygon fill="black" stroke="black" points="2012.9,-558.22 2003,-562 2013.09,-565.217 2012.9,-558.22"/>
<text text-anchor="middle" x="2632.5" y="-555.8" font-family="Times,serif" font-size="14.00">1</text>
</g>
<!-- B11&#45;&gt;P15 -->
<g id="edge45" class="edge"><title>B11:a&#45;&gt;P15:a</title>
<path fill="none" stroke="black" d="M2279,-296C2245,-296 2236.5,-296 2202.5,-296 1844,-296 1844,-296 1844,-296 1806.28,-296 1565.99,-420.755 1541,-449 1525.35,-466.688 1538.87,-481.511 1523,-499 1497.88,-526.676 1470.35,-505.818 1447,-535 1424.23,-563.455 1442.49,-581.143 1429,-615 1420.96,-635.181 1420.59,-642.971 1404,-657 1373.06,-683.172 1355.67,-672.75 1319,-690 1302.75,-697.642 1298.95,-708.896 1286.03,-712.694"/>
<polygon fill="black" stroke="black" points="1285.46,-709.238 1276,-714 1286.37,-716.18 1285.46,-709.238"/>
<text text-anchor="middle" x="1784.5" y="-319.8" font-family="Times,serif" font-size="14.00">1</text>
</g>
<!-- B12&#45;&gt;P4 -->
<g id="edge47" class="edge"><title>B12:a&#45;&gt;P4:a</title>
<path fill="none" stroke="black" d="M1651,-192C1685,-192 1693.5,-192 1727.5,-192 1727.5,-192 1727.5,-192 2086,-192 2116.64,-192 2122.16,-205.226 2149,-220 2153.21,-222.318 2155.31,-225.318 2157.55,-227.738"/>
<polygon fill="black" stroke="black" points="2156.45,-231.078 2167,-232 2159.32,-224.697 2156.45,-231.078"/>
<text text-anchor="middle" x="1905.5" y="-195.8" font-family="Times,serif" font-size="14.00">1</text>
</g>
<!-- B12&#45;&gt;P8 -->
<g id="edge48" class="edge"><title>B12:a&#45;&gt;P8:a</title>
<path fill="none" stroke="black" d="M1651,-192C1680.09,-192 1665.39,-427.077 1686.44,-470.236"/>
<polygon fill="black" stroke="black" points="1684.21,-472.94 1694,-477 1688.88,-467.724 1684.21,-472.94"/>
<text text-anchor="middle" x="1672.5" y="-403.8" font-family="Times,serif" font-size="14.00">1</text>
</g>
<!-- B13&#45;&gt;P3 -->
<g id="edge52" class="edge"><title>B13:a&#45;&gt;P3:a</title>
<path fill="none" stroke="black" d="M2858,-105C2870.32,-105 2873.83,-108.768 2883,-117 2890.59,-123.808 2889.26,-134.559 2892.17,-140.881"/>
<polygon fill="black" stroke="black" points="2890.59,-144.014 2901,-146 2894.1,-137.958 2890.59,-144.014"/>
<text text-anchor="middle" x="2879.5" y="-120.8" font-family="Times,serif" font-size="14.00">1</text>
</g>
<!-- B14&#45;&gt;P13 -->
<g id="edge56" class="edge"><title>B14:a&#45;&gt;P13:a</title>
<path fill="none" stroke="black" d="M437,-590C459.023,-590 455.913,-561.523 470.081,-552.625"/>
<polygon fill="black" stroke="black" points="471.228,-555.942 480,-550 469.437,-549.175 471.228,-555.942"/>
<text text-anchor="middle" x="458.5" y="-580.8" font-family="Times,serif" font-size="14.00">1</text>
</g>
<!-- B15&#45;&gt;P7 -->
<g id="edge58" class="edge"><title>B15:a&#45;&gt;P7:a</title>
<path fill="none" stroke="black" d="M1404,-636C1411.12,-636 1426.9,-583.802 1429,-577 1434.57,-558.992 1429.06,-501.404 1440.45,-483.419"/>
<polygon fill="black" stroke="black" points="1442.43,-486.309 1449,-478 1438.68,-480.396 1442.43,-486.309"/>
<text text-anchor="middle" x="1425.5" y="-600.8" font-family="Times,serif" font-size="14.00">1</text>
</g>
<!-- B16&#45;&gt;P4 -->
<g id="edge60" class="edge"><title>B16:a&#45;&gt;P4:a</title>
<path fill="none" stroke="black" d="M3013,-56C2976.79,-56 2972.71,-28 2936.5,-28 2503.5,-28 2503.5,-28 2503.5,-28 2364.12,-28 2364.46,-132.991 2254,-218 2249.73,-221.284 2247.78,-225.03 2245.37,-227.82"/>
<polygon fill="black" stroke="black" points="2243.71,-224.729 2236,-232 2246.56,-231.121 2243.71,-224.729"/>
<text text-anchor="middle" x="2632.5" y="-31.8" font-family="Times,serif" font-size="14.00">1</text>
</g>
<!-- B17&#45;&gt;P6 -->
<g id="edge62" class="edge"><title>B17:a&#45;&gt;P6:a</title>
<path fill="none" stroke="black" d="M2773,-833C2757.45,-833 2767.55,-853.823 2755,-863 2663.01,-930.25 2619.45,-922 2505.5,-922 2256.5,-922 2256.5,-922 2256.5,-922 2047.17,-922 1994.83,-922 1785.5,-922 1607.5,-922 1607.5,-922 1607.5,-922 1572.65,-922 1561.51,-920.357 1531.1,-920.049"/>
<polygon fill="black" stroke="black" points="1531.02,-916.549 1521,-920 1530.98,-923.549 1531.02,-916.549"/>
<text text-anchor="middle" x="2145.5" y="-925.8" font-family="Times,serif" font-size="14.00">1</text>
</g>
<!-- B18&#45;&gt;P0 -->
<g id="edge66" class="edge"><title>B18:a&#45;&gt;P0:a</title>
<path fill="none" stroke="black" d="M1072,-653C1036.44,-653 1027.56,-652 992,-652 393.5,-652 393.5,-652 393.5,-652 363.101,-652 356.427,-643.625 327,-636 323.484,-635.089 321.188,-634.018 319.023,-633.101"/>
<polygon fill="black" stroke="black" points="319.505,-629.627 309,-631 318.069,-636.478 319.505,-629.627"/>
<text text-anchor="middle" x="698.5" y="-655.8" font-family="Times,serif" font-size="14.00">1</text>
</g>
<!-- B18&#45;&gt;P15 -->
<g id="edge67" class="edge"><title>B18:a&#45;&gt;P15:a</title>
<path fill="none" stroke="black" d="M1157,-653C1186.15,-653 1171.65,-700.121 1190.24,-711.533"/>
<polygon fill="black" stroke="black" points="1189.45,-714.944 1200,-714 1191.16,-708.157 1189.45,-714.944"/>
<text text-anchor="middle" x="1178.5" y="-702.8" font-family="Times,serif" font-size="14.00">1</text>
</g>
<!-- B19&#45;&gt;P12 -->
<g id="edge69" class="edge"><title>B19:a&#45;&gt;P12:a</title>
<path fill="none" stroke="black" d="M1319,-816C1083.53,-816 998.651,-702.615 991.501,-628.222"/>
<polygon fill="black" stroke="black" points="994.985,-627.817 991,-618 987.993,-628.159 994.985,-627.817"/>
<text text-anchor="middle" x="1178.5" y="-803.8" font-family="Times,serif" font-size="14.00">1</text>
</g>
<!-- B20&#45;&gt;P8 -->
<g id="edge73" class="edge"><title>B20:a&#45;&gt;P8:a</title>
<path fill="none" stroke="black" d="M3013,-400C2979,-400 2970.5,-400 2936.5,-400 1904.5,-400 1904.5,-400 1904.5,-400 1843.08,-400 1832.37,-428.342 1781,-462 1776.24,-465.121 1774.41,-469.314 1772.04,-472.474"/>
<polygon fill="black" stroke="black" points="1770.37,-469.393 1763,-477 1773.51,-475.652 1770.37,-469.393"/>
<text text-anchor="middle" x="2385.5" y="-403.8" font-family="Times,serif" font-size="14.00">1</text>
</g>
<!-- B20&#45;&gt;P17 -->
<g id="edge74" class="edge"><title>B20:a&#45;&gt;P17:a</title>
<path fill="none" stroke="black" d="M3013,-400C2987.35,-400 3008.81,-492.386 2995,-514 2967.93,-556.383 2938.26,-543.215 2901,-577 2814.95,-655.037 2847.6,-777.564 2740.12,-784.676"/>
<polygon fill="black" stroke="black" points="2739.88,-781.182 2730,-785 2740.11,-788.178 2739.88,-781.182"/>
<text text-anchor="middle" x="2879.5" y="-607.8" font-family="Times,serif" font-size="14.00">1</text>
</g>
<!-- B21&#45;&gt;P8 -->
<g id="edge76" class="edge"><title>B21:a&#45;&gt;P8:a</title>
<path fill="none" stroke="black" d="M1651,-806C1720.2,-806 1727.93,-582.796 1728.47,-500.237"/>
<polygon fill="black" stroke="black" points="1731.97,-500.012 1728.5,-490 1724.97,-499.988 1731.97,-500.012"/>
<text text-anchor="middle" x="1672.5" y="-802.8" font-family="Times,serif" font-size="14.00">1</text>
</g>
<!-- B23&#45;&gt;P10 -->
<g id="edge80" class="edge"><title>B23:a&#45;&gt;P10:a</title>
<path fill="none" stroke="black" d="M1651,-741C1664.51,-741 1682.91,-776.279 1694,-784 1774.04,-839.725 1806.97,-846 1904.5,-846 1904.5,-846 1904.5,-846 2146.5,-846 2205.72,-846 2219.87,-835.115 2279,-832 2327.82,-829.428 2340.28,-827.968 2389,-832 2392.54,-832.293 2394.87,-832.903 2397.06,-833.498"/>
<polygon fill="black" stroke="black" points="2396.59,-836.967 2407,-835 2397.64,-830.045 2396.59,-836.967"/>
<text text-anchor="middle" x="2024.5" y="-849.8" font-family="Times,serif" font-size="14.00">1</text>
</g>
<!-- B23&#45;&gt;P12 -->
<g id="edge81" class="edge"><title>B23:a&#45;&gt;P12:a</title>
<path fill="none" stroke="black" d="M1566,-741C1561.25,-741 1526.47,-811.745 1523,-815 1495.47,-840.853 1470.09,-823.118 1447,-853 1423.39,-883.555 1457.5,-911.94 1429,-938 1392.91,-971.005 1367.5,-947.275 1319,-941 1206.42,-926.435 1167.28,-937.708 1072,-876 1024.22,-845.056 994.279,-695.152 991.253,-628.349"/>
<polygon fill="black" stroke="black" points="994.744,-627.911 991,-618 987.746,-628.083 994.744,-627.911"/>
<text text-anchor="middle" x="1297.5" y="-941.8" font-family="Times,serif" font-size="14.00">1</text>
</g>
<!-- B23&#45;&gt;P16 -->
<g id="edge82" class="edge"><title>B23:a&#45;&gt;P16:a</title>
<path fill="none" stroke="black" d="M1651,-741C1715.92,-741 1865.62,-652.293 1909,-604 1919.18,-592.669 1912.79,-574.709 1917.53,-566.438"/>
<polygon fill="black" stroke="black" points="1919.43,-569.412 1927,-562 1916.46,-563.073 1919.43,-569.412"/>
<text text-anchor="middle" x="1784.5" y="-697.8" font-family="Times,serif" font-size="14.00">1</text>
</g>
<!-- B24&#45;&gt;P5 -->
<g id="edge85" class="edge"><title>B24:a&#45;&gt;P5:a</title>
<path fill="none" stroke="black" d="M1404,-456C1410.37,-456 1434.94,-256.484 1445.58,-209.723"/>
<polygon fill="black" stroke="black" points="1448.98,-210.595 1449,-200 1442.38,-208.269 1448.98,-210.595"/>
<text text-anchor="middle" x="1425.5" y="-353.8" font-family="Times,serif" font-size="14.00">1</text>
</g>
<!-- B25&#45;&gt;P11 -->
<g id="edge88" class="edge"><title>B25:a&#45;&gt;P11:a</title>
<path fill="none" stroke="black" d="M3098,-920C3110.14,-920 3114.66,-922.181 3123,-931 3135.35,-944.062 3125.23,-966.396 3131.61,-975.237"/>
<polygon fill="black" stroke="black" points="3130.42,-978.53 3141,-979 3133.02,-972.032 3130.42,-978.53"/>
<text text-anchor="middle" x="3119.5" y="-934.8" font-family="Times,serif" font-size="14.00">1</text>
</g>
<!-- B26&#45;&gt;P12 -->
<g id="edge92" class="edge"><title>B26:a&#45;&gt;P12:a</title>
<path fill="none" stroke="black" d="M2526,-749C2240.54,-749 2169.43,-763.777 1884,-768 1849.34,-768.513 1839.87,-775.388 1806,-768 1731.97,-751.851 1725.03,-713.149 1651,-697 1614.09,-688.949 1603.49,-692.347 1566,-697 1511.87,-703.718 1487.91,-690.93 1447,-727 1407.63,-761.713 1446.62,-806.359 1404,-837 1333.36,-887.786 1334.84,-845.91 1294,-842 1192.71,-832.301 1153.04,-847.54 1072,-786 1008.82,-738.024 992.382,-703.926 991.086,-628.425"/>
<polygon fill="black" stroke="black" points="994.582,-627.971 991,-618 987.583,-628.029 994.582,-627.971"/>
<text text-anchor="middle" x="1784.5" y="-766.8" font-family="Times,serif" font-size="14.00">1</text>
</g>
<!-- B26&#45;&gt;P17 -->
<g id="edge93" class="edge"><title>B26:a&#45;&gt;P17:a</title>
<path fill="none" stroke="black" d="M2611,-749C2631.84,-749 2630.47,-774.156 2644.02,-782.411"/>
<polygon fill="black" stroke="black" points="2643.44,-785.877 2654,-785 2645.2,-779.102 2643.44,-785.877"/>
<text text-anchor="middle" x="2632.5" y="-776.8" font-family="Times,serif" font-size="14.00">1</text>
</g>
<!-- B27&#45;&gt;P10 -->
<g id="edge97" class="edge"><title>B27:a&#45;&gt;P10:a</title>
<path fill="none" stroke="black" d="M2773,-998C2762,-998 2645.82,-859.967 2636,-855 2577.92,-825.612 2554.04,-833.995 2493.11,-834.922"/>
<polygon fill="black" stroke="black" points="2492.97,-831.423 2483,-835 2493.03,-838.423 2492.97,-831.423"/>
<text text-anchor="middle" x="2632.5" y="-858.8" font-family="Times,serif" font-size="14.00">1</text>
</g>
<!-- B27&#45;&gt;P11 -->
<g id="edge98" class="edge"><title>B27:a&#45;&gt;P11:a</title>
<path fill="none" stroke="black" d="M2858,-998C2980.61,-998 3013.18,-980.025 3130.87,-979.042"/>
<polygon fill="black" stroke="black" points="3131.01,-982.541 3141,-979 3130.99,-975.541 3131.01,-982.541"/>
<text text-anchor="middle" x="2991.5" y="-992.8" font-family="Times,serif" font-size="14.00">1</text>
</g>
<!-- B27&#45;&gt;P15 -->
<g id="edge99" class="edge"><title>B27:a&#45;&gt;P15:a</title>
<path fill="none" stroke="black" d="M2773,-998C2762.87,-998 2763.82,-1007.01 2755,-1012 2729.29,-1026.56 2722.55,-1036 2693,-1036 2144.5,-1036 2144.5,-1036 2144.5,-1036 2037.38,-1036 2013.62,-998 1906.5,-998 1543.5,-998 1543.5,-998 1543.5,-998 1440.56,-998 1395.79,-1009.56 1319,-941 1245.73,-875.588 1238.43,-831.771 1238.02,-737.231"/>
<polygon fill="black" stroke="black" points="1241.52,-736.993 1238,-727 1234.52,-737.007 1241.52,-736.993"/>
<text text-anchor="middle" x="2024.5" y="-1020.8" font-family="Times,serif" font-size="14.00">1</text>
</g>
<!-- B29&#45;&gt;P2 -->
<g id="edge102" class="edge"><title>B29:a&#45;&gt;P2:a</title>
<path fill="none" stroke="black" d="M2279,-714C2138.11,-714 1926.39,-1112 1785.5,-1112 1177.5,-1112 1177.5,-1112 1177.5,-1112 1072.98,-1112 1015.56,-1125.73 953,-1042 948.717,-1036.27 911.721,-794.946 910,-788 883.337,-680.362 862.928,-657.491 832,-551 819.343,-507.42 816.196,-496.44 807,-452 802.668,-431.066 810.862,-364.716 797.677,-345.974"/>
<polygon fill="black" stroke="black" points="799.416,-342.937 789,-341 795.935,-349.01 799.416,-342.937"/>
<text text-anchor="middle" x="1544.5" y="-1115.8" font-family="Times,serif" font-size="14.00">1</text>
</g>
<!-- B29&#45;&gt;P8 -->
<g id="edge103" class="edge"><title>B29:a&#45;&gt;P8:a</title>
<path fill="none" stroke="black" d="M2279,-714C2197.36,-714 1809.35,-552.872 1781,-524 1768.76,-511.531 1778.31,-489.858 1772.41,-480.973"/>
<polygon fill="black" stroke="black" points="1773.57,-477.666 1763,-477 1770.85,-484.114 1773.57,-477.666"/>
<text text-anchor="middle" x="2024.5" y="-639.8" font-family="Times,serif" font-size="14.00">1</text>
</g>
<!-- B29&#45;&gt;P10 -->
<g id="edge104" class="edge"><title>B29:a&#45;&gt;P10:a</title>
<path fill="none" stroke="black" d="M2364,-714C2396.62,-714 2378.11,-752.254 2389,-783 2395.7,-801.911 2387.06,-824.787 2397.24,-832.398"/>
<polygon fill="black" stroke="black" points="2396.44,-835.805 2407,-835 2398.24,-829.042 2396.44,-835.805"/>
<text text-anchor="middle" x="2385.5" y="-786.8" font-family="Times,serif" font-size="14.00">1</text>
</g>
</g>
</svg>
