<?xml version="1.0" encoding="UTF-8" standalone="no"?>
<!DOCTYPE svg PUBLIC "-//W3C//DTD SVG 1.1//EN"
 "http://www.w3.org/Graphics/SVG/1.1/DTD/svg11.dtd">
<!-- Generated by graphviz version 2.38.0 (20140413.2041)
 -->
<!-- Title: g Pages: 1 -->
<svg width="776pt" height="620pt"
 viewBox="0.00 0.00 776.00 620.00" xmlns="http://www.w3.org/2000/svg" xmlns:xlink="http://www.w3.org/1999/xlink">
<g id="graph0" class="graph" transform="scale(1 1) rotate(0) translate(4 616)">
<title>g</title>
<polygon fill="white" stroke="none" points="-4,4 -4,-616 772,-616 772,4 -4,4"/>
<!-- P0 -->
<g id="node1" class="node"><title>P0</title>
<polygon fill="none" stroke="black" points="466,-71.5 466,-140.5 535,-140.5 535,-71.5 466,-71.5"/>
<text text-anchor="middle" x="500.5" y="-125.3" font-family="Times,serif" font-size="14.00">Product 0</text>
<polyline fill="none" stroke="black" points="466,-117.5 535,-117.5 "/>
<text text-anchor="middle" x="500.5" y="-102.3" font-family="Times,serif" font-size="14.00">Value 2</text>
<polyline fill="none" stroke="black" points="466,-94.5 535,-94.5 "/>
<text text-anchor="middle" x="500.5" y="-79.3" font-family="Times,serif" font-size="14.00">Initial 18</text>
</g>
<!-- B1 -->
<g id="node12" class="node"><title>B1</title>
<path fill="none" stroke="black" d="M590,-358C590,-358 644,-358 644,-358 650,-358 656,-364 656,-370 656,-370 656,-392 656,-392 656,-398 650,-404 644,-404 644,-404 590,-404 590,-404 584,-404 578,-398 578,-392 578,-392 578,-370 578,-370 578,-364 584,-358 590,-358"/>
<text text-anchor="middle" x="617" y="-388.8" font-family="Times,serif" font-size="14.00">Blueprint 1</text>
<polyline fill="none" stroke="black" points="578,-381 656,-381 "/>
<text text-anchor="middle" x="617" y="-365.8" font-family="Times,serif" font-size="14.00">Coolant 6</text>
</g>
<!-- P0&#45;&gt;B1 -->
<g id="edge8" class="edge"><title>P0:a&#45;&gt;B1:a</title>
<path fill="none" stroke="black" d="M535,-129C548.235,-129 560.216,-338.408 573.177,-384.216"/>
<polygon fill="black" stroke="black" points="570.119,-385.919 578,-393 576.255,-382.55 570.119,-385.919"/>
<text text-anchor="middle" x="556.5" y="-295.8" font-family="Times,serif" font-size="14.00">2</text>
</g>
<!-- P1 -->
<g id="node2" class="node"><title>P1</title>
<polygon fill="none" stroke="black" points="233,-385.5 233,-454.5 302,-454.5 302,-385.5 233,-385.5"/>
<text text-anchor="middle" x="267.5" y="-439.3" font-family="Times,serif" font-size="14.00">Product 1</text>
<polyline fill="none" stroke="black" points="233,-431.5 302,-431.5 "/>
<text text-anchor="middle" x="267.5" y="-416.3" font-family="Times,serif" font-size="14.00">Value 10</text>
<polyline fill="none" stroke="black" points="233,-408.5 302,-408.5 "/>
<text text-anchor="middle" x="267.5" y="-393.3" font-family="Times,serif" font-size="14.00">Initial 11</text>
</g>
<!-- B0 -->
<g id="node11" class="node"><title>B0</title>
<path fill="none" stroke="black" d="M357,-182C357,-182 411,-182 411,-182 417,-182 423,-188 423,-194 423,-194 423,-216 423,-216 423,-222 417,-228 411,-228 411,-228 357,-228 357,-228 351,-228 345,-222 345,-216 345,-216 345,-194 345,-194 345,-188 351,-182 357,-182"/>
<text text-anchor="middle" x="384" y="-212.8" font-family="Times,serif" font-size="14.00">Blueprint 0</text>
<polyline fill="none" stroke="black" points="345,-205 423,-205 "/>
<text text-anchor="middle" x="384" y="-189.8" font-family="Times,serif" font-size="14.00">Coolant 4</text>
</g>
<!-- P1&#45;&gt;B0 -->
<g id="edge1" class="edge"><title>P1:a&#45;&gt;B0:a</title>
<path fill="none" stroke="black" d="M302,-443C304.798,-443 366.021,-280.149 380.807,-238.547"/>
<polygon fill="black" stroke="black" points="384.148,-239.594 384,-229 377.509,-237.374 384.148,-239.594"/>
<text text-anchor="middle" x="323.5" y="-400.8" font-family="Times,serif" font-size="14.00">1</text>
</g>
<!-- P1&#45;&gt;B1 -->
<g id="edge9" class="edge"><title>P1:a&#45;&gt;B1:a</title>
<path fill="none" stroke="black" d="M302,-443C330.873,-443 534.206,-424.973 560,-412 566.008,-408.978 567.197,-403.1 569.379,-398.678"/>
<polygon fill="black" stroke="black" points="571.574,-401.424 578,-393 567.724,-395.578 571.574,-401.424"/>
<text text-anchor="middle" x="444.5" y="-434.8" font-family="Times,serif" font-size="14.00">2</text>
</g>
<!-- P2 -->
<g id="node3" class="node"><title>P2</title>
<polygon fill="none" stroke="black" points="0,-518.5 0,-587.5 69,-587.5 69,-518.5 0,-518.5"/>
<text text-anchor="middle" x="34.5" y="-572.3" font-family="Times,serif" font-size="14.00">Product 2</text>
<polyline fill="none" stroke="black" points="0,-564.5 69,-564.5 "/>
<text text-anchor="middle" x="34.5" y="-549.3" font-family="Times,serif" font-size="14.00">Value 4</text>
<polyline fill="none" stroke="black" points="0,-541.5 69,-541.5 "/>
<text text-anchor="middle" x="34.5" y="-526.3" font-family="Times,serif" font-size="14.00">Initial 10</text>
</g>
<!-- P2&#45;&gt;B1 -->
<g id="edge10" class="edge"><title>P2:a&#45;&gt;B1:a</title>
<path fill="none" stroke="black" d="M69,-576C77.5836,-576 78.7866,-580.506 87,-583 114.446,-591.333 121.317,-597 150,-597 150,-597 150,-597 501.5,-597 597.68,-597 615.814,-510.793 616.942,-415.183"/>
<polygon fill="black" stroke="black" points="620.442,-415.02 617,-405 613.443,-414.98 620.442,-415.02"/>
<text text-anchor="middle" x="323.5" y="-600.8" font-family="Times,serif" font-size="14.00">2</text>
</g>
<!-- B3 -->
<g id="node14" class="node"><title>B3</title>
<path fill="none" stroke="black" d="M124,-509C124,-509 178,-509 178,-509 184,-509 190,-515 190,-521 190,-521 190,-543 190,-543 190,-549 184,-555 178,-555 178,-555 124,-555 124,-555 118,-555 112,-549 112,-543 112,-543 112,-521 112,-521 112,-515 118,-509 124,-509"/>
<text text-anchor="middle" x="151" y="-539.8" font-family="Times,serif" font-size="14.00">Blueprint 3</text>
<polyline fill="none" stroke="black" points="112,-532 190,-532 "/>
<text text-anchor="middle" x="151" y="-516.8" font-family="Times,serif" font-size="14.00">Coolant 2</text>
</g>
<!-- P2&#45;&gt;B3 -->
<g id="edge20" class="edge"><title>P2:a&#45;&gt;B3:a</title>
<path fill="none" stroke="black" d="M69,-576C88.7279,-576 88.9333,-554.055 101.95,-546.511"/>
<polygon fill="black" stroke="black" points="103.147,-549.82 112,-544 101.45,-543.029 103.147,-549.82"/>
<text text-anchor="middle" x="90.5" y="-567.8" font-family="Times,serif" font-size="14.00">1</text>
</g>
<!-- P3 -->
<g id="node4" class="node"><title>P3</title>
<polygon fill="none" stroke="black" points="466,-247.5 466,-316.5 535,-316.5 535,-247.5 466,-247.5"/>
<text text-anchor="middle" x="500.5" y="-301.3" font-family="Times,serif" font-size="14.00">Product 3</text>
<polyline fill="none" stroke="black" points="466,-293.5 535,-293.5 "/>
<text text-anchor="middle" x="500.5" y="-278.3" font-family="Times,serif" font-size="14.00">Value 8</text>
<polyline fill="none" stroke="black" points="466,-270.5 535,-270.5 "/>
<text text-anchor="middle" x="500.5" y="-255.3" font-family="Times,serif" font-size="14.00">Initial 3</text>
</g>
<!-- P3&#45;&gt;B1 -->
<g id="edge11" class="edge"><title>P3:a&#45;&gt;B1:a</title>
<path fill="none" stroke="black" d="M535,-305C553.449,-305 555.879,-368.23 569.447,-387.495"/>
<polygon fill="black" stroke="black" points="567.697,-390.531 578,-393 571.485,-384.645 567.697,-390.531"/>
<text text-anchor="middle" x="556.5" y="-365.8" font-family="Times,serif" font-size="14.00">2</text>
</g>
<!-- P4 -->
<g id="node5" class="node"><title>P4</title>
<polygon fill="none" stroke="black" points="233,-486.5 233,-555.5 302,-555.5 302,-486.5 233,-486.5"/>
<text text-anchor="middle" x="267.5" y="-540.3" font-family="Times,serif" font-size="14.00">Product 4</text>
<polyline fill="none" stroke="black" points="233,-532.5 302,-532.5 "/>
<text text-anchor="middle" x="267.5" y="-517.3" font-family="Times,serif" font-size="14.00">Value 1</text>
<polyline fill="none" stroke="black" points="233,-509.5 302,-509.5 "/>
<text text-anchor="middle" x="267.5" y="-494.3" font-family="Times,serif" font-size="14.00">Initial 17</text>
</g>
<!-- P4&#45;&gt;B1 -->
<g id="edge12" class="edge"><title>P4:a&#45;&gt;B1:a</title>
<path fill="none" stroke="black" d="M302,-544C310.012,-544 311.991,-544.778 320,-545 323.11,-545.086 323.889,-545.037 327,-545 419.464,-543.889 445.087,-561.601 535,-540 599.926,-524.402 615.528,-479.851 616.897,-415.126"/>
<polygon fill="black" stroke="black" points="620.398,-415.035 617,-405 613.398,-414.964 620.398,-415.035"/>
<text text-anchor="middle" x="444.5" y="-553.8" font-family="Times,serif" font-size="14.00">2</text>
</g>
<!-- B2 -->
<g id="node13" class="node"><title>B2</title>
<path fill="none" stroke="black" d="M357,-484C357,-484 411,-484 411,-484 417,-484 423,-490 423,-496 423,-496 423,-518 423,-518 423,-524 417,-530 411,-530 411,-530 357,-530 357,-530 351,-530 345,-524 345,-518 345,-518 345,-496 345,-496 345,-490 351,-484 357,-484"/>
<text text-anchor="middle" x="384" y="-514.8" font-family="Times,serif" font-size="14.00">Blueprint 2</text>
<polyline fill="none" stroke="black" points="345,-507 423,-507 "/>
<text text-anchor="middle" x="384" y="-491.8" font-family="Times,serif" font-size="14.00">Coolant 7</text>
</g>
<!-- P4&#45;&gt;B2 -->
<g id="edge17" class="edge"><title>P4:a&#45;&gt;B2:a</title>
<path fill="none" stroke="black" d="M302,-544C312.135,-544 311.296,-535.191 320,-530 326.679,-526.017 330.079,-522.623 334.851,-520.697"/>
<polygon fill="black" stroke="black" points="335.714,-524.102 345,-519 334.56,-517.198 335.714,-524.102"/>
<text text-anchor="middle" x="323.5" y="-533.8" font-family="Times,serif" font-size="14.00">1</text>
</g>
<!-- P5 -->
<g id="node6" class="node"><title>P5</title>
<polygon fill="none" stroke="black" points="466,-461.5 466,-530.5 535,-530.5 535,-461.5 466,-461.5"/>
<text text-anchor="middle" x="500.5" y="-515.3" font-family="Times,serif" font-size="14.00">Product 5</text>
<polyline fill="none" stroke="black" points="466,-507.5 535,-507.5 "/>
<text text-anchor="middle" x="500.5" y="-492.3" font-family="Times,serif" font-size="14.00">Value 8</text>
<polyline fill="none" stroke="black" points="466,-484.5 535,-484.5 "/>
<text text-anchor="middle" x="500.5" y="-469.3" font-family="Times,serif" font-size="14.00">Initial 2</text>
</g>
<!-- P5&#45;&gt;B1 -->
<g id="edge13" class="edge"><title>P5:a&#45;&gt;B1:a</title>
<path fill="none" stroke="black" d="M535,-519C568.874,-519 549.088,-479.069 560,-447 566.749,-427.167 557.315,-403.15 568.24,-395.48"/>
<polygon fill="black" stroke="black" points="569.17,-398.855 578,-393 567.446,-392.07 569.17,-398.855"/>
<text text-anchor="middle" x="556.5" y="-512.8" font-family="Times,serif" font-size="14.00">1</text>
</g>
<!-- P6 -->
<g id="node7" class="node"><title>P6</title>
<polygon fill="none" stroke="black" points="699,-80.5 699,-149.5 768,-149.5 768,-80.5 699,-80.5"/>
<text text-anchor="middle" x="733.5" y="-134.3" font-family="Times,serif" font-size="14.00">Product 6</text>
<polyline fill="none" stroke="black" points="699,-126.5 768,-126.5 "/>
<text text-anchor="middle" x="733.5" y="-111.3" font-family="Times,serif" font-size="14.00">Value 3</text>
<polyline fill="none" stroke="black" points="699,-103.5 768,-103.5 "/>
<text text-anchor="middle" x="733.5" y="-88.3" font-family="Times,serif" font-size="14.00">Initial 4</text>
</g>
<!-- P7 -->
<g id="node8" class="node"><title>P7</title>
<polygon fill="none" stroke="black" points="233,-0.5 233,-69.5 302,-69.5 302,-0.5 233,-0.5"/>
<text text-anchor="middle" x="267.5" y="-54.3" font-family="Times,serif" font-size="14.00">Product 7</text>
<polyline fill="none" stroke="black" points="233,-46.5 302,-46.5 "/>
<text text-anchor="middle" x="267.5" y="-31.3" font-family="Times,serif" font-size="14.00">Value 3</text>
<polyline fill="none" stroke="black" points="233,-23.5 302,-23.5 "/>
<text text-anchor="middle" x="267.5" y="-8.3" font-family="Times,serif" font-size="14.00">Initial 16</text>
</g>
<!-- P7&#45;&gt;B0 -->
<g id="edge2" class="edge"><title>P7:a&#45;&gt;B0:a</title>
<path fill="none" stroke="black" d="M302,-58C371.345,-58 282.21,-200.673 334.84,-215.72"/>
<polygon fill="black" stroke="black" points="334.641,-219.223 345,-217 335.516,-212.277 334.641,-219.223"/>
<text text-anchor="middle" x="323.5" y="-214.8" font-family="Times,serif" font-size="14.00">1</text>
</g>
<!-- P7&#45;&gt;B1 -->
<g id="edge14" class="edge"><title>P7:a&#45;&gt;B1:a</title>
<path fill="none" stroke="black" d="M302,-58C416.709,-58 481.551,18.6888 560,-65 582.768,-89.2885 548.612,-342.147 570.128,-386.407"/>
<polygon fill="black" stroke="black" points="568.086,-389.262 578,-393 572.581,-383.896 568.086,-389.262"/>
<text text-anchor="middle" x="444.5" y="-34.8" font-family="Times,serif" font-size="14.00">1</text>
</g>
<!-- P8 -->
<g id="node9" class="node"><title>P8</title>
<polygon fill="none" stroke="black" points="466,-159.5 466,-228.5 535,-228.5 535,-159.5 466,-159.5"/>
<text text-anchor="middle" x="500.5" y="-213.3" font-family="Times,serif" font-size="14.00">Product 8</text>
<polyline fill="none" stroke="black" points="466,-205.5 535,-205.5 "/>
<text text-anchor="middle" x="500.5" y="-190.3" font-family="Times,serif" font-size="14.00">Value 9</text>
<polyline fill="none" stroke="black" points="466,-182.5 535,-182.5 "/>
<text text-anchor="middle" x="500.5" y="-167.3" font-family="Times,serif" font-size="14.00">Initial 18</text>
</g>
<!-- P9 -->
<g id="node10" class="node"><title>P9</title>
<polygon fill="none" stroke="black" points="466,-335.5 466,-404.5 535,-404.5 535,-335.5 466,-335.5"/>
<text text-anchor="middle" x="500.5" y="-389.3" font-family="Times,serif" font-size="14.00">Product 9</text>
<polyline fill="none" stroke="black" points="466,-381.5 535,-381.5 "/>
<text text-anchor="middle" x="500.5" y="-366.3" font-family="Times,serif" font-size="14.00">Value 5</text>
<polyline fill="none" stroke="black" points="466,-358.5 535,-358.5 "/>
<text text-anchor="middle" x="500.5" y="-343.3" font-family="Times,serif" font-size="14.00">Initial 5</text>
</g>
<!-- P9&#45;&gt;B1 -->
<g id="edge15" class="edge"><title>P9:a&#45;&gt;B1:a</title>
<path fill="none" stroke="black" d="M535,-393C550.229,-393 556.357,-393 567.888,-393"/>
<polygon fill="black" stroke="black" points="568,-396.5 578,-393 568,-389.5 568,-396.5"/>
<text text-anchor="middle" x="556.5" y="-396.8" font-family="Times,serif" font-size="14.00">3</text>
</g>
<!-- B0&#45;&gt;P0 -->
<g id="edge3" class="edge"><title>B0:a&#45;&gt;P0:a</title>
<path fill="none" stroke="black" d="M423,-217C441.449,-217 443.879,-153.77 457.447,-134.505"/>
<polygon fill="black" stroke="black" points="459.485,-137.355 466,-129 455.697,-131.469 459.485,-137.355"/>
<text text-anchor="middle" x="444.5" y="-190.8" font-family="Times,serif" font-size="14.00">1</text>
</g>
<!-- B0&#45;&gt;P3 -->
<g id="edge4" class="edge"><title>B0:a&#45;&gt;P3:a</title>
<path fill="none" stroke="black" d="M423,-217C441.449,-217 443.879,-280.23 457.447,-299.495"/>
<polygon fill="black" stroke="black" points="455.697,-302.531 466,-305 459.485,-296.645 455.697,-302.531"/>
<text text-anchor="middle" x="444.5" y="-278.8" font-family="Times,serif" font-size="14.00">1</text>
</g>
<!-- B0&#45;&gt;P6 -->
<g id="edge5" class="edge"><title>B0:a&#45;&gt;P6:a</title>
<path fill="none" stroke="black" d="M423,-217C427.468,-217 462.443,-64.7044 466,-62 519.988,-20.9504 630.316,-124.544 688.724,-136.825"/>
<polygon fill="black" stroke="black" points="688.667,-140.341 699,-138 689.462,-133.387 688.667,-140.341"/>
<text text-anchor="middle" x="556.5" y="-74.8" font-family="Times,serif" font-size="14.00">1</text>
</g>
<!-- B0&#45;&gt;P8 -->
<g id="edge6" class="edge"><title>B0:a&#45;&gt;P8:a</title>
<path fill="none" stroke="black" d="M423,-217C438.229,-217 444.357,-217 455.888,-217"/>
<polygon fill="black" stroke="black" points="456,-220.5 466,-217 456,-213.5 456,-220.5"/>
<text text-anchor="middle" x="444.5" y="-220.8" font-family="Times,serif" font-size="14.00">2</text>
</g>
<!-- B0&#45;&gt;P9 -->
<g id="edge7" class="edge"><title>B0:a&#45;&gt;P9:a</title>
<path fill="none" stroke="black" d="M423,-217C440.572,-217 436.849,-276.925 441,-294 442.084,-298.457 454.052,-360.435 461.592,-383.997"/>
<polygon fill="black" stroke="black" points="458.459,-385.558 466,-393 464.746,-382.48 458.459,-385.558"/>
<text text-anchor="middle" x="444.5" y="-328.8" font-family="Times,serif" font-size="14.00">1</text>
</g>
<!-- B1&#45;&gt;P6 -->
<g id="edge16" class="edge"><title>B1:a&#45;&gt;P6:a</title>
<path fill="none" stroke="black" d="M656,-393C767.229,-393 595.797,-154.171 688.808,-138.777"/>
<polygon fill="black" stroke="black" points="689.295,-142.251 699,-138 688.763,-135.271 689.295,-142.251"/>
<text text-anchor="middle" x="677.5" y="-391.8" font-family="Times,serif" font-size="14.00">1</text>
</g>
<!-- B2&#45;&gt;P5 -->
<g id="edge18" class="edge"><title>B2:a&#45;&gt;P5:a</title>
<path fill="none" stroke="black" d="M423,-519C438.229,-519 444.357,-519 455.888,-519"/>
<polygon fill="black" stroke="black" points="456,-522.5 466,-519 456,-515.5 456,-522.5"/>
<text text-anchor="middle" x="444.5" y="-522.8" font-family="Times,serif" font-size="14.00">1</text>
</g>
<!-- B2&#45;&gt;P9 -->
<g id="edge19" class="edge"><title>B2:a&#45;&gt;P9:a</title>
<path fill="none" stroke="black" d="M423,-519C438.892,-519 442.901,-467.051 448,-452 455.422,-430.091 443.616,-403.151 456.214,-395.267"/>
<polygon fill="black" stroke="black" points="457.048,-398.666 466,-393 455.468,-391.847 457.048,-398.666"/>
<text text-anchor="middle" x="444.5" y="-486.8" font-family="Times,serif" font-size="14.00">1</text>
</g>
<!-- B3&#45;&gt;P4 -->
<g id="edge21" class="edge"><title>B3:a&#45;&gt;P4:a</title>
<path fill="none" stroke="black" d="M190,-544C205.229,-544 211.357,-544 222.888,-544"/>
<polygon fill="black" stroke="black" points="223,-547.5 233,-544 223,-540.5 223,-547.5"/>
<text text-anchor="middle" x="211.5" y="-547.8" font-family="Times,serif" font-size="14.00">2</text>
</g>
<!-- B3&#45;&gt;P9 -->
<g id="edge22" class="edge"><title>B3:a&#45;&gt;P9:a</title>
<path fill="none" stroke="black" d="M190,-544C228.537,-544 203.817,-401.168 233,-376 309.019,-310.441 358.782,-387.536 455.831,-392.728"/>
<polygon fill="black" stroke="black" points="455.91,-396.231 466,-393 456.097,-389.234 455.91,-396.231"/>
<text text-anchor="middle" x="323.5" y="-357.8" font-family="Times,serif" font-size="14.00">1</text>
</g>
</g>
</svg>
