<?xml version="1.0" encoding="UTF-8" standalone="no"?>
<!DOCTYPE svg PUBLIC "-//W3C//DTD SVG 1.1//EN"
 "http://www.w3.org/Graphics/SVG/1.1/DTD/svg11.dtd">
<!-- Generated by graphviz version 2.38.0 (20140413.2041)
 -->
<!-- Title: g Pages: 1 -->
<svg width="1348pt" height="830pt"
 viewBox="0.00 0.00 1348.00 830.00" xmlns="http://www.w3.org/2000/svg" xmlns:xlink="http://www.w3.org/1999/xlink">
<g id="graph0" class="graph" transform="scale(1 1) rotate(0) translate(4 826)">
<title>g</title>
<polygon fill="white" stroke="none" points="-4,4 -4,-826 1344,-826 1344,4 -4,4"/>
<!-- P0 -->
<g id="node1" class="node"><title>P0</title>
<polygon fill="none" stroke="black" points="716.5,-671.5 716.5,-740.5 785.5,-740.5 785.5,-671.5 716.5,-671.5"/>
<text text-anchor="middle" x="751" y="-725.3" font-family="Times,serif" font-size="14.00">Product 0</text>
<polyline fill="none" stroke="black" points="716.5,-717.5 785.5,-717.5 "/>
<text text-anchor="middle" x="751" y="-702.3" font-family="Times,serif" font-size="14.00">Value 0</text>
<polyline fill="none" stroke="black" points="716.5,-694.5 785.5,-694.5 "/>
<text text-anchor="middle" x="751" y="-679.3" font-family="Times,serif" font-size="14.00">Initial 10</text>
</g>
<!-- P1 -->
<g id="node2" class="node"><title>P1</title>
<polygon fill="none" stroke="black" points="1027.5,-288.5 1027.5,-357.5 1096.5,-357.5 1096.5,-288.5 1027.5,-288.5"/>
<text text-anchor="middle" x="1062" y="-342.3" font-family="Times,serif" font-size="14.00">Product 1</text>
<polyline fill="none" stroke="black" points="1027.5,-334.5 1096.5,-334.5 "/>
<text text-anchor="middle" x="1062" y="-319.3" font-family="Times,serif" font-size="14.00">Value 1</text>
<polyline fill="none" stroke="black" points="1027.5,-311.5 1096.5,-311.5 "/>
<text text-anchor="middle" x="1062" y="-296.3" font-family="Times,serif" font-size="14.00">Initial 5</text>
</g>
<!-- B5 -->
<g id="node24" class="node"><title>B5</title>
<path fill="none" stroke="black" d="M1155,-189C1155,-189 1209,-189 1209,-189 1215,-189 1221,-195 1221,-201 1221,-201 1221,-223 1221,-223 1221,-229 1215,-235 1209,-235 1209,-235 1155,-235 1155,-235 1149,-235 1143,-229 1143,-223 1143,-223 1143,-201 1143,-201 1143,-195 1149,-189 1155,-189"/>
<text text-anchor="middle" x="1182" y="-219.8" font-family="Times,serif" font-size="14.00">Blueprint 5</text>
<polyline fill="none" stroke="black" points="1143,-212 1221,-212 "/>
<text text-anchor="middle" x="1182" y="-196.8" font-family="Times,serif" font-size="14.00">Coolant 4</text>
</g>
<!-- P1&#45;&gt;B5 -->
<g id="edge31" class="edge"><title>P1:a&#45;&gt;B5:a</title>
<path fill="none" stroke="black" d="M1098,-346C1151.96,-346 1094.02,-239.665 1133.11,-225.543"/>
<polygon fill="black" stroke="black" points="1133.66,-228.999 1143,-224 1132.58,-222.083 1133.66,-228.999"/>
<text text-anchor="middle" x="1121.5" y="-339.8" font-family="Times,serif" font-size="14.00">1</text>
</g>
<!-- P2 -->
<g id="node3" class="node"><title>P2</title>
<polygon fill="none" stroke="black" points="1027.5,-414.5 1027.5,-483.5 1096.5,-483.5 1096.5,-414.5 1027.5,-414.5"/>
<text text-anchor="middle" x="1062" y="-468.3" font-family="Times,serif" font-size="14.00">Product 2</text>
<polyline fill="none" stroke="black" points="1027.5,-460.5 1096.5,-460.5 "/>
<text text-anchor="middle" x="1062" y="-445.3" font-family="Times,serif" font-size="14.00">Value 5</text>
<polyline fill="none" stroke="black" points="1027.5,-437.5 1096.5,-437.5 "/>
<text text-anchor="middle" x="1062" y="-422.3" font-family="Times,serif" font-size="14.00">Initial 5</text>
</g>
<!-- P3 -->
<g id="node4" class="node"><title>P3</title>
<polygon fill="none" stroke="black" points="3.5,-187.5 3.5,-256.5 72.5,-256.5 72.5,-187.5 3.5,-187.5"/>
<text text-anchor="middle" x="38" y="-241.3" font-family="Times,serif" font-size="14.00">Product 3</text>
<polyline fill="none" stroke="black" points="3.5,-233.5 72.5,-233.5 "/>
<text text-anchor="middle" x="38" y="-218.3" font-family="Times,serif" font-size="14.00">Value 3</text>
<polyline fill="none" stroke="black" points="3.5,-210.5 72.5,-210.5 "/>
<text text-anchor="middle" x="38" y="-195.3" font-family="Times,serif" font-size="14.00">Initial 17</text>
</g>
<!-- P4 -->
<g id="node5" class="node"><title>P4</title>
<polygon fill="none" stroke="black" points="476.5,-341.5 476.5,-410.5 545.5,-410.5 545.5,-341.5 476.5,-341.5"/>
<text text-anchor="middle" x="511" y="-395.3" font-family="Times,serif" font-size="14.00">Product 4</text>
<polyline fill="none" stroke="black" points="476.5,-387.5 545.5,-387.5 "/>
<text text-anchor="middle" x="511" y="-372.3" font-family="Times,serif" font-size="14.00">Value 7</text>
<polyline fill="none" stroke="black" points="476.5,-364.5 545.5,-364.5 "/>
<text text-anchor="middle" x="511" y="-349.3" font-family="Times,serif" font-size="14.00">Initial 15</text>
</g>
<!-- B4 -->
<g id="node23" class="node"><title>B4</title>
<path fill="none" stroke="black" d="M844,-356C844,-356 898,-356 898,-356 904,-356 910,-362 910,-368 910,-368 910,-390 910,-390 910,-396 904,-402 898,-402 898,-402 844,-402 844,-402 838,-402 832,-396 832,-390 832,-390 832,-368 832,-368 832,-362 838,-356 844,-356"/>
<text text-anchor="middle" x="871" y="-386.8" font-family="Times,serif" font-size="14.00">Blueprint 4</text>
<polyline fill="none" stroke="black" points="832,-379 910,-379 "/>
<text text-anchor="middle" x="871" y="-363.8" font-family="Times,serif" font-size="14.00">Coolant 6</text>
</g>
<!-- P4&#45;&gt;B4 -->
<g id="edge20" class="edge"><title>P4:a&#45;&gt;B4:a</title>
<path fill="none" stroke="black" d="M547,-399C670.252,-399 703.486,-391.432 821.815,-391.018"/>
<polygon fill="black" stroke="black" points="822.006,-394.517 832,-391 821.994,-387.517 822.006,-394.517"/>
<text text-anchor="middle" x="691.5" y="-398.8" font-family="Times,serif" font-size="14.00">1</text>
</g>
<!-- P5 -->
<g id="node6" class="node"><title>P5</title>
<polygon fill="none" stroke="black" points="240,-241.5 240,-310.5 309,-310.5 309,-241.5 240,-241.5"/>
<text text-anchor="middle" x="274.5" y="-295.3" font-family="Times,serif" font-size="14.00">Product 5</text>
<polyline fill="none" stroke="black" points="240,-287.5 309,-287.5 "/>
<text text-anchor="middle" x="274.5" y="-272.3" font-family="Times,serif" font-size="14.00">Value 5</text>
<polyline fill="none" stroke="black" points="240,-264.5 309,-264.5 "/>
<text text-anchor="middle" x="274.5" y="-249.3" font-family="Times,serif" font-size="14.00">Initial 6</text>
</g>
<!-- P6 -->
<g id="node7" class="node"><title>P6</title>
<polygon fill="none" stroke="black" points="240,-436.5 240,-505.5 309,-505.5 309,-436.5 240,-436.5"/>
<text text-anchor="middle" x="274.5" y="-490.3" font-family="Times,serif" font-size="14.00">Product 6</text>
<polyline fill="none" stroke="black" points="240,-482.5 309,-482.5 "/>
<text text-anchor="middle" x="274.5" y="-467.3" font-family="Times,serif" font-size="14.00">Value 7</text>
<polyline fill="none" stroke="black" points="240,-459.5 309,-459.5 "/>
<text text-anchor="middle" x="274.5" y="-444.3" font-family="Times,serif" font-size="14.00">Initial 5</text>
</g>
<!-- B2 -->
<g id="node21" class="node"><title>B2</title>
<path fill="none" stroke="black" d="M604,-556C604,-556 658,-556 658,-556 664,-556 670,-562 670,-568 670,-568 670,-590 670,-590 670,-596 664,-602 658,-602 658,-602 604,-602 604,-602 598,-602 592,-596 592,-590 592,-590 592,-568 592,-568 592,-562 598,-556 604,-556"/>
<text text-anchor="middle" x="631" y="-586.8" font-family="Times,serif" font-size="14.00">Blueprint 2</text>
<polyline fill="none" stroke="black" points="592,-579 670,-579 "/>
<text text-anchor="middle" x="631" y="-563.8" font-family="Times,serif" font-size="14.00">Coolant 6</text>
</g>
<!-- P6&#45;&gt;B2 -->
<g id="edge10" class="edge"><title>P6:a&#45;&gt;B2:a</title>
<path fill="none" stroke="black" d="M309,-494C326.492,-494 313.211,-518.237 327,-529 419.647,-601.322 468.246,-591.634 581.894,-591.028"/>
<polygon fill="black" stroke="black" points="582.01,-594.527 592,-591 581.99,-587.527 582.01,-594.527"/>
<text text-anchor="middle" x="451.5" y="-592.8" font-family="Times,serif" font-size="14.00">1</text>
</g>
<!-- P6&#45;&gt;B4 -->
<g id="edge21" class="edge"><title>P6:a&#45;&gt;B4:a</title>
<path fill="none" stroke="black" d="M309,-494C317.012,-494 318.991,-494.778 327,-495 330.11,-495.086 330.89,-495.065 334,-495 440.736,-492.777 468.962,-504.094 574,-485 629.243,-474.958 764.898,-433.232 814,-406 818.98,-403.238 820.782,-399.011 823.096,-395.747"/>
<polygon fill="black" stroke="black" points="824.822,-398.793 832,-391 821.529,-392.616 824.822,-398.793"/>
<text text-anchor="middle" x="570.5" y="-490.8" font-family="Times,serif" font-size="14.00">1</text>
</g>
<!-- B6 -->
<g id="node25" class="node"><title>B6</title>
<path fill="none" stroke="black" d="M364,-276C364,-276 418,-276 418,-276 424,-276 430,-282 430,-288 430,-288 430,-310 430,-310 430,-316 424,-322 418,-322 418,-322 364,-322 364,-322 358,-322 352,-316 352,-310 352,-310 352,-288 352,-288 352,-282 358,-276 364,-276"/>
<text text-anchor="middle" x="391" y="-306.8" font-family="Times,serif" font-size="14.00">Blueprint 6</text>
<polyline fill="none" stroke="black" points="352,-299 430,-299 "/>
<text text-anchor="middle" x="391" y="-283.8" font-family="Times,serif" font-size="14.00">Coolant 6</text>
</g>
<!-- P6&#45;&gt;B6 -->
<g id="edge37" class="edge"><title>P6:a&#45;&gt;B6:a</title>
<path fill="none" stroke="black" d="M309,-494C327.973,-494 379.257,-372.453 389.286,-332.857"/>
<polygon fill="black" stroke="black" points="392.735,-333.452 391,-323 385.838,-332.253 392.735,-333.452"/>
<text text-anchor="middle" x="330.5" y="-479.8" font-family="Times,serif" font-size="14.00">1</text>
</g>
<!-- P7 -->
<g id="node8" class="node"><title>P7</title>
<polygon fill="none" stroke="black" points="1027.5,-502.5 1027.5,-571.5 1096.5,-571.5 1096.5,-502.5 1027.5,-502.5"/>
<text text-anchor="middle" x="1062" y="-556.3" font-family="Times,serif" font-size="14.00">Product 7</text>
<polyline fill="none" stroke="black" points="1027.5,-548.5 1096.5,-548.5 "/>
<text text-anchor="middle" x="1062" y="-533.3" font-family="Times,serif" font-size="14.00">Value 2</text>
<polyline fill="none" stroke="black" points="1027.5,-525.5 1096.5,-525.5 "/>
<text text-anchor="middle" x="1062" y="-510.3" font-family="Times,serif" font-size="14.00">Initial 2</text>
</g>
<!-- B1 -->
<g id="node20" class="node"><title>B1</title>
<path fill="none" stroke="black" d="M1155,-601C1155,-601 1209,-601 1209,-601 1215,-601 1221,-607 1221,-613 1221,-613 1221,-635 1221,-635 1221,-641 1215,-647 1209,-647 1209,-647 1155,-647 1155,-647 1149,-647 1143,-641 1143,-635 1143,-635 1143,-613 1143,-613 1143,-607 1149,-601 1155,-601"/>
<text text-anchor="middle" x="1182" y="-631.8" font-family="Times,serif" font-size="14.00">Blueprint 1</text>
<polyline fill="none" stroke="black" points="1143,-624 1221,-624 "/>
<text text-anchor="middle" x="1182" y="-608.8" font-family="Times,serif" font-size="14.00">Coolant 8</text>
</g>
<!-- P7&#45;&gt;B1 -->
<g id="edge6" class="edge"><title>P7:a&#45;&gt;B1:a</title>
<path fill="none" stroke="black" d="M1098,-560C1105.94,-560 1124.04,-609.691 1135.87,-628.713"/>
<polygon fill="black" stroke="black" points="1133.51,-631.298 1143,-636 1138.51,-626.404 1133.51,-631.298"/>
<text text-anchor="middle" x="1121.5" y="-611.8" font-family="Times,serif" font-size="14.00">1</text>
</g>
<!-- P7&#45;&gt;B5 -->
<g id="edge32" class="edge"><title>P7:a&#45;&gt;B5:a</title>
<path fill="none" stroke="black" d="M1098,-560C1115.07,-560 1171.58,-302.645 1180.74,-246.039"/>
<polygon fill="black" stroke="black" points="1184.23,-246.358 1182,-236 1177.28,-245.487 1184.23,-246.358"/>
<text text-anchor="middle" x="1121.5" y="-512.8" font-family="Times,serif" font-size="14.00">1</text>
</g>
<!-- P8 -->
<g id="node9" class="node"><title>P8</title>
<polygon fill="none" stroke="black" points="1267.5,-280.5 1267.5,-349.5 1336.5,-349.5 1336.5,-280.5 1267.5,-280.5"/>
<text text-anchor="middle" x="1302" y="-334.3" font-family="Times,serif" font-size="14.00">Product 8</text>
<polyline fill="none" stroke="black" points="1267.5,-326.5 1336.5,-326.5 "/>
<text text-anchor="middle" x="1302" y="-311.3" font-family="Times,serif" font-size="14.00">Value 3</text>
<polyline fill="none" stroke="black" points="1267.5,-303.5 1336.5,-303.5 "/>
<text text-anchor="middle" x="1302" y="-288.3" font-family="Times,serif" font-size="14.00">Initial 9</text>
</g>
<!-- P9 -->
<g id="node10" class="node"><title>P9</title>
<polygon fill="none" stroke="black" points="1267.5,-711.5 1267.5,-780.5 1336.5,-780.5 1336.5,-711.5 1267.5,-711.5"/>
<text text-anchor="middle" x="1302" y="-765.3" font-family="Times,serif" font-size="14.00">Product 9</text>
<polyline fill="none" stroke="black" points="1267.5,-757.5 1336.5,-757.5 "/>
<text text-anchor="middle" x="1302" y="-742.3" font-family="Times,serif" font-size="14.00">Value 0</text>
<polyline fill="none" stroke="black" points="1267.5,-734.5 1336.5,-734.5 "/>
<text text-anchor="middle" x="1302" y="-719.3" font-family="Times,serif" font-size="14.00">Initial 7</text>
</g>
<!-- P10 -->
<g id="node11" class="node"><title>P10</title>
<polygon fill="none" stroke="black" points="713,-127.5 713,-196.5 789,-196.5 789,-127.5 713,-127.5"/>
<text text-anchor="middle" x="751" y="-181.3" font-family="Times,serif" font-size="14.00">Product 10</text>
<polyline fill="none" stroke="black" points="713,-173.5 789,-173.5 "/>
<text text-anchor="middle" x="751" y="-158.3" font-family="Times,serif" font-size="14.00">Value 0</text>
<polyline fill="none" stroke="black" points="713,-150.5 789,-150.5 "/>
<text text-anchor="middle" x="751" y="-135.3" font-family="Times,serif" font-size="14.00">Initial 10</text>
</g>
<!-- B3 -->
<g id="node22" class="node"><title>B3</title>
<path fill="none" stroke="black" d="M940,-112C940,-112 994,-112 994,-112 1000,-112 1006,-118 1006,-124 1006,-124 1006,-146 1006,-146 1006,-152 1000,-158 994,-158 994,-158 940,-158 940,-158 934,-158 928,-152 928,-146 928,-146 928,-124 928,-124 928,-118 934,-112 940,-112"/>
<text text-anchor="middle" x="967" y="-142.8" font-family="Times,serif" font-size="14.00">Blueprint 3</text>
<polyline fill="none" stroke="black" points="928,-135 1006,-135 "/>
<text text-anchor="middle" x="967" y="-119.8" font-family="Times,serif" font-size="14.00">Coolant 5</text>
</g>
<!-- P10&#45;&gt;B3 -->
<g id="edge18" class="edge"><title>P10:a&#45;&gt;B3:a</title>
<path fill="none" stroke="black" d="M789,-185C805.318,-185 793.123,-161.584 807,-153 849.84,-126.5 871.301,-144.332 917.978,-146.741"/>
<polygon fill="black" stroke="black" points="917.913,-150.241 928,-147 918.094,-143.243 917.913,-150.241"/>
<text text-anchor="middle" x="810.5" y="-156.8" font-family="Times,serif" font-size="14.00">1</text>
</g>
<!-- P10&#45;&gt;B4 -->
<g id="edge22" class="edge"><title>P10:a&#45;&gt;B4:a</title>
<path fill="none" stroke="black" d="M789,-185C811.906,-185 809.301,-262.581 814,-285 818.135,-304.731 811.097,-366.629 823.149,-385.49"/>
<polygon fill="black" stroke="black" points="821.661,-388.687 832,-391 825.36,-382.744 821.661,-388.687"/>
<text text-anchor="middle" x="810.5" y="-288.8" font-family="Times,serif" font-size="14.00">1</text>
</g>
<!-- P10&#45;&gt;B5 -->
<g id="edge33" class="edge"><title>P10:a&#45;&gt;B5:a</title>
<path fill="none" stroke="black" d="M789,-185C927.248,-185 969.525,-145.296 1100,-191 1119.01,-197.657 1119.45,-216.245 1133.16,-222.164"/>
<polygon fill="black" stroke="black" points="1132.53,-225.607 1143,-224 1133.81,-218.726 1132.53,-225.607"/>
<text text-anchor="middle" x="967" y="-176.8" font-family="Times,serif" font-size="14.00">1</text>
</g>
<!-- P11 -->
<g id="node12" class="node"><title>P11</title>
<polygon fill="none" stroke="black" points="1024,-200.5 1024,-269.5 1100,-269.5 1100,-200.5 1024,-200.5"/>
<text text-anchor="middle" x="1062" y="-254.3" font-family="Times,serif" font-size="14.00">Product 11</text>
<polyline fill="none" stroke="black" points="1024,-246.5 1100,-246.5 "/>
<text text-anchor="middle" x="1062" y="-231.3" font-family="Times,serif" font-size="14.00">Value 3</text>
<polyline fill="none" stroke="black" points="1024,-223.5 1100,-223.5 "/>
<text text-anchor="middle" x="1062" y="-208.3" font-family="Times,serif" font-size="14.00">Initial 3</text>
</g>
<!-- P12 -->
<g id="node13" class="node"><title>P12</title>
<polygon fill="none" stroke="black" points="0,-99.5 0,-168.5 76,-168.5 76,-99.5 0,-99.5"/>
<text text-anchor="middle" x="38" y="-153.3" font-family="Times,serif" font-size="14.00">Product 12</text>
<polyline fill="none" stroke="black" points="0,-145.5 76,-145.5 "/>
<text text-anchor="middle" x="38" y="-130.3" font-family="Times,serif" font-size="14.00">Value 6</text>
<polyline fill="none" stroke="black" points="0,-122.5 76,-122.5 "/>
<text text-anchor="middle" x="38" y="-107.3" font-family="Times,serif" font-size="14.00">Initial 10</text>
</g>
<!-- B0 -->
<g id="node19" class="node"><title>B0</title>
<path fill="none" stroke="black" d="M131,-264C131,-264 185,-264 185,-264 191,-264 197,-270 197,-276 197,-276 197,-298 197,-298 197,-304 191,-310 185,-310 185,-310 131,-310 131,-310 125,-310 119,-304 119,-298 119,-298 119,-276 119,-276 119,-270 125,-264 131,-264"/>
<text text-anchor="middle" x="158" y="-294.8" font-family="Times,serif" font-size="14.00">Blueprint 0</text>
<polyline fill="none" stroke="black" points="119,-287 197,-287 "/>
<text text-anchor="middle" x="158" y="-271.8" font-family="Times,serif" font-size="14.00">Coolant 4</text>
</g>
<!-- P12&#45;&gt;B0 -->
<g id="edge1" class="edge"><title>P12:a&#45;&gt;B0:a</title>
<path fill="none" stroke="black" d="M76,-157C105.364,-157 90.3789,-269.636 110.042,-294.275"/>
<polygon fill="black" stroke="black" points="108.522,-297.431 119,-299 111.788,-291.239 108.522,-297.431"/>
<text text-anchor="middle" x="97.5" y="-268.8" font-family="Times,serif" font-size="14.00">1</text>
</g>
<!-- P12&#45;&gt;B5 -->
<g id="edge34" class="edge"><title>P12:a&#45;&gt;B5:a</title>
<path fill="none" stroke="black" d="M76,-157C125.365,-157 107.635,-81 157,-81 157,-81 157,-81 571.5,-81 668.27,-81 913.949,-80.1499 1006,-110 1052.92,-125.215 1063.37,-135.964 1100,-169 1102.21,-170.989 1123.97,-202.172 1135.79,-216.68"/>
<polygon fill="black" stroke="black" points="1133.49,-219.335 1143,-224 1138.47,-214.421 1133.49,-219.335"/>
<text text-anchor="middle" x="570.5" y="-84.8" font-family="Times,serif" font-size="14.00">1</text>
</g>
<!-- P12&#45;&gt;B6 -->
<g id="edge38" class="edge"><title>P12:a&#45;&gt;B6:a</title>
<path fill="none" stroke="black" d="M76,-157C184.788,-157 225.228,-162.595 309,-232 336.657,-254.913 317.059,-300.422 341.784,-309.43"/>
<polygon fill="black" stroke="black" points="341.584,-312.94 352,-311 342.648,-306.022 341.584,-312.94"/>
<text text-anchor="middle" x="218.5" y="-178.8" font-family="Times,serif" font-size="14.00">1</text>
</g>
<!-- P13 -->
<g id="node14" class="node"><title>P13</title>
<polygon fill="none" stroke="black" points="713,-457.5 713,-526.5 789,-526.5 789,-457.5 713,-457.5"/>
<text text-anchor="middle" x="751" y="-511.3" font-family="Times,serif" font-size="14.00">Product 13</text>
<polyline fill="none" stroke="black" points="713,-503.5 789,-503.5 "/>
<text text-anchor="middle" x="751" y="-488.3" font-family="Times,serif" font-size="14.00">Value 10</text>
<polyline fill="none" stroke="black" points="713,-480.5 789,-480.5 "/>
<text text-anchor="middle" x="751" y="-465.3" font-family="Times,serif" font-size="14.00">Initial 17</text>
</g>
<!-- P13&#45;&gt;B1 -->
<g id="edge7" class="edge"><title>P13:a&#45;&gt;B1:a</title>
<path fill="none" stroke="black" d="M789,-515C798.481,-515 919.129,-610.656 928,-614 1014.63,-646.652 1044.77,-636.798 1132.84,-636.044"/>
<polygon fill="black" stroke="black" points="1133.02,-639.543 1143,-636 1132.98,-632.543 1133.02,-639.543"/>
<text text-anchor="middle" x="967" y="-639.8" font-family="Times,serif" font-size="14.00">1</text>
</g>
<!-- P13&#45;&gt;B4 -->
<g id="edge23" class="edge"><title>P13:a&#45;&gt;B4:a</title>
<path fill="none" stroke="black" d="M789,-515C822.874,-515 802.904,-475.005 814,-443 820.572,-424.045 812.017,-401.197 822.23,-393.597"/>
<polygon fill="black" stroke="black" points="823.235,-396.952 832,-391 821.436,-390.187 823.235,-396.952"/>
<text text-anchor="middle" x="810.5" y="-509.8" font-family="Times,serif" font-size="14.00">1</text>
</g>
<!-- P14 -->
<g id="node15" class="node"><title>P14</title>
<polygon fill="none" stroke="black" points="1264,-568.5 1264,-637.5 1340,-637.5 1340,-568.5 1264,-568.5"/>
<text text-anchor="middle" x="1302" y="-622.3" font-family="Times,serif" font-size="14.00">Product 14</text>
<polyline fill="none" stroke="black" points="1264,-614.5 1340,-614.5 "/>
<text text-anchor="middle" x="1302" y="-599.3" font-family="Times,serif" font-size="14.00">Value 4</text>
<polyline fill="none" stroke="black" points="1264,-591.5 1340,-591.5 "/>
<text text-anchor="middle" x="1302" y="-576.3" font-family="Times,serif" font-size="14.00">Initial 1</text>
</g>
<!-- P15 -->
<g id="node16" class="node"><title>P15</title>
<polygon fill="none" stroke="black" points="713,-545.5 713,-614.5 789,-614.5 789,-545.5 713,-545.5"/>
<text text-anchor="middle" x="751" y="-599.3" font-family="Times,serif" font-size="14.00">Product 15</text>
<polyline fill="none" stroke="black" points="713,-591.5 789,-591.5 "/>
<text text-anchor="middle" x="751" y="-576.3" font-family="Times,serif" font-size="14.00">Value 0</text>
<polyline fill="none" stroke="black" points="713,-568.5 789,-568.5 "/>
<text text-anchor="middle" x="751" y="-553.3" font-family="Times,serif" font-size="14.00">Initial 3</text>
</g>
<!-- P16 -->
<g id="node17" class="node"><title>P16</title>
<polygon fill="none" stroke="black" points="473,-253.5 473,-322.5 549,-322.5 549,-253.5 473,-253.5"/>
<text text-anchor="middle" x="511" y="-307.3" font-family="Times,serif" font-size="14.00">Product 16</text>
<polyline fill="none" stroke="black" points="473,-299.5 549,-299.5 "/>
<text text-anchor="middle" x="511" y="-284.3" font-family="Times,serif" font-size="14.00">Value 7</text>
<polyline fill="none" stroke="black" points="473,-276.5 549,-276.5 "/>
<text text-anchor="middle" x="511" y="-261.3" font-family="Times,serif" font-size="14.00">Initial 13</text>
</g>
<!-- P16&#45;&gt;B2 -->
<g id="edge11" class="edge"><title>P16:a&#45;&gt;B2:a</title>
<path fill="none" stroke="black" d="M549,-311C569.971,-311 570.214,-381.373 574,-402 577.317,-420.074 572.507,-550.074 585.155,-583.289"/>
<polygon fill="black" stroke="black" points="582.744,-585.845 592,-591 587.979,-581.198 582.744,-585.845"/>
<text text-anchor="middle" x="570.5" y="-405.8" font-family="Times,serif" font-size="14.00">1</text>
</g>
<!-- P16&#45;&gt;B4 -->
<g id="edge24" class="edge"><title>P16:a&#45;&gt;B4:a</title>
<path fill="none" stroke="black" d="M549,-311C613.913,-311 632.386,-297.877 695,-315 725.565,-323.358 785.14,-379.459 821.848,-389.472"/>
<polygon fill="black" stroke="black" points="821.59,-392.973 832,-391 822.632,-386.051 821.59,-392.973"/>
<text text-anchor="middle" x="691.5" y="-318.8" font-family="Times,serif" font-size="14.00">1</text>
</g>
<!-- P17 -->
<g id="node18" class="node"><title>P17</title>
<polygon fill="none" stroke="black" points="1264,-0.5 1264,-69.5 1340,-69.5 1340,-0.5 1264,-0.5"/>
<text text-anchor="middle" x="1302" y="-54.3" font-family="Times,serif" font-size="14.00">Product 17</text>
<polyline fill="none" stroke="black" points="1264,-46.5 1340,-46.5 "/>
<text text-anchor="middle" x="1302" y="-31.3" font-family="Times,serif" font-size="14.00">Value 0</text>
<polyline fill="none" stroke="black" points="1264,-23.5 1340,-23.5 "/>
<text text-anchor="middle" x="1302" y="-8.3" font-family="Times,serif" font-size="14.00">Initial 4</text>
</g>
<!-- B0&#45;&gt;P4 -->
<g id="edge2" class="edge"><title>B0:a&#45;&gt;P4:a</title>
<path fill="none" stroke="black" d="M197,-299C208.632,-299 205.127,-311.849 215,-318 314.816,-380.193 351.861,-398 464.917,-398.958"/>
<polygon fill="black" stroke="black" points="464.986,-402.459 475,-399 465.015,-395.459 464.986,-402.459"/>
<text text-anchor="middle" x="330.5" y="-384.8" font-family="Times,serif" font-size="14.00">1</text>
</g>
<!-- B0&#45;&gt;P5 -->
<g id="edge3" class="edge"><title>B0:a&#45;&gt;P5:a</title>
<path fill="none" stroke="black" d="M197,-299C212.229,-299 218.357,-299 229.888,-299"/>
<polygon fill="black" stroke="black" points="230,-302.5 240,-299 230,-295.5 230,-302.5"/>
<text text-anchor="middle" x="218.5" y="-302.8" font-family="Times,serif" font-size="14.00">1</text>
</g>
<!-- B0&#45;&gt;P6 -->
<g id="edge4" class="edge"><title>B0:a&#45;&gt;P6:a</title>
<path fill="none" stroke="black" d="M158,-311C158,-352.255 190.086,-473.968 230.208,-491.807"/>
<polygon fill="black" stroke="black" points="229.477,-495.23 240,-494 231.007,-488.399 229.477,-495.23"/>
<text text-anchor="middle" x="218.5" y="-490.8" font-family="Times,serif" font-size="14.00">1</text>
</g>
<!-- B0&#45;&gt;P17 -->
<g id="edge5" class="edge"><title>B0:a&#45;&gt;P17:a</title>
<path fill="none" stroke="black" d="M197,-299C232.383,-299 216.263,-258.239 240,-232 319.162,-144.495 339.314,-112.946 448,-67 597.232,-3.91344 647.481,-20 809.5,-20 809.5,-20 809.5,-20 1183,-20 1200.01,-20 1232.64,-47.8094 1254.17,-55.8481"/>
<polygon fill="black" stroke="black" points="1253.48,-59.2805 1264,-58 1254.98,-52.4424 1253.48,-59.2805"/>
<text text-anchor="middle" x="691.5" y="-22.8" font-family="Times,serif" font-size="14.00">1</text>
</g>
<!-- B1&#45;&gt;P9 -->
<g id="edge8" class="edge"><title>B1:a&#45;&gt;P9:a</title>
<path fill="none" stroke="black" d="M1221,-636C1248.67,-636 1238.12,-740.574 1257.13,-764.266"/>
<polygon fill="black" stroke="black" points="1255.53,-767.382 1266,-769 1258.82,-761.205 1255.53,-767.382"/>
<text text-anchor="middle" x="1242.5" y="-726.8" font-family="Times,serif" font-size="14.00">1</text>
</g>
<!-- B1&#45;&gt;P14 -->
<g id="edge9" class="edge"><title>B1:a&#45;&gt;P14:a</title>
<path fill="none" stroke="black" d="M1221,-636C1236.64,-636 1242.2,-629.65 1253.74,-627.07"/>
<polygon fill="black" stroke="black" points="1254.42,-630.519 1264,-626 1253.69,-623.557 1254.42,-630.519"/>
<text text-anchor="middle" x="1242.5" y="-636.8" font-family="Times,serif" font-size="14.00">1</text>
</g>
<!-- B2&#45;&gt;P0 -->
<g id="edge12" class="edge"><title>B2:a&#45;&gt;P0:a</title>
<path fill="none" stroke="black" d="M631,-603C631,-633.497 672.35,-712.201 705.15,-726.689"/>
<polygon fill="black" stroke="black" points="704.465,-730.124 715,-729 706.064,-723.309 704.465,-730.124"/>
<text text-anchor="middle" x="691.5" y="-723.8" font-family="Times,serif" font-size="14.00">1</text>
</g>
<!-- B2&#45;&gt;P8 -->
<g id="edge13" class="edge"><title>B2:a&#45;&gt;P8:a</title>
<path fill="none" stroke="black" d="M670,-591C684.422,-591 676.172,-609.748 688,-618 697.371,-624.538 701.773,-621.875 713,-624 807.798,-641.946 831.783,-646.87 928,-654 1023.3,-661.062 1047.44,-655.556 1143,-656 1177.67,-656.161 1193.52,-677.134 1221,-656 1246.89,-636.085 1294.84,-418.985 1301.28,-361.043"/>
<polygon fill="black" stroke="black" points="1304.78,-361.225 1302,-351 1297.79,-360.724 1304.78,-361.225"/>
<text text-anchor="middle" x="967" y="-661.8" font-family="Times,serif" font-size="14.00">1</text>
</g>
<!-- B2&#45;&gt;P9 -->
<g id="edge14" class="edge"><title>B2:a&#45;&gt;P9:a</title>
<path fill="none" stroke="black" d="M631,-603C631,-647.411 652.925,-654.002 670,-695 678.123,-714.505 673.533,-723.601 688,-739 708.961,-761.31 719.388,-769 750,-769 750,-769 750,-769 1183,-769 1216.29,-769 1227.05,-769 1255.93,-769"/>
<polygon fill="black" stroke="black" points="1256,-772.5 1266,-769 1256,-765.5 1256,-772.5"/>
<text text-anchor="middle" x="967" y="-772.8" font-family="Times,serif" font-size="14.00">1</text>
</g>
<!-- B2&#45;&gt;P10 -->
<g id="edge15" class="edge"><title>B2:a&#45;&gt;P10:a</title>
<path fill="none" stroke="black" d="M670,-591C696.409,-591 681.984,-379.715 688,-354 704.235,-284.605 746.754,-273.704 750.705,-208.091"/>
<polygon fill="black" stroke="black" points="754.206,-208.098 751,-198 747.209,-207.893 754.206,-208.098"/>
<text text-anchor="middle" x="691.5" y="-357.8" font-family="Times,serif" font-size="14.00">1</text>
</g>
<!-- B2&#45;&gt;P13 -->
<g id="edge16" class="edge"><title>B2:a&#45;&gt;P13:a</title>
<path fill="none" stroke="black" d="M670,-591C686.221,-591 691.811,-537.892 704.543,-520.466"/>
<polygon fill="black" stroke="black" points="706.501,-523.368 713,-515 702.702,-517.489 706.501,-523.368"/>
<text text-anchor="middle" x="691.5" y="-566.8" font-family="Times,serif" font-size="14.00">1</text>
</g>
<!-- B2&#45;&gt;P15 -->
<g id="edge17" class="edge"><title>B2:a&#45;&gt;P15:a</title>
<path fill="none" stroke="black" d="M670,-591C685.966,-591 691.232,-598.77 703.019,-601.806"/>
<polygon fill="black" stroke="black" points="702.655,-605.287 713,-603 703.487,-598.336 702.655,-605.287"/>
<text text-anchor="middle" x="691.5" y="-602.8" font-family="Times,serif" font-size="14.00">2</text>
</g>
<!-- B3&#45;&gt;P8 -->
<g id="edge19" class="edge"><title>B3:a&#45;&gt;P8:a</title>
<path fill="none" stroke="black" d="M1006,-147C1113.93,-147 1166.42,-37.0948 1246,-110 1280.57,-141.673 1225.17,-308.715 1256.16,-334.623"/>
<polygon fill="black" stroke="black" points="1255.41,-338.066 1266,-338 1257.68,-331.444 1255.41,-338.066"/>
<text text-anchor="middle" x="1121.5" y="-114.8" font-family="Times,serif" font-size="14.00">1</text>
</g>
<!-- B4&#45;&gt;P1 -->
<g id="edge25" class="edge"><title>B4:a&#45;&gt;P1:a</title>
<path fill="none" stroke="black" d="M910,-391C927.098,-391 913.867,-366.624 928,-357 961.255,-334.354 979.104,-344.015 1015.71,-345.753"/>
<polygon fill="black" stroke="black" points="1015.92,-349.259 1026,-346 1016.09,-342.261 1015.92,-349.259"/>
<text text-anchor="middle" x="967" y="-360.8" font-family="Times,serif" font-size="14.00">1</text>
</g>
<!-- B4&#45;&gt;P2 -->
<g id="edge26" class="edge"><title>B4:a&#45;&gt;P2:a</title>
<path fill="none" stroke="black" d="M910,-391C923.632,-391 989.033,-451.913 1016.42,-468.093"/>
<polygon fill="black" stroke="black" points="1015.42,-471.466 1026,-472 1018.06,-464.984 1015.42,-471.466"/>
<text text-anchor="middle" x="967" y="-464.8" font-family="Times,serif" font-size="14.00">1</text>
</g>
<!-- B4&#45;&gt;P7 -->
<g id="edge27" class="edge"><title>B4:a&#45;&gt;P7:a</title>
<path fill="none" stroke="black" d="M910,-391C950.356,-391 907.152,-445.446 928,-480 955.23,-525.133 968.12,-555.954 1015.95,-559.63"/>
<polygon fill="black" stroke="black" points="1015.88,-563.13 1026,-560 1016.14,-556.135 1015.88,-563.13"/>
<text text-anchor="middle" x="967" y="-562.8" font-family="Times,serif" font-size="14.00">1</text>
</g>
<!-- B4&#45;&gt;P8 -->
<g id="edge28" class="edge"><title>B4:a&#45;&gt;P8:a</title>
<path fill="none" stroke="black" d="M910,-391C1060.67,-391 1100.46,-384.978 1246,-346 1250.91,-344.684 1253.55,-342.509 1256.38,-340.758"/>
<polygon fill="black" stroke="black" points="1257.35,-344.119 1266,-338 1255.42,-337.39 1257.35,-344.119"/>
<text text-anchor="middle" x="1121.5" y="-380.8" font-family="Times,serif" font-size="14.00">1</text>
</g>
<!-- B4&#45;&gt;P11 -->
<g id="edge29" class="edge"><title>B4:a&#45;&gt;P11:a</title>
<path fill="none" stroke="black" d="M910,-391C940.834,-391 910.198,-349.176 928,-324 955.85,-284.614 970.191,-261.33 1013.89,-258.331"/>
<polygon fill="black" stroke="black" points="1014.12,-261.825 1024,-258 1013.89,-254.829 1014.12,-261.825"/>
<text text-anchor="middle" x="967" y="-327.8" font-family="Times,serif" font-size="14.00">2</text>
</g>
<!-- B4&#45;&gt;P14 -->
<g id="edge30" class="edge"><title>B4:a&#45;&gt;P14:a</title>
<path fill="none" stroke="black" d="M910,-391C951.748,-391 897.54,-549.451 928,-578 983.783,-630.285 1024.53,-593.247 1100,-581 1108.32,-579.649 1109.68,-576.351 1118,-575 1121.07,-574.502 1121.9,-574.743 1125,-575 1168.11,-578.568 1181.58,-573.198 1221,-591 1239.77,-599.478 1239.99,-618.239 1253.95,-624.167"/>
<polygon fill="black" stroke="black" points="1253.53,-627.65 1264,-626 1254.79,-620.763 1253.53,-627.65"/>
<text text-anchor="middle" x="1121.5" y="-578.8" font-family="Times,serif" font-size="14.00">1</text>
</g>
<!-- B5&#45;&gt;P8 -->
<g id="edge35" class="edge"><title>B5:a&#45;&gt;P8:a</title>
<path fill="none" stroke="black" d="M1221,-224C1271.43,-224 1220.37,-321.706 1255.73,-336.209"/>
<polygon fill="black" stroke="black" points="1255.55,-339.73 1266,-338 1256.75,-332.834 1255.55,-339.73"/>
<text text-anchor="middle" x="1242.5" y="-330.8" font-family="Times,serif" font-size="14.00">1</text>
</g>
<!-- B5&#45;&gt;P17 -->
<g id="edge36" class="edge"><title>B5:a&#45;&gt;P17:a</title>
<path fill="none" stroke="black" d="M1221,-224C1255.39,-224 1231.7,-88.8388 1254.74,-62.4401"/>
<polygon fill="black" stroke="black" points="1256.5,-65.4808 1264,-58 1253.47,-59.1693 1256.5,-65.4808"/>
<text text-anchor="middle" x="1242.5" y="-196.8" font-family="Times,serif" font-size="14.00">1</text>
</g>
<!-- B6&#45;&gt;P4 -->
<g id="edge39" class="edge"><title>B6:a&#45;&gt;P4:a</title>
<path fill="none" stroke="black" d="M430,-311C448.704,-311 452.257,-374.814 466.463,-393.759"/>
<polygon fill="black" stroke="black" points="464.647,-396.75 475,-399 468.309,-390.785 464.647,-396.75"/>
<text text-anchor="middle" x="451.5" y="-366.8" font-family="Times,serif" font-size="14.00">1</text>
</g>
<!-- B6&#45;&gt;P9 -->
<g id="edge40" class="edge"><title>B6:a&#45;&gt;P9:a</title>
<path fill="none" stroke="black" d="M391,-323C391,-375.89 535.368,-587.252 688,-757 727.043,-800.422 751.106,-807 809.5,-807 809.5,-807 809.5,-807 1183,-807 1212.96,-807 1219.53,-797.031 1246,-783 1251.39,-780.142 1253.61,-776.069 1256.46,-773.053"/>
<polygon fill="black" stroke="black" points="1258.16,-776.13 1266,-769 1255.43,-769.687 1258.16,-776.13"/>
<text text-anchor="middle" x="810.5" y="-810.8" font-family="Times,serif" font-size="14.00">1</text>
</g>
<!-- B6&#45;&gt;P10 -->
<g id="edge41" class="edge"><title>B6:a&#45;&gt;P10:a</title>
<path fill="none" stroke="black" d="M430,-311C475.159,-311 415.238,-242.08 448,-211 460.083,-199.537 655.229,-187.823 702.809,-185.439"/>
<polygon fill="black" stroke="black" points="703.16,-188.927 713,-185 702.859,-181.934 703.16,-188.927"/>
<text text-anchor="middle" x="570.5" y="-198.8" font-family="Times,serif" font-size="14.00">1</text>
</g>
<!-- B6&#45;&gt;P11 -->
<g id="edge42" class="edge"><title>B6:a&#45;&gt;P11:a</title>
<path fill="none" stroke="black" d="M430,-311C465.383,-311 446.807,-267.788 473,-244 486.685,-231.572 491.514,-225 510,-225 510,-225 510,-225 872,-225 887.19,-225 979.745,-250.492 1013.67,-256.665"/>
<polygon fill="black" stroke="black" points="1013.63,-260.19 1024,-258 1014.53,-253.247 1013.63,-260.19"/>
<text text-anchor="middle" x="691.5" y="-228.8" font-family="Times,serif" font-size="14.00">1</text>
</g>
<!-- B6&#45;&gt;P13 -->
<g id="edge43" class="edge"><title>B6:a&#45;&gt;P13:a</title>
<path fill="none" stroke="black" d="M430,-311C462.554,-311 434.872,-352.211 448,-382 456.153,-400.499 457.317,-407.243 473,-420 493.423,-436.614 654.423,-502.779 702.885,-513.522"/>
<polygon fill="black" stroke="black" points="702.599,-517.018 713,-515 703.611,-510.091 702.599,-517.018"/>
<text text-anchor="middle" x="570.5" y="-471.8" font-family="Times,serif" font-size="14.00">1</text>
</g>
<!-- B6&#45;&gt;P16 -->
<g id="edge44" class="edge"><title>B6:a&#45;&gt;P16:a</title>
<path fill="none" stroke="black" d="M430,-311C445.229,-311 451.357,-311 462.888,-311"/>
<polygon fill="black" stroke="black" points="463,-314.5 473,-311 463,-307.5 463,-314.5"/>
<text text-anchor="middle" x="451.5" y="-314.8" font-family="Times,serif" font-size="14.00">1</text>
</g>
<!-- B6&#45;&gt;P17 -->
<g id="edge45" class="edge"><title>B6:a&#45;&gt;P17:a</title>
<path fill="none" stroke="black" d="M430,-311C453.893,-311 433.622,-224.082 448,-205 454.745,-196.048 663.301,-58 809.5,-58 809.5,-58 809.5,-58 1183,-58 1215.34,-58 1225.89,-58 1253.81,-58"/>
<polygon fill="black" stroke="black" points="1254,-61.5001 1264,-58 1254,-54.5001 1254,-61.5001"/>
<text text-anchor="middle" x="810.5" y="-61.8" font-family="Times,serif" font-size="14.00">1</text>
</g>
</g>
</svg>
