<?xml version="1.0" encoding="UTF-8" standalone="no"?>
<!DOCTYPE svg PUBLIC "-//W3C//DTD SVG 1.1//EN"
 "http://www.w3.org/Graphics/SVG/1.1/DTD/svg11.dtd">
<!-- Generated by graphviz version 2.38.0 (20140413.2041)
 -->
<!-- Title: g Pages: 1 -->
<svg width="1488pt" height="81pt"
 viewBox="0.00 0.00 1488.00 81.00" xmlns="http://www.w3.org/2000/svg" xmlns:xlink="http://www.w3.org/1999/xlink">
<g id="graph0" class="graph" transform="scale(1 1) rotate(0) translate(4 77)">
<title>g</title>
<polygon fill="white" stroke="none" points="-4,4 -4,-77 1484,-77 1484,4 -4,4"/>
<!-- P0 -->
<g id="node1" class="node"><title>P0</title>
<polygon fill="none" stroke="black" points="121,-0.5 121,-69.5 190,-69.5 190,-0.5 121,-0.5"/>
<text text-anchor="middle" x="155.5" y="-54.3" font-family="Times,serif" font-size="14.00">Product 0</text>
<polyline fill="none" stroke="black" points="121,-46.5 190,-46.5 "/>
<text text-anchor="middle" x="155.5" y="-31.3" font-family="Times,serif" font-size="14.00">Value &#45;1</text>
<polyline fill="none" stroke="black" points="121,-23.5 190,-23.5 "/>
<text text-anchor="middle" x="155.5" y="-8.3" font-family="Times,serif" font-size="14.00">Initial 0</text>
</g>
<!-- B1 -->
<g id="node8" class="node"><title>B1</title>
<path fill="none" stroke="black" d="M245,-23C245,-23 299,-23 299,-23 305,-23 311,-29 311,-35 311,-35 311,-57 311,-57 311,-63 305,-69 299,-69 299,-69 245,-69 245,-69 239,-69 233,-63 233,-57 233,-57 233,-35 233,-35 233,-29 239,-23 245,-23"/>
<text text-anchor="middle" x="272" y="-53.8" font-family="Times,serif" font-size="14.00">Blueprint 1</text>
<polyline fill="none" stroke="black" points="233,-46 311,-46 "/>
<text text-anchor="middle" x="272" y="-30.8" font-family="Times,serif" font-size="14.00">Coolant 1</text>
</g>
<!-- P0&#45;&gt;B1 -->
<g id="edge2" class="edge"><title>P0:a&#45;&gt;B1:a</title>
<path fill="none" stroke="black" d="M190,-58C205.229,-58 211.357,-58 222.888,-58"/>
<polygon fill="black" stroke="black" points="223,-61.5001 233,-58 223,-54.5001 223,-61.5001"/>
<text text-anchor="middle" x="211.5" y="-61.8" font-family="Times,serif" font-size="14.00">1</text>
</g>
<!-- P1 -->
<g id="node2" class="node"><title>P1</title>
<polygon fill="none" stroke="black" points="354,-0.5 354,-69.5 423,-69.5 423,-0.5 354,-0.5"/>
<text text-anchor="middle" x="388.5" y="-54.3" font-family="Times,serif" font-size="14.00">Product 1</text>
<polyline fill="none" stroke="black" points="354,-46.5 423,-46.5 "/>
<text text-anchor="middle" x="388.5" y="-31.3" font-family="Times,serif" font-size="14.00">Value &#45;2</text>
<polyline fill="none" stroke="black" points="354,-23.5 423,-23.5 "/>
<text text-anchor="middle" x="388.5" y="-8.3" font-family="Times,serif" font-size="14.00">Initial 0</text>
</g>
<!-- B2 -->
<g id="node9" class="node"><title>B2</title>
<path fill="none" stroke="black" d="M478,-23C478,-23 532,-23 532,-23 538,-23 544,-29 544,-35 544,-35 544,-57 544,-57 544,-63 538,-69 532,-69 532,-69 478,-69 478,-69 472,-69 466,-63 466,-57 466,-57 466,-35 466,-35 466,-29 472,-23 478,-23"/>
<text text-anchor="middle" x="505" y="-53.8" font-family="Times,serif" font-size="14.00">Blueprint 2</text>
<polyline fill="none" stroke="black" points="466,-46 544,-46 "/>
<text text-anchor="middle" x="505" y="-30.8" font-family="Times,serif" font-size="14.00">Coolant 1</text>
</g>
<!-- P1&#45;&gt;B2 -->
<g id="edge4" class="edge"><title>P1:a&#45;&gt;B2:a</title>
<path fill="none" stroke="black" d="M423,-58C438.229,-58 444.357,-58 455.888,-58"/>
<polygon fill="black" stroke="black" points="456,-61.5001 466,-58 456,-54.5001 456,-61.5001"/>
<text text-anchor="middle" x="444.5" y="-61.8" font-family="Times,serif" font-size="14.00">1</text>
</g>
<!-- P2 -->
<g id="node3" class="node"><title>P2</title>
<polygon fill="none" stroke="black" points="587,-0.5 587,-69.5 656,-69.5 656,-0.5 587,-0.5"/>
<text text-anchor="middle" x="621.5" y="-54.3" font-family="Times,serif" font-size="14.00">Product 2</text>
<polyline fill="none" stroke="black" points="587,-46.5 656,-46.5 "/>
<text text-anchor="middle" x="621.5" y="-31.3" font-family="Times,serif" font-size="14.00">Value &#45;3</text>
<polyline fill="none" stroke="black" points="587,-23.5 656,-23.5 "/>
<text text-anchor="middle" x="621.5" y="-8.3" font-family="Times,serif" font-size="14.00">Initial 0</text>
</g>
<!-- B3 -->
<g id="node10" class="node"><title>B3</title>
<path fill="none" stroke="black" d="M711,-23C711,-23 765,-23 765,-23 771,-23 777,-29 777,-35 777,-35 777,-57 777,-57 777,-63 771,-69 765,-69 765,-69 711,-69 711,-69 705,-69 699,-63 699,-57 699,-57 699,-35 699,-35 699,-29 705,-23 711,-23"/>
<text text-anchor="middle" x="738" y="-53.8" font-family="Times,serif" font-size="14.00">Blueprint 3</text>
<polyline fill="none" stroke="black" points="699,-46 777,-46 "/>
<text text-anchor="middle" x="738" y="-30.8" font-family="Times,serif" font-size="14.00">Coolant 1</text>
</g>
<!-- P2&#45;&gt;B3 -->
<g id="edge6" class="edge"><title>P2:a&#45;&gt;B3:a</title>
<path fill="none" stroke="black" d="M656,-58C671.229,-58 677.357,-58 688.888,-58"/>
<polygon fill="black" stroke="black" points="689,-61.5001 699,-58 689,-54.5001 689,-61.5001"/>
<text text-anchor="middle" x="677.5" y="-61.8" font-family="Times,serif" font-size="14.00">1</text>
</g>
<!-- P3 -->
<g id="node4" class="node"><title>P3</title>
<polygon fill="none" stroke="black" points="820,-0.5 820,-69.5 889,-69.5 889,-0.5 820,-0.5"/>
<text text-anchor="middle" x="854.5" y="-54.3" font-family="Times,serif" font-size="14.00">Product 3</text>
<polyline fill="none" stroke="black" points="820,-46.5 889,-46.5 "/>
<text text-anchor="middle" x="854.5" y="-31.3" font-family="Times,serif" font-size="14.00">Value &#45;4</text>
<polyline fill="none" stroke="black" points="820,-23.5 889,-23.5 "/>
<text text-anchor="middle" x="854.5" y="-8.3" font-family="Times,serif" font-size="14.00">Initial 0</text>
</g>
<!-- B4 -->
<g id="node11" class="node"><title>B4</title>
<path fill="none" stroke="black" d="M944,-23C944,-23 998,-23 998,-23 1004,-23 1010,-29 1010,-35 1010,-35 1010,-57 1010,-57 1010,-63 1004,-69 998,-69 998,-69 944,-69 944,-69 938,-69 932,-63 932,-57 932,-57 932,-35 932,-35 932,-29 938,-23 944,-23"/>
<text text-anchor="middle" x="971" y="-53.8" font-family="Times,serif" font-size="14.00">Blueprint 4</text>
<polyline fill="none" stroke="black" points="932,-46 1010,-46 "/>
<text text-anchor="middle" x="971" y="-30.8" font-family="Times,serif" font-size="14.00">Coolant 1</text>
</g>
<!-- P3&#45;&gt;B4 -->
<g id="edge8" class="edge"><title>P3:a&#45;&gt;B4:a</title>
<path fill="none" stroke="black" d="M889,-58C904.229,-58 910.357,-58 921.888,-58"/>
<polygon fill="black" stroke="black" points="922,-61.5001 932,-58 922,-54.5001 922,-61.5001"/>
<text text-anchor="middle" x="910.5" y="-61.8" font-family="Times,serif" font-size="14.00">1</text>
</g>
<!-- P4 -->
<g id="node5" class="node"><title>P4</title>
<polygon fill="none" stroke="black" points="1053,-0.5 1053,-69.5 1122,-69.5 1122,-0.5 1053,-0.5"/>
<text text-anchor="middle" x="1087.5" y="-54.3" font-family="Times,serif" font-size="14.00">Product 4</text>
<polyline fill="none" stroke="black" points="1053,-46.5 1122,-46.5 "/>
<text text-anchor="middle" x="1087.5" y="-31.3" font-family="Times,serif" font-size="14.00">Value &#45;5</text>
<polyline fill="none" stroke="black" points="1053,-23.5 1122,-23.5 "/>
<text text-anchor="middle" x="1087.5" y="-8.3" font-family="Times,serif" font-size="14.00">Initial 0</text>
</g>
<!-- B5 -->
<g id="node12" class="node"><title>B5</title>
<path fill="none" stroke="black" d="M1177,-23C1177,-23 1231,-23 1231,-23 1237,-23 1243,-29 1243,-35 1243,-35 1243,-57 1243,-57 1243,-63 1237,-69 1231,-69 1231,-69 1177,-69 1177,-69 1171,-69 1165,-63 1165,-57 1165,-57 1165,-35 1165,-35 1165,-29 1171,-23 1177,-23"/>
<text text-anchor="middle" x="1204" y="-53.8" font-family="Times,serif" font-size="14.00">Blueprint 5</text>
<polyline fill="none" stroke="black" points="1165,-46 1243,-46 "/>
<text text-anchor="middle" x="1204" y="-30.8" font-family="Times,serif" font-size="14.00">Coolant 1</text>
</g>
<!-- P4&#45;&gt;B5 -->
<g id="edge10" class="edge"><title>P4:a&#45;&gt;B5:a</title>
<path fill="none" stroke="black" d="M1122,-58C1137.23,-58 1143.36,-58 1154.89,-58"/>
<polygon fill="black" stroke="black" points="1155,-61.5001 1165,-58 1155,-54.5001 1155,-61.5001"/>
<text text-anchor="middle" x="1143.5" y="-61.8" font-family="Times,serif" font-size="14.00">1</text>
</g>
<!-- P5 -->
<g id="node6" class="node"><title>P5</title>
<polygon fill="none" stroke="black" points="1286,-0.5 1286,-69.5 1359,-69.5 1359,-0.5 1286,-0.5"/>
<text text-anchor="middle" x="1322.5" y="-54.3" font-family="Times,serif" font-size="14.00">Product 5</text>
<polyline fill="none" stroke="black" points="1286,-46.5 1359,-46.5 "/>
<text text-anchor="middle" x="1322.5" y="-31.3" font-family="Times,serif" font-size="14.00">Value 100</text>
<polyline fill="none" stroke="black" points="1286,-23.5 1359,-23.5 "/>
<text text-anchor="middle" x="1322.5" y="-8.3" font-family="Times,serif" font-size="14.00">Initial 0</text>
</g>
<!-- B6 -->
<g id="node13" class="node"><title>B6</title>
<path fill="none" stroke="black" d="M1414,-23C1414,-23 1468,-23 1468,-23 1474,-23 1480,-29 1480,-35 1480,-35 1480,-57 1480,-57 1480,-63 1474,-69 1468,-69 1468,-69 1414,-69 1414,-69 1408,-69 1402,-63 1402,-57 1402,-57 1402,-35 1402,-35 1402,-29 1408,-23 1414,-23"/>
<text text-anchor="middle" x="1441" y="-53.8" font-family="Times,serif" font-size="14.00">Blueprint 6</text>
<polyline fill="none" stroke="black" points="1402,-46 1480,-46 "/>
<text text-anchor="middle" x="1441" y="-30.8" font-family="Times,serif" font-size="14.00">Coolant 1</text>
</g>
<!-- P5&#45;&gt;B6 -->
<g id="edge12" class="edge"><title>P5:a&#45;&gt;B6:a</title>
<path fill="none" stroke="black" d="M1359,-58C1374.23,-58 1380.36,-58 1391.89,-58"/>
<polygon fill="black" stroke="black" points="1392,-61.5001 1402,-58 1392,-54.5001 1392,-61.5001"/>
<text text-anchor="middle" x="1380.5" y="-61.8" font-family="Times,serif" font-size="14.00">1</text>
</g>
<!-- B0 -->
<g id="node7" class="node"><title>B0</title>
<path fill="none" stroke="black" d="M12,-23C12,-23 66,-23 66,-23 72,-23 78,-29 78,-35 78,-35 78,-57 78,-57 78,-63 72,-69 66,-69 66,-69 12,-69 12,-69 6,-69 0,-63 0,-57 0,-57 0,-35 0,-35 0,-29 6,-23 12,-23"/>
<text text-anchor="middle" x="39" y="-53.8" font-family="Times,serif" font-size="14.00">Blueprint 0</text>
<polyline fill="none" stroke="black" points="0,-46 78,-46 "/>
<text text-anchor="middle" x="39" y="-30.8" font-family="Times,serif" font-size="14.00">Coolant 1</text>
</g>
<!-- B0&#45;&gt;P0 -->
<g id="edge1" class="edge"><title>B0:a&#45;&gt;P0:a</title>
<path fill="none" stroke="black" d="M78,-58C93.2292,-58 99.3565,-58 110.888,-58"/>
<polygon fill="black" stroke="black" points="111,-61.5001 121,-58 111,-54.5001 111,-61.5001"/>
<text text-anchor="middle" x="99.5" y="-61.8" font-family="Times,serif" font-size="14.00">1</text>
</g>
<!-- B1&#45;&gt;P1 -->
<g id="edge3" class="edge"><title>B1:a&#45;&gt;P1:a</title>
<path fill="none" stroke="black" d="M311,-58C326.229,-58 332.357,-58 343.888,-58"/>
<polygon fill="black" stroke="black" points="344,-61.5001 354,-58 344,-54.5001 344,-61.5001"/>
<text text-anchor="middle" x="332.5" y="-61.8" font-family="Times,serif" font-size="14.00">1</text>
</g>
<!-- B2&#45;&gt;P2 -->
<g id="edge5" class="edge"><title>B2:a&#45;&gt;P2:a</title>
<path fill="none" stroke="black" d="M544,-58C559.229,-58 565.357,-58 576.888,-58"/>
<polygon fill="black" stroke="black" points="577,-61.5001 587,-58 577,-54.5001 577,-61.5001"/>
<text text-anchor="middle" x="565.5" y="-61.8" font-family="Times,serif" font-size="14.00">1</text>
</g>
<!-- B3&#45;&gt;P3 -->
<g id="edge7" class="edge"><title>B3:a&#45;&gt;P3:a</title>
<path fill="none" stroke="black" d="M777,-58C792.229,-58 798.357,-58 809.888,-58"/>
<polygon fill="black" stroke="black" points="810,-61.5001 820,-58 810,-54.5001 810,-61.5001"/>
<text text-anchor="middle" x="798.5" y="-61.8" font-family="Times,serif" font-size="14.00">1</text>
</g>
<!-- B4&#45;&gt;P4 -->
<g id="edge9" class="edge"><title>B4:a&#45;&gt;P4:a</title>
<path fill="none" stroke="black" d="M1010,-58C1025.23,-58 1031.36,-58 1042.89,-58"/>
<polygon fill="black" stroke="black" points="1043,-61.5001 1053,-58 1043,-54.5001 1043,-61.5001"/>
<text text-anchor="middle" x="1031.5" y="-61.8" font-family="Times,serif" font-size="14.00">1</text>
</g>
<!-- B5&#45;&gt;P5 -->
<g id="edge11" class="edge"><title>B5:a&#45;&gt;P5:a</title>
<path fill="none" stroke="black" d="M1243,-58C1258.23,-58 1264.36,-58 1275.89,-58"/>
<polygon fill="black" stroke="black" points="1276,-61.5001 1286,-58 1276,-54.5001 1276,-61.5001"/>
<text text-anchor="middle" x="1264.5" y="-61.8" font-family="Times,serif" font-size="14.00">1</text>
</g>
</g>
</svg>
