<?xml version="1.0" encoding="UTF-8" standalone="no"?>
<!DOCTYPE svg PUBLIC "-//W3C//DTD SVG 1.1//EN"
 "http://www.w3.org/Graphics/SVG/1.1/DTD/svg11.dtd">
<!-- Generated by graphviz version 2.38.0 (20140413.2041)
 -->
<!-- Title: g Pages: 1 -->
<svg width="1502pt" height="215pt"
 viewBox="0.00 0.00 1502.00 214.50" xmlns="http://www.w3.org/2000/svg" xmlns:xlink="http://www.w3.org/1999/xlink">
<g id="graph0" class="graph" transform="scale(1 1) rotate(0) translate(4 210.5)">
<title>g</title>
<polygon fill="white" stroke="none" points="-4,4 -4,-210.5 1498,-210.5 1498,4 -4,4"/>
<!-- P0 -->
<g id="node1" class="node"><title>P0</title>
<polygon fill="none" stroke="black" points="121,-19 121,-88 190,-88 190,-19 121,-19"/>
<text text-anchor="middle" x="155.5" y="-72.8" font-family="Times,serif" font-size="14.00">Product 0</text>
<polyline fill="none" stroke="black" points="121,-65 190,-65 "/>
<text text-anchor="middle" x="155.5" y="-49.8" font-family="Times,serif" font-size="14.00">Value 0</text>
<polyline fill="none" stroke="black" points="121,-42 190,-42 "/>
<text text-anchor="middle" x="155.5" y="-26.8" font-family="Times,serif" font-size="14.00">Initial 0</text>
</g>
<!-- B1 -->
<g id="node8" class="node"><title>B1</title>
<path fill="none" stroke="black" d="M245,-100.5C245,-100.5 299,-100.5 299,-100.5 305,-100.5 311,-106.5 311,-112.5 311,-112.5 311,-134.5 311,-134.5 311,-140.5 305,-146.5 299,-146.5 299,-146.5 245,-146.5 245,-146.5 239,-146.5 233,-140.5 233,-134.5 233,-134.5 233,-112.5 233,-112.5 233,-106.5 239,-100.5 245,-100.5"/>
<text text-anchor="middle" x="272" y="-131.3" font-family="Times,serif" font-size="14.00">Blueprint 1</text>
<polyline fill="none" stroke="black" points="233,-123.5 311,-123.5 "/>
<text text-anchor="middle" x="272" y="-108.3" font-family="Times,serif" font-size="14.00">Coolant 1</text>
</g>
<!-- P0&#45;&gt;B1 -->
<g id="edge2" class="edge"><title>P0:a&#45;&gt;B1:a</title>
<path fill="none" stroke="black" d="M190,-76.5C218.392,-76.5 205.177,-121.672 223.167,-132.965"/>
<polygon fill="black" stroke="black" points="222.443,-136.392 233,-135.5 224.191,-129.614 222.443,-136.392"/>
<text text-anchor="middle" x="211.5" y="-125.3" font-family="Times,serif" font-size="14.00">1</text>
</g>
<!-- P1 -->
<g id="node2" class="node"><title>P1</title>
<polygon fill="none" stroke="black" points="354,-89 354,-158 423,-158 423,-89 354,-89"/>
<text text-anchor="middle" x="388.5" y="-142.8" font-family="Times,serif" font-size="14.00">Product 1</text>
<polyline fill="none" stroke="black" points="354,-135 423,-135 "/>
<text text-anchor="middle" x="388.5" y="-119.8" font-family="Times,serif" font-size="14.00">Value 0</text>
<polyline fill="none" stroke="black" points="354,-112 423,-112 "/>
<text text-anchor="middle" x="388.5" y="-96.8" font-family="Times,serif" font-size="14.00">Initial 0</text>
</g>
<!-- B2 -->
<g id="node9" class="node"><title>B2</title>
<path fill="none" stroke="black" d="M478,-105.5C478,-105.5 532,-105.5 532,-105.5 538,-105.5 544,-111.5 544,-117.5 544,-117.5 544,-139.5 544,-139.5 544,-145.5 538,-151.5 532,-151.5 532,-151.5 478,-151.5 478,-151.5 472,-151.5 466,-145.5 466,-139.5 466,-139.5 466,-117.5 466,-117.5 466,-111.5 472,-105.5 478,-105.5"/>
<text text-anchor="middle" x="505" y="-136.3" font-family="Times,serif" font-size="14.00">Blueprint 2</text>
<polyline fill="none" stroke="black" points="466,-128.5 544,-128.5 "/>
<text text-anchor="middle" x="505" y="-113.3" font-family="Times,serif" font-size="14.00">Coolant 1</text>
</g>
<!-- P1&#45;&gt;B2 -->
<g id="edge4" class="edge"><title>P1:a&#45;&gt;B2:a</title>
<path fill="none" stroke="black" d="M423,-146.5C438.377,-146.5 444.299,-142.69 455.835,-141.142"/>
<polygon fill="black" stroke="black" points="456.241,-144.624 466,-140.5 455.799,-137.637 456.241,-144.624"/>
<text text-anchor="middle" x="444.5" y="-148.3" font-family="Times,serif" font-size="14.00">1</text>
</g>
<!-- B7 -->
<g id="node14" class="node"><title>B7</title>
<path fill="none" stroke="black" d="M478,-35.5C478,-35.5 532,-35.5 532,-35.5 538,-35.5 544,-41.5 544,-47.5 544,-47.5 544,-69.5 544,-69.5 544,-75.5 538,-81.5 532,-81.5 532,-81.5 478,-81.5 478,-81.5 472,-81.5 466,-75.5 466,-69.5 466,-69.5 466,-47.5 466,-47.5 466,-41.5 472,-35.5 478,-35.5"/>
<text text-anchor="middle" x="505" y="-66.3" font-family="Times,serif" font-size="14.00">Blueprint 7</text>
<polyline fill="none" stroke="black" points="466,-58.5 544,-58.5 "/>
<text text-anchor="middle" x="505" y="-43.3" font-family="Times,serif" font-size="14.00">Coolant 1</text>
</g>
<!-- P1&#45;&gt;B7 -->
<g id="edge13" class="edge"><title>P1:a&#45;&gt;B7:a</title>
<path fill="none" stroke="black" d="M423,-146.5C439.221,-146.5 444.811,-93.3918 457.543,-75.9657"/>
<polygon fill="black" stroke="black" points="459.501,-78.8677 466,-70.5 455.702,-72.9887 459.501,-78.8677"/>
<text text-anchor="middle" x="444.5" y="-122.3" font-family="Times,serif" font-size="14.00">1</text>
</g>
<!-- P2 -->
<g id="node3" class="node"><title>P2</title>
<polygon fill="none" stroke="black" points="587,-62 587,-131 656,-131 656,-62 587,-62"/>
<text text-anchor="middle" x="621.5" y="-115.8" font-family="Times,serif" font-size="14.00">Product 2</text>
<polyline fill="none" stroke="black" points="587,-108 656,-108 "/>
<text text-anchor="middle" x="621.5" y="-92.8" font-family="Times,serif" font-size="14.00">Value 0</text>
<polyline fill="none" stroke="black" points="587,-85 656,-85 "/>
<text text-anchor="middle" x="621.5" y="-69.8" font-family="Times,serif" font-size="14.00">Initial 0</text>
</g>
<!-- B3 -->
<g id="node10" class="node"><title>B3</title>
<path fill="none" stroke="black" d="M711,-82.5C711,-82.5 765,-82.5 765,-82.5 771,-82.5 777,-88.5 777,-94.5 777,-94.5 777,-116.5 777,-116.5 777,-122.5 771,-128.5 765,-128.5 765,-128.5 711,-128.5 711,-128.5 705,-128.5 699,-122.5 699,-116.5 699,-116.5 699,-94.5 699,-94.5 699,-88.5 705,-82.5 711,-82.5"/>
<text text-anchor="middle" x="738" y="-113.3" font-family="Times,serif" font-size="14.00">Blueprint 3</text>
<polyline fill="none" stroke="black" points="699,-105.5 777,-105.5 "/>
<text text-anchor="middle" x="738" y="-90.3" font-family="Times,serif" font-size="14.00">Coolant 1</text>
</g>
<!-- P2&#45;&gt;B3 -->
<g id="edge6" class="edge"><title>P2:a&#45;&gt;B3:a</title>
<path fill="none" stroke="black" d="M656,-119.5C664.049,-119.5 665.963,-117.945 674,-117.5 680.76,-117.126 684.439,-117.207 688.796,-117.329"/>
<polygon fill="black" stroke="black" points="688.943,-120.831 699,-117.5 689.06,-113.832 688.943,-120.831"/>
<text text-anchor="middle" x="677.5" y="-121.3" font-family="Times,serif" font-size="14.00">1</text>
</g>
<!-- B8 -->
<g id="node15" class="node"><title>B8</title>
<path fill="none" stroke="black" d="M711,-148.5C711,-148.5 765,-148.5 765,-148.5 771,-148.5 777,-154.5 777,-160.5 777,-160.5 777,-182.5 777,-182.5 777,-188.5 771,-194.5 765,-194.5 765,-194.5 711,-194.5 711,-194.5 705,-194.5 699,-188.5 699,-182.5 699,-182.5 699,-160.5 699,-160.5 699,-154.5 705,-148.5 711,-148.5"/>
<text text-anchor="middle" x="738" y="-179.3" font-family="Times,serif" font-size="14.00">Blueprint 8</text>
<polyline fill="none" stroke="black" points="699,-171.5 777,-171.5 "/>
<text text-anchor="middle" x="738" y="-156.3" font-family="Times,serif" font-size="14.00">Coolant 1</text>
</g>
<!-- P2&#45;&gt;B8 -->
<g id="edge15" class="edge"><title>P2:a&#45;&gt;B8:a</title>
<path fill="none" stroke="black" d="M656,-119.5C675.48,-119.5 670.176,-139.304 681,-155.5 686.523,-163.764 686.072,-173.563 689.668,-179.104"/>
<polygon fill="black" stroke="black" points="688.462,-182.404 699,-183.5 691.445,-176.072 688.462,-182.404"/>
<text text-anchor="middle" x="677.5" y="-159.3" font-family="Times,serif" font-size="14.00">1</text>
</g>
<!-- P3 -->
<g id="node4" class="node"><title>P3</title>
<polygon fill="none" stroke="black" points="820,-71 820,-140 889,-140 889,-71 820,-71"/>
<text text-anchor="middle" x="854.5" y="-124.8" font-family="Times,serif" font-size="14.00">Product 3</text>
<polyline fill="none" stroke="black" points="820,-117 889,-117 "/>
<text text-anchor="middle" x="854.5" y="-101.8" font-family="Times,serif" font-size="14.00">Value 0</text>
<polyline fill="none" stroke="black" points="820,-94 889,-94 "/>
<text text-anchor="middle" x="854.5" y="-78.8" font-family="Times,serif" font-size="14.00">Initial 0</text>
</g>
<!-- B4 -->
<g id="node11" class="node"><title>B4</title>
<path fill="none" stroke="black" d="M944,-87.5C944,-87.5 998,-87.5 998,-87.5 1004,-87.5 1010,-93.5 1010,-99.5 1010,-99.5 1010,-121.5 1010,-121.5 1010,-127.5 1004,-133.5 998,-133.5 998,-133.5 944,-133.5 944,-133.5 938,-133.5 932,-127.5 932,-121.5 932,-121.5 932,-99.5 932,-99.5 932,-93.5 938,-87.5 944,-87.5"/>
<text text-anchor="middle" x="971" y="-118.3" font-family="Times,serif" font-size="14.00">Blueprint 4</text>
<polyline fill="none" stroke="black" points="932,-110.5 1010,-110.5 "/>
<text text-anchor="middle" x="971" y="-95.3" font-family="Times,serif" font-size="14.00">Coolant 1</text>
</g>
<!-- P3&#45;&gt;B4 -->
<g id="edge8" class="edge"><title>P3:a&#45;&gt;B4:a</title>
<path fill="none" stroke="black" d="M889,-128.5C904.377,-128.5 910.299,-124.69 921.835,-123.142"/>
<polygon fill="black" stroke="black" points="922.241,-126.624 932,-122.5 921.799,-119.637 922.241,-126.624"/>
<text text-anchor="middle" x="910.5" y="-130.3" font-family="Times,serif" font-size="14.00">1</text>
</g>
<!-- B9 -->
<g id="node16" class="node"><title>B9</title>
<path fill="none" stroke="black" d="M944,-17.5C944,-17.5 998,-17.5 998,-17.5 1004,-17.5 1010,-23.5 1010,-29.5 1010,-29.5 1010,-51.5 1010,-51.5 1010,-57.5 1004,-63.5 998,-63.5 998,-63.5 944,-63.5 944,-63.5 938,-63.5 932,-57.5 932,-51.5 932,-51.5 932,-29.5 932,-29.5 932,-23.5 938,-17.5 944,-17.5"/>
<text text-anchor="middle" x="971" y="-48.3" font-family="Times,serif" font-size="14.00">Blueprint 9</text>
<polyline fill="none" stroke="black" points="932,-40.5 1010,-40.5 "/>
<text text-anchor="middle" x="971" y="-25.3" font-family="Times,serif" font-size="14.00">Coolant 1</text>
</g>
<!-- P3&#45;&gt;B9 -->
<g id="edge17" class="edge"><title>P3:a&#45;&gt;B9:a</title>
<path fill="none" stroke="black" d="M889,-128.5C905.221,-128.5 910.811,-75.3918 923.543,-57.9657"/>
<polygon fill="black" stroke="black" points="925.501,-60.8677 932,-52.5 921.702,-54.9887 925.501,-60.8677"/>
<text text-anchor="middle" x="910.5" y="-104.3" font-family="Times,serif" font-size="14.00">1</text>
</g>
<!-- P4 -->
<g id="node5" class="node"><title>P4</title>
<polygon fill="none" stroke="black" points="1053,-44 1053,-113 1122,-113 1122,-44 1053,-44"/>
<text text-anchor="middle" x="1087.5" y="-97.8" font-family="Times,serif" font-size="14.00">Product 4</text>
<polyline fill="none" stroke="black" points="1053,-90 1122,-90 "/>
<text text-anchor="middle" x="1087.5" y="-74.8" font-family="Times,serif" font-size="14.00">Value 0</text>
<polyline fill="none" stroke="black" points="1053,-67 1122,-67 "/>
<text text-anchor="middle" x="1087.5" y="-51.8" font-family="Times,serif" font-size="14.00">Initial 0</text>
</g>
<!-- B5 -->
<g id="node12" class="node"><title>B5</title>
<path fill="none" stroke="black" d="M1180.5,-64.5C1180.5,-64.5 1234.5,-64.5 1234.5,-64.5 1240.5,-64.5 1246.5,-70.5 1246.5,-76.5 1246.5,-76.5 1246.5,-98.5 1246.5,-98.5 1246.5,-104.5 1240.5,-110.5 1234.5,-110.5 1234.5,-110.5 1180.5,-110.5 1180.5,-110.5 1174.5,-110.5 1168.5,-104.5 1168.5,-98.5 1168.5,-98.5 1168.5,-76.5 1168.5,-76.5 1168.5,-70.5 1174.5,-64.5 1180.5,-64.5"/>
<text text-anchor="middle" x="1207.5" y="-95.3" font-family="Times,serif" font-size="14.00">Blueprint 5</text>
<polyline fill="none" stroke="black" points="1168.5,-87.5 1246.5,-87.5 "/>
<text text-anchor="middle" x="1207.5" y="-72.3" font-family="Times,serif" font-size="14.00">Coolant 1</text>
</g>
<!-- P4&#45;&gt;B5 -->
<g id="edge10" class="edge"><title>P4:a&#45;&gt;B5:a</title>
<path fill="none" stroke="black" d="M1122,-101.5C1130.05,-101.5 1131.96,-99.9451 1140,-99.5 1148.01,-99.0564 1152.09,-99.1951 1157.4,-99.3428"/>
<polygon fill="black" stroke="black" points="1157.45,-102.844 1167.5,-99.5 1157.56,-95.8447 1157.45,-102.844"/>
<text text-anchor="middle" x="1143.5" y="-103.3" font-family="Times,serif" font-size="14.00">1</text>
</g>
<!-- B10 -->
<g id="node17" class="node"><title>B10</title>
<path fill="none" stroke="black" d="M1177,-130.5C1177,-130.5 1238,-130.5 1238,-130.5 1244,-130.5 1250,-136.5 1250,-142.5 1250,-142.5 1250,-164.5 1250,-164.5 1250,-170.5 1244,-176.5 1238,-176.5 1238,-176.5 1177,-176.5 1177,-176.5 1171,-176.5 1165,-170.5 1165,-164.5 1165,-164.5 1165,-142.5 1165,-142.5 1165,-136.5 1171,-130.5 1177,-130.5"/>
<text text-anchor="middle" x="1207.5" y="-161.3" font-family="Times,serif" font-size="14.00">Blueprint 10</text>
<polyline fill="none" stroke="black" points="1165,-153.5 1250,-153.5 "/>
<text text-anchor="middle" x="1207.5" y="-138.3" font-family="Times,serif" font-size="14.00">Coolant 1</text>
</g>
<!-- P4&#45;&gt;B10 -->
<g id="edge19" class="edge"><title>P4:a&#45;&gt;B10:a</title>
<path fill="none" stroke="black" d="M1122,-101.5C1141.48,-101.5 1136.18,-121.304 1147,-137.5 1152.52,-145.764 1152.07,-155.563 1155.67,-161.104"/>
<polygon fill="black" stroke="black" points="1154.46,-164.404 1165,-165.5 1157.45,-158.072 1154.46,-164.404"/>
<text text-anchor="middle" x="1143.5" y="-141.3" font-family="Times,serif" font-size="14.00">1</text>
</g>
<!-- P5 -->
<g id="node6" class="node"><title>P5</title>
<polygon fill="none" stroke="black" points="1293,-53 1293,-122 1366,-122 1366,-53 1293,-53"/>
<text text-anchor="middle" x="1329.5" y="-106.8" font-family="Times,serif" font-size="14.00">Product 5</text>
<polyline fill="none" stroke="black" points="1293,-99 1366,-99 "/>
<text text-anchor="middle" x="1329.5" y="-83.8" font-family="Times,serif" font-size="14.00">Value 100</text>
<polyline fill="none" stroke="black" points="1293,-76 1366,-76 "/>
<text text-anchor="middle" x="1329.5" y="-60.8" font-family="Times,serif" font-size="14.00">Initial 0</text>
</g>
<!-- B6 -->
<g id="node13" class="node"><title>B6</title>
<path fill="none" stroke="black" d="M1424.5,-75.5C1424.5,-75.5 1478.5,-75.5 1478.5,-75.5 1484.5,-75.5 1490.5,-81.5 1490.5,-87.5 1490.5,-87.5 1490.5,-109.5 1490.5,-109.5 1490.5,-115.5 1484.5,-121.5 1478.5,-121.5 1478.5,-121.5 1424.5,-121.5 1424.5,-121.5 1418.5,-121.5 1412.5,-115.5 1412.5,-109.5 1412.5,-109.5 1412.5,-87.5 1412.5,-87.5 1412.5,-81.5 1418.5,-75.5 1424.5,-75.5"/>
<text text-anchor="middle" x="1451.5" y="-106.3" font-family="Times,serif" font-size="14.00">Blueprint 6</text>
<polyline fill="none" stroke="black" points="1412.5,-98.5 1490.5,-98.5 "/>
<text text-anchor="middle" x="1451.5" y="-83.3" font-family="Times,serif" font-size="14.00">Coolant 1</text>
</g>
<!-- P5&#45;&gt;B6 -->
<g id="edge12" class="edge"><title>P5:a&#45;&gt;B6:a</title>
<path fill="none" stroke="black" d="M1366,-110.5C1382.27,-110.5 1388.72,-110.5 1401.16,-110.5"/>
<polygon fill="black" stroke="black" points="1401.5,-114 1411.5,-110.5 1401.5,-107 1401.5,-114"/>
<text text-anchor="middle" x="1387.5" y="-114.3" font-family="Times,serif" font-size="14.00">1</text>
</g>
<!-- B11 -->
<g id="node18" class="node"><title>B11</title>
<path fill="none" stroke="black" d="M1421,-0.5C1421,-0.5 1482,-0.5 1482,-0.5 1488,-0.5 1494,-6.5 1494,-12.5 1494,-12.5 1494,-34.5 1494,-34.5 1494,-40.5 1488,-46.5 1482,-46.5 1482,-46.5 1421,-46.5 1421,-46.5 1415,-46.5 1409,-40.5 1409,-34.5 1409,-34.5 1409,-12.5 1409,-12.5 1409,-6.5 1415,-0.5 1421,-0.5"/>
<text text-anchor="middle" x="1451.5" y="-31.3" font-family="Times,serif" font-size="14.00">Blueprint 11</text>
<polyline fill="none" stroke="black" points="1409,-23.5 1494,-23.5 "/>
<text text-anchor="middle" x="1451.5" y="-8.3" font-family="Times,serif" font-size="14.00">Coolant 1</text>
</g>
<!-- P5&#45;&gt;B11 -->
<g id="edge21" class="edge"><title>P5:a&#45;&gt;B11:a</title>
<path fill="none" stroke="black" d="M1366,-110.5C1381.91,-110.5 1387.78,-59.0657 1400.24,-41.3851"/>
<polygon fill="black" stroke="black" points="1402.65,-43.9827 1409,-35.5 1398.75,-38.1726 1402.65,-43.9827"/>
<text text-anchor="middle" x="1387.5" y="-86.3" font-family="Times,serif" font-size="14.00">1</text>
</g>
<!-- B0 -->
<g id="node7" class="node"><title>B0</title>
<path fill="none" stroke="black" d="M12,-41.5C12,-41.5 66,-41.5 66,-41.5 72,-41.5 78,-47.5 78,-53.5 78,-53.5 78,-75.5 78,-75.5 78,-81.5 72,-87.5 66,-87.5 66,-87.5 12,-87.5 12,-87.5 6,-87.5 0,-81.5 0,-75.5 0,-75.5 0,-53.5 0,-53.5 0,-47.5 6,-41.5 12,-41.5"/>
<text text-anchor="middle" x="39" y="-72.3" font-family="Times,serif" font-size="14.00">Blueprint 0</text>
<polyline fill="none" stroke="black" points="0,-64.5 78,-64.5 "/>
<text text-anchor="middle" x="39" y="-49.3" font-family="Times,serif" font-size="14.00">Coolant 1</text>
</g>
<!-- B0&#45;&gt;P0 -->
<g id="edge1" class="edge"><title>B0:a&#45;&gt;P0:a</title>
<path fill="none" stroke="black" d="M78,-76.5C93.2292,-76.5 99.3565,-76.5 110.888,-76.5"/>
<polygon fill="black" stroke="black" points="111,-80.0001 121,-76.5 111,-73.0001 111,-80.0001"/>
<text text-anchor="middle" x="99.5" y="-80.3" font-family="Times,serif" font-size="14.00">1</text>
</g>
<!-- B1&#45;&gt;P1 -->
<g id="edge3" class="edge"><title>B1:a&#45;&gt;P1:a</title>
<path fill="none" stroke="black" d="M311,-135.5C326.874,-135.5 332.271,-142.623 344.052,-145.405"/>
<polygon fill="black" stroke="black" points="343.677,-148.885 354,-146.5 344.443,-141.927 343.677,-148.885"/>
<text text-anchor="middle" x="332.5" y="-146.3" font-family="Times,serif" font-size="14.00">1</text>
</g>
<!-- B2&#45;&gt;P2 -->
<g id="edge5" class="edge"><title>B2:a&#45;&gt;P2:a</title>
<path fill="none" stroke="black" d="M544,-140.5C561.281,-140.5 564.826,-126.637 576.957,-121.438"/>
<polygon fill="black" stroke="black" points="577.844,-124.831 587,-119.5 576.518,-117.958 577.844,-124.831"/>
<text text-anchor="middle" x="565.5" y="-137.3" font-family="Times,serif" font-size="14.00">1</text>
</g>
<!-- B3&#45;&gt;P3 -->
<g id="edge7" class="edge"><title>B3:a&#45;&gt;P3:a</title>
<path fill="none" stroke="black" d="M777,-117.5C792.874,-117.5 798.271,-124.623 810.052,-127.405"/>
<polygon fill="black" stroke="black" points="809.677,-130.885 820,-128.5 810.443,-123.927 809.677,-130.885"/>
<text text-anchor="middle" x="798.5" y="-128.3" font-family="Times,serif" font-size="14.00">1</text>
</g>
<!-- B4&#45;&gt;P4 -->
<g id="edge9" class="edge"><title>B4:a&#45;&gt;P4:a</title>
<path fill="none" stroke="black" d="M1010,-122.5C1027.28,-122.5 1030.83,-108.637 1042.96,-103.438"/>
<polygon fill="black" stroke="black" points="1043.84,-106.831 1053,-101.5 1042.52,-99.9581 1043.84,-106.831"/>
<text text-anchor="middle" x="1031.5" y="-119.3" font-family="Times,serif" font-size="14.00">1</text>
</g>
<!-- B5&#45;&gt;P5 -->
<g id="edge11" class="edge"><title>B5:a&#45;&gt;P5:a</title>
<path fill="none" stroke="black" d="M1247.5,-99.5C1264.4,-99.5 1270.14,-106.762 1282.86,-109.485"/>
<polygon fill="black" stroke="black" points="1282.7,-112.987 1293,-110.5 1283.4,-106.021 1282.7,-112.987"/>
<text text-anchor="middle" x="1271.5" y="-111.3" font-family="Times,serif" font-size="14.00">1</text>
</g>
<!-- B7&#45;&gt;P0 -->
<g id="edge14" class="edge"><title>B7:a&#45;&gt;P0:a</title>
<path fill="none" stroke="black" d="M466,-70.5C346.779,-70.5 314.503,-76.165 200.207,-76.4858"/>
<polygon fill="black" stroke="black" points="199.995,-72.986 190,-76.5 200.005,-79.986 199.995,-72.986"/>
<text text-anchor="middle" x="332.5" y="-77.3" font-family="Times,serif" font-size="14.00">1</text>
</g>
<!-- B8&#45;&gt;P1 -->
<g id="edge16" class="edge"><title>B8:a&#45;&gt;P1:a</title>
<path fill="none" stroke="black" d="M699,-183.5C583.989,-183.5 546.151,-210.092 441,-163.5 435.341,-160.992 433.835,-155.927 431.642,-151.975"/>
<polygon fill="black" stroke="black" points="433.321,-148.895 423,-146.5 429.574,-154.808 433.321,-148.895"/>
<text text-anchor="middle" x="565.5" y="-195.3" font-family="Times,serif" font-size="14.00">1</text>
</g>
<!-- B9&#45;&gt;P2 -->
<g id="edge18" class="edge"><title>B9:a&#45;&gt;P2:a</title>
<path fill="none" stroke="black" d="M932,-52.5C828.064,-52.5 792.122,-26.3356 699,-72.5 677.201,-83.3068 682.022,-110.25 665.84,-117.614"/>
<polygon fill="black" stroke="black" points="665.162,-114.18 656,-119.5 666.48,-121.055 665.162,-114.18"/>
<text text-anchor="middle" x="798.5" y="-49.3" font-family="Times,serif" font-size="14.00">1</text>
</g>
<!-- B10&#45;&gt;P3 -->
<g id="edge20" class="edge"><title>B10:a&#45;&gt;P3:a</title>
<path fill="none" stroke="black" d="M1165,-165.5C1049.99,-165.5 1012.15,-192.092 907,-145.5 901.341,-142.992 899.835,-137.927 897.642,-133.975"/>
<polygon fill="black" stroke="black" points="899.321,-130.895 889,-128.5 895.574,-136.808 899.321,-130.895"/>
<text text-anchor="middle" x="1031.5" y="-177.3" font-family="Times,serif" font-size="14.00">1</text>
</g>
<!-- B11&#45;&gt;P4 -->
<g id="edge22" class="edge"><title>B11:a&#45;&gt;P4:a</title>
<path fill="none" stroke="black" d="M1409,-35.5C1300.23,-35.5 1262.57,-6.42801 1165,-54.5 1143.17,-65.253 1148.01,-92.235 1131.84,-99.611"/>
<polygon fill="black" stroke="black" points="1131.16,-96.1771 1122,-101.5 1132.48,-103.052 1131.16,-96.1771"/>
<text text-anchor="middle" x="1271.5" y="-31.3" font-family="Times,serif" font-size="14.00">1</text>
</g>
</g>
</svg>
