<?xml version="1.0" encoding="UTF-8" standalone="no"?>
<!DOCTYPE svg PUBLIC "-//W3C//DTD SVG 1.1//EN"
 "http://www.w3.org/Graphics/SVG/1.1/DTD/svg11.dtd">
<!-- Generated by graphviz version 2.38.0 (20140413.2041)
 -->
<!-- Title: g Pages: 1 -->
<svg width="1496pt" height="393pt"
 viewBox="0.00 0.00 1496.00 393.00" xmlns="http://www.w3.org/2000/svg" xmlns:xlink="http://www.w3.org/1999/xlink">
<g id="graph0" class="graph" transform="scale(1 1) rotate(0) translate(4 389)">
<title>g</title>
<polygon fill="white" stroke="none" points="-4,4 -4,-389 1492,-389 1492,4 -4,4"/>
<!-- P0 -->
<g id="node1" class="node"><title>P0</title>
<polygon fill="none" stroke="black" points="0,-43.5 0,-112.5 69,-112.5 69,-43.5 0,-43.5"/>
<text text-anchor="middle" x="34.5" y="-97.3" font-family="Times,serif" font-size="14.00">Product 0</text>
<polyline fill="none" stroke="black" points="0,-89.5 69,-89.5 "/>
<text text-anchor="middle" x="34.5" y="-74.3" font-family="Times,serif" font-size="14.00">Value 0</text>
<polyline fill="none" stroke="black" points="0,-66.5 69,-66.5 "/>
<text text-anchor="middle" x="34.5" y="-51.3" font-family="Times,serif" font-size="14.00">Initial 1</text>
</g>
<!-- B0 -->
<g id="node13" class="node"><title>B0</title>
<path fill="none" stroke="black" d="M124,-97C124,-97 178,-97 178,-97 184,-97 190,-103 190,-109 190,-109 190,-131 190,-131 190,-137 184,-143 178,-143 178,-143 124,-143 124,-143 118,-143 112,-137 112,-131 112,-131 112,-109 112,-109 112,-103 118,-97 124,-97"/>
<text text-anchor="middle" x="151" y="-127.8" font-family="Times,serif" font-size="14.00">Blueprint 0</text>
<polyline fill="none" stroke="black" points="112,-120 190,-120 "/>
<text text-anchor="middle" x="151" y="-104.8" font-family="Times,serif" font-size="14.00">Coolant 2</text>
</g>
<!-- P0&#45;&gt;B0 -->
<g id="edge1" class="edge"><title>P0:a&#45;&gt;B0:a</title>
<path fill="none" stroke="black" d="M69,-101C88.5104,-101 89.0387,-122.26 102.024,-129.567"/>
<polygon fill="black" stroke="black" points="101.455,-133.031 112,-132 103.114,-126.231 101.455,-133.031"/>
<text text-anchor="middle" x="90.5" y="-125.8" font-family="Times,serif" font-size="14.00">1</text>
</g>
<!-- B5 -->
<g id="node18" class="node"><title>B5</title>
<path fill="none" stroke="black" d="M124,-29C124,-29 178,-29 178,-29 184,-29 190,-35 190,-41 190,-41 190,-63 190,-63 190,-69 184,-75 178,-75 178,-75 124,-75 124,-75 118,-75 112,-69 112,-63 112,-63 112,-41 112,-41 112,-35 118,-29 124,-29"/>
<text text-anchor="middle" x="151" y="-59.8" font-family="Times,serif" font-size="14.00">Blueprint 5</text>
<polyline fill="none" stroke="black" points="112,-52 190,-52 "/>
<text text-anchor="middle" x="151" y="-36.8" font-family="Times,serif" font-size="14.00">Coolant 1</text>
</g>
<!-- P0&#45;&gt;B5 -->
<g id="edge11" class="edge"><title>P0:a&#45;&gt;B5:a</title>
<path fill="none" stroke="black" d="M69,-101C78.75,-101 91.5998,-78.8664 102.754,-68.8371"/>
<polygon fill="black" stroke="black" points="104.762,-71.7369 112,-64 101.517,-65.5345 104.762,-71.7369"/>
<text text-anchor="middle" x="90.5" y="-89.8" font-family="Times,serif" font-size="14.00">1</text>
</g>
<!-- P1 -->
<g id="node2" class="node"><title>P1</title>
<polygon fill="none" stroke="black" points="233,-88.5 233,-157.5 302,-157.5 302,-88.5 233,-88.5"/>
<text text-anchor="middle" x="267.5" y="-142.3" font-family="Times,serif" font-size="14.00">Product 1</text>
<polyline fill="none" stroke="black" points="233,-134.5 302,-134.5 "/>
<text text-anchor="middle" x="267.5" y="-119.3" font-family="Times,serif" font-size="14.00">Value 0</text>
<polyline fill="none" stroke="black" points="233,-111.5 302,-111.5 "/>
<text text-anchor="middle" x="267.5" y="-96.3" font-family="Times,serif" font-size="14.00">Initial 0</text>
</g>
<!-- B1 -->
<g id="node14" class="node"><title>B1</title>
<path fill="none" stroke="black" d="M357,-161C357,-161 411,-161 411,-161 417,-161 423,-167 423,-173 423,-173 423,-195 423,-195 423,-201 417,-207 411,-207 411,-207 357,-207 357,-207 351,-207 345,-201 345,-195 345,-195 345,-173 345,-173 345,-167 351,-161 357,-161"/>
<text text-anchor="middle" x="384" y="-191.8" font-family="Times,serif" font-size="14.00">Blueprint 1</text>
<polyline fill="none" stroke="black" points="345,-184 423,-184 "/>
<text text-anchor="middle" x="384" y="-168.8" font-family="Times,serif" font-size="14.00">Coolant 2</text>
</g>
<!-- P1&#45;&gt;B1 -->
<g id="edge3" class="edge"><title>P1:a&#45;&gt;B1:a</title>
<path fill="none" stroke="black" d="M302,-146C327.188,-146 319.195,-182.926 335.051,-193.312"/>
<polygon fill="black" stroke="black" points="334.433,-196.77 345,-196 336.259,-190.013 334.433,-196.77"/>
<text text-anchor="middle" x="323.5" y="-185.8" font-family="Times,serif" font-size="14.00">1</text>
</g>
<!-- B6 -->
<g id="node19" class="node"><title>B6</title>
<path fill="none" stroke="black" d="M357,-85C357,-85 411,-85 411,-85 417,-85 423,-91 423,-97 423,-97 423,-119 423,-119 423,-125 417,-131 411,-131 411,-131 357,-131 357,-131 351,-131 345,-125 345,-119 345,-119 345,-97 345,-97 345,-91 351,-85 357,-85"/>
<text text-anchor="middle" x="384" y="-115.8" font-family="Times,serif" font-size="14.00">Blueprint 6</text>
<polyline fill="none" stroke="black" points="345,-108 423,-108 "/>
<text text-anchor="middle" x="384" y="-92.8" font-family="Times,serif" font-size="14.00">Coolant 1</text>
</g>
<!-- P1&#45;&gt;B6 -->
<g id="edge13" class="edge"><title>P1:a&#45;&gt;B6:a</title>
<path fill="none" stroke="black" d="M302,-146C320.32,-146 322.491,-128.504 335.007,-122.217"/>
<polygon fill="black" stroke="black" points="335.995,-125.583 345,-120 334.479,-118.749 335.995,-125.583"/>
<text text-anchor="middle" x="323.5" y="-140.8" font-family="Times,serif" font-size="14.00">1</text>
</g>
<!-- P2 -->
<g id="node3" class="node"><title>P2</title>
<polygon fill="none" stroke="black" points="466,-144.5 466,-213.5 535,-213.5 535,-144.5 466,-144.5"/>
<text text-anchor="middle" x="500.5" y="-198.3" font-family="Times,serif" font-size="14.00">Product 2</text>
<polyline fill="none" stroke="black" points="466,-190.5 535,-190.5 "/>
<text text-anchor="middle" x="500.5" y="-175.3" font-family="Times,serif" font-size="14.00">Value 0</text>
<polyline fill="none" stroke="black" points="466,-167.5 535,-167.5 "/>
<text text-anchor="middle" x="500.5" y="-152.3" font-family="Times,serif" font-size="14.00">Initial 0</text>
</g>
<!-- B2 -->
<g id="node15" class="node"><title>B2</title>
<path fill="none" stroke="black" d="M590,-217C590,-217 644,-217 644,-217 650,-217 656,-223 656,-229 656,-229 656,-251 656,-251 656,-257 650,-263 644,-263 644,-263 590,-263 590,-263 584,-263 578,-257 578,-251 578,-251 578,-229 578,-229 578,-223 584,-217 590,-217"/>
<text text-anchor="middle" x="617" y="-247.8" font-family="Times,serif" font-size="14.00">Blueprint 2</text>
<polyline fill="none" stroke="black" points="578,-240 656,-240 "/>
<text text-anchor="middle" x="617" y="-224.8" font-family="Times,serif" font-size="14.00">Coolant 2</text>
</g>
<!-- P2&#45;&gt;B2 -->
<g id="edge5" class="edge"><title>P2:a&#45;&gt;B2:a</title>
<path fill="none" stroke="black" d="M535,-202C560.188,-202 552.195,-238.926 568.051,-249.312"/>
<polygon fill="black" stroke="black" points="567.433,-252.77 578,-252 569.259,-246.013 567.433,-252.77"/>
<text text-anchor="middle" x="556.5" y="-241.8" font-family="Times,serif" font-size="14.00">1</text>
</g>
<!-- B7 -->
<g id="node20" class="node"><title>B7</title>
<path fill="none" stroke="black" d="M590,-141C590,-141 644,-141 644,-141 650,-141 656,-147 656,-153 656,-153 656,-175 656,-175 656,-181 650,-187 644,-187 644,-187 590,-187 590,-187 584,-187 578,-181 578,-175 578,-175 578,-153 578,-153 578,-147 584,-141 590,-141"/>
<text text-anchor="middle" x="617" y="-171.8" font-family="Times,serif" font-size="14.00">Blueprint 7</text>
<polyline fill="none" stroke="black" points="578,-164 656,-164 "/>
<text text-anchor="middle" x="617" y="-148.8" font-family="Times,serif" font-size="14.00">Coolant 1</text>
</g>
<!-- P2&#45;&gt;B7 -->
<g id="edge15" class="edge"><title>P2:a&#45;&gt;B7:a</title>
<path fill="none" stroke="black" d="M535,-202C553.32,-202 555.491,-184.504 568.007,-178.217"/>
<polygon fill="black" stroke="black" points="568.995,-181.583 578,-176 567.479,-174.749 568.995,-181.583"/>
<text text-anchor="middle" x="556.5" y="-196.8" font-family="Times,serif" font-size="14.00">1</text>
</g>
<!-- P3 -->
<g id="node4" class="node"><title>P3</title>
<polygon fill="none" stroke="black" points="699,-200.5 699,-269.5 768,-269.5 768,-200.5 699,-200.5"/>
<text text-anchor="middle" x="733.5" y="-254.3" font-family="Times,serif" font-size="14.00">Product 3</text>
<polyline fill="none" stroke="black" points="699,-246.5 768,-246.5 "/>
<text text-anchor="middle" x="733.5" y="-231.3" font-family="Times,serif" font-size="14.00">Value 0</text>
<polyline fill="none" stroke="black" points="699,-223.5 768,-223.5 "/>
<text text-anchor="middle" x="733.5" y="-208.3" font-family="Times,serif" font-size="14.00">Initial 0</text>
</g>
<!-- B3 -->
<g id="node16" class="node"><title>B3</title>
<path fill="none" stroke="black" d="M823,-273C823,-273 877,-273 877,-273 883,-273 889,-279 889,-285 889,-285 889,-307 889,-307 889,-313 883,-319 877,-319 877,-319 823,-319 823,-319 817,-319 811,-313 811,-307 811,-307 811,-285 811,-285 811,-279 817,-273 823,-273"/>
<text text-anchor="middle" x="850" y="-303.8" font-family="Times,serif" font-size="14.00">Blueprint 3</text>
<polyline fill="none" stroke="black" points="811,-296 889,-296 "/>
<text text-anchor="middle" x="850" y="-280.8" font-family="Times,serif" font-size="14.00">Coolant 2</text>
</g>
<!-- P3&#45;&gt;B3 -->
<g id="edge7" class="edge"><title>P3:a&#45;&gt;B3:a</title>
<path fill="none" stroke="black" d="M768,-258C793.188,-258 785.195,-294.926 801.051,-305.312"/>
<polygon fill="black" stroke="black" points="800.433,-308.77 811,-308 802.259,-302.013 800.433,-308.77"/>
<text text-anchor="middle" x="789.5" y="-297.8" font-family="Times,serif" font-size="14.00">1</text>
</g>
<!-- B8 -->
<g id="node21" class="node"><title>B8</title>
<path fill="none" stroke="black" d="M823,-197C823,-197 877,-197 877,-197 883,-197 889,-203 889,-209 889,-209 889,-231 889,-231 889,-237 883,-243 877,-243 877,-243 823,-243 823,-243 817,-243 811,-237 811,-231 811,-231 811,-209 811,-209 811,-203 817,-197 823,-197"/>
<text text-anchor="middle" x="850" y="-227.8" font-family="Times,serif" font-size="14.00">Blueprint 8</text>
<polyline fill="none" stroke="black" points="811,-220 889,-220 "/>
<text text-anchor="middle" x="850" y="-204.8" font-family="Times,serif" font-size="14.00">Coolant 1</text>
</g>
<!-- P3&#45;&gt;B8 -->
<g id="edge17" class="edge"><title>P3:a&#45;&gt;B8:a</title>
<path fill="none" stroke="black" d="M768,-258C786.32,-258 788.491,-240.504 801.007,-234.217"/>
<polygon fill="black" stroke="black" points="801.995,-237.583 811,-232 800.479,-230.749 801.995,-237.583"/>
<text text-anchor="middle" x="789.5" y="-252.8" font-family="Times,serif" font-size="14.00">1</text>
</g>
<!-- P4 -->
<g id="node5" class="node"><title>P4</title>
<polygon fill="none" stroke="black" points="932,-256.5 932,-325.5 1001,-325.5 1001,-256.5 932,-256.5"/>
<text text-anchor="middle" x="966.5" y="-310.3" font-family="Times,serif" font-size="14.00">Product 4</text>
<polyline fill="none" stroke="black" points="932,-302.5 1001,-302.5 "/>
<text text-anchor="middle" x="966.5" y="-287.3" font-family="Times,serif" font-size="14.00">Value 0</text>
<polyline fill="none" stroke="black" points="932,-279.5 1001,-279.5 "/>
<text text-anchor="middle" x="966.5" y="-264.3" font-family="Times,serif" font-size="14.00">Initial 0</text>
</g>
<!-- B4 -->
<g id="node17" class="node"><title>B4</title>
<path fill="none" stroke="black" d="M1056,-329C1056,-329 1110,-329 1110,-329 1116,-329 1122,-335 1122,-341 1122,-341 1122,-363 1122,-363 1122,-369 1116,-375 1110,-375 1110,-375 1056,-375 1056,-375 1050,-375 1044,-369 1044,-363 1044,-363 1044,-341 1044,-341 1044,-335 1050,-329 1056,-329"/>
<text text-anchor="middle" x="1083" y="-359.8" font-family="Times,serif" font-size="14.00">Blueprint 4</text>
<polyline fill="none" stroke="black" points="1044,-352 1122,-352 "/>
<text text-anchor="middle" x="1083" y="-336.8" font-family="Times,serif" font-size="14.00">Coolant 2</text>
</g>
<!-- P4&#45;&gt;B4 -->
<g id="edge9" class="edge"><title>P4:a&#45;&gt;B4:a</title>
<path fill="none" stroke="black" d="M1001,-314C1026.19,-314 1018.19,-350.926 1034.05,-361.312"/>
<polygon fill="black" stroke="black" points="1033.43,-364.77 1044,-364 1035.26,-358.013 1033.43,-364.77"/>
<text text-anchor="middle" x="1022.5" y="-353.8" font-family="Times,serif" font-size="14.00">1</text>
</g>
<!-- B9 -->
<g id="node22" class="node"><title>B9</title>
<path fill="none" stroke="black" d="M1056,-253C1056,-253 1110,-253 1110,-253 1116,-253 1122,-259 1122,-265 1122,-265 1122,-287 1122,-287 1122,-293 1116,-299 1110,-299 1110,-299 1056,-299 1056,-299 1050,-299 1044,-293 1044,-287 1044,-287 1044,-265 1044,-265 1044,-259 1050,-253 1056,-253"/>
<text text-anchor="middle" x="1083" y="-283.8" font-family="Times,serif" font-size="14.00">Blueprint 9</text>
<polyline fill="none" stroke="black" points="1044,-276 1122,-276 "/>
<text text-anchor="middle" x="1083" y="-260.8" font-family="Times,serif" font-size="14.00">Coolant 1</text>
</g>
<!-- P4&#45;&gt;B9 -->
<g id="edge19" class="edge"><title>P4:a&#45;&gt;B9:a</title>
<path fill="none" stroke="black" d="M1001,-314C1019.32,-314 1021.49,-296.504 1034.01,-290.217"/>
<polygon fill="black" stroke="black" points="1035,-293.583 1044,-288 1033.48,-286.749 1035,-293.583"/>
<text text-anchor="middle" x="1022.5" y="-308.8" font-family="Times,serif" font-size="14.00">1</text>
</g>
<!-- P5 -->
<g id="node6" class="node"><title>P5</title>
<polygon fill="none" stroke="black" points="1168.5,-312.5 1168.5,-381.5 1237.5,-381.5 1237.5,-312.5 1168.5,-312.5"/>
<text text-anchor="middle" x="1203" y="-366.3" font-family="Times,serif" font-size="14.00">Product 5</text>
<polyline fill="none" stroke="black" points="1168.5,-358.5 1237.5,-358.5 "/>
<text text-anchor="middle" x="1203" y="-343.3" font-family="Times,serif" font-size="14.00">Value 0</text>
<polyline fill="none" stroke="black" points="1168.5,-335.5 1237.5,-335.5 "/>
<text text-anchor="middle" x="1203" y="-320.3" font-family="Times,serif" font-size="14.00">Initial 0</text>
</g>
<!-- B10 -->
<g id="node23" class="node"><title>B10</title>
<path fill="none" stroke="black" d="M1296,-335C1296,-335 1357,-335 1357,-335 1363,-335 1369,-341 1369,-347 1369,-347 1369,-369 1369,-369 1369,-375 1363,-381 1357,-381 1357,-381 1296,-381 1296,-381 1290,-381 1284,-375 1284,-369 1284,-369 1284,-347 1284,-347 1284,-341 1290,-335 1296,-335"/>
<text text-anchor="middle" x="1326.5" y="-365.8" font-family="Times,serif" font-size="14.00">Blueprint 10</text>
<polyline fill="none" stroke="black" points="1284,-358 1369,-358 "/>
<text text-anchor="middle" x="1326.5" y="-342.8" font-family="Times,serif" font-size="14.00">Coolant 1</text>
</g>
<!-- P5&#45;&gt;B10 -->
<g id="edge21" class="edge"><title>P5:a&#45;&gt;B10:a</title>
<path fill="none" stroke="black" d="M1239,-370C1255.09,-370 1261.47,-370 1273.77,-370"/>
<polygon fill="black" stroke="black" points="1274,-373.5 1284,-370 1274,-366.5 1274,-373.5"/>
<text text-anchor="middle" x="1262.5" y="-373.8" font-family="Times,serif" font-size="14.00">1</text>
</g>
<!-- P6 -->
<g id="node7" class="node"><title>P6</title>
<polygon fill="none" stroke="black" points="233,-0.5 233,-69.5 302,-69.5 302,-0.5 233,-0.5"/>
<text text-anchor="middle" x="267.5" y="-54.3" font-family="Times,serif" font-size="14.00">Product 6</text>
<polyline fill="none" stroke="black" points="233,-46.5 302,-46.5 "/>
<text text-anchor="middle" x="267.5" y="-31.3" font-family="Times,serif" font-size="14.00">Value 10</text>
<polyline fill="none" stroke="black" points="233,-23.5 302,-23.5 "/>
<text text-anchor="middle" x="267.5" y="-8.3" font-family="Times,serif" font-size="14.00">Initial 0</text>
</g>
<!-- P7 -->
<g id="node8" class="node"><title>P7</title>
<polygon fill="none" stroke="black" points="466,-56.5 466,-125.5 535,-125.5 535,-56.5 466,-56.5"/>
<text text-anchor="middle" x="500.5" y="-110.3" font-family="Times,serif" font-size="14.00">Product 7</text>
<polyline fill="none" stroke="black" points="466,-102.5 535,-102.5 "/>
<text text-anchor="middle" x="500.5" y="-87.3" font-family="Times,serif" font-size="14.00">Value 20</text>
<polyline fill="none" stroke="black" points="466,-79.5 535,-79.5 "/>
<text text-anchor="middle" x="500.5" y="-64.3" font-family="Times,serif" font-size="14.00">Initial 0</text>
</g>
<!-- P8 -->
<g id="node9" class="node"><title>P8</title>
<polygon fill="none" stroke="black" points="699,-112.5 699,-181.5 768,-181.5 768,-112.5 699,-112.5"/>
<text text-anchor="middle" x="733.5" y="-166.3" font-family="Times,serif" font-size="14.00">Product 8</text>
<polyline fill="none" stroke="black" points="699,-158.5 768,-158.5 "/>
<text text-anchor="middle" x="733.5" y="-143.3" font-family="Times,serif" font-size="14.00">Value 30</text>
<polyline fill="none" stroke="black" points="699,-135.5 768,-135.5 "/>
<text text-anchor="middle" x="733.5" y="-120.3" font-family="Times,serif" font-size="14.00">Initial 0</text>
</g>
<!-- P9 -->
<g id="node10" class="node"><title>P9</title>
<polygon fill="none" stroke="black" points="932,-168.5 932,-237.5 1001,-237.5 1001,-168.5 932,-168.5"/>
<text text-anchor="middle" x="966.5" y="-222.3" font-family="Times,serif" font-size="14.00">Product 9</text>
<polyline fill="none" stroke="black" points="932,-214.5 1001,-214.5 "/>
<text text-anchor="middle" x="966.5" y="-199.3" font-family="Times,serif" font-size="14.00">Value 40</text>
<polyline fill="none" stroke="black" points="932,-191.5 1001,-191.5 "/>
<text text-anchor="middle" x="966.5" y="-176.3" font-family="Times,serif" font-size="14.00">Initial 0</text>
</g>
<!-- P10 -->
<g id="node11" class="node"><title>P10</title>
<polygon fill="none" stroke="black" points="1165,-224.5 1165,-293.5 1241,-293.5 1241,-224.5 1165,-224.5"/>
<text text-anchor="middle" x="1203" y="-278.3" font-family="Times,serif" font-size="14.00">Product 10</text>
<polyline fill="none" stroke="black" points="1165,-270.5 1241,-270.5 "/>
<text text-anchor="middle" x="1203" y="-255.3" font-family="Times,serif" font-size="14.00">Value 50</text>
<polyline fill="none" stroke="black" points="1165,-247.5 1241,-247.5 "/>
<text text-anchor="middle" x="1203" y="-232.3" font-family="Times,serif" font-size="14.00">Initial 0</text>
</g>
<!-- P11 -->
<g id="node12" class="node"><title>P11</title>
<polygon fill="none" stroke="black" points="1412,-312.5 1412,-381.5 1488,-381.5 1488,-312.5 1412,-312.5"/>
<text text-anchor="middle" x="1450" y="-366.3" font-family="Times,serif" font-size="14.00">Product 11</text>
<polyline fill="none" stroke="black" points="1412,-358.5 1488,-358.5 "/>
<text text-anchor="middle" x="1450" y="-343.3" font-family="Times,serif" font-size="14.00">Value 60</text>
<polyline fill="none" stroke="black" points="1412,-335.5 1488,-335.5 "/>
<text text-anchor="middle" x="1450" y="-320.3" font-family="Times,serif" font-size="14.00">Initial 0</text>
</g>
<!-- B0&#45;&gt;P1 -->
<g id="edge2" class="edge"><title>B0:a&#45;&gt;P1:a</title>
<path fill="none" stroke="black" d="M190,-132C206.173,-132 211.147,-141.065 222.945,-144.606"/>
<polygon fill="black" stroke="black" points="222.614,-148.094 233,-146 223.575,-141.16 222.614,-148.094"/>
<text text-anchor="middle" x="211.5" y="-145.8" font-family="Times,serif" font-size="14.00">1</text>
</g>
<!-- B1&#45;&gt;P2 -->
<g id="edge4" class="edge"><title>B1:a&#45;&gt;P2:a</title>
<path fill="none" stroke="black" d="M423,-196C438.377,-196 444.299,-199.81 455.835,-201.358"/>
<polygon fill="black" stroke="black" points="455.799,-204.863 466,-202 456.241,-197.876 455.799,-204.863"/>
<text text-anchor="middle" x="444.5" y="-203.8" font-family="Times,serif" font-size="14.00">1</text>
</g>
<!-- B2&#45;&gt;P3 -->
<g id="edge6" class="edge"><title>B2:a&#45;&gt;P3:a</title>
<path fill="none" stroke="black" d="M656,-252C671.377,-252 677.299,-255.81 688.835,-257.358"/>
<polygon fill="black" stroke="black" points="688.799,-260.863 699,-258 689.241,-253.876 688.799,-260.863"/>
<text text-anchor="middle" x="677.5" y="-259.8" font-family="Times,serif" font-size="14.00">1</text>
</g>
<!-- B3&#45;&gt;P4 -->
<g id="edge8" class="edge"><title>B3:a&#45;&gt;P4:a</title>
<path fill="none" stroke="black" d="M889,-308C904.377,-308 910.299,-311.81 921.835,-313.358"/>
<polygon fill="black" stroke="black" points="921.799,-316.863 932,-314 922.241,-309.876 921.799,-316.863"/>
<text text-anchor="middle" x="910.5" y="-315.8" font-family="Times,serif" font-size="14.00">1</text>
</g>
<!-- B4&#45;&gt;P5 -->
<g id="edge10" class="edge"><title>B4:a&#45;&gt;P5:a</title>
<path fill="none" stroke="black" d="M1122,-364C1138.24,-364 1144.42,-367.885 1156.72,-369.403"/>
<polygon fill="black" stroke="black" points="1156.81,-372.914 1167,-370 1157.22,-365.926 1156.81,-372.914"/>
<text text-anchor="middle" x="1143.5" y="-371.8" font-family="Times,serif" font-size="14.00">1</text>
</g>
<!-- B5&#45;&gt;P6 -->
<g id="edge12" class="edge"><title>B5:a&#45;&gt;P6:a</title>
<path fill="none" stroke="black" d="M190,-64C205.377,-64 211.299,-60.1899 222.835,-58.6421"/>
<polygon fill="black" stroke="black" points="223.241,-62.1235 233,-58 222.799,-55.1375 223.241,-62.1235"/>
<text text-anchor="middle" x="211.5" y="-65.8" font-family="Times,serif" font-size="14.00">1</text>
</g>
<!-- B6&#45;&gt;P7 -->
<g id="edge14" class="edge"><title>B6:a&#45;&gt;P7:a</title>
<path fill="none" stroke="black" d="M423,-120C438.377,-120 444.299,-116.19 455.835,-114.642"/>
<polygon fill="black" stroke="black" points="456.241,-118.124 466,-114 455.799,-111.137 456.241,-118.124"/>
<text text-anchor="middle" x="444.5" y="-121.8" font-family="Times,serif" font-size="14.00">1</text>
</g>
<!-- B7&#45;&gt;P8 -->
<g id="edge16" class="edge"><title>B7:a&#45;&gt;P8:a</title>
<path fill="none" stroke="black" d="M656,-176C671.377,-176 677.299,-172.19 688.835,-170.642"/>
<polygon fill="black" stroke="black" points="689.241,-174.124 699,-170 688.799,-167.137 689.241,-174.124"/>
<text text-anchor="middle" x="677.5" y="-177.8" font-family="Times,serif" font-size="14.00">1</text>
</g>
<!-- B8&#45;&gt;P9 -->
<g id="edge18" class="edge"><title>B8:a&#45;&gt;P9:a</title>
<path fill="none" stroke="black" d="M889,-232C904.377,-232 910.299,-228.19 921.835,-226.642"/>
<polygon fill="black" stroke="black" points="922.241,-230.124 932,-226 921.799,-223.137 922.241,-230.124"/>
<text text-anchor="middle" x="910.5" y="-233.8" font-family="Times,serif" font-size="14.00">1</text>
</g>
<!-- B9&#45;&gt;P10 -->
<g id="edge20" class="edge"><title>B9:a&#45;&gt;P10:a</title>
<path fill="none" stroke="black" d="M1122,-288C1137.38,-288 1143.3,-284.19 1154.83,-282.642"/>
<polygon fill="black" stroke="black" points="1155.24,-286.124 1165,-282 1154.8,-279.137 1155.24,-286.124"/>
<text text-anchor="middle" x="1143.5" y="-289.8" font-family="Times,serif" font-size="14.00">1</text>
</g>
<!-- B10&#45;&gt;P11 -->
<g id="edge22" class="edge"><title>B10:a&#45;&gt;P11:a</title>
<path fill="none" stroke="black" d="M1369,-370C1384.23,-370 1390.36,-370 1401.89,-370"/>
<polygon fill="black" stroke="black" points="1402,-373.5 1412,-370 1402,-366.5 1402,-373.5"/>
<text text-anchor="middle" x="1390.5" y="-373.8" font-family="Times,serif" font-size="14.00">1</text>
</g>
</g>
</svg>
