<?xml version="1.0" encoding="UTF-8" standalone="no"?>
<!DOCTYPE svg PUBLIC "-//W3C//DTD SVG 1.1//EN"
 "http://www.w3.org/Graphics/SVG/1.1/DTD/svg11.dtd">
<!-- Generated by graphviz version 2.38.0 (20140413.2041)
 -->
<!-- Title: g Pages: 1 -->
<svg width="310pt" height="166pt"
 viewBox="0.00 0.00 310.00 166.00" xmlns="http://www.w3.org/2000/svg" xmlns:xlink="http://www.w3.org/1999/xlink">
<g id="graph0" class="graph" transform="scale(1 1) rotate(0) translate(4 162)">
<title>g</title>
<polygon fill="white" stroke="none" points="-4,4 -4,-162 306,-162 306,4 -4,4"/>
<!-- P0 -->
<g id="node1" class="node"><title>P0</title>
<polygon fill="none" stroke="black" points="233,-88.5 233,-157.5 302,-157.5 302,-88.5 233,-88.5"/>
<text text-anchor="middle" x="267.5" y="-142.3" font-family="Times,serif" font-size="14.00">Product 0</text>
<polyline fill="none" stroke="black" points="233,-134.5 302,-134.5 "/>
<text text-anchor="middle" x="267.5" y="-119.3" font-family="Times,serif" font-size="14.00">Value 5</text>
<polyline fill="none" stroke="black" points="233,-111.5 302,-111.5 "/>
<text text-anchor="middle" x="267.5" y="-96.3" font-family="Times,serif" font-size="14.00">Initial 0</text>
</g>
<!-- P1 -->
<g id="node2" class="node"><title>P1</title>
<polygon fill="none" stroke="black" points="0,-44.5 0,-113.5 69,-113.5 69,-44.5 0,-44.5"/>
<text text-anchor="middle" x="34.5" y="-98.3" font-family="Times,serif" font-size="14.00">Product 1</text>
<polyline fill="none" stroke="black" points="0,-90.5 69,-90.5 "/>
<text text-anchor="middle" x="34.5" y="-75.3" font-family="Times,serif" font-size="14.00">Value 0</text>
<polyline fill="none" stroke="black" points="0,-67.5 69,-67.5 "/>
<text text-anchor="middle" x="34.5" y="-52.3" font-family="Times,serif" font-size="14.00">Initial 5</text>
</g>
<!-- B0 -->
<g id="node4" class="node"><title>B0</title>
<path fill="none" stroke="black" d="M124,-67C124,-67 178,-67 178,-67 184,-67 190,-73 190,-79 190,-79 190,-101 190,-101 190,-107 184,-113 178,-113 178,-113 124,-113 124,-113 118,-113 112,-107 112,-101 112,-101 112,-79 112,-79 112,-73 118,-67 124,-67"/>
<text text-anchor="middle" x="151" y="-97.8" font-family="Times,serif" font-size="14.00">Blueprint 0</text>
<polyline fill="none" stroke="black" points="112,-90 190,-90 "/>
<text text-anchor="middle" x="151" y="-74.8" font-family="Times,serif" font-size="14.00">Coolant 1</text>
</g>
<!-- P1&#45;&gt;B0 -->
<g id="edge1" class="edge"><title>P1:a&#45;&gt;B0:a</title>
<path fill="none" stroke="black" d="M69,-102C84.2292,-102 90.3565,-102 101.888,-102"/>
<polygon fill="black" stroke="black" points="102,-105.5 112,-102 102,-98.5001 102,-105.5"/>
<text text-anchor="middle" x="90.5" y="-105.8" font-family="Times,serif" font-size="14.00">1</text>
</g>
<!-- P2 -->
<g id="node3" class="node"><title>P2</title>
<polygon fill="none" stroke="black" points="233,-0.5 233,-69.5 302,-69.5 302,-0.5 233,-0.5"/>
<text text-anchor="middle" x="267.5" y="-54.3" font-family="Times,serif" font-size="14.00">Product 2</text>
<polyline fill="none" stroke="black" points="233,-46.5 302,-46.5 "/>
<text text-anchor="middle" x="267.5" y="-31.3" font-family="Times,serif" font-size="14.00">Value &#45;5</text>
<polyline fill="none" stroke="black" points="233,-23.5 302,-23.5 "/>
<text text-anchor="middle" x="267.5" y="-8.3" font-family="Times,serif" font-size="14.00">Initial 0</text>
</g>
<!-- B0&#45;&gt;P0 -->
<g id="edge2" class="edge"><title>B0:a&#45;&gt;P0:a</title>
<path fill="none" stroke="black" d="M190,-102C213.285,-102 208.266,-133.907 223.148,-143.379"/>
<polygon fill="black" stroke="black" points="222.436,-146.812 233,-146 224.236,-140.047 222.436,-146.812"/>
<text text-anchor="middle" x="211.5" y="-134.8" font-family="Times,serif" font-size="14.00">1</text>
</g>
<!-- B0&#45;&gt;P2 -->
<g id="edge3" class="edge"><title>B0:a&#45;&gt;P2:a</title>
<path fill="none" stroke="black" d="M190,-102C213.285,-102 208.266,-70.093 223.148,-60.6206"/>
<polygon fill="black" stroke="black" points="224.236,-63.9531 233,-58 222.436,-57.1884 224.236,-63.9531"/>
<text text-anchor="middle" x="211.5" y="-91.8" font-family="Times,serif" font-size="14.00">1</text>
</g>
</g>
</svg>
