<?xml version="1.0" encoding="UTF-8" standalone="no"?>
<!DOCTYPE svg PUBLIC "-//W3C//DTD SVG 1.1//EN"
 "http://www.w3.org/Graphics/SVG/1.1/DTD/svg11.dtd">
<!-- Generated by graphviz version 2.38.0 (20140413.2041)
 -->
<!-- Title: g Pages: 1 -->
<svg width="543pt" height="81pt"
 viewBox="0.00 0.00 543.00 81.00" xmlns="http://www.w3.org/2000/svg" xmlns:xlink="http://www.w3.org/1999/xlink">
<g id="graph0" class="graph" transform="scale(1 1) rotate(0) translate(4 77)">
<title>g</title>
<polygon fill="white" stroke="none" points="-4,4 -4,-77 539,-77 539,4 -4,4"/>
<!-- P0 -->
<g id="node1" class="node"><title>P0</title>
<polygon fill="none" stroke="black" points="0,-0.5 0,-69.5 69,-69.5 69,-0.5 0,-0.5"/>
<text text-anchor="middle" x="34.5" y="-54.3" font-family="Times,serif" font-size="14.00">Product 0</text>
<polyline fill="none" stroke="black" points="0,-46.5 69,-46.5 "/>
<text text-anchor="middle" x="34.5" y="-31.3" font-family="Times,serif" font-size="14.00">Value 1</text>
<polyline fill="none" stroke="black" points="0,-23.5 69,-23.5 "/>
<text text-anchor="middle" x="34.5" y="-8.3" font-family="Times,serif" font-size="14.00">Initial 5</text>
</g>
<!-- B0 -->
<g id="node4" class="node"><title>B0</title>
<path fill="none" stroke="black" d="M124,-23C124,-23 178,-23 178,-23 184,-23 190,-29 190,-35 190,-35 190,-57 190,-57 190,-63 184,-69 178,-69 178,-69 124,-69 124,-69 118,-69 112,-63 112,-57 112,-57 112,-35 112,-35 112,-29 118,-23 124,-23"/>
<text text-anchor="middle" x="151" y="-53.8" font-family="Times,serif" font-size="14.00">Blueprint 0</text>
<polyline fill="none" stroke="black" points="112,-46 190,-46 "/>
<text text-anchor="middle" x="151" y="-30.8" font-family="Times,serif" font-size="14.00">Coolant 1</text>
</g>
<!-- P0&#45;&gt;B0 -->
<g id="edge1" class="edge"><title>P0:a&#45;&gt;B0:a</title>
<path fill="none" stroke="black" d="M69,-58C84.2292,-58 90.3565,-58 101.888,-58"/>
<polygon fill="black" stroke="black" points="102,-61.5001 112,-58 102,-54.5001 102,-61.5001"/>
<text text-anchor="middle" x="90.5" y="-61.8" font-family="Times,serif" font-size="14.00">1</text>
</g>
<!-- P1 -->
<g id="node2" class="node"><title>P1</title>
<polygon fill="none" stroke="black" points="233,-0.5 233,-69.5 302,-69.5 302,-0.5 233,-0.5"/>
<text text-anchor="middle" x="267.5" y="-54.3" font-family="Times,serif" font-size="14.00">Product 1</text>
<polyline fill="none" stroke="black" points="233,-46.5 302,-46.5 "/>
<text text-anchor="middle" x="267.5" y="-31.3" font-family="Times,serif" font-size="14.00">Value 2</text>
<polyline fill="none" stroke="black" points="233,-23.5 302,-23.5 "/>
<text text-anchor="middle" x="267.5" y="-8.3" font-family="Times,serif" font-size="14.00">Initial 0</text>
</g>
<!-- B1 -->
<g id="node5" class="node"><title>B1</title>
<path fill="none" stroke="black" d="M357,-23C357,-23 411,-23 411,-23 417,-23 423,-29 423,-35 423,-35 423,-57 423,-57 423,-63 417,-69 411,-69 411,-69 357,-69 357,-69 351,-69 345,-63 345,-57 345,-57 345,-35 345,-35 345,-29 351,-23 357,-23"/>
<text text-anchor="middle" x="384" y="-53.8" font-family="Times,serif" font-size="14.00">Blueprint 1</text>
<polyline fill="none" stroke="black" points="345,-46 423,-46 "/>
<text text-anchor="middle" x="384" y="-30.8" font-family="Times,serif" font-size="14.00">Coolant 3</text>
</g>
<!-- P1&#45;&gt;B1 -->
<g id="edge3" class="edge"><title>P1:a&#45;&gt;B1:a</title>
<path fill="none" stroke="black" d="M302,-58C317.229,-58 323.357,-58 334.888,-58"/>
<polygon fill="black" stroke="black" points="335,-61.5001 345,-58 335,-54.5001 335,-61.5001"/>
<text text-anchor="middle" x="323.5" y="-61.8" font-family="Times,serif" font-size="14.00">1</text>
</g>
<!-- P2 -->
<g id="node3" class="node"><title>P2</title>
<polygon fill="none" stroke="black" points="466,-0.5 466,-69.5 535,-69.5 535,-0.5 466,-0.5"/>
<text text-anchor="middle" x="500.5" y="-54.3" font-family="Times,serif" font-size="14.00">Product 2</text>
<polyline fill="none" stroke="black" points="466,-46.5 535,-46.5 "/>
<text text-anchor="middle" x="500.5" y="-31.3" font-family="Times,serif" font-size="14.00">Value 3</text>
<polyline fill="none" stroke="black" points="466,-23.5 535,-23.5 "/>
<text text-anchor="middle" x="500.5" y="-8.3" font-family="Times,serif" font-size="14.00">Initial 0</text>
</g>
<!-- B0&#45;&gt;P1 -->
<g id="edge2" class="edge"><title>B0:a&#45;&gt;P1:a</title>
<path fill="none" stroke="black" d="M190,-58C205.229,-58 211.357,-58 222.888,-58"/>
<polygon fill="black" stroke="black" points="223,-61.5001 233,-58 223,-54.5001 223,-61.5001"/>
<text text-anchor="middle" x="211.5" y="-61.8" font-family="Times,serif" font-size="14.00">1</text>
</g>
<!-- B1&#45;&gt;P2 -->
<g id="edge4" class="edge"><title>B1:a&#45;&gt;P2:a</title>
<path fill="none" stroke="black" d="M423,-58C438.229,-58 444.357,-58 455.888,-58"/>
<polygon fill="black" stroke="black" points="456,-61.5001 466,-58 456,-54.5001 456,-61.5001"/>
<text text-anchor="middle" x="444.5" y="-61.8" font-family="Times,serif" font-size="14.00">1</text>
</g>
</g>
</svg>
