<?xml version="1.0" encoding="UTF-8" standalone="no"?>
<!DOCTYPE svg PUBLIC "-//W3C//DTD SVG 1.1//EN"
 "http://www.w3.org/Graphics/SVG/1.1/DTD/svg11.dtd">
<!-- Generated by graphviz version 2.38.0 (20140413.2041)
 -->
<!-- Title: g Pages: 1 -->
<svg width="198pt" height="169pt"
 viewBox="0.00 0.00 198.00 169.00" xmlns="http://www.w3.org/2000/svg" xmlns:xlink="http://www.w3.org/1999/xlink">
<g id="graph0" class="graph" transform="scale(1 1) rotate(0) translate(4 165)">
<title>g</title>
<polygon fill="white" stroke="none" points="-4,4 -4,-165 194,-165 194,4 -4,4"/>
<!-- P0 -->
<g id="node1" class="node"><title>P0</title>
<polygon fill="none" stroke="black" points="121,-0.5 121,-69.5 190,-69.5 190,-0.5 121,-0.5"/>
<text text-anchor="middle" x="155.5" y="-54.3" font-family="Times,serif" font-size="14.00">Product 0</text>
<polyline fill="none" stroke="black" points="121,-46.5 190,-46.5 "/>
<text text-anchor="middle" x="155.5" y="-31.3" font-family="Times,serif" font-size="14.00">Value 1</text>
<polyline fill="none" stroke="black" points="121,-23.5 190,-23.5 "/>
<text text-anchor="middle" x="155.5" y="-8.3" font-family="Times,serif" font-size="14.00">Initial 5</text>
</g>
<!-- P1 -->
<g id="node2" class="node"><title>P1</title>
<polygon fill="none" stroke="black" points="121,-88.5 121,-157.5 190,-157.5 190,-88.5 121,-88.5"/>
<text text-anchor="middle" x="155.5" y="-142.3" font-family="Times,serif" font-size="14.00">Product 1</text>
<polyline fill="none" stroke="black" points="121,-134.5 190,-134.5 "/>
<text text-anchor="middle" x="155.5" y="-119.3" font-family="Times,serif" font-size="14.00">Value 3</text>
<polyline fill="none" stroke="black" points="121,-111.5 190,-111.5 "/>
<text text-anchor="middle" x="155.5" y="-96.3" font-family="Times,serif" font-size="14.00">Initial 5</text>
</g>
<!-- B0 -->
<g id="node3" class="node"><title>B0</title>
<path fill="none" stroke="black" d="M12,-23C12,-23 66,-23 66,-23 72,-23 78,-29 78,-35 78,-35 78,-57 78,-57 78,-63 72,-69 66,-69 66,-69 12,-69 12,-69 6,-69 0,-63 0,-57 0,-57 0,-35 0,-35 0,-29 6,-23 12,-23"/>
<text text-anchor="middle" x="39" y="-53.8" font-family="Times,serif" font-size="14.00">Blueprint 0</text>
<polyline fill="none" stroke="black" points="0,-46 78,-46 "/>
<text text-anchor="middle" x="39" y="-30.8" font-family="Times,serif" font-size="14.00">Coolant 1</text>
</g>
<!-- B0&#45;&gt;P0 -->
<g id="edge1" class="edge"><title>B0:a&#45;&gt;P0:a</title>
<path fill="none" stroke="black" d="M78,-58C93.2292,-58 99.3565,-58 110.888,-58"/>
<polygon fill="black" stroke="black" points="111,-61.5001 121,-58 111,-54.5001 111,-61.5001"/>
<text text-anchor="middle" x="99.5" y="-61.8" font-family="Times,serif" font-size="14.00">1</text>
</g>
<!-- B1 -->
<g id="node4" class="node"><title>B1</title>
<path fill="none" stroke="black" d="M12,-111C12,-111 66,-111 66,-111 72,-111 78,-117 78,-123 78,-123 78,-145 78,-145 78,-151 72,-157 66,-157 66,-157 12,-157 12,-157 6,-157 0,-151 0,-145 0,-145 0,-123 0,-123 0,-117 6,-111 12,-111"/>
<text text-anchor="middle" x="39" y="-141.8" font-family="Times,serif" font-size="14.00">Blueprint 1</text>
<polyline fill="none" stroke="black" points="0,-134 78,-134 "/>
<text text-anchor="middle" x="39" y="-118.8" font-family="Times,serif" font-size="14.00">Coolant 2</text>
</g>
<!-- B1&#45;&gt;P1 -->
<g id="edge2" class="edge"><title>B1:a&#45;&gt;P1:a</title>
<path fill="none" stroke="black" d="M78,-146C93.2292,-146 99.3565,-146 110.888,-146"/>
<polygon fill="black" stroke="black" points="111,-149.5 121,-146 111,-142.5 111,-149.5"/>
<text text-anchor="middle" x="99.5" y="-149.8" font-family="Times,serif" font-size="14.00">1</text>
</g>
</g>
</svg>
