<?xml version="1.0" encoding="UTF-8" standalone="no"?>
<!DOCTYPE svg PUBLIC "-//W3C//DTD SVG 1.1//EN"
 "http://www.w3.org/Graphics/SVG/1.1/DTD/svg11.dtd">
<!-- Generated by graphviz version 2.38.0 (20140413.2041)
 -->
<!-- Title: g Pages: 1 -->
<svg width="310pt" height="166pt"
 viewBox="0.00 0.00 310.00 166.00" xmlns="http://www.w3.org/2000/svg" xmlns:xlink="http://www.w3.org/1999/xlink">
<g id="graph0" class="graph" transform="scale(1 1) rotate(0) translate(4 162)">
<title>g</title>
<polygon fill="white" stroke="none" points="-4,4 -4,-162 306,-162 306,4 -4,4"/>
<!-- P0 -->
<g id="node1" class="node"><title>P0</title>
<polygon fill="none" stroke="black" points="0,-88.5 0,-157.5 69,-157.5 69,-88.5 0,-88.5"/>
<text text-anchor="middle" x="34.5" y="-142.3" font-family="Times,serif" font-size="14.00">Product 0</text>
<polyline fill="none" stroke="black" points="0,-134.5 69,-134.5 "/>
<text text-anchor="middle" x="34.5" y="-119.3" font-family="Times,serif" font-size="14.00">Value 0</text>
<polyline fill="none" stroke="black" points="0,-111.5 69,-111.5 "/>
<text text-anchor="middle" x="34.5" y="-96.3" font-family="Times,serif" font-size="14.00">Initial 1</text>
</g>
<!-- B0 -->
<g id="node4" class="node"><title>B0</title>
<path fill="none" stroke="black" d="M124,-73C124,-73 178,-73 178,-73 184,-73 190,-79 190,-85 190,-85 190,-107 190,-107 190,-113 184,-119 178,-119 178,-119 124,-119 124,-119 118,-119 112,-113 112,-107 112,-107 112,-85 112,-85 112,-79 118,-73 124,-73"/>
<text text-anchor="middle" x="151" y="-103.8" font-family="Times,serif" font-size="14.00">Blueprint 0</text>
<polyline fill="none" stroke="black" points="112,-96 190,-96 "/>
<text text-anchor="middle" x="151" y="-80.8" font-family="Times,serif" font-size="14.00">Coolant 5</text>
</g>
<!-- P0&#45;&gt;B0 -->
<g id="edge1" class="edge"><title>P0:a&#45;&gt;B0:a</title>
<path fill="none" stroke="black" d="M69,-146C83.8007,-146 82.9133,-133.805 94,-124 98.51,-120.011 100.255,-115.447 102.823,-112.217"/>
<polygon fill="black" stroke="black" points="104.375,-115.356 112,-108 101.452,-108.996 104.375,-115.356"/>
<text text-anchor="middle" x="90.5" y="-135.8" font-family="Times,serif" font-size="14.00">1</text>
</g>
<!-- P1 -->
<g id="node2" class="node"><title>P1</title>
<polygon fill="none" stroke="black" points="0,-0.5 0,-69.5 69,-69.5 69,-0.5 0,-0.5"/>
<text text-anchor="middle" x="34.5" y="-54.3" font-family="Times,serif" font-size="14.00">Product 1</text>
<polyline fill="none" stroke="black" points="0,-46.5 69,-46.5 "/>
<text text-anchor="middle" x="34.5" y="-31.3" font-family="Times,serif" font-size="14.00">Value 5</text>
<polyline fill="none" stroke="black" points="0,-23.5 69,-23.5 "/>
<text text-anchor="middle" x="34.5" y="-8.3" font-family="Times,serif" font-size="14.00">Initial 20</text>
</g>
<!-- P1&#45;&gt;B0 -->
<g id="edge2" class="edge"><title>P1:a&#45;&gt;B0:a</title>
<path fill="none" stroke="black" d="M69,-58C85.683,-58 83.1598,-73.3189 94,-86 99.1306,-92.0019 99.9442,-99.0952 102.917,-103.571"/>
<polygon fill="black" stroke="black" points="101.478,-106.763 112,-108 104.546,-100.471 101.478,-106.763"/>
<text text-anchor="middle" x="90.5" y="-89.8" font-family="Times,serif" font-size="14.00">1</text>
</g>
<!-- P2 -->
<g id="node3" class="node"><title>P2</title>
<polygon fill="none" stroke="black" points="233,-50.5 233,-119.5 302,-119.5 302,-50.5 233,-50.5"/>
<text text-anchor="middle" x="267.5" y="-104.3" font-family="Times,serif" font-size="14.00">Product 2</text>
<polyline fill="none" stroke="black" points="233,-96.5 302,-96.5 "/>
<text text-anchor="middle" x="267.5" y="-81.3" font-family="Times,serif" font-size="14.00">Value 20</text>
<polyline fill="none" stroke="black" points="233,-73.5 302,-73.5 "/>
<text text-anchor="middle" x="267.5" y="-58.3" font-family="Times,serif" font-size="14.00">Initial 0</text>
</g>
<!-- B0&#45;&gt;P0 -->
<g id="edge3" class="edge"><title>B0:a&#45;&gt;P0:a</title>
<path fill="none" stroke="black" d="M112,-108C103.89,-108 102.083,-105.669 94,-105 90.8995,-104.743 89.6048,-103.299 87,-105 74.5034,-113.162 81.821,-132.143 77.8651,-141.124"/>
<polygon fill="black" stroke="black" points="76.0753,-138.114 69,-146 79.4489,-144.247 76.0753,-138.114"/>
<text text-anchor="middle" x="90.5" y="-108.8" font-family="Times,serif" font-size="14.00">1</text>
</g>
<!-- B0&#45;&gt;P2 -->
<g id="edge4" class="edge"><title>B0:a&#45;&gt;P2:a</title>
<path fill="none" stroke="black" d="M190,-108C205.229,-108 211.357,-108 222.888,-108"/>
<polygon fill="black" stroke="black" points="223,-111.5 233,-108 223,-104.5 223,-111.5"/>
<text text-anchor="middle" x="211.5" y="-111.8" font-family="Times,serif" font-size="14.00">1</text>
</g>
</g>
</svg>
