<?xml version="1.0" encoding="UTF-8" standalone="no"?>
<!DOCTYPE svg PUBLIC "-//W3C//DTD SVG 1.1//EN"
 "http://www.w3.org/Graphics/SVG/1.1/DTD/svg11.dtd">
<!-- Generated by graphviz version 2.38.0 (20140413.2041)
 -->
<!-- Title: g Pages: 1 -->
<svg width="202pt" height="81pt"
 viewBox="0.00 0.00 202.00 81.00" xmlns="http://www.w3.org/2000/svg" xmlns:xlink="http://www.w3.org/1999/xlink">
<g id="graph0" class="graph" transform="scale(1 1) rotate(0) translate(4 77)">
<title>g</title>
<polygon fill="white" stroke="none" points="-4,4 -4,-77 198,-77 198,4 -4,4"/>
<!-- P0 -->
<g id="node1" class="node"><title>P0</title>
<polygon fill="none" stroke="black" points="0,-0.5 0,-69.5 73,-69.5 73,-0.5 0,-0.5"/>
<text text-anchor="middle" x="36.5" y="-54.3" font-family="Times,serif" font-size="14.00">Product 0</text>
<polyline fill="none" stroke="black" points="0,-46.5 73,-46.5 "/>
<text text-anchor="middle" x="36.5" y="-31.3" font-family="Times,serif" font-size="14.00">Value 100</text>
<polyline fill="none" stroke="black" points="0,-23.5 73,-23.5 "/>
<text text-anchor="middle" x="36.5" y="-8.3" font-family="Times,serif" font-size="14.00">Initial 1</text>
</g>
<!-- B0 -->
<g id="node2" class="node"><title>B0</title>
<path fill="none" stroke="black" d="M128,-23C128,-23 182,-23 182,-23 188,-23 194,-29 194,-35 194,-35 194,-57 194,-57 194,-63 188,-69 182,-69 182,-69 128,-69 128,-69 122,-69 116,-63 116,-57 116,-57 116,-35 116,-35 116,-29 122,-23 128,-23"/>
<text text-anchor="middle" x="155" y="-53.8" font-family="Times,serif" font-size="14.00">Blueprint 0</text>
<polyline fill="none" stroke="black" points="116,-46 194,-46 "/>
<text text-anchor="middle" x="155" y="-30.8" font-family="Times,serif" font-size="14.00">Coolant 1</text>
</g>
<!-- P0&#45;&gt;B0 -->
<g id="edge1" class="edge"><title>P0:a&#45;&gt;B0:a</title>
<path fill="none" stroke="black" d="M73,-58C88.2292,-58 94.3565,-58 105.888,-58"/>
<polygon fill="black" stroke="black" points="106,-61.5001 116,-58 106,-54.5001 106,-61.5001"/>
<text text-anchor="middle" x="94.5" y="-61.8" font-family="Times,serif" font-size="14.00">1</text>
</g>
<!-- B0&#45;&gt;P0 -->
<g id="edge2" class="edge"><title>B0:a&#45;&gt;P0:a</title>
<path fill="none" stroke="black" d="M116,-58C104.368,-58 108.686,-43.5962 98,-39 95.1421,-37.7707 93.8579,-37.7707 91,-39 84.6554,-41.729 83.6001,-47.9156 81.355,-52.4917"/>
<polygon fill="black" stroke="black" points="79.4224,-49.5736 73,-58 83.2754,-55.4178 79.4224,-49.5736"/>
<text text-anchor="middle" x="94.5" y="-42.8" font-family="Times,serif" font-size="14.00">1</text>
</g>
</g>
</svg>
