<?xml version="1.0" encoding="UTF-8" standalone="no"?>
<!DOCTYPE svg PUBLIC "-//W3C//DTD SVG 1.1//EN"
 "http://www.w3.org/Graphics/SVG/1.1/DTD/svg11.dtd">
<!-- Generated by graphviz version 2.38.0 (20140413.2041)
 -->
<!-- Title: g Pages: 1 -->
<svg width="543pt" height="140pt"
 viewBox="0.00 0.00 543.00 140.00" xmlns="http://www.w3.org/2000/svg" xmlns:xlink="http://www.w3.org/1999/xlink">
<g id="graph0" class="graph" transform="scale(1 1) rotate(0) translate(4 136)">
<title>g</title>
<polygon fill="white" stroke="none" points="-4,4 -4,-136 539,-136 539,4 -4,4"/>
<!-- P0 -->
<g id="node1" class="node"><title>P0</title>
<polygon fill="none" stroke="black" points="0,-0.5 0,-69.5 69,-69.5 69,-0.5 0,-0.5"/>
<text text-anchor="middle" x="34.5" y="-54.3" font-family="Times,serif" font-size="14.00">Product 0</text>
<polyline fill="none" stroke="black" points="0,-46.5 69,-46.5 "/>
<text text-anchor="middle" x="34.5" y="-31.3" font-family="Times,serif" font-size="14.00">Value 10</text>
<polyline fill="none" stroke="black" points="0,-23.5 69,-23.5 "/>
<text text-anchor="middle" x="34.5" y="-8.3" font-family="Times,serif" font-size="14.00">Initial 7</text>
</g>
<!-- B0 -->
<g id="node4" class="node"><title>B0</title>
<path fill="none" stroke="black" d="M124,-74C124,-74 178,-74 178,-74 184,-74 190,-80 190,-86 190,-86 190,-108 190,-108 190,-114 184,-120 178,-120 178,-120 124,-120 124,-120 118,-120 112,-114 112,-108 112,-108 112,-86 112,-86 112,-80 118,-74 124,-74"/>
<text text-anchor="middle" x="151" y="-104.8" font-family="Times,serif" font-size="14.00">Blueprint 0</text>
<polyline fill="none" stroke="black" points="112,-97 190,-97 "/>
<text text-anchor="middle" x="151" y="-81.8" font-family="Times,serif" font-size="14.00">Coolant 1</text>
</g>
<!-- P0&#45;&gt;B0 -->
<g id="edge1" class="edge"><title>P0:a&#45;&gt;B0:a</title>
<path fill="none" stroke="black" d="M69,-58C94.4789,-58 86.0266,-95.6648 101.962,-106.258"/>
<polygon fill="black" stroke="black" points="101.431,-109.741 112,-109 103.276,-102.988 101.431,-109.741"/>
<text text-anchor="middle" x="90.5" y="-96.8" font-family="Times,serif" font-size="14.00">2</text>
</g>
<!-- B1 -->
<g id="node5" class="node"><title>B1</title>
<path fill="none" stroke="black" d="M357,-28C357,-28 411,-28 411,-28 417,-28 423,-34 423,-40 423,-40 423,-62 423,-62 423,-68 417,-74 411,-74 411,-74 357,-74 357,-74 351,-74 345,-68 345,-62 345,-62 345,-40 345,-40 345,-34 351,-28 357,-28"/>
<text text-anchor="middle" x="384" y="-58.8" font-family="Times,serif" font-size="14.00">Blueprint 1</text>
<polyline fill="none" stroke="black" points="345,-51 423,-51 "/>
<text text-anchor="middle" x="384" y="-35.8" font-family="Times,serif" font-size="14.00">Coolant 5</text>
</g>
<!-- P0&#45;&gt;B1 -->
<g id="edge3" class="edge"><title>P0:a&#45;&gt;B1:a</title>
<path fill="none" stroke="black" d="M69,-58C172.579,-58 199.096,-41.192 302,-53 317.534,-54.7825 323.156,-60.0742 334.728,-62.1505"/>
<polygon fill="black" stroke="black" points="334.746,-65.6637 345,-63 335.323,-58.6876 334.746,-65.6637"/>
<text text-anchor="middle" x="211.5" y="-53.8" font-family="Times,serif" font-size="14.00">1</text>
</g>
<!-- P1 -->
<g id="node2" class="node"><title>P1</title>
<polygon fill="none" stroke="black" points="233,-62.5 233,-131.5 302,-131.5 302,-62.5 233,-62.5"/>
<text text-anchor="middle" x="267.5" y="-116.3" font-family="Times,serif" font-size="14.00">Product 1</text>
<polyline fill="none" stroke="black" points="233,-108.5 302,-108.5 "/>
<text text-anchor="middle" x="267.5" y="-93.3" font-family="Times,serif" font-size="14.00">Value 12</text>
<polyline fill="none" stroke="black" points="233,-85.5 302,-85.5 "/>
<text text-anchor="middle" x="267.5" y="-70.3" font-family="Times,serif" font-size="14.00">Initial 3</text>
</g>
<!-- P1&#45;&gt;B1 -->
<g id="edge4" class="edge"><title>P1:a&#45;&gt;B1:a</title>
<path fill="none" stroke="black" d="M302,-120C329.519,-120 317.782,-77.1352 334.874,-65.7492"/>
<polygon fill="black" stroke="black" points="336.266,-68.9979 345,-63 334.432,-62.2425 336.266,-68.9979"/>
<text text-anchor="middle" x="323.5" y="-107.8" font-family="Times,serif" font-size="14.00">1</text>
</g>
<!-- P2 -->
<g id="node3" class="node"><title>P2</title>
<polygon fill="none" stroke="black" points="466,-5.5 466,-74.5 535,-74.5 535,-5.5 466,-5.5"/>
<text text-anchor="middle" x="500.5" y="-59.3" font-family="Times,serif" font-size="14.00">Product 2</text>
<polyline fill="none" stroke="black" points="466,-51.5 535,-51.5 "/>
<text text-anchor="middle" x="500.5" y="-36.3" font-family="Times,serif" font-size="14.00">Value 25</text>
<polyline fill="none" stroke="black" points="466,-28.5 535,-28.5 "/>
<text text-anchor="middle" x="500.5" y="-13.3" font-family="Times,serif" font-size="14.00">Initial 0</text>
</g>
<!-- B0&#45;&gt;P1 -->
<g id="edge2" class="edge"><title>B0:a&#45;&gt;P1:a</title>
<path fill="none" stroke="black" d="M190,-109C205.874,-109 211.271,-116.123 223.052,-118.905"/>
<polygon fill="black" stroke="black" points="222.677,-122.385 233,-120 223.443,-115.427 222.677,-122.385"/>
<text text-anchor="middle" x="211.5" y="-118.8" font-family="Times,serif" font-size="14.00">1</text>
</g>
<!-- B1&#45;&gt;P2 -->
<g id="edge5" class="edge"><title>B1:a&#45;&gt;P2:a</title>
<path fill="none" stroke="black" d="M423,-63C438.229,-63 444.357,-63 455.888,-63"/>
<polygon fill="black" stroke="black" points="456,-66.5001 466,-63 456,-59.5001 456,-66.5001"/>
<text text-anchor="middle" x="444.5" y="-66.8" font-family="Times,serif" font-size="14.00">1</text>
</g>
</g>
</svg>
