<?xml version="1.0" encoding="UTF-8" standalone="no"?>
<!DOCTYPE svg PUBLIC "-//W3C//DTD SVG 1.1//EN"
 "http://www.w3.org/Graphics/SVG/1.1/DTD/svg11.dtd">
<!-- Generated by graphviz version 2.38.0 (20140413.2041)
 -->
<!-- Title: g Pages: 1 -->
<svg width="321pt" height="342pt"
 viewBox="0.00 0.00 321.00 342.00" xmlns="http://www.w3.org/2000/svg" xmlns:xlink="http://www.w3.org/1999/xlink">
<g id="graph0" class="graph" transform="scale(1 1) rotate(0) translate(4 338)">
<title>g</title>
<polygon fill="white" stroke="none" points="-4,4 -4,-338 317,-338 317,4 -4,4"/>
<!-- P0 -->
<g id="node1" class="node"><title>P0</title>
<polygon fill="none" stroke="black" points="244,-264.5 244,-333.5 313,-333.5 313,-264.5 244,-264.5"/>
<text text-anchor="middle" x="278.5" y="-318.3" font-family="Times,serif" font-size="14.00">Product 0</text>
<polyline fill="none" stroke="black" points="244,-310.5 313,-310.5 "/>
<text text-anchor="middle" x="278.5" y="-295.3" font-family="Times,serif" font-size="14.00">Value 1</text>
<polyline fill="none" stroke="black" points="244,-287.5 313,-287.5 "/>
<text text-anchor="middle" x="278.5" y="-272.3" font-family="Times,serif" font-size="14.00">Initial 0</text>
</g>
<!-- P1 -->
<g id="node2" class="node"><title>P1</title>
<polygon fill="none" stroke="black" points="244,-176.5 244,-245.5 313,-245.5 313,-176.5 244,-176.5"/>
<text text-anchor="middle" x="278.5" y="-230.3" font-family="Times,serif" font-size="14.00">Product 1</text>
<polyline fill="none" stroke="black" points="244,-222.5 313,-222.5 "/>
<text text-anchor="middle" x="278.5" y="-207.3" font-family="Times,serif" font-size="14.00">Value 2</text>
<polyline fill="none" stroke="black" points="244,-199.5 313,-199.5 "/>
<text text-anchor="middle" x="278.5" y="-184.3" font-family="Times,serif" font-size="14.00">Initial 0</text>
</g>
<!-- P2 -->
<g id="node3" class="node"><title>P2</title>
<polygon fill="none" stroke="black" points="244,-88.5 244,-157.5 313,-157.5 313,-88.5 244,-88.5"/>
<text text-anchor="middle" x="278.5" y="-142.3" font-family="Times,serif" font-size="14.00">Product 2</text>
<polyline fill="none" stroke="black" points="244,-134.5 313,-134.5 "/>
<text text-anchor="middle" x="278.5" y="-119.3" font-family="Times,serif" font-size="14.00">Value 4</text>
<polyline fill="none" stroke="black" points="244,-111.5 313,-111.5 "/>
<text text-anchor="middle" x="278.5" y="-96.3" font-family="Times,serif" font-size="14.00">Initial 0</text>
</g>
<!-- P3 -->
<g id="node4" class="node"><title>P3</title>
<polygon fill="none" stroke="black" points="244,-0.5 244,-69.5 313,-69.5 313,-0.5 244,-0.5"/>
<text text-anchor="middle" x="278.5" y="-54.3" font-family="Times,serif" font-size="14.00">Product 3</text>
<polyline fill="none" stroke="black" points="244,-46.5 313,-46.5 "/>
<text text-anchor="middle" x="278.5" y="-31.3" font-family="Times,serif" font-size="14.00">Value 8</text>
<polyline fill="none" stroke="black" points="244,-23.5 313,-23.5 "/>
<text text-anchor="middle" x="278.5" y="-8.3" font-family="Times,serif" font-size="14.00">Initial 0</text>
</g>
<!-- P4 -->
<g id="node5" class="node"><title>P4</title>
<polygon fill="none" stroke="black" points="0,-129.5 0,-198.5 80,-198.5 80,-129.5 0,-129.5"/>
<text text-anchor="middle" x="40" y="-183.3" font-family="Times,serif" font-size="14.00">Product 4</text>
<polyline fill="none" stroke="black" points="0,-175.5 80,-175.5 "/>
<text text-anchor="middle" x="40" y="-160.3" font-family="Times,serif" font-size="14.00">Value 0</text>
<polyline fill="none" stroke="black" points="0,-152.5 80,-152.5 "/>
<text text-anchor="middle" x="40" y="-137.3" font-family="Times,serif" font-size="14.00">Initial 1024</text>
</g>
<!-- B0 -->
<g id="node6" class="node"><title>B0</title>
<path fill="none" stroke="black" d="M135,-270C135,-270 189,-270 189,-270 195,-270 201,-276 201,-282 201,-282 201,-304 201,-304 201,-310 195,-316 189,-316 189,-316 135,-316 135,-316 129,-316 123,-310 123,-304 123,-304 123,-282 123,-282 123,-276 129,-270 135,-270"/>
<text text-anchor="middle" x="162" y="-300.8" font-family="Times,serif" font-size="14.00">Blueprint 0</text>
<polyline fill="none" stroke="black" points="123,-293 201,-293 "/>
<text text-anchor="middle" x="162" y="-277.8" font-family="Times,serif" font-size="14.00">Coolant 1</text>
</g>
<!-- P4&#45;&gt;B0 -->
<g id="edge1" class="edge"><title>P4:a&#45;&gt;B0:a</title>
<path fill="none" stroke="black" d="M80,-187C91.7741,-187 104.357,-271.006 116.384,-297.258"/>
<polygon fill="black" stroke="black" points="113.843,-299.671 123,-305 119.165,-295.124 113.843,-299.671"/>
<text text-anchor="middle" x="101.5" y="-263.8" font-family="Times,serif" font-size="14.00">1</text>
</g>
<!-- B1 -->
<g id="node7" class="node"><title>B1</title>
<path fill="none" stroke="black" d="M135,-188C135,-188 189,-188 189,-188 195,-188 201,-194 201,-200 201,-200 201,-222 201,-222 201,-228 195,-234 189,-234 189,-234 135,-234 135,-234 129,-234 123,-228 123,-222 123,-222 123,-200 123,-200 123,-194 129,-188 135,-188"/>
<text text-anchor="middle" x="162" y="-218.8" font-family="Times,serif" font-size="14.00">Blueprint 1</text>
<polyline fill="none" stroke="black" points="123,-211 201,-211 "/>
<text text-anchor="middle" x="162" y="-195.8" font-family="Times,serif" font-size="14.00">Coolant 2</text>
</g>
<!-- P4&#45;&gt;B1 -->
<g id="edge3" class="edge"><title>P4:a&#45;&gt;B1:a</title>
<path fill="none" stroke="black" d="M80,-187C100.835,-187 99.4676,-212.156 113.018,-220.411"/>
<polygon fill="black" stroke="black" points="112.442,-223.877 123,-223 114.199,-217.102 112.442,-223.877"/>
<text text-anchor="middle" x="101.5" y="-214.8" font-family="Times,serif" font-size="14.00">2</text>
</g>
<!-- B2 -->
<g id="node8" class="node"><title>B2</title>
<path fill="none" stroke="black" d="M135,-117C135,-117 189,-117 189,-117 195,-117 201,-123 201,-129 201,-129 201,-151 201,-151 201,-157 195,-163 189,-163 189,-163 135,-163 135,-163 129,-163 123,-157 123,-151 123,-151 123,-129 123,-129 123,-123 129,-117 135,-117"/>
<text text-anchor="middle" x="162" y="-147.8" font-family="Times,serif" font-size="14.00">Blueprint 2</text>
<polyline fill="none" stroke="black" points="123,-140 201,-140 "/>
<text text-anchor="middle" x="162" y="-124.8" font-family="Times,serif" font-size="14.00">Coolant 3</text>
</g>
<!-- P4&#45;&gt;B2 -->
<g id="edge5" class="edge"><title>P4:a&#45;&gt;B2:a</title>
<path fill="none" stroke="black" d="M80,-187C100.599,-187 99.5877,-162.542 113.096,-154.517"/>
<polygon fill="black" stroke="black" points="114.17,-157.855 123,-152 112.446,-151.071 114.17,-157.855"/>
<text text-anchor="middle" x="101.5" y="-178.8" font-family="Times,serif" font-size="14.00">4</text>
</g>
<!-- B3 -->
<g id="node9" class="node"><title>B3</title>
<path fill="none" stroke="black" d="M135,-35C135,-35 189,-35 189,-35 195,-35 201,-41 201,-47 201,-47 201,-69 201,-69 201,-75 195,-81 189,-81 189,-81 135,-81 135,-81 129,-81 123,-75 123,-69 123,-69 123,-47 123,-47 123,-41 129,-35 135,-35"/>
<text text-anchor="middle" x="162" y="-65.8" font-family="Times,serif" font-size="14.00">Blueprint 3</text>
<polyline fill="none" stroke="black" points="123,-58 201,-58 "/>
<text text-anchor="middle" x="162" y="-42.8" font-family="Times,serif" font-size="14.00">Coolant 4</text>
</g>
<!-- P4&#45;&gt;B3 -->
<g id="edge7" class="edge"><title>P4:a&#45;&gt;B3:a</title>
<path fill="none" stroke="black" d="M80,-187C91.6861,-187 104.404,-103.706 116.413,-77.6767"/>
<polygon fill="black" stroke="black" points="119.144,-79.8682 123,-70 113.832,-75.3098 119.144,-79.8682"/>
<text text-anchor="middle" x="101.5" y="-146.8" font-family="Times,serif" font-size="14.00">8</text>
</g>
<!-- B0&#45;&gt;P0 -->
<g id="edge2" class="edge"><title>B0:a&#45;&gt;P0:a</title>
<path fill="none" stroke="black" d="M201,-305C217.537,-305 221.996,-316.008 233.815,-320.308"/>
<polygon fill="black" stroke="black" points="233.562,-323.814 244,-322 234.709,-316.908 233.562,-323.814"/>
<text text-anchor="middle" x="222.5" y="-319.8" font-family="Times,serif" font-size="14.00">1</text>
</g>
<!-- B1&#45;&gt;P1 -->
<g id="edge4" class="edge"><title>B1:a&#45;&gt;P1:a</title>
<path fill="none" stroke="black" d="M201,-223C216.874,-223 222.271,-230.123 234.052,-232.905"/>
<polygon fill="black" stroke="black" points="233.677,-236.385 244,-234 234.443,-229.427 233.677,-236.385"/>
<text text-anchor="middle" x="222.5" y="-232.8" font-family="Times,serif" font-size="14.00">1</text>
</g>
<!-- B2&#45;&gt;P2 -->
<g id="edge6" class="edge"><title>B2:a&#45;&gt;P2:a</title>
<path fill="none" stroke="black" d="M201,-152C216.377,-152 222.299,-148.19 233.835,-146.642"/>
<polygon fill="black" stroke="black" points="234.241,-150.124 244,-146 233.799,-143.137 234.241,-150.124"/>
<text text-anchor="middle" x="222.5" y="-153.8" font-family="Times,serif" font-size="14.00">1</text>
</g>
<!-- B3&#45;&gt;P3 -->
<g id="edge8" class="edge"><title>B3:a&#45;&gt;P3:a</title>
<path fill="none" stroke="black" d="M201,-70C216.966,-70 222.232,-62.2297 234.019,-59.1945"/>
<polygon fill="black" stroke="black" points="234.487,-62.6636 244,-58 233.655,-55.7132 234.487,-62.6636"/>
<text text-anchor="middle" x="222.5" y="-69.8" font-family="Times,serif" font-size="14.00">1</text>
</g>
</g>
</svg>
