<?xml version="1.0" encoding="UTF-8" standalone="no"?>
<!DOCTYPE svg PUBLIC "-//W3C//DTD SVG 1.1//EN"
 "http://www.w3.org/Graphics/SVG/1.1/DTD/svg11.dtd">
<!-- Generated by graphviz version 2.38.0 (20140413.2041)
 -->
<!-- Title: g Pages: 1 -->
<svg width="1270pt" height="835pt"
 viewBox="0.00 0.00 1270.00 835.00" xmlns="http://www.w3.org/2000/svg" xmlns:xlink="http://www.w3.org/1999/xlink">
<g id="graph0" class="graph" transform="scale(1 1) rotate(0) translate(4 831)">
<title>g</title>
<polygon fill="white" stroke="none" points="-4,4 -4,-831 1266,-831 1266,4 -4,4"/>
<!-- P0 -->
<g id="node1" class="node"><title>P0</title>
<polygon fill="none" stroke="black" points="0,-633.5 0,-702.5 69,-702.5 69,-633.5 0,-633.5"/>
<text text-anchor="middle" x="34.5" y="-687.3" font-family="Times,serif" font-size="14.00">Product 0</text>
<polyline fill="none" stroke="black" points="0,-679.5 69,-679.5 "/>
<text text-anchor="middle" x="34.5" y="-664.3" font-family="Times,serif" font-size="14.00">Value 0</text>
<polyline fill="none" stroke="black" points="0,-656.5 69,-656.5 "/>
<text text-anchor="middle" x="34.5" y="-641.3" font-family="Times,serif" font-size="14.00">Initial 10</text>
</g>
<!-- B2 -->
<g id="node12" class="node"><title>B2</title>
<path fill="none" stroke="black" d="M124,-447C124,-447 178,-447 178,-447 184,-447 190,-453 190,-459 190,-459 190,-481 190,-481 190,-487 184,-493 178,-493 178,-493 124,-493 124,-493 118,-493 112,-487 112,-481 112,-481 112,-459 112,-459 112,-453 118,-447 124,-447"/>
<text text-anchor="middle" x="151" y="-477.8" font-family="Times,serif" font-size="14.00">Blueprint 2</text>
<polyline fill="none" stroke="black" points="112,-470 190,-470 "/>
<text text-anchor="middle" x="151" y="-454.8" font-family="Times,serif" font-size="14.00">Coolant 9</text>
</g>
<!-- P0&#45;&gt;B2 -->
<g id="edge7" class="edge"><title>P0:a&#45;&gt;B2:a</title>
<path fill="none" stroke="black" d="M69,-691C90.0229,-691 88.9312,-526.67 104.944,-489.438"/>
<polygon fill="black" stroke="black" points="107.657,-491.664 112,-482 102.578,-486.846 107.657,-491.664"/>
<text text-anchor="middle" x="90.5" y="-620.8" font-family="Times,serif" font-size="14.00">1</text>
</g>
<!-- B7 -->
<g id="node17" class="node"><title>B7</title>
<path fill="none" stroke="black" d="M360.5,-725C360.5,-725 414.5,-725 414.5,-725 420.5,-725 426.5,-731 426.5,-737 426.5,-737 426.5,-759 426.5,-759 426.5,-765 420.5,-771 414.5,-771 414.5,-771 360.5,-771 360.5,-771 354.5,-771 348.5,-765 348.5,-759 348.5,-759 348.5,-737 348.5,-737 348.5,-731 354.5,-725 360.5,-725"/>
<text text-anchor="middle" x="387.5" y="-755.8" font-family="Times,serif" font-size="14.00">Blueprint 7</text>
<polyline fill="none" stroke="black" points="348.5,-748 426.5,-748 "/>
<text text-anchor="middle" x="387.5" y="-732.8" font-family="Times,serif" font-size="14.00">Coolant 1</text>
</g>
<!-- P0&#45;&gt;B7 -->
<g id="edge22" class="edge"><title>P0:a&#45;&gt;B7:a</title>
<path fill="none" stroke="black" d="M69,-691C101.985,-691 61.2204,-742.423 87,-763 167.953,-827.616 216.427,-766.889 320,-768 323.111,-768.033 323.943,-768.575 327,-768 332.106,-767.039 334.812,-764.841 337.694,-762.992"/>
<polygon fill="black" stroke="black" points="338.957,-766.266 347.5,-760 336.914,-759.571 338.957,-766.266"/>
<text text-anchor="middle" x="211.5" y="-789.8" font-family="Times,serif" font-size="14.00">1</text>
</g>
<!-- B10 -->
<g id="node20" class="node"><title>B10</title>
<path fill="none" stroke="black" d="M357,-145C357,-145 418,-145 418,-145 424,-145 430,-151 430,-157 430,-157 430,-179 430,-179 430,-185 424,-191 418,-191 418,-191 357,-191 357,-191 351,-191 345,-185 345,-179 345,-179 345,-157 345,-157 345,-151 351,-145 357,-145"/>
<text text-anchor="middle" x="387.5" y="-175.8" font-family="Times,serif" font-size="14.00">Blueprint 10</text>
<polyline fill="none" stroke="black" points="345,-168 430,-168 "/>
<text text-anchor="middle" x="387.5" y="-152.8" font-family="Times,serif" font-size="14.00">Coolant 10</text>
</g>
<!-- P0&#45;&gt;B10 -->
<g id="edge31" class="edge"><title>P0:a&#45;&gt;B10:a</title>
<path fill="none" stroke="black" d="M69,-691C93.8584,-691 77.6034,-491.014 87,-468 89.802,-461.137 285.835,-220.145 335.938,-184.41"/>
<polygon fill="black" stroke="black" points="337.54,-187.523 345,-180 334.477,-181.229 337.54,-187.523"/>
<text text-anchor="middle" x="211.5" y="-321.8" font-family="Times,serif" font-size="14.00">1</text>
</g>
<!-- B16 -->
<g id="node26" class="node"><title>B16</title>
<path fill="none" stroke="black" d="M597,-493C597,-493 658,-493 658,-493 664,-493 670,-499 670,-505 670,-505 670,-527 670,-527 670,-533 664,-539 658,-539 658,-539 597,-539 597,-539 591,-539 585,-533 585,-527 585,-527 585,-505 585,-505 585,-499 591,-493 597,-493"/>
<text text-anchor="middle" x="627.5" y="-523.8" font-family="Times,serif" font-size="14.00">Blueprint 16</text>
<polyline fill="none" stroke="black" points="585,-516 670,-516 "/>
<text text-anchor="middle" x="627.5" y="-500.8" font-family="Times,serif" font-size="14.00">Coolant 8</text>
</g>
<!-- P0&#45;&gt;B16 -->
<g id="edge49" class="edge"><title>P0:a&#45;&gt;B16:a</title>
<path fill="none" stroke="black" d="M69,-691C79.1349,-691 78.2087,-699.957 87,-705 97.3806,-710.954 100.492,-711.717 112,-715 153.668,-726.887 164.836,-728.208 208,-732 264.654,-736.978 407.377,-696.089 455,-665 462.653,-660.004 547.656,-559.756 576.379,-533.994"/>
<polygon fill="black" stroke="black" points="578.787,-536.582 585,-528 574.791,-530.835 578.787,-536.582"/>
<text text-anchor="middle" x="323.5" y="-718.8" font-family="Times,serif" font-size="14.00">1</text>
</g>
<!-- P1 -->
<g id="node2" class="node"><title>P1</title>
<polygon fill="none" stroke="black" points="713,-174.5 713,-243.5 782,-243.5 782,-174.5 713,-174.5"/>
<text text-anchor="middle" x="747.5" y="-228.3" font-family="Times,serif" font-size="14.00">Product 1</text>
<polyline fill="none" stroke="black" points="713,-220.5 782,-220.5 "/>
<text text-anchor="middle" x="747.5" y="-205.3" font-family="Times,serif" font-size="14.00">Value 2</text>
<polyline fill="none" stroke="black" points="713,-197.5 782,-197.5 "/>
<text text-anchor="middle" x="747.5" y="-182.3" font-family="Times,serif" font-size="14.00">Initial 15</text>
</g>
<!-- B0 -->
<g id="node10" class="node"><title>B0</title>
<path fill="none" stroke="black" d="M840.5,-355C840.5,-355 894.5,-355 894.5,-355 900.5,-355 906.5,-361 906.5,-367 906.5,-367 906.5,-389 906.5,-389 906.5,-395 900.5,-401 894.5,-401 894.5,-401 840.5,-401 840.5,-401 834.5,-401 828.5,-395 828.5,-389 828.5,-389 828.5,-367 828.5,-367 828.5,-361 834.5,-355 840.5,-355"/>
<text text-anchor="middle" x="867.5" y="-385.8" font-family="Times,serif" font-size="14.00">Blueprint 0</text>
<polyline fill="none" stroke="black" points="828.5,-378 906.5,-378 "/>
<text text-anchor="middle" x="867.5" y="-362.8" font-family="Times,serif" font-size="14.00">Coolant 5</text>
</g>
<!-- P1&#45;&gt;B0 -->
<g id="edge1" class="edge"><title>P1:a&#45;&gt;B0:a</title>
<path fill="none" stroke="black" d="M782,-232C798.924,-232 795.364,-289.723 800,-306 804.456,-321.643 806.921,-368.984 818.792,-384.795"/>
<polygon fill="black" stroke="black" points="817.121,-387.874 827.5,-390 820.712,-381.865 817.121,-387.874"/>
<text text-anchor="middle" x="803.5" y="-349.8" font-family="Times,serif" font-size="14.00">1</text>
</g>
<!-- B1 -->
<g id="node11" class="node"><title>B1</title>
<path fill="none" stroke="black" d="M840.5,-290C840.5,-290 894.5,-290 894.5,-290 900.5,-290 906.5,-296 906.5,-302 906.5,-302 906.5,-324 906.5,-324 906.5,-330 900.5,-336 894.5,-336 894.5,-336 840.5,-336 840.5,-336 834.5,-336 828.5,-330 828.5,-324 828.5,-324 828.5,-302 828.5,-302 828.5,-296 834.5,-290 840.5,-290"/>
<text text-anchor="middle" x="867.5" y="-320.8" font-family="Times,serif" font-size="14.00">Blueprint 1</text>
<polyline fill="none" stroke="black" points="828.5,-313 906.5,-313 "/>
<text text-anchor="middle" x="867.5" y="-297.8" font-family="Times,serif" font-size="14.00">Coolant 2</text>
</g>
<!-- P1&#45;&gt;B1 -->
<g id="edge4" class="edge"><title>P1:a&#45;&gt;B1:a</title>
<path fill="none" stroke="black" d="M782,-232C801.682,-232 804.15,-300.06 818.856,-319.733"/>
<polygon fill="black" stroke="black" points="817.139,-322.786 827.5,-325 820.781,-316.808 817.139,-322.786"/>
<text text-anchor="middle" x="803.5" y="-290.8" font-family="Times,serif" font-size="14.00">1</text>
</g>
<!-- B8 -->
<g id="node18" class="node"><title>B8</title>
<path fill="none" stroke="black" d="M840.5,-160C840.5,-160 894.5,-160 894.5,-160 900.5,-160 906.5,-166 906.5,-172 906.5,-172 906.5,-194 906.5,-194 906.5,-200 900.5,-206 894.5,-206 894.5,-206 840.5,-206 840.5,-206 834.5,-206 828.5,-200 828.5,-194 828.5,-194 828.5,-172 828.5,-172 828.5,-166 834.5,-160 840.5,-160"/>
<text text-anchor="middle" x="867.5" y="-190.8" font-family="Times,serif" font-size="14.00">Blueprint 8</text>
<polyline fill="none" stroke="black" points="828.5,-183 906.5,-183 "/>
<text text-anchor="middle" x="867.5" y="-167.8" font-family="Times,serif" font-size="14.00">Coolant 5</text>
</g>
<!-- P1&#45;&gt;B8 -->
<g id="edge25" class="edge"><title>P1:a&#45;&gt;B8:a</title>
<path fill="none" stroke="black" d="M782,-232C800.287,-232 784.497,-204.699 800,-195 806.962,-190.645 811.465,-192.142 817.378,-193.593"/>
<polygon fill="black" stroke="black" points="817.113,-197.09 827.5,-195 818.077,-190.157 817.113,-197.09"/>
<text text-anchor="middle" x="803.5" y="-198.8" font-family="Times,serif" font-size="14.00">1</text>
</g>
<!-- B11 -->
<g id="node21" class="node"><title>B11</title>
<path fill="none" stroke="black" d="M837,-225C837,-225 898,-225 898,-225 904,-225 910,-231 910,-237 910,-237 910,-259 910,-259 910,-265 904,-271 898,-271 898,-271 837,-271 837,-271 831,-271 825,-265 825,-259 825,-259 825,-237 825,-237 825,-231 831,-225 837,-225"/>
<text text-anchor="middle" x="867.5" y="-255.8" font-family="Times,serif" font-size="14.00">Blueprint 11</text>
<polyline fill="none" stroke="black" points="825,-248 910,-248 "/>
<text text-anchor="middle" x="867.5" y="-232.8" font-family="Times,serif" font-size="14.00">Coolant 10</text>
</g>
<!-- P1&#45;&gt;B11 -->
<g id="edge34" class="edge"><title>P1:a&#45;&gt;B11:a</title>
<path fill="none" stroke="black" d="M782,-232C793.12,-232 797.303,-227.558 807,-233 815.254,-237.632 814.215,-247.812 816.602,-254.264"/>
<polygon fill="black" stroke="black" points="814.768,-257.25 825,-260 818.716,-251.47 814.768,-257.25"/>
<text text-anchor="middle" x="803.5" y="-236.8" font-family="Times,serif" font-size="14.00">1</text>
</g>
<!-- P2 -->
<g id="node3" class="node"><title>P2</title>
<polygon fill="none" stroke="black" points="473,-318.5 473,-387.5 542,-387.5 542,-318.5 473,-318.5"/>
<text text-anchor="middle" x="507.5" y="-372.3" font-family="Times,serif" font-size="14.00">Product 2</text>
<polyline fill="none" stroke="black" points="473,-364.5 542,-364.5 "/>
<text text-anchor="middle" x="507.5" y="-349.3" font-family="Times,serif" font-size="14.00">Value 10</text>
<polyline fill="none" stroke="black" points="473,-341.5 542,-341.5 "/>
<text text-anchor="middle" x="507.5" y="-326.3" font-family="Times,serif" font-size="14.00">Initial 18</text>
</g>
<!-- P2&#45;&gt;B0 -->
<g id="edge2" class="edge"><title>P2:a&#45;&gt;B0:a</title>
<path fill="none" stroke="black" d="M542,-376C598.917,-376 613.147,-377.308 670,-380 736.505,-383.15 755.466,-389.33 817.209,-389.95"/>
<polygon fill="black" stroke="black" points="817.483,-393.451 827.5,-390 817.517,-386.451 817.483,-393.451"/>
<text text-anchor="middle" x="691.5" y="-384.8" font-family="Times,serif" font-size="14.00">1</text>
</g>
<!-- P2&#45;&gt;B1 -->
<g id="edge5" class="edge"><title>P2:a&#45;&gt;B1:a</title>
<path fill="none" stroke="black" d="M542,-376C559.668,-376 670.697,-316.574 688,-313 745.491,-301.125 763.278,-322.334 817.351,-324.775"/>
<polygon fill="black" stroke="black" points="817.425,-328.277 827.5,-325 817.58,-321.279 817.425,-328.277"/>
<text text-anchor="middle" x="691.5" y="-316.8" font-family="Times,serif" font-size="14.00">1</text>
</g>
<!-- B9 -->
<g id="node19" class="node"><title>B9</title>
<path fill="none" stroke="black" d="M600.5,-105C600.5,-105 654.5,-105 654.5,-105 660.5,-105 666.5,-111 666.5,-117 666.5,-117 666.5,-139 666.5,-139 666.5,-145 660.5,-151 654.5,-151 654.5,-151 600.5,-151 600.5,-151 594.5,-151 588.5,-145 588.5,-139 588.5,-139 588.5,-117 588.5,-117 588.5,-111 594.5,-105 600.5,-105"/>
<text text-anchor="middle" x="627.5" y="-135.8" font-family="Times,serif" font-size="14.00">Blueprint 9</text>
<polyline fill="none" stroke="black" points="588.5,-128 666.5,-128 "/>
<text text-anchor="middle" x="627.5" y="-112.8" font-family="Times,serif" font-size="14.00">Coolant 5</text>
</g>
<!-- P2&#45;&gt;B9 -->
<g id="edge28" class="edge"><title>P2:a&#45;&gt;B9:a</title>
<path fill="none" stroke="black" d="M542,-376C567.966,-376 541.931,-161.648 560,-143 565.882,-136.93 570.863,-137.788 577.397,-138.917"/>
<polygon fill="black" stroke="black" points="577.184,-142.414 587.5,-140 577.93,-135.454 577.184,-142.414"/>
<text text-anchor="middle" x="563.5" y="-146.8" font-family="Times,serif" font-size="14.00">1</text>
</g>
<!-- B14 -->
<g id="node24" class="node"><title>B14</title>
<path fill="none" stroke="black" d="M597,-209C597,-209 658,-209 658,-209 664,-209 670,-215 670,-221 670,-221 670,-243 670,-243 670,-249 664,-255 658,-255 658,-255 597,-255 597,-255 591,-255 585,-249 585,-243 585,-243 585,-221 585,-221 585,-215 591,-209 597,-209"/>
<text text-anchor="middle" x="627.5" y="-239.8" font-family="Times,serif" font-size="14.00">Blueprint 14</text>
<polyline fill="none" stroke="black" points="585,-232 670,-232 "/>
<text text-anchor="middle" x="627.5" y="-216.8" font-family="Times,serif" font-size="14.00">Coolant 1</text>
</g>
<!-- P2&#45;&gt;B14 -->
<g id="edge43" class="edge"><title>P2:a&#45;&gt;B14:a</title>
<path fill="none" stroke="black" d="M542,-376C569.624,-376 542.517,-274.388 560,-253 564.905,-247 569.053,-244.999 574.663,-244.332"/>
<polygon fill="black" stroke="black" points="575.118,-247.82 585,-244 574.893,-240.823 575.118,-247.82"/>
<text text-anchor="middle" x="563.5" y="-256.8" font-family="Times,serif" font-size="14.00">1</text>
</g>
<!-- P2&#45;&gt;B16 -->
<g id="edge50" class="edge"><title>P2:a&#45;&gt;B16:a</title>
<path fill="none" stroke="black" d="M542,-376C565.66,-376 559.348,-400.611 567,-423 573.46,-441.901 564.979,-503.658 576.392,-522.495"/>
<polygon fill="black" stroke="black" points="574.69,-525.561 585,-528 578.461,-519.664 574.69,-525.561"/>
<text text-anchor="middle" x="563.5" y="-426.8" font-family="Times,serif" font-size="14.00">1</text>
</g>
<!-- P3 -->
<g id="node4" class="node"><title>P3</title>
<polygon fill="none" stroke="black" points="0,-100.5 0,-169.5 69,-169.5 69,-100.5 0,-100.5"/>
<text text-anchor="middle" x="34.5" y="-154.3" font-family="Times,serif" font-size="14.00">Product 3</text>
<polyline fill="none" stroke="black" points="0,-146.5 69,-146.5 "/>
<text text-anchor="middle" x="34.5" y="-131.3" font-family="Times,serif" font-size="14.00">Value 4</text>
<polyline fill="none" stroke="black" points="0,-123.5 69,-123.5 "/>
<text text-anchor="middle" x="34.5" y="-108.3" font-family="Times,serif" font-size="14.00">Initial 2</text>
</g>
<!-- P3&#45;&gt;B2 -->
<g id="edge8" class="edge"><title>P3:a&#45;&gt;B2:a</title>
<path fill="none" stroke="black" d="M34.5,-171C34.5,-238.747 40.1775,-458.986 102.024,-480.333"/>
<polygon fill="black" stroke="black" points="101.56,-483.803 112,-482 102.714,-476.899 101.56,-483.803"/>
<text text-anchor="middle" x="90.5" y="-478.8" font-family="Times,serif" font-size="14.00">1</text>
</g>
<!-- B4 -->
<g id="node14" class="node"><title>B4</title>
<path fill="none" stroke="black" d="M600.5,-613C600.5,-613 654.5,-613 654.5,-613 660.5,-613 666.5,-619 666.5,-625 666.5,-625 666.5,-647 666.5,-647 666.5,-653 660.5,-659 654.5,-659 654.5,-659 600.5,-659 600.5,-659 594.5,-659 588.5,-653 588.5,-647 588.5,-647 588.5,-625 588.5,-625 588.5,-619 594.5,-613 600.5,-613"/>
<text text-anchor="middle" x="627.5" y="-643.8" font-family="Times,serif" font-size="14.00">Blueprint 4</text>
<polyline fill="none" stroke="black" points="588.5,-636 666.5,-636 "/>
<text text-anchor="middle" x="627.5" y="-620.8" font-family="Times,serif" font-size="14.00">Coolant 1</text>
</g>
<!-- P3&#45;&gt;B4 -->
<g id="edge13" class="edge"><title>P3:a&#45;&gt;B4:a</title>
<path fill="none" stroke="black" d="M34.5,-171C34.5,-217.258 55.8331,-549.817 87,-584 106.325,-605.195 121.317,-598 150,-598 150,-598 150,-598 508.5,-598 546.319,-598 546.317,-639.419 577.34,-646.862"/>
<polygon fill="black" stroke="black" points="577.172,-650.365 587.5,-648 577.952,-643.408 577.172,-650.365"/>
<text text-anchor="middle" x="323.5" y="-601.8" font-family="Times,serif" font-size="14.00">1</text>
</g>
<!-- P3&#45;&gt;B8 -->
<g id="edge26" class="edge"><title>P3:a&#45;&gt;B8:a</title>
<path fill="none" stroke="black" d="M69,-158C99.0452,-158 68.3383,-47.5469 87,-24 105.611,-0.517622 120.037,-0 150,-0 150,-0 150,-0 748.5,-0 796.955,-0 788.963,-47.027 807,-92 814.33,-110.276 807.27,-171.038 818.904,-189.58"/>
<polygon fill="black" stroke="black" points="817.174,-192.628 827.5,-195 820.907,-186.706 817.174,-192.628"/>
<text text-anchor="middle" x="451.5" y="-3.8" font-family="Times,serif" font-size="14.00">1</text>
</g>
<!-- P3&#45;&gt;B9 -->
<g id="edge29" class="edge"><title>P3:a&#45;&gt;B9:a</title>
<path fill="none" stroke="black" d="M69,-158C120.227,-158 98.7731,-76 150,-76 150,-76 150,-76 452.5,-76 482.588,-76 541.748,-128.562 577.287,-138.418"/>
<polygon fill="black" stroke="black" points="577.082,-141.928 587.5,-140 578.154,-135.01 577.082,-141.928"/>
<text text-anchor="middle" x="323.5" y="-79.8" font-family="Times,serif" font-size="14.00">1</text>
</g>
<!-- P3&#45;&gt;B11 -->
<g id="edge35" class="edge"><title>P3:a&#45;&gt;B11:a</title>
<path fill="none" stroke="black" d="M69,-158C90.3669,-158 99.0304,-88.9804 112,-72 125.756,-53.9901 127.338,-38 150,-38 150,-38 150,-38 564.5,-38 623.64,-38 643.631,-34.6953 695,-64 759.792,-100.962 771.931,-123.164 807,-189 820.272,-213.916 799.581,-249.011 815.08,-257.894"/>
<polygon fill="black" stroke="black" points="814.491,-261.347 825,-260 815.945,-254.5 814.491,-261.347"/>
<text text-anchor="middle" x="451.5" y="-41.8" font-family="Times,serif" font-size="14.00">1</text>
</g>
<!-- B12 -->
<g id="node22" class="node"><title>B12</title>
<path fill="none" stroke="black" d="M357,-341C357,-341 418,-341 418,-341 424,-341 430,-347 430,-353 430,-353 430,-375 430,-375 430,-381 424,-387 418,-387 418,-387 357,-387 357,-387 351,-387 345,-381 345,-375 345,-375 345,-353 345,-353 345,-347 351,-341 357,-341"/>
<text text-anchor="middle" x="387.5" y="-371.8" font-family="Times,serif" font-size="14.00">Blueprint 12</text>
<polyline fill="none" stroke="black" points="345,-364 430,-364 "/>
<text text-anchor="middle" x="387.5" y="-348.8" font-family="Times,serif" font-size="14.00">Coolant 10</text>
</g>
<!-- P3&#45;&gt;B12 -->
<g id="edge37" class="edge"><title>P3:a&#45;&gt;B12:a</title>
<path fill="none" stroke="black" d="M69,-158C136.901,-158 159.449,-163.953 215,-203 232.673,-215.423 304.116,-345.167 335.883,-371.393"/>
<polygon fill="black" stroke="black" points="334.496,-374.614 345,-376 337.653,-368.366 334.496,-374.614"/>
<text text-anchor="middle" x="211.5" y="-206.8" font-family="Times,serif" font-size="14.00">1</text>
</g>
<!-- P4 -->
<g id="node5" class="node"><title>P4</title>
<polygon fill="none" stroke="black" points="953,-267.5 953,-336.5 1022,-336.5 1022,-267.5 953,-267.5"/>
<text text-anchor="middle" x="987.5" y="-321.3" font-family="Times,serif" font-size="14.00">Product 4</text>
<polyline fill="none" stroke="black" points="953,-313.5 1022,-313.5 "/>
<text text-anchor="middle" x="987.5" y="-298.3" font-family="Times,serif" font-size="14.00">Value 3</text>
<polyline fill="none" stroke="black" points="953,-290.5 1022,-290.5 "/>
<text text-anchor="middle" x="987.5" y="-275.3" font-family="Times,serif" font-size="14.00">Initial 2</text>
</g>
<!-- B5 -->
<g id="node15" class="node"><title>B5</title>
<path fill="none" stroke="black" d="M1080.5,-694C1080.5,-694 1134.5,-694 1134.5,-694 1140.5,-694 1146.5,-700 1146.5,-706 1146.5,-706 1146.5,-728 1146.5,-728 1146.5,-734 1140.5,-740 1134.5,-740 1134.5,-740 1080.5,-740 1080.5,-740 1074.5,-740 1068.5,-734 1068.5,-728 1068.5,-728 1068.5,-706 1068.5,-706 1068.5,-700 1074.5,-694 1080.5,-694"/>
<text text-anchor="middle" x="1107.5" y="-724.8" font-family="Times,serif" font-size="14.00">Blueprint 5</text>
<polyline fill="none" stroke="black" points="1068.5,-717 1146.5,-717 "/>
<text text-anchor="middle" x="1107.5" y="-701.8" font-family="Times,serif" font-size="14.00">Coolant 6</text>
</g>
<!-- P4&#45;&gt;B5 -->
<g id="edge16" class="edge"><title>P4:a&#45;&gt;B5:a</title>
<path fill="none" stroke="black" d="M987.5,-338C987.5,-358.267 1035.82,-668.168 1061.05,-721.282"/>
<polygon fill="black" stroke="black" points="1058.4,-723.569 1067.5,-729 1063.78,-719.082 1058.4,-723.569"/>
<text text-anchor="middle" x="1043.5" y="-678.8" font-family="Times,serif" font-size="14.00">1</text>
</g>
<!-- B6 -->
<g id="node16" class="node"><title>B6</title>
<path fill="none" stroke="black" d="M600.5,-389C600.5,-389 654.5,-389 654.5,-389 660.5,-389 666.5,-395 666.5,-401 666.5,-401 666.5,-423 666.5,-423 666.5,-429 660.5,-435 654.5,-435 654.5,-435 600.5,-435 600.5,-435 594.5,-435 588.5,-429 588.5,-423 588.5,-423 588.5,-401 588.5,-401 588.5,-395 594.5,-389 600.5,-389"/>
<text text-anchor="middle" x="627.5" y="-419.8" font-family="Times,serif" font-size="14.00">Blueprint 6</text>
<polyline fill="none" stroke="black" points="588.5,-412 666.5,-412 "/>
<text text-anchor="middle" x="627.5" y="-396.8" font-family="Times,serif" font-size="14.00">Coolant 10</text>
</g>
<!-- P4&#45;&gt;B6 -->
<g id="edge19" class="edge"><title>P4:a&#45;&gt;B6:a</title>
<path fill="none" stroke="black" d="M953,-325C931.633,-325 927.868,-399.284 910,-411 822.648,-468.274 778.336,-426.867 677.74,-424.139"/>
<polygon fill="black" stroke="black" points="677.547,-420.636 667.5,-424 677.452,-427.635 677.547,-420.636"/>
<text text-anchor="middle" x="803.5" y="-443.8" font-family="Times,serif" font-size="14.00">1</text>
</g>
<!-- B15 -->
<g id="node25" class="node"><title>B15</title>
<path fill="none" stroke="black" d="M1077,-96C1077,-96 1138,-96 1138,-96 1144,-96 1150,-102 1150,-108 1150,-108 1150,-130 1150,-130 1150,-136 1144,-142 1138,-142 1138,-142 1077,-142 1077,-142 1071,-142 1065,-136 1065,-130 1065,-130 1065,-108 1065,-108 1065,-102 1071,-96 1077,-96"/>
<text text-anchor="middle" x="1107.5" y="-126.8" font-family="Times,serif" font-size="14.00">Blueprint 15</text>
<polyline fill="none" stroke="black" points="1065,-119 1150,-119 "/>
<text text-anchor="middle" x="1107.5" y="-103.8" font-family="Times,serif" font-size="14.00">Coolant 1</text>
</g>
<!-- P4&#45;&gt;B15 -->
<g id="edge46" class="edge"><title>P4:a&#45;&gt;B15:a</title>
<path fill="none" stroke="black" d="M1022,-325C1062.36,-325 1027.97,-162.911 1055.48,-135.052"/>
<polygon fill="black" stroke="black" points="1057.17,-138.138 1065,-131 1054.43,-131.698 1057.17,-138.138"/>
<text text-anchor="middle" x="1043.5" y="-304.8" font-family="Times,serif" font-size="14.00">1</text>
</g>
<!-- P5 -->
<g id="node6" class="node"><title>P5</title>
<polygon fill="none" stroke="black" points="233,-104.5 233,-173.5 302,-173.5 302,-104.5 233,-104.5"/>
<text text-anchor="middle" x="267.5" y="-158.3" font-family="Times,serif" font-size="14.00">Product 5</text>
<polyline fill="none" stroke="black" points="233,-150.5 302,-150.5 "/>
<text text-anchor="middle" x="267.5" y="-135.3" font-family="Times,serif" font-size="14.00">Value 1</text>
<polyline fill="none" stroke="black" points="233,-127.5 302,-127.5 "/>
<text text-anchor="middle" x="267.5" y="-112.3" font-family="Times,serif" font-size="14.00">Initial 19</text>
</g>
<!-- P5&#45;&gt;B10 -->
<g id="edge32" class="edge"><title>P5:a&#45;&gt;B10:a</title>
<path fill="none" stroke="black" d="M302,-162C309.769,-162 324.245,-172.125 335.368,-177.188"/>
<polygon fill="black" stroke="black" points="334.42,-180.557 345,-180 336.382,-173.837 334.42,-180.557"/>
<text text-anchor="middle" x="323.5" y="-176.8" font-family="Times,serif" font-size="14.00">1</text>
</g>
<!-- B13 -->
<g id="node23" class="node"><title>B13</title>
<path fill="none" stroke="black" d="M357,-523C357,-523 418,-523 418,-523 424,-523 430,-529 430,-535 430,-535 430,-557 430,-557 430,-563 424,-569 418,-569 418,-569 357,-569 357,-569 351,-569 345,-563 345,-557 345,-557 345,-535 345,-535 345,-529 351,-523 357,-523"/>
<text text-anchor="middle" x="387.5" y="-553.8" font-family="Times,serif" font-size="14.00">Blueprint 13</text>
<polyline fill="none" stroke="black" points="345,-546 430,-546 "/>
<text text-anchor="middle" x="387.5" y="-530.8" font-family="Times,serif" font-size="14.00">Coolant 9</text>
</g>
<!-- P5&#45;&gt;B13 -->
<g id="edge40" class="edge"><title>P5:a&#45;&gt;B13:a</title>
<path fill="none" stroke="black" d="M267.5,-175C267.5,-179.908 326.438,-489.139 341.732,-548.283"/>
<polygon fill="black" stroke="black" points="338.495,-549.637 345,-558 345.13,-547.406 338.495,-549.637"/>
<text text-anchor="middle" x="323.5" y="-479.8" font-family="Times,serif" font-size="14.00">1</text>
</g>
<!-- P5&#45;&gt;B15 -->
<g id="edge47" class="edge"><title>P5:a&#45;&gt;B15:a</title>
<path fill="none" stroke="black" d="M302,-162C324.566,-162 323.904,-143.011 345,-135 537.117,-62.046 596.998,-68 802.5,-68 802.5,-68 802.5,-68 988.5,-68 1028.76,-68 1022.54,-120.637 1054.81,-129.684"/>
<polygon fill="black" stroke="black" points="1054.63,-133.191 1065,-131 1055.53,-126.248 1054.63,-133.191"/>
<text text-anchor="middle" x="691.5" y="-72.8" font-family="Times,serif" font-size="14.00">1</text>
</g>
<!-- P6 -->
<g id="node7" class="node"><title>P6</title>
<polygon fill="none" stroke="black" points="1193,-702.5 1193,-771.5 1262,-771.5 1262,-702.5 1193,-702.5"/>
<text text-anchor="middle" x="1227.5" y="-756.3" font-family="Times,serif" font-size="14.00">Product 6</text>
<polyline fill="none" stroke="black" points="1193,-748.5 1262,-748.5 "/>
<text text-anchor="middle" x="1227.5" y="-733.3" font-family="Times,serif" font-size="14.00">Value 9</text>
<polyline fill="none" stroke="black" points="1193,-725.5 1262,-725.5 "/>
<text text-anchor="middle" x="1227.5" y="-710.3" font-family="Times,serif" font-size="14.00">Initial 18</text>
</g>
<!-- P7 -->
<g id="node8" class="node"><title>P7</title>
<polygon fill="none" stroke="black" points="473,-702.5 473,-771.5 542,-771.5 542,-702.5 473,-702.5"/>
<text text-anchor="middle" x="507.5" y="-756.3" font-family="Times,serif" font-size="14.00">Product 7</text>
<polyline fill="none" stroke="black" points="473,-748.5 542,-748.5 "/>
<text text-anchor="middle" x="507.5" y="-733.3" font-family="Times,serif" font-size="14.00">Value 2</text>
<polyline fill="none" stroke="black" points="473,-725.5 542,-725.5 "/>
<text text-anchor="middle" x="507.5" y="-710.3" font-family="Times,serif" font-size="14.00">Initial 11</text>
</g>
<!-- B3 -->
<g id="node13" class="node"><title>B3</title>
<path fill="none" stroke="black" d="M600.5,-758C600.5,-758 654.5,-758 654.5,-758 660.5,-758 666.5,-764 666.5,-770 666.5,-770 666.5,-792 666.5,-792 666.5,-798 660.5,-804 654.5,-804 654.5,-804 600.5,-804 600.5,-804 594.5,-804 588.5,-798 588.5,-792 588.5,-792 588.5,-770 588.5,-770 588.5,-764 594.5,-758 600.5,-758"/>
<text text-anchor="middle" x="627.5" y="-788.8" font-family="Times,serif" font-size="14.00">Blueprint 3</text>
<polyline fill="none" stroke="black" points="588.5,-781 666.5,-781 "/>
<text text-anchor="middle" x="627.5" y="-765.8" font-family="Times,serif" font-size="14.00">Coolant 5</text>
</g>
<!-- P7&#45;&gt;B3 -->
<g id="edge10" class="edge"><title>P7:a&#45;&gt;B3:a</title>
<path fill="none" stroke="black" d="M542,-760C554.139,-760 557.103,-763.971 567,-771 573.98,-775.958 574.945,-783.592 578.251,-788.439"/>
<polygon fill="black" stroke="black" points="576.983,-791.716 587.5,-793 580.079,-785.438 576.983,-791.716"/>
<text text-anchor="middle" x="563.5" y="-774.8" font-family="Times,serif" font-size="14.00">1</text>
</g>
<!-- P7&#45;&gt;B4 -->
<g id="edge14" class="edge"><title>P7:a&#45;&gt;B4:a</title>
<path fill="none" stroke="black" d="M542,-760C569.841,-760 549.442,-725.761 560,-700 568.365,-679.589 563.58,-656.602 577.584,-649.917"/>
<polygon fill="black" stroke="black" points="578.346,-653.334 587.5,-648 577.017,-646.462 578.346,-653.334"/>
<text text-anchor="middle" x="563.5" y="-703.8" font-family="Times,serif" font-size="14.00">1</text>
</g>
<!-- P7&#45;&gt;B5 -->
<g id="edge17" class="edge"><title>P7:a&#45;&gt;B5:a</title>
<path fill="none" stroke="black" d="M542,-760C582.003,-760 586.497,-729 626.5,-729 626.5,-729 626.5,-729 988.5,-729 1019.91,-729 1030.24,-729 1057.21,-729"/>
<polygon fill="black" stroke="black" points="1057.5,-732.5 1067.5,-729 1057.5,-725.5 1057.5,-732.5"/>
<text text-anchor="middle" x="803.5" y="-732.8" font-family="Times,serif" font-size="14.00">1</text>
</g>
<!-- P8 -->
<g id="node9" class="node"><title>P8</title>
<polygon fill="none" stroke="black" points="233,-424.5 233,-493.5 302,-493.5 302,-424.5 233,-424.5"/>
<text text-anchor="middle" x="267.5" y="-478.3" font-family="Times,serif" font-size="14.00">Product 8</text>
<polyline fill="none" stroke="black" points="233,-470.5 302,-470.5 "/>
<text text-anchor="middle" x="267.5" y="-455.3" font-family="Times,serif" font-size="14.00">Value 2</text>
<polyline fill="none" stroke="black" points="233,-447.5 302,-447.5 "/>
<text text-anchor="middle" x="267.5" y="-432.3" font-family="Times,serif" font-size="14.00">Initial 11</text>
</g>
<!-- P8&#45;&gt;B3 -->
<g id="edge11" class="edge"><title>P8:a&#45;&gt;B3:a</title>
<path fill="none" stroke="black" d="M267.5,-495C267.5,-589.913 294.004,-610.717 320,-702 322.522,-710.855 337.709,-775.378 345,-781 427.7,-844.771 476.386,-796.349 577.247,-793.162"/>
<polygon fill="black" stroke="black" points="577.557,-796.658 587.5,-793 577.446,-789.659 577.557,-796.658"/>
<text text-anchor="middle" x="451.5" y="-815.8" font-family="Times,serif" font-size="14.00">1</text>
</g>
<!-- P8&#45;&gt;B6 -->
<g id="edge20" class="edge"><title>P8:a&#45;&gt;B6:a</title>
<path fill="none" stroke="black" d="M302,-482C317.549,-482 308.162,-462.082 320,-452 329.111,-444.241 333.443,-445.106 345,-442 446.007,-414.853 477.411,-423.392 577.289,-423.97"/>
<polygon fill="black" stroke="black" points="577.49,-427.471 587.5,-424 577.51,-420.471 577.49,-427.471"/>
<text text-anchor="middle" x="451.5" y="-426.8" font-family="Times,serif" font-size="14.00">1</text>
</g>
<!-- P8&#45;&gt;B7 -->
<g id="edge23" class="edge"><title>P8:a&#45;&gt;B7:a</title>
<path fill="none" stroke="black" d="M267.5,-495C267.5,-584.337 301.699,-601.321 327,-687 335.388,-715.406 318.835,-750.27 337.583,-758.298"/>
<polygon fill="black" stroke="black" points="337.052,-761.757 347.5,-760 338.236,-754.858 337.052,-761.757"/>
<text text-anchor="middle" x="323.5" y="-690.8" font-family="Times,serif" font-size="14.00">1</text>
</g>
<!-- P8&#45;&gt;B12 -->
<g id="edge38" class="edge"><title>P8:a&#45;&gt;B12:a</title>
<path fill="none" stroke="black" d="M302,-482C325.674,-482 302.21,-392.619 320,-377 325.353,-372.3 329.544,-373.212 334.788,-374.474"/>
<polygon fill="black" stroke="black" points="334.592,-377.983 345,-376 335.627,-371.06 334.592,-377.983"/>
<text text-anchor="middle" x="323.5" y="-380.8" font-family="Times,serif" font-size="14.00">1</text>
</g>
<!-- P8&#45;&gt;B13 -->
<g id="edge41" class="edge"><title>P8:a&#45;&gt;B13:a</title>
<path fill="none" stroke="black" d="M302,-482C318.221,-482 323.811,-535.108 336.543,-552.534"/>
<polygon fill="black" stroke="black" points="334.702,-555.511 345,-558 338.501,-549.632 334.702,-555.511"/>
<text text-anchor="middle" x="323.5" y="-532.8" font-family="Times,serif" font-size="14.00">1</text>
</g>
<!-- P8&#45;&gt;B14 -->
<g id="edge44" class="edge"><title>P8:a&#45;&gt;B14:a</title>
<path fill="none" stroke="black" d="M302,-482C347.288,-482 288.959,-311.977 320,-279 393.929,-200.461 452.439,-251.022 560,-243 566.757,-242.496 570.433,-242.978 574.79,-243.431"/>
<polygon fill="black" stroke="black" points="574.821,-246.938 585,-244 575.21,-239.949 574.821,-246.938"/>
<text text-anchor="middle" x="451.5" y="-240.8" font-family="Times,serif" font-size="14.00">1</text>
</g>
<!-- B0&#45;&gt;P8 -->
<g id="edge3" class="edge"><title>B0:a&#45;&gt;P8:a</title>
<path fill="none" stroke="black" d="M827.5,-390C817.55,-390 816.281,-395.413 807,-399 747.09,-422.155 732.791,-431.481 670,-445 632.258,-453.126 376.912,-478.639 312.057,-481.699"/>
<polygon fill="black" stroke="black" points="311.891,-478.202 302,-482 312.1,-485.199 311.891,-478.202"/>
<text text-anchor="middle" x="563.5" y="-461.8" font-family="Times,serif" font-size="14.00">1</text>
</g>
<!-- B1&#45;&gt;P4 -->
<g id="edge6" class="edge"><title>B1:a&#45;&gt;P4:a</title>
<path fill="none" stroke="black" d="M907.5,-325C923.773,-325 930.224,-325 942.661,-325"/>
<polygon fill="black" stroke="black" points="943,-328.5 953,-325 943,-321.5 943,-328.5"/>
<text text-anchor="middle" x="931.5" y="-328.8" font-family="Times,serif" font-size="14.00">1</text>
</g>
<!-- B2&#45;&gt;P8 -->
<g id="edge9" class="edge"><title>B2:a&#45;&gt;P8:a</title>
<path fill="none" stroke="black" d="M190,-482C205.229,-482 211.357,-482 222.888,-482"/>
<polygon fill="black" stroke="black" points="223,-485.5 233,-482 223,-478.5 223,-485.5"/>
<text text-anchor="middle" x="211.5" y="-485.8" font-family="Times,serif" font-size="14.00">1</text>
</g>
<!-- B3&#45;&gt;P6 -->
<g id="edge12" class="edge"><title>B3:a&#45;&gt;P6:a</title>
<path fill="none" stroke="black" d="M667.5,-793C703.014,-793 710.986,-781 746.5,-781 746.5,-781 746.5,-781 1108.5,-781 1138.7,-781 1146.05,-775.613 1175,-767 1178.6,-765.929 1180.85,-764.455 1182.97,-763.136"/>
<polygon fill="black" stroke="black" points="1184.5,-766.324 1193,-760 1182.41,-759.643 1184.5,-766.324"/>
<text text-anchor="middle" x="931.5" y="-784.8" font-family="Times,serif" font-size="14.00">1</text>
</g>
<!-- B4&#45;&gt;P8 -->
<g id="edge15" class="edge"><title>B4:a&#45;&gt;P8:a</title>
<path fill="none" stroke="black" d="M587.5,-648C467.655,-648 416.066,-685.654 320,-614 276.468,-581.53 268.394,-556.061 267.575,-505.166"/>
<polygon fill="black" stroke="black" points="271.074,-504.974 267.5,-495 264.074,-505.026 271.074,-504.974"/>
<text text-anchor="middle" x="451.5" y="-660.8" font-family="Times,serif" font-size="14.00">1</text>
</g>
<!-- B5&#45;&gt;P6 -->
<g id="edge18" class="edge"><title>B5:a&#45;&gt;P6:a</title>
<path fill="none" stroke="black" d="M1147.5,-729C1167.96,-729 1168.91,-750.663 1182.96,-757.771"/>
<polygon fill="black" stroke="black" points="1182.48,-761.248 1193,-760 1184,-754.415 1182.48,-761.248"/>
<text text-anchor="middle" x="1171.5" y="-753.8" font-family="Times,serif" font-size="14.00">1</text>
</g>
<!-- B6&#45;&gt;P1 -->
<g id="edge21" class="edge"><title>B6:a&#45;&gt;P1:a</title>
<path fill="none" stroke="black" d="M667.5,-424C699.492,-424 678.787,-385.636 688,-355 691.077,-344.767 692.494,-342.387 695,-332 699.448,-313.566 693.195,-255.562 704.453,-237.455"/>
<polygon fill="black" stroke="black" points="706.454,-240.33 713,-232 702.688,-234.43 706.454,-240.33"/>
<text text-anchor="middle" x="691.5" y="-358.8" font-family="Times,serif" font-size="14.00">1</text>
</g>
<!-- B7&#45;&gt;P7 -->
<g id="edge24" class="edge"><title>B7:a&#45;&gt;P7:a</title>
<path fill="none" stroke="black" d="M427.5,-760C443.773,-760 450.224,-760 462.661,-760"/>
<polygon fill="black" stroke="black" points="463,-763.5 473,-760 463,-756.5 463,-763.5"/>
<text text-anchor="middle" x="451.5" y="-763.8" font-family="Times,serif" font-size="14.00">1</text>
</g>
<!-- B8&#45;&gt;P4 -->
<g id="edge27" class="edge"><title>B8:a&#45;&gt;P4:a</title>
<path fill="none" stroke="black" d="M907.5,-195C934.52,-195 925.44,-296.317 943.999,-320.063"/>
<polygon fill="black" stroke="black" points="942.549,-323.259 953,-325 945.916,-317.122 942.549,-323.259"/>
<text text-anchor="middle" x="931.5" y="-297.8" font-family="Times,serif" font-size="14.00">1</text>
</g>
<!-- B9&#45;&gt;P1 -->
<g id="edge30" class="edge"><title>B9:a&#45;&gt;P1:a</title>
<path fill="none" stroke="black" d="M667.5,-140C680.664,-140 686.475,-140.97 695,-151 716.085,-175.806 685.229,-219.942 703.081,-229.946"/>
<polygon fill="black" stroke="black" points="702.498,-233.399 713,-232 703.918,-226.545 702.498,-233.399"/>
<text text-anchor="middle" x="691.5" y="-154.8" font-family="Times,serif" font-size="14.00">1</text>
</g>
<!-- B10&#45;&gt;P1 -->
<g id="edge33" class="edge"><title>B10:a&#45;&gt;P1:a</title>
<path fill="none" stroke="black" d="M430,-180C537,-180 570.274,-160.221 670,-199 688.769,-206.298 689.372,-224.455 703.138,-230.216"/>
<polygon fill="black" stroke="black" points="702.537,-233.664 713,-232 703.783,-226.776 702.537,-233.664"/>
<text text-anchor="middle" x="563.5" y="-179.8" font-family="Times,serif" font-size="14.00">1</text>
</g>
<!-- B11&#45;&gt;P8 -->
<g id="edge36" class="edge"><title>B11:a&#45;&gt;P8:a</title>
<path fill="none" stroke="black" d="M825,-260C593.714,-260 393.802,-300.222 345,-332 328.369,-342.83 327.289,-350.541 320,-369 312.011,-389.232 323.126,-457.545 310.587,-476.869"/>
<polygon fill="black" stroke="black" points="308.789,-473.866 302,-482 312.38,-479.875 308.789,-473.866"/>
<text text-anchor="middle" x="563.5" y="-281.8" font-family="Times,serif" font-size="14.00">1</text>
</g>
<!-- B12&#45;&gt;P2 -->
<g id="edge39" class="edge"><title>B12:a&#45;&gt;P2:a</title>
<path fill="none" stroke="black" d="M430,-376C445.229,-376 451.357,-376 462.888,-376"/>
<polygon fill="black" stroke="black" points="463,-379.5 473,-376 463,-372.5 463,-379.5"/>
<text text-anchor="middle" x="451.5" y="-379.8" font-family="Times,serif" font-size="14.00">1</text>
</g>
<!-- B13&#45;&gt;P0 -->
<g id="edge42" class="edge"><title>B13:a&#45;&gt;P0:a</title>
<path fill="none" stroke="black" d="M345,-558C318.255,-558 346.797,-659.017 327,-677 244.573,-751.877 187.382,-694.699 79.2759,-691.168"/>
<polygon fill="black" stroke="black" points="79.056,-687.664 69,-691 78.9414,-694.663 79.056,-687.664"/>
<text text-anchor="middle" x="211.5" y="-716.8" font-family="Times,serif" font-size="14.00">1</text>
</g>
<!-- B14&#45;&gt;P1 -->
<g id="edge45" class="edge"><title>B14:a&#45;&gt;P1:a</title>
<path fill="none" stroke="black" d="M670,-244C685.966,-244 691.232,-236.23 703.019,-233.194"/>
<polygon fill="black" stroke="black" points="703.487,-236.664 713,-232 702.655,-229.713 703.487,-236.664"/>
<text text-anchor="middle" x="691.5" y="-243.8" font-family="Times,serif" font-size="14.00">1</text>
</g>
<!-- B15&#45;&gt;P1 -->
<g id="edge48" class="edge"><title>B15:a&#45;&gt;P1:a</title>
<path fill="none" stroke="black" d="M1065,-131C958,-131 916.782,-94.9984 825,-150 807.339,-160.583 809.567,-170.769 800,-189 792.63,-203.046 798.138,-220.79 791.827,-228.336"/>
<polygon fill="black" stroke="black" points="790.147,-225.227 782,-232 792.593,-231.786 790.147,-225.227"/>
<text text-anchor="middle" x="931.5" y="-123.8" font-family="Times,serif" font-size="14.00">1</text>
</g>
<!-- B16&#45;&gt;P8 -->
<g id="edge51" class="edge"><title>B16:a&#45;&gt;P8:a</title>
<path fill="none" stroke="black" d="M585,-528C461.056,-528 431.042,-484.481 312.234,-482.101"/>
<polygon fill="black" stroke="black" points="312.034,-478.599 302,-482 311.965,-485.599 312.034,-478.599"/>
<text text-anchor="middle" x="451.5" y="-511.8" font-family="Times,serif" font-size="14.00">1</text>
</g>
</g>
</svg>
