<?xml version="1.0" encoding="UTF-8" standalone="no"?>
<!DOCTYPE svg PUBLIC "-//W3C//DTD SVG 1.1//EN"
 "http://www.w3.org/Graphics/SVG/1.1/DTD/svg11.dtd">
<!-- Generated by graphviz version 2.38.0 (20140413.2041)
 -->
<!-- Title: g Pages: 1 -->
<svg width="933pt" height="373pt"
 viewBox="0.00 0.00 933.00 373.00" xmlns="http://www.w3.org/2000/svg" xmlns:xlink="http://www.w3.org/1999/xlink">
<g id="graph0" class="graph" transform="scale(1 1) rotate(0) translate(4 369)">
<title>g</title>
<polygon fill="white" stroke="none" points="-4,4 -4,-369 929,-369 929,4 -4,4"/>
<!-- P0 -->
<g id="node1" class="node"><title>P0</title>
<polygon fill="none" stroke="black" points="304,-144.5 304,-213.5 373,-213.5 373,-144.5 304,-144.5"/>
<text text-anchor="middle" x="338.5" y="-198.3" font-family="Times,serif" font-size="14.00">Product 0</text>
<polyline fill="none" stroke="black" points="304,-190.5 373,-190.5 "/>
<text text-anchor="middle" x="338.5" y="-175.3" font-family="Times,serif" font-size="14.00">Value &#45;1</text>
<polyline fill="none" stroke="black" points="304,-167.5 373,-167.5 "/>
<text text-anchor="middle" x="338.5" y="-152.3" font-family="Times,serif" font-size="14.00">Initial 0</text>
</g>
<!-- B3 -->
<g id="node11" class="node"><title>B3</title>
<path fill="none" stroke="black" d="M499,-222C499,-222 553,-222 553,-222 559,-222 565,-228 565,-234 565,-234 565,-256 565,-256 565,-262 559,-268 553,-268 553,-268 499,-268 499,-268 493,-268 487,-262 487,-256 487,-256 487,-234 487,-234 487,-228 493,-222 499,-222"/>
<text text-anchor="middle" x="526" y="-252.8" font-family="Times,serif" font-size="14.00">Blueprint 3</text>
<polyline fill="none" stroke="black" points="487,-245 565,-245 "/>
<text text-anchor="middle" x="526" y="-229.8" font-family="Times,serif" font-size="14.00">Coolant 5</text>
</g>
<!-- P0&#45;&gt;B3 -->
<g id="edge7" class="edge"><title>P0:a&#45;&gt;B3:a</title>
<path fill="none" stroke="black" d="M373,-202C416.41,-202 434.486,-193.671 469,-220 479.564,-228.059 474.626,-243.939 478.149,-252.021"/>
<polygon fill="black" stroke="black" points="476.568,-255.148 487,-257 480,-249.047 476.568,-255.148"/>
<text text-anchor="middle" x="430" y="-223.8" font-family="Times,serif" font-size="14.00">1</text>
</g>
<!-- B4 -->
<g id="node12" class="node"><title>B4</title>
<path fill="none" stroke="black" d="M499,-83C499,-83 553,-83 553,-83 559,-83 565,-89 565,-95 565,-95 565,-117 565,-117 565,-123 559,-129 553,-129 553,-129 499,-129 499,-129 493,-129 487,-123 487,-117 487,-117 487,-95 487,-95 487,-89 493,-83 499,-83"/>
<text text-anchor="middle" x="526" y="-113.8" font-family="Times,serif" font-size="14.00">Blueprint 4</text>
<polyline fill="none" stroke="black" points="487,-106 565,-106 "/>
<text text-anchor="middle" x="526" y="-90.8" font-family="Times,serif" font-size="14.00">Coolant 5</text>
</g>
<!-- P0&#45;&gt;B4 -->
<g id="edge10" class="edge"><title>P0:a&#45;&gt;B4:a</title>
<path fill="none" stroke="black" d="M373,-202C410.746,-202 361.74,-142.847 391,-119 421.362,-94.2546 440.922,-114.098 476.932,-117.52"/>
<polygon fill="black" stroke="black" points="476.844,-121.019 487,-118 477.178,-114.027 476.844,-121.019"/>
<text text-anchor="middle" x="430" y="-122.8" font-family="Times,serif" font-size="14.00">1</text>
</g>
<!-- B5 -->
<g id="node13" class="node"><title>B5</title>
<path fill="none" stroke="black" d="M736,-151C736,-151 790,-151 790,-151 796,-151 802,-157 802,-163 802,-163 802,-185 802,-185 802,-191 796,-197 790,-197 790,-197 736,-197 736,-197 730,-197 724,-191 724,-185 724,-185 724,-163 724,-163 724,-157 730,-151 736,-151"/>
<text text-anchor="middle" x="763" y="-181.8" font-family="Times,serif" font-size="14.00">Blueprint 5</text>
<polyline fill="none" stroke="black" points="724,-174 802,-174 "/>
<text text-anchor="middle" x="763" y="-158.8" font-family="Times,serif" font-size="14.00">Coolant 5</text>
</g>
<!-- P0&#45;&gt;B5 -->
<g id="edge15" class="edge"><title>P0:a&#45;&gt;B5:a</title>
<path fill="none" stroke="black" d="M373,-202C406.848,-202 365.225,-254.061 391,-276 415.579,-296.921 654.257,-311.074 681,-293 699.329,-280.612 698.96,-209.87 715.003,-190.759"/>
<polygon fill="black" stroke="black" points="716.797,-193.769 724,-186 713.524,-187.582 716.797,-193.769"/>
<text text-anchor="middle" x="586.5" y="-304.8" font-family="Times,serif" font-size="14.00">1</text>
</g>
<!-- P1 -->
<g id="node2" class="node"><title>P1</title>
<polygon fill="none" stroke="black" points="610,-0.5 610,-69.5 679,-69.5 679,-0.5 610,-0.5"/>
<text text-anchor="middle" x="644.5" y="-54.3" font-family="Times,serif" font-size="14.00">Product 1</text>
<polyline fill="none" stroke="black" points="610,-46.5 679,-46.5 "/>
<text text-anchor="middle" x="644.5" y="-31.3" font-family="Times,serif" font-size="14.00">Value &#45;2</text>
<polyline fill="none" stroke="black" points="610,-23.5 679,-23.5 "/>
<text text-anchor="middle" x="644.5" y="-8.3" font-family="Times,serif" font-size="14.00">Initial 0</text>
</g>
<!-- P1&#45;&gt;B4 -->
<g id="edge11" class="edge"><title>P1:a&#45;&gt;B4:a</title>
<path fill="none" stroke="black" d="M608.5,-58C595.779,-58 591.507,-61.5421 583,-71 571.313,-83.9925 580.553,-105.371 574.489,-114.102"/>
<polygon fill="black" stroke="black" points="572.92,-110.963 565,-118 575.58,-117.438 572.92,-110.963"/>
<text text-anchor="middle" x="586.5" y="-74.8" font-family="Times,serif" font-size="14.00">1</text>
</g>
<!-- P1&#45;&gt;B5 -->
<g id="edge16" class="edge"><title>P1:a&#45;&gt;B5:a</title>
<path fill="none" stroke="black" d="M680.5,-58C703.876,-58 697.741,-82.1321 706,-104 711.356,-118.18 707.575,-163.45 715.976,-179.928"/>
<polygon fill="black" stroke="black" points="713.914,-182.757 724,-186 718.138,-177.175 713.914,-182.757"/>
<text text-anchor="middle" x="702.5" y="-107.8" font-family="Times,serif" font-size="14.00">1</text>
</g>
<!-- P2 -->
<g id="node3" class="node"><title>P2</title>
<polygon fill="none" stroke="black" points="850.5,-128.5 850.5,-197.5 919.5,-197.5 919.5,-128.5 850.5,-128.5"/>
<text text-anchor="middle" x="885" y="-182.3" font-family="Times,serif" font-size="14.00">Product 2</text>
<polyline fill="none" stroke="black" points="850.5,-174.5 919.5,-174.5 "/>
<text text-anchor="middle" x="885" y="-159.3" font-family="Times,serif" font-size="14.00">Value &#45;3</text>
<polyline fill="none" stroke="black" points="850.5,-151.5 919.5,-151.5 "/>
<text text-anchor="middle" x="885" y="-136.3" font-family="Times,serif" font-size="14.00">Initial 0</text>
</g>
<!-- P2&#45;&gt;B5 -->
<g id="edge17" class="edge"><title>P2:a&#45;&gt;B5:a</title>
<path fill="none" stroke="black" d="M849,-186C836.367,-186 838.898,-172.247 827,-168 824.07,-166.954 822.874,-166.809 820,-168 813.957,-170.503 812.667,-176.128 810.467,-180.429"/>
<polygon fill="black" stroke="black" points="808.43,-177.579 802,-186 812.278,-183.427 808.43,-177.579"/>
<text text-anchor="middle" x="823.5" y="-171.8" font-family="Times,serif" font-size="14.00">1</text>
</g>
<!-- P3 -->
<g id="node4" class="node"><title>P3</title>
<polygon fill="none" stroke="black" points="610,-214.5 610,-283.5 679,-283.5 679,-214.5 610,-214.5"/>
<text text-anchor="middle" x="644.5" y="-268.3" font-family="Times,serif" font-size="14.00">Product 3</text>
<polyline fill="none" stroke="black" points="610,-260.5 679,-260.5 "/>
<text text-anchor="middle" x="644.5" y="-245.3" font-family="Times,serif" font-size="14.00">Value 10</text>
<polyline fill="none" stroke="black" points="610,-237.5 679,-237.5 "/>
<text text-anchor="middle" x="644.5" y="-222.3" font-family="Times,serif" font-size="14.00">Initial 0</text>
</g>
<!-- P4 -->
<g id="node5" class="node"><title>P4</title>
<polygon fill="none" stroke="black" points="608,-88.5 608,-157.5 681,-157.5 681,-88.5 608,-88.5"/>
<text text-anchor="middle" x="644.5" y="-142.3" font-family="Times,serif" font-size="14.00">Product 4</text>
<polyline fill="none" stroke="black" points="608,-134.5 681,-134.5 "/>
<text text-anchor="middle" x="644.5" y="-119.3" font-family="Times,serif" font-size="14.00">Value 100</text>
<polyline fill="none" stroke="black" points="608,-111.5 681,-111.5 "/>
<text text-anchor="middle" x="644.5" y="-96.3" font-family="Times,serif" font-size="14.00">Initial 0</text>
</g>
<!-- P5 -->
<g id="node6" class="node"><title>P5</title>
<polygon fill="none" stroke="black" points="845,-216.5 845,-285.5 925,-285.5 925,-216.5 845,-216.5"/>
<text text-anchor="middle" x="885" y="-270.3" font-family="Times,serif" font-size="14.00">Product 5</text>
<polyline fill="none" stroke="black" points="845,-262.5 925,-262.5 "/>
<text text-anchor="middle" x="885" y="-247.3" font-family="Times,serif" font-size="14.00">Value 1000</text>
<polyline fill="none" stroke="black" points="845,-239.5 925,-239.5 "/>
<text text-anchor="middle" x="885" y="-224.3" font-family="Times,serif" font-size="14.00">Initial 0</text>
</g>
<!-- P6 -->
<g id="node7" class="node"><title>P6</title>
<polygon fill="none" stroke="black" points="0,-144.5 0,-213.5 69,-213.5 69,-144.5 0,-144.5"/>
<text text-anchor="middle" x="34.5" y="-198.3" font-family="Times,serif" font-size="14.00">Product 6</text>
<polyline fill="none" stroke="black" points="0,-190.5 69,-190.5 "/>
<text text-anchor="middle" x="34.5" y="-175.3" font-family="Times,serif" font-size="14.00">Value 0</text>
<polyline fill="none" stroke="black" points="0,-167.5 69,-167.5 "/>
<text text-anchor="middle" x="34.5" y="-152.3" font-family="Times,serif" font-size="14.00">Initial 3</text>
</g>
<!-- B0 -->
<g id="node8" class="node"><title>B0</title>
<path fill="none" stroke="black" d="M124,-167C124,-167 178,-167 178,-167 184,-167 190,-173 190,-179 190,-179 190,-201 190,-201 190,-207 184,-213 178,-213 178,-213 124,-213 124,-213 118,-213 112,-207 112,-201 112,-201 112,-179 112,-179 112,-173 118,-167 124,-167"/>
<text text-anchor="middle" x="151" y="-197.8" font-family="Times,serif" font-size="14.00">Blueprint 0</text>
<polyline fill="none" stroke="black" points="112,-190 190,-190 "/>
<text text-anchor="middle" x="151" y="-174.8" font-family="Times,serif" font-size="14.00">Coolant 10</text>
</g>
<!-- P6&#45;&gt;B0 -->
<g id="edge1" class="edge"><title>P6:a&#45;&gt;B0:a</title>
<path fill="none" stroke="black" d="M69,-202C84.2292,-202 90.3565,-202 101.888,-202"/>
<polygon fill="black" stroke="black" points="102,-205.5 112,-202 102,-198.5 102,-205.5"/>
<text text-anchor="middle" x="90.5" y="-205.8" font-family="Times,serif" font-size="14.00">1</text>
</g>
<!-- B1 -->
<g id="node9" class="node"><title>B1</title>
<path fill="none" stroke="black" d="M403,-25C403,-25 457,-25 457,-25 463,-25 469,-31 469,-37 469,-37 469,-59 469,-59 469,-65 463,-71 457,-71 457,-71 403,-71 403,-71 397,-71 391,-65 391,-59 391,-59 391,-37 391,-37 391,-31 397,-25 403,-25"/>
<text text-anchor="middle" x="430" y="-55.8" font-family="Times,serif" font-size="14.00">Blueprint 1</text>
<polyline fill="none" stroke="black" points="391,-48 469,-48 "/>
<text text-anchor="middle" x="430" y="-32.8" font-family="Times,serif" font-size="14.00">Coolant 10</text>
</g>
<!-- P6&#45;&gt;B1 -->
<g id="edge3" class="edge"><title>P6:a&#45;&gt;B1:a</title>
<path fill="none" stroke="black" d="M69,-202C101.447,-202 85.4991,-161.723 112,-143 214.875,-70.319 259.268,-60.4865 380.942,-60.0185"/>
<polygon fill="black" stroke="black" points="381.006,-63.5185 391,-60 380.994,-56.5185 381.006,-63.5185"/>
<text text-anchor="middle" x="151" y="-146.8" font-family="Times,serif" font-size="14.00">1</text>
</g>
<!-- B2 -->
<g id="node10" class="node"><title>B2</title>
<path fill="none" stroke="black" d="M220,-269C220,-269 274,-269 274,-269 280,-269 286,-275 286,-281 286,-281 286,-303 286,-303 286,-309 280,-315 274,-315 274,-315 220,-315 220,-315 214,-315 208,-309 208,-303 208,-303 208,-281 208,-281 208,-275 214,-269 220,-269"/>
<text text-anchor="middle" x="247" y="-299.8" font-family="Times,serif" font-size="14.00">Blueprint 2</text>
<polyline fill="none" stroke="black" points="208,-292 286,-292 "/>
<text text-anchor="middle" x="247" y="-276.8" font-family="Times,serif" font-size="14.00">Coolant 10</text>
</g>
<!-- P6&#45;&gt;B2 -->
<g id="edge5" class="edge"><title>P6:a&#45;&gt;B2:a</title>
<path fill="none" stroke="black" d="M69,-202C80.6322,-202 78.1545,-213.446 87,-221 133.878,-261.035 141.979,-299.549 197.814,-303.642"/>
<polygon fill="black" stroke="black" points="197.883,-307.146 208,-304 198.129,-300.151 197.883,-307.146"/>
<text text-anchor="middle" x="90.5" y="-229.8" font-family="Times,serif" font-size="14.00">1</text>
</g>
<!-- B0&#45;&gt;P0 -->
<g id="edge2" class="edge"><title>B0:a&#45;&gt;P0:a</title>
<path fill="none" stroke="black" d="M190,-202C237.104,-202 251.364,-202 293.85,-202"/>
<polygon fill="black" stroke="black" points="294,-205.5 304,-202 294,-198.5 294,-205.5"/>
<text text-anchor="middle" x="247" y="-205.8" font-family="Times,serif" font-size="14.00">1</text>
</g>
<!-- B1&#45;&gt;P1 -->
<g id="edge4" class="edge"><title>B1:a&#45;&gt;P1:a</title>
<path fill="none" stroke="black" d="M469,-60C477.012,-60 478.992,-59.2553 487,-59 537.39,-57.3938 552.524,-57.9151 598.254,-57.9914"/>
<polygon fill="black" stroke="black" points="598.497,-61.4915 608.5,-58 598.503,-54.4915 598.497,-61.4915"/>
<text text-anchor="middle" x="526" y="-62.8" font-family="Times,serif" font-size="14.00">1</text>
</g>
<!-- B2&#45;&gt;P2 -->
<g id="edge6" class="edge"><title>B2:a&#45;&gt;P2:a</title>
<path fill="none" stroke="black" d="M286,-304C352.763,-304 362.237,-350 429,-350 429,-350 429,-350 764,-350 812.101,-350 805.267,-304.911 827,-262 838.621,-239.055 825.765,-224.074 845,-207 854.216,-198.82 869.383,-206.439 878.154,-206.467"/>
<polygon fill="black" stroke="black" points="880.822,-208.736 885,-199 875.662,-204.005 880.822,-208.736"/>
<text text-anchor="middle" x="586.5" y="-353.8" font-family="Times,serif" font-size="14.00">1</text>
</g>
<!-- B3&#45;&gt;P0 -->
<g id="edge8" class="edge"><title>B3:a&#45;&gt;P0:a</title>
<path fill="none" stroke="black" d="M487,-257C443.227,-257 425.89,-261.434 391,-235 381.637,-227.906 384.801,-214.473 381.698,-207.123"/>
<polygon fill="black" stroke="black" points="383.393,-204.059 373,-202 379.84,-210.091 383.393,-204.059"/>
<text text-anchor="middle" x="430" y="-260.8" font-family="Times,serif" font-size="14.00">1</text>
</g>
<!-- B3&#45;&gt;P3 -->
<g id="edge9" class="edge"><title>B3:a&#45;&gt;P3:a</title>
<path fill="none" stroke="black" d="M565,-257C581.456,-257 586.353,-266.713 598.294,-270.507"/>
<polygon fill="black" stroke="black" points="598.099,-274.015 608.5,-272 599.112,-267.089 598.099,-274.015"/>
<text text-anchor="middle" x="586.5" y="-269.8" font-family="Times,serif" font-size="14.00">1</text>
</g>
<!-- B4&#45;&gt;P0 -->
<g id="edge12" class="edge"><title>B4:a&#45;&gt;P0:a</title>
<path fill="none" stroke="black" d="M487,-118C476.296,-118 478.359,-128.806 469,-134 437.399,-151.54 417.726,-132.669 391,-157 378.68,-168.216 387.536,-189.001 382.214,-197.844"/>
<polygon fill="black" stroke="black" points="380.677,-194.698 373,-202 383.555,-201.079 380.677,-194.698"/>
<text text-anchor="middle" x="430" y="-160.8" font-family="Times,serif" font-size="14.00">1</text>
</g>
<!-- B4&#45;&gt;P1 -->
<g id="edge13" class="edge"><title>B4:a&#45;&gt;P1:a</title>
<path fill="none" stroke="black" d="M565,-118C583.048,-118 579.462,-100.652 590,-86 595.988,-77.6753 595.437,-67.5627 599.354,-62.0553"/>
<polygon fill="black" stroke="black" points="600.777,-65.2531 608.5,-58 597.94,-58.8539 600.777,-65.2531"/>
<text text-anchor="middle" x="586.5" y="-103.8" font-family="Times,serif" font-size="14.00">1</text>
</g>
<!-- B4&#45;&gt;P4 -->
<g id="edge14" class="edge"><title>B4:a&#45;&gt;P4:a</title>
<path fill="none" stroke="black" d="M565,-118C583.886,-118 585.341,-137.202 598.235,-143.803"/>
<polygon fill="black" stroke="black" points="597.476,-147.219 608,-146 599.012,-140.39 597.476,-147.219"/>
<text text-anchor="middle" x="586.5" y="-139.8" font-family="Times,serif" font-size="14.00">1</text>
</g>
<!-- B5&#45;&gt;P0 -->
<g id="edge18" class="edge"><title>B5:a&#45;&gt;P0:a</title>
<path fill="none" stroke="black" d="M724,-186C575.869,-186 538.699,-188.703 391,-200 387.74,-200.249 385.486,-200.626 383.42,-200.986"/>
<polygon fill="black" stroke="black" points="382.614,-197.548 373,-202 383.292,-204.515 382.614,-197.548"/>
<text text-anchor="middle" x="586.5" y="-190.8" font-family="Times,serif" font-size="14.00">1</text>
</g>
<!-- B5&#45;&gt;P1 -->
<g id="edge19" class="edge"><title>B5:a&#45;&gt;P1:a</title>
<path fill="none" stroke="black" d="M724,-186C708.108,-186 704.086,-134.056 699,-119 691.349,-96.3536 703.608,-68.4962 690.608,-60.3437"/>
<polygon fill="black" stroke="black" points="691.032,-56.8494 680.5,-58 689.451,-63.6684 691.032,-56.8494"/>
<text text-anchor="middle" x="702.5" y="-153.8" font-family="Times,serif" font-size="14.00">1</text>
</g>
<!-- B5&#45;&gt;P2 -->
<g id="edge20" class="edge"><title>B5:a&#45;&gt;P2:a</title>
<path fill="none" stroke="black" d="M802,-186C818.972,-186 825.602,-186 838.696,-186"/>
<polygon fill="black" stroke="black" points="839,-189.5 849,-186 839,-182.5 839,-189.5"/>
<text text-anchor="middle" x="823.5" y="-189.8" font-family="Times,serif" font-size="14.00">1</text>
</g>
<!-- B5&#45;&gt;P5 -->
<g id="edge21" class="edge"><title>B5:a&#45;&gt;P5:a</title>
<path fill="none" stroke="black" d="M802,-186C820.449,-186 822.879,-249.23 836.447,-268.495"/>
<polygon fill="black" stroke="black" points="834.697,-271.531 845,-274 838.485,-265.645 834.697,-271.531"/>
<text text-anchor="middle" x="823.5" y="-246.8" font-family="Times,serif" font-size="14.00">1</text>
</g>
</g>
</svg>
