<?xml version="1.0" encoding="UTF-8" standalone="no"?>
<!DOCTYPE svg PUBLIC "-//W3C//DTD SVG 1.1//EN"
 "http://www.w3.org/Graphics/SVG/1.1/DTD/svg11.dtd">
<!-- Generated by graphviz version 2.38.0 (20140413.2041)
 -->
<!-- Title: g Pages: 1 -->
<svg width="679pt" height="346pt"
 viewBox="0.00 0.00 679.00 345.50" xmlns="http://www.w3.org/2000/svg" xmlns:xlink="http://www.w3.org/1999/xlink">
<g id="graph0" class="graph" transform="scale(1 1) rotate(0) translate(4 341.5)">
<title>g</title>
<polygon fill="white" stroke="none" points="-4,4 -4,-341.5 675,-341.5 675,4 -4,4"/>
<!-- P0 -->
<g id="node1" class="node"><title>P0</title>
<polygon fill="none" stroke="black" points="121,-167 121,-236 190,-236 190,-167 121,-167"/>
<text text-anchor="middle" x="155.5" y="-220.8" font-family="Times,serif" font-size="14.00">Product 0</text>
<polyline fill="none" stroke="black" points="121,-213 190,-213 "/>
<text text-anchor="middle" x="155.5" y="-197.8" font-family="Times,serif" font-size="14.00">Value &#45;1</text>
<polyline fill="none" stroke="black" points="121,-190 190,-190 "/>
<text text-anchor="middle" x="155.5" y="-174.8" font-family="Times,serif" font-size="14.00">Initial 0</text>
</g>
<!-- B3 -->
<g id="node10" class="node"><title>B3</title>
<path fill="none" stroke="black" d="M245,-275.5C245,-275.5 299,-275.5 299,-275.5 305,-275.5 311,-281.5 311,-287.5 311,-287.5 311,-309.5 311,-309.5 311,-315.5 305,-321.5 299,-321.5 299,-321.5 245,-321.5 245,-321.5 239,-321.5 233,-315.5 233,-309.5 233,-309.5 233,-287.5 233,-287.5 233,-281.5 239,-275.5 245,-275.5"/>
<text text-anchor="middle" x="272" y="-306.3" font-family="Times,serif" font-size="14.00">Blueprint 3</text>
<polyline fill="none" stroke="black" points="233,-298.5 311,-298.5 "/>
<text text-anchor="middle" x="272" y="-283.3" font-family="Times,serif" font-size="14.00">Coolant 5</text>
</g>
<!-- P0&#45;&gt;B3 -->
<g id="edge4" class="edge"><title>P0:a&#45;&gt;B3:a</title>
<path fill="none" stroke="black" d="M190,-224.5C219.548,-224.5 192.263,-263.491 208,-288.5 213.666,-297.504 216.456,-304.93 223.073,-308.395"/>
<polygon fill="black" stroke="black" points="222.491,-311.849 233,-310.5 223.944,-305.002 222.491,-311.849"/>
<text text-anchor="middle" x="211.5" y="-304.3" font-family="Times,serif" font-size="14.00">1</text>
</g>
<!-- B4 -->
<g id="node11" class="node"><title>B4</title>
<path fill="none" stroke="black" d="M245,-136.5C245,-136.5 299,-136.5 299,-136.5 305,-136.5 311,-142.5 311,-148.5 311,-148.5 311,-170.5 311,-170.5 311,-176.5 305,-182.5 299,-182.5 299,-182.5 245,-182.5 245,-182.5 239,-182.5 233,-176.5 233,-170.5 233,-170.5 233,-148.5 233,-148.5 233,-142.5 239,-136.5 245,-136.5"/>
<text text-anchor="middle" x="272" y="-167.3" font-family="Times,serif" font-size="14.00">Blueprint 4</text>
<polyline fill="none" stroke="black" points="233,-159.5 311,-159.5 "/>
<text text-anchor="middle" x="272" y="-144.3" font-family="Times,serif" font-size="14.00">Coolant 5</text>
</g>
<!-- P0&#45;&gt;B4 -->
<g id="edge7" class="edge"><title>P0:a&#45;&gt;B4:a</title>
<path fill="none" stroke="black" d="M190,-224.5C202.204,-224.5 212.79,-190.181 224.362,-176.776"/>
<polygon fill="black" stroke="black" points="226.29,-179.699 233,-171.5 222.641,-173.725 226.29,-179.699"/>
<text text-anchor="middle" x="211.5" y="-208.3" font-family="Times,serif" font-size="14.00">1</text>
</g>
<!-- B5 -->
<g id="node12" class="node"><title>B5</title>
<path fill="none" stroke="black" d="M482,-76.5C482,-76.5 536,-76.5 536,-76.5 542,-76.5 548,-82.5 548,-88.5 548,-88.5 548,-110.5 548,-110.5 548,-116.5 542,-122.5 536,-122.5 536,-122.5 482,-122.5 482,-122.5 476,-122.5 470,-116.5 470,-110.5 470,-110.5 470,-88.5 470,-88.5 470,-82.5 476,-76.5 482,-76.5"/>
<text text-anchor="middle" x="509" y="-107.3" font-family="Times,serif" font-size="14.00">Blueprint 5</text>
<polyline fill="none" stroke="black" points="470,-99.5 548,-99.5 "/>
<text text-anchor="middle" x="509" y="-84.3" font-family="Times,serif" font-size="14.00">Coolant 5</text>
</g>
<!-- P0&#45;&gt;B5 -->
<g id="edge12" class="edge"><title>P0:a&#45;&gt;B5:a</title>
<path fill="none" stroke="black" d="M190,-224.5C295.348,-224.5 340.408,-280.501 427,-220.5 445.56,-207.639 444.685,-135.114 461.106,-116.077"/>
<polygon fill="black" stroke="black" points="462.71,-119.188 470,-111.5 459.507,-112.964 462.71,-119.188"/>
<text text-anchor="middle" x="332.5" y="-252.3" font-family="Times,serif" font-size="14.00">1</text>
</g>
<!-- P1 -->
<g id="node2" class="node"><title>P1</title>
<polygon fill="none" stroke="black" points="356,-54 356,-123 425,-123 425,-54 356,-54"/>
<text text-anchor="middle" x="390.5" y="-107.8" font-family="Times,serif" font-size="14.00">Product 1</text>
<polyline fill="none" stroke="black" points="356,-100 425,-100 "/>
<text text-anchor="middle" x="390.5" y="-84.8" font-family="Times,serif" font-size="14.00">Value &#45;2</text>
<polyline fill="none" stroke="black" points="356,-77 425,-77 "/>
<text text-anchor="middle" x="390.5" y="-61.8" font-family="Times,serif" font-size="14.00">Initial 0</text>
</g>
<!-- P1&#45;&gt;B4 -->
<g id="edge8" class="edge"><title>P1:a&#45;&gt;B4:a</title>
<path fill="none" stroke="black" d="M354.5,-111.5C341.571,-111.5 337.533,-115.787 329,-125.5 317.68,-138.385 326.461,-159.213 320.376,-167.709"/>
<polygon fill="black" stroke="black" points="318.959,-164.507 311,-171.5 321.583,-170.996 318.959,-164.507"/>
<text text-anchor="middle" x="332.5" y="-129.3" font-family="Times,serif" font-size="14.00">1</text>
</g>
<!-- P1&#45;&gt;B5 -->
<g id="edge13" class="edge"><title>P1:a&#45;&gt;B5:a</title>
<path fill="none" stroke="black" d="M426.5,-111.5C441.906,-111.5 448.105,-111.5 459.771,-111.5"/>
<polygon fill="black" stroke="black" points="460,-115 470,-111.5 460,-108 460,-115"/>
<text text-anchor="middle" x="448.5" y="-115.3" font-family="Times,serif" font-size="14.00">1</text>
</g>
<!-- P2 -->
<g id="node3" class="node"><title>P2</title>
<polygon fill="none" stroke="black" points="596.5,-10 596.5,-79 665.5,-79 665.5,-10 596.5,-10"/>
<text text-anchor="middle" x="631" y="-63.8" font-family="Times,serif" font-size="14.00">Product 2</text>
<polyline fill="none" stroke="black" points="596.5,-56 665.5,-56 "/>
<text text-anchor="middle" x="631" y="-40.8" font-family="Times,serif" font-size="14.00">Value &#45;3</text>
<polyline fill="none" stroke="black" points="596.5,-33 665.5,-33 "/>
<text text-anchor="middle" x="631" y="-17.8" font-family="Times,serif" font-size="14.00">Initial 0</text>
</g>
<!-- P2&#45;&gt;B5 -->
<g id="edge14" class="edge"><title>P2:a&#45;&gt;B5:a</title>
<path fill="none" stroke="black" d="M595,-67.5C581.741,-67.5 576.331,-66.1893 566,-74.5 555.647,-82.8281 560.49,-98.5865 556.898,-106.582"/>
<polygon fill="black" stroke="black" points="555.059,-103.599 548,-111.5 558.445,-109.726 555.059,-103.599"/>
<text text-anchor="middle" x="569.5" y="-78.3" font-family="Times,serif" font-size="14.00">1</text>
</g>
<!-- P3 -->
<g id="node4" class="node"><title>P3</title>
<polygon fill="none" stroke="black" points="356,-268 356,-337 425,-337 425,-268 356,-268"/>
<text text-anchor="middle" x="390.5" y="-321.8" font-family="Times,serif" font-size="14.00">Product 3</text>
<polyline fill="none" stroke="black" points="356,-314 425,-314 "/>
<text text-anchor="middle" x="390.5" y="-298.8" font-family="Times,serif" font-size="14.00">Value 10</text>
<polyline fill="none" stroke="black" points="356,-291 425,-291 "/>
<text text-anchor="middle" x="390.5" y="-275.8" font-family="Times,serif" font-size="14.00">Initial 0</text>
</g>
<!-- P4 -->
<g id="node5" class="node"><title>P4</title>
<polygon fill="none" stroke="black" points="354,-142 354,-211 427,-211 427,-142 354,-142"/>
<text text-anchor="middle" x="390.5" y="-195.8" font-family="Times,serif" font-size="14.00">Product 4</text>
<polyline fill="none" stroke="black" points="354,-188 427,-188 "/>
<text text-anchor="middle" x="390.5" y="-172.8" font-family="Times,serif" font-size="14.00">Value 100</text>
<polyline fill="none" stroke="black" points="354,-165 427,-165 "/>
<text text-anchor="middle" x="390.5" y="-149.8" font-family="Times,serif" font-size="14.00">Initial 0</text>
</g>
<!-- P5 -->
<g id="node6" class="node"><title>P5</title>
<polygon fill="none" stroke="black" points="591,-98 591,-167 671,-167 671,-98 591,-98"/>
<text text-anchor="middle" x="631" y="-151.8" font-family="Times,serif" font-size="14.00">Product 5</text>
<polyline fill="none" stroke="black" points="591,-144 671,-144 "/>
<text text-anchor="middle" x="631" y="-128.8" font-family="Times,serif" font-size="14.00">Value 1000</text>
<polyline fill="none" stroke="black" points="591,-121 671,-121 "/>
<text text-anchor="middle" x="631" y="-105.8" font-family="Times,serif" font-size="14.00">Initial 0</text>
</g>
<!-- B0 -->
<g id="node7" class="node"><title>B0</title>
<path fill="none" stroke="black" d="M12,-189.5C12,-189.5 66,-189.5 66,-189.5 72,-189.5 78,-195.5 78,-201.5 78,-201.5 78,-223.5 78,-223.5 78,-229.5 72,-235.5 66,-235.5 66,-235.5 12,-235.5 12,-235.5 6,-235.5 0,-229.5 0,-223.5 0,-223.5 0,-201.5 0,-201.5 0,-195.5 6,-189.5 12,-189.5"/>
<text text-anchor="middle" x="39" y="-220.3" font-family="Times,serif" font-size="14.00">Blueprint 0</text>
<polyline fill="none" stroke="black" points="0,-212.5 78,-212.5 "/>
<text text-anchor="middle" x="39" y="-197.3" font-family="Times,serif" font-size="14.00">Coolant 10</text>
</g>
<!-- B0&#45;&gt;P0 -->
<g id="edge1" class="edge"><title>B0:a&#45;&gt;P0:a</title>
<path fill="none" stroke="black" d="M78,-224.5C93.2292,-224.5 99.3565,-224.5 110.888,-224.5"/>
<polygon fill="black" stroke="black" points="111,-228 121,-224.5 111,-221 111,-228"/>
<text text-anchor="middle" x="99.5" y="-228.3" font-family="Times,serif" font-size="14.00">1</text>
</g>
<!-- B1 -->
<g id="node8" class="node"><title>B1</title>
<path fill="none" stroke="black" d="M245,-53.5C245,-53.5 299,-53.5 299,-53.5 305,-53.5 311,-59.5 311,-65.5 311,-65.5 311,-87.5 311,-87.5 311,-93.5 305,-99.5 299,-99.5 299,-99.5 245,-99.5 245,-99.5 239,-99.5 233,-93.5 233,-87.5 233,-87.5 233,-65.5 233,-65.5 233,-59.5 239,-53.5 245,-53.5"/>
<text text-anchor="middle" x="272" y="-84.3" font-family="Times,serif" font-size="14.00">Blueprint 1</text>
<polyline fill="none" stroke="black" points="233,-76.5 311,-76.5 "/>
<text text-anchor="middle" x="272" y="-61.3" font-family="Times,serif" font-size="14.00">Coolant 10</text>
</g>
<!-- B1&#45;&gt;P1 -->
<g id="edge2" class="edge"><title>B1:a&#45;&gt;P1:a</title>
<path fill="none" stroke="black" d="M311,-88.5C322.12,-88.5 326.021,-82.5927 336,-87.5 343.742,-91.3075 343.63,-100.086 346.09,-105.904"/>
<polygon fill="black" stroke="black" points="344.236,-108.874 354.5,-111.5 348.113,-103.046 344.236,-108.874"/>
<text text-anchor="middle" x="332.5" y="-91.3" font-family="Times,serif" font-size="14.00">1</text>
</g>
<!-- B2 -->
<g id="node9" class="node"><title>B2</title>
<path fill="none" stroke="black" d="M482,-0.5C482,-0.5 536,-0.5 536,-0.5 542,-0.5 548,-6.5 548,-12.5 548,-12.5 548,-34.5 548,-34.5 548,-40.5 542,-46.5 536,-46.5 536,-46.5 482,-46.5 482,-46.5 476,-46.5 470,-40.5 470,-34.5 470,-34.5 470,-12.5 470,-12.5 470,-6.5 476,-0.5 482,-0.5"/>
<text text-anchor="middle" x="509" y="-31.3" font-family="Times,serif" font-size="14.00">Blueprint 2</text>
<polyline fill="none" stroke="black" points="470,-23.5 548,-23.5 "/>
<text text-anchor="middle" x="509" y="-8.3" font-family="Times,serif" font-size="14.00">Coolant 10</text>
</g>
<!-- B2&#45;&gt;P2 -->
<g id="edge3" class="edge"><title>B2:a&#45;&gt;P2:a</title>
<path fill="none" stroke="black" d="M548,-35.5C559.12,-35.5 563.224,-31.2001 573,-36.5 583.675,-42.2875 581.642,-55.7701 585.927,-62.8963"/>
<polygon fill="black" stroke="black" points="584.499,-66.0961 595,-67.5 587.666,-59.8537 584.499,-66.0961"/>
<text text-anchor="middle" x="569.5" y="-40.3" font-family="Times,serif" font-size="14.00">1</text>
</g>
<!-- B3&#45;&gt;P0 -->
<g id="edge5" class="edge"><title>B3:a&#45;&gt;P0:a</title>
<path fill="none" stroke="black" d="M233,-310.5C213.099,-310.5 223.842,-287.329 215,-269.5 211.228,-261.894 205.585,-240.79 198.25,-230.414"/>
<polygon fill="black" stroke="black" points="200.167,-227.482 190,-224.5 196.088,-233.171 200.167,-227.482"/>
<text text-anchor="middle" x="211.5" y="-273.3" font-family="Times,serif" font-size="14.00">1</text>
</g>
<!-- B3&#45;&gt;P3 -->
<g id="edge6" class="edge"><title>B3:a&#45;&gt;P3:a</title>
<path fill="none" stroke="black" d="M311,-310.5C327.456,-310.5 332.353,-320.213 344.294,-324.007"/>
<polygon fill="black" stroke="black" points="344.099,-327.515 354.5,-325.5 345.112,-320.589 344.099,-327.515"/>
<text text-anchor="middle" x="332.5" y="-324.3" font-family="Times,serif" font-size="14.00">1</text>
</g>
<!-- B4&#45;&gt;P0 -->
<g id="edge9" class="edge"><title>B4:a&#45;&gt;P0:a</title>
<path fill="none" stroke="black" d="M233,-171.5C221.853,-171.5 216.835,-166.704 208,-173.5 192.817,-185.178 205.666,-210.63 199.348,-220.488"/>
<polygon fill="black" stroke="black" points="197.809,-217.34 190,-224.5 200.57,-223.772 197.809,-217.34"/>
<text text-anchor="middle" x="211.5" y="-177.3" font-family="Times,serif" font-size="14.00">1</text>
</g>
<!-- B4&#45;&gt;P1 -->
<g id="edge10" class="edge"><title>B4:a&#45;&gt;P1:a</title>
<path fill="none" stroke="black" d="M311,-171.5C328.7,-171.5 325.669,-154.872 336,-140.5 342.135,-131.966 341.352,-121.459 345.232,-115.726"/>
<polygon fill="black" stroke="black" points="346.853,-118.833 354.5,-111.5 343.949,-112.464 346.853,-118.833"/>
<text text-anchor="middle" x="332.5" y="-158.3" font-family="Times,serif" font-size="14.00">1</text>
</g>
<!-- B4&#45;&gt;P4 -->
<g id="edge11" class="edge"><title>B4:a&#45;&gt;P4:a</title>
<path fill="none" stroke="black" d="M311,-171.5C329.886,-171.5 331.341,-190.702 344.235,-197.303"/>
<polygon fill="black" stroke="black" points="343.476,-200.719 354,-199.5 345.012,-193.89 343.476,-200.719"/>
<text text-anchor="middle" x="332.5" y="-194.3" font-family="Times,serif" font-size="14.00">1</text>
</g>
<!-- B5&#45;&gt;P0 -->
<g id="edge15" class="edge"><title>B5:a&#45;&gt;P0:a</title>
<path fill="none" stroke="black" d="M470,-111.5C461.154,-111.5 434.744,-48.7751 427,-44.5 403.478,-31.5148 245.437,-33.6715 233,-43.5 226,-49.0321 206.742,-179.904 194.958,-215.586"/>
<polygon fill="black" stroke="black" points="191.802,-214.06 190,-224.5 197.919,-217.462 191.802,-214.06"/>
<text text-anchor="middle" x="332.5" y="-39.3" font-family="Times,serif" font-size="14.00">1</text>
</g>
<!-- B5&#45;&gt;P1 -->
<g id="edge16" class="edge"><title>B5:a&#45;&gt;P1:a</title>
<path fill="none" stroke="black" d="M470,-111.5C458.368,-111.5 462.686,-97.0962 452,-92.5 449.142,-91.2707 447.866,-91.2903 445,-92.5 438.553,-95.2211 437.395,-101.409 435.051,-105.988"/>
<polygon fill="black" stroke="black" points="433.009,-103.14 426.5,-111.5 436.801,-109.023 433.009,-103.14"/>
<text text-anchor="middle" x="448.5" y="-96.3" font-family="Times,serif" font-size="14.00">1</text>
</g>
<!-- B5&#45;&gt;P2 -->
<g id="edge17" class="edge"><title>B5:a&#45;&gt;P2:a</title>
<path fill="none" stroke="black" d="M548,-111.5C562.801,-111.5 562.206,-99.6269 573,-89.5 579.775,-83.1432 581.135,-75.3972 585.492,-70.9983"/>
<polygon fill="black" stroke="black" points="586.824,-74.2379 595,-67.5 584.407,-67.6685 586.824,-74.2379"/>
<text text-anchor="middle" x="569.5" y="-102.3" font-family="Times,serif" font-size="14.00">1</text>
</g>
<!-- B5&#45;&gt;P5 -->
<g id="edge18" class="edge"><title>B5:a&#45;&gt;P5:a</title>
<path fill="none" stroke="black" d="M548,-111.5C559.632,-111.5 557.887,-122.164 566,-130.5 573.877,-138.593 575.229,-147.968 581.2,-152.6"/>
<polygon fill="black" stroke="black" points="580.418,-156.019 591,-155.5 582.404,-149.307 580.418,-156.019"/>
<text text-anchor="middle" x="569.5" y="-144.3" font-family="Times,serif" font-size="14.00">1</text>
</g>
</g>
</svg>
